ISO-10303-21;
HEADER;
/* PinSocket_1x04_P2.54mm_Vertical.step 3D STEP model for use in ECAD systems
 * Copyright (C) 2024, KiCAD
 *
 * This work is licensed under the
 * [Creative Commons CC-BY-SA 4.0 License](https://creativecommons.org/licenses/by-sa/4.0/legalcode),
 * with the following exception:
 *
 * To the extent that the creation of electronic designs that use 'Licensed Material' can be
 * considered to be 'Adapted Material', then the copyright holder waives article 3 of the license
 * with respect to these designs and any generated files which use data provided as part of the
 * 'Licensed Material'.
 *
 * You are free to use the library data in your own projects without the obligation to share your
 * project files under this or any other license agreement. However, if you wish to distribute
 * these libraries, or parts thereof (including in modified form) as a collection then the exception
 * above does not apply. Please refer to
 * https://gitlab.com/kicad/libraries/kicad-packages3D/-/blob/master/LICENSE.md for further clarification
 * of the exception.
 *
 * Disclaimer of Warranties and Limitation of Liability.
 * These libraries are provided in the hope that they will be useful, but are provided without warranty of any kind, express or implied.
 * USE 3D CAD DATA AT YOUR OWN RISK
 * DO NOT RELY UPON ANY INFORMATION FOUND HERE WITHOUT INDEPENDENT VERIFICATION.
 */

FILE_DESCRIPTION(
/* description */ ('model of PinSocket_1x04_P2.54mm_Vertical'),
/* implementation_level */ '2;1');

FILE_NAME(
/* name */ 'PinSocket_1x04_P2.54mm_Vertical.step',
/* time_stamp */ '1970-01-01T00:00:00',
/* author */ ('KiCAD','kicad'),
/* organization */ ('OCCT'),
/* preprocessor_version */ '',
/* originating_system */ 'KiCAD',
/* authorisation */ '');

FILE_SCHEMA(('AUTOMOTIVE_DESIGN { 1 0 10303 214 1 1 1 1 }'));
ENDSEC;

DATA;
#1=APPLICATION_PROTOCOL_DEFINITION('international standard','automotive_design',2000,#2);
#2=APPLICATION_CONTEXT('core data for automotive mechanical design processes');
#3=SHAPE_DEFINITION_REPRESENTATION(#4,#10);
#4=PRODUCT_DEFINITION_SHAPE('','',#5);
#5=PRODUCT_DEFINITION('design','',#6,#9);
#6=PRODUCT_DEFINITION_FORMATION('','',#7);
#7=PRODUCT('PinSocket_1x04_P2.54mm_Vertical','PinSocket_1x04_P2.54mm_Vertical','',(#8));
#8=PRODUCT_CONTEXT('',#2,'mechanical');
#9=PRODUCT_DEFINITION_CONTEXT('part definition',#2,'design');
#10=ADVANCED_BREP_SHAPE_REPRESENTATION('',(#11,#15),#2089);
#11=AXIS2_PLACEMENT_3D('',#12,#13,#14);
#12=CARTESIAN_POINT('',(0.,0.,0.));
#13=DIRECTION('',(0.,0.,1.));
#14=DIRECTION('',(1.,0.,-0.));
#15=MANIFOLD_SOLID_BREP('',#16);
#16=CLOSED_SHELL('',(#17,#46,#85,#125,#137,#235,#246,#254,#433,#438,#446,#472,#492,#512,#526,#547,#564,#581,#594,#615,#632,#649,#662,#683,#700,#717,#730,#739,#774,#780,#809,#817,#847,#853,#882,#890,#920,#926,#955,#963,#993,#999,#1028,#1046,#1081,#1095,#1126,#1144,#1179,#1193,#1224,#1242,#1277,#1291,#1322,#1340,#1375,#1389,#1420,#1430,#1441,#1451,#1462,#1470,#1480,#1490,#1500,#1510,#1518,#1528,#1538,#1548,#1558,#1566,#1576,#1586,#1596,#1606,#1614,#1624,#1631,#1661,#1675,#1698,#1707,#1717,#1724,#1751,#1765,#1788,#1797,#1807,#1814,#1841,#1855,#1878,#1887,#1897,#1904,#1931,#1945,#1968,#1977,#1987,#1997,#2005,#2015,#2025,#2033,#2043,#2053,#2061,#2071,#2081));
#17=ADVANCED_FACE('',(#18),#43,.F.);
#18=FACE_BOUND('',#19,.F.);
#19=EDGE_LOOP('',(#20,#28,#35,#40));
#20=ORIENTED_EDGE('',*,*,#21,.T.);
#21=EDGE_CURVE('',#22,#24,#26,.T.);
#22=VERTEX_POINT('',#23);
#23=CARTESIAN_POINT('',(1.27,-8.89,0.));
#24=VERTEX_POINT('',#25);
#25=CARTESIAN_POINT('',(1.27,-8.89,8.5));
#26=LINE('',#23,#27);
#27=VECTOR('',#13,1.);
#28=ORIENTED_EDGE('',*,*,#29,.T.);
#29=EDGE_CURVE('',#24,#30,#32,.T.);
#30=VERTEX_POINT('',#31);
#31=CARTESIAN_POINT('',(1.27,1.27,8.5));
#32=LINE('',#25,#33);
#33=VECTOR('',#34,1.);
#34=DIRECTION('',(1.110223024625E-16,1.,0.));
#35=ORIENTED_EDGE('',*,*,#36,.F.);
#36=EDGE_CURVE('',#37,#30,#39,.T.);
#37=VERTEX_POINT('',#38);
#38=CARTESIAN_POINT('',(1.27,1.27,0.));
#39=LINE('',#38,#27);
#40=ORIENTED_EDGE('',*,*,#41,.F.);
#41=EDGE_CURVE('',#22,#37,#42,.T.);
#42=LINE('',#23,#33);
#43=PLANE('',#44);
#44=AXIS2_PLACEMENT_3D('',#23,#45,#34);
#45=DIRECTION('',(-1.,1.110223024625E-16,0.));
#46=ADVANCED_FACE('',(#47),#83,.F.);
#47=FACE_BOUND('',#48,.F.);
#48=EDGE_LOOP('',(#49,#57,#62,#65,#66,#70,#75,#80));
#49=ORIENTED_EDGE('',*,*,#50,.F.);
#50=EDGE_CURVE('',#51,#53,#55,.T.);
#51=VERTEX_POINT('',#52);
#52=CARTESIAN_POINT('',(-1.27,-8.89,0.));
#53=VERTEX_POINT('',#54);
#54=CARTESIAN_POINT('',(-0.846666666667,-8.89,0.));
#55=LINE('',#52,#56);
#56=VECTOR('',#14,1.);
#57=ORIENTED_EDGE('',*,*,#58,.T.);
#58=EDGE_CURVE('',#51,#59,#61,.T.);
#59=VERTEX_POINT('',#60);
#60=CARTESIAN_POINT('',(-1.27,-8.89,8.5));
#61=LINE('',#52,#27);
#62=ORIENTED_EDGE('',*,*,#63,.T.);
#63=EDGE_CURVE('',#59,#24,#64,.T.);
#64=LINE('',#60,#56);
#65=ORIENTED_EDGE('',*,*,#21,.F.);
#66=ORIENTED_EDGE('',*,*,#67,.F.);
#67=EDGE_CURVE('',#68,#22,#55,.T.);
#68=VERTEX_POINT('',#69);
#69=CARTESIAN_POINT('',(0.846666666667,-8.89,0.));
#70=ORIENTED_EDGE('',*,*,#71,.T.);
#71=EDGE_CURVE('',#68,#72,#74,.T.);
#72=VERTEX_POINT('',#73);
#73=CARTESIAN_POINT('',(0.846666666667,-8.89,0.2));
#74=LINE('',#69,#27);
#75=ORIENTED_EDGE('',*,*,#76,.F.);
#76=EDGE_CURVE('',#77,#72,#79,.T.);
#77=VERTEX_POINT('',#78);
#78=CARTESIAN_POINT('',(-0.846666666667,-8.89,0.2));
#79=LINE('',#78,#56);
#80=ORIENTED_EDGE('',*,*,#81,.F.);
#81=EDGE_CURVE('',#53,#77,#82,.T.);
#82=LINE('',#54,#27);
#83=PLANE('',#84);
#84=AXIS2_PLACEMENT_3D('',#52,#34,#14);
#85=ADVANCED_FACE('',(#86),#122,.F.);
#86=FACE_BOUND('',#87,.F.);
#87=EDGE_LOOP('',(#88,#94,#95,#100,#105,#109,#114,#119));
#88=ORIENTED_EDGE('',*,*,#89,.F.);
#89=EDGE_CURVE('',#37,#90,#92,.T.);
#90=VERTEX_POINT('',#91);
#91=CARTESIAN_POINT('',(0.846666666667,1.27,0.));
#92=LINE('',#38,#93);
#93=VECTOR('',#45,1.);
#94=ORIENTED_EDGE('',*,*,#36,.T.);
#95=ORIENTED_EDGE('',*,*,#96,.T.);
#96=EDGE_CURVE('',#30,#97,#99,.T.);
#97=VERTEX_POINT('',#98);
#98=CARTESIAN_POINT('',(-1.27,1.27,8.5));
#99=LINE('',#31,#93);
#100=ORIENTED_EDGE('',*,*,#101,.F.);
#101=EDGE_CURVE('',#102,#97,#104,.T.);
#102=VERTEX_POINT('',#103);
#103=CARTESIAN_POINT('',(-1.27,1.27,0.));
#104=LINE('',#103,#27);
#105=ORIENTED_EDGE('',*,*,#106,.F.);
#106=EDGE_CURVE('',#107,#102,#92,.T.);
#107=VERTEX_POINT('',#108);
#108=CARTESIAN_POINT('',(-0.846666666667,1.27,0.));
#109=ORIENTED_EDGE('',*,*,#110,.T.);
#110=EDGE_CURVE('',#107,#111,#113,.T.);
#111=VERTEX_POINT('',#112);
#112=CARTESIAN_POINT('',(-0.846666666667,1.27,0.2));
#113=LINE('',#108,#27);
#114=ORIENTED_EDGE('',*,*,#115,.F.);
#115=EDGE_CURVE('',#116,#111,#118,.T.);
#116=VERTEX_POINT('',#117);
#117=CARTESIAN_POINT('',(0.846666666667,1.27,0.2));
#118=LINE('',#117,#93);
#119=ORIENTED_EDGE('',*,*,#120,.F.);
#120=EDGE_CURVE('',#90,#116,#121,.T.);
#121=LINE('',#91,#27);
#122=PLANE('',#123);
#123=AXIS2_PLACEMENT_3D('',#38,#124,#45);
#124=DIRECTION('',(-1.110223024625E-16,-1.,0.));
#125=ADVANCED_FACE('',(#126),#134,.F.);
#126=FACE_BOUND('',#127,.F.);
#127=EDGE_LOOP('',(#128,#129,#130,#131));
#128=ORIENTED_EDGE('',*,*,#67,.T.);
#129=ORIENTED_EDGE('',*,*,#41,.T.);
#130=ORIENTED_EDGE('',*,*,#89,.T.);
#131=ORIENTED_EDGE('',*,*,#132,.F.);
#132=EDGE_CURVE('',#68,#90,#133,.T.);
#133=LINE('',#69,#33);
#134=PLANE('',#135);
#135=AXIS2_PLACEMENT_3D('',#136,#13,#34);
#136=CARTESIAN_POINT('',(-3.952393967666E-16,-3.81,0.));
#137=ADVANCED_FACE('',(#138,#144,#166,#188,#210),#232,.T.);
#138=FACE_BOUND('',#139,.T.);
#139=EDGE_LOOP('',(#28,#95,#140,#62));
#140=ORIENTED_EDGE('',*,*,#141,.T.);
#141=EDGE_CURVE('',#97,#59,#142,.T.);
#142=LINE('',#98,#143);
#143=VECTOR('',#124,1.);
#144=FACE_BOUND('',#145,.T.);
#145=EDGE_LOOP('',(#146,#153,#158,#163));
#146=ORIENTED_EDGE('',*,*,#147,.F.);
#147=EDGE_CURVE('',#148,#150,#152,.T.);
#148=VERTEX_POINT('',#149);
#149=CARTESIAN_POINT('',(0.6,-8.22,8.5));
#150=VERTEX_POINT('',#151);
#151=CARTESIAN_POINT('',(0.6,-7.02,8.5));
#152=LINE('',#149,#33);
#153=ORIENTED_EDGE('',*,*,#154,.F.);
#154=EDGE_CURVE('',#155,#148,#157,.T.);
#155=VERTEX_POINT('',#156);
#156=CARTESIAN_POINT('',(-0.6,-8.22,8.5));
#157=LINE('',#156,#56);
#158=ORIENTED_EDGE('',*,*,#159,.F.);
#159=EDGE_CURVE('',#160,#155,#162,.T.);
#160=VERTEX_POINT('',#161);
#161=CARTESIAN_POINT('',(-0.6,-7.02,8.5));
#162=LINE('',#161,#143);
#163=ORIENTED_EDGE('',*,*,#164,.F.);
#164=EDGE_CURVE('',#150,#160,#165,.T.);
#165=LINE('',#151,#93);
#166=FACE_BOUND('',#167,.T.);
#167=EDGE_LOOP('',(#168,#175,#180,#185));
#168=ORIENTED_EDGE('',*,*,#169,.F.);
#169=EDGE_CURVE('',#170,#172,#174,.T.);
#170=VERTEX_POINT('',#171);
#171=CARTESIAN_POINT('',(0.6,-5.68,8.5));
#172=VERTEX_POINT('',#173);
#173=CARTESIAN_POINT('',(0.6,-4.48,8.5));
#174=LINE('',#171,#33);
#175=ORIENTED_EDGE('',*,*,#176,.F.);
#176=EDGE_CURVE('',#177,#170,#179,.T.);
#177=VERTEX_POINT('',#178);
#178=CARTESIAN_POINT('',(-0.6,-5.68,8.5));
#179=LINE('',#178,#56);
#180=ORIENTED_EDGE('',*,*,#181,.F.);
#181=EDGE_CURVE('',#182,#177,#184,.T.);
#182=VERTEX_POINT('',#183);
#183=CARTESIAN_POINT('',(-0.6,-4.48,8.5));
#184=LINE('',#183,#143);
#185=ORIENTED_EDGE('',*,*,#186,.F.);
#186=EDGE_CURVE('',#172,#182,#187,.T.);
#187=LINE('',#173,#93);
#188=FACE_BOUND('',#189,.T.);
#189=EDGE_LOOP('',(#190,#197,#202,#207));
#190=ORIENTED_EDGE('',*,*,#191,.F.);
#191=EDGE_CURVE('',#192,#194,#196,.T.);
#192=VERTEX_POINT('',#193);
#193=CARTESIAN_POINT('',(0.6,-3.14,8.5));
#194=VERTEX_POINT('',#195);
#195=CARTESIAN_POINT('',(0.6,-1.94,8.5));
#196=LINE('',#193,#33);
#197=ORIENTED_EDGE('',*,*,#198,.F.);
#198=EDGE_CURVE('',#199,#192,#201,.T.);
#199=VERTEX_POINT('',#200);
#200=CARTESIAN_POINT('',(-0.6,-3.14,8.5));
#201=LINE('',#200,#56);
#202=ORIENTED_EDGE('',*,*,#203,.F.);
#203=EDGE_CURVE('',#204,#199,#206,.T.);
#204=VERTEX_POINT('',#205);
#205=CARTESIAN_POINT('',(-0.6,-1.94,8.5));
#206=LINE('',#205,#143);
#207=ORIENTED_EDGE('',*,*,#208,.F.);
#208=EDGE_CURVE('',#194,#204,#209,.T.);
#209=LINE('',#195,#93);
#210=FACE_BOUND('',#211,.T.);
#211=EDGE_LOOP('',(#212,#219,#224,#229));
#212=ORIENTED_EDGE('',*,*,#213,.F.);
#213=EDGE_CURVE('',#214,#216,#218,.T.);
#214=VERTEX_POINT('',#215);
#215=CARTESIAN_POINT('',(0.6,-0.6,8.5));
#216=VERTEX_POINT('',#217);
#217=CARTESIAN_POINT('',(0.6,0.6,8.5));
#218=LINE('',#215,#33);
#219=ORIENTED_EDGE('',*,*,#220,.F.);
#220=EDGE_CURVE('',#221,#214,#223,.T.);
#221=VERTEX_POINT('',#222);
#222=CARTESIAN_POINT('',(-0.6,-0.6,8.5));
#223=LINE('',#222,#56);
#224=ORIENTED_EDGE('',*,*,#225,.F.);
#225=EDGE_CURVE('',#226,#221,#228,.T.);
#226=VERTEX_POINT('',#227);
#227=CARTESIAN_POINT('',(-0.6,0.6,8.5));
#228=LINE('',#227,#143);
#229=ORIENTED_EDGE('',*,*,#230,.F.);
#230=EDGE_CURVE('',#216,#226,#231,.T.);
#231=LINE('',#217,#93);
#232=PLANE('',#233);
#233=AXIS2_PLACEMENT_3D('',#234,#13,#34);
#234=CARTESIAN_POINT('',(-3.952393967666E-16,-3.81,8.5));
#235=ADVANCED_FACE('',(#236),#134,.F.);
#236=FACE_BOUND('',#237,.F.);
#237=EDGE_LOOP('',(#238,#239,#242,#243));
#238=ORIENTED_EDGE('',*,*,#50,.T.);
#239=ORIENTED_EDGE('',*,*,#240,.F.);
#240=EDGE_CURVE('',#107,#53,#241,.T.);
#241=LINE('',#108,#143);
#242=ORIENTED_EDGE('',*,*,#106,.T.);
#243=ORIENTED_EDGE('',*,*,#244,.T.);
#244=EDGE_CURVE('',#102,#51,#245,.T.);
#245=LINE('',#103,#143);
#246=ADVANCED_FACE('',(#247),#252,.T.);
#247=FACE_BOUND('',#248,.T.);
#248=EDGE_LOOP('',(#109,#249,#80,#239));
#249=ORIENTED_EDGE('',*,*,#250,.T.);
#250=EDGE_CURVE('',#111,#77,#251,.T.);
#251=LINE('',#112,#143);
#252=PLANE('',#253);
#253=AXIS2_PLACEMENT_3D('',#108,#14,#124);
#254=ADVANCED_FACE('',(#255,#262,#304,#346,#388),#430,.F.);
#255=FACE_BOUND('',#256,.F.);
#256=EDGE_LOOP('',(#257,#260,#249,#261));
#257=ORIENTED_EDGE('',*,*,#258,.T.);
#258=EDGE_CURVE('',#72,#116,#259,.T.);
#259=LINE('',#73,#33);
#260=ORIENTED_EDGE('',*,*,#115,.T.);
#261=ORIENTED_EDGE('',*,*,#76,.T.);
#262=FACE_BOUND('',#263,.F.);
#263=EDGE_LOOP('',(#264,#271,#276,#282,#286,#291,#296,#302));
#264=ORIENTED_EDGE('',*,*,#265,.F.);
#265=EDGE_CURVE('',#266,#268,#270,.T.);
#266=VERTEX_POINT('',#267);
#267=CARTESIAN_POINT('',(-0.1,-8.07,0.2));
#268=VERTEX_POINT('',#269);
#269=CARTESIAN_POINT('',(1.E-01,-8.07,0.2));
#270=LINE('',#267,#56);
#271=ORIENTED_EDGE('',*,*,#272,.T.);
#272=EDGE_CURVE('',#266,#273,#275,.T.);
#273=VERTEX_POINT('',#274);
#274=CARTESIAN_POINT('',(-0.1,-7.92,0.2));
#275=LINE('',#267,#33);
#276=ORIENTED_EDGE('',*,*,#277,.F.);
#277=EDGE_CURVE('',#278,#273,#280,.T.);
#278=VERTEX_POINT('',#279);
#279=CARTESIAN_POINT('',(-0.1,-7.32,0.2));
#280=LINE('',#281,#143);
#281=CARTESIAN_POINT('',(-0.1,-5.715,0.2));
#282=ORIENTED_EDGE('',*,*,#283,.T.);
#283=EDGE_CURVE('',#278,#284,#275,.T.);
#284=VERTEX_POINT('',#285);
#285=CARTESIAN_POINT('',(-0.1,-7.17,0.2));
#286=ORIENTED_EDGE('',*,*,#287,.T.);
#287=EDGE_CURVE('',#284,#288,#290,.T.);
#288=VERTEX_POINT('',#289);
#289=CARTESIAN_POINT('',(1.E-01,-7.17,0.2));
#290=LINE('',#285,#56);
#291=ORIENTED_EDGE('',*,*,#292,.T.);
#292=EDGE_CURVE('',#288,#293,#295,.T.);
#293=VERTEX_POINT('',#294);
#294=CARTESIAN_POINT('',(1.E-01,-7.32,0.2));
#295=LINE('',#289,#143);
#296=ORIENTED_EDGE('',*,*,#297,.T.);
#297=EDGE_CURVE('',#293,#298,#300,.T.);
#298=VERTEX_POINT('',#299);
#299=CARTESIAN_POINT('',(1.E-01,-7.92,0.2));
#300=LINE('',#301,#143);
#301=CARTESIAN_POINT('',(1.E-01,-5.715,0.2));
#302=ORIENTED_EDGE('',*,*,#303,.T.);
#303=EDGE_CURVE('',#298,#268,#295,.T.);
#304=FACE_BOUND('',#305,.F.);
#305=EDGE_LOOP('',(#306,#313,#318,#324,#328,#333,#338,#344));
#306=ORIENTED_EDGE('',*,*,#307,.F.);
#307=EDGE_CURVE('',#308,#310,#312,.T.);
#308=VERTEX_POINT('',#309);
#309=CARTESIAN_POINT('',(-0.1,-5.53,0.2));
#310=VERTEX_POINT('',#311);
#311=CARTESIAN_POINT('',(1.E-01,-5.53,0.2));
#312=LINE('',#309,#56);
#313=ORIENTED_EDGE('',*,*,#314,.T.);
#314=EDGE_CURVE('',#308,#315,#317,.T.);
#315=VERTEX_POINT('',#316);
#316=CARTESIAN_POINT('',(-0.1,-5.38,0.2));
#317=LINE('',#309,#33);
#318=ORIENTED_EDGE('',*,*,#319,.F.);
#319=EDGE_CURVE('',#320,#315,#322,.T.);
#320=VERTEX_POINT('',#321);
#321=CARTESIAN_POINT('',(-0.1,-4.78,0.2));
#322=LINE('',#323,#143);
#323=CARTESIAN_POINT('',(-0.1,-4.445,0.2));
#324=ORIENTED_EDGE('',*,*,#325,.T.);
#325=EDGE_CURVE('',#320,#326,#317,.T.);
#326=VERTEX_POINT('',#327);
#327=CARTESIAN_POINT('',(-0.1,-4.63,0.2));
#328=ORIENTED_EDGE('',*,*,#329,.T.);
#329=EDGE_CURVE('',#326,#330,#332,.T.);
#330=VERTEX_POINT('',#331);
#331=CARTESIAN_POINT('',(1.E-01,-4.63,0.2));
#332=LINE('',#327,#56);
#333=ORIENTED_EDGE('',*,*,#334,.T.);
#334=EDGE_CURVE('',#330,#335,#337,.T.);
#335=VERTEX_POINT('',#336);
#336=CARTESIAN_POINT('',(1.E-01,-4.78,0.2));
#337=LINE('',#331,#143);
#338=ORIENTED_EDGE('',*,*,#339,.T.);
#339=EDGE_CURVE('',#335,#340,#342,.T.);
#340=VERTEX_POINT('',#341);
#341=CARTESIAN_POINT('',(1.E-01,-5.38,0.2));
#342=LINE('',#343,#143);
#343=CARTESIAN_POINT('',(1.E-01,-4.445,0.2));
#344=ORIENTED_EDGE('',*,*,#345,.T.);
#345=EDGE_CURVE('',#340,#310,#337,.T.);
#346=FACE_BOUND('',#347,.F.);
#347=EDGE_LOOP('',(#348,#355,#360,#366,#370,#375,#380,#386));
#348=ORIENTED_EDGE('',*,*,#349,.F.);
#349=EDGE_CURVE('',#350,#352,#354,.T.);
#350=VERTEX_POINT('',#351);
#351=CARTESIAN_POINT('',(-0.1,-2.99,0.2));
#352=VERTEX_POINT('',#353);
#353=CARTESIAN_POINT('',(1.E-01,-2.99,0.2));
#354=LINE('',#351,#56);
#355=ORIENTED_EDGE('',*,*,#356,.T.);
#356=EDGE_CURVE('',#350,#357,#359,.T.);
#357=VERTEX_POINT('',#358);
#358=CARTESIAN_POINT('',(-0.1,-2.84,0.2));
#359=LINE('',#351,#33);
#360=ORIENTED_EDGE('',*,*,#361,.F.);
#361=EDGE_CURVE('',#362,#357,#364,.T.);
#362=VERTEX_POINT('',#363);
#363=CARTESIAN_POINT('',(-0.1,-2.24,0.2));
#364=LINE('',#365,#143);
#365=CARTESIAN_POINT('',(-0.1,-3.175,0.2));
#366=ORIENTED_EDGE('',*,*,#367,.T.);
#367=EDGE_CURVE('',#362,#368,#359,.T.);
#368=VERTEX_POINT('',#369);
#369=CARTESIAN_POINT('',(-0.1,-2.09,0.2));
#370=ORIENTED_EDGE('',*,*,#371,.T.);
#371=EDGE_CURVE('',#368,#372,#374,.T.);
#372=VERTEX_POINT('',#373);
#373=CARTESIAN_POINT('',(1.E-01,-2.09,0.2));
#374=LINE('',#369,#56);
#375=ORIENTED_EDGE('',*,*,#376,.T.);
#376=EDGE_CURVE('',#372,#377,#379,.T.);
#377=VERTEX_POINT('',#378);
#378=CARTESIAN_POINT('',(1.E-01,-2.24,0.2));
#379=LINE('',#373,#143);
#380=ORIENTED_EDGE('',*,*,#381,.T.);
#381=EDGE_CURVE('',#377,#382,#384,.T.);
#382=VERTEX_POINT('',#383);
#383=CARTESIAN_POINT('',(1.E-01,-2.84,0.2));
#384=LINE('',#385,#143);
#385=CARTESIAN_POINT('',(1.E-01,-3.175,0.2));
#386=ORIENTED_EDGE('',*,*,#387,.T.);
#387=EDGE_CURVE('',#382,#352,#379,.T.);
#388=FACE_BOUND('',#389,.F.);
#389=EDGE_LOOP('',(#390,#397,#402,#408,#412,#417,#422,#428));
#390=ORIENTED_EDGE('',*,*,#391,.F.);
#391=EDGE_CURVE('',#392,#394,#396,.T.);
#392=VERTEX_POINT('',#393);
#393=CARTESIAN_POINT('',(-0.1,-0.45,0.2));
#394=VERTEX_POINT('',#395);
#395=CARTESIAN_POINT('',(1.E-01,-0.45,0.2));
#396=LINE('',#393,#56);
#397=ORIENTED_EDGE('',*,*,#398,.T.);
#398=EDGE_CURVE('',#392,#399,#401,.T.);
#399=VERTEX_POINT('',#400);
#400=CARTESIAN_POINT('',(-0.1,-0.3,0.2));
#401=LINE('',#393,#33);
#402=ORIENTED_EDGE('',*,*,#403,.F.);
#403=EDGE_CURVE('',#404,#399,#406,.T.);
#404=VERTEX_POINT('',#405);
#405=CARTESIAN_POINT('',(-1.E-01,0.3,0.2));
#406=LINE('',#407,#143);
#407=CARTESIAN_POINT('',(-0.1,-1.905,0.2));
#408=ORIENTED_EDGE('',*,*,#409,.T.);
#409=EDGE_CURVE('',#404,#410,#401,.T.);
#410=VERTEX_POINT('',#411);
#411=CARTESIAN_POINT('',(-1.E-01,0.45,0.2));
#412=ORIENTED_EDGE('',*,*,#413,.T.);
#413=EDGE_CURVE('',#410,#414,#416,.T.);
#414=VERTEX_POINT('',#415);
#415=CARTESIAN_POINT('',(0.1,0.45,0.2));
#416=LINE('',#411,#56);
#417=ORIENTED_EDGE('',*,*,#418,.T.);
#418=EDGE_CURVE('',#414,#419,#421,.T.);
#419=VERTEX_POINT('',#420);
#420=CARTESIAN_POINT('',(0.1,0.3,0.2));
#421=LINE('',#415,#143);
#422=ORIENTED_EDGE('',*,*,#423,.T.);
#423=EDGE_CURVE('',#419,#424,#426,.T.);
#424=VERTEX_POINT('',#425);
#425=CARTESIAN_POINT('',(0.1,-0.3,0.2));
#426=LINE('',#427,#143);
#427=CARTESIAN_POINT('',(1.E-01,-1.905,0.2));
#428=ORIENTED_EDGE('',*,*,#429,.T.);
#429=EDGE_CURVE('',#424,#394,#421,.T.);
#430=PLANE('',#431);
#431=AXIS2_PLACEMENT_3D('',#432,#13,#34);
#432=CARTESIAN_POINT('',(-3.952393967666E-16,-3.81,0.2));
#433=ADVANCED_FACE('',(#434),#436,.T.);
#434=FACE_BOUND('',#435,.T.);
#435=EDGE_LOOP('',(#70,#257,#119,#131));
#436=PLANE('',#437);
#437=AXIS2_PLACEMENT_3D('',#69,#45,#34);
#438=ADVANCED_FACE('',(#439),#444,.F.);
#439=FACE_BOUND('',#440,.F.);
#440=EDGE_LOOP('',(#441,#140,#442,#443));
#441=ORIENTED_EDGE('',*,*,#101,.T.);
#442=ORIENTED_EDGE('',*,*,#58,.F.);
#443=ORIENTED_EDGE('',*,*,#244,.F.);
#444=PLANE('',#445);
#445=AXIS2_PLACEMENT_3D('',#103,#14,#124);
#446=ADVANCED_FACE('',(#447),#468,.T.);
#447=FACE_BOUND('',#448,.T.);
#448=EDGE_LOOP('',(#449,#456,#457,#464));
#449=ORIENTED_EDGE('',*,*,#450,.F.);
#450=EDGE_CURVE('',#148,#451,#453,.T.);
#451=VERTEX_POINT('',#452);
#452=CARTESIAN_POINT('',(0.3,-7.92,8.2));
#453=LINE('',#452,#454);
#454=VECTOR('',#455,1.);
#455=DIRECTION('',(-0.57735026919,0.57735026919,-0.57735026919));
#456=ORIENTED_EDGE('',*,*,#147,.T.);
#457=ORIENTED_EDGE('',*,*,#458,.T.);
#458=EDGE_CURVE('',#150,#459,#461,.T.);
#459=VERTEX_POINT('',#460);
#460=CARTESIAN_POINT('',(0.3,-7.32,8.2));
#461=LINE('',#460,#462);
#462=VECTOR('',#463,1.);
#463=DIRECTION('',(-0.57735026919,-0.57735026919,-0.57735026919));
#464=ORIENTED_EDGE('',*,*,#465,.F.);
#465=EDGE_CURVE('',#451,#459,#466,.T.);
#466=LINE('',#467,#33);
#467=CARTESIAN_POINT('',(0.3,-8.22,8.2));
#468=PLANE('',#469);
#469=AXIS2_PLACEMENT_3D('',#470,#471,#34);
#470=CARTESIAN_POINT('',(0.45,-8.22,8.35));
#471=DIRECTION('',(-0.707106781187,7.850462293419E-17,0.707106781187));
#472=ADVANCED_FACE('',(#473),#488,.T.);
#473=FACE_BOUND('',#474,.T.);
#474=EDGE_LOOP('',(#475,#476,#477,#484));
#475=ORIENTED_EDGE('',*,*,#458,.F.);
#476=ORIENTED_EDGE('',*,*,#164,.T.);
#477=ORIENTED_EDGE('',*,*,#478,.T.);
#478=EDGE_CURVE('',#160,#479,#481,.T.);
#479=VERTEX_POINT('',#480);
#480=CARTESIAN_POINT('',(-0.3,-7.32,8.2));
#481=LINE('',#480,#482);
#482=VECTOR('',#483,1.);
#483=DIRECTION('',(0.57735026919,-0.57735026919,-0.57735026919));
#484=ORIENTED_EDGE('',*,*,#485,.F.);
#485=EDGE_CURVE('',#459,#479,#486,.T.);
#486=LINE('',#487,#93);
#487=CARTESIAN_POINT('',(0.6,-7.32,8.2));
#488=PLANE('',#489);
#489=AXIS2_PLACEMENT_3D('',#490,#491,#45);
#490=CARTESIAN_POINT('',(0.6,-7.17,8.35));
#491=DIRECTION('',(-8.197719098454E-17,-0.707106781187,0.707106781187));
#492=ADVANCED_FACE('',(#493),#508,.T.);
#493=FACE_BOUND('',#494,.T.);
#494=EDGE_LOOP('',(#495,#496,#497,#504));
#495=ORIENTED_EDGE('',*,*,#478,.F.);
#496=ORIENTED_EDGE('',*,*,#159,.T.);
#497=ORIENTED_EDGE('',*,*,#498,.T.);
#498=EDGE_CURVE('',#155,#499,#501,.T.);
#499=VERTEX_POINT('',#500);
#500=CARTESIAN_POINT('',(-0.3,-7.92,8.2));
#501=LINE('',#500,#502);
#502=VECTOR('',#503,1.);
#503=DIRECTION('',(0.57735026919,0.57735026919,-0.57735026919));
#504=ORIENTED_EDGE('',*,*,#505,.F.);
#505=EDGE_CURVE('',#479,#499,#506,.T.);
#506=LINE('',#507,#143);
#507=CARTESIAN_POINT('',(-0.3,-7.02,8.2));
#508=PLANE('',#509);
#509=AXIS2_PLACEMENT_3D('',#510,#511,#124);
#510=CARTESIAN_POINT('',(-0.45,-7.02,8.35));
#511=DIRECTION('',(0.707106781187,-7.850462293419E-17,0.707106781187));
#512=ADVANCED_FACE('',(#513),#522,.T.);
#513=FACE_BOUND('',#514,.T.);
#514=EDGE_LOOP('',(#515,#516,#517,#518));
#515=ORIENTED_EDGE('',*,*,#498,.F.);
#516=ORIENTED_EDGE('',*,*,#154,.T.);
#517=ORIENTED_EDGE('',*,*,#450,.T.);
#518=ORIENTED_EDGE('',*,*,#519,.F.);
#519=EDGE_CURVE('',#499,#451,#520,.T.);
#520=LINE('',#521,#56);
#521=CARTESIAN_POINT('',(-0.6,-7.92,8.2));
#522=PLANE('',#523);
#523=AXIS2_PLACEMENT_3D('',#524,#525,#14);
#524=CARTESIAN_POINT('',(-0.6,-8.07,8.35));
#525=DIRECTION('',(8.197719098454E-17,0.707106781187,0.707106781187));
#526=ADVANCED_FACE('',(#527),#544,.T.);
#527=FACE_BOUND('',#528,.T.);
#528=EDGE_LOOP('',(#529,#534,#535,#540));
#529=ORIENTED_EDGE('',*,*,#530,.F.);
#530=EDGE_CURVE('',#170,#531,#533,.T.);
#531=VERTEX_POINT('',#532);
#532=CARTESIAN_POINT('',(0.3,-5.38,8.2));
#533=LINE('',#532,#454);
#534=ORIENTED_EDGE('',*,*,#169,.T.);
#535=ORIENTED_EDGE('',*,*,#536,.T.);
#536=EDGE_CURVE('',#172,#537,#539,.T.);
#537=VERTEX_POINT('',#538);
#538=CARTESIAN_POINT('',(0.3,-4.78,8.2));
#539=LINE('',#538,#462);
#540=ORIENTED_EDGE('',*,*,#541,.F.);
#541=EDGE_CURVE('',#531,#537,#542,.T.);
#542=LINE('',#543,#33);
#543=CARTESIAN_POINT('',(0.3,-5.68,8.2));
#544=PLANE('',#545);
#545=AXIS2_PLACEMENT_3D('',#546,#471,#34);
#546=CARTESIAN_POINT('',(0.45,-5.68,8.35));
#547=ADVANCED_FACE('',(#548),#561,.T.);
#548=FACE_BOUND('',#549,.T.);
#549=EDGE_LOOP('',(#550,#551,#552,#557));
#550=ORIENTED_EDGE('',*,*,#536,.F.);
#551=ORIENTED_EDGE('',*,*,#186,.T.);
#552=ORIENTED_EDGE('',*,*,#553,.T.);
#553=EDGE_CURVE('',#182,#554,#556,.T.);
#554=VERTEX_POINT('',#555);
#555=CARTESIAN_POINT('',(-0.3,-4.78,8.2));
#556=LINE('',#555,#482);
#557=ORIENTED_EDGE('',*,*,#558,.F.);
#558=EDGE_CURVE('',#537,#554,#559,.T.);
#559=LINE('',#560,#93);
#560=CARTESIAN_POINT('',(0.6,-4.78,8.2));
#561=PLANE('',#562);
#562=AXIS2_PLACEMENT_3D('',#563,#491,#45);
#563=CARTESIAN_POINT('',(0.6,-4.63,8.35));
#564=ADVANCED_FACE('',(#565),#578,.T.);
#565=FACE_BOUND('',#566,.T.);
#566=EDGE_LOOP('',(#567,#568,#569,#574));
#567=ORIENTED_EDGE('',*,*,#553,.F.);
#568=ORIENTED_EDGE('',*,*,#181,.T.);
#569=ORIENTED_EDGE('',*,*,#570,.T.);
#570=EDGE_CURVE('',#177,#571,#573,.T.);
#571=VERTEX_POINT('',#572);
#572=CARTESIAN_POINT('',(-0.3,-5.38,8.2));
#573=LINE('',#572,#502);
#574=ORIENTED_EDGE('',*,*,#575,.F.);
#575=EDGE_CURVE('',#554,#571,#576,.T.);
#576=LINE('',#577,#143);
#577=CARTESIAN_POINT('',(-0.3,-4.48,8.2));
#578=PLANE('',#579);
#579=AXIS2_PLACEMENT_3D('',#580,#511,#124);
#580=CARTESIAN_POINT('',(-0.45,-4.48,8.35));
#581=ADVANCED_FACE('',(#582),#591,.T.);
#582=FACE_BOUND('',#583,.T.);
#583=EDGE_LOOP('',(#584,#585,#586,#587));
#584=ORIENTED_EDGE('',*,*,#570,.F.);
#585=ORIENTED_EDGE('',*,*,#176,.T.);
#586=ORIENTED_EDGE('',*,*,#530,.T.);
#587=ORIENTED_EDGE('',*,*,#588,.F.);
#588=EDGE_CURVE('',#571,#531,#589,.T.);
#589=LINE('',#590,#56);
#590=CARTESIAN_POINT('',(-0.6,-5.38,8.2));
#591=PLANE('',#592);
#592=AXIS2_PLACEMENT_3D('',#593,#525,#14);
#593=CARTESIAN_POINT('',(-0.6,-5.53,8.35));
#594=ADVANCED_FACE('',(#595),#612,.T.);
#595=FACE_BOUND('',#596,.T.);
#596=EDGE_LOOP('',(#597,#602,#603,#608));
#597=ORIENTED_EDGE('',*,*,#598,.F.);
#598=EDGE_CURVE('',#192,#599,#601,.T.);
#599=VERTEX_POINT('',#600);
#600=CARTESIAN_POINT('',(0.3,-2.84,8.2));
#601=LINE('',#600,#454);
#602=ORIENTED_EDGE('',*,*,#191,.T.);
#603=ORIENTED_EDGE('',*,*,#604,.T.);
#604=EDGE_CURVE('',#194,#605,#607,.T.);
#605=VERTEX_POINT('',#606);
#606=CARTESIAN_POINT('',(0.3,-2.24,8.2));
#607=LINE('',#606,#462);
#608=ORIENTED_EDGE('',*,*,#609,.F.);
#609=EDGE_CURVE('',#599,#605,#610,.T.);
#610=LINE('',#611,#33);
#611=CARTESIAN_POINT('',(0.3,-3.14,8.2));
#612=PLANE('',#613);
#613=AXIS2_PLACEMENT_3D('',#614,#471,#34);
#614=CARTESIAN_POINT('',(0.45,-3.14,8.35));
#615=ADVANCED_FACE('',(#616),#629,.T.);
#616=FACE_BOUND('',#617,.T.);
#617=EDGE_LOOP('',(#618,#619,#620,#625));
#618=ORIENTED_EDGE('',*,*,#604,.F.);
#619=ORIENTED_EDGE('',*,*,#208,.T.);
#620=ORIENTED_EDGE('',*,*,#621,.T.);
#621=EDGE_CURVE('',#204,#622,#624,.T.);
#622=VERTEX_POINT('',#623);
#623=CARTESIAN_POINT('',(-0.3,-2.24,8.2));
#624=LINE('',#623,#482);
#625=ORIENTED_EDGE('',*,*,#626,.F.);
#626=EDGE_CURVE('',#605,#622,#627,.T.);
#627=LINE('',#628,#93);
#628=CARTESIAN_POINT('',(0.6,-2.24,8.2));
#629=PLANE('',#630);
#630=AXIS2_PLACEMENT_3D('',#631,#491,#45);
#631=CARTESIAN_POINT('',(0.6,-2.09,8.35));
#632=ADVANCED_FACE('',(#633),#646,.T.);
#633=FACE_BOUND('',#634,.T.);
#634=EDGE_LOOP('',(#635,#636,#637,#642));
#635=ORIENTED_EDGE('',*,*,#621,.F.);
#636=ORIENTED_EDGE('',*,*,#203,.T.);
#637=ORIENTED_EDGE('',*,*,#638,.T.);
#638=EDGE_CURVE('',#199,#639,#641,.T.);
#639=VERTEX_POINT('',#640);
#640=CARTESIAN_POINT('',(-0.3,-2.84,8.2));
#641=LINE('',#640,#502);
#642=ORIENTED_EDGE('',*,*,#643,.F.);
#643=EDGE_CURVE('',#622,#639,#644,.T.);
#644=LINE('',#645,#143);
#645=CARTESIAN_POINT('',(-0.3,-1.94,8.2));
#646=PLANE('',#647);
#647=AXIS2_PLACEMENT_3D('',#648,#511,#124);
#648=CARTESIAN_POINT('',(-0.45,-1.94,8.35));
#649=ADVANCED_FACE('',(#650),#659,.T.);
#650=FACE_BOUND('',#651,.T.);
#651=EDGE_LOOP('',(#652,#653,#654,#655));
#652=ORIENTED_EDGE('',*,*,#638,.F.);
#653=ORIENTED_EDGE('',*,*,#198,.T.);
#654=ORIENTED_EDGE('',*,*,#598,.T.);
#655=ORIENTED_EDGE('',*,*,#656,.F.);
#656=EDGE_CURVE('',#639,#599,#657,.T.);
#657=LINE('',#658,#56);
#658=CARTESIAN_POINT('',(-0.6,-2.84,8.2));
#659=PLANE('',#660);
#660=AXIS2_PLACEMENT_3D('',#661,#525,#14);
#661=CARTESIAN_POINT('',(-0.6,-2.99,8.35));
#662=ADVANCED_FACE('',(#663),#680,.T.);
#663=FACE_BOUND('',#664,.T.);
#664=EDGE_LOOP('',(#665,#670,#671,#676));
#665=ORIENTED_EDGE('',*,*,#666,.F.);
#666=EDGE_CURVE('',#214,#667,#669,.T.);
#667=VERTEX_POINT('',#668);
#668=CARTESIAN_POINT('',(0.3,-0.3,8.2));
#669=LINE('',#668,#454);
#670=ORIENTED_EDGE('',*,*,#213,.T.);
#671=ORIENTED_EDGE('',*,*,#672,.T.);
#672=EDGE_CURVE('',#216,#673,#675,.T.);
#673=VERTEX_POINT('',#674);
#674=CARTESIAN_POINT('',(0.3,0.3,8.2));
#675=LINE('',#674,#462);
#676=ORIENTED_EDGE('',*,*,#677,.F.);
#677=EDGE_CURVE('',#667,#673,#678,.T.);
#678=LINE('',#679,#33);
#679=CARTESIAN_POINT('',(0.3,-0.6,8.2));
#680=PLANE('',#681);
#681=AXIS2_PLACEMENT_3D('',#682,#471,#34);
#682=CARTESIAN_POINT('',(0.45,-0.6,8.35));
#683=ADVANCED_FACE('',(#684),#697,.T.);
#684=FACE_BOUND('',#685,.T.);
#685=EDGE_LOOP('',(#686,#687,#688,#693));
#686=ORIENTED_EDGE('',*,*,#672,.F.);
#687=ORIENTED_EDGE('',*,*,#230,.T.);
#688=ORIENTED_EDGE('',*,*,#689,.T.);
#689=EDGE_CURVE('',#226,#690,#692,.T.);
#690=VERTEX_POINT('',#691);
#691=CARTESIAN_POINT('',(-0.3,0.3,8.2));
#692=LINE('',#691,#482);
#693=ORIENTED_EDGE('',*,*,#694,.F.);
#694=EDGE_CURVE('',#673,#690,#695,.T.);
#695=LINE('',#696,#93);
#696=CARTESIAN_POINT('',(0.6,0.3,8.2));
#697=PLANE('',#698);
#698=AXIS2_PLACEMENT_3D('',#699,#491,#45);
#699=CARTESIAN_POINT('',(0.6,0.45,8.35));
#700=ADVANCED_FACE('',(#701),#714,.T.);
#701=FACE_BOUND('',#702,.T.);
#702=EDGE_LOOP('',(#703,#704,#705,#710));
#703=ORIENTED_EDGE('',*,*,#689,.F.);
#704=ORIENTED_EDGE('',*,*,#225,.T.);
#705=ORIENTED_EDGE('',*,*,#706,.T.);
#706=EDGE_CURVE('',#221,#707,#709,.T.);
#707=VERTEX_POINT('',#708);
#708=CARTESIAN_POINT('',(-0.3,-0.3,8.2));
#709=LINE('',#708,#502);
#710=ORIENTED_EDGE('',*,*,#711,.F.);
#711=EDGE_CURVE('',#690,#707,#712,.T.);
#712=LINE('',#713,#143);
#713=CARTESIAN_POINT('',(-0.3,0.6,8.2));
#714=PLANE('',#715);
#715=AXIS2_PLACEMENT_3D('',#716,#511,#124);
#716=CARTESIAN_POINT('',(-0.45,0.6,8.35));
#717=ADVANCED_FACE('',(#718),#727,.T.);
#718=FACE_BOUND('',#719,.T.);
#719=EDGE_LOOP('',(#720,#721,#722,#723));
#720=ORIENTED_EDGE('',*,*,#706,.F.);
#721=ORIENTED_EDGE('',*,*,#220,.T.);
#722=ORIENTED_EDGE('',*,*,#666,.T.);
#723=ORIENTED_EDGE('',*,*,#724,.F.);
#724=EDGE_CURVE('',#707,#667,#725,.T.);
#725=LINE('',#726,#56);
#726=CARTESIAN_POINT('',(-0.6,-0.3,8.2));
#727=PLANE('',#728);
#728=AXIS2_PLACEMENT_3D('',#729,#525,#14);
#729=CARTESIAN_POINT('',(-0.6,-0.45,8.35));
#730=ADVANCED_FACE('',(#731),#736,.T.);
#731=FACE_BOUND('',#732,.T.);
#732=EDGE_LOOP('',(#264,#271,#733,#302));
#733=ORIENTED_EDGE('',*,*,#734,.T.);
#734=EDGE_CURVE('',#273,#298,#735,.T.);
#735=LINE('',#274,#56);
#736=PLANE('',#737);
#737=AXIS2_PLACEMENT_3D('',#274,#738,#124);
#738=DIRECTION('',(0.,-0.,-1.));
#739=ADVANCED_FACE('',(#740),#771,.F.);
#740=FACE_BOUND('',#741,.F.);
#741=EDGE_LOOP('',(#742,#747,#748,#754,#761,#766));
#742=ORIENTED_EDGE('',*,*,#743,.T.);
#743=EDGE_CURVE('',#744,#298,#746,.T.);
#744=VERTEX_POINT('',#745);
#745=CARTESIAN_POINT('',(1.E-01,-7.92,-2.5));
#746=LINE('',#745,#27);
#747=ORIENTED_EDGE('',*,*,#297,.F.);
#748=ORIENTED_EDGE('',*,*,#749,.T.);
#749=EDGE_CURVE('',#293,#750,#752,.T.);
#750=VERTEX_POINT('',#751);
#751=CARTESIAN_POINT('',(1.E-01,-7.32,-2.5));
#752=LINE('',#294,#753);
#753=VECTOR('',#738,1.);
#754=ORIENTED_EDGE('',*,*,#755,.T.);
#755=EDGE_CURVE('',#750,#756,#758,.T.);
#756=VERTEX_POINT('',#757);
#757=CARTESIAN_POINT('',(1.E-01,-7.47,-3.1));
#758=LINE('',#751,#759);
#759=VECTOR('',#760,1.);
#760=DIRECTION('',(-2.692686352072E-17,-0.242535625036,-0.970142500145));
#761=ORIENTED_EDGE('',*,*,#762,.T.);
#762=EDGE_CURVE('',#756,#763,#765,.T.);
#763=VERTEX_POINT('',#764);
#764=CARTESIAN_POINT('',(1.E-01,-7.77,-3.1));
#765=LINE('',#757,#143);
#766=ORIENTED_EDGE('',*,*,#767,.T.);
#767=EDGE_CURVE('',#763,#744,#768,.T.);
#768=LINE('',#764,#769);
#769=VECTOR('',#770,1.);
#770=DIRECTION('',(-2.692686352072E-17,-0.242535625036,0.970142500145));
#771=PLANE('',#772);
#772=AXIS2_PLACEMENT_3D('',#773,#45,#13);
#773=CARTESIAN_POINT('',(1.E-01,-7.62,3.911477598424));
#774=ADVANCED_FACE('',(#775),#736,.T.);
#775=FACE_BOUND('',#776,.T.);
#776=EDGE_LOOP('',(#777,#282,#286,#291));
#777=ORIENTED_EDGE('',*,*,#778,.F.);
#778=EDGE_CURVE('',#278,#293,#779,.T.);
#779=LINE('',#279,#56);
#780=ADVANCED_FACE('',(#781),#806,.T.);
#781=FACE_BOUND('',#782,.T.);
#782=EDGE_LOOP('',(#783,#276,#788,#793,#798,#803));
#783=ORIENTED_EDGE('',*,*,#784,.T.);
#784=EDGE_CURVE('',#785,#273,#787,.T.);
#785=VERTEX_POINT('',#786);
#786=CARTESIAN_POINT('',(-0.1,-7.92,-2.5));
#787=LINE('',#786,#27);
#788=ORIENTED_EDGE('',*,*,#789,.T.);
#789=EDGE_CURVE('',#278,#790,#792,.T.);
#790=VERTEX_POINT('',#791);
#791=CARTESIAN_POINT('',(-0.1,-7.32,-2.5));
#792=LINE('',#279,#753);
#793=ORIENTED_EDGE('',*,*,#794,.T.);
#794=EDGE_CURVE('',#790,#795,#797,.T.);
#795=VERTEX_POINT('',#796);
#796=CARTESIAN_POINT('',(-0.1,-7.47,-3.1));
#797=LINE('',#791,#759);
#798=ORIENTED_EDGE('',*,*,#799,.F.);
#799=EDGE_CURVE('',#800,#795,#802,.T.);
#800=VERTEX_POINT('',#801);
#801=CARTESIAN_POINT('',(-0.1,-7.77,-3.1));
#802=LINE('',#801,#33);
#803=ORIENTED_EDGE('',*,*,#804,.T.);
#804=EDGE_CURVE('',#800,#785,#805,.T.);
#805=LINE('',#801,#769);
#806=PLANE('',#807);
#807=AXIS2_PLACEMENT_3D('',#808,#45,#13);
#808=CARTESIAN_POINT('',(-0.1,-7.62,3.911477598424));
#809=ADVANCED_FACE('',(#810),#815,.T.);
#810=FACE_BOUND('',#811,.T.);
#811=EDGE_LOOP('',(#306,#313,#812,#344));
#812=ORIENTED_EDGE('',*,*,#813,.T.);
#813=EDGE_CURVE('',#315,#340,#814,.T.);
#814=LINE('',#316,#56);
#815=PLANE('',#816);
#816=AXIS2_PLACEMENT_3D('',#316,#738,#124);
#817=ADVANCED_FACE('',(#818),#844,.F.);
#818=FACE_BOUND('',#819,.F.);
#819=EDGE_LOOP('',(#820,#825,#826,#831,#836,#841));
#820=ORIENTED_EDGE('',*,*,#821,.T.);
#821=EDGE_CURVE('',#822,#340,#824,.T.);
#822=VERTEX_POINT('',#823);
#823=CARTESIAN_POINT('',(1.E-01,-5.38,-2.5));
#824=LINE('',#823,#27);
#825=ORIENTED_EDGE('',*,*,#339,.F.);
#826=ORIENTED_EDGE('',*,*,#827,.T.);
#827=EDGE_CURVE('',#335,#828,#830,.T.);
#828=VERTEX_POINT('',#829);
#829=CARTESIAN_POINT('',(1.E-01,-4.78,-2.5));
#830=LINE('',#336,#753);
#831=ORIENTED_EDGE('',*,*,#832,.T.);
#832=EDGE_CURVE('',#828,#833,#835,.T.);
#833=VERTEX_POINT('',#834);
#834=CARTESIAN_POINT('',(1.E-01,-4.93,-3.1));
#835=LINE('',#829,#759);
#836=ORIENTED_EDGE('',*,*,#837,.T.);
#837=EDGE_CURVE('',#833,#838,#840,.T.);
#838=VERTEX_POINT('',#839);
#839=CARTESIAN_POINT('',(1.E-01,-5.23,-3.1));
#840=LINE('',#834,#143);
#841=ORIENTED_EDGE('',*,*,#842,.T.);
#842=EDGE_CURVE('',#838,#822,#843,.T.);
#843=LINE('',#839,#769);
#844=PLANE('',#845);
#845=AXIS2_PLACEMENT_3D('',#846,#45,#13);
#846=CARTESIAN_POINT('',(1.E-01,-5.08,3.911477598424));
#847=ADVANCED_FACE('',(#848),#815,.T.);
#848=FACE_BOUND('',#849,.T.);
#849=EDGE_LOOP('',(#850,#324,#328,#333));
#850=ORIENTED_EDGE('',*,*,#851,.F.);
#851=EDGE_CURVE('',#320,#335,#852,.T.);
#852=LINE('',#321,#56);
#853=ADVANCED_FACE('',(#854),#879,.T.);
#854=FACE_BOUND('',#855,.T.);
#855=EDGE_LOOP('',(#856,#318,#861,#866,#871,#876));
#856=ORIENTED_EDGE('',*,*,#857,.T.);
#857=EDGE_CURVE('',#858,#315,#860,.T.);
#858=VERTEX_POINT('',#859);
#859=CARTESIAN_POINT('',(-0.1,-5.38,-2.5));
#860=LINE('',#859,#27);
#861=ORIENTED_EDGE('',*,*,#862,.T.);
#862=EDGE_CURVE('',#320,#863,#865,.T.);
#863=VERTEX_POINT('',#864);
#864=CARTESIAN_POINT('',(-0.1,-4.78,-2.5));
#865=LINE('',#321,#753);
#866=ORIENTED_EDGE('',*,*,#867,.T.);
#867=EDGE_CURVE('',#863,#868,#870,.T.);
#868=VERTEX_POINT('',#869);
#869=CARTESIAN_POINT('',(-0.1,-4.93,-3.1));
#870=LINE('',#864,#759);
#871=ORIENTED_EDGE('',*,*,#872,.F.);
#872=EDGE_CURVE('',#873,#868,#875,.T.);
#873=VERTEX_POINT('',#874);
#874=CARTESIAN_POINT('',(-0.1,-5.23,-3.1));
#875=LINE('',#874,#33);
#876=ORIENTED_EDGE('',*,*,#877,.T.);
#877=EDGE_CURVE('',#873,#858,#878,.T.);
#878=LINE('',#874,#769);
#879=PLANE('',#880);
#880=AXIS2_PLACEMENT_3D('',#881,#45,#13);
#881=CARTESIAN_POINT('',(-0.1,-5.08,3.911477598424));
#882=ADVANCED_FACE('',(#883),#888,.T.);
#883=FACE_BOUND('',#884,.T.);
#884=EDGE_LOOP('',(#348,#355,#885,#386));
#885=ORIENTED_EDGE('',*,*,#886,.T.);
#886=EDGE_CURVE('',#357,#382,#887,.T.);
#887=LINE('',#358,#56);
#888=PLANE('',#889);
#889=AXIS2_PLACEMENT_3D('',#358,#738,#124);
#890=ADVANCED_FACE('',(#891),#917,.F.);
#891=FACE_BOUND('',#892,.F.);
#892=EDGE_LOOP('',(#893,#898,#899,#904,#909,#914));
#893=ORIENTED_EDGE('',*,*,#894,.T.);
#894=EDGE_CURVE('',#895,#382,#897,.T.);
#895=VERTEX_POINT('',#896);
#896=CARTESIAN_POINT('',(1.E-01,-2.84,-2.5));
#897=LINE('',#896,#27);
#898=ORIENTED_EDGE('',*,*,#381,.F.);
#899=ORIENTED_EDGE('',*,*,#900,.T.);
#900=EDGE_CURVE('',#377,#901,#903,.T.);
#901=VERTEX_POINT('',#902);
#902=CARTESIAN_POINT('',(1.E-01,-2.24,-2.5));
#903=LINE('',#378,#753);
#904=ORIENTED_EDGE('',*,*,#905,.T.);
#905=EDGE_CURVE('',#901,#906,#908,.T.);
#906=VERTEX_POINT('',#907);
#907=CARTESIAN_POINT('',(1.E-01,-2.39,-3.1));
#908=LINE('',#902,#759);
#909=ORIENTED_EDGE('',*,*,#910,.T.);
#910=EDGE_CURVE('',#906,#911,#913,.T.);
#911=VERTEX_POINT('',#912);
#912=CARTESIAN_POINT('',(1.E-01,-2.69,-3.1));
#913=LINE('',#907,#143);
#914=ORIENTED_EDGE('',*,*,#915,.T.);
#915=EDGE_CURVE('',#911,#895,#916,.T.);
#916=LINE('',#912,#769);
#917=PLANE('',#918);
#918=AXIS2_PLACEMENT_3D('',#919,#45,#13);
#919=CARTESIAN_POINT('',(1.E-01,-2.54,3.911477598424));
#920=ADVANCED_FACE('',(#921),#888,.T.);
#921=FACE_BOUND('',#922,.T.);
#922=EDGE_LOOP('',(#923,#366,#370,#375));
#923=ORIENTED_EDGE('',*,*,#924,.F.);
#924=EDGE_CURVE('',#362,#377,#925,.T.);
#925=LINE('',#363,#56);
#926=ADVANCED_FACE('',(#927),#952,.T.);
#927=FACE_BOUND('',#928,.T.);
#928=EDGE_LOOP('',(#929,#360,#934,#939,#944,#949));
#929=ORIENTED_EDGE('',*,*,#930,.T.);
#930=EDGE_CURVE('',#931,#357,#933,.T.);
#931=VERTEX_POINT('',#932);
#932=CARTESIAN_POINT('',(-0.1,-2.84,-2.5));
#933=LINE('',#932,#27);
#934=ORIENTED_EDGE('',*,*,#935,.T.);
#935=EDGE_CURVE('',#362,#936,#938,.T.);
#936=VERTEX_POINT('',#937);
#937=CARTESIAN_POINT('',(-0.1,-2.24,-2.5));
#938=LINE('',#363,#753);
#939=ORIENTED_EDGE('',*,*,#940,.T.);
#940=EDGE_CURVE('',#936,#941,#943,.T.);
#941=VERTEX_POINT('',#942);
#942=CARTESIAN_POINT('',(-0.1,-2.39,-3.1));
#943=LINE('',#937,#759);
#944=ORIENTED_EDGE('',*,*,#945,.F.);
#945=EDGE_CURVE('',#946,#941,#948,.T.);
#946=VERTEX_POINT('',#947);
#947=CARTESIAN_POINT('',(-0.1,-2.69,-3.1));
#948=LINE('',#947,#33);
#949=ORIENTED_EDGE('',*,*,#950,.T.);
#950=EDGE_CURVE('',#946,#931,#951,.T.);
#951=LINE('',#947,#769);
#952=PLANE('',#953);
#953=AXIS2_PLACEMENT_3D('',#954,#45,#13);
#954=CARTESIAN_POINT('',(-0.1,-2.54,3.911477598424));
#955=ADVANCED_FACE('',(#956),#961,.T.);
#956=FACE_BOUND('',#957,.T.);
#957=EDGE_LOOP('',(#390,#397,#958,#428));
#958=ORIENTED_EDGE('',*,*,#959,.T.);
#959=EDGE_CURVE('',#399,#424,#960,.T.);
#960=LINE('',#400,#56);
#961=PLANE('',#962);
#962=AXIS2_PLACEMENT_3D('',#400,#738,#124);
#963=ADVANCED_FACE('',(#964),#990,.F.);
#964=FACE_BOUND('',#965,.F.);
#965=EDGE_LOOP('',(#966,#971,#972,#977,#982,#987));
#966=ORIENTED_EDGE('',*,*,#967,.T.);
#967=EDGE_CURVE('',#968,#424,#970,.T.);
#968=VERTEX_POINT('',#969);
#969=CARTESIAN_POINT('',(0.1,-0.3,-2.5));
#970=LINE('',#969,#27);
#971=ORIENTED_EDGE('',*,*,#423,.F.);
#972=ORIENTED_EDGE('',*,*,#973,.T.);
#973=EDGE_CURVE('',#419,#974,#976,.T.);
#974=VERTEX_POINT('',#975);
#975=CARTESIAN_POINT('',(0.1,0.3,-2.5));
#976=LINE('',#420,#753);
#977=ORIENTED_EDGE('',*,*,#978,.T.);
#978=EDGE_CURVE('',#974,#979,#981,.T.);
#979=VERTEX_POINT('',#980);
#980=CARTESIAN_POINT('',(0.1,0.15,-3.1));
#981=LINE('',#975,#759);
#982=ORIENTED_EDGE('',*,*,#983,.T.);
#983=EDGE_CURVE('',#979,#984,#986,.T.);
#984=VERTEX_POINT('',#985);
#985=CARTESIAN_POINT('',(0.1,-0.15,-3.1));
#986=LINE('',#980,#143);
#987=ORIENTED_EDGE('',*,*,#988,.T.);
#988=EDGE_CURVE('',#984,#968,#989,.T.);
#989=LINE('',#985,#769);
#990=PLANE('',#991);
#991=AXIS2_PLACEMENT_3D('',#992,#45,#13);
#992=CARTESIAN_POINT('',(0.1,-1.110223024625E-17,3.911477598424));
#993=ADVANCED_FACE('',(#994),#961,.T.);
#994=FACE_BOUND('',#995,.T.);
#995=EDGE_LOOP('',(#996,#408,#412,#417));
#996=ORIENTED_EDGE('',*,*,#997,.F.);
#997=EDGE_CURVE('',#404,#419,#998,.T.);
#998=LINE('',#405,#56);
#999=ADVANCED_FACE('',(#1000),#1025,.T.);
#1000=FACE_BOUND('',#1001,.T.);
#1001=EDGE_LOOP('',(#1002,#402,#1007,#1012,#1017,#1022));
#1002=ORIENTED_EDGE('',*,*,#1003,.T.);
#1003=EDGE_CURVE('',#1004,#399,#1006,.T.);
#1004=VERTEX_POINT('',#1005);
#1005=CARTESIAN_POINT('',(-0.1,-0.3,-2.5));
#1006=LINE('',#1005,#27);
#1007=ORIENTED_EDGE('',*,*,#1008,.T.);
#1008=EDGE_CURVE('',#404,#1009,#1011,.T.);
#1009=VERTEX_POINT('',#1010);
#1010=CARTESIAN_POINT('',(-1.E-01,0.3,-2.5));
#1011=LINE('',#405,#753);
#1012=ORIENTED_EDGE('',*,*,#1013,.T.);
#1013=EDGE_CURVE('',#1009,#1014,#1016,.T.);
#1014=VERTEX_POINT('',#1015);
#1015=CARTESIAN_POINT('',(-1.E-01,0.15,-3.1));
#1016=LINE('',#1010,#759);
#1017=ORIENTED_EDGE('',*,*,#1018,.F.);
#1018=EDGE_CURVE('',#1019,#1014,#1021,.T.);
#1019=VERTEX_POINT('',#1020);
#1020=CARTESIAN_POINT('',(-1.E-01,-0.15,-3.1));
#1021=LINE('',#1020,#33);
#1022=ORIENTED_EDGE('',*,*,#1023,.T.);
#1023=EDGE_CURVE('',#1019,#1004,#1024,.T.);
#1024=LINE('',#1020,#769);
#1025=PLANE('',#1026);
#1026=AXIS2_PLACEMENT_3D('',#1027,#45,#13);
#1027=CARTESIAN_POINT('',(-1.E-01,1.110223024625E-17,3.911477598424));
#1028=ADVANCED_FACE('',(#1029),#1044,.F.);
#1029=FACE_BOUND('',#1030,.F.);
#1030=EDGE_LOOP('',(#1031,#1036,#1041,#464));
#1031=ORIENTED_EDGE('',*,*,#1032,.T.);
#1032=EDGE_CURVE('',#451,#1033,#1035,.T.);
#1033=VERTEX_POINT('',#1034);
#1034=CARTESIAN_POINT('',(0.3,-7.92,0.9));
#1035=LINE('',#452,#753);
#1036=ORIENTED_EDGE('',*,*,#1037,.T.);
#1037=EDGE_CURVE('',#1033,#1038,#1040,.T.);
#1038=VERTEX_POINT('',#1039);
#1039=CARTESIAN_POINT('',(0.3,-7.32,0.9));
#1040=LINE('',#1034,#33);
#1041=ORIENTED_EDGE('',*,*,#1042,.F.);
#1042=EDGE_CURVE('',#459,#1038,#1043,.T.);
#1043=LINE('',#460,#753);
#1044=PLANE('',#1045);
#1045=AXIS2_PLACEMENT_3D('',#452,#14,#34);
#1046=ADVANCED_FACE('',(#1047),#1079,.F.);
#1047=FACE_BOUND('',#1048,.F.);
#1048=EDGE_LOOP('',(#484,#1049,#1050,#1055,#1061,#1066,#1072,#1076));
#1049=ORIENTED_EDGE('',*,*,#1042,.T.);
#1050=ORIENTED_EDGE('',*,*,#1051,.T.);
#1051=EDGE_CURVE('',#1038,#1052,#1054,.T.);
#1052=VERTEX_POINT('',#1053);
#1053=CARTESIAN_POINT('',(1.E-01,-7.32,0.9));
#1054=LINE('',#1039,#93);
#1055=ORIENTED_EDGE('',*,*,#1056,.T.);
#1056=EDGE_CURVE('',#1052,#1057,#1059,.T.);
#1057=VERTEX_POINT('',#1058);
#1058=CARTESIAN_POINT('',(1.E-01,-7.32,7.4));
#1059=LINE('',#1060,#27);
#1060=CARTESIAN_POINT('',(1.E-01,-7.32,6.055738799212));
#1061=ORIENTED_EDGE('',*,*,#1062,.F.);
#1062=EDGE_CURVE('',#1063,#1057,#1065,.T.);
#1063=VERTEX_POINT('',#1064);
#1064=CARTESIAN_POINT('',(-0.1,-7.32,7.4));
#1065=LINE('',#1064,#56);
#1066=ORIENTED_EDGE('',*,*,#1067,.F.);
#1067=EDGE_CURVE('',#1068,#1063,#1070,.T.);
#1068=VERTEX_POINT('',#1069);
#1069=CARTESIAN_POINT('',(-0.1,-7.32,0.9));
#1070=LINE('',#1071,#27);
#1071=CARTESIAN_POINT('',(-0.1,-7.32,6.055738799212));
#1072=ORIENTED_EDGE('',*,*,#1073,.T.);
#1073=EDGE_CURVE('',#1068,#1074,#1054,.T.);
#1074=VERTEX_POINT('',#1075);
#1075=CARTESIAN_POINT('',(-0.3,-7.32,0.9));
#1076=ORIENTED_EDGE('',*,*,#1077,.F.);
#1077=EDGE_CURVE('',#479,#1074,#1078,.T.);
#1078=LINE('',#480,#753);
#1079=PLANE('',#1080);
#1080=AXIS2_PLACEMENT_3D('',#460,#34,#45);
#1081=ADVANCED_FACE('',(#1082),#1093,.F.);
#1082=FACE_BOUND('',#1083,.F.);
#1083=EDGE_LOOP('',(#1084,#1085,#1090,#504));
#1084=ORIENTED_EDGE('',*,*,#1077,.T.);
#1085=ORIENTED_EDGE('',*,*,#1086,.T.);
#1086=EDGE_CURVE('',#1074,#1087,#1089,.T.);
#1087=VERTEX_POINT('',#1088);
#1088=CARTESIAN_POINT('',(-0.3,-7.92,0.9));
#1089=LINE('',#1075,#143);
#1090=ORIENTED_EDGE('',*,*,#1091,.F.);
#1091=EDGE_CURVE('',#499,#1087,#1092,.T.);
#1092=LINE('',#500,#753);
#1093=PLANE('',#1094);
#1094=AXIS2_PLACEMENT_3D('',#480,#45,#124);
#1095=ADVANCED_FACE('',(#1096),#1124,.F.);
#1096=FACE_BOUND('',#1097,.F.);
#1097=EDGE_LOOP('',(#518,#1098,#1099,#1104,#1110,#1115,#1121,#1123));
#1098=ORIENTED_EDGE('',*,*,#1091,.T.);
#1099=ORIENTED_EDGE('',*,*,#1100,.T.);
#1100=EDGE_CURVE('',#1087,#1101,#1103,.T.);
#1101=VERTEX_POINT('',#1102);
#1102=CARTESIAN_POINT('',(-0.1,-7.92,0.9));
#1103=LINE('',#1088,#56);
#1104=ORIENTED_EDGE('',*,*,#1105,.F.);
#1105=EDGE_CURVE('',#1106,#1101,#1108,.T.);
#1106=VERTEX_POINT('',#1107);
#1107=CARTESIAN_POINT('',(-0.1,-7.92,7.4));
#1108=LINE('',#1109,#753);
#1109=CARTESIAN_POINT('',(-0.1,-7.92,6.055738799212));
#1110=ORIENTED_EDGE('',*,*,#1111,.T.);
#1111=EDGE_CURVE('',#1106,#1112,#1114,.T.);
#1112=VERTEX_POINT('',#1113);
#1113=CARTESIAN_POINT('',(1.E-01,-7.92,7.4));
#1114=LINE('',#1107,#56);
#1115=ORIENTED_EDGE('',*,*,#1116,.T.);
#1116=EDGE_CURVE('',#1112,#1117,#1119,.T.);
#1117=VERTEX_POINT('',#1118);
#1118=CARTESIAN_POINT('',(1.E-01,-7.92,0.9));
#1119=LINE('',#1120,#753);
#1120=CARTESIAN_POINT('',(1.E-01,-7.92,6.055738799212));
#1121=ORIENTED_EDGE('',*,*,#1122,.T.);
#1122=EDGE_CURVE('',#1117,#1033,#1103,.T.);
#1123=ORIENTED_EDGE('',*,*,#1032,.F.);
#1124=PLANE('',#1125);
#1125=AXIS2_PLACEMENT_3D('',#500,#124,#14);
#1126=ADVANCED_FACE('',(#1127),#1142,.F.);
#1127=FACE_BOUND('',#1128,.F.);
#1128=EDGE_LOOP('',(#1129,#1134,#1139,#540));
#1129=ORIENTED_EDGE('',*,*,#1130,.T.);
#1130=EDGE_CURVE('',#531,#1131,#1133,.T.);
#1131=VERTEX_POINT('',#1132);
#1132=CARTESIAN_POINT('',(0.3,-5.38,0.9));
#1133=LINE('',#532,#753);
#1134=ORIENTED_EDGE('',*,*,#1135,.T.);
#1135=EDGE_CURVE('',#1131,#1136,#1138,.T.);
#1136=VERTEX_POINT('',#1137);
#1137=CARTESIAN_POINT('',(0.3,-4.78,0.9));
#1138=LINE('',#1132,#33);
#1139=ORIENTED_EDGE('',*,*,#1140,.F.);
#1140=EDGE_CURVE('',#537,#1136,#1141,.T.);
#1141=LINE('',#538,#753);
#1142=PLANE('',#1143);
#1143=AXIS2_PLACEMENT_3D('',#532,#14,#34);
#1144=ADVANCED_FACE('',(#1145),#1177,.F.);
#1145=FACE_BOUND('',#1146,.F.);
#1146=EDGE_LOOP('',(#557,#1147,#1148,#1153,#1159,#1164,#1170,#1174));
#1147=ORIENTED_EDGE('',*,*,#1140,.T.);
#1148=ORIENTED_EDGE('',*,*,#1149,.T.);
#1149=EDGE_CURVE('',#1136,#1150,#1152,.T.);
#1150=VERTEX_POINT('',#1151);
#1151=CARTESIAN_POINT('',(1.E-01,-4.78,0.9));
#1152=LINE('',#1137,#93);
#1153=ORIENTED_EDGE('',*,*,#1154,.T.);
#1154=EDGE_CURVE('',#1150,#1155,#1157,.T.);
#1155=VERTEX_POINT('',#1156);
#1156=CARTESIAN_POINT('',(1.E-01,-4.78,7.4));
#1157=LINE('',#1158,#27);
#1158=CARTESIAN_POINT('',(1.E-01,-4.78,6.055738799212));
#1159=ORIENTED_EDGE('',*,*,#1160,.F.);
#1160=EDGE_CURVE('',#1161,#1155,#1163,.T.);
#1161=VERTEX_POINT('',#1162);
#1162=CARTESIAN_POINT('',(-0.1,-4.78,7.4));
#1163=LINE('',#1162,#56);
#1164=ORIENTED_EDGE('',*,*,#1165,.F.);
#1165=EDGE_CURVE('',#1166,#1161,#1168,.T.);
#1166=VERTEX_POINT('',#1167);
#1167=CARTESIAN_POINT('',(-0.1,-4.78,0.9));
#1168=LINE('',#1169,#27);
#1169=CARTESIAN_POINT('',(-0.1,-4.78,6.055738799212));
#1170=ORIENTED_EDGE('',*,*,#1171,.T.);
#1171=EDGE_CURVE('',#1166,#1172,#1152,.T.);
#1172=VERTEX_POINT('',#1173);
#1173=CARTESIAN_POINT('',(-0.3,-4.78,0.9));
#1174=ORIENTED_EDGE('',*,*,#1175,.F.);
#1175=EDGE_CURVE('',#554,#1172,#1176,.T.);
#1176=LINE('',#555,#753);
#1177=PLANE('',#1178);
#1178=AXIS2_PLACEMENT_3D('',#538,#34,#45);
#1179=ADVANCED_FACE('',(#1180),#1191,.F.);
#1180=FACE_BOUND('',#1181,.F.);
#1181=EDGE_LOOP('',(#1182,#1183,#1188,#574));
#1182=ORIENTED_EDGE('',*,*,#1175,.T.);
#1183=ORIENTED_EDGE('',*,*,#1184,.T.);
#1184=EDGE_CURVE('',#1172,#1185,#1187,.T.);
#1185=VERTEX_POINT('',#1186);
#1186=CARTESIAN_POINT('',(-0.3,-5.38,0.9));
#1187=LINE('',#1173,#143);
#1188=ORIENTED_EDGE('',*,*,#1189,.F.);
#1189=EDGE_CURVE('',#571,#1185,#1190,.T.);
#1190=LINE('',#572,#753);
#1191=PLANE('',#1192);
#1192=AXIS2_PLACEMENT_3D('',#555,#45,#124);
#1193=ADVANCED_FACE('',(#1194),#1222,.F.);
#1194=FACE_BOUND('',#1195,.F.);
#1195=EDGE_LOOP('',(#587,#1196,#1197,#1202,#1208,#1213,#1219,#1221));
#1196=ORIENTED_EDGE('',*,*,#1189,.T.);
#1197=ORIENTED_EDGE('',*,*,#1198,.T.);
#1198=EDGE_CURVE('',#1185,#1199,#1201,.T.);
#1199=VERTEX_POINT('',#1200);
#1200=CARTESIAN_POINT('',(-0.1,-5.38,0.9));
#1201=LINE('',#1186,#56);
#1202=ORIENTED_EDGE('',*,*,#1203,.F.);
#1203=EDGE_CURVE('',#1204,#1199,#1206,.T.);
#1204=VERTEX_POINT('',#1205);
#1205=CARTESIAN_POINT('',(-0.1,-5.38,7.4));
#1206=LINE('',#1207,#753);
#1207=CARTESIAN_POINT('',(-0.1,-5.38,6.055738799212));
#1208=ORIENTED_EDGE('',*,*,#1209,.T.);
#1209=EDGE_CURVE('',#1204,#1210,#1212,.T.);
#1210=VERTEX_POINT('',#1211);
#1211=CARTESIAN_POINT('',(1.E-01,-5.38,7.4));
#1212=LINE('',#1205,#56);
#1213=ORIENTED_EDGE('',*,*,#1214,.T.);
#1214=EDGE_CURVE('',#1210,#1215,#1217,.T.);
#1215=VERTEX_POINT('',#1216);
#1216=CARTESIAN_POINT('',(1.E-01,-5.38,0.9));
#1217=LINE('',#1218,#753);
#1218=CARTESIAN_POINT('',(1.E-01,-5.38,6.055738799212));
#1219=ORIENTED_EDGE('',*,*,#1220,.T.);
#1220=EDGE_CURVE('',#1215,#1131,#1201,.T.);
#1221=ORIENTED_EDGE('',*,*,#1130,.F.);
#1222=PLANE('',#1223);
#1223=AXIS2_PLACEMENT_3D('',#572,#124,#14);
#1224=ADVANCED_FACE('',(#1225),#1240,.F.);
#1225=FACE_BOUND('',#1226,.F.);
#1226=EDGE_LOOP('',(#1227,#1232,#1237,#608));
#1227=ORIENTED_EDGE('',*,*,#1228,.T.);
#1228=EDGE_CURVE('',#599,#1229,#1231,.T.);
#1229=VERTEX_POINT('',#1230);
#1230=CARTESIAN_POINT('',(0.3,-2.84,0.9));
#1231=LINE('',#600,#753);
#1232=ORIENTED_EDGE('',*,*,#1233,.T.);
#1233=EDGE_CURVE('',#1229,#1234,#1236,.T.);
#1234=VERTEX_POINT('',#1235);
#1235=CARTESIAN_POINT('',(0.3,-2.24,0.9));
#1236=LINE('',#1230,#33);
#1237=ORIENTED_EDGE('',*,*,#1238,.F.);
#1238=EDGE_CURVE('',#605,#1234,#1239,.T.);
#1239=LINE('',#606,#753);
#1240=PLANE('',#1241);
#1241=AXIS2_PLACEMENT_3D('',#600,#14,#34);
#1242=ADVANCED_FACE('',(#1243),#1275,.F.);
#1243=FACE_BOUND('',#1244,.F.);
#1244=EDGE_LOOP('',(#625,#1245,#1246,#1251,#1257,#1262,#1268,#1272));
#1245=ORIENTED_EDGE('',*,*,#1238,.T.);
#1246=ORIENTED_EDGE('',*,*,#1247,.T.);
#1247=EDGE_CURVE('',#1234,#1248,#1250,.T.);
#1248=VERTEX_POINT('',#1249);
#1249=CARTESIAN_POINT('',(1.E-01,-2.24,0.9));
#1250=LINE('',#1235,#93);
#1251=ORIENTED_EDGE('',*,*,#1252,.T.);
#1252=EDGE_CURVE('',#1248,#1253,#1255,.T.);
#1253=VERTEX_POINT('',#1254);
#1254=CARTESIAN_POINT('',(1.E-01,-2.24,7.4));
#1255=LINE('',#1256,#27);
#1256=CARTESIAN_POINT('',(1.E-01,-2.24,6.055738799212));
#1257=ORIENTED_EDGE('',*,*,#1258,.F.);
#1258=EDGE_CURVE('',#1259,#1253,#1261,.T.);
#1259=VERTEX_POINT('',#1260);
#1260=CARTESIAN_POINT('',(-0.1,-2.24,7.4));
#1261=LINE('',#1260,#56);
#1262=ORIENTED_EDGE('',*,*,#1263,.F.);
#1263=EDGE_CURVE('',#1264,#1259,#1266,.T.);
#1264=VERTEX_POINT('',#1265);
#1265=CARTESIAN_POINT('',(-0.1,-2.24,0.9));
#1266=LINE('',#1267,#27);
#1267=CARTESIAN_POINT('',(-0.1,-2.24,6.055738799212));
#1268=ORIENTED_EDGE('',*,*,#1269,.T.);
#1269=EDGE_CURVE('',#1264,#1270,#1250,.T.);
#1270=VERTEX_POINT('',#1271);
#1271=CARTESIAN_POINT('',(-0.3,-2.24,0.9));
#1272=ORIENTED_EDGE('',*,*,#1273,.F.);
#1273=EDGE_CURVE('',#622,#1270,#1274,.T.);
#1274=LINE('',#623,#753);
#1275=PLANE('',#1276);
#1276=AXIS2_PLACEMENT_3D('',#606,#34,#45);
#1277=ADVANCED_FACE('',(#1278),#1289,.F.);
#1278=FACE_BOUND('',#1279,.F.);
#1279=EDGE_LOOP('',(#1280,#1281,#1286,#642));
#1280=ORIENTED_EDGE('',*,*,#1273,.T.);
#1281=ORIENTED_EDGE('',*,*,#1282,.T.);
#1282=EDGE_CURVE('',#1270,#1283,#1285,.T.);
#1283=VERTEX_POINT('',#1284);
#1284=CARTESIAN_POINT('',(-0.3,-2.84,0.9));
#1285=LINE('',#1271,#143);
#1286=ORIENTED_EDGE('',*,*,#1287,.F.);
#1287=EDGE_CURVE('',#639,#1283,#1288,.T.);
#1288=LINE('',#640,#753);
#1289=PLANE('',#1290);
#1290=AXIS2_PLACEMENT_3D('',#623,#45,#124);
#1291=ADVANCED_FACE('',(#1292),#1320,.F.);
#1292=FACE_BOUND('',#1293,.F.);
#1293=EDGE_LOOP('',(#655,#1294,#1295,#1300,#1306,#1311,#1317,#1319));
#1294=ORIENTED_EDGE('',*,*,#1287,.T.);
#1295=ORIENTED_EDGE('',*,*,#1296,.T.);
#1296=EDGE_CURVE('',#1283,#1297,#1299,.T.);
#1297=VERTEX_POINT('',#1298);
#1298=CARTESIAN_POINT('',(-0.1,-2.84,0.9));
#1299=LINE('',#1284,#56);
#1300=ORIENTED_EDGE('',*,*,#1301,.F.);
#1301=EDGE_CURVE('',#1302,#1297,#1304,.T.);
#1302=VERTEX_POINT('',#1303);
#1303=CARTESIAN_POINT('',(-0.1,-2.84,7.4));
#1304=LINE('',#1305,#753);
#1305=CARTESIAN_POINT('',(-0.1,-2.84,6.055738799212));
#1306=ORIENTED_EDGE('',*,*,#1307,.T.);
#1307=EDGE_CURVE('',#1302,#1308,#1310,.T.);
#1308=VERTEX_POINT('',#1309);
#1309=CARTESIAN_POINT('',(1.E-01,-2.84,7.4));
#1310=LINE('',#1303,#56);
#1311=ORIENTED_EDGE('',*,*,#1312,.T.);
#1312=EDGE_CURVE('',#1308,#1313,#1315,.T.);
#1313=VERTEX_POINT('',#1314);
#1314=CARTESIAN_POINT('',(1.E-01,-2.84,0.9));
#1315=LINE('',#1316,#753);
#1316=CARTESIAN_POINT('',(1.E-01,-2.84,6.055738799212));
#1317=ORIENTED_EDGE('',*,*,#1318,.T.);
#1318=EDGE_CURVE('',#1313,#1229,#1299,.T.);
#1319=ORIENTED_EDGE('',*,*,#1228,.F.);
#1320=PLANE('',#1321);
#1321=AXIS2_PLACEMENT_3D('',#640,#124,#14);
#1322=ADVANCED_FACE('',(#1323),#1338,.F.);
#1323=FACE_BOUND('',#1324,.F.);
#1324=EDGE_LOOP('',(#1325,#1330,#1335,#676));
#1325=ORIENTED_EDGE('',*,*,#1326,.T.);
#1326=EDGE_CURVE('',#667,#1327,#1329,.T.);
#1327=VERTEX_POINT('',#1328);
#1328=CARTESIAN_POINT('',(0.3,-0.3,0.9));
#1329=LINE('',#668,#753);
#1330=ORIENTED_EDGE('',*,*,#1331,.T.);
#1331=EDGE_CURVE('',#1327,#1332,#1334,.T.);
#1332=VERTEX_POINT('',#1333);
#1333=CARTESIAN_POINT('',(0.3,0.3,0.9));
#1334=LINE('',#1328,#33);
#1335=ORIENTED_EDGE('',*,*,#1336,.F.);
#1336=EDGE_CURVE('',#673,#1332,#1337,.T.);
#1337=LINE('',#674,#753);
#1338=PLANE('',#1339);
#1339=AXIS2_PLACEMENT_3D('',#668,#14,#34);
#1340=ADVANCED_FACE('',(#1341),#1373,.F.);
#1341=FACE_BOUND('',#1342,.F.);
#1342=EDGE_LOOP('',(#693,#1343,#1344,#1349,#1355,#1360,#1366,#1370));
#1343=ORIENTED_EDGE('',*,*,#1336,.T.);
#1344=ORIENTED_EDGE('',*,*,#1345,.T.);
#1345=EDGE_CURVE('',#1332,#1346,#1348,.T.);
#1346=VERTEX_POINT('',#1347);
#1347=CARTESIAN_POINT('',(0.1,0.3,0.9));
#1348=LINE('',#1333,#93);
#1349=ORIENTED_EDGE('',*,*,#1350,.T.);
#1350=EDGE_CURVE('',#1346,#1351,#1353,.T.);
#1351=VERTEX_POINT('',#1352);
#1352=CARTESIAN_POINT('',(0.1,0.3,7.4));
#1353=LINE('',#1354,#27);
#1354=CARTESIAN_POINT('',(0.1,0.3,6.055738799212));
#1355=ORIENTED_EDGE('',*,*,#1356,.F.);
#1356=EDGE_CURVE('',#1357,#1351,#1359,.T.);
#1357=VERTEX_POINT('',#1358);
#1358=CARTESIAN_POINT('',(-1.E-01,0.3,7.4));
#1359=LINE('',#1358,#56);
#1360=ORIENTED_EDGE('',*,*,#1361,.F.);
#1361=EDGE_CURVE('',#1362,#1357,#1364,.T.);
#1362=VERTEX_POINT('',#1363);
#1363=CARTESIAN_POINT('',(-1.E-01,0.3,0.9));
#1364=LINE('',#1365,#27);
#1365=CARTESIAN_POINT('',(-1.E-01,0.3,6.055738799212));
#1366=ORIENTED_EDGE('',*,*,#1367,.T.);
#1367=EDGE_CURVE('',#1362,#1368,#1348,.T.);
#1368=VERTEX_POINT('',#1369);
#1369=CARTESIAN_POINT('',(-0.3,0.3,0.9));
#1370=ORIENTED_EDGE('',*,*,#1371,.F.);
#1371=EDGE_CURVE('',#690,#1368,#1372,.T.);
#1372=LINE('',#691,#753);
#1373=PLANE('',#1374);
#1374=AXIS2_PLACEMENT_3D('',#674,#34,#45);
#1375=ADVANCED_FACE('',(#1376),#1387,.F.);
#1376=FACE_BOUND('',#1377,.F.);
#1377=EDGE_LOOP('',(#1378,#1379,#1384,#710));
#1378=ORIENTED_EDGE('',*,*,#1371,.T.);
#1379=ORIENTED_EDGE('',*,*,#1380,.T.);
#1380=EDGE_CURVE('',#1368,#1381,#1383,.T.);
#1381=VERTEX_POINT('',#1382);
#1382=CARTESIAN_POINT('',(-0.3,-0.3,0.9));
#1383=LINE('',#1369,#143);
#1384=ORIENTED_EDGE('',*,*,#1385,.F.);
#1385=EDGE_CURVE('',#707,#1381,#1386,.T.);
#1386=LINE('',#708,#753);
#1387=PLANE('',#1388);
#1388=AXIS2_PLACEMENT_3D('',#691,#45,#124);
#1389=ADVANCED_FACE('',(#1390),#1418,.F.);
#1390=FACE_BOUND('',#1391,.F.);
#1391=EDGE_LOOP('',(#723,#1392,#1393,#1398,#1404,#1409,#1415,#1417));
#1392=ORIENTED_EDGE('',*,*,#1385,.T.);
#1393=ORIENTED_EDGE('',*,*,#1394,.T.);
#1394=EDGE_CURVE('',#1381,#1395,#1397,.T.);
#1395=VERTEX_POINT('',#1396);
#1396=CARTESIAN_POINT('',(-1.E-01,-0.3,0.9));
#1397=LINE('',#1382,#56);
#1398=ORIENTED_EDGE('',*,*,#1399,.F.);
#1399=EDGE_CURVE('',#1400,#1395,#1402,.T.);
#1400=VERTEX_POINT('',#1401);
#1401=CARTESIAN_POINT('',(-0.1,-0.3,7.4));
#1402=LINE('',#1403,#753);
#1403=CARTESIAN_POINT('',(-1.E-01,-0.3,6.055738799212));
#1404=ORIENTED_EDGE('',*,*,#1405,.T.);
#1405=EDGE_CURVE('',#1400,#1406,#1408,.T.);
#1406=VERTEX_POINT('',#1407);
#1407=CARTESIAN_POINT('',(0.1,-0.3,7.4));
#1408=LINE('',#1401,#56);
#1409=ORIENTED_EDGE('',*,*,#1410,.T.);
#1410=EDGE_CURVE('',#1406,#1411,#1413,.T.);
#1411=VERTEX_POINT('',#1412);
#1412=CARTESIAN_POINT('',(0.1,-0.3,0.9));
#1413=LINE('',#1414,#753);
#1414=CARTESIAN_POINT('',(0.1,-0.3,6.055738799212));
#1415=ORIENTED_EDGE('',*,*,#1416,.T.);
#1416=EDGE_CURVE('',#1411,#1327,#1397,.T.);
#1417=ORIENTED_EDGE('',*,*,#1326,.F.);
#1418=PLANE('',#1419);
#1419=AXIS2_PLACEMENT_3D('',#708,#124,#14);
#1420=ADVANCED_FACE('',(#1421),#1428,.T.);
#1421=FACE_BOUND('',#1422,.T.);
#1422=EDGE_LOOP('',(#1423,#742,#1426,#1427));
#1423=ORIENTED_EDGE('',*,*,#1424,.T.);
#1424=EDGE_CURVE('',#785,#744,#1425,.T.);
#1425=LINE('',#786,#56);
#1426=ORIENTED_EDGE('',*,*,#734,.F.);
#1427=ORIENTED_EDGE('',*,*,#784,.F.);
#1428=PLANE('',#1429);
#1429=AXIS2_PLACEMENT_3D('',#786,#124,#13);
#1430=ADVANCED_FACE('',(#1431),#1438,.T.);
#1431=FACE_BOUND('',#1432,.T.);
#1432=EDGE_LOOP('',(#1433,#766,#1436,#1437));
#1433=ORIENTED_EDGE('',*,*,#1434,.T.);
#1434=EDGE_CURVE('',#800,#763,#1435,.T.);
#1435=LINE('',#801,#56);
#1436=ORIENTED_EDGE('',*,*,#1424,.F.);
#1437=ORIENTED_EDGE('',*,*,#804,.F.);
#1438=PLANE('',#1439);
#1439=AXIS2_PLACEMENT_3D('',#801,#1440,#770);
#1440=DIRECTION('',(-1.077074540829E-16,-0.970142500145,-0.242535625036));
#1441=ADVANCED_FACE('',(#1442),#1449,.T.);
#1442=FACE_BOUND('',#1443,.T.);
#1443=EDGE_LOOP('',(#1444,#761,#1447,#1448));
#1444=ORIENTED_EDGE('',*,*,#1445,.T.);
#1445=EDGE_CURVE('',#795,#756,#1446,.T.);
#1446=LINE('',#796,#56);
#1447=ORIENTED_EDGE('',*,*,#1434,.F.);
#1448=ORIENTED_EDGE('',*,*,#799,.T.);
#1449=PLANE('',#1450);
#1450=AXIS2_PLACEMENT_3D('',#796,#738,#124);
#1451=ADVANCED_FACE('',(#1452),#1459,.T.);
#1452=FACE_BOUND('',#1453,.T.);
#1453=EDGE_LOOP('',(#1454,#754,#1457,#1458));
#1454=ORIENTED_EDGE('',*,*,#1455,.T.);
#1455=EDGE_CURVE('',#790,#750,#1456,.T.);
#1456=LINE('',#791,#56);
#1457=ORIENTED_EDGE('',*,*,#1445,.F.);
#1458=ORIENTED_EDGE('',*,*,#794,.F.);
#1459=PLANE('',#1460);
#1460=AXIS2_PLACEMENT_3D('',#791,#1461,#760);
#1461=DIRECTION('',(1.077074540829E-16,0.970142500145,-0.242535625036));
#1462=ADVANCED_FACE('',(#1463),#1468,.T.);
#1463=FACE_BOUND('',#1464,.T.);
#1464=EDGE_LOOP('',(#1465,#748,#1466,#1467));
#1465=ORIENTED_EDGE('',*,*,#778,.T.);
#1466=ORIENTED_EDGE('',*,*,#1455,.F.);
#1467=ORIENTED_EDGE('',*,*,#789,.F.);
#1468=PLANE('',#1469);
#1469=AXIS2_PLACEMENT_3D('',#279,#34,#738);
#1470=ADVANCED_FACE('',(#1471),#1478,.T.);
#1471=FACE_BOUND('',#1472,.T.);
#1472=EDGE_LOOP('',(#1473,#820,#1476,#1477));
#1473=ORIENTED_EDGE('',*,*,#1474,.T.);
#1474=EDGE_CURVE('',#858,#822,#1475,.T.);
#1475=LINE('',#859,#56);
#1476=ORIENTED_EDGE('',*,*,#813,.F.);
#1477=ORIENTED_EDGE('',*,*,#857,.F.);
#1478=PLANE('',#1479);
#1479=AXIS2_PLACEMENT_3D('',#859,#124,#13);
#1480=ADVANCED_FACE('',(#1481),#1488,.T.);
#1481=FACE_BOUND('',#1482,.T.);
#1482=EDGE_LOOP('',(#1483,#841,#1486,#1487));
#1483=ORIENTED_EDGE('',*,*,#1484,.T.);
#1484=EDGE_CURVE('',#873,#838,#1485,.T.);
#1485=LINE('',#874,#56);
#1486=ORIENTED_EDGE('',*,*,#1474,.F.);
#1487=ORIENTED_EDGE('',*,*,#877,.F.);
#1488=PLANE('',#1489);
#1489=AXIS2_PLACEMENT_3D('',#874,#1440,#770);
#1490=ADVANCED_FACE('',(#1491),#1498,.T.);
#1491=FACE_BOUND('',#1492,.T.);
#1492=EDGE_LOOP('',(#1493,#836,#1496,#1497));
#1493=ORIENTED_EDGE('',*,*,#1494,.T.);
#1494=EDGE_CURVE('',#868,#833,#1495,.T.);
#1495=LINE('',#869,#56);
#1496=ORIENTED_EDGE('',*,*,#1484,.F.);
#1497=ORIENTED_EDGE('',*,*,#872,.T.);
#1498=PLANE('',#1499);
#1499=AXIS2_PLACEMENT_3D('',#869,#738,#124);
#1500=ADVANCED_FACE('',(#1501),#1508,.T.);
#1501=FACE_BOUND('',#1502,.T.);
#1502=EDGE_LOOP('',(#1503,#831,#1506,#1507));
#1503=ORIENTED_EDGE('',*,*,#1504,.T.);
#1504=EDGE_CURVE('',#863,#828,#1505,.T.);
#1505=LINE('',#864,#56);
#1506=ORIENTED_EDGE('',*,*,#1494,.F.);
#1507=ORIENTED_EDGE('',*,*,#867,.F.);
#1508=PLANE('',#1509);
#1509=AXIS2_PLACEMENT_3D('',#864,#1461,#760);
#1510=ADVANCED_FACE('',(#1511),#1516,.T.);
#1511=FACE_BOUND('',#1512,.T.);
#1512=EDGE_LOOP('',(#1513,#826,#1514,#1515));
#1513=ORIENTED_EDGE('',*,*,#851,.T.);
#1514=ORIENTED_EDGE('',*,*,#1504,.F.);
#1515=ORIENTED_EDGE('',*,*,#862,.F.);
#1516=PLANE('',#1517);
#1517=AXIS2_PLACEMENT_3D('',#321,#34,#738);
#1518=ADVANCED_FACE('',(#1519),#1526,.T.);
#1519=FACE_BOUND('',#1520,.T.);
#1520=EDGE_LOOP('',(#1521,#893,#1524,#1525));
#1521=ORIENTED_EDGE('',*,*,#1522,.T.);
#1522=EDGE_CURVE('',#931,#895,#1523,.T.);
#1523=LINE('',#932,#56);
#1524=ORIENTED_EDGE('',*,*,#886,.F.);
#1525=ORIENTED_EDGE('',*,*,#930,.F.);
#1526=PLANE('',#1527);
#1527=AXIS2_PLACEMENT_3D('',#932,#124,#13);
#1528=ADVANCED_FACE('',(#1529),#1536,.T.);
#1529=FACE_BOUND('',#1530,.T.);
#1530=EDGE_LOOP('',(#1531,#914,#1534,#1535));
#1531=ORIENTED_EDGE('',*,*,#1532,.T.);
#1532=EDGE_CURVE('',#946,#911,#1533,.T.);
#1533=LINE('',#947,#56);
#1534=ORIENTED_EDGE('',*,*,#1522,.F.);
#1535=ORIENTED_EDGE('',*,*,#950,.F.);
#1536=PLANE('',#1537);
#1537=AXIS2_PLACEMENT_3D('',#947,#1440,#770);
#1538=ADVANCED_FACE('',(#1539),#1546,.T.);
#1539=FACE_BOUND('',#1540,.T.);
#1540=EDGE_LOOP('',(#1541,#909,#1544,#1545));
#1541=ORIENTED_EDGE('',*,*,#1542,.T.);
#1542=EDGE_CURVE('',#941,#906,#1543,.T.);
#1543=LINE('',#942,#56);
#1544=ORIENTED_EDGE('',*,*,#1532,.F.);
#1545=ORIENTED_EDGE('',*,*,#945,.T.);
#1546=PLANE('',#1547);
#1547=AXIS2_PLACEMENT_3D('',#942,#738,#124);
#1548=ADVANCED_FACE('',(#1549),#1556,.T.);
#1549=FACE_BOUND('',#1550,.T.);
#1550=EDGE_LOOP('',(#1551,#904,#1554,#1555));
#1551=ORIENTED_EDGE('',*,*,#1552,.T.);
#1552=EDGE_CURVE('',#936,#901,#1553,.T.);
#1553=LINE('',#937,#56);
#1554=ORIENTED_EDGE('',*,*,#1542,.F.);
#1555=ORIENTED_EDGE('',*,*,#940,.F.);
#1556=PLANE('',#1557);
#1557=AXIS2_PLACEMENT_3D('',#937,#1461,#760);
#1558=ADVANCED_FACE('',(#1559),#1564,.T.);
#1559=FACE_BOUND('',#1560,.T.);
#1560=EDGE_LOOP('',(#1561,#899,#1562,#1563));
#1561=ORIENTED_EDGE('',*,*,#924,.T.);
#1562=ORIENTED_EDGE('',*,*,#1552,.F.);
#1563=ORIENTED_EDGE('',*,*,#935,.F.);
#1564=PLANE('',#1565);
#1565=AXIS2_PLACEMENT_3D('',#363,#34,#738);
#1566=ADVANCED_FACE('',(#1567),#1574,.T.);
#1567=FACE_BOUND('',#1568,.T.);
#1568=EDGE_LOOP('',(#1569,#966,#1572,#1573));
#1569=ORIENTED_EDGE('',*,*,#1570,.T.);
#1570=EDGE_CURVE('',#1004,#968,#1571,.T.);
#1571=LINE('',#1005,#56);
#1572=ORIENTED_EDGE('',*,*,#959,.F.);
#1573=ORIENTED_EDGE('',*,*,#1003,.F.);
#1574=PLANE('',#1575);
#1575=AXIS2_PLACEMENT_3D('',#1005,#124,#13);
#1576=ADVANCED_FACE('',(#1577),#1584,.T.);
#1577=FACE_BOUND('',#1578,.T.);
#1578=EDGE_LOOP('',(#1579,#987,#1582,#1583));
#1579=ORIENTED_EDGE('',*,*,#1580,.T.);
#1580=EDGE_CURVE('',#1019,#984,#1581,.T.);
#1581=LINE('',#1020,#56);
#1582=ORIENTED_EDGE('',*,*,#1570,.F.);
#1583=ORIENTED_EDGE('',*,*,#1023,.F.);
#1584=PLANE('',#1585);
#1585=AXIS2_PLACEMENT_3D('',#1020,#1440,#770);
#1586=ADVANCED_FACE('',(#1587),#1594,.T.);
#1587=FACE_BOUND('',#1588,.T.);
#1588=EDGE_LOOP('',(#1589,#982,#1592,#1593));
#1589=ORIENTED_EDGE('',*,*,#1590,.T.);
#1590=EDGE_CURVE('',#1014,#979,#1591,.T.);
#1591=LINE('',#1015,#56);
#1592=ORIENTED_EDGE('',*,*,#1580,.F.);
#1593=ORIENTED_EDGE('',*,*,#1018,.T.);
#1594=PLANE('',#1595);
#1595=AXIS2_PLACEMENT_3D('',#1015,#738,#124);
#1596=ADVANCED_FACE('',(#1597),#1604,.T.);
#1597=FACE_BOUND('',#1598,.T.);
#1598=EDGE_LOOP('',(#1599,#977,#1602,#1603));
#1599=ORIENTED_EDGE('',*,*,#1600,.T.);
#1600=EDGE_CURVE('',#1009,#974,#1601,.T.);
#1601=LINE('',#1010,#56);
#1602=ORIENTED_EDGE('',*,*,#1590,.F.);
#1603=ORIENTED_EDGE('',*,*,#1013,.F.);
#1604=PLANE('',#1605);
#1605=AXIS2_PLACEMENT_3D('',#1010,#1461,#760);
#1606=ADVANCED_FACE('',(#1607),#1612,.T.);
#1607=FACE_BOUND('',#1608,.T.);
#1608=EDGE_LOOP('',(#1609,#972,#1610,#1611));
#1609=ORIENTED_EDGE('',*,*,#997,.T.);
#1610=ORIENTED_EDGE('',*,*,#1600,.F.);
#1611=ORIENTED_EDGE('',*,*,#1008,.F.);
#1612=PLANE('',#1613);
#1613=AXIS2_PLACEMENT_3D('',#405,#34,#738);
#1614=ADVANCED_FACE('',(#1615),#1621,.T.);
#1615=FACE_BOUND('',#1616,.T.);
#1616=EDGE_LOOP('',(#1121,#1036,#1050,#1617));
#1617=ORIENTED_EDGE('',*,*,#1618,.T.);
#1618=EDGE_CURVE('',#1052,#1117,#1619,.T.);
#1619=LINE('',#1620,#143);
#1620=CARTESIAN_POINT('',(1.E-01,-7.62,0.9));
#1621=PLANE('',#1622);
#1622=AXIS2_PLACEMENT_3D('',#1623,#13,#34);
#1623=CARTESIAN_POINT('',(-9.281001892939E-16,-7.62,0.9));
#1624=ADVANCED_FACE('',(#1625),#1621,.T.);
#1625=FACE_BOUND('',#1626,.T.);
#1626=EDGE_LOOP('',(#1099,#1627,#1072,#1085));
#1627=ORIENTED_EDGE('',*,*,#1628,.F.);
#1628=EDGE_CURVE('',#1068,#1101,#1629,.T.);
#1629=LINE('',#1630,#143);
#1630=CARTESIAN_POINT('',(-0.1,-7.62,0.9));
#1631=ADVANCED_FACE('',(#1632),#806,.T.);
#1632=FACE_BOUND('',#1633,.T.);
#1633=EDGE_LOOP('',(#1104,#1634,#1641,#1646,#1651,#1656,#1066,#1660));
#1634=ORIENTED_EDGE('',*,*,#1635,.T.);
#1635=EDGE_CURVE('',#1106,#1636,#1638,.T.);
#1636=VERTEX_POINT('',#1637);
#1637=CARTESIAN_POINT('',(-0.1,-7.87,7.35));
#1638=LINE('',#1107,#1639);
#1639=VECTOR('',#1640,1.);
#1640=DIRECTION('',(7.850462293419E-17,0.707106781187,-0.707106781187));
#1641=ORIENTED_EDGE('',*,*,#1642,.T.);
#1642=EDGE_CURVE('',#1636,#1643,#1645,.T.);
#1643=VERTEX_POINT('',#1644);
#1644=CARTESIAN_POINT('',(-0.1,-7.87,1.25));
#1645=LINE('',#1637,#753);
#1646=ORIENTED_EDGE('',*,*,#1647,.T.);
#1647=EDGE_CURVE('',#1643,#1648,#1650,.T.);
#1648=VERTEX_POINT('',#1649);
#1649=CARTESIAN_POINT('',(-0.1,-7.37,1.25));
#1650=LINE('',#1644,#33);
#1651=ORIENTED_EDGE('',*,*,#1652,.T.);
#1652=EDGE_CURVE('',#1648,#1653,#1655,.T.);
#1653=VERTEX_POINT('',#1654);
#1654=CARTESIAN_POINT('',(-0.1,-7.37,7.35));
#1655=LINE('',#1649,#27);
#1656=ORIENTED_EDGE('',*,*,#1657,.T.);
#1657=EDGE_CURVE('',#1653,#1063,#1658,.T.);
#1658=LINE('',#1654,#1659);
#1659=VECTOR('',#525,1.);
#1660=ORIENTED_EDGE('',*,*,#1628,.T.);
#1661=ADVANCED_FACE('',(#1662),#1673,.T.);
#1662=FACE_BOUND('',#1663,.T.);
#1663=EDGE_LOOP('',(#1664,#1669,#1061,#1672));
#1664=ORIENTED_EDGE('',*,*,#1665,.T.);
#1665=EDGE_CURVE('',#1653,#1666,#1668,.T.);
#1666=VERTEX_POINT('',#1667);
#1667=CARTESIAN_POINT('',(1.E-01,-7.37,7.35));
#1668=LINE('',#1654,#56);
#1669=ORIENTED_EDGE('',*,*,#1670,.T.);
#1670=EDGE_CURVE('',#1666,#1057,#1671,.T.);
#1671=LINE('',#1667,#1659);
#1672=ORIENTED_EDGE('',*,*,#1657,.F.);
#1673=PLANE('',#1674);
#1674=AXIS2_PLACEMENT_3D('',#1654,#491,#525);
#1675=ADVANCED_FACE('',(#1676),#771,.F.);
#1676=FACE_BOUND('',#1677,.F.);
#1677=EDGE_LOOP('',(#1678,#1679,#1684,#1689,#1694,#1669,#1697,#1617));
#1678=ORIENTED_EDGE('',*,*,#1116,.F.);
#1679=ORIENTED_EDGE('',*,*,#1680,.T.);
#1680=EDGE_CURVE('',#1112,#1681,#1683,.T.);
#1681=VERTEX_POINT('',#1682);
#1682=CARTESIAN_POINT('',(1.E-01,-7.87,7.35));
#1683=LINE('',#1113,#1639);
#1684=ORIENTED_EDGE('',*,*,#1685,.T.);
#1685=EDGE_CURVE('',#1681,#1686,#1688,.T.);
#1686=VERTEX_POINT('',#1687);
#1687=CARTESIAN_POINT('',(1.E-01,-7.87,1.25));
#1688=LINE('',#1682,#753);
#1689=ORIENTED_EDGE('',*,*,#1690,.T.);
#1690=EDGE_CURVE('',#1686,#1691,#1693,.T.);
#1691=VERTEX_POINT('',#1692);
#1692=CARTESIAN_POINT('',(1.E-01,-7.37,1.25));
#1693=LINE('',#1687,#33);
#1694=ORIENTED_EDGE('',*,*,#1695,.T.);
#1695=EDGE_CURVE('',#1691,#1666,#1696,.T.);
#1696=LINE('',#1692,#27);
#1697=ORIENTED_EDGE('',*,*,#1056,.F.);
#1698=ADVANCED_FACE('',(#1699),#1705,.T.);
#1699=FACE_BOUND('',#1700,.T.);
#1700=EDGE_LOOP('',(#1110,#1679,#1701,#1704));
#1701=ORIENTED_EDGE('',*,*,#1702,.F.);
#1702=EDGE_CURVE('',#1636,#1681,#1703,.T.);
#1703=LINE('',#1637,#56);
#1704=ORIENTED_EDGE('',*,*,#1635,.F.);
#1705=PLANE('',#1706);
#1706=AXIS2_PLACEMENT_3D('',#1107,#525,#1640);
#1707=ADVANCED_FACE('',(#1708),#1714,.T.);
#1708=FACE_BOUND('',#1709,.T.);
#1709=EDGE_LOOP('',(#1219,#1134,#1148,#1710));
#1710=ORIENTED_EDGE('',*,*,#1711,.T.);
#1711=EDGE_CURVE('',#1150,#1215,#1712,.T.);
#1712=LINE('',#1713,#143);
#1713=CARTESIAN_POINT('',(1.E-01,-5.08,0.9));
#1714=PLANE('',#1715);
#1715=AXIS2_PLACEMENT_3D('',#1716,#13,#34);
#1716=CARTESIAN_POINT('',(-6.461035410391E-16,-5.08,0.9));
#1717=ADVANCED_FACE('',(#1718),#1714,.T.);
#1718=FACE_BOUND('',#1719,.T.);
#1719=EDGE_LOOP('',(#1197,#1720,#1170,#1183));
#1720=ORIENTED_EDGE('',*,*,#1721,.F.);
#1721=EDGE_CURVE('',#1166,#1199,#1722,.T.);
#1722=LINE('',#1723,#143);
#1723=CARTESIAN_POINT('',(-0.1,-5.08,0.9));
#1724=ADVANCED_FACE('',(#1725),#879,.T.);
#1725=FACE_BOUND('',#1726,.T.);
#1726=EDGE_LOOP('',(#1202,#1727,#1732,#1737,#1742,#1747,#1164,#1750));
#1727=ORIENTED_EDGE('',*,*,#1728,.T.);
#1728=EDGE_CURVE('',#1204,#1729,#1731,.T.);
#1729=VERTEX_POINT('',#1730);
#1730=CARTESIAN_POINT('',(-0.1,-5.33,7.35));
#1731=LINE('',#1205,#1639);
#1732=ORIENTED_EDGE('',*,*,#1733,.T.);
#1733=EDGE_CURVE('',#1729,#1734,#1736,.T.);
#1734=VERTEX_POINT('',#1735);
#1735=CARTESIAN_POINT('',(-0.1,-5.33,1.25));
#1736=LINE('',#1730,#753);
#1737=ORIENTED_EDGE('',*,*,#1738,.T.);
#1738=EDGE_CURVE('',#1734,#1739,#1741,.T.);
#1739=VERTEX_POINT('',#1740);
#1740=CARTESIAN_POINT('',(-0.1,-4.83,1.25));
#1741=LINE('',#1735,#33);
#1742=ORIENTED_EDGE('',*,*,#1743,.T.);
#1743=EDGE_CURVE('',#1739,#1744,#1746,.T.);
#1744=VERTEX_POINT('',#1745);
#1745=CARTESIAN_POINT('',(-0.1,-4.83,7.35));
#1746=LINE('',#1740,#27);
#1747=ORIENTED_EDGE('',*,*,#1748,.T.);
#1748=EDGE_CURVE('',#1744,#1161,#1749,.T.);
#1749=LINE('',#1745,#1659);
#1750=ORIENTED_EDGE('',*,*,#1721,.T.);
#1751=ADVANCED_FACE('',(#1752),#1763,.T.);
#1752=FACE_BOUND('',#1753,.T.);
#1753=EDGE_LOOP('',(#1754,#1759,#1159,#1762));
#1754=ORIENTED_EDGE('',*,*,#1755,.T.);
#1755=EDGE_CURVE('',#1744,#1756,#1758,.T.);
#1756=VERTEX_POINT('',#1757);
#1757=CARTESIAN_POINT('',(1.E-01,-4.83,7.35));
#1758=LINE('',#1745,#56);
#1759=ORIENTED_EDGE('',*,*,#1760,.T.);
#1760=EDGE_CURVE('',#1756,#1155,#1761,.T.);
#1761=LINE('',#1757,#1659);
#1762=ORIENTED_EDGE('',*,*,#1748,.F.);
#1763=PLANE('',#1764);
#1764=AXIS2_PLACEMENT_3D('',#1745,#491,#525);
#1765=ADVANCED_FACE('',(#1766),#844,.F.);
#1766=FACE_BOUND('',#1767,.F.);
#1767=EDGE_LOOP('',(#1768,#1769,#1774,#1779,#1784,#1759,#1787,#1710));
#1768=ORIENTED_EDGE('',*,*,#1214,.F.);
#1769=ORIENTED_EDGE('',*,*,#1770,.T.);
#1770=EDGE_CURVE('',#1210,#1771,#1773,.T.);
#1771=VERTEX_POINT('',#1772);
#1772=CARTESIAN_POINT('',(1.E-01,-5.33,7.35));
#1773=LINE('',#1211,#1639);
#1774=ORIENTED_EDGE('',*,*,#1775,.T.);
#1775=EDGE_CURVE('',#1771,#1776,#1778,.T.);
#1776=VERTEX_POINT('',#1777);
#1777=CARTESIAN_POINT('',(1.E-01,-5.33,1.25));
#1778=LINE('',#1772,#753);
#1779=ORIENTED_EDGE('',*,*,#1780,.T.);
#1780=EDGE_CURVE('',#1776,#1781,#1783,.T.);
#1781=VERTEX_POINT('',#1782);
#1782=CARTESIAN_POINT('',(1.E-01,-4.83,1.25));
#1783=LINE('',#1777,#33);
#1784=ORIENTED_EDGE('',*,*,#1785,.T.);
#1785=EDGE_CURVE('',#1781,#1756,#1786,.T.);
#1786=LINE('',#1782,#27);
#1787=ORIENTED_EDGE('',*,*,#1154,.F.);
#1788=ADVANCED_FACE('',(#1789),#1795,.T.);
#1789=FACE_BOUND('',#1790,.T.);
#1790=EDGE_LOOP('',(#1208,#1769,#1791,#1794));
#1791=ORIENTED_EDGE('',*,*,#1792,.F.);
#1792=EDGE_CURVE('',#1729,#1771,#1793,.T.);
#1793=LINE('',#1730,#56);
#1794=ORIENTED_EDGE('',*,*,#1728,.F.);
#1795=PLANE('',#1796);
#1796=AXIS2_PLACEMENT_3D('',#1205,#525,#1640);
#1797=ADVANCED_FACE('',(#1798),#1804,.T.);
#1798=FACE_BOUND('',#1799,.T.);
#1799=EDGE_LOOP('',(#1317,#1232,#1246,#1800));
#1800=ORIENTED_EDGE('',*,*,#1801,.T.);
#1801=EDGE_CURVE('',#1248,#1313,#1802,.T.);
#1802=LINE('',#1803,#143);
#1803=CARTESIAN_POINT('',(1.E-01,-2.54,0.9));
#1804=PLANE('',#1805);
#1805=AXIS2_PLACEMENT_3D('',#1806,#13,#34);
#1806=CARTESIAN_POINT('',(-3.641068927844E-16,-2.54,0.9));
#1807=ADVANCED_FACE('',(#1808),#1804,.T.);
#1808=FACE_BOUND('',#1809,.T.);
#1809=EDGE_LOOP('',(#1295,#1810,#1268,#1281));
#1810=ORIENTED_EDGE('',*,*,#1811,.F.);
#1811=EDGE_CURVE('',#1264,#1297,#1812,.T.);
#1812=LINE('',#1813,#143);
#1813=CARTESIAN_POINT('',(-0.1,-2.54,0.9));
#1814=ADVANCED_FACE('',(#1815),#952,.T.);
#1815=FACE_BOUND('',#1816,.T.);
#1816=EDGE_LOOP('',(#1300,#1817,#1822,#1827,#1832,#1837,#1262,#1840));
#1817=ORIENTED_EDGE('',*,*,#1818,.T.);
#1818=EDGE_CURVE('',#1302,#1819,#1821,.T.);
#1819=VERTEX_POINT('',#1820);
#1820=CARTESIAN_POINT('',(-0.1,-2.79,7.35));
#1821=LINE('',#1303,#1639);
#1822=ORIENTED_EDGE('',*,*,#1823,.T.);
#1823=EDGE_CURVE('',#1819,#1824,#1826,.T.);
#1824=VERTEX_POINT('',#1825);
#1825=CARTESIAN_POINT('',(-0.1,-2.79,1.25));
#1826=LINE('',#1820,#753);
#1827=ORIENTED_EDGE('',*,*,#1828,.T.);
#1828=EDGE_CURVE('',#1824,#1829,#1831,.T.);
#1829=VERTEX_POINT('',#1830);
#1830=CARTESIAN_POINT('',(-0.1,-2.29,1.25));
#1831=LINE('',#1825,#33);
#1832=ORIENTED_EDGE('',*,*,#1833,.T.);
#1833=EDGE_CURVE('',#1829,#1834,#1836,.T.);
#1834=VERTEX_POINT('',#1835);
#1835=CARTESIAN_POINT('',(-0.1,-2.29,7.35));
#1836=LINE('',#1830,#27);
#1837=ORIENTED_EDGE('',*,*,#1838,.T.);
#1838=EDGE_CURVE('',#1834,#1259,#1839,.T.);
#1839=LINE('',#1835,#1659);
#1840=ORIENTED_EDGE('',*,*,#1811,.T.);
#1841=ADVANCED_FACE('',(#1842),#1853,.T.);
#1842=FACE_BOUND('',#1843,.T.);
#1843=EDGE_LOOP('',(#1844,#1849,#1257,#1852));
#1844=ORIENTED_EDGE('',*,*,#1845,.T.);
#1845=EDGE_CURVE('',#1834,#1846,#1848,.T.);
#1846=VERTEX_POINT('',#1847);
#1847=CARTESIAN_POINT('',(1.E-01,-2.29,7.35));
#1848=LINE('',#1835,#56);
#1849=ORIENTED_EDGE('',*,*,#1850,.T.);
#1850=EDGE_CURVE('',#1846,#1253,#1851,.T.);
#1851=LINE('',#1847,#1659);
#1852=ORIENTED_EDGE('',*,*,#1838,.F.);
#1853=PLANE('',#1854);
#1854=AXIS2_PLACEMENT_3D('',#1835,#491,#525);
#1855=ADVANCED_FACE('',(#1856),#917,.F.);
#1856=FACE_BOUND('',#1857,.F.);
#1857=EDGE_LOOP('',(#1858,#1859,#1864,#1869,#1874,#1849,#1877,#1800));
#1858=ORIENTED_EDGE('',*,*,#1312,.F.);
#1859=ORIENTED_EDGE('',*,*,#1860,.T.);
#1860=EDGE_CURVE('',#1308,#1861,#1863,.T.);
#1861=VERTEX_POINT('',#1862);
#1862=CARTESIAN_POINT('',(1.E-01,-2.79,7.35));
#1863=LINE('',#1309,#1639);
#1864=ORIENTED_EDGE('',*,*,#1865,.T.);
#1865=EDGE_CURVE('',#1861,#1866,#1868,.T.);
#1866=VERTEX_POINT('',#1867);
#1867=CARTESIAN_POINT('',(1.E-01,-2.79,1.25));
#1868=LINE('',#1862,#753);
#1869=ORIENTED_EDGE('',*,*,#1870,.T.);
#1870=EDGE_CURVE('',#1866,#1871,#1873,.T.);
#1871=VERTEX_POINT('',#1872);
#1872=CARTESIAN_POINT('',(1.E-01,-2.29,1.25));
#1873=LINE('',#1867,#33);
#1874=ORIENTED_EDGE('',*,*,#1875,.T.);
#1875=EDGE_CURVE('',#1871,#1846,#1876,.T.);
#1876=LINE('',#1872,#27);
#1877=ORIENTED_EDGE('',*,*,#1252,.F.);
#1878=ADVANCED_FACE('',(#1879),#1885,.T.);
#1879=FACE_BOUND('',#1880,.T.);
#1880=EDGE_LOOP('',(#1306,#1859,#1881,#1884));
#1881=ORIENTED_EDGE('',*,*,#1882,.F.);
#1882=EDGE_CURVE('',#1819,#1861,#1883,.T.);
#1883=LINE('',#1820,#56);
#1884=ORIENTED_EDGE('',*,*,#1818,.F.);
#1885=PLANE('',#1886);
#1886=AXIS2_PLACEMENT_3D('',#1303,#525,#1640);
#1887=ADVANCED_FACE('',(#1888),#1894,.T.);
#1888=FACE_BOUND('',#1889,.T.);
#1889=EDGE_LOOP('',(#1415,#1330,#1344,#1890));
#1890=ORIENTED_EDGE('',*,*,#1891,.T.);
#1891=EDGE_CURVE('',#1346,#1411,#1892,.T.);
#1892=LINE('',#1893,#143);
#1893=CARTESIAN_POINT('',(0.1,4.329869796038E-16,0.9));
#1894=PLANE('',#1895);
#1895=AXIS2_PLACEMENT_3D('',#1896,#13,#34);
#1896=CARTESIAN_POINT('',(-8.211024452957E-17,8.881784197001E-16,0.9));
#1897=ADVANCED_FACE('',(#1898),#1894,.T.);
#1898=FACE_BOUND('',#1899,.T.);
#1899=EDGE_LOOP('',(#1393,#1900,#1366,#1379));
#1900=ORIENTED_EDGE('',*,*,#1901,.F.);
#1901=EDGE_CURVE('',#1362,#1395,#1902,.T.);
#1902=LINE('',#1903,#143);
#1903=CARTESIAN_POINT('',(-1.E-01,4.551914400963E-16,0.9));
#1904=ADVANCED_FACE('',(#1905),#1025,.T.);
#1905=FACE_BOUND('',#1906,.T.);
#1906=EDGE_LOOP('',(#1398,#1907,#1912,#1917,#1922,#1927,#1360,#1930));
#1907=ORIENTED_EDGE('',*,*,#1908,.T.);
#1908=EDGE_CURVE('',#1400,#1909,#1911,.T.);
#1909=VERTEX_POINT('',#1910);
#1910=CARTESIAN_POINT('',(-0.1,-0.25,7.35));
#1911=LINE('',#1401,#1639);
#1912=ORIENTED_EDGE('',*,*,#1913,.T.);
#1913=EDGE_CURVE('',#1909,#1914,#1916,.T.);
#1914=VERTEX_POINT('',#1915);
#1915=CARTESIAN_POINT('',(-0.1,-0.25,1.25));
#1916=LINE('',#1910,#753);
#1917=ORIENTED_EDGE('',*,*,#1918,.T.);
#1918=EDGE_CURVE('',#1914,#1919,#1921,.T.);
#1919=VERTEX_POINT('',#1920);
#1920=CARTESIAN_POINT('',(-1.E-01,0.25,1.25));
#1921=LINE('',#1915,#33);
#1922=ORIENTED_EDGE('',*,*,#1923,.T.);
#1923=EDGE_CURVE('',#1919,#1924,#1926,.T.);
#1924=VERTEX_POINT('',#1925);
#1925=CARTESIAN_POINT('',(-1.E-01,0.25,7.35));
#1926=LINE('',#1920,#27);
#1927=ORIENTED_EDGE('',*,*,#1928,.T.);
#1928=EDGE_CURVE('',#1924,#1357,#1929,.T.);
#1929=LINE('',#1925,#1659);
#1930=ORIENTED_EDGE('',*,*,#1901,.T.);
#1931=ADVANCED_FACE('',(#1932),#1943,.T.);
#1932=FACE_BOUND('',#1933,.T.);
#1933=EDGE_LOOP('',(#1934,#1939,#1355,#1942));
#1934=ORIENTED_EDGE('',*,*,#1935,.T.);
#1935=EDGE_CURVE('',#1924,#1936,#1938,.T.);
#1936=VERTEX_POINT('',#1937);
#1937=CARTESIAN_POINT('',(0.1,0.25,7.35));
#1938=LINE('',#1925,#56);
#1939=ORIENTED_EDGE('',*,*,#1940,.T.);
#1940=EDGE_CURVE('',#1936,#1351,#1941,.T.);
#1941=LINE('',#1937,#1659);
#1942=ORIENTED_EDGE('',*,*,#1928,.F.);
#1943=PLANE('',#1944);
#1944=AXIS2_PLACEMENT_3D('',#1925,#491,#525);
#1945=ADVANCED_FACE('',(#1946),#990,.F.);
#1946=FACE_BOUND('',#1947,.F.);
#1947=EDGE_LOOP('',(#1948,#1949,#1954,#1959,#1964,#1939,#1967,#1890));
#1948=ORIENTED_EDGE('',*,*,#1410,.F.);
#1949=ORIENTED_EDGE('',*,*,#1950,.T.);
#1950=EDGE_CURVE('',#1406,#1951,#1953,.T.);
#1951=VERTEX_POINT('',#1952);
#1952=CARTESIAN_POINT('',(0.1,-0.25,7.35));
#1953=LINE('',#1407,#1639);
#1954=ORIENTED_EDGE('',*,*,#1955,.T.);
#1955=EDGE_CURVE('',#1951,#1956,#1958,.T.);
#1956=VERTEX_POINT('',#1957);
#1957=CARTESIAN_POINT('',(0.1,-0.25,1.25));
#1958=LINE('',#1952,#753);
#1959=ORIENTED_EDGE('',*,*,#1960,.T.);
#1960=EDGE_CURVE('',#1956,#1961,#1963,.T.);
#1961=VERTEX_POINT('',#1962);
#1962=CARTESIAN_POINT('',(0.1,0.25,1.25));
#1963=LINE('',#1957,#33);
#1964=ORIENTED_EDGE('',*,*,#1965,.T.);
#1965=EDGE_CURVE('',#1961,#1936,#1966,.T.);
#1966=LINE('',#1962,#27);
#1967=ORIENTED_EDGE('',*,*,#1350,.F.);
#1968=ADVANCED_FACE('',(#1969),#1975,.T.);
#1969=FACE_BOUND('',#1970,.T.);
#1970=EDGE_LOOP('',(#1404,#1949,#1971,#1974));
#1971=ORIENTED_EDGE('',*,*,#1972,.F.);
#1972=EDGE_CURVE('',#1909,#1951,#1973,.T.);
#1973=LINE('',#1910,#56);
#1974=ORIENTED_EDGE('',*,*,#1908,.F.);
#1975=PLANE('',#1976);
#1976=AXIS2_PLACEMENT_3D('',#1401,#525,#1640);
#1977=ADVANCED_FACE('',(#1978),#1985,.T.);
#1978=FACE_BOUND('',#1979,.T.);
#1979=EDGE_LOOP('',(#1980,#1694,#1983,#1984));
#1980=ORIENTED_EDGE('',*,*,#1981,.T.);
#1981=EDGE_CURVE('',#1648,#1691,#1982,.T.);
#1982=LINE('',#1649,#56);
#1983=ORIENTED_EDGE('',*,*,#1665,.F.);
#1984=ORIENTED_EDGE('',*,*,#1652,.F.);
#1985=PLANE('',#1986);
#1986=AXIS2_PLACEMENT_3D('',#1649,#124,#13);
#1987=ADVANCED_FACE('',(#1988),#1995,.T.);
#1988=FACE_BOUND('',#1989,.T.);
#1989=EDGE_LOOP('',(#1990,#1689,#1993,#1994));
#1990=ORIENTED_EDGE('',*,*,#1991,.T.);
#1991=EDGE_CURVE('',#1643,#1686,#1992,.T.);
#1992=LINE('',#1644,#56);
#1993=ORIENTED_EDGE('',*,*,#1981,.F.);
#1994=ORIENTED_EDGE('',*,*,#1647,.F.);
#1995=PLANE('',#1996);
#1996=AXIS2_PLACEMENT_3D('',#1644,#13,#34);
#1997=ADVANCED_FACE('',(#1998),#2003,.T.);
#1998=FACE_BOUND('',#1999,.T.);
#1999=EDGE_LOOP('',(#2000,#1684,#2001,#2002));
#2000=ORIENTED_EDGE('',*,*,#1702,.T.);
#2001=ORIENTED_EDGE('',*,*,#1991,.F.);
#2002=ORIENTED_EDGE('',*,*,#1642,.F.);
#2003=PLANE('',#2004);
#2004=AXIS2_PLACEMENT_3D('',#1637,#34,#738);
#2005=ADVANCED_FACE('',(#2006),#2013,.T.);
#2006=FACE_BOUND('',#2007,.T.);
#2007=EDGE_LOOP('',(#2008,#1784,#2011,#2012));
#2008=ORIENTED_EDGE('',*,*,#2009,.T.);
#2009=EDGE_CURVE('',#1739,#1781,#2010,.T.);
#2010=LINE('',#1740,#56);
#2011=ORIENTED_EDGE('',*,*,#1755,.F.);
#2012=ORIENTED_EDGE('',*,*,#1743,.F.);
#2013=PLANE('',#2014);
#2014=AXIS2_PLACEMENT_3D('',#1740,#124,#13);
#2015=ADVANCED_FACE('',(#2016),#2023,.T.);
#2016=FACE_BOUND('',#2017,.T.);
#2017=EDGE_LOOP('',(#2018,#1779,#2021,#2022));
#2018=ORIENTED_EDGE('',*,*,#2019,.T.);
#2019=EDGE_CURVE('',#1734,#1776,#2020,.T.);
#2020=LINE('',#1735,#56);
#2021=ORIENTED_EDGE('',*,*,#2009,.F.);
#2022=ORIENTED_EDGE('',*,*,#1738,.F.);
#2023=PLANE('',#2024);
#2024=AXIS2_PLACEMENT_3D('',#1735,#13,#34);
#2025=ADVANCED_FACE('',(#2026),#2031,.T.);
#2026=FACE_BOUND('',#2027,.T.);
#2027=EDGE_LOOP('',(#2028,#1774,#2029,#2030));
#2028=ORIENTED_EDGE('',*,*,#1792,.T.);
#2029=ORIENTED_EDGE('',*,*,#2019,.F.);
#2030=ORIENTED_EDGE('',*,*,#1733,.F.);
#2031=PLANE('',#2032);
#2032=AXIS2_PLACEMENT_3D('',#1730,#34,#738);
#2033=ADVANCED_FACE('',(#2034),#2041,.T.);
#2034=FACE_BOUND('',#2035,.T.);
#2035=EDGE_LOOP('',(#2036,#1874,#2039,#2040));
#2036=ORIENTED_EDGE('',*,*,#2037,.T.);
#2037=EDGE_CURVE('',#1829,#1871,#2038,.T.);
#2038=LINE('',#1830,#56);
#2039=ORIENTED_EDGE('',*,*,#1845,.F.);
#2040=ORIENTED_EDGE('',*,*,#1833,.F.);
#2041=PLANE('',#2042);
#2042=AXIS2_PLACEMENT_3D('',#1830,#124,#13);
#2043=ADVANCED_FACE('',(#2044),#2051,.T.);
#2044=FACE_BOUND('',#2045,.T.);
#2045=EDGE_LOOP('',(#2046,#1869,#2049,#2050));
#2046=ORIENTED_EDGE('',*,*,#2047,.T.);
#2047=EDGE_CURVE('',#1824,#1866,#2048,.T.);
#2048=LINE('',#1825,#56);
#2049=ORIENTED_EDGE('',*,*,#2037,.F.);
#2050=ORIENTED_EDGE('',*,*,#1828,.F.);
#2051=PLANE('',#2052);
#2052=AXIS2_PLACEMENT_3D('',#1825,#13,#34);
#2053=ADVANCED_FACE('',(#2054),#2059,.T.);
#2054=FACE_BOUND('',#2055,.T.);
#2055=EDGE_LOOP('',(#2056,#1864,#2057,#2058));
#2056=ORIENTED_EDGE('',*,*,#1882,.T.);
#2057=ORIENTED_EDGE('',*,*,#2047,.F.);
#2058=ORIENTED_EDGE('',*,*,#1823,.F.);
#2059=PLANE('',#2060);
#2060=AXIS2_PLACEMENT_3D('',#1820,#34,#738);
#2061=ADVANCED_FACE('',(#2062),#2069,.T.);
#2062=FACE_BOUND('',#2063,.T.);
#2063=EDGE_LOOP('',(#2064,#1964,#2067,#2068));
#2064=ORIENTED_EDGE('',*,*,#2065,.T.);
#2065=EDGE_CURVE('',#1919,#1961,#2066,.T.);
#2066=LINE('',#1920,#56);
#2067=ORIENTED_EDGE('',*,*,#1935,.F.);
#2068=ORIENTED_EDGE('',*,*,#1923,.F.);
#2069=PLANE('',#2070);
#2070=AXIS2_PLACEMENT_3D('',#1920,#124,#13);
#2071=ADVANCED_FACE('',(#2072),#2079,.T.);
#2072=FACE_BOUND('',#2073,.T.);
#2073=EDGE_LOOP('',(#2074,#1959,#2077,#2078));
#2074=ORIENTED_EDGE('',*,*,#2075,.T.);
#2075=EDGE_CURVE('',#1914,#1956,#2076,.T.);
#2076=LINE('',#1915,#56);
#2077=ORIENTED_EDGE('',*,*,#2065,.F.);
#2078=ORIENTED_EDGE('',*,*,#1918,.F.);
#2079=PLANE('',#2080);
#2080=AXIS2_PLACEMENT_3D('',#1915,#13,#34);
#2081=ADVANCED_FACE('',(#2082),#2087,.T.);
#2082=FACE_BOUND('',#2083,.T.);
#2083=EDGE_LOOP('',(#2084,#1954,#2085,#2086));
#2084=ORIENTED_EDGE('',*,*,#1972,.T.);
#2085=ORIENTED_EDGE('',*,*,#2075,.F.);
#2086=ORIENTED_EDGE('',*,*,#1913,.F.);
#2087=PLANE('',#2088);
#2088=AXIS2_PLACEMENT_3D('',#1910,#34,#738);
#2089=( GEOMETRIC_REPRESENTATION_CONTEXT(3) GLOBAL_UNCERTAINTY_ASSIGNED_CONTEXT((#2093)) GLOBAL_UNIT_ASSIGNED_CONTEXT((#2090,#2091,#2092)) REPRESENTATION_CONTEXT('Context #1','3D Context with UNIT and UNCERTAINTY') );
#2090=( LENGTH_UNIT() NAMED_UNIT(*) SI_UNIT(.MILLI.,.METRE.) );
#2091=( NAMED_UNIT(*) PLANE_ANGLE_UNIT() SI_UNIT($,.RADIAN.) );
#2092=( NAMED_UNIT(*) SI_UNIT($,.STERADIAN.) SOLID_ANGLE_UNIT() );
#2093=UNCERTAINTY_MEASURE_WITH_UNIT(LENGTH_MEASURE(1.E-07),#2090,'distance_accuracy_value','confusion accuracy');
#2094=MECHANICAL_DESIGN_GEOMETRIC_PRESENTATION_REPRESENTATION('',(#2095,#2105,#2106,#2107,#2108,#2109,#2110,#2111,#2112,#2121,#2122,#2123,#2124,#2125,#2126,#2127,#2128,#2129,#2130,#2131,#2132,#2133,#2134,#2135,#2136,#2137,#2138,#2139,#2140,#2141,#2142,#2143,#2144,#2145,#2146,#2147,#2148,#2149,#2150,#2151,#2152,#2153,#2154,#2155,#2156,#2157,#2158,#2159,#2160,#2161,#2162,#2163,#2164,#2165,#2166,#2167,#2168,#2169,#2170,#2171,#2172,#2173,#2174,#2175,#2176,#2177,#2178,#2179,#2180,#2181,#2182,#2183,#2184,#2185,#2186,#2187,#2188,#2189,#2190,#2191,#2192,#2193,#2194,#2195,#2196,#2197,#2198,#2199,#2200,#2201,#2202,#2203,#2204,#2205,#2206,#2207,#2208,#2209,#2210,#2211,#2212,#2213,#2214,#2215,#2216,#2217,#2218,#2219,#2220,#2221,#2222,#2223,#2224,#2225,#2226,#2227,#2228,#2229,#2230,#2231,#2232,#2233,#2234,#2235,#2236,#2237,#2238,#2239,#2240,#2241,#2242,#2243,#2244,#2245,#2246,#2247,#2248,#2249,#2250,#2251,#2252,#2253,#2254,#2255,#2256,#2257),#2089);
#2095=STYLED_ITEM('color',(#2096),#17);
#2096=PRESENTATION_STYLE_ASSIGNMENT((#2097,#2103));
#2097=SURFACE_STYLE_USAGE(.BOTH.,#2098);
#2098=SURFACE_SIDE_STYLE('',(#2099));
#2099=SURFACE_STYLE_FILL_AREA(#2100);
#2100=FILL_AREA_STYLE('',(#2101));
#2101=FILL_AREA_STYLE_COLOUR('',#2102);
#2102=COLOUR_RGB('',0.147999998088,0.145000001626,0.145000001626);
#2103=CURVE_STYLE('',#2104,POSITIVE_LENGTH_MEASURE(0.1),#2102);
#2104=DRAUGHTING_PRE_DEFINED_CURVE_FONT('continuous');
#2105=STYLED_ITEM('color',(#2096),#46);
#2106=STYLED_ITEM('color',(#2096),#85);
#2107=STYLED_ITEM('color',(#2096),#125);
#2108=STYLED_ITEM('color',(#2096),#137);
#2109=STYLED_ITEM('color',(#2096),#235);
#2110=STYLED_ITEM('color',(#2096),#246);
#2111=STYLED_ITEM('color',(#2096),#254);
#2112=OVER_RIDING_STYLED_ITEM('overriding color',(#2113),#297,#2111);
#2113=PRESENTATION_STYLE_ASSIGNMENT((#2114,#2120));
#2114=SURFACE_STYLE_USAGE(.BOTH.,#2115);
#2115=SURFACE_SIDE_STYLE('',(#2116));
#2116=SURFACE_STYLE_FILL_AREA(#2117);
#2117=FILL_AREA_STYLE('',(#2118));
#2118=FILL_AREA_STYLE_COLOUR('',#2119);
#2119=COLOUR_RGB('',0.858999988747,0.738000004258,0.496000005009);
#2120=CURVE_STYLE('',#2104,POSITIVE_LENGTH_MEASURE(0.1),#2119);
#2121=OVER_RIDING_STYLED_ITEM('overriding color',(#2113),#277,#2111);
#2122=OVER_RIDING_STYLED_ITEM('overriding color',(#2113),#339,#2111);
#2123=OVER_RIDING_STYLED_ITEM('overriding color',(#2113),#319,#2111);
#2124=OVER_RIDING_STYLED_ITEM('overriding color',(#2113),#381,#2111);
#2125=OVER_RIDING_STYLED_ITEM('overriding color',(#2113),#361,#2111);
#2126=OVER_RIDING_STYLED_ITEM('overriding color',(#2113),#423,#2111);
#2127=OVER_RIDING_STYLED_ITEM('overriding color',(#2113),#403,#2111);
#2128=STYLED_ITEM('color',(#2096),#433);
#2129=STYLED_ITEM('color',(#2096),#438);
#2130=STYLED_ITEM('color',(#2096),#446);
#2131=STYLED_ITEM('color',(#2096),#472);
#2132=STYLED_ITEM('color',(#2096),#492);
#2133=STYLED_ITEM('color',(#2096),#512);
#2134=STYLED_ITEM('color',(#2096),#526);
#2135=STYLED_ITEM('color',(#2096),#547);
#2136=STYLED_ITEM('color',(#2096),#564);
#2137=STYLED_ITEM('color',(#2096),#581);
#2138=STYLED_ITEM('color',(#2096),#594);
#2139=STYLED_ITEM('color',(#2096),#615);
#2140=STYLED_ITEM('color',(#2096),#632);
#2141=STYLED_ITEM('color',(#2096),#649);
#2142=STYLED_ITEM('color',(#2096),#662);
#2143=STYLED_ITEM('color',(#2096),#683);
#2144=STYLED_ITEM('color',(#2096),#700);
#2145=STYLED_ITEM('color',(#2096),#717);
#2146=STYLED_ITEM('color',(#2113),#730);
#2147=STYLED_ITEM('color',(#2113),#739);
#2148=STYLED_ITEM('color',(#2113),#774);
#2149=STYLED_ITEM('color',(#2113),#780);
#2150=STYLED_ITEM('color',(#2113),#809);
#2151=STYLED_ITEM('color',(#2113),#817);
#2152=STYLED_ITEM('color',(#2113),#847);
#2153=STYLED_ITEM('color',(#2113),#853);
#2154=STYLED_ITEM('color',(#2113),#882);
#2155=STYLED_ITEM('color',(#2113),#890);
#2156=STYLED_ITEM('color',(#2113),#920);
#2157=STYLED_ITEM('color',(#2113),#926);
#2158=STYLED_ITEM('color',(#2113),#955);
#2159=STYLED_ITEM('color',(#2113),#963);
#2160=STYLED_ITEM('color',(#2113),#993);
#2161=STYLED_ITEM('color',(#2113),#999);
#2162=STYLED_ITEM('color',(#2096),#1028);
#2163=STYLED_ITEM('color',(#2096),#1046);
#2164=OVER_RIDING_STYLED_ITEM('overriding color',(#2113),#1067,#2163);
#2165=OVER_RIDING_STYLED_ITEM('overriding color',(#2113),#1056,#2163);
#2166=STYLED_ITEM('color',(#2096),#1081);
#2167=STYLED_ITEM('color',(#2096),#1095);
#2168=OVER_RIDING_STYLED_ITEM('overriding color',(#2113),#1116,#2167);
#2169=OVER_RIDING_STYLED_ITEM('overriding color',(#2113),#1105,#2167);
#2170=STYLED_ITEM('color',(#2096),#1126);
#2171=STYLED_ITEM('color',(#2096),#1144);
#2172=OVER_RIDING_STYLED_ITEM('overriding color',(#2113),#1165,#2171);
#2173=OVER_RIDING_STYLED_ITEM('overriding color',(#2113),#1154,#2171);
#2174=STYLED_ITEM('color',(#2096),#1179);
#2175=STYLED_ITEM('color',(#2096),#1193);
#2176=OVER_RIDING_STYLED_ITEM('overriding color',(#2113),#1214,#2175);
#2177=OVER_RIDING_STYLED_ITEM('overriding color',(#2113),#1203,#2175);
#2178=STYLED_ITEM('color',(#2096),#1224);
#2179=STYLED_ITEM('color',(#2096),#1242);
#2180=OVER_RIDING_STYLED_ITEM('overriding color',(#2113),#1263,#2179);
#2181=OVER_RIDING_STYLED_ITEM('overriding color',(#2113),#1252,#2179);
#2182=STYLED_ITEM('color',(#2096),#1277);
#2183=STYLED_ITEM('color',(#2096),#1291);
#2184=OVER_RIDING_STYLED_ITEM('overriding color',(#2113),#1312,#2183);
#2185=OVER_RIDING_STYLED_ITEM('overriding color',(#2113),#1301,#2183);
#2186=STYLED_ITEM('color',(#2096),#1322);
#2187=STYLED_ITEM('color',(#2096),#1340);
#2188=OVER_RIDING_STYLED_ITEM('overriding color',(#2113),#1361,#2187);
#2189=OVER_RIDING_STYLED_ITEM('overriding color',(#2113),#1350,#2187);
#2190=STYLED_ITEM('color',(#2096),#1375);
#2191=STYLED_ITEM('color',(#2096),#1389);
#2192=OVER_RIDING_STYLED_ITEM('overriding color',(#2113),#1410,#2191);
#2193=OVER_RIDING_STYLED_ITEM('overriding color',(#2113),#1399,#2191);
#2194=STYLED_ITEM('color',(#2113),#1420);
#2195=STYLED_ITEM('color',(#2113),#1430);
#2196=STYLED_ITEM('color',(#2113),#1441);
#2197=STYLED_ITEM('color',(#2113),#1451);
#2198=STYLED_ITEM('color',(#2113),#1462);
#2199=STYLED_ITEM('color',(#2113),#1470);
#2200=STYLED_ITEM('color',(#2113),#1480);
#2201=STYLED_ITEM('color',(#2113),#1490);
#2202=STYLED_ITEM('color',(#2113),#1500);
#2203=STYLED_ITEM('color',(#2113),#1510);
#2204=STYLED_ITEM('color',(#2113),#1518);
#2205=STYLED_ITEM('color',(#2113),#1528);
#2206=STYLED_ITEM('color',(#2113),#1538);
#2207=STYLED_ITEM('color',(#2113),#1548);
#2208=STYLED_ITEM('color',(#2113),#1558);
#2209=STYLED_ITEM('color',(#2113),#1566);
#2210=STYLED_ITEM('color',(#2113),#1576);
#2211=STYLED_ITEM('color',(#2113),#1586);
#2212=STYLED_ITEM('color',(#2113),#1596);
#2213=STYLED_ITEM('color',(#2113),#1606);
#2214=STYLED_ITEM('color',(#2096),#1614);
#2215=OVER_RIDING_STYLED_ITEM('overriding color',(#2113),#1618,#2214);
#2216=STYLED_ITEM('color',(#2096),#1624);
#2217=OVER_RIDING_STYLED_ITEM('overriding color',(#2113),#1628,#2216);
#2218=STYLED_ITEM('color',(#2113),#1631);
#2219=STYLED_ITEM('color',(#2113),#1661);
#2220=STYLED_ITEM('color',(#2113),#1675);
#2221=STYLED_ITEM('color',(#2113),#1698);
#2222=STYLED_ITEM('color',(#2096),#1707);
#2223=OVER_RIDING_STYLED_ITEM('overriding color',(#2113),#1711,#2222);
#2224=STYLED_ITEM('color',(#2096),#1717);
#2225=OVER_RIDING_STYLED_ITEM('overriding color',(#2113),#1721,#2224);
#2226=STYLED_ITEM('color',(#2113),#1724);
#2227=STYLED_ITEM('color',(#2113),#1751);
#2228=STYLED_ITEM('color',(#2113),#1765);
#2229=STYLED_ITEM('color',(#2113),#1788);
#2230=STYLED_ITEM('color',(#2096),#1797);
#2231=OVER_RIDING_STYLED_ITEM('overriding color',(#2113),#1801,#2230);
#2232=STYLED_ITEM('color',(#2096),#1807);
#2233=OVER_RIDING_STYLED_ITEM('overriding color',(#2113),#1811,#2232);
#2234=STYLED_ITEM('color',(#2113),#1814);
#2235=STYLED_ITEM('color',(#2113),#1841);
#2236=STYLED_ITEM('color',(#2113),#1855);
#2237=STYLED_ITEM('color',(#2113),#1878);
#2238=STYLED_ITEM('color',(#2096),#1887);
#2239=OVER_RIDING_STYLED_ITEM('overriding color',(#2113),#1891,#2238);
#2240=STYLED_ITEM('color',(#2096),#1897);
#2241=OVER_RIDING_STYLED_ITEM('overriding color',(#2113),#1901,#2240);
#2242=STYLED_ITEM('color',(#2113),#1904);
#2243=STYLED_ITEM('color',(#2113),#1931);
#2244=STYLED_ITEM('color',(#2113),#1945);
#2245=STYLED_ITEM('color',(#2113),#1968);
#2246=STYLED_ITEM('color',(#2113),#1977);
#2247=STYLED_ITEM('color',(#2113),#1987);
#2248=STYLED_ITEM('color',(#2113),#1997);
#2249=STYLED_ITEM('color',(#2113),#2005);
#2250=STYLED_ITEM('color',(#2113),#2015);
#2251=STYLED_ITEM('color',(#2113),#2025);
#2252=STYLED_ITEM('color',(#2113),#2033);
#2253=STYLED_ITEM('color',(#2113),#2043);
#2254=STYLED_ITEM('color',(#2113),#2053);
#2255=STYLED_ITEM('color',(#2113),#2061);
#2256=STYLED_ITEM('color',(#2113),#2071);
#2257=STYLED_ITEM('color',(#2113),#2081);
ENDSEC;
END-ISO-10303-21;
