ISO-10303-21;
HEADER;
/* SOT-23.step 3D STEP model for use in ECAD systems
 * Copyright (C) 2025, KiCAD
 *
 * This work is licensed under the
 * [Creative Commons CC-BY-SA 4.0 License](https://creativecommons.org/licenses/by-sa/4.0/legalcode),
 * with the following exception:
 *
 * To the extent that the creation of electronic designs that use 'Licensed Material' can be
 * considered to be 'Adapted Material', then the copyright holder waives article 3 of the license
 * with respect to these designs and any generated files which use data provided as part of the
 * 'Licensed Material'.
 *
 * You are free to use the library data in your own projects without the obligation to share your
 * project files under this or any other license agreement. However, if you wish to distribute
 * these libraries, or parts thereof (including in modified form) as a collection then the exception
 * above does not apply. Please refer to
 * https://gitlab.com/kicad/libraries/kicad-packages3D/-/blob/master/LICENSE.md for further clarification
 * of the exception.
 *
 * Disclaimer of Warranties and Limitation of Liability.
 * These libraries are provided in the hope that they will be useful, but are provided without warranty of any kind, express or implied.
 * USE 3D CAD DATA AT YOUR OWN RISK
 * DO NOT RELY UPON ANY INFORMATION FOUND HERE WITHOUT INDEPENDENT VERIFICATION.
 */

FILE_DESCRIPTION(
/* description */ ('model of SOT-23'),
/* implementation_level */ '2;1');

FILE_NAME(
/* name */ 'SOT-23.step',
/* time_stamp */ '1970-01-01T00:00:00',
/* author */ ('KiCAD','kicad'),
/* organization */ ('OCCT'),
/* preprocessor_version */ '',
/* originating_system */ 'KiCAD',
/* authorisation */ '');

FILE_SCHEMA(('AUTOMOTIVE_DESIGN { 1 0 10303 214 1 1 1 1 }'));
ENDSEC;

DATA;
#1=APPLICATION_PROTOCOL_DEFINITION('international standard','automotive_design',2000,#2);
#2=APPLICATION_CONTEXT('core data for automotive mechanical design processes');
#3=SHAPE_DEFINITION_REPRESENTATION(#4,#10);
#4=PRODUCT_DEFINITION_SHAPE('','',#5);
#5=PRODUCT_DEFINITION('design','',#6,#9);
#6=PRODUCT_DEFINITION_FORMATION('','',#7);
#7=PRODUCT('SOT-23','SOT-23','',(#8));
#8=PRODUCT_CONTEXT('',#2,'mechanical');
#9=PRODUCT_DEFINITION_CONTEXT('part definition',#2,'design');
#10=ADVANCED_BREP_SHAPE_REPRESENTATION('',(#11,#15),#1265);
#11=AXIS2_PLACEMENT_3D('',#12,#13,#14);
#12=CARTESIAN_POINT('',(0.,0.,0.));
#13=DIRECTION('',(0.,0.,1.));
#14=DIRECTION('',(1.,0.,-0.));
#15=MANIFOLD_SOLID_BREP('',#16);
#16=CLOSED_SHELL('',(#17,#42,#96,#109,#128,#141,#172,#194,#207,#220,#229,#244,#302,#313,#332,#354,#372,#394,#404,#416,#438,#455,#470,#485,#496,#512,#542,#556,#570,#584,#606,#619,#646,#702,#718,#761,#770,#820,#835,#878,#934,#950,#993,#1003,#1014,#1042,#1051,#1060,#1070,#1077,#1087,#1098,#1107,#1117,#1127,#1137,#1145,#1155,#1164,#1174,#1184,#1194,#1202,#1213,#1222,#1232,#1242,#1252,#1260));
#17=ADVANCED_FACE('',(#18),#41,.F.);
#18=FACE_BOUND('',#19,.F.);
#19=EDGE_LOOP('',(#20,#28,#33,#38));
#20=ORIENTED_EDGE('',*,*,#21,.T.);
#21=EDGE_CURVE('',#22,#24,#26,.T.);
#22=VERTEX_POINT('',#23);
#23=CARTESIAN_POINT('',(-0.571621551758,1.433243103516,0.1));
#24=VERTEX_POINT('',#25);
#25=CARTESIAN_POINT('',(0.571621551758,1.433243103516,0.1));
#26=LINE('',#23,#27);
#27=VECTOR('',#14,1.);
#28=ORIENTED_EDGE('',*,*,#29,.T.);
#29=EDGE_CURVE('',#24,#30,#32,.T.);
#30=VERTEX_POINT('',#31);
#31=CARTESIAN_POINT('',(0.605,1.5,0.575));
#32=B_SPLINE_CURVE_WITH_KNOTS('',1,(#25,#31),.UNSPECIFIED.,.F.,.F.,(2,2),(0.,1.),.PIECEWISE_BEZIER_KNOTS.);
#33=ORIENTED_EDGE('',*,*,#34,.F.);
#34=EDGE_CURVE('',#35,#30,#37,.T.);
#35=VERTEX_POINT('',#36);
#36=CARTESIAN_POINT('',(-0.605,1.5,0.575));
#37=LINE('',#36,#27);
#38=ORIENTED_EDGE('',*,*,#39,.F.);
#39=EDGE_CURVE('',#22,#35,#40,.T.);
#40=B_SPLINE_CURVE_WITH_KNOTS('',1,(#23,#36),.UNSPECIFIED.,.F.,.F.,(2,2),(0.,1.),.PIECEWISE_BEZIER_KNOTS.);
#41=B_SPLINE_SURFACE_WITH_KNOTS('',1,1,((#23,#36),(#25,#31)),.UNSPECIFIED.,.F.,.F.,.F.,(2,2),(2,2),(0.,1.21),(0.,1.),.PIECEWISE_BEZIER_KNOTS.);
#42=ADVANCED_FACE('',(#43),#92,.T.);
#43=FACE_BOUND('',#44,.T.);
#44=EDGE_LOOP('',(#20,#45,#52,#59,#66,#73,#80,#87));
#45=ORIENTED_EDGE('',*,*,#46,.T.);
#46=EDGE_CURVE('',#24,#47,#49,.T.);
#47=VERTEX_POINT('',#48);
#48=CARTESIAN_POINT('',(0.633243103516,1.371621551758,0.1));
#49=LINE('',#25,#50);
#50=VECTOR('',#51,1.);
#51=DIRECTION('',(0.707106781187,-0.707106781187,0.));
#52=ORIENTED_EDGE('',*,*,#53,.T.);
#53=EDGE_CURVE('',#47,#54,#56,.T.);
#54=VERTEX_POINT('',#55);
#55=CARTESIAN_POINT('',(0.633243103516,-1.371621551758,0.1));
#56=LINE('',#48,#57);
#57=VECTOR('',#58,1.);
#58=DIRECTION('',(1.110223024625E-16,-1.,0.));
#59=ORIENTED_EDGE('',*,*,#60,.T.);
#60=EDGE_CURVE('',#54,#61,#63,.T.);
#61=VERTEX_POINT('',#62);
#62=CARTESIAN_POINT('',(0.571621551758,-1.433243103516,0.1));
#63=LINE('',#55,#64);
#64=VECTOR('',#65,1.);
#65=DIRECTION('',(-0.707106781187,-0.707106781187,0.));
#66=ORIENTED_EDGE('',*,*,#67,.T.);
#67=EDGE_CURVE('',#61,#68,#70,.T.);
#68=VERTEX_POINT('',#69);
#69=CARTESIAN_POINT('',(-0.571621551758,-1.433243103516,0.1));
#70=LINE('',#62,#71);
#71=VECTOR('',#72,1.);
#72=DIRECTION('',(-1.,-1.110223024625E-16,0.));
#73=ORIENTED_EDGE('',*,*,#74,.T.);
#74=EDGE_CURVE('',#68,#75,#77,.T.);
#75=VERTEX_POINT('',#76);
#76=CARTESIAN_POINT('',(-0.633243103516,-1.371621551758,0.1));
#77=LINE('',#69,#78);
#78=VECTOR('',#79,1.);
#79=DIRECTION('',(-0.707106781187,0.707106781187,0.));
#80=ORIENTED_EDGE('',*,*,#81,.T.);
#81=EDGE_CURVE('',#75,#82,#84,.T.);
#82=VERTEX_POINT('',#83);
#83=CARTESIAN_POINT('',(-0.633243103516,1.371621551758,0.1));
#84=LINE('',#76,#85);
#85=VECTOR('',#86,1.);
#86=DIRECTION('',(-1.110223024625E-16,1.,0.));
#87=ORIENTED_EDGE('',*,*,#88,.T.);
#88=EDGE_CURVE('',#82,#22,#89,.T.);
#89=LINE('',#83,#90);
#90=VECTOR('',#91,1.);
#91=DIRECTION('',(0.707106781187,0.707106781187,0.));
#92=PLANE('',#93);
#93=AXIS2_PLACEMENT_3D('',#23,#94,#95);
#94=DIRECTION('',(0.,0.,-1.));
#95=DIRECTION('',(0.370454302632,-0.928850692879,0.));
#96=ADVANCED_FACE('',(#97),#108,.F.);
#97=FACE_BOUND('',#98,.F.);
#98=EDGE_LOOP('',(#45,#99,#104,#107));
#99=ORIENTED_EDGE('',*,*,#100,.T.);
#100=EDGE_CURVE('',#47,#101,#103,.T.);
#101=VERTEX_POINT('',#102);
#102=CARTESIAN_POINT('',(0.7,1.405,0.575));
#103=B_SPLINE_CURVE_WITH_KNOTS('',1,(#48,#102),.UNSPECIFIED.,.F.,.F.,(2,2),(0.,1.),.PIECEWISE_BEZIER_KNOTS.);
#104=ORIENTED_EDGE('',*,*,#105,.F.);
#105=EDGE_CURVE('',#30,#101,#106,.T.);
#106=LINE('',#31,#50);
#107=ORIENTED_EDGE('',*,*,#29,.F.);
#108=B_SPLINE_SURFACE_WITH_KNOTS('',1,1,((#25,#31),(#48,#102)),.UNSPECIFIED.,.F.,.F.,.F.,(2,2),(2,2),(0.,0.134350288425),(0.,1.),.PIECEWISE_BEZIER_KNOTS.);
#109=ADVANCED_FACE('',(#110),#126,.F.);
#110=FACE_BOUND('',#111,.F.);
#111=EDGE_LOOP('',(#112,#113,#118,#123));
#112=ORIENTED_EDGE('',*,*,#34,.T.);
#113=ORIENTED_EDGE('',*,*,#114,.T.);
#114=EDGE_CURVE('',#30,#115,#117,.T.);
#115=VERTEX_POINT('',#116);
#116=CARTESIAN_POINT('',(0.605,1.5,0.725));
#117=B_SPLINE_CURVE_WITH_KNOTS('',1,(#31,#116),.UNSPECIFIED.,.F.,.F.,(2,2),(0.,1.),.PIECEWISE_BEZIER_KNOTS.);
#118=ORIENTED_EDGE('',*,*,#119,.F.);
#119=EDGE_CURVE('',#120,#115,#122,.T.);
#120=VERTEX_POINT('',#121);
#121=CARTESIAN_POINT('',(-0.605,1.5,0.725));
#122=LINE('',#121,#27);
#123=ORIENTED_EDGE('',*,*,#124,.F.);
#124=EDGE_CURVE('',#35,#120,#125,.T.);
#125=B_SPLINE_CURVE_WITH_KNOTS('',1,(#36,#121),.UNSPECIFIED.,.F.,.F.,(2,2),(0.,1.),.PIECEWISE_BEZIER_KNOTS.);
#126=PLANE('',#127);
#127=AXIS2_PLACEMENT_3D('',#121,#58,#14);
#128=ADVANCED_FACE('',(#129),#140,.F.);
#129=FACE_BOUND('',#130,.F.);
#130=EDGE_LOOP('',(#87,#131,#132,#137));
#131=ORIENTED_EDGE('',*,*,#39,.T.);
#132=ORIENTED_EDGE('',*,*,#133,.F.);
#133=EDGE_CURVE('',#134,#35,#136,.T.);
#134=VERTEX_POINT('',#135);
#135=CARTESIAN_POINT('',(-0.7,1.405,0.575));
#136=LINE('',#135,#90);
#137=ORIENTED_EDGE('',*,*,#138,.F.);
#138=EDGE_CURVE('',#82,#134,#139,.T.);
#139=B_SPLINE_CURVE_WITH_KNOTS('',1,(#83,#135),.UNSPECIFIED.,.F.,.F.,(2,2),(0.,1.),.PIECEWISE_BEZIER_KNOTS.);
#140=B_SPLINE_SURFACE_WITH_KNOTS('',1,1,((#83,#135),(#23,#36)),.UNSPECIFIED.,.F.,.F.,.F.,(2,2),(2,2),(0.,0.134350288425),(0.,1.),.PIECEWISE_BEZIER_KNOTS.);
#141=ADVANCED_FACE('',(#142),#171,.F.);
#142=FACE_BOUND('',#143,.F.);
#143=EDGE_LOOP('',(#80,#144,#145,#151,#156,#160,#165,#168));
#144=ORIENTED_EDGE('',*,*,#138,.T.);
#145=ORIENTED_EDGE('',*,*,#146,.F.);
#146=EDGE_CURVE('',#147,#134,#149,.T.);
#147=VERTEX_POINT('',#148);
#148=CARTESIAN_POINT('',(-0.7,1.15,0.575));
#149=LINE('',#150,#85);
#150=CARTESIAN_POINT('',(-0.7,-1.405,0.575));
#151=ORIENTED_EDGE('',*,*,#152,.F.);
#152=EDGE_CURVE('',#153,#147,#155,.T.);
#153=VERTEX_POINT('',#154);
#154=CARTESIAN_POINT('',(-0.7,0.75,0.575));
#155=LINE('',#154,#85);
#156=ORIENTED_EDGE('',*,*,#157,.F.);
#157=EDGE_CURVE('',#158,#153,#149,.T.);
#158=VERTEX_POINT('',#159);
#159=CARTESIAN_POINT('',(-0.7,-0.75,0.575));
#160=ORIENTED_EDGE('',*,*,#161,.F.);
#161=EDGE_CURVE('',#162,#158,#164,.T.);
#162=VERTEX_POINT('',#163);
#163=CARTESIAN_POINT('',(-0.7,-1.15,0.575));
#164=LINE('',#163,#85);
#165=ORIENTED_EDGE('',*,*,#166,.F.);
#166=EDGE_CURVE('',#167,#162,#149,.T.);
#167=VERTEX_POINT('',#150);
#168=ORIENTED_EDGE('',*,*,#169,.F.);
#169=EDGE_CURVE('',#75,#167,#170,.T.);
#170=B_SPLINE_CURVE_WITH_KNOTS('',1,(#76,#150),.UNSPECIFIED.,.F.,.F.,(2,2),(0.,1.),.PIECEWISE_BEZIER_KNOTS.);
#171=B_SPLINE_SURFACE_WITH_KNOTS('',1,1,((#76,#150),(#83,#135)),.UNSPECIFIED.,.F.,.F.,.F.,(2,2),(2,2),(0.,2.81),(0.,1.),.PIECEWISE_BEZIER_KNOTS.);
#172=ADVANCED_FACE('',(#173),#193,.F.);
#173=FACE_BOUND('',#174,.F.);
#174=EDGE_LOOP('',(#52,#175,#180,#185,#190,#192));
#175=ORIENTED_EDGE('',*,*,#176,.T.);
#176=EDGE_CURVE('',#54,#177,#179,.T.);
#177=VERTEX_POINT('',#178);
#178=CARTESIAN_POINT('',(0.7,-1.405,0.575));
#179=B_SPLINE_CURVE_WITH_KNOTS('',1,(#55,#178),.UNSPECIFIED.,.F.,.F.,(2,2),(0.,1.),.PIECEWISE_BEZIER_KNOTS.);
#180=ORIENTED_EDGE('',*,*,#181,.F.);
#181=EDGE_CURVE('',#182,#177,#184,.T.);
#182=VERTEX_POINT('',#183);
#183=CARTESIAN_POINT('',(0.7,-0.2,0.575));
#184=LINE('',#102,#57);
#185=ORIENTED_EDGE('',*,*,#186,.F.);
#186=EDGE_CURVE('',#187,#182,#189,.T.);
#187=VERTEX_POINT('',#188);
#188=CARTESIAN_POINT('',(0.7,0.2,0.575));
#189=LINE('',#188,#57);
#190=ORIENTED_EDGE('',*,*,#191,.F.);
#191=EDGE_CURVE('',#101,#187,#184,.T.);
#192=ORIENTED_EDGE('',*,*,#100,.F.);
#193=B_SPLINE_SURFACE_WITH_KNOTS('',1,1,((#48,#102),(#55,#178)),.UNSPECIFIED.,.F.,.F.,.F.,(2,2),(2,2),(0.,2.81),(0.,1.),.PIECEWISE_BEZIER_KNOTS.);
#194=ADVANCED_FACE('',(#195),#206,.F.);
#195=FACE_BOUND('',#196,.F.);
#196=EDGE_LOOP('',(#73,#197,#198,#203));
#197=ORIENTED_EDGE('',*,*,#169,.T.);
#198=ORIENTED_EDGE('',*,*,#199,.F.);
#199=EDGE_CURVE('',#200,#167,#202,.T.);
#200=VERTEX_POINT('',#201);
#201=CARTESIAN_POINT('',(-0.605,-1.5,0.575));
#202=LINE('',#201,#78);
#203=ORIENTED_EDGE('',*,*,#204,.F.);
#204=EDGE_CURVE('',#68,#200,#205,.T.);
#205=B_SPLINE_CURVE_WITH_KNOTS('',1,(#69,#201),.UNSPECIFIED.,.F.,.F.,(2,2),(0.,1.),.PIECEWISE_BEZIER_KNOTS.);
#206=B_SPLINE_SURFACE_WITH_KNOTS('',1,1,((#69,#201),(#76,#150)),.UNSPECIFIED.,.F.,.F.,.F.,(2,2),(2,2),(0.,0.134350288425),(0.,1.),.PIECEWISE_BEZIER_KNOTS.);
#207=ADVANCED_FACE('',(#208),#219,.F.);
#208=FACE_BOUND('',#209,.F.);
#209=EDGE_LOOP('',(#59,#210,#215,#218));
#210=ORIENTED_EDGE('',*,*,#211,.T.);
#211=EDGE_CURVE('',#61,#212,#214,.T.);
#212=VERTEX_POINT('',#213);
#213=CARTESIAN_POINT('',(0.605,-1.5,0.575));
#214=B_SPLINE_CURVE_WITH_KNOTS('',1,(#62,#213),.UNSPECIFIED.,.F.,.F.,(2,2),(0.,1.),.PIECEWISE_BEZIER_KNOTS.);
#215=ORIENTED_EDGE('',*,*,#216,.F.);
#216=EDGE_CURVE('',#177,#212,#217,.T.);
#217=LINE('',#178,#64);
#218=ORIENTED_EDGE('',*,*,#176,.F.);
#219=B_SPLINE_SURFACE_WITH_KNOTS('',1,1,((#55,#178),(#62,#213)),.UNSPECIFIED.,.F.,.F.,.F.,(2,2),(2,2),(0.,0.134350288425),(0.,1.),.PIECEWISE_BEZIER_KNOTS.);
#220=ADVANCED_FACE('',(#221),#228,.F.);
#221=FACE_BOUND('',#222,.F.);
#222=EDGE_LOOP('',(#66,#223,#224,#227));
#223=ORIENTED_EDGE('',*,*,#204,.T.);
#224=ORIENTED_EDGE('',*,*,#225,.F.);
#225=EDGE_CURVE('',#212,#200,#226,.T.);
#226=LINE('',#213,#71);
#227=ORIENTED_EDGE('',*,*,#211,.F.);
#228=B_SPLINE_SURFACE_WITH_KNOTS('',1,1,((#62,#213),(#69,#201)),.UNSPECIFIED.,.F.,.F.,.F.,(2,2),(2,2),(0.,1.21),(0.,1.),.PIECEWISE_BEZIER_KNOTS.);
#229=ADVANCED_FACE('',(#230),#242,.F.);
#230=FACE_BOUND('',#231,.F.);
#231=EDGE_LOOP('',(#232,#233,#238,#241));
#232=ORIENTED_EDGE('',*,*,#105,.T.);
#233=ORIENTED_EDGE('',*,*,#234,.T.);
#234=EDGE_CURVE('',#101,#235,#237,.T.);
#235=VERTEX_POINT('',#236);
#236=CARTESIAN_POINT('',(0.7,1.405,0.725));
#237=B_SPLINE_CURVE_WITH_KNOTS('',1,(#102,#236),.UNSPECIFIED.,.F.,.F.,(2,2),(0.,1.),.PIECEWISE_BEZIER_KNOTS.);
#238=ORIENTED_EDGE('',*,*,#239,.F.);
#239=EDGE_CURVE('',#115,#235,#240,.T.);
#240=LINE('',#116,#50);
#241=ORIENTED_EDGE('',*,*,#114,.F.);
#242=PLANE('',#243);
#243=AXIS2_PLACEMENT_3D('',#116,#65,#51);
#244=ADVANCED_FACE('',(#245),#299,.F.);
#245=FACE_BOUND('',#246,.F.);
#246=EDGE_LOOP('',(#247,#252,#253,#254,#259,#264,#269,#274,#279,#284,#290,#295));
#247=ORIENTED_EDGE('',*,*,#248,.T.);
#248=EDGE_CURVE('',#249,#120,#251,.T.);
#249=VERTEX_POINT('',#250);
#250=CARTESIAN_POINT('',(-0.7,1.405,0.725));
#251=LINE('',#250,#90);
#252=ORIENTED_EDGE('',*,*,#119,.T.);
#253=ORIENTED_EDGE('',*,*,#239,.T.);
#254=ORIENTED_EDGE('',*,*,#255,.T.);
#255=EDGE_CURVE('',#235,#256,#258,.T.);
#256=VERTEX_POINT('',#257);
#257=CARTESIAN_POINT('',(0.7,0.2,0.725));
#258=LINE('',#236,#57);
#259=ORIENTED_EDGE('',*,*,#260,.T.);
#260=EDGE_CURVE('',#256,#261,#263,.T.);
#261=VERTEX_POINT('',#262);
#262=CARTESIAN_POINT('',(0.675,0.2,0.725));
#263=LINE('',#257,#71);
#264=ORIENTED_EDGE('',*,*,#265,.F.);
#265=EDGE_CURVE('',#266,#261,#268,.T.);
#266=VERTEX_POINT('',#267);
#267=CARTESIAN_POINT('',(0.675,1.3925,0.725));
#268=LINE('',#267,#57);
#269=ORIENTED_EDGE('',*,*,#270,.F.);
#270=EDGE_CURVE('',#271,#266,#273,.T.);
#271=VERTEX_POINT('',#272);
#272=CARTESIAN_POINT('',(0.5925,1.475,0.725));
#273=LINE('',#272,#50);
#274=ORIENTED_EDGE('',*,*,#275,.F.);
#275=EDGE_CURVE('',#276,#271,#278,.T.);
#276=VERTEX_POINT('',#277);
#277=CARTESIAN_POINT('',(-0.5925,1.475,0.725));
#278=LINE('',#277,#27);
#279=ORIENTED_EDGE('',*,*,#280,.F.);
#280=EDGE_CURVE('',#281,#276,#283,.T.);
#281=VERTEX_POINT('',#282);
#282=CARTESIAN_POINT('',(-0.675,1.3925,0.725));
#283=LINE('',#282,#90);
#284=ORIENTED_EDGE('',*,*,#285,.F.);
#285=EDGE_CURVE('',#286,#281,#288,.T.);
#286=VERTEX_POINT('',#287);
#287=CARTESIAN_POINT('',(-0.675,1.15,0.725));
#288=LINE('',#289,#85);
#289=CARTESIAN_POINT('',(-0.675,-1.3925,0.725));
#290=ORIENTED_EDGE('',*,*,#291,.F.);
#291=EDGE_CURVE('',#292,#286,#294,.T.);
#292=VERTEX_POINT('',#293);
#293=CARTESIAN_POINT('',(-0.7,1.15,0.725));
#294=LINE('',#293,#27);
#295=ORIENTED_EDGE('',*,*,#296,.T.);
#296=EDGE_CURVE('',#292,#249,#297,.T.);
#297=LINE('',#298,#85);
#298=CARTESIAN_POINT('',(-0.7,-1.405,0.725));
#299=PLANE('',#300);
#300=AXIS2_PLACEMENT_3D('',#301,#94,#14);
#301=CARTESIAN_POINT('',(-1.486299604971E-16,1.4875,0.725));
#302=ADVANCED_FACE('',(#303),#311,.F.);
#303=FACE_BOUND('',#304,.F.);
#304=EDGE_LOOP('',(#305,#306,#307,#308));
#305=ORIENTED_EDGE('',*,*,#133,.T.);
#306=ORIENTED_EDGE('',*,*,#124,.T.);
#307=ORIENTED_EDGE('',*,*,#248,.F.);
#308=ORIENTED_EDGE('',*,*,#309,.F.);
#309=EDGE_CURVE('',#134,#249,#310,.T.);
#310=B_SPLINE_CURVE_WITH_KNOTS('',1,(#135,#250),.UNSPECIFIED.,.F.,.F.,(2,2),(0.,1.),.PIECEWISE_BEZIER_KNOTS.);
#311=PLANE('',#312);
#312=AXIS2_PLACEMENT_3D('',#250,#51,#91);
#313=ADVANCED_FACE('',(#314),#330,.F.);
#314=FACE_BOUND('',#315,.F.);
#315=EDGE_LOOP('',(#316,#320,#321,#328));
#316=ORIENTED_EDGE('',*,*,#317,.F.);
#317=EDGE_CURVE('',#167,#318,#319,.T.);
#318=VERTEX_POINT('',#298);
#319=B_SPLINE_CURVE_WITH_KNOTS('',1,(#150,#298),.UNSPECIFIED.,.F.,.F.,(2,2),(0.,1.),.PIECEWISE_BEZIER_KNOTS.);
#320=ORIENTED_EDGE('',*,*,#166,.T.);
#321=ORIENTED_EDGE('',*,*,#322,.T.);
#322=EDGE_CURVE('',#162,#323,#325,.T.);
#323=VERTEX_POINT('',#324);
#324=CARTESIAN_POINT('',(-0.7,-1.15,0.725));
#325=LINE('',#326,#327);
#326=CARTESIAN_POINT('',(-0.7,-1.15,0.529763586955));
#327=VECTOR('',#13,1.);
#328=ORIENTED_EDGE('',*,*,#329,.F.);
#329=EDGE_CURVE('',#318,#323,#297,.T.);
#330=PLANE('',#331);
#331=AXIS2_PLACEMENT_3D('',#298,#14,#86);
#332=ADVANCED_FACE('',(#333),#353,.F.);
#333=FACE_BOUND('',#334,.F.);
#334=EDGE_LOOP('',(#335,#336,#343,#348));
#335=ORIENTED_EDGE('',*,*,#161,.T.);
#336=ORIENTED_EDGE('',*,*,#337,.T.);
#337=EDGE_CURVE('',#158,#338,#340,.T.);
#338=VERTEX_POINT('',#339);
#339=CARTESIAN_POINT('',(-0.798480775301,-0.75,0.492364817767));
#340=CIRCLE('',#341,1.E-01);
#341=AXIS2_PLACEMENT_3D('',#342,#58,#13);
#342=CARTESIAN_POINT('',(-0.7,-0.75,0.475));
#343=ORIENTED_EDGE('',*,*,#344,.F.);
#344=EDGE_CURVE('',#345,#338,#347,.T.);
#345=VERTEX_POINT('',#346);
#346=CARTESIAN_POINT('',(-0.798480775301,-1.15,0.492364817767));
#347=LINE('',#346,#85);
#348=ORIENTED_EDGE('',*,*,#349,.F.);
#349=EDGE_CURVE('',#162,#345,#350,.T.);
#350=CIRCLE('',#351,1.E-01);
#351=AXIS2_PLACEMENT_3D('',#352,#58,#13);
#352=CARTESIAN_POINT('',(-0.7,-1.15,0.475));
#353=CYLINDRICAL_SURFACE('',#351,1.E-01);
#354=ADVANCED_FACE('',(#355),#330,.F.);
#355=FACE_BOUND('',#356,.F.);
#356=EDGE_LOOP('',(#357,#363,#364,#370));
#357=ORIENTED_EDGE('',*,*,#358,.F.);
#358=EDGE_CURVE('',#158,#359,#361,.T.);
#359=VERTEX_POINT('',#360);
#360=CARTESIAN_POINT('',(-0.7,-0.75,0.725));
#361=LINE('',#362,#327);
#362=CARTESIAN_POINT('',(-0.7,-0.75,0.529763586955));
#363=ORIENTED_EDGE('',*,*,#157,.T.);
#364=ORIENTED_EDGE('',*,*,#365,.T.);
#365=EDGE_CURVE('',#153,#366,#368,.T.);
#366=VERTEX_POINT('',#367);
#367=CARTESIAN_POINT('',(-0.7,0.75,0.725));
#368=LINE('',#369,#327);
#369=CARTESIAN_POINT('',(-0.7,0.75,0.529763586955));
#370=ORIENTED_EDGE('',*,*,#371,.F.);
#371=EDGE_CURVE('',#359,#366,#297,.T.);
#372=ADVANCED_FACE('',(#373),#393,.F.);
#373=FACE_BOUND('',#374,.F.);
#374=EDGE_LOOP('',(#375,#376,#383,#388));
#375=ORIENTED_EDGE('',*,*,#152,.T.);
#376=ORIENTED_EDGE('',*,*,#377,.T.);
#377=EDGE_CURVE('',#147,#378,#380,.T.);
#378=VERTEX_POINT('',#379);
#379=CARTESIAN_POINT('',(-0.798480775301,1.15,0.492364817767));
#380=CIRCLE('',#381,1.E-01);
#381=AXIS2_PLACEMENT_3D('',#382,#58,#13);
#382=CARTESIAN_POINT('',(-0.7,1.15,0.475));
#383=ORIENTED_EDGE('',*,*,#384,.F.);
#384=EDGE_CURVE('',#385,#378,#387,.T.);
#385=VERTEX_POINT('',#386);
#386=CARTESIAN_POINT('',(-0.798480775301,0.75,0.492364817767));
#387=LINE('',#386,#85);
#388=ORIENTED_EDGE('',*,*,#389,.F.);
#389=EDGE_CURVE('',#153,#385,#390,.T.);
#390=CIRCLE('',#391,1.E-01);
#391=AXIS2_PLACEMENT_3D('',#392,#58,#13);
#392=CARTESIAN_POINT('',(-0.7,0.75,0.475));
#393=CYLINDRICAL_SURFACE('',#391,1.E-01);
#394=ADVANCED_FACE('',(#395),#330,.F.);
#395=FACE_BOUND('',#396,.F.);
#396=EDGE_LOOP('',(#397,#401,#402,#403));
#397=ORIENTED_EDGE('',*,*,#398,.F.);
#398=EDGE_CURVE('',#147,#292,#399,.T.);
#399=LINE('',#400,#327);
#400=CARTESIAN_POINT('',(-0.7,1.15,0.529763586955));
#401=ORIENTED_EDGE('',*,*,#146,.T.);
#402=ORIENTED_EDGE('',*,*,#309,.T.);
#403=ORIENTED_EDGE('',*,*,#296,.F.);
#404=ADVANCED_FACE('',(#405),#414,.F.);
#405=FACE_BOUND('',#406,.F.);
#406=EDGE_LOOP('',(#407,#408,#409,#413));
#407=ORIENTED_EDGE('',*,*,#234,.F.);
#408=ORIENTED_EDGE('',*,*,#191,.T.);
#409=ORIENTED_EDGE('',*,*,#410,.T.);
#410=EDGE_CURVE('',#187,#256,#411,.T.);
#411=LINE('',#412,#327);
#412=CARTESIAN_POINT('',(0.7,0.2,0.529763586955));
#413=ORIENTED_EDGE('',*,*,#255,.F.);
#414=PLANE('',#415);
#415=AXIS2_PLACEMENT_3D('',#236,#72,#58);
#416=ADVANCED_FACE('',(#417),#437,.F.);
#417=FACE_BOUND('',#418,.F.);
#418=EDGE_LOOP('',(#419,#420,#427,#432));
#419=ORIENTED_EDGE('',*,*,#186,.T.);
#420=ORIENTED_EDGE('',*,*,#421,.T.);
#421=EDGE_CURVE('',#182,#422,#424,.T.);
#422=VERTEX_POINT('',#423);
#423=CARTESIAN_POINT('',(0.798480775301,-0.2,0.492364817767));
#424=CIRCLE('',#425,1.E-01);
#425=AXIS2_PLACEMENT_3D('',#426,#86,#13);
#426=CARTESIAN_POINT('',(0.7,-0.2,0.475));
#427=ORIENTED_EDGE('',*,*,#428,.F.);
#428=EDGE_CURVE('',#429,#422,#431,.T.);
#429=VERTEX_POINT('',#430);
#430=CARTESIAN_POINT('',(0.798480775301,0.2,0.492364817767));
#431=LINE('',#430,#57);
#432=ORIENTED_EDGE('',*,*,#433,.F.);
#433=EDGE_CURVE('',#187,#429,#434,.T.);
#434=CIRCLE('',#435,1.E-01);
#435=AXIS2_PLACEMENT_3D('',#436,#86,#13);
#436=CARTESIAN_POINT('',(0.7,0.2,0.475));
#437=CYLINDRICAL_SURFACE('',#435,1.E-01);
#438=ADVANCED_FACE('',(#439),#414,.F.);
#439=FACE_BOUND('',#440,.F.);
#440=EDGE_LOOP('',(#441,#447,#448,#453));
#441=ORIENTED_EDGE('',*,*,#442,.F.);
#442=EDGE_CURVE('',#182,#443,#445,.T.);
#443=VERTEX_POINT('',#444);
#444=CARTESIAN_POINT('',(0.7,-0.2,0.725));
#445=LINE('',#446,#327);
#446=CARTESIAN_POINT('',(0.7,-0.2,0.529763586955));
#447=ORIENTED_EDGE('',*,*,#181,.T.);
#448=ORIENTED_EDGE('',*,*,#449,.T.);
#449=EDGE_CURVE('',#177,#450,#452,.T.);
#450=VERTEX_POINT('',#451);
#451=CARTESIAN_POINT('',(0.7,-1.405,0.725));
#452=B_SPLINE_CURVE_WITH_KNOTS('',1,(#178,#451),.UNSPECIFIED.,.F.,.F.,(2,2),(0.,1.),.PIECEWISE_BEZIER_KNOTS.);
#453=ORIENTED_EDGE('',*,*,#454,.F.);
#454=EDGE_CURVE('',#443,#450,#258,.T.);
#455=ADVANCED_FACE('',(#456),#468,.F.);
#456=FACE_BOUND('',#457,.F.);
#457=EDGE_LOOP('',(#458,#459,#460,#465));
#458=ORIENTED_EDGE('',*,*,#199,.T.);
#459=ORIENTED_EDGE('',*,*,#317,.T.);
#460=ORIENTED_EDGE('',*,*,#461,.F.);
#461=EDGE_CURVE('',#462,#318,#464,.T.);
#462=VERTEX_POINT('',#463);
#463=CARTESIAN_POINT('',(-0.605,-1.5,0.725));
#464=LINE('',#463,#78);
#465=ORIENTED_EDGE('',*,*,#466,.F.);
#466=EDGE_CURVE('',#200,#462,#467,.T.);
#467=B_SPLINE_CURVE_WITH_KNOTS('',1,(#201,#463),.UNSPECIFIED.,.F.,.F.,(2,2),(0.,1.),.PIECEWISE_BEZIER_KNOTS.);
#468=PLANE('',#469);
#469=AXIS2_PLACEMENT_3D('',#463,#91,#79);
#470=ADVANCED_FACE('',(#471),#483,.F.);
#471=FACE_BOUND('',#472,.F.);
#472=EDGE_LOOP('',(#473,#474,#479,#482));
#473=ORIENTED_EDGE('',*,*,#216,.T.);
#474=ORIENTED_EDGE('',*,*,#475,.T.);
#475=EDGE_CURVE('',#212,#476,#478,.T.);
#476=VERTEX_POINT('',#477);
#477=CARTESIAN_POINT('',(0.605,-1.5,0.725));
#478=B_SPLINE_CURVE_WITH_KNOTS('',1,(#213,#477),.UNSPECIFIED.,.F.,.F.,(2,2),(0.,1.),.PIECEWISE_BEZIER_KNOTS.);
#479=ORIENTED_EDGE('',*,*,#480,.F.);
#480=EDGE_CURVE('',#450,#476,#481,.T.);
#481=LINE('',#451,#64);
#482=ORIENTED_EDGE('',*,*,#449,.F.);
#483=PLANE('',#484);
#484=AXIS2_PLACEMENT_3D('',#451,#79,#65);
#485=ADVANCED_FACE('',(#486),#494,.F.);
#486=FACE_BOUND('',#487,.F.);
#487=EDGE_LOOP('',(#488,#489,#490,#493));
#488=ORIENTED_EDGE('',*,*,#225,.T.);
#489=ORIENTED_EDGE('',*,*,#466,.T.);
#490=ORIENTED_EDGE('',*,*,#491,.F.);
#491=EDGE_CURVE('',#476,#462,#492,.T.);
#492=LINE('',#477,#71);
#493=ORIENTED_EDGE('',*,*,#475,.F.);
#494=PLANE('',#495);
#495=AXIS2_PLACEMENT_3D('',#477,#86,#72);
#496=ADVANCED_FACE('',(#497),#510,.F.);
#497=FACE_BOUND('',#498,.F.);
#498=EDGE_LOOP('',(#499,#504,#507,#508));
#499=ORIENTED_EDGE('',*,*,#500,.F.);
#500=EDGE_CURVE('',#366,#501,#503,.T.);
#501=VERTEX_POINT('',#502);
#502=CARTESIAN_POINT('',(-0.675,0.75,0.725));
#503=LINE('',#367,#27);
#504=ORIENTED_EDGE('',*,*,#505,.T.);
#505=EDGE_CURVE('',#366,#292,#506,.T.);
#506=LINE('',#367,#85);
#507=ORIENTED_EDGE('',*,*,#291,.T.);
#508=ORIENTED_EDGE('',*,*,#509,.F.);
#509=EDGE_CURVE('',#501,#286,#288,.T.);
#510=PLANE('',#511);
#511=AXIS2_PLACEMENT_3D('',#367,#94,#14);
#512=ADVANCED_FACE('',(#513),#541,.F.);
#513=FACE_BOUND('',#514,.F.);
#514=EDGE_LOOP('',(#515,#520,#524,#526,#527,#528,#533,#538));
#515=ORIENTED_EDGE('',*,*,#516,.T.);
#516=EDGE_CURVE('',#517,#518,#288,.T.);
#517=VERTEX_POINT('',#289);
#518=VERTEX_POINT('',#519);
#519=CARTESIAN_POINT('',(-0.675,-1.15,0.725));
#520=ORIENTED_EDGE('',*,*,#521,.T.);
#521=EDGE_CURVE('',#518,#522,#288,.T.);
#522=VERTEX_POINT('',#523);
#523=CARTESIAN_POINT('',(-0.675,-0.75,0.725));
#524=ORIENTED_EDGE('',*,*,#525,.T.);
#525=EDGE_CURVE('',#522,#501,#288,.T.);
#526=ORIENTED_EDGE('',*,*,#509,.T.);
#527=ORIENTED_EDGE('',*,*,#285,.T.);
#528=ORIENTED_EDGE('',*,*,#529,.T.);
#529=EDGE_CURVE('',#281,#530,#532,.T.);
#530=VERTEX_POINT('',#531);
#531=CARTESIAN_POINT('',(-0.608243103516,1.359121551758,1.2));
#532=B_SPLINE_CURVE_WITH_KNOTS('',1,(#282,#531),.UNSPECIFIED.,.F.,.F.,(2,2),(0.,1.),.PIECEWISE_BEZIER_KNOTS.);
#533=ORIENTED_EDGE('',*,*,#534,.F.);
#534=EDGE_CURVE('',#535,#530,#537,.T.);
#535=VERTEX_POINT('',#536);
#536=CARTESIAN_POINT('',(-0.608243103516,-1.359121551758,1.2));
#537=LINE('',#536,#85);
#538=ORIENTED_EDGE('',*,*,#539,.F.);
#539=EDGE_CURVE('',#517,#535,#540,.T.);
#540=B_SPLINE_CURVE_WITH_KNOTS('',1,(#289,#536),.UNSPECIFIED.,.F.,.F.,(2,2),(0.,1.),.PIECEWISE_BEZIER_KNOTS.);
#541=B_SPLINE_SURFACE_WITH_KNOTS('',1,1,((#289,#536),(#282,#531)),.UNSPECIFIED.,.F.,.F.,.F.,(2,2),(2,2),(0.,2.785),(0.,1.),.PIECEWISE_BEZIER_KNOTS.);
#542=ADVANCED_FACE('',(#543),#555,.F.);
#543=FACE_BOUND('',#544,.F.);
#544=EDGE_LOOP('',(#545,#546,#551,#554));
#545=ORIENTED_EDGE('',*,*,#280,.T.);
#546=ORIENTED_EDGE('',*,*,#547,.T.);
#547=EDGE_CURVE('',#276,#548,#550,.T.);
#548=VERTEX_POINT('',#549);
#549=CARTESIAN_POINT('',(-0.559121551758,1.408243103516,1.2));
#550=B_SPLINE_CURVE_WITH_KNOTS('',1,(#277,#549),.UNSPECIFIED.,.F.,.F.,(2,2),(0.,1.),.PIECEWISE_BEZIER_KNOTS.);
#551=ORIENTED_EDGE('',*,*,#552,.F.);
#552=EDGE_CURVE('',#530,#548,#553,.T.);
#553=LINE('',#531,#90);
#554=ORIENTED_EDGE('',*,*,#529,.F.);
#555=B_SPLINE_SURFACE_WITH_KNOTS('',1,1,((#282,#531),(#277,#549)),.UNSPECIFIED.,.F.,.F.,.F.,(2,2),(2,2),(0.,0.116672618896),(0.,1.),.PIECEWISE_BEZIER_KNOTS.);
#556=ADVANCED_FACE('',(#557),#569,.F.);
#557=FACE_BOUND('',#558,.F.);
#558=EDGE_LOOP('',(#559,#560,#565,#568));
#559=ORIENTED_EDGE('',*,*,#275,.T.);
#560=ORIENTED_EDGE('',*,*,#561,.T.);
#561=EDGE_CURVE('',#271,#562,#564,.T.);
#562=VERTEX_POINT('',#563);
#563=CARTESIAN_POINT('',(0.559121551758,1.408243103516,1.2));
#564=B_SPLINE_CURVE_WITH_KNOTS('',1,(#272,#563),.UNSPECIFIED.,.F.,.F.,(2,2),(0.,1.),.PIECEWISE_BEZIER_KNOTS.);
#565=ORIENTED_EDGE('',*,*,#566,.F.);
#566=EDGE_CURVE('',#548,#562,#567,.T.);
#567=LINE('',#549,#27);
#568=ORIENTED_EDGE('',*,*,#547,.F.);
#569=B_SPLINE_SURFACE_WITH_KNOTS('',1,1,((#277,#549),(#272,#563)),.UNSPECIFIED.,.F.,.F.,.F.,(2,2),(2,2),(0.,1.185),(0.,1.),.PIECEWISE_BEZIER_KNOTS.);
#570=ADVANCED_FACE('',(#571),#583,.F.);
#571=FACE_BOUND('',#572,.F.);
#572=EDGE_LOOP('',(#573,#574,#579,#582));
#573=ORIENTED_EDGE('',*,*,#270,.T.);
#574=ORIENTED_EDGE('',*,*,#575,.T.);
#575=EDGE_CURVE('',#266,#576,#578,.T.);
#576=VERTEX_POINT('',#577);
#577=CARTESIAN_POINT('',(0.608243103516,1.359121551758,1.2));
#578=B_SPLINE_CURVE_WITH_KNOTS('',1,(#267,#577),.UNSPECIFIED.,.F.,.F.,(2,2),(0.,1.),.PIECEWISE_BEZIER_KNOTS.);
#579=ORIENTED_EDGE('',*,*,#580,.F.);
#580=EDGE_CURVE('',#562,#576,#581,.T.);
#581=LINE('',#563,#50);
#582=ORIENTED_EDGE('',*,*,#561,.F.);
#583=B_SPLINE_SURFACE_WITH_KNOTS('',1,1,((#272,#563),(#267,#577)),.UNSPECIFIED.,.F.,.F.,.F.,(2,2),(2,2),(0.,0.116672618896),(0.,1.),.PIECEWISE_BEZIER_KNOTS.);
#584=ADVANCED_FACE('',(#585),#605,.F.);
#585=FACE_BOUND('',#586,.F.);
#586=EDGE_LOOP('',(#587,#588,#592,#596,#601,#604));
#587=ORIENTED_EDGE('',*,*,#265,.T.);
#588=ORIENTED_EDGE('',*,*,#589,.T.);
#589=EDGE_CURVE('',#261,#590,#268,.T.);
#590=VERTEX_POINT('',#591);
#591=CARTESIAN_POINT('',(0.675,-0.2,0.725));
#592=ORIENTED_EDGE('',*,*,#593,.T.);
#593=EDGE_CURVE('',#590,#594,#268,.T.);
#594=VERTEX_POINT('',#595);
#595=CARTESIAN_POINT('',(0.675,-1.3925,0.725));
#596=ORIENTED_EDGE('',*,*,#597,.T.);
#597=EDGE_CURVE('',#594,#598,#600,.T.);
#598=VERTEX_POINT('',#599);
#599=CARTESIAN_POINT('',(0.608243103516,-1.359121551758,1.2));
#600=B_SPLINE_CURVE_WITH_KNOTS('',1,(#595,#599),.UNSPECIFIED.,.F.,.F.,(2,2),(0.,1.),.PIECEWISE_BEZIER_KNOTS.);
#601=ORIENTED_EDGE('',*,*,#602,.F.);
#602=EDGE_CURVE('',#576,#598,#603,.T.);
#603=LINE('',#577,#57);
#604=ORIENTED_EDGE('',*,*,#575,.F.);
#605=B_SPLINE_SURFACE_WITH_KNOTS('',1,1,((#267,#577),(#595,#599)),.UNSPECIFIED.,.F.,.F.,.F.,(2,2),(2,2),(0.,2.785),(0.,1.),.PIECEWISE_BEZIER_KNOTS.);
#606=ADVANCED_FACE('',(#607),#617,.F.);
#607=FACE_BOUND('',#608,.F.);
#608=EDGE_LOOP('',(#609,#610,#613,#616));
#609=ORIENTED_EDGE('',*,*,#260,.F.);
#610=ORIENTED_EDGE('',*,*,#611,.T.);
#611=EDGE_CURVE('',#256,#443,#612,.T.);
#612=LINE('',#257,#57);
#613=ORIENTED_EDGE('',*,*,#614,.T.);
#614=EDGE_CURVE('',#443,#590,#615,.T.);
#615=LINE('',#444,#71);
#616=ORIENTED_EDGE('',*,*,#589,.F.);
#617=PLANE('',#618);
#618=AXIS2_PLACEMENT_3D('',#257,#94,#72);
#619=ADVANCED_FACE('',(#620),#299,.F.);
#620=FACE_BOUND('',#621,.F.);
#621=EDGE_LOOP('',(#622,#623,#624,#625,#626,#627,#628,#631,#632,#637,#642,#645));
#622=ORIENTED_EDGE('',*,*,#614,.F.);
#623=ORIENTED_EDGE('',*,*,#454,.T.);
#624=ORIENTED_EDGE('',*,*,#480,.T.);
#625=ORIENTED_EDGE('',*,*,#491,.T.);
#626=ORIENTED_EDGE('',*,*,#461,.T.);
#627=ORIENTED_EDGE('',*,*,#329,.T.);
#628=ORIENTED_EDGE('',*,*,#629,.T.);
#629=EDGE_CURVE('',#323,#518,#630,.T.);
#630=LINE('',#324,#27);
#631=ORIENTED_EDGE('',*,*,#516,.F.);
#632=ORIENTED_EDGE('',*,*,#633,.F.);
#633=EDGE_CURVE('',#634,#517,#636,.T.);
#634=VERTEX_POINT('',#635);
#635=CARTESIAN_POINT('',(-0.5925,-1.475,0.725));
#636=LINE('',#635,#78);
#637=ORIENTED_EDGE('',*,*,#638,.F.);
#638=EDGE_CURVE('',#639,#634,#641,.T.);
#639=VERTEX_POINT('',#640);
#640=CARTESIAN_POINT('',(0.5925,-1.475,0.725));
#641=LINE('',#640,#71);
#642=ORIENTED_EDGE('',*,*,#643,.F.);
#643=EDGE_CURVE('',#594,#639,#644,.T.);
#644=LINE('',#595,#64);
#645=ORIENTED_EDGE('',*,*,#593,.F.);
#646=ADVANCED_FACE('',(#647),#699,.F.);
#647=FACE_BOUND('',#648,.F.);
#648=EDGE_LOOP('',(#649,#650,#651,#658,#666,#671,#676,#681,#687,#694));
#649=ORIENTED_EDGE('',*,*,#322,.F.);
#650=ORIENTED_EDGE('',*,*,#349,.T.);
#651=ORIENTED_EDGE('',*,*,#652,.T.);
#652=EDGE_CURVE('',#345,#653,#655,.T.);
#653=VERTEX_POINT('',#654);
#654=CARTESIAN_POINT('',(-0.843471632406,-1.15,0.206587955583));
#655=LINE('',#346,#656);
#656=VECTOR('',#657,1.);
#657=DIRECTION('',(-0.155518033909,1.779496044609E-18,-0.987833053268));
#658=ORIENTED_EDGE('',*,*,#659,.T.);
#659=EDGE_CURVE('',#653,#660,#662,.T.);
#660=VERTEX_POINT('',#661);
#661=CARTESIAN_POINT('',(-1.089673570659,-1.15,5.551115123126E-17));
#662=CIRCLE('',#663,0.25);
#663=AXIS2_PLACEMENT_3D('',#664,#86,#665);
#664=CARTESIAN_POINT('',(-1.089673570659,-1.15,0.25));
#665=DIRECTION('',(0.984807753012,-1.126854202784E-17,-0.173648177667));
#666=ORIENTED_EDGE('',*,*,#667,.T.);
#667=EDGE_CURVE('',#660,#668,#670,.T.);
#668=VERTEX_POINT('',#669);
#669=CARTESIAN_POINT('',(-1.25,-1.15,5.551115123126E-17));
#670=LINE('',#661,#71);
#671=ORIENTED_EDGE('',*,*,#672,.T.);
#672=EDGE_CURVE('',#668,#673,#675,.T.);
#673=VERTEX_POINT('',#674);
#674=CARTESIAN_POINT('',(-1.25,-1.15,0.15));
#675=LINE('',#669,#327);
#676=ORIENTED_EDGE('',*,*,#677,.T.);
#677=EDGE_CURVE('',#673,#678,#680,.T.);
#678=VERTEX_POINT('',#679);
#679=CARTESIAN_POINT('',(-1.089673570659,-1.15,0.15));
#680=LINE('',#674,#27);
#681=ORIENTED_EDGE('',*,*,#682,.T.);
#682=EDGE_CURVE('',#678,#683,#685,.T.);
#683=VERTEX_POINT('',#684);
#684=CARTESIAN_POINT('',(-0.991192795358,-1.15,0.232635182233));
#685=CIRCLE('',#686,1.E-01);
#686=AXIS2_PLACEMENT_3D('',#664,#58,#94);
#687=ORIENTED_EDGE('',*,*,#688,.T.);
#688=EDGE_CURVE('',#683,#689,#691,.T.);
#689=VERTEX_POINT('',#690);
#690=CARTESIAN_POINT('',(-0.946201938253,-1.15,0.518412044417));
#691=LINE('',#684,#692);
#692=VECTOR('',#693,1.);
#693=DIRECTION('',(0.155518033909,-1.779496044609E-18,0.987833053268));
#694=ORIENTED_EDGE('',*,*,#695,.T.);
#695=EDGE_CURVE('',#689,#323,#696,.T.);
#696=CIRCLE('',#697,0.25);
#697=AXIS2_PLACEMENT_3D('',#352,#86,#698);
#698=DIRECTION('',(-0.984807753012,1.126854202784E-17,0.173648177667));
#699=PLANE('',#700);
#700=AXIS2_PLACEMENT_3D('',#701,#86,#13);
#701=CARTESIAN_POINT('',(-0.931323080229,-1.15,0.33452717391));
#702=ADVANCED_FACE('',(#703),#715,.F.);
#703=FACE_BOUND('',#704,.F.);
#704=EDGE_LOOP('',(#705,#706,#711,#714));
#705=ORIENTED_EDGE('',*,*,#344,.T.);
#706=ORIENTED_EDGE('',*,*,#707,.T.);
#707=EDGE_CURVE('',#338,#708,#710,.T.);
#708=VERTEX_POINT('',#709);
#709=CARTESIAN_POINT('',(-0.843471632406,-0.75,0.206587955583));
#710=LINE('',#339,#656);
#711=ORIENTED_EDGE('',*,*,#712,.F.);
#712=EDGE_CURVE('',#653,#708,#713,.T.);
#713=LINE('',#654,#85);
#714=ORIENTED_EDGE('',*,*,#652,.F.);
#715=PLANE('',#716);
#716=AXIS2_PLACEMENT_3D('',#346,#717,#657);
#717=DIRECTION('',(-0.987833053268,1.130315865527E-17,0.155518033909));
#718=ADVANCED_FACE('',(#719),#758,.T.);
#719=FACE_BOUND('',#720,.T.);
#720=EDGE_LOOP('',(#357,#336,#706,#721,#728,#733,#738,#743,#749,#754));
#721=ORIENTED_EDGE('',*,*,#722,.T.);
#722=EDGE_CURVE('',#708,#723,#725,.T.);
#723=VERTEX_POINT('',#724);
#724=CARTESIAN_POINT('',(-1.089673570659,-0.75,5.551115123126E-17));
#725=CIRCLE('',#726,0.25);
#726=AXIS2_PLACEMENT_3D('',#727,#86,#665);
#727=CARTESIAN_POINT('',(-1.089673570659,-0.75,0.25));
#728=ORIENTED_EDGE('',*,*,#729,.T.);
#729=EDGE_CURVE('',#723,#730,#732,.T.);
#730=VERTEX_POINT('',#731);
#731=CARTESIAN_POINT('',(-1.25,-0.75,5.551115123126E-17));
#732=LINE('',#724,#71);
#733=ORIENTED_EDGE('',*,*,#734,.T.);
#734=EDGE_CURVE('',#730,#735,#737,.T.);
#735=VERTEX_POINT('',#736);
#736=CARTESIAN_POINT('',(-1.25,-0.75,0.15));
#737=LINE('',#731,#327);
#738=ORIENTED_EDGE('',*,*,#739,.T.);
#739=EDGE_CURVE('',#735,#740,#742,.T.);
#740=VERTEX_POINT('',#741);
#741=CARTESIAN_POINT('',(-1.089673570659,-0.75,0.15));
#742=LINE('',#736,#27);
#743=ORIENTED_EDGE('',*,*,#744,.T.);
#744=EDGE_CURVE('',#740,#745,#747,.T.);
#745=VERTEX_POINT('',#746);
#746=CARTESIAN_POINT('',(-0.991192795358,-0.75,0.232635182233));
#747=CIRCLE('',#748,1.E-01);
#748=AXIS2_PLACEMENT_3D('',#727,#58,#94);
#749=ORIENTED_EDGE('',*,*,#750,.T.);
#750=EDGE_CURVE('',#745,#751,#753,.T.);
#751=VERTEX_POINT('',#752);
#752=CARTESIAN_POINT('',(-0.946201938253,-0.75,0.518412044417));
#753=LINE('',#746,#692);
#754=ORIENTED_EDGE('',*,*,#755,.T.);
#755=EDGE_CURVE('',#751,#359,#756,.T.);
#756=CIRCLE('',#757,0.25);
#757=AXIS2_PLACEMENT_3D('',#342,#86,#698);
#758=PLANE('',#759);
#759=AXIS2_PLACEMENT_3D('',#760,#86,#13);
#760=CARTESIAN_POINT('',(-0.931323080229,-0.75,0.33452717391));
#761=ADVANCED_FACE('',(#762),#299,.F.);
#762=FACE_BOUND('',#763,.F.);
#763=EDGE_LOOP('',(#764,#765,#766,#767));
#764=ORIENTED_EDGE('',*,*,#371,.T.);
#765=ORIENTED_EDGE('',*,*,#500,.T.);
#766=ORIENTED_EDGE('',*,*,#525,.F.);
#767=ORIENTED_EDGE('',*,*,#768,.F.);
#768=EDGE_CURVE('',#359,#522,#769,.T.);
#769=LINE('',#360,#27);
#770=ADVANCED_FACE('',(#771),#817,.F.);
#771=FACE_BOUND('',#772,.F.);
#772=EDGE_LOOP('',(#773,#774,#775,#780,#787,#792,#797,#802,#808,#813));
#773=ORIENTED_EDGE('',*,*,#365,.F.);
#774=ORIENTED_EDGE('',*,*,#389,.T.);
#775=ORIENTED_EDGE('',*,*,#776,.T.);
#776=EDGE_CURVE('',#385,#777,#779,.T.);
#777=VERTEX_POINT('',#778);
#778=CARTESIAN_POINT('',(-0.843471632406,0.75,0.206587955583));
#779=LINE('',#386,#656);
#780=ORIENTED_EDGE('',*,*,#781,.T.);
#781=EDGE_CURVE('',#777,#782,#784,.T.);
#782=VERTEX_POINT('',#783);
#783=CARTESIAN_POINT('',(-1.089673570659,0.75,5.551115123126E-17));
#784=CIRCLE('',#785,0.25);
#785=AXIS2_PLACEMENT_3D('',#786,#86,#665);
#786=CARTESIAN_POINT('',(-1.089673570659,0.75,0.25));
#787=ORIENTED_EDGE('',*,*,#788,.T.);
#788=EDGE_CURVE('',#782,#789,#791,.T.);
#789=VERTEX_POINT('',#790);
#790=CARTESIAN_POINT('',(-1.25,0.75,5.551115123126E-17));
#791=LINE('',#783,#71);
#792=ORIENTED_EDGE('',*,*,#793,.T.);
#793=EDGE_CURVE('',#789,#794,#796,.T.);
#794=VERTEX_POINT('',#795);
#795=CARTESIAN_POINT('',(-1.25,0.75,0.15));
#796=LINE('',#790,#327);
#797=ORIENTED_EDGE('',*,*,#798,.T.);
#798=EDGE_CURVE('',#794,#799,#801,.T.);
#799=VERTEX_POINT('',#800);
#800=CARTESIAN_POINT('',(-1.089673570659,0.75,0.15));
#801=LINE('',#795,#27);
#802=ORIENTED_EDGE('',*,*,#803,.T.);
#803=EDGE_CURVE('',#799,#804,#806,.T.);
#804=VERTEX_POINT('',#805);
#805=CARTESIAN_POINT('',(-0.991192795358,0.75,0.232635182233));
#806=CIRCLE('',#807,1.E-01);
#807=AXIS2_PLACEMENT_3D('',#786,#58,#94);
#808=ORIENTED_EDGE('',*,*,#809,.T.);
#809=EDGE_CURVE('',#804,#810,#812,.T.);
#810=VERTEX_POINT('',#811);
#811=CARTESIAN_POINT('',(-0.946201938253,0.75,0.518412044417));
#812=LINE('',#805,#692);
#813=ORIENTED_EDGE('',*,*,#814,.T.);
#814=EDGE_CURVE('',#810,#366,#815,.T.);
#815=CIRCLE('',#816,0.25);
#816=AXIS2_PLACEMENT_3D('',#392,#86,#698);
#817=PLANE('',#818);
#818=AXIS2_PLACEMENT_3D('',#819,#86,#13);
#819=CARTESIAN_POINT('',(-0.931323080229,0.75,0.33452717391));
#820=ADVANCED_FACE('',(#821),#833,.F.);
#821=FACE_BOUND('',#822,.F.);
#822=EDGE_LOOP('',(#823,#824,#829,#832));
#823=ORIENTED_EDGE('',*,*,#384,.T.);
#824=ORIENTED_EDGE('',*,*,#825,.T.);
#825=EDGE_CURVE('',#378,#826,#828,.T.);
#826=VERTEX_POINT('',#827);
#827=CARTESIAN_POINT('',(-0.843471632406,1.15,0.206587955583));
#828=LINE('',#379,#656);
#829=ORIENTED_EDGE('',*,*,#830,.F.);
#830=EDGE_CURVE('',#777,#826,#831,.T.);
#831=LINE('',#778,#85);
#832=ORIENTED_EDGE('',*,*,#776,.F.);
#833=PLANE('',#834);
#834=AXIS2_PLACEMENT_3D('',#386,#717,#657);
#835=ADVANCED_FACE('',(#836),#875,.T.);
#836=FACE_BOUND('',#837,.T.);
#837=EDGE_LOOP('',(#397,#376,#824,#838,#845,#850,#855,#860,#866,#871));
#838=ORIENTED_EDGE('',*,*,#839,.T.);
#839=EDGE_CURVE('',#826,#840,#842,.T.);
#840=VERTEX_POINT('',#841);
#841=CARTESIAN_POINT('',(-1.089673570659,1.15,5.551115123126E-17));
#842=CIRCLE('',#843,0.25);
#843=AXIS2_PLACEMENT_3D('',#844,#86,#665);
#844=CARTESIAN_POINT('',(-1.089673570659,1.15,0.25));
#845=ORIENTED_EDGE('',*,*,#846,.T.);
#846=EDGE_CURVE('',#840,#847,#849,.T.);
#847=VERTEX_POINT('',#848);
#848=CARTESIAN_POINT('',(-1.25,1.15,5.551115123126E-17));
#849=LINE('',#841,#71);
#850=ORIENTED_EDGE('',*,*,#851,.T.);
#851=EDGE_CURVE('',#847,#852,#854,.T.);
#852=VERTEX_POINT('',#853);
#853=CARTESIAN_POINT('',(-1.25,1.15,0.15));
#854=LINE('',#848,#327);
#855=ORIENTED_EDGE('',*,*,#856,.T.);
#856=EDGE_CURVE('',#852,#857,#859,.T.);
#857=VERTEX_POINT('',#858);
#858=CARTESIAN_POINT('',(-1.089673570659,1.15,0.15));
#859=LINE('',#853,#27);
#860=ORIENTED_EDGE('',*,*,#861,.T.);
#861=EDGE_CURVE('',#857,#862,#864,.T.);
#862=VERTEX_POINT('',#863);
#863=CARTESIAN_POINT('',(-0.991192795358,1.15,0.232635182233));
#864=CIRCLE('',#865,1.E-01);
#865=AXIS2_PLACEMENT_3D('',#844,#58,#94);
#866=ORIENTED_EDGE('',*,*,#867,.T.);
#867=EDGE_CURVE('',#862,#868,#870,.T.);
#868=VERTEX_POINT('',#869);
#869=CARTESIAN_POINT('',(-0.946201938253,1.15,0.518412044417));
#870=LINE('',#863,#692);
#871=ORIENTED_EDGE('',*,*,#872,.T.);
#872=EDGE_CURVE('',#868,#292,#873,.T.);
#873=CIRCLE('',#874,0.25);
#874=AXIS2_PLACEMENT_3D('',#382,#86,#698);
#875=PLANE('',#876);
#876=AXIS2_PLACEMENT_3D('',#877,#86,#13);
#877=CARTESIAN_POINT('',(-0.931323080229,1.15,0.33452717391));
#878=ADVANCED_FACE('',(#879),#931,.F.);
#879=FACE_BOUND('',#880,.F.);
#880=EDGE_LOOP('',(#881,#882,#883,#890,#898,#903,#908,#913,#919,#926));
#881=ORIENTED_EDGE('',*,*,#410,.F.);
#882=ORIENTED_EDGE('',*,*,#433,.T.);
#883=ORIENTED_EDGE('',*,*,#884,.T.);
#884=EDGE_CURVE('',#429,#885,#887,.T.);
#885=VERTEX_POINT('',#886);
#886=CARTESIAN_POINT('',(0.843471632406,0.2,0.206587955583));
#887=LINE('',#430,#888);
#888=VECTOR('',#889,1.);
#889=DIRECTION('',(0.155518033909,1.726597019897E-17,-0.987833053268));
#890=ORIENTED_EDGE('',*,*,#891,.T.);
#891=EDGE_CURVE('',#885,#892,#894,.T.);
#892=VERTEX_POINT('',#893);
#893=CARTESIAN_POINT('',(1.089673570659,0.2,5.551115123126E-17));
#894=CIRCLE('',#895,0.25);
#895=AXIS2_PLACEMENT_3D('',#896,#58,#897);
#896=CARTESIAN_POINT('',(1.089673570659,0.2,0.25));
#897=DIRECTION('',(-0.984807753012,-1.093356242224E-16,-0.173648177667));
#898=ORIENTED_EDGE('',*,*,#899,.T.);
#899=EDGE_CURVE('',#892,#900,#902,.T.);
#900=VERTEX_POINT('',#901);
#901=CARTESIAN_POINT('',(1.25,0.2,5.551115123126E-17));
#902=LINE('',#893,#27);
#903=ORIENTED_EDGE('',*,*,#904,.T.);
#904=EDGE_CURVE('',#900,#905,#907,.T.);
#905=VERTEX_POINT('',#906);
#906=CARTESIAN_POINT('',(1.25,0.2,0.15));
#907=LINE('',#901,#327);
#908=ORIENTED_EDGE('',*,*,#909,.T.);
#909=EDGE_CURVE('',#905,#910,#912,.T.);
#910=VERTEX_POINT('',#911);
#911=CARTESIAN_POINT('',(1.089673570659,0.2,0.15));
#912=LINE('',#906,#71);
#913=ORIENTED_EDGE('',*,*,#914,.T.);
#914=EDGE_CURVE('',#910,#915,#917,.T.);
#915=VERTEX_POINT('',#916);
#916=CARTESIAN_POINT('',(0.991192795358,0.2,0.232635182233));
#917=CIRCLE('',#918,1.E-01);
#918=AXIS2_PLACEMENT_3D('',#896,#86,#94);
#919=ORIENTED_EDGE('',*,*,#920,.T.);
#920=EDGE_CURVE('',#915,#921,#923,.T.);
#921=VERTEX_POINT('',#922);
#922=CARTESIAN_POINT('',(0.946201938253,0.2,0.518412044417));
#923=LINE('',#916,#924);
#924=VECTOR('',#925,1.);
#925=DIRECTION('',(-0.155518033909,-1.726597019897E-17,0.987833053268));
#926=ORIENTED_EDGE('',*,*,#927,.T.);
#927=EDGE_CURVE('',#921,#256,#928,.T.);
#928=CIRCLE('',#929,0.25);
#929=AXIS2_PLACEMENT_3D('',#436,#58,#930);
#930=DIRECTION('',(0.984807753012,1.093356242224E-16,0.173648177667));
#931=PLANE('',#932);
#932=AXIS2_PLACEMENT_3D('',#933,#58,#13);
#933=CARTESIAN_POINT('',(0.931323080229,0.2,0.33452717391));
#934=ADVANCED_FACE('',(#935),#947,.F.);
#935=FACE_BOUND('',#936,.F.);
#936=EDGE_LOOP('',(#937,#938,#943,#946));
#937=ORIENTED_EDGE('',*,*,#428,.T.);
#938=ORIENTED_EDGE('',*,*,#939,.T.);
#939=EDGE_CURVE('',#422,#940,#942,.T.);
#940=VERTEX_POINT('',#941);
#941=CARTESIAN_POINT('',(0.843471632406,-0.2,0.206587955583));
#942=LINE('',#423,#888);
#943=ORIENTED_EDGE('',*,*,#944,.F.);
#944=EDGE_CURVE('',#885,#940,#945,.T.);
#945=LINE('',#886,#57);
#946=ORIENTED_EDGE('',*,*,#884,.F.);
#947=PLANE('',#948);
#948=AXIS2_PLACEMENT_3D('',#430,#949,#889);
#949=DIRECTION('',(0.987833053268,1.096715000224E-16,0.155518033909));
#950=ADVANCED_FACE('',(#951),#990,.T.);
#951=FACE_BOUND('',#952,.T.);
#952=EDGE_LOOP('',(#441,#420,#938,#953,#960,#965,#970,#975,#981,#986));
#953=ORIENTED_EDGE('',*,*,#954,.T.);
#954=EDGE_CURVE('',#940,#955,#957,.T.);
#955=VERTEX_POINT('',#956);
#956=CARTESIAN_POINT('',(1.089673570659,-0.2,5.551115123126E-17));
#957=CIRCLE('',#958,0.25);
#958=AXIS2_PLACEMENT_3D('',#959,#58,#897);
#959=CARTESIAN_POINT('',(1.089673570659,-0.2,0.25));
#960=ORIENTED_EDGE('',*,*,#961,.T.);
#961=EDGE_CURVE('',#955,#962,#964,.T.);
#962=VERTEX_POINT('',#963);
#963=CARTESIAN_POINT('',(1.25,-0.2,5.551115123126E-17));
#964=LINE('',#956,#27);
#965=ORIENTED_EDGE('',*,*,#966,.T.);
#966=EDGE_CURVE('',#962,#967,#969,.T.);
#967=VERTEX_POINT('',#968);
#968=CARTESIAN_POINT('',(1.25,-0.2,0.15));
#969=LINE('',#963,#327);
#970=ORIENTED_EDGE('',*,*,#971,.T.);
#971=EDGE_CURVE('',#967,#972,#974,.T.);
#972=VERTEX_POINT('',#973);
#973=CARTESIAN_POINT('',(1.089673570659,-0.2,0.15));
#974=LINE('',#968,#71);
#975=ORIENTED_EDGE('',*,*,#976,.T.);
#976=EDGE_CURVE('',#972,#977,#979,.T.);
#977=VERTEX_POINT('',#978);
#978=CARTESIAN_POINT('',(0.991192795358,-0.2,0.232635182233));
#979=CIRCLE('',#980,1.E-01);
#980=AXIS2_PLACEMENT_3D('',#959,#86,#94);
#981=ORIENTED_EDGE('',*,*,#982,.T.);
#982=EDGE_CURVE('',#977,#983,#985,.T.);
#983=VERTEX_POINT('',#984);
#984=CARTESIAN_POINT('',(0.946201938253,-0.2,0.518412044417));
#985=LINE('',#978,#924);
#986=ORIENTED_EDGE('',*,*,#987,.T.);
#987=EDGE_CURVE('',#983,#443,#988,.T.);
#988=CIRCLE('',#989,0.25);
#989=AXIS2_PLACEMENT_3D('',#426,#58,#930);
#990=PLANE('',#991);
#991=AXIS2_PLACEMENT_3D('',#992,#58,#13);
#992=CARTESIAN_POINT('',(0.931323080229,-0.2,0.33452717391));
#993=ADVANCED_FACE('',(#994),#1001,.T.);
#994=FACE_BOUND('',#995,.F.);
#995=EDGE_LOOP('',(#996,#871,#999,#1000));
#996=ORIENTED_EDGE('',*,*,#997,.T.);
#997=EDGE_CURVE('',#810,#868,#998,.T.);
#998=LINE('',#811,#85);
#999=ORIENTED_EDGE('',*,*,#505,.F.);
#1000=ORIENTED_EDGE('',*,*,#814,.F.);
#1001=CYLINDRICAL_SURFACE('',#1002,0.25);
#1002=AXIS2_PLACEMENT_3D('',#392,#58,#698);
#1003=ADVANCED_FACE('',(#1004),#1012,.F.);
#1004=FACE_BOUND('',#1005,.F.);
#1005=EDGE_LOOP('',(#1006,#1007,#1010,#1011));
#1006=ORIENTED_EDGE('',*,*,#629,.F.);
#1007=ORIENTED_EDGE('',*,*,#1008,.T.);
#1008=EDGE_CURVE('',#323,#359,#1009,.T.);
#1009=LINE('',#324,#85);
#1010=ORIENTED_EDGE('',*,*,#768,.T.);
#1011=ORIENTED_EDGE('',*,*,#521,.F.);
#1012=PLANE('',#1013);
#1013=AXIS2_PLACEMENT_3D('',#324,#94,#14);
#1014=ADVANCED_FACE('',(#1015,#1030),#1039,.T.);
#1015=FACE_BOUND('',#1016,.T.);
#1016=EDGE_LOOP('',(#565,#551,#533,#1017,#1022,#1027,#601,#579));
#1017=ORIENTED_EDGE('',*,*,#1018,.F.);
#1018=EDGE_CURVE('',#1019,#535,#1021,.T.);
#1019=VERTEX_POINT('',#1020);
#1020=CARTESIAN_POINT('',(-0.559121551758,-1.408243103516,1.2));
#1021=LINE('',#1020,#78);
#1022=ORIENTED_EDGE('',*,*,#1023,.F.);
#1023=EDGE_CURVE('',#1024,#1019,#1026,.T.);
#1024=VERTEX_POINT('',#1025);
#1025=CARTESIAN_POINT('',(0.559121551758,-1.408243103516,1.2));
#1026=LINE('',#1025,#71);
#1027=ORIENTED_EDGE('',*,*,#1028,.F.);
#1028=EDGE_CURVE('',#598,#1024,#1029,.T.);
#1029=LINE('',#599,#64);
#1030=FACE_BOUND('',#1031,.T.);
#1031=EDGE_LOOP('',(#1032));
#1032=ORIENTED_EDGE('',*,*,#1033,.T.);
#1033=EDGE_CURVE('',#1034,#1034,#1036,.T.);
#1034=VERTEX_POINT('',#1035);
#1035=CARTESIAN_POINT('',(-0.428243103516,1.178243103516,1.2));
#1036=CIRCLE('',#1037,5.E-02);
#1037=AXIS2_PLACEMENT_3D('',#1038,#94,#58);
#1038=CARTESIAN_POINT('',(-0.428243103516,1.228243103516,1.2));
#1039=PLANE('',#1040);
#1040=AXIS2_PLACEMENT_3D('',#549,#13,#1041);
#1041=DIRECTION('',(0.369013679242,-0.929423963825,0.));
#1042=ADVANCED_FACE('',(#1043),#1050,.F.);
#1043=FACE_BOUND('',#1044,.F.);
#1044=EDGE_LOOP('',(#1045,#1046,#1017,#1047));
#1045=ORIENTED_EDGE('',*,*,#633,.T.);
#1046=ORIENTED_EDGE('',*,*,#539,.T.);
#1047=ORIENTED_EDGE('',*,*,#1048,.F.);
#1048=EDGE_CURVE('',#634,#1019,#1049,.T.);
#1049=B_SPLINE_CURVE_WITH_KNOTS('',1,(#635,#1020),.UNSPECIFIED.,.F.,.F.,(2,2),(0.,1.),.PIECEWISE_BEZIER_KNOTS.);
#1050=B_SPLINE_SURFACE_WITH_KNOTS('',1,1,((#635,#1020),(#289,#536)),.UNSPECIFIED.,.F.,.F.,.F.,(2,2),(2,2),(0.,0.116672618896),(0.,1.),.PIECEWISE_BEZIER_KNOTS.);
#1051=ADVANCED_FACE('',(#1052),#1059,.F.);
#1052=FACE_BOUND('',#1053,.F.);
#1053=EDGE_LOOP('',(#1054,#1055,#1027,#1058));
#1054=ORIENTED_EDGE('',*,*,#643,.T.);
#1055=ORIENTED_EDGE('',*,*,#1056,.T.);
#1056=EDGE_CURVE('',#639,#1024,#1057,.T.);
#1057=B_SPLINE_CURVE_WITH_KNOTS('',1,(#640,#1025),.UNSPECIFIED.,.F.,.F.,(2,2),(0.,1.),.PIECEWISE_BEZIER_KNOTS.);
#1058=ORIENTED_EDGE('',*,*,#597,.F.);
#1059=B_SPLINE_SURFACE_WITH_KNOTS('',1,1,((#595,#599),(#640,#1025)),.UNSPECIFIED.,.F.,.F.,.F.,(2,2),(2,2),(0.,0.116672618896),(0.,1.),.PIECEWISE_BEZIER_KNOTS.);
#1060=ADVANCED_FACE('',(#1061),#1068,.T.);
#1061=FACE_BOUND('',#1062,.F.);
#1062=EDGE_LOOP('',(#1063,#986,#1066,#1067));
#1063=ORIENTED_EDGE('',*,*,#1064,.T.);
#1064=EDGE_CURVE('',#921,#983,#1065,.T.);
#1065=LINE('',#922,#57);
#1066=ORIENTED_EDGE('',*,*,#611,.F.);
#1067=ORIENTED_EDGE('',*,*,#927,.F.);
#1068=CYLINDRICAL_SURFACE('',#1069,0.25);
#1069=AXIS2_PLACEMENT_3D('',#436,#86,#930);
#1070=ADVANCED_FACE('',(#1071),#1076,.F.);
#1071=FACE_BOUND('',#1072,.F.);
#1072=EDGE_LOOP('',(#1073,#1074,#1022,#1075));
#1073=ORIENTED_EDGE('',*,*,#638,.T.);
#1074=ORIENTED_EDGE('',*,*,#1048,.T.);
#1075=ORIENTED_EDGE('',*,*,#1056,.F.);
#1076=B_SPLINE_SURFACE_WITH_KNOTS('',1,1,((#640,#1025),(#635,#1020)),.UNSPECIFIED.,.F.,.F.,.F.,(2,2),(2,2),(0.,1.185),(0.,1.),.PIECEWISE_BEZIER_KNOTS.);
#1077=ADVANCED_FACE('',(#1078),#1085,.T.);
#1078=FACE_BOUND('',#1079,.F.);
#1079=EDGE_LOOP('',(#1080,#754,#1083,#1084));
#1080=ORIENTED_EDGE('',*,*,#1081,.T.);
#1081=EDGE_CURVE('',#689,#751,#1082,.T.);
#1082=LINE('',#690,#85);
#1083=ORIENTED_EDGE('',*,*,#1008,.F.);
#1084=ORIENTED_EDGE('',*,*,#695,.F.);
#1085=CYLINDRICAL_SURFACE('',#1086,0.25);
#1086=AXIS2_PLACEMENT_3D('',#352,#58,#698);
#1087=ADVANCED_FACE('',(#1088),#1095,.F.);
#1088=FACE_BOUND('',#1089,.F.);
#1089=EDGE_LOOP('',(#1090,#749,#1093,#1094));
#1090=ORIENTED_EDGE('',*,*,#1091,.T.);
#1091=EDGE_CURVE('',#683,#745,#1092,.T.);
#1092=LINE('',#684,#85);
#1093=ORIENTED_EDGE('',*,*,#1081,.F.);
#1094=ORIENTED_EDGE('',*,*,#688,.F.);
#1095=PLANE('',#1096);
#1096=AXIS2_PLACEMENT_3D('',#684,#1097,#693);
#1097=DIRECTION('',(0.987833053268,-1.130315865527E-17,-0.155518033909));
#1098=ADVANCED_FACE('',(#1099),#1106,.F.);
#1099=FACE_BOUND('',#1100,.F.);
#1100=EDGE_LOOP('',(#1101,#743,#1104,#1105));
#1101=ORIENTED_EDGE('',*,*,#1102,.T.);
#1102=EDGE_CURVE('',#678,#740,#1103,.T.);
#1103=LINE('',#679,#85);
#1104=ORIENTED_EDGE('',*,*,#1091,.F.);
#1105=ORIENTED_EDGE('',*,*,#682,.F.);
#1106=CYLINDRICAL_SURFACE('',#686,1.E-01);
#1107=ADVANCED_FACE('',(#1108),#1115,.F.);
#1108=FACE_BOUND('',#1109,.F.);
#1109=EDGE_LOOP('',(#1110,#738,#1113,#1114));
#1110=ORIENTED_EDGE('',*,*,#1111,.T.);
#1111=EDGE_CURVE('',#673,#735,#1112,.T.);
#1112=LINE('',#674,#85);
#1113=ORIENTED_EDGE('',*,*,#1102,.F.);
#1114=ORIENTED_EDGE('',*,*,#677,.F.);
#1115=PLANE('',#1116);
#1116=AXIS2_PLACEMENT_3D('',#674,#94,#14);
#1117=ADVANCED_FACE('',(#1118),#1125,.F.);
#1118=FACE_BOUND('',#1119,.F.);
#1119=EDGE_LOOP('',(#1120,#733,#1123,#1124));
#1120=ORIENTED_EDGE('',*,*,#1121,.T.);
#1121=EDGE_CURVE('',#668,#730,#1122,.T.);
#1122=LINE('',#669,#85);
#1123=ORIENTED_EDGE('',*,*,#1111,.F.);
#1124=ORIENTED_EDGE('',*,*,#672,.F.);
#1125=PLANE('',#1126);
#1126=AXIS2_PLACEMENT_3D('',#669,#14,#13);
#1127=ADVANCED_FACE('',(#1128),#1135,.F.);
#1128=FACE_BOUND('',#1129,.F.);
#1129=EDGE_LOOP('',(#1130,#728,#1133,#1134));
#1130=ORIENTED_EDGE('',*,*,#1131,.T.);
#1131=EDGE_CURVE('',#660,#723,#1132,.T.);
#1132=LINE('',#661,#85);
#1133=ORIENTED_EDGE('',*,*,#1121,.F.);
#1134=ORIENTED_EDGE('',*,*,#667,.F.);
#1135=PLANE('',#1136);
#1136=AXIS2_PLACEMENT_3D('',#661,#13,#72);
#1137=ADVANCED_FACE('',(#1138),#1143,.T.);
#1138=FACE_BOUND('',#1139,.F.);
#1139=EDGE_LOOP('',(#1140,#721,#1141,#1142));
#1140=ORIENTED_EDGE('',*,*,#712,.T.);
#1141=ORIENTED_EDGE('',*,*,#1131,.F.);
#1142=ORIENTED_EDGE('',*,*,#659,.F.);
#1143=CYLINDRICAL_SURFACE('',#1144,0.25);
#1144=AXIS2_PLACEMENT_3D('',#664,#58,#665);
#1145=ADVANCED_FACE('',(#1146),#1153,.F.);
#1146=FACE_BOUND('',#1147,.F.);
#1147=EDGE_LOOP('',(#1148,#866,#1151,#1152));
#1148=ORIENTED_EDGE('',*,*,#1149,.T.);
#1149=EDGE_CURVE('',#804,#862,#1150,.T.);
#1150=LINE('',#805,#85);
#1151=ORIENTED_EDGE('',*,*,#997,.F.);
#1152=ORIENTED_EDGE('',*,*,#809,.F.);
#1153=PLANE('',#1154);
#1154=AXIS2_PLACEMENT_3D('',#805,#1097,#693);
#1155=ADVANCED_FACE('',(#1156),#1163,.F.);
#1156=FACE_BOUND('',#1157,.F.);
#1157=EDGE_LOOP('',(#1158,#860,#1161,#1162));
#1158=ORIENTED_EDGE('',*,*,#1159,.T.);
#1159=EDGE_CURVE('',#799,#857,#1160,.T.);
#1160=LINE('',#800,#85);
#1161=ORIENTED_EDGE('',*,*,#1149,.F.);
#1162=ORIENTED_EDGE('',*,*,#803,.F.);
#1163=CYLINDRICAL_SURFACE('',#807,1.E-01);
#1164=ADVANCED_FACE('',(#1165),#1172,.F.);
#1165=FACE_BOUND('',#1166,.F.);
#1166=EDGE_LOOP('',(#1167,#855,#1170,#1171));
#1167=ORIENTED_EDGE('',*,*,#1168,.T.);
#1168=EDGE_CURVE('',#794,#852,#1169,.T.);
#1169=LINE('',#795,#85);
#1170=ORIENTED_EDGE('',*,*,#1159,.F.);
#1171=ORIENTED_EDGE('',*,*,#798,.F.);
#1172=PLANE('',#1173);
#1173=AXIS2_PLACEMENT_3D('',#795,#94,#14);
#1174=ADVANCED_FACE('',(#1175),#1182,.F.);
#1175=FACE_BOUND('',#1176,.F.);
#1176=EDGE_LOOP('',(#1177,#850,#1180,#1181));
#1177=ORIENTED_EDGE('',*,*,#1178,.T.);
#1178=EDGE_CURVE('',#789,#847,#1179,.T.);
#1179=LINE('',#790,#85);
#1180=ORIENTED_EDGE('',*,*,#1168,.F.);
#1181=ORIENTED_EDGE('',*,*,#793,.F.);
#1182=PLANE('',#1183);
#1183=AXIS2_PLACEMENT_3D('',#790,#14,#13);
#1184=ADVANCED_FACE('',(#1185),#1192,.F.);
#1185=FACE_BOUND('',#1186,.F.);
#1186=EDGE_LOOP('',(#1187,#845,#1190,#1191));
#1187=ORIENTED_EDGE('',*,*,#1188,.T.);
#1188=EDGE_CURVE('',#782,#840,#1189,.T.);
#1189=LINE('',#783,#85);
#1190=ORIENTED_EDGE('',*,*,#1178,.F.);
#1191=ORIENTED_EDGE('',*,*,#788,.F.);
#1192=PLANE('',#1193);
#1193=AXIS2_PLACEMENT_3D('',#783,#13,#72);
#1194=ADVANCED_FACE('',(#1195),#1200,.T.);
#1195=FACE_BOUND('',#1196,.F.);
#1196=EDGE_LOOP('',(#1197,#838,#1198,#1199));
#1197=ORIENTED_EDGE('',*,*,#830,.T.);
#1198=ORIENTED_EDGE('',*,*,#1188,.F.);
#1199=ORIENTED_EDGE('',*,*,#781,.F.);
#1200=CYLINDRICAL_SURFACE('',#1201,0.25);
#1201=AXIS2_PLACEMENT_3D('',#786,#58,#665);
#1202=ADVANCED_FACE('',(#1203),#1210,.F.);
#1203=FACE_BOUND('',#1204,.F.);
#1204=EDGE_LOOP('',(#1205,#981,#1208,#1209));
#1205=ORIENTED_EDGE('',*,*,#1206,.T.);
#1206=EDGE_CURVE('',#915,#977,#1207,.T.);
#1207=LINE('',#916,#57);
#1208=ORIENTED_EDGE('',*,*,#1064,.F.);
#1209=ORIENTED_EDGE('',*,*,#920,.F.);
#1210=PLANE('',#1211);
#1211=AXIS2_PLACEMENT_3D('',#916,#1212,#925);
#1212=DIRECTION('',(-0.987833053268,-1.096715000224E-16,-0.155518033909));
#1213=ADVANCED_FACE('',(#1214),#1221,.F.);
#1214=FACE_BOUND('',#1215,.F.);
#1215=EDGE_LOOP('',(#1216,#975,#1219,#1220));
#1216=ORIENTED_EDGE('',*,*,#1217,.T.);
#1217=EDGE_CURVE('',#910,#972,#1218,.T.);
#1218=LINE('',#911,#57);
#1219=ORIENTED_EDGE('',*,*,#1206,.F.);
#1220=ORIENTED_EDGE('',*,*,#914,.F.);
#1221=CYLINDRICAL_SURFACE('',#918,1.E-01);
#1222=ADVANCED_FACE('',(#1223),#1230,.F.);
#1223=FACE_BOUND('',#1224,.F.);
#1224=EDGE_LOOP('',(#1225,#970,#1228,#1229));
#1225=ORIENTED_EDGE('',*,*,#1226,.T.);
#1226=EDGE_CURVE('',#905,#967,#1227,.T.);
#1227=LINE('',#906,#57);
#1228=ORIENTED_EDGE('',*,*,#1217,.F.);
#1229=ORIENTED_EDGE('',*,*,#909,.F.);
#1230=PLANE('',#1231);
#1231=AXIS2_PLACEMENT_3D('',#906,#94,#72);
#1232=ADVANCED_FACE('',(#1233),#1240,.F.);
#1233=FACE_BOUND('',#1234,.F.);
#1234=EDGE_LOOP('',(#1235,#965,#1238,#1239));
#1235=ORIENTED_EDGE('',*,*,#1236,.T.);
#1236=EDGE_CURVE('',#900,#962,#1237,.T.);
#1237=LINE('',#901,#57);
#1238=ORIENTED_EDGE('',*,*,#1226,.F.);
#1239=ORIENTED_EDGE('',*,*,#904,.F.);
#1240=PLANE('',#1241);
#1241=AXIS2_PLACEMENT_3D('',#901,#72,#13);
#1242=ADVANCED_FACE('',(#1243),#1250,.F.);
#1243=FACE_BOUND('',#1244,.F.);
#1244=EDGE_LOOP('',(#1245,#960,#1248,#1249));
#1245=ORIENTED_EDGE('',*,*,#1246,.T.);
#1246=EDGE_CURVE('',#892,#955,#1247,.T.);
#1247=LINE('',#893,#57);
#1248=ORIENTED_EDGE('',*,*,#1236,.F.);
#1249=ORIENTED_EDGE('',*,*,#899,.F.);
#1250=PLANE('',#1251);
#1251=AXIS2_PLACEMENT_3D('',#893,#13,#14);
#1252=ADVANCED_FACE('',(#1253),#1258,.T.);
#1253=FACE_BOUND('',#1254,.F.);
#1254=EDGE_LOOP('',(#1255,#953,#1256,#1257));
#1255=ORIENTED_EDGE('',*,*,#944,.T.);
#1256=ORIENTED_EDGE('',*,*,#1246,.F.);
#1257=ORIENTED_EDGE('',*,*,#891,.F.);
#1258=CYLINDRICAL_SURFACE('',#1259,0.25);
#1259=AXIS2_PLACEMENT_3D('',#896,#86,#897);
#1260=ADVANCED_FACE('',(#1261),#1264,.F.);
#1261=FACE_BOUND('',#1262,.T.);
#1262=EDGE_LOOP('',(#1263));
#1263=ORIENTED_EDGE('',*,*,#1033,.F.);
#1264=PLANE('',#1037);
#1265=( GEOMETRIC_REPRESENTATION_CONTEXT(3) GLOBAL_UNCERTAINTY_ASSIGNED_CONTEXT((#1269)) GLOBAL_UNIT_ASSIGNED_CONTEXT((#1266,#1267,#1268)) REPRESENTATION_CONTEXT('Context #1','3D Context with UNIT and UNCERTAINTY') );
#1266=( LENGTH_UNIT() NAMED_UNIT(*) SI_UNIT(.MILLI.,.METRE.) );
#1267=( NAMED_UNIT(*) PLANE_ANGLE_UNIT() SI_UNIT($,.RADIAN.) );
#1268=( NAMED_UNIT(*) SI_UNIT($,.STERADIAN.) SOLID_ANGLE_UNIT() );
#1269=UNCERTAINTY_MEASURE_WITH_UNIT(LENGTH_MEASURE(1.E-07),#1266,'distance_accuracy_value','confusion accuracy');
#1270=MECHANICAL_DESIGN_GEOMETRIC_PRESENTATION_REPRESENTATION('',(#1271,#1281,#1282,#1283,#1284,#1285,#1286,#1287,#1288,#1289,#1290,#1291,#1292,#1293,#1294,#1303,#1304,#1305,#1306,#1307,#1308,#1309,#1310,#1311,#1312,#1313,#1314,#1315,#1316,#1317,#1318,#1319,#1320,#1321,#1322,#1323,#1324,#1325,#1326,#1327,#1328,#1329,#1330,#1331,#1332,#1333,#1334,#1335,#1336,#1337,#1338,#1339,#1340,#1341,#1342,#1343,#1344,#1345,#1346,#1347,#1348,#1349,#1350,#1351,#1352,#1353,#1354,#1355,#1356),#1265);
#1271=STYLED_ITEM('color',(#1272),#17);
#1272=PRESENTATION_STYLE_ASSIGNMENT((#1273,#1279));
#1273=SURFACE_STYLE_USAGE(.BOTH.,#1274);
#1274=SURFACE_SIDE_STYLE('',(#1275));
#1275=SURFACE_STYLE_FILL_AREA(#1276);
#1276=FILL_AREA_STYLE('',(#1277));
#1277=FILL_AREA_STYLE_COLOUR('',#1278);
#1278=COLOUR_RGB('',0.147999998088,0.145000001626,0.145000001626);
#1279=CURVE_STYLE('',#1280,POSITIVE_LENGTH_MEASURE(0.1),#1278);
#1280=DRAUGHTING_PRE_DEFINED_CURVE_FONT('continuous');
#1281=STYLED_ITEM('color',(#1272),#42);
#1282=STYLED_ITEM('color',(#1272),#96);
#1283=STYLED_ITEM('color',(#1272),#109);
#1284=STYLED_ITEM('color',(#1272),#128);
#1285=STYLED_ITEM('color',(#1272),#141);
#1286=STYLED_ITEM('color',(#1272),#172);
#1287=STYLED_ITEM('color',(#1272),#194);
#1288=STYLED_ITEM('color',(#1272),#207);
#1289=STYLED_ITEM('color',(#1272),#220);
#1290=STYLED_ITEM('color',(#1272),#229);
#1291=STYLED_ITEM('color',(#1272),#244);
#1292=STYLED_ITEM('color',(#1272),#302);
#1293=STYLED_ITEM('color',(#1272),#313);
#1294=STYLED_ITEM('color',(#1295),#332);
#1295=PRESENTATION_STYLE_ASSIGNMENT((#1296,#1302));
#1296=SURFACE_STYLE_USAGE(.BOTH.,#1297);
#1297=SURFACE_SIDE_STYLE('',(#1298));
#1298=SURFACE_STYLE_FILL_AREA(#1299);
#1299=FILL_AREA_STYLE('',(#1300));
#1300=FILL_AREA_STYLE_COLOUR('',#1301);
#1301=COLOUR_RGB('',0.823999987314,0.819999987296,0.781000009244);
#1302=CURVE_STYLE('',#1280,POSITIVE_LENGTH_MEASURE(0.1),#1301);
#1303=STYLED_ITEM('color',(#1272),#354);
#1304=STYLED_ITEM('color',(#1295),#372);
#1305=STYLED_ITEM('color',(#1272),#394);
#1306=STYLED_ITEM('color',(#1272),#404);
#1307=STYLED_ITEM('color',(#1295),#416);
#1308=STYLED_ITEM('color',(#1272),#438);
#1309=STYLED_ITEM('color',(#1272),#455);
#1310=STYLED_ITEM('color',(#1272),#470);
#1311=STYLED_ITEM('color',(#1272),#485);
#1312=STYLED_ITEM('color',(#1295),#496);
#1313=STYLED_ITEM('color',(#1272),#512);
#1314=STYLED_ITEM('color',(#1272),#542);
#1315=STYLED_ITEM('color',(#1272),#556);
#1316=STYLED_ITEM('color',(#1272),#570);
#1317=STYLED_ITEM('color',(#1272),#584);
#1318=STYLED_ITEM('color',(#1295),#606);
#1319=STYLED_ITEM('color',(#1272),#619);
#1320=STYLED_ITEM('color',(#1295),#646);
#1321=STYLED_ITEM('color',(#1295),#702);
#1322=STYLED_ITEM('color',(#1295),#718);
#1323=STYLED_ITEM('color',(#1272),#761);
#1324=STYLED_ITEM('color',(#1295),#770);
#1325=STYLED_ITEM('color',(#1295),#820);
#1326=STYLED_ITEM('color',(#1295),#835);
#1327=STYLED_ITEM('color',(#1295),#878);
#1328=STYLED_ITEM('color',(#1295),#934);
#1329=STYLED_ITEM('color',(#1295),#950);
#1330=STYLED_ITEM('color',(#1295),#993);
#1331=STYLED_ITEM('color',(#1295),#1003);
#1332=STYLED_ITEM('color',(#1272),#1014);
#1333=STYLED_ITEM('color',(#1272),#1042);
#1334=STYLED_ITEM('color',(#1272),#1051);
#1335=STYLED_ITEM('color',(#1295),#1060);
#1336=STYLED_ITEM('color',(#1272),#1070);
#1337=STYLED_ITEM('color',(#1295),#1077);
#1338=STYLED_ITEM('color',(#1295),#1087);
#1339=STYLED_ITEM('color',(#1295),#1098);
#1340=STYLED_ITEM('color',(#1295),#1107);
#1341=STYLED_ITEM('color',(#1295),#1117);
#1342=STYLED_ITEM('color',(#1295),#1127);
#1343=STYLED_ITEM('color',(#1295),#1137);
#1344=STYLED_ITEM('color',(#1295),#1145);
#1345=STYLED_ITEM('color',(#1295),#1155);
#1346=STYLED_ITEM('color',(#1295),#1164);
#1347=STYLED_ITEM('color',(#1295),#1174);
#1348=STYLED_ITEM('color',(#1295),#1184);
#1349=STYLED_ITEM('color',(#1295),#1194);
#1350=STYLED_ITEM('color',(#1295),#1202);
#1351=STYLED_ITEM('color',(#1295),#1213);
#1352=STYLED_ITEM('color',(#1295),#1222);
#1353=STYLED_ITEM('color',(#1295),#1232);
#1354=STYLED_ITEM('color',(#1295),#1242);
#1355=STYLED_ITEM('color',(#1295),#1252);
#1356=STYLED_ITEM('color',(#1357),#1260);
#1357=PRESENTATION_STYLE_ASSIGNMENT((#1358,#1364));
#1358=SURFACE_STYLE_USAGE(.BOTH.,#1359);
#1359=SURFACE_SIDE_STYLE('',(#1360));
#1360=SURFACE_STYLE_FILL_AREA(#1361);
#1361=FILL_AREA_STYLE('',(#1362));
#1362=FILL_AREA_STYLE_COLOUR('',#1363);
#1363=COLOUR_RGB('',0.690999998585,0.664000007176,0.597999987832);
#1364=CURVE_STYLE('',#1280,POSITIVE_LENGTH_MEASURE(0.1),#1363);
ENDSEC;
END-ISO-10303-21;
