ISO-10303-21;
HEADER;
/* R_Axial_DIN0204_L3.6mm_D1.6mm_P5.08mm_Horizontal.step 3D STEP model for use in ECAD systems
 * Copyright (C) 2017, kicad StepUp
 *
 * This work is licensed under the [Creative Commons CC-BY-SA 4.0 License](https://creativecommons.org/licenses/by-sa/4.0/legalcode),
 * with the following exception:
 * To the extent that the creation of electronic designs that use 'Licensed Material' can be considered to be 'Adapted Material',
 * then the copyright holder waives article 3 of the license with respect to these designs and any generated files which use data provided
 * as part of the 'Licensed Material'.
 * You are free to use the library data in your own projects without the obligation to share your project files under this or any other license agreement.
 * However, if you wish to redistribute these libraries, or parts thereof (including in modified form) as a collection then the exception above does not apply.
 * Please refer to https://github.com/KiCad/kicad-packages3D/blob/master/LICENSE.md for further clarification of the exception.
 * Disclaimer of Warranties and Limitation of Liability.
 * These libraries are provided in the hope that they will be useful, but are provided without warranty of any kind, express or implied.
 * *USE 3D CAD DATA AT YOUR OWN RISK*
 * *DO NOT RELY UPON ANY INFORMATION FOUND HERE WITHOUT INDEPENDENT VERIFICATION.*
 *
 */

FILE_DESCRIPTION(
/* description */ ('model of R_Axial_DIN0204_L3.6mm_D1.6mm_P5.08mm_Horizontal'),
/* implementation_level */ '2;1');

FILE_NAME(
/* name */ 'R_Axial_DIN0204_L3.6mm_D1.6mm_P5.08mm_Horizontal.step',
/* time_stamp */ '2017-12-04T10:18:53',
/* author */ ('kicad StepUp','ksu'),
/* organization */ ('FreeCAD'),
/* preprocessor_version */ 'OCC',
/* originating_system */ 'kicad StepUp',
/* authorisation */ '');

FILE_SCHEMA(('AUTOMOTIVE_DESIGN_CC2 { 1 2 10303 214 -1 1 5 4 }'));
ENDSEC;

DATA;
#1=APPLICATION_PROTOCOL_DEFINITION('committee draft','automotive_design',1997,#2);
#2=APPLICATION_CONTEXT('core data for automotive mechanical design processes');
#3=SHAPE_DEFINITION_REPRESENTATION(#4,#10);
#4=PRODUCT_DEFINITION_SHAPE('','',#5);
#5=PRODUCT_DEFINITION('design','',#6,#9);
#6=PRODUCT_DEFINITION_FORMATION('','',#7);
#7=PRODUCT('R_Axial_DIN0204_L36mm_D16mm_P508mm_Horizontal','R_Axial_DIN0204_L36mm_D16mm_P508mm_Horizontal','',(#8));
#8=MECHANICAL_CONTEXT('',#2,'mechanical');
#9=PRODUCT_DEFINITION_CONTEXT('part definition',#2,'design');
#10=ADVANCED_BREP_SHAPE_REPRESENTATION('',(#11,#15),#444);
#11=AXIS2_PLACEMENT_3D('',#12,#13,#14);
#12=CARTESIAN_POINT('',(0.E+000,0.E+000,0.E+000));
#13=DIRECTION('',(0.E+000,0.E+000,1.));
#14=DIRECTION('',(1.,0.E+000,-0.E+000));
#15=MANIFOLD_SOLID_BREP('',#16);
#16=CLOSED_SHELL('',(#17,#45,#63,#78,#189,#206,#224,#237,#254,#269,#274,#291,#403,#420,#438));
#17=ADVANCED_FACE('',(#18),#41,.T.);
#18=FACE_BOUND('',#19,.F.);
#19=EDGE_LOOP('',(#20,#29,#35,#36));
#20=ORIENTED_EDGE('',*,*,#21,.T.);
#21=EDGE_CURVE('',#22,#24,#26,.T.);
#22=VERTEX_POINT('',#23);
#23=CARTESIAN_POINT('',(1.14,0.8,0.8));
#24=VERTEX_POINT('',#25);
#25=CARTESIAN_POINT('',(1.64,0.8,0.8));
#26=LINE('',#27,#28);
#27=CARTESIAN_POINT('',(0.74,0.8,0.8));
#28=VECTOR('',#14,1.);
#29=ORIENTED_EDGE('',*,*,#30,.T.);
#30=EDGE_CURVE('',#24,#24,#31,.T.);
#31=CIRCLE('',#32,0.8);
#32=AXIS2_PLACEMENT_3D('',#33,#14,#34);
#33=CARTESIAN_POINT('',(1.64,0.E+000,0.8));
#34=DIRECTION('',(0.E+000,1.,0.E+000));
#35=ORIENTED_EDGE('',*,*,#21,.F.);
#36=ORIENTED_EDGE('',*,*,#37,.F.);
#37=EDGE_CURVE('',#22,#22,#38,.T.);
#38=CIRCLE('',#39,0.8);
#39=AXIS2_PLACEMENT_3D('',#40,#14,#34);
#40=CARTESIAN_POINT('',(1.14,0.E+000,0.8));
#41=CYLINDRICAL_SURFACE('',#42,0.8);
#42=AXIS2_PLACEMENT_3D('',#43,#44,#34);
#43=CARTESIAN_POINT('',(0.74,0.E+000,0.8));
#44=DIRECTION('',(-1.,-0.E+000,-0.E+000));
#45=ADVANCED_FACE('',(#46),#61,.T.);
#46=FACE_BOUND('',#47,.F.);
#47=EDGE_LOOP('',(#48,#55,#56,#57));
#48=ORIENTED_EDGE('',*,*,#49,.F.);
#49=EDGE_CURVE('',#22,#50,#52,.T.);
#50=VERTEX_POINT('',#51);
#51=CARTESIAN_POINT('',(0.74,0.4,0.8));
#52=CIRCLE('',#53,0.4);
#53=AXIS2_PLACEMENT_3D('',#54,#13,#34);
#54=CARTESIAN_POINT('',(1.14,0.4,0.8));
#55=ORIENTED_EDGE('',*,*,#37,.T.);
#56=ORIENTED_EDGE('',*,*,#49,.T.);
#57=ORIENTED_EDGE('',*,*,#58,.F.);
#58=EDGE_CURVE('',#50,#50,#59,.T.);
#59=CIRCLE('',#60,0.4);
#60=AXIS2_PLACEMENT_3D('',#43,#14,#34);
#61=TOROIDAL_SURFACE('',#62,0.4,0.4);
#62=AXIS2_PLACEMENT_3D('',#40,#44,#34);
#63=ADVANCED_FACE('',(#64,#67),#75,.F.);
#64=FACE_BOUND('',#65,.F.);
#65=EDGE_LOOP('',(#66));
#66=ORIENTED_EDGE('',*,*,#30,.F.);
#67=FACE_BOUND('',#68,.F.);
#68=EDGE_LOOP('',(#69));
#69=ORIENTED_EDGE('',*,*,#70,.F.);
#70=EDGE_CURVE('',#71,#71,#73,.T.);
#71=VERTEX_POINT('',#72);
#72=CARTESIAN_POINT('',(1.64,0.72,0.8));
#73=CIRCLE('',#74,0.72);
#74=AXIS2_PLACEMENT_3D('',#33,#44,#34);
#75=PLANE('',#76);
#76=AXIS2_PLACEMENT_3D('',#25,#44,#77);
#77=DIRECTION('',(0.E+000,0.E+000,-1.));
#78=ADVANCED_FACE('',(#79,#81),#187,.T.);
#79=FACE_BOUND('',#80,.T.);
#80=EDGE_LOOP('',(#57));
#81=FACE_BOUND('',#82,.T.);
#82=EDGE_LOOP('',(#83));
#83=ORIENTED_EDGE('',*,*,#84,.F.);
#84=EDGE_CURVE('',#85,#85,#87,.T.);
#85=VERTEX_POINT('',#86);
#86=CARTESIAN_POINT('',(0.74,9.184850993605E-017,0.549899989998));
#87=B_SPLINE_CURVE_WITH_KNOTS('',4,(#86,#88,#89,#90,#91,#92,#93,#94,#95,#96,#97,#98,#99,#100,#101,#102,#103,#104,#105,#106,#107,#108,#109,#110,#111,#112,#113,#114,#115,#116,#117,#118,#119,#120,#121,#122,#123,#124,#125,#126,#127,#128,#129,#130,#131,#132,#133,#134,#135,#136,#137,#138,#139,#140,#141,#142,#143,#144,#145,#146,#147,#148,#149,#150,#151,#152,#153,#154,#155,#156,#157,#158,#159,#160,#161,#162,#163,#164,#165,#166,#167,#168,#169,#170,#171,#172,#173,#174,#175,#176,#177,#178,#179,#180,#181,#182,#183,#184,#185,#186,#86),.UNSPECIFIED.,.T.,.F.,(5,3,3,3,3,3,3,3,3,3,3,3,3,3,3,3,3,3,3,3,3,3,3,3,3,3,3,3,3,3,3,3,3,5),(0.E+000,2.954854255424E-002,5.950725143879E-002,8.953239652948E-002,0.1196157841,0.149732114387,0.179853483798,0.209958258035,0.240033799606,0.270075422818,0.300083939965,0.330063238237,0.36001847489,0.38995496734,0.419877638599,0.449790835666,0.479698369961,0.507343389451,0.537249550333,0.567159850816,0.597077915405,0.627007845179,0.656954319857,0.686922528108,0.716917796043,0.746944740308,0.777005773153,0.807098913208,0.837215225245,0.867336923178,0.897438131904,0.927490895077,0.957477675543,1.),.UNSPECIFIED.);
#88=CARTESIAN_POINT('',(0.74,-1.164050410382E-002,0.549899991162));
#89=CARTESIAN_POINT('',(0.74,-2.328113700915E-002,0.550622828944));
#90=CARTESIAN_POINT('',(0.74,-3.485062492862E-002,0.552068403168));
#91=CARTESIAN_POINT('',(0.74,-5.786889927215E-002,0.556405386079));
#92=CARTESIAN_POINT('',(0.74,-6.931396793767E-002,0.559316679183));
#93=CARTESIAN_POINT('',(0.74,-8.054453860993E-002,0.562940371123));
#94=CARTESIAN_POINT('',(0.74,-0.102472370433,0.571565542427));
#95=CARTESIAN_POINT('',(0.74,-0.113168471235,0.576570161904));
#96=CARTESIAN_POINT('',(0.74,-0.123520149553,0.582233698908));
#97=CARTESIAN_POINT('',(0.74,-0.143440927185,0.594813804342));
#98=CARTESIAN_POINT('',(0.74,-0.153008498875,0.601732848601));
#99=CARTESIAN_POINT('',(0.74,-0.162116805714,0.609236193324));
#100=CARTESIAN_POINT('',(0.74,-0.17932699595,0.625325812164));
#101=CARTESIAN_POINT('',(0.74,-0.187427805148,0.633913311283));
#102=CARTESIAN_POINT('',(0.74,-0.194970751603,0.642991732747));
#103=CARTESIAN_POINT('',(0.74,-0.20886192381,0.662021732418));
#104=CARTESIAN_POINT('',(0.74,-0.215210007465,0.671973515981));
#105=CARTESIAN_POINT('',(0.74,-0.220919853528,0.682306073072));
#106=CARTESIAN_POINT('',(0.74,-0.231000081052,0.703602963673));
#107=CARTESIAN_POINT('',(0.74,-0.235371260958,0.714567031655));
#108=CARTESIAN_POINT('',(0.74,-0.239044818888,0.725787734511));
#109=CARTESIAN_POINT('',(0.74,-0.244956633251,0.748597257435));
#110=CARTESIAN_POINT('',(0.74,-0.247196328538,0.760185820402));
#111=CARTESIAN_POINT('',(0.74,-0.248702721603,0.771896818597));
#112=CARTESIAN_POINT('',(0.74,-0.250236253198,0.795410784361));
#113=CARTESIAN_POINT('',(0.74,-0.250265081605,0.80721376032));
#114=CARTESIAN_POINT('',(0.74,-0.249550564145,0.818999739239));
#115=CARTESIAN_POINT('',(0.74,-0.246651196549,0.842384879386));
#116=CARTESIAN_POINT('',(0.74,-0.244467961818,0.853984364366));
#117=CARTESIAN_POINT('',(0.74,-0.241557769402,0.865427456671));
#118=CARTESIAN_POINT('',(0.74,-0.234328097064,0.887855103733));
#119=CARTESIAN_POINT('',(0.74,-0.230009957692,0.898840222248));
#120=CARTESIAN_POINT('',(0.74,-0.225007281179,0.909534878551));
#121=CARTESIAN_POINT('',(0.74,-0.213703414458,0.930210386899));
#122=CARTESIAN_POINT('',(0.74,-0.207403209754,0.94019192229));
#123=CARTESIAN_POINT('',(0.74,-0.200485423873,0.949759258498));
#124=CARTESIAN_POINT('',(0.74,-0.185507848738,0.967950151698));
#125=CARTESIAN_POINT('',(0.74,-0.177448695369,0.976574397373));
#126=CARTESIAN_POINT('',(0.74,-0.16886100615,0.984675563245));
#127=CARTESIAN_POINT('',(0.74,-0.15074035222,0.99973744945));
#128=CARTESIAN_POINT('',(0.74,-0.141207726995,1.006698777771));
#129=CARTESIAN_POINT('',(0.74,-0.131254458415,1.01304690782));
#130=CARTESIAN_POINT('',(0.74,-0.110632681238,1.024446271492));
#131=CARTESIAN_POINT('',(0.74,-9.996428813179E-002,1.029497977347));
#132=CARTESIAN_POINT('',(0.74,-8.899810082955E-002,1.033868315527));
#133=CARTESIAN_POINT('',(0.74,-6.660573678598E-002,1.041201389552));
#134=CARTESIAN_POINT('',(0.74,-5.517952646857E-002,1.044164431425));
#135=CARTESIAN_POINT('',(0.74,-4.358893599885E-002,1.046402273007));
#136=CARTESIAN_POINT('',(0.74,-2.110235317185E-002,1.049295690112));
#137=CARTESIAN_POINT('',(0.74,-1.022004216384E-002,1.050058171079));
#138=CARTESIAN_POINT('',(0.74,6.88261253639E-004,1.050186160754));
#139=CARTESIAN_POINT('',(0.74,2.333588646645E-002,1.049137109102));
#140=CARTESIAN_POINT('',(0.74,3.507031057171E-002,1.047852463956));
#141=CARTESIAN_POINT('',(0.74,4.670026027805E-002,1.045831599041));
#142=CARTESIAN_POINT('',(0.74,6.961621014314E-002,1.0403500113));
#143=CARTESIAN_POINT('',(0.74,8.090228620131E-002,1.03688905958));
#144=CARTESIAN_POINT('',(0.74,9.194735335081E-002,1.032724648899));
#145=CARTESIAN_POINT('',(0.74,0.113430350488,1.023045880218));
#146=CARTESIAN_POINT('',(0.74,0.123868238602,1.017531119412));
#147=CARTESIAN_POINT('',(0.74,0.133937127441,1.011370767362));
#148=CARTESIAN_POINT('',(0.74,0.153226135015,0.997837637328));
#149=CARTESIAN_POINT('',(0.74,0.162446020628,0.990464305074));
#150=CARTESIAN_POINT('',(0.74,0.171182023035,0.982526335191));
#151=CARTESIAN_POINT('',(0.74,0.187593706123,0.965618198931));
#152=CARTESIAN_POINT('',(0.74,0.195268887546,0.956647370184));
#153=CARTESIAN_POINT('',(0.74,0.202362534209,0.947213093898));
#154=CARTESIAN_POINT('',(0.74,0.215315466389,0.927528884092));
#155=CARTESIAN_POINT('',(0.74,0.221173922179,0.917278252316));
#156=CARTESIAN_POINT('',(0.74,0.226373965104,0.906681994238));
#157=CARTESIAN_POINT('',(0.74,0.235409237432,0.884919036916));
#158=CARTESIAN_POINT('',(0.74,0.239243276248,0.873751706864));
#159=CARTESIAN_POINT('',(0.74,0.242365607032,0.862368932801));
#160=CARTESIAN_POINT('',(0.74,0.247163118259,0.839298280802));
#161=CARTESIAN_POINT('',(0.74,0.248836785466,0.827609961659));
#162=CARTESIAN_POINT('',(0.74,0.249770959634,0.815843924672));
#163=CARTESIAN_POINT('',(0.74,0.250160814951,0.79228306311));
#164=CARTESIAN_POINT('',(0.74,0.249614805388,0.780488090186));
#165=CARTESIAN_POINT('',(0.74,0.248327919568,0.76875547233));
#166=CARTESIAN_POINT('',(0.74,0.244296518984,0.745539328351));
#167=CARTESIAN_POINT('',(0.74,0.241550410078,0.734055962165));
#168=CARTESIAN_POINT('',(0.74,0.238088171044,0.722772047565));
#169=CARTESIAN_POINT('',(0.74,0.229778716904,0.700723294228));
#170=CARTESIAN_POINT('',(0.74,0.224930379106,0.689958764322));
#171=CARTESIAN_POINT('',(0.74,0.219415324105,0.679522729116));
#172=CARTESIAN_POINT('',(0.74,0.207122627628,0.65942243541));
#173=CARTESIAN_POINT('',(0.74,0.200344698317,0.649758245142));
#174=CARTESIAN_POINT('',(0.74,0.19297168826,0.640539169842));
#175=CARTESIAN_POINT('',(0.74,0.177131357046,0.623098938631));
#176=CARTESIAN_POINT('',(0.74,0.168664735687,0.614877058187));
#177=CARTESIAN_POINT('',(0.74,0.159694040497,0.6072012105));
#178=CARTESIAN_POINT('',(0.74,0.140866486915,0.593038035278));
#179=CARTESIAN_POINT('',(0.74,0.131011048613,0.586548760361));
#180=CARTESIAN_POINT('',(0.74,0.120759511068,0.580688498933));
#181=CARTESIAN_POINT('',(0.74,9.960983228886E-002,0.570303493649));
#182=CARTESIAN_POINT('',(0.74,8.871311364285E-002,0.565775758459));
#183=CARTESIAN_POINT('',(0.74,7.754383260831E-002,0.561940054509));
#184=CARTESIAN_POINT('',(0.74,5.004266478494E-002,0.554390331695));
#185=CARTESIAN_POINT('',(0.74,3.350366986136E-002,0.551397062447));
#186=CARTESIAN_POINT('',(0.74,1.67515101641E-002,0.549899991673));
#187=PLANE('',#188);
#188=AXIS2_PLACEMENT_3D('',#27,#44,#77);
#189=ADVANCED_FACE('',(#190),#205,.T.);
#190=FACE_BOUND('',#191,.F.);
#191=EDGE_LOOP('',(#192,#198,#199,#200));
#192=ORIENTED_EDGE('',*,*,#193,.F.);
#193=EDGE_CURVE('',#71,#194,#196,.T.);
#194=VERTEX_POINT('',#195);
#195=CARTESIAN_POINT('',(3.44,0.72,0.8));
#196=LINE('',#197,#28);
#197=CARTESIAN_POINT('',(0.74,0.72,0.8));
#198=ORIENTED_EDGE('',*,*,#70,.T.);
#199=ORIENTED_EDGE('',*,*,#193,.T.);
#200=ORIENTED_EDGE('',*,*,#201,.F.);
#201=EDGE_CURVE('',#194,#194,#202,.T.);
#202=CIRCLE('',#203,0.72);
#203=AXIS2_PLACEMENT_3D('',#204,#44,#34);
#204=CARTESIAN_POINT('',(3.44,0.E+000,0.8));
#205=CYLINDRICAL_SURFACE('',#42,0.72);
#206=ADVANCED_FACE('',(#207),#223,.T.);
#207=FACE_BOUND('',#208,.T.);
#208=EDGE_LOOP('',(#209,#216,#221,#222));
#209=ORIENTED_EDGE('',*,*,#210,.T.);
#210=EDGE_CURVE('',#211,#211,#213,.T.);
#211=VERTEX_POINT('',#212);
#212=CARTESIAN_POINT('',(0.25,0.E+000,5.E-002));
#213=CIRCLE('',#214,0.25);
#214=AXIS2_PLACEMENT_3D('',#215,#13,#14);
#215=CARTESIAN_POINT('',(0.E+000,0.E+000,5.E-002));
#216=ORIENTED_EDGE('',*,*,#217,.T.);
#217=EDGE_CURVE('',#211,#85,#218,.T.);
#218=CIRCLE('',#219,0.5);
#219=AXIS2_PLACEMENT_3D('',#220,#34,#44);
#220=CARTESIAN_POINT('',(0.75,9.184850993605E-017,5.E-002));
#221=ORIENTED_EDGE('',*,*,#84,.T.);
#222=ORIENTED_EDGE('',*,*,#217,.F.);
#223=TOROIDAL_SURFACE('',#219,0.75,0.25);
#224=ADVANCED_FACE('',(#225,#233),#235,.T.);
#225=FACE_BOUND('',#226,.T.);
#226=EDGE_LOOP('',(#227));
#227=ORIENTED_EDGE('',*,*,#228,.F.);
#228=EDGE_CURVE('',#229,#229,#231,.T.);
#229=VERTEX_POINT('',#230);
#230=CARTESIAN_POINT('',(3.44,0.8,0.8));
#231=CIRCLE('',#232,0.8);
#232=AXIS2_PLACEMENT_3D('',#204,#14,#34);
#233=FACE_BOUND('',#234,.T.);
#234=EDGE_LOOP('',(#200));
#235=PLANE('',#236);
#236=AXIS2_PLACEMENT_3D('',#230,#44,#77);
#237=ADVANCED_FACE('',(#238),#253,.T.);
#238=FACE_BOUND('',#239,.T.);
#239=EDGE_LOOP('',(#240,#246,#247,#248));
#240=ORIENTED_EDGE('',*,*,#241,.T.);
#241=EDGE_CURVE('',#242,#211,#244,.T.);
#242=VERTEX_POINT('',#243);
#243=CARTESIAN_POINT('',(0.25,-6.123233995737E-017,-3.));
#244=LINE('',#243,#245);
#245=VECTOR('',#13,1.);
#246=ORIENTED_EDGE('',*,*,#210,.F.);
#247=ORIENTED_EDGE('',*,*,#241,.F.);
#248=ORIENTED_EDGE('',*,*,#249,.T.);
#249=EDGE_CURVE('',#242,#242,#250,.T.);
#250=CIRCLE('',#251,0.25);
#251=AXIS2_PLACEMENT_3D('',#252,#13,#14);
#252=CARTESIAN_POINT('',(0.E+000,0.E+000,-3.));
#253=CYLINDRICAL_SURFACE('',#251,0.25);
#254=ADVANCED_FACE('',(#255),#268,.T.);
#255=FACE_BOUND('',#256,.F.);
#256=EDGE_LOOP('',(#257,#262,#267,#227));
#257=ORIENTED_EDGE('',*,*,#258,.T.);
#258=EDGE_CURVE('',#229,#259,#261,.T.);
#259=VERTEX_POINT('',#260);
#260=CARTESIAN_POINT('',(3.94,0.8,0.8));
#261=LINE('',#230,#28);
#262=ORIENTED_EDGE('',*,*,#263,.T.);
#263=EDGE_CURVE('',#259,#259,#264,.T.);
#264=CIRCLE('',#265,0.8);
#265=AXIS2_PLACEMENT_3D('',#266,#14,#34);
#266=CARTESIAN_POINT('',(3.94,0.E+000,0.8));
#267=ORIENTED_EDGE('',*,*,#258,.F.);
#268=CYLINDRICAL_SURFACE('',#203,0.8);
#269=ADVANCED_FACE('',(#270),#272,.T.);
#270=FACE_BOUND('',#271,.F.);
#271=EDGE_LOOP('',(#248));
#272=PLANE('',#273);
#273=AXIS2_PLACEMENT_3D('',#243,#77,#44);
#274=ADVANCED_FACE('',(#275),#290,.T.);
#275=FACE_BOUND('',#276,.T.);
#276=EDGE_LOOP('',(#277,#262,#284,#285));
#277=ORIENTED_EDGE('',*,*,#278,.F.);
#278=EDGE_CURVE('',#259,#279,#281,.T.);
#279=VERTEX_POINT('',#280);
#280=CARTESIAN_POINT('',(4.34,0.4,0.8));
#281=CIRCLE('',#282,0.4);
#282=AXIS2_PLACEMENT_3D('',#283,#77,#34);
#283=CARTESIAN_POINT('',(3.94,0.4,0.8));
#284=ORIENTED_EDGE('',*,*,#278,.T.);
#285=ORIENTED_EDGE('',*,*,#286,.F.);
#286=EDGE_CURVE('',#279,#279,#287,.T.);
#287=CIRCLE('',#288,0.4);
#288=AXIS2_PLACEMENT_3D('',#289,#14,#34);
#289=CARTESIAN_POINT('',(4.34,0.E+000,0.8));
#290=TOROIDAL_SURFACE('',#265,0.4,0.4);
#291=ADVANCED_FACE('',(#292,#294),#400,.F.);
#292=FACE_BOUND('',#293,.F.);
#293=EDGE_LOOP('',(#285));
#294=FACE_BOUND('',#295,.F.);
#295=EDGE_LOOP('',(#296));
#296=ORIENTED_EDGE('',*,*,#297,.F.);
#297=EDGE_CURVE('',#298,#298,#300,.T.);
#298=VERTEX_POINT('',#299);
#299=CARTESIAN_POINT('',(4.34,9.184850993605E-017,0.549899989998));
#300=B_SPLINE_CURVE_WITH_KNOTS('',4,(#299,#301,#302,#303,#304,#305,#306,#307,#308,#309,#310,#311,#312,#313,#314,#315,#316,#317,#318,#319,#320,#321,#322,#323,#324,#325,#326,#327,#328,#329,#330,#331,#332,#333,#334,#335,#336,#337,#338,#339,#340,#341,#342,#343,#344,#345,#346,#347,#348,#349,#350,#351,#352,#353,#354,#355,#356,#357,#358,#359,#360,#361,#362,#363,#364,#365,#366,#367,#368,#369,#370,#371,#372,#373,#374,#375,#376,#377,#378,#379,#380,#381,#382,#383,#384,#385,#386,#387,#388,#389,#390,#391,#392,#393,#394,#395,#396,#397,#398,#399,#299),.UNSPECIFIED.,.T.,.F.,(5,3,3,3,3,3,3,3,3,3,3,3,3,3,3,3,3,3,3,3,3,3,3,3,3,3,3,3,3,3,3,3,3,5),(0.E+000,2.954854255526E-002,5.950725143982E-002,8.953239653051E-002,0.119615784102,0.149732114388,0.1798534838,0.209958258036,0.240033799607,0.270075422819,0.300083939966,0.330063238238,0.360018474891,0.389954967342,0.4198776386,0.449790835667,0.479698369962,0.507343389522,0.537249550404,0.567159850886,0.597077915475,0.62700784525,0.656954319928,0.686922528179,0.716917796113,0.746944740378,0.777005773224,0.807098913279,0.837215225316,0.867336923249,0.897438131975,0.927490895148,0.957477675614,1.),.UNSPECIFIED.);
#301=CARTESIAN_POINT('',(4.34,-1.164050410422E-002,0.549899991162));
#302=CARTESIAN_POINT('',(4.34,-2.328113700996E-002,0.550622828944));
#303=CARTESIAN_POINT('',(4.34,-3.485062492983E-002,0.552068403169));
#304=CARTESIAN_POINT('',(4.34,-5.786889927372E-002,0.55640538608));
#305=CARTESIAN_POINT('',(4.34,-6.931396793922E-002,0.559316679184));
#306=CARTESIAN_POINT('',(4.34,-8.054453861146E-002,0.562940371124));
#307=CARTESIAN_POINT('',(4.34,-0.102472370435,0.571565542428));
#308=CARTESIAN_POINT('',(4.34,-0.113168471237,0.576570161904));
#309=CARTESIAN_POINT('',(4.34,-0.123520149554,0.582233698909));
#310=CARTESIAN_POINT('',(4.34,-0.143440927187,0.594813804343));
#311=CARTESIAN_POINT('',(4.34,-0.153008498876,0.601732848602));
#312=CARTESIAN_POINT('',(4.34,-0.162116805716,0.609236193325));
#313=CARTESIAN_POINT('',(4.34,-0.179326995951,0.625325812165));
#314=CARTESIAN_POINT('',(4.34,-0.187427805149,0.633913311284));
#315=CARTESIAN_POINT('',(4.34,-0.194970751604,0.642991732749));
#316=CARTESIAN_POINT('',(4.34,-0.208861923811,0.662021732419));
#317=CARTESIAN_POINT('',(4.34,-0.215210007466,0.671973515983));
#318=CARTESIAN_POINT('',(4.34,-0.220919853528,0.682306073073));
#319=CARTESIAN_POINT('',(4.34,-0.231000081052,0.703602963674));
#320=CARTESIAN_POINT('',(4.34,-0.235371260959,0.714567031657));
#321=CARTESIAN_POINT('',(4.34,-0.239044818889,0.725787734512));
#322=CARTESIAN_POINT('',(4.34,-0.244956633252,0.748597257437));
#323=CARTESIAN_POINT('',(4.34,-0.247196328539,0.760185820404));
#324=CARTESIAN_POINT('',(4.34,-0.248702721603,0.771896818599));
#325=CARTESIAN_POINT('',(4.34,-0.250236253198,0.795410784363));
#326=CARTESIAN_POINT('',(4.34,-0.250265081604,0.807213760322));
#327=CARTESIAN_POINT('',(4.34,-0.249550564145,0.818999739241));
#328=CARTESIAN_POINT('',(4.34,-0.246651196549,0.842384879388));
#329=CARTESIAN_POINT('',(4.34,-0.244467961817,0.853984364368));
#330=CARTESIAN_POINT('',(4.34,-0.241557769401,0.865427456673));
#331=CARTESIAN_POINT('',(4.34,-0.234328097063,0.887855103735));
#332=CARTESIAN_POINT('',(4.34,-0.230009957691,0.89884022225));
#333=CARTESIAN_POINT('',(4.34,-0.225007281178,0.909534878553));
#334=CARTESIAN_POINT('',(4.34,-0.213703414457,0.930210386901));
#335=CARTESIAN_POINT('',(4.34,-0.207403209753,0.940191922291));
#336=CARTESIAN_POINT('',(4.34,-0.200485423872,0.9497592585));
#337=CARTESIAN_POINT('',(4.34,-0.185507848737,0.9679501517));
#338=CARTESIAN_POINT('',(4.34,-0.177448695368,0.976574397374));
#339=CARTESIAN_POINT('',(4.34,-0.168861006149,0.984675563246));
#340=CARTESIAN_POINT('',(4.34,-0.150740352219,0.999737449451));
#341=CARTESIAN_POINT('',(4.34,-0.141207726994,1.006698777772));
#342=CARTESIAN_POINT('',(4.34,-0.131254458413,1.013046907821));
#343=CARTESIAN_POINT('',(4.34,-0.110632681236,1.024446271493));
#344=CARTESIAN_POINT('',(4.34,-9.996428813031E-002,1.029497977347));
#345=CARTESIAN_POINT('',(4.34,-8.899810082804E-002,1.033868315528));
#346=CARTESIAN_POINT('',(4.34,-6.660573678443E-002,1.041201389552));
#347=CARTESIAN_POINT('',(4.34,-5.517952646699E-002,1.044164431426));
#348=CARTESIAN_POINT('',(4.34,-4.358893599727E-002,1.046402273007));
#349=CARTESIAN_POINT('',(4.34,-2.110235314309E-002,1.049295690116));
#350=CARTESIAN_POINT('',(4.34,-1.022004210752E-002,1.050058171083));
#351=CARTESIAN_POINT('',(4.34,6.882613375073E-004,1.050186160755));
#352=CARTESIAN_POINT('',(4.34,2.33358865772E-002,1.049137109091));
#353=CARTESIAN_POINT('',(4.34,3.507031068188E-002,1.04785246394));
#354=CARTESIAN_POINT('',(4.34,4.670026038733E-002,1.04583159902));
#355=CARTESIAN_POINT('',(4.34,6.961621024999E-002,1.040350011269));
#356=CARTESIAN_POINT('',(4.34,8.090228630662E-002,1.036889059544));
#357=CARTESIAN_POINT('',(4.34,9.194735345427E-002,1.032724648859));
#358=CARTESIAN_POINT('',(4.34,0.113430350588,1.023045880168));
#359=CARTESIAN_POINT('',(4.34,0.123868238698,1.017531119357));
#360=CARTESIAN_POINT('',(4.34,0.133937127535,1.011370767302));
#361=CARTESIAN_POINT('',(4.34,0.153226135103,0.99783763726));
#362=CARTESIAN_POINT('',(4.34,0.162446020713,0.990464305002));
#363=CARTESIAN_POINT('',(4.34,0.171182023116,0.982526335115));
#364=CARTESIAN_POINT('',(4.34,0.187593706196,0.965618198848));
#365=CARTESIAN_POINT('',(4.34,0.195268887616,0.956647370097));
#366=CARTESIAN_POINT('',(4.34,0.202362534275,0.947213093808));
#367=CARTESIAN_POINT('',(4.34,0.215315466445,0.927528883997));
#368=CARTESIAN_POINT('',(4.34,0.221173922232,0.917278252218));
#369=CARTESIAN_POINT('',(4.34,0.226373965152,0.906681994138));
#370=CARTESIAN_POINT('',(4.34,0.235409237469,0.884919036811));
#371=CARTESIAN_POINT('',(4.34,0.239243276281,0.873751706758));
#372=CARTESIAN_POINT('',(4.34,0.24236560706,0.862368932693));
#373=CARTESIAN_POINT('',(4.34,0.247163118276,0.839298280692));
#374=CARTESIAN_POINT('',(4.34,0.248836785479,0.827609961549));
#375=CARTESIAN_POINT('',(4.34,0.249770959641,0.815843924561));
#376=CARTESIAN_POINT('',(4.34,0.250160814947,0.792283062999));
#377=CARTESIAN_POINT('',(4.34,0.24961480538,0.780488090075));
#378=CARTESIAN_POINT('',(4.34,0.248327919554,0.768755472219));
#379=CARTESIAN_POINT('',(4.34,0.24429651896,0.745539328242));
#380=CARTESIAN_POINT('',(4.34,0.241550410048,0.734055962058));
#381=CARTESIAN_POINT('',(4.34,0.23808817101,0.722772047459));
#382=CARTESIAN_POINT('',(4.34,0.22977871686,0.700723294126));
#383=CARTESIAN_POINT('',(4.34,0.224930379057,0.689958764222));
#384=CARTESIAN_POINT('',(4.34,0.219415324052,0.679522729019));
#385=CARTESIAN_POINT('',(4.34,0.207122627566,0.659422435318));
#386=CARTESIAN_POINT('',(4.34,0.20034469825,0.649758245053));
#387=CARTESIAN_POINT('',(4.34,0.192971688189,0.640539169756));
#388=CARTESIAN_POINT('',(4.34,0.177131356967,0.623098938552));
#389=CARTESIAN_POINT('',(4.34,0.168664735605,0.614877058112));
#390=CARTESIAN_POINT('',(4.34,0.159694040411,0.607201210429));
#391=CARTESIAN_POINT('',(4.34,0.140866486823,0.593038035215));
#392=CARTESIAN_POINT('',(4.34,0.131011048519,0.586548760303));
#393=CARTESIAN_POINT('',(4.34,0.120759510971,0.580688498879));
#394=CARTESIAN_POINT('',(4.34,9.960983218682E-002,0.570303493605));
#395=CARTESIAN_POINT('',(4.34,8.871311353879E-002,0.56577575842));
#396=CARTESIAN_POINT('',(4.34,7.754383250254E-002,0.561940054475));
#397=CARTESIAN_POINT('',(4.34,5.004266470253E-002,0.554390331681));
#398=CARTESIAN_POINT('',(4.34,3.350366980571E-002,0.551397062442));
#399=CARTESIAN_POINT('',(4.34,1.675151013628E-002,0.549899991673));
#400=PLANE('',#401);
#401=AXIS2_PLACEMENT_3D('',#402,#44,#77);
#402=CARTESIAN_POINT('',(4.34,0.8,0.8));
#403=ADVANCED_FACE('',(#404),#419,.T.);
#404=FACE_BOUND('',#405,.T.);
#405=EDGE_LOOP('',(#296,#406,#413,#418));
#406=ORIENTED_EDGE('',*,*,#407,.T.);
#407=EDGE_CURVE('',#298,#408,#410,.T.);
#408=VERTEX_POINT('',#409);
#409=CARTESIAN_POINT('',(4.83,0.E+000,5.E-002));
#410=CIRCLE('',#411,0.5);
#411=AXIS2_PLACEMENT_3D('',#412,#34,#13);
#412=CARTESIAN_POINT('',(4.33,9.184850993605E-017,5.E-002));
#413=ORIENTED_EDGE('',*,*,#414,.T.);
#414=EDGE_CURVE('',#408,#408,#415,.T.);
#415=CIRCLE('',#416,0.25);
#416=AXIS2_PLACEMENT_3D('',#417,#13,#14);
#417=CARTESIAN_POINT('',(5.08,0.E+000,5.E-002));
#418=ORIENTED_EDGE('',*,*,#407,.F.);
#419=TOROIDAL_SURFACE('',#411,0.75,0.25);
#420=ADVANCED_FACE('',(#421),#436,.T.);
#421=FACE_BOUND('',#422,.T.);
#422=EDGE_LOOP('',(#423,#429,#434,#435));
#423=ORIENTED_EDGE('',*,*,#424,.T.);
#424=EDGE_CURVE('',#408,#425,#427,.T.);
#425=VERTEX_POINT('',#426);
#426=CARTESIAN_POINT('',(4.83,-6.123233995737E-017,-3.));
#427=LINE('',#409,#428);
#428=VECTOR('',#77,1.);
#429=ORIENTED_EDGE('',*,*,#430,.F.);
#430=EDGE_CURVE('',#425,#425,#431,.T.);
#431=CIRCLE('',#432,0.25);
#432=AXIS2_PLACEMENT_3D('',#433,#77,#44);
#433=CARTESIAN_POINT('',(5.08,0.E+000,-3.));
#434=ORIENTED_EDGE('',*,*,#424,.F.);
#435=ORIENTED_EDGE('',*,*,#414,.F.);
#436=CYLINDRICAL_SURFACE('',#437,0.25);
#437=AXIS2_PLACEMENT_3D('',#417,#77,#44);
#438=ADVANCED_FACE('',(#439),#442,.F.);
#439=FACE_BOUND('',#440,.T.);
#440=EDGE_LOOP('',(#441));
#441=ORIENTED_EDGE('',*,*,#430,.T.);
#442=PLANE('',#443);
#443=AXIS2_PLACEMENT_3D('',#426,#13,#14);
#444=( GEOMETRIC_REPRESENTATION_CONTEXT(3) GLOBAL_UNCERTAINTY_ASSIGNED_CONTEXT((#448)) GLOBAL_UNIT_ASSIGNED_CONTEXT((#445,#446,#447)) REPRESENTATION_CONTEXT('Context #1','3D Context with UNIT and UNCERTAINTY') );
#445=( LENGTH_UNIT() NAMED_UNIT(*) SI_UNIT(.MILLI.,.METRE.) );
#446=( NAMED_UNIT(*) PLANE_ANGLE_UNIT() SI_UNIT($,.RADIAN.) );
#447=( NAMED_UNIT(*) SI_UNIT($,.STERADIAN.) SOLID_ANGLE_UNIT() );
#448=UNCERTAINTY_MEASURE_WITH_UNIT(LENGTH_MEASURE(2.E-007),#445,'distance_accuracy_value','confusion accuracy');
#449=MECHANICAL_DESIGN_GEOMETRIC_PRESENTATION_REPRESENTATION('',(#450,#458,#459,#460,#461,#462,#470,#471,#472,#473,#474,#475,#476,#477,#478),#444);
#450=STYLED_ITEM('color',(#451),#17);
#451=PRESENTATION_STYLE_ASSIGNMENT((#452));
#452=SURFACE_STYLE_USAGE(.BOTH.,#453);
#453=SURFACE_SIDE_STYLE('',(#454));
#454=SURFACE_STYLE_FILL_AREA(#455);
#455=FILL_AREA_STYLE('',(#456));
#456=FILL_AREA_STYLE_COLOUR('',#457);
#457=COLOUR_RGB('',0.883000016212,0.711000025272,0.49200001359);
#458=STYLED_ITEM('color',(#451),#45);
#459=STYLED_ITEM('color',(#451),#63);
#460=STYLED_ITEM('color',(#451),#78);
#461=STYLED_ITEM('color',(#451),#189);
#462=STYLED_ITEM('color',(#463),#206);
#463=PRESENTATION_STYLE_ASSIGNMENT((#464));
#464=SURFACE_STYLE_USAGE(.BOTH.,#465);
#465=SURFACE_SIDE_STYLE('',(#466));
#466=SURFACE_STYLE_FILL_AREA(#467);
#467=FILL_AREA_STYLE('',(#468));
#468=FILL_AREA_STYLE_COLOUR('',#469);
#469=COLOUR_RGB('',0.824000000954,0.819999992847,0.78100001812);
#470=STYLED_ITEM('color',(#451),#224);
#471=STYLED_ITEM('color',(#463),#237);
#472=STYLED_ITEM('color',(#451),#254);
#473=STYLED_ITEM('color',(#463),#269);
#474=STYLED_ITEM('color',(#451),#274);
#475=STYLED_ITEM('color',(#451),#291);
#476=STYLED_ITEM('color',(#463),#403);
#477=STYLED_ITEM('color',(#463),#420);
#478=STYLED_ITEM('color',(#463),#438);
ENDSEC;
END-ISO-10303-21;
