ISO-10303-21;
HEADER;
/* R_Axial_DIN0204_L3.6mm_D1.6mm_P7.62mm_Horizontal.step 3D STEP model for use in ECAD systems
 * Copyright (C) 2017, kicad StepUp
 *
 * This work is licensed under the [Creative Commons CC-BY-SA 4.0 License](https://creativecommons.org/licenses/by-sa/4.0/legalcode),
 * with the following exception:
 * To the extent that the creation of electronic designs that use 'Licensed Material' can be considered to be 'Adapted Material',
 * then the copyright holder waives article 3 of the license with respect to these designs and any generated files which use data provided
 * as part of the 'Licensed Material'.
 * You are free to use the library data in your own projects without the obligation to share your project files under this or any other license agreement.
 * However, if you wish to redistribute these libraries, or parts thereof (including in modified form) as a collection then the exception above does not apply.
 * Please refer to https://github.com/KiCad/kicad-packages3D/blob/master/LICENSE.md for further clarification of the exception.
 * Disclaimer of Warranties and Limitation of Liability.
 * These libraries are provided in the hope that they will be useful, but are provided without warranty of any kind, express or implied.
 * *USE 3D CAD DATA AT YOUR OWN RISK*
 * *DO NOT RELY UPON ANY INFORMATION FOUND HERE WITHOUT INDEPENDENT VERIFICATION.*
 *
 */

FILE_DESCRIPTION(
/* description */ ('model of R_Axial_DIN0204_L3.6mm_D1.6mm_P7.62mm_Horizontal'),
/* implementation_level */ '2;1');

FILE_NAME(
/* name */ 'R_Axial_DIN0204_L3.6mm_D1.6mm_P7.62mm_Horizontal.step',
/* time_stamp */ '2017-12-04T10:17:37',
/* author */ ('kicad StepUp','ksu'),
/* organization */ ('FreeCAD'),
/* preprocessor_version */ 'OCC',
/* originating_system */ 'kicad StepUp',
/* authorisation */ '');

FILE_SCHEMA(('AUTOMOTIVE_DESIGN_CC2 { 1 2 10303 214 -1 1 5 4 }'));
ENDSEC;

DATA;
#1=APPLICATION_PROTOCOL_DEFINITION('committee draft','automotive_design',1997,#2);
#2=APPLICATION_CONTEXT('core data for automotive mechanical design processes');
#3=SHAPE_DEFINITION_REPRESENTATION(#4,#10);
#4=PRODUCT_DEFINITION_SHAPE('','',#5);
#5=PRODUCT_DEFINITION('design','',#6,#9);
#6=PRODUCT_DEFINITION_FORMATION('','',#7);
#7=PRODUCT('R_Axial_DIN0204_L36mm_D16mm_P762mm_Horizontal','R_Axial_DIN0204_L36mm_D16mm_P762mm_Horizontal','',(#8));
#8=MECHANICAL_CONTEXT('',#2,'mechanical');
#9=PRODUCT_DEFINITION_CONTEXT('part definition',#2,'design');
#10=ADVANCED_BREP_SHAPE_REPRESENTATION('',(#11,#15),#279);
#11=AXIS2_PLACEMENT_3D('',#12,#13,#14);
#12=CARTESIAN_POINT('',(0.E+000,0.E+000,0.E+000));
#13=DIRECTION('',(0.E+000,0.E+000,1.));
#14=DIRECTION('',(1.,0.E+000,-0.E+000));
#15=MANIFOLD_SOLID_BREP('',#16);
#16=CLOSED_SHELL('',(#17,#45,#63,#78,#91,#108,#125,#138,#156,#171,#188,#205,#210,#224,#237,#255,#273));
#17=ADVANCED_FACE('',(#18),#41,.T.);
#18=FACE_BOUND('',#19,.F.);
#19=EDGE_LOOP('',(#20,#29,#35,#36));
#20=ORIENTED_EDGE('',*,*,#21,.T.);
#21=EDGE_CURVE('',#22,#24,#26,.T.);
#22=VERTEX_POINT('',#23);
#23=CARTESIAN_POINT('',(2.41,0.8,0.8));
#24=VERTEX_POINT('',#25);
#25=CARTESIAN_POINT('',(2.91,0.8,0.8));
#26=LINE('',#27,#28);
#27=CARTESIAN_POINT('',(2.01,0.8,0.8));
#28=VECTOR('',#14,1.);
#29=ORIENTED_EDGE('',*,*,#30,.T.);
#30=EDGE_CURVE('',#24,#24,#31,.T.);
#31=CIRCLE('',#32,0.8);
#32=AXIS2_PLACEMENT_3D('',#33,#14,#34);
#33=CARTESIAN_POINT('',(2.91,0.E+000,0.8));
#34=DIRECTION('',(0.E+000,1.,0.E+000));
#35=ORIENTED_EDGE('',*,*,#21,.F.);
#36=ORIENTED_EDGE('',*,*,#37,.F.);
#37=EDGE_CURVE('',#22,#22,#38,.T.);
#38=CIRCLE('',#39,0.8);
#39=AXIS2_PLACEMENT_3D('',#40,#14,#34);
#40=CARTESIAN_POINT('',(2.41,0.E+000,0.8));
#41=CYLINDRICAL_SURFACE('',#42,0.8);
#42=AXIS2_PLACEMENT_3D('',#43,#44,#34);
#43=CARTESIAN_POINT('',(2.01,0.E+000,0.8));
#44=DIRECTION('',(-1.,-0.E+000,-0.E+000));
#45=ADVANCED_FACE('',(#46),#61,.T.);
#46=FACE_BOUND('',#47,.F.);
#47=EDGE_LOOP('',(#48,#55,#56,#57));
#48=ORIENTED_EDGE('',*,*,#49,.F.);
#49=EDGE_CURVE('',#22,#50,#52,.T.);
#50=VERTEX_POINT('',#51);
#51=CARTESIAN_POINT('',(2.01,0.4,0.8));
#52=CIRCLE('',#53,0.4);
#53=AXIS2_PLACEMENT_3D('',#54,#13,#34);
#54=CARTESIAN_POINT('',(2.41,0.4,0.8));
#55=ORIENTED_EDGE('',*,*,#37,.T.);
#56=ORIENTED_EDGE('',*,*,#49,.T.);
#57=ORIENTED_EDGE('',*,*,#58,.F.);
#58=EDGE_CURVE('',#50,#50,#59,.T.);
#59=CIRCLE('',#60,0.4);
#60=AXIS2_PLACEMENT_3D('',#43,#14,#34);
#61=TOROIDAL_SURFACE('',#62,0.4,0.4);
#62=AXIS2_PLACEMENT_3D('',#40,#44,#34);
#63=ADVANCED_FACE('',(#64,#67),#75,.F.);
#64=FACE_BOUND('',#65,.F.);
#65=EDGE_LOOP('',(#66));
#66=ORIENTED_EDGE('',*,*,#30,.F.);
#67=FACE_BOUND('',#68,.F.);
#68=EDGE_LOOP('',(#69));
#69=ORIENTED_EDGE('',*,*,#70,.F.);
#70=EDGE_CURVE('',#71,#71,#73,.T.);
#71=VERTEX_POINT('',#72);
#72=CARTESIAN_POINT('',(2.91,0.72,0.8));
#73=CIRCLE('',#74,0.72);
#74=AXIS2_PLACEMENT_3D('',#33,#44,#34);
#75=PLANE('',#76);
#76=AXIS2_PLACEMENT_3D('',#25,#44,#77);
#77=DIRECTION('',(0.E+000,0.E+000,-1.));
#78=ADVANCED_FACE('',(#79,#81),#89,.T.);
#79=FACE_BOUND('',#80,.T.);
#80=EDGE_LOOP('',(#57));
#81=FACE_BOUND('',#82,.T.);
#82=EDGE_LOOP('',(#83));
#83=ORIENTED_EDGE('',*,*,#84,.T.);
#84=EDGE_CURVE('',#85,#85,#87,.T.);
#85=VERTEX_POINT('',#86);
#86=CARTESIAN_POINT('',(2.01,0.E+000,0.55));
#87=CIRCLE('',#88,0.25);
#88=AXIS2_PLACEMENT_3D('',#43,#14,#77);
#89=PLANE('',#90);
#90=AXIS2_PLACEMENT_3D('',#27,#44,#77);
#91=ADVANCED_FACE('',(#92),#107,.T.);
#92=FACE_BOUND('',#93,.F.);
#93=EDGE_LOOP('',(#94,#100,#101,#102));
#94=ORIENTED_EDGE('',*,*,#95,.F.);
#95=EDGE_CURVE('',#71,#96,#98,.T.);
#96=VERTEX_POINT('',#97);
#97=CARTESIAN_POINT('',(4.71,0.72,0.8));
#98=LINE('',#99,#28);
#99=CARTESIAN_POINT('',(2.01,0.72,0.8));
#100=ORIENTED_EDGE('',*,*,#70,.T.);
#101=ORIENTED_EDGE('',*,*,#95,.T.);
#102=ORIENTED_EDGE('',*,*,#103,.F.);
#103=EDGE_CURVE('',#96,#96,#104,.T.);
#104=CIRCLE('',#105,0.72);
#105=AXIS2_PLACEMENT_3D('',#106,#44,#34);
#106=CARTESIAN_POINT('',(4.71,0.E+000,0.8));
#107=CYLINDRICAL_SURFACE('',#42,0.72);
#108=ADVANCED_FACE('',(#109),#123,.T.);
#109=FACE_BOUND('',#110,.T.);
#110=EDGE_LOOP('',(#111,#118,#121,#122));
#111=ORIENTED_EDGE('',*,*,#112,.F.);
#112=EDGE_CURVE('',#113,#113,#115,.T.);
#113=VERTEX_POINT('',#114);
#114=CARTESIAN_POINT('',(0.75,0.E+000,0.55));
#115=CIRCLE('',#116,0.25);
#116=AXIS2_PLACEMENT_3D('',#117,#44,#13);
#117=CARTESIAN_POINT('',(0.75,0.E+000,0.8));
#118=ORIENTED_EDGE('',*,*,#119,.T.);
#119=EDGE_CURVE('',#113,#85,#120,.T.);
#120=LINE('',#114,#28);
#121=ORIENTED_EDGE('',*,*,#84,.F.);
#122=ORIENTED_EDGE('',*,*,#119,.F.);
#123=CYLINDRICAL_SURFACE('',#124,0.25);
#124=AXIS2_PLACEMENT_3D('',#117,#14,#77);
#125=ADVANCED_FACE('',(#126,#134),#136,.T.);
#126=FACE_BOUND('',#127,.T.);
#127=EDGE_LOOP('',(#128));
#128=ORIENTED_EDGE('',*,*,#129,.F.);
#129=EDGE_CURVE('',#130,#130,#132,.T.);
#130=VERTEX_POINT('',#131);
#131=CARTESIAN_POINT('',(4.71,0.8,0.8));
#132=CIRCLE('',#133,0.8);
#133=AXIS2_PLACEMENT_3D('',#106,#14,#34);
#134=FACE_BOUND('',#135,.T.);
#135=EDGE_LOOP('',(#102));
#136=PLANE('',#137);
#137=AXIS2_PLACEMENT_3D('',#131,#44,#77);
#138=ADVANCED_FACE('',(#139),#155,.T.);
#139=FACE_BOUND('',#140,.T.);
#140=EDGE_LOOP('',(#141,#148,#149,#150));
#141=ORIENTED_EDGE('',*,*,#142,.T.);
#142=EDGE_CURVE('',#143,#113,#145,.T.);
#143=VERTEX_POINT('',#144);
#144=CARTESIAN_POINT('',(0.25,0.E+000,5.E-002));
#145=CIRCLE('',#146,0.5);
#146=AXIS2_PLACEMENT_3D('',#147,#34,#44);
#147=CARTESIAN_POINT('',(0.75,9.184850993605E-017,5.E-002));
#148=ORIENTED_EDGE('',*,*,#112,.T.);
#149=ORIENTED_EDGE('',*,*,#142,.F.);
#150=ORIENTED_EDGE('',*,*,#151,.T.);
#151=EDGE_CURVE('',#143,#143,#152,.T.);
#152=CIRCLE('',#153,0.25);
#153=AXIS2_PLACEMENT_3D('',#154,#13,#14);
#154=CARTESIAN_POINT('',(0.E+000,0.E+000,5.E-002));
#155=TOROIDAL_SURFACE('',#146,0.75,0.25);
#156=ADVANCED_FACE('',(#157),#170,.T.);
#157=FACE_BOUND('',#158,.F.);
#158=EDGE_LOOP('',(#159,#164,#169,#128));
#159=ORIENTED_EDGE('',*,*,#160,.T.);
#160=EDGE_CURVE('',#130,#161,#163,.T.);
#161=VERTEX_POINT('',#162);
#162=CARTESIAN_POINT('',(5.21,0.8,0.8));
#163=LINE('',#131,#28);
#164=ORIENTED_EDGE('',*,*,#165,.T.);
#165=EDGE_CURVE('',#161,#161,#166,.T.);
#166=CIRCLE('',#167,0.8);
#167=AXIS2_PLACEMENT_3D('',#168,#14,#34);
#168=CARTESIAN_POINT('',(5.21,0.E+000,0.8));
#169=ORIENTED_EDGE('',*,*,#160,.F.);
#170=CYLINDRICAL_SURFACE('',#105,0.8);
#171=ADVANCED_FACE('',(#172),#187,.T.);
#172=FACE_BOUND('',#173,.T.);
#173=EDGE_LOOP('',(#174,#180,#181,#182));
#174=ORIENTED_EDGE('',*,*,#175,.T.);
#175=EDGE_CURVE('',#176,#143,#178,.T.);
#176=VERTEX_POINT('',#177);
#177=CARTESIAN_POINT('',(0.25,-6.123233995737E-017,-3.));
#178=LINE('',#177,#179);
#179=VECTOR('',#13,1.);
#180=ORIENTED_EDGE('',*,*,#151,.F.);
#181=ORIENTED_EDGE('',*,*,#175,.F.);
#182=ORIENTED_EDGE('',*,*,#183,.T.);
#183=EDGE_CURVE('',#176,#176,#184,.T.);
#184=CIRCLE('',#185,0.25);
#185=AXIS2_PLACEMENT_3D('',#186,#13,#14);
#186=CARTESIAN_POINT('',(0.E+000,0.E+000,-3.));
#187=CYLINDRICAL_SURFACE('',#185,0.25);
#188=ADVANCED_FACE('',(#189),#204,.T.);
#189=FACE_BOUND('',#190,.T.);
#190=EDGE_LOOP('',(#191,#164,#198,#199));
#191=ORIENTED_EDGE('',*,*,#192,.F.);
#192=EDGE_CURVE('',#161,#193,#195,.T.);
#193=VERTEX_POINT('',#194);
#194=CARTESIAN_POINT('',(5.61,0.4,0.8));
#195=CIRCLE('',#196,0.4);
#196=AXIS2_PLACEMENT_3D('',#197,#77,#34);
#197=CARTESIAN_POINT('',(5.21,0.4,0.8));
#198=ORIENTED_EDGE('',*,*,#192,.T.);
#199=ORIENTED_EDGE('',*,*,#200,.F.);
#200=EDGE_CURVE('',#193,#193,#201,.T.);
#201=CIRCLE('',#202,0.4);
#202=AXIS2_PLACEMENT_3D('',#203,#14,#34);
#203=CARTESIAN_POINT('',(5.61,0.E+000,0.8));
#204=TOROIDAL_SURFACE('',#167,0.4,0.4);
#205=ADVANCED_FACE('',(#206),#208,.T.);
#206=FACE_BOUND('',#207,.F.);
#207=EDGE_LOOP('',(#182));
#208=PLANE('',#209);
#209=AXIS2_PLACEMENT_3D('',#177,#77,#44);
#210=ADVANCED_FACE('',(#211,#213),#221,.F.);
#211=FACE_BOUND('',#212,.F.);
#212=EDGE_LOOP('',(#199));
#213=FACE_BOUND('',#214,.F.);
#214=EDGE_LOOP('',(#215));
#215=ORIENTED_EDGE('',*,*,#216,.T.);
#216=EDGE_CURVE('',#217,#217,#219,.T.);
#217=VERTEX_POINT('',#218);
#218=CARTESIAN_POINT('',(5.61,0.E+000,0.55));
#219=CIRCLE('',#220,0.25);
#220=AXIS2_PLACEMENT_3D('',#203,#14,#77);
#221=PLANE('',#222);
#222=AXIS2_PLACEMENT_3D('',#223,#44,#77);
#223=CARTESIAN_POINT('',(5.61,0.8,0.8));
#224=ADVANCED_FACE('',(#225),#123,.T.);
#225=FACE_BOUND('',#226,.T.);
#226=EDGE_LOOP('',(#215,#227,#231,#236));
#227=ORIENTED_EDGE('',*,*,#228,.T.);
#228=EDGE_CURVE('',#217,#229,#120,.T.);
#229=VERTEX_POINT('',#230);
#230=CARTESIAN_POINT('',(6.87,0.E+000,0.55));
#231=ORIENTED_EDGE('',*,*,#232,.F.);
#232=EDGE_CURVE('',#229,#229,#233,.T.);
#233=CIRCLE('',#234,0.25);
#234=AXIS2_PLACEMENT_3D('',#235,#14,#77);
#235=CARTESIAN_POINT('',(6.87,0.E+000,0.8));
#236=ORIENTED_EDGE('',*,*,#228,.F.);
#237=ADVANCED_FACE('',(#238),#254,.T.);
#238=FACE_BOUND('',#239,.T.);
#239=EDGE_LOOP('',(#240,#247,#252,#253));
#240=ORIENTED_EDGE('',*,*,#241,.T.);
#241=EDGE_CURVE('',#229,#242,#244,.T.);
#242=VERTEX_POINT('',#243);
#243=CARTESIAN_POINT('',(7.37,0.E+000,5.E-002));
#244=CIRCLE('',#245,0.5);
#245=AXIS2_PLACEMENT_3D('',#246,#34,#13);
#246=CARTESIAN_POINT('',(6.87,9.184850993605E-017,5.E-002));
#247=ORIENTED_EDGE('',*,*,#248,.T.);
#248=EDGE_CURVE('',#242,#242,#249,.T.);
#249=CIRCLE('',#250,0.25);
#250=AXIS2_PLACEMENT_3D('',#251,#13,#14);
#251=CARTESIAN_POINT('',(7.62,0.E+000,5.E-002));
#252=ORIENTED_EDGE('',*,*,#241,.F.);
#253=ORIENTED_EDGE('',*,*,#232,.T.);
#254=TOROIDAL_SURFACE('',#245,0.75,0.25);
#255=ADVANCED_FACE('',(#256),#271,.T.);
#256=FACE_BOUND('',#257,.T.);
#257=EDGE_LOOP('',(#258,#264,#269,#270));
#258=ORIENTED_EDGE('',*,*,#259,.T.);
#259=EDGE_CURVE('',#242,#260,#262,.T.);
#260=VERTEX_POINT('',#261);
#261=CARTESIAN_POINT('',(7.37,-6.123233995737E-017,-3.));
#262=LINE('',#243,#263);
#263=VECTOR('',#77,1.);
#264=ORIENTED_EDGE('',*,*,#265,.F.);
#265=EDGE_CURVE('',#260,#260,#266,.T.);
#266=CIRCLE('',#267,0.25);
#267=AXIS2_PLACEMENT_3D('',#268,#77,#44);
#268=CARTESIAN_POINT('',(7.62,0.E+000,-3.));
#269=ORIENTED_EDGE('',*,*,#259,.F.);
#270=ORIENTED_EDGE('',*,*,#248,.F.);
#271=CYLINDRICAL_SURFACE('',#272,0.25);
#272=AXIS2_PLACEMENT_3D('',#251,#77,#44);
#273=ADVANCED_FACE('',(#274),#277,.F.);
#274=FACE_BOUND('',#275,.T.);
#275=EDGE_LOOP('',(#276));
#276=ORIENTED_EDGE('',*,*,#265,.T.);
#277=PLANE('',#278);
#278=AXIS2_PLACEMENT_3D('',#261,#13,#14);
#279=( GEOMETRIC_REPRESENTATION_CONTEXT(3) GLOBAL_UNCERTAINTY_ASSIGNED_CONTEXT((#283)) GLOBAL_UNIT_ASSIGNED_CONTEXT((#280,#281,#282)) REPRESENTATION_CONTEXT('Context #1','3D Context with UNIT and UNCERTAINTY') );
#280=( LENGTH_UNIT() NAMED_UNIT(*) SI_UNIT(.MILLI.,.METRE.) );
#281=( NAMED_UNIT(*) PLANE_ANGLE_UNIT() SI_UNIT($,.RADIAN.) );
#282=( NAMED_UNIT(*) SI_UNIT($,.STERADIAN.) SOLID_ANGLE_UNIT() );
#283=UNCERTAINTY_MEASURE_WITH_UNIT(LENGTH_MEASURE(1.E-007),#280,'distance_accuracy_value','confusion accuracy');
#284=MECHANICAL_DESIGN_GEOMETRIC_PRESENTATION_REPRESENTATION('',(#285,#293,#294,#295,#296,#297,#305,#306,#307,#308,#309,#310,#311,#312,#313,#314,#315),#279);
#285=STYLED_ITEM('color',(#286),#17);
#286=PRESENTATION_STYLE_ASSIGNMENT((#287));
#287=SURFACE_STYLE_USAGE(.BOTH.,#288);
#288=SURFACE_SIDE_STYLE('',(#289));
#289=SURFACE_STYLE_FILL_AREA(#290);
#290=FILL_AREA_STYLE('',(#291));
#291=FILL_AREA_STYLE_COLOUR('',#292);
#292=COLOUR_RGB('',0.883000016212,0.711000025272,0.49200001359);
#293=STYLED_ITEM('color',(#286),#45);
#294=STYLED_ITEM('color',(#286),#63);
#295=STYLED_ITEM('color',(#286),#78);
#296=STYLED_ITEM('color',(#286),#91);
#297=STYLED_ITEM('color',(#298),#108);
#298=PRESENTATION_STYLE_ASSIGNMENT((#299));
#299=SURFACE_STYLE_USAGE(.BOTH.,#300);
#300=SURFACE_SIDE_STYLE('',(#301));
#301=SURFACE_STYLE_FILL_AREA(#302);
#302=FILL_AREA_STYLE('',(#303));
#303=FILL_AREA_STYLE_COLOUR('',#304);
#304=COLOUR_RGB('',0.824000000954,0.819999992847,0.78100001812);
#305=STYLED_ITEM('color',(#286),#125);
#306=STYLED_ITEM('color',(#298),#138);
#307=STYLED_ITEM('color',(#286),#156);
#308=STYLED_ITEM('color',(#298),#171);
#309=STYLED_ITEM('color',(#286),#188);
#310=STYLED_ITEM('color',(#298),#205);
#311=STYLED_ITEM('color',(#286),#210);
#312=STYLED_ITEM('color',(#298),#224);
#313=STYLED_ITEM('color',(#298),#237);
#314=STYLED_ITEM('color',(#298),#255);
#315=STYLED_ITEM('color',(#298),#273);
ENDSEC;
END-ISO-10303-21;
