ISO-10303-21;
HEADER;
/* SOT-23-6.step 3D STEP model for use in ECAD systems
 * Copyright (C) 2025, KiCAD
 *
 * This work is licensed under the
 * [Creative Commons CC-BY-SA 4.0 License](https://creativecommons.org/licenses/by-sa/4.0/legalcode),
 * with the following exception:
 *
 * To the extent that the creation of electronic designs that use 'Licensed Material' can be
 * considered to be 'Adapted Material', then the copyright holder waives article 3 of the license
 * with respect to these designs and any generated files which use data provided as part of the
 * 'Licensed Material'.
 *
 * You are free to use the library data in your own projects without the obligation to share your
 * project files under this or any other license agreement. However, if you wish to distribute
 * these libraries, or parts thereof (including in modified form) as a collection then the exception
 * above does not apply. Please refer to
 * https://gitlab.com/kicad/libraries/kicad-packages3D/-/blob/master/LICENSE.md for further clarification
 * of the exception.
 *
 * Disclaimer of Warranties and Limitation of Liability.
 * These libraries are provided in the hope that they will be useful, but are provided without warranty of any kind, express or implied.
 * USE 3D CAD DATA AT YOUR OWN RISK
 * DO NOT RELY UPON ANY INFORMATION FOUND HERE WITHOUT INDEPENDENT VERIFICATION.
 */

FILE_DESCRIPTION(
/* description */ ('model of SOT-23-6'),
/* implementation_level */ '2;1');

FILE_NAME(
/* name */ 'SOT-23-6.step',
/* time_stamp */ '1970-01-01T00:00:00',
/* author */ ('KiCAD','kicad'),
/* organization */ ('OCCT'),
/* preprocessor_version */ '',
/* originating_system */ 'KiCAD',
/* authorisation */ '');

FILE_SCHEMA(('AUTOMOTIVE_DESIGN { 1 0 10303 214 1 1 1 1 }'));
ENDSEC;

DATA;
#1=APPLICATION_PROTOCOL_DEFINITION('international standard','automotive_design',2000,#2);
#2=APPLICATION_CONTEXT('core data for automotive mechanical design processes');
#3=SHAPE_DEFINITION_REPRESENTATION(#4,#10);
#4=PRODUCT_DEFINITION_SHAPE('','',#5);
#5=PRODUCT_DEFINITION('design','',#6,#9);
#6=PRODUCT_DEFINITION_FORMATION('','',#7);
#7=PRODUCT('SOT-23-6','SOT-23-6','',(#8));
#8=PRODUCT_CONTEXT('',#2,'mechanical');
#9=PRODUCT_DEFINITION_CONTEXT('part definition',#2,'design');
#10=ADVANCED_BREP_SHAPE_REPRESENTATION('',(#11,#15),#2207);
#11=AXIS2_PLACEMENT_3D('',#12,#13,#14);
#12=CARTESIAN_POINT('',(0.,0.,0.));
#13=DIRECTION('',(0.,0.,1.));
#14=DIRECTION('',(1.,0.,-0.));
#15=MANIFOLD_SOLID_BREP('',#16);
#16=CLOSED_SHELL('',(#17,#42,#95,#108,#127,#140,#177,#214,#227,#240,#249,#264,#325,#336,#355,#376,#394,#415,#433,#454,#464,#476,#497,#515,#536,#554,#575,#592,#607,#622,#633,#656,#694,#708,#722,#736,#774,#794,#825,#891,#907,#960,#971,#1031,#1047,#1100,#1108,#1166,#1182,#1230,#1294,#1310,#1358,#1368,#1428,#1444,#1497,#1508,#1568,#1584,#1635,#1645,#1657,#1669,#1697,#1706,#1718,#1730,#1739,#1749,#1756,#1766,#1777,#1786,#1796,#1806,#1816,#1826,#1835,#1845,#1855,#1864,#1874,#1884,#1894,#1904,#1912,#1922,#1931,#1941,#1951,#1961,#1971,#1979,#1990,#1999,#2009,#2019,#2029,#2039,#2048,#2058,#2068,#2077,#2087,#2097,#2107,#2117,#2125,#2135,#2145,#2154,#2164,#2174,#2184,#2194,#2202));
#17=ADVANCED_FACE('',(#18),#41,.F.);
#18=FACE_BOUND('',#19,.F.);
#19=EDGE_LOOP('',(#20,#28,#33,#38));
#20=ORIENTED_EDGE('',*,*,#21,.T.);
#21=EDGE_CURVE('',#22,#24,#26,.T.);
#22=VERTEX_POINT('',#23);
#23=CARTESIAN_POINT('',(-0.659324228722,1.358648457443,0.1));
#24=VERTEX_POINT('',#25);
#25=CARTESIAN_POINT('',(0.659324228722,1.358648457443,0.1));
#26=LINE('',#23,#27);
#27=VECTOR('',#14,1.);
#28=ORIENTED_EDGE('',*,*,#29,.T.);
#29=EDGE_CURVE('',#24,#30,#32,.T.);
#30=VERTEX_POINT('',#31);
#31=CARTESIAN_POINT('',(0.705,1.45,0.75));
#32=B_SPLINE_CURVE_WITH_KNOTS('',1,(#25,#31),.UNSPECIFIED.,.F.,.F.,(2,2),(0.,1.),.PIECEWISE_BEZIER_KNOTS.);
#33=ORIENTED_EDGE('',*,*,#34,.F.);
#34=EDGE_CURVE('',#35,#30,#37,.T.);
#35=VERTEX_POINT('',#36);
#36=CARTESIAN_POINT('',(-0.705,1.45,0.75));
#37=LINE('',#36,#27);
#38=ORIENTED_EDGE('',*,*,#39,.F.);
#39=EDGE_CURVE('',#22,#35,#40,.T.);
#40=B_SPLINE_CURVE_WITH_KNOTS('',1,(#23,#36),.UNSPECIFIED.,.F.,.F.,(2,2),(0.,1.),.PIECEWISE_BEZIER_KNOTS.);
#41=B_SPLINE_SURFACE_WITH_KNOTS('',1,1,((#23,#36),(#25,#31)),.UNSPECIFIED.,.F.,.F.,.F.,(2,2),(2,2),(0.,1.41),(0.,1.),.PIECEWISE_BEZIER_KNOTS.);
#42=ADVANCED_FACE('',(#43),#92,.F.);
#43=FACE_BOUND('',#44,.T.);
#44=EDGE_LOOP('',(#20,#45,#52,#59,#66,#73,#80,#87));
#45=ORIENTED_EDGE('',*,*,#46,.T.);
#46=EDGE_CURVE('',#24,#47,#49,.T.);
#47=VERTEX_POINT('',#48);
#48=CARTESIAN_POINT('',(0.708648457443,1.309324228722,0.1));
#49=LINE('',#25,#50);
#50=VECTOR('',#51,1.);
#51=DIRECTION('',(0.707106781187,-0.707106781187,0.));
#52=ORIENTED_EDGE('',*,*,#53,.T.);
#53=EDGE_CURVE('',#47,#54,#56,.T.);
#54=VERTEX_POINT('',#55);
#55=CARTESIAN_POINT('',(0.708648457443,-1.309324228722,0.1));
#56=LINE('',#48,#57);
#57=VECTOR('',#58,1.);
#58=DIRECTION('',(1.110223024625E-16,-1.,0.));
#59=ORIENTED_EDGE('',*,*,#60,.T.);
#60=EDGE_CURVE('',#54,#61,#63,.T.);
#61=VERTEX_POINT('',#62);
#62=CARTESIAN_POINT('',(0.659324228722,-1.358648457443,0.1));
#63=LINE('',#55,#64);
#64=VECTOR('',#65,1.);
#65=DIRECTION('',(-0.707106781187,-0.707106781187,0.));
#66=ORIENTED_EDGE('',*,*,#67,.T.);
#67=EDGE_CURVE('',#61,#68,#70,.T.);
#68=VERTEX_POINT('',#69);
#69=CARTESIAN_POINT('',(-0.659324228722,-1.358648457443,0.1));
#70=LINE('',#62,#71);
#71=VECTOR('',#72,1.);
#72=DIRECTION('',(-1.,-1.110223024625E-16,0.));
#73=ORIENTED_EDGE('',*,*,#74,.T.);
#74=EDGE_CURVE('',#68,#75,#77,.T.);
#75=VERTEX_POINT('',#76);
#76=CARTESIAN_POINT('',(-0.708648457443,-1.309324228722,0.1));
#77=LINE('',#69,#78);
#78=VECTOR('',#79,1.);
#79=DIRECTION('',(-0.707106781187,0.707106781187,0.));
#80=ORIENTED_EDGE('',*,*,#81,.T.);
#81=EDGE_CURVE('',#75,#82,#84,.T.);
#82=VERTEX_POINT('',#83);
#83=CARTESIAN_POINT('',(-0.708648457443,1.309324228722,0.1));
#84=LINE('',#76,#85);
#85=VECTOR('',#86,1.);
#86=DIRECTION('',(-1.110223024625E-16,1.,0.));
#87=ORIENTED_EDGE('',*,*,#88,.T.);
#88=EDGE_CURVE('',#82,#22,#89,.T.);
#89=LINE('',#83,#90);
#90=VECTOR('',#91,1.);
#91=DIRECTION('',(0.707106781187,0.707106781187,0.));
#92=PLANE('',#93);
#93=AXIS2_PLACEMENT_3D('',#23,#13,#94);
#94=DIRECTION('',(0.436587433964,-0.899661832304,0.));
#95=ADVANCED_FACE('',(#96),#107,.F.);
#96=FACE_BOUND('',#97,.F.);
#97=EDGE_LOOP('',(#45,#98,#103,#106));
#98=ORIENTED_EDGE('',*,*,#99,.T.);
#99=EDGE_CURVE('',#47,#100,#102,.T.);
#100=VERTEX_POINT('',#101);
#101=CARTESIAN_POINT('',(0.8,1.355,0.75));
#102=B_SPLINE_CURVE_WITH_KNOTS('',1,(#48,#101),.UNSPECIFIED.,.F.,.F.,(2,2),(0.,1.),.PIECEWISE_BEZIER_KNOTS.);
#103=ORIENTED_EDGE('',*,*,#104,.F.);
#104=EDGE_CURVE('',#30,#100,#105,.T.);
#105=LINE('',#31,#50);
#106=ORIENTED_EDGE('',*,*,#29,.F.);
#107=B_SPLINE_SURFACE_WITH_KNOTS('',1,1,((#25,#31),(#48,#101)),.UNSPECIFIED.,.F.,.F.,.F.,(2,2),(2,2),(0.,0.134350288425),(0.,1.),.PIECEWISE_BEZIER_KNOTS.);
#108=ADVANCED_FACE('',(#109),#125,.F.);
#109=FACE_BOUND('',#110,.F.);
#110=EDGE_LOOP('',(#111,#112,#117,#122));
#111=ORIENTED_EDGE('',*,*,#34,.T.);
#112=ORIENTED_EDGE('',*,*,#113,.T.);
#113=EDGE_CURVE('',#30,#114,#116,.T.);
#114=VERTEX_POINT('',#115);
#115=CARTESIAN_POINT('',(0.705,1.45,0.9));
#116=B_SPLINE_CURVE_WITH_KNOTS('',1,(#31,#115),.UNSPECIFIED.,.F.,.F.,(2,2),(0.,1.),.PIECEWISE_BEZIER_KNOTS.);
#117=ORIENTED_EDGE('',*,*,#118,.F.);
#118=EDGE_CURVE('',#119,#114,#121,.T.);
#119=VERTEX_POINT('',#120);
#120=CARTESIAN_POINT('',(-0.705,1.45,0.9));
#121=LINE('',#120,#27);
#122=ORIENTED_EDGE('',*,*,#123,.F.);
#123=EDGE_CURVE('',#35,#119,#124,.T.);
#124=B_SPLINE_CURVE_WITH_KNOTS('',1,(#36,#120),.UNSPECIFIED.,.F.,.F.,(2,2),(0.,1.),.PIECEWISE_BEZIER_KNOTS.);
#125=PLANE('',#126);
#126=AXIS2_PLACEMENT_3D('',#120,#58,#14);
#127=ADVANCED_FACE('',(#128),#139,.F.);
#128=FACE_BOUND('',#129,.F.);
#129=EDGE_LOOP('',(#87,#130,#131,#136));
#130=ORIENTED_EDGE('',*,*,#39,.T.);
#131=ORIENTED_EDGE('',*,*,#132,.F.);
#132=EDGE_CURVE('',#133,#35,#135,.T.);
#133=VERTEX_POINT('',#134);
#134=CARTESIAN_POINT('',(-0.8,1.355,0.75));
#135=LINE('',#134,#90);
#136=ORIENTED_EDGE('',*,*,#137,.F.);
#137=EDGE_CURVE('',#82,#133,#138,.T.);
#138=B_SPLINE_CURVE_WITH_KNOTS('',1,(#83,#134),.UNSPECIFIED.,.F.,.F.,(2,2),(0.,1.),.PIECEWISE_BEZIER_KNOTS.);
#139=B_SPLINE_SURFACE_WITH_KNOTS('',1,1,((#83,#134),(#23,#36)),.UNSPECIFIED.,.F.,.F.,.F.,(2,2),(2,2),(0.,0.134350288425),(0.,1.),.PIECEWISE_BEZIER_KNOTS.);
#140=ADVANCED_FACE('',(#141),#176,.F.);
#141=FACE_BOUND('',#142,.F.);
#142=EDGE_LOOP('',(#80,#143,#144,#150,#154,#158,#162,#166,#170,#173));
#143=ORIENTED_EDGE('',*,*,#137,.T.);
#144=ORIENTED_EDGE('',*,*,#145,.F.);
#145=EDGE_CURVE('',#146,#133,#148,.T.);
#146=VERTEX_POINT('',#147);
#147=CARTESIAN_POINT('',(-0.8,1.2,0.75));
#148=LINE('',#149,#85);
#149=CARTESIAN_POINT('',(-0.8,-1.355,0.75));
#150=ORIENTED_EDGE('',*,*,#151,.F.);
#151=EDGE_CURVE('',#152,#146,#148,.T.);
#152=VERTEX_POINT('',#153);
#153=CARTESIAN_POINT('',(-0.8,0.7,0.75));
#154=ORIENTED_EDGE('',*,*,#155,.F.);
#155=EDGE_CURVE('',#156,#152,#148,.T.);
#156=VERTEX_POINT('',#157);
#157=CARTESIAN_POINT('',(-0.8,0.25,0.75));
#158=ORIENTED_EDGE('',*,*,#159,.F.);
#159=EDGE_CURVE('',#160,#156,#148,.T.);
#160=VERTEX_POINT('',#161);
#161=CARTESIAN_POINT('',(-0.8,-0.25,0.75));
#162=ORIENTED_EDGE('',*,*,#163,.F.);
#163=EDGE_CURVE('',#164,#160,#148,.T.);
#164=VERTEX_POINT('',#165);
#165=CARTESIAN_POINT('',(-0.8,-0.7,0.75));
#166=ORIENTED_EDGE('',*,*,#167,.F.);
#167=EDGE_CURVE('',#168,#164,#148,.T.);
#168=VERTEX_POINT('',#169);
#169=CARTESIAN_POINT('',(-0.8,-1.2,0.75));
#170=ORIENTED_EDGE('',*,*,#171,.F.);
#171=EDGE_CURVE('',#172,#168,#148,.T.);
#172=VERTEX_POINT('',#149);
#173=ORIENTED_EDGE('',*,*,#174,.F.);
#174=EDGE_CURVE('',#75,#172,#175,.T.);
#175=B_SPLINE_CURVE_WITH_KNOTS('',1,(#76,#149),.UNSPECIFIED.,.F.,.F.,(2,2),(0.,1.),.PIECEWISE_BEZIER_KNOTS.);
#176=B_SPLINE_SURFACE_WITH_KNOTS('',1,1,((#76,#149),(#83,#134)),.UNSPECIFIED.,.F.,.F.,.F.,(2,2),(2,2),(0.,2.71),(0.,1.),.PIECEWISE_BEZIER_KNOTS.);
#177=ADVANCED_FACE('',(#178),#213,.F.);
#178=FACE_BOUND('',#179,.F.);
#179=EDGE_LOOP('',(#52,#180,#185,#190,#194,#198,#202,#206,#210,#212));
#180=ORIENTED_EDGE('',*,*,#181,.T.);
#181=EDGE_CURVE('',#54,#182,#184,.T.);
#182=VERTEX_POINT('',#183);
#183=CARTESIAN_POINT('',(0.8,-1.355,0.75));
#184=B_SPLINE_CURVE_WITH_KNOTS('',1,(#55,#183),.UNSPECIFIED.,.F.,.F.,(2,2),(0.,1.),.PIECEWISE_BEZIER_KNOTS.);
#185=ORIENTED_EDGE('',*,*,#186,.F.);
#186=EDGE_CURVE('',#187,#182,#189,.T.);
#187=VERTEX_POINT('',#188);
#188=CARTESIAN_POINT('',(0.8,-1.2,0.75));
#189=LINE('',#101,#57);
#190=ORIENTED_EDGE('',*,*,#191,.F.);
#191=EDGE_CURVE('',#192,#187,#189,.T.);
#192=VERTEX_POINT('',#193);
#193=CARTESIAN_POINT('',(0.8,-0.7,0.75));
#194=ORIENTED_EDGE('',*,*,#195,.F.);
#195=EDGE_CURVE('',#196,#192,#189,.T.);
#196=VERTEX_POINT('',#197);
#197=CARTESIAN_POINT('',(0.8,-0.25,0.75));
#198=ORIENTED_EDGE('',*,*,#199,.F.);
#199=EDGE_CURVE('',#200,#196,#189,.T.);
#200=VERTEX_POINT('',#201);
#201=CARTESIAN_POINT('',(0.8,0.25,0.75));
#202=ORIENTED_EDGE('',*,*,#203,.F.);
#203=EDGE_CURVE('',#204,#200,#189,.T.);
#204=VERTEX_POINT('',#205);
#205=CARTESIAN_POINT('',(0.8,0.7,0.75));
#206=ORIENTED_EDGE('',*,*,#207,.F.);
#207=EDGE_CURVE('',#208,#204,#189,.T.);
#208=VERTEX_POINT('',#209);
#209=CARTESIAN_POINT('',(0.8,1.2,0.75));
#210=ORIENTED_EDGE('',*,*,#211,.F.);
#211=EDGE_CURVE('',#100,#208,#189,.T.);
#212=ORIENTED_EDGE('',*,*,#99,.F.);
#213=B_SPLINE_SURFACE_WITH_KNOTS('',1,1,((#48,#101),(#55,#183)),.UNSPECIFIED.,.F.,.F.,.F.,(2,2),(2,2),(0.,2.71),(0.,1.),.PIECEWISE_BEZIER_KNOTS.);
#214=ADVANCED_FACE('',(#215),#226,.F.);
#215=FACE_BOUND('',#216,.F.);
#216=EDGE_LOOP('',(#73,#217,#218,#223));
#217=ORIENTED_EDGE('',*,*,#174,.T.);
#218=ORIENTED_EDGE('',*,*,#219,.F.);
#219=EDGE_CURVE('',#220,#172,#222,.T.);
#220=VERTEX_POINT('',#221);
#221=CARTESIAN_POINT('',(-0.705,-1.45,0.75));
#222=LINE('',#221,#78);
#223=ORIENTED_EDGE('',*,*,#224,.F.);
#224=EDGE_CURVE('',#68,#220,#225,.T.);
#225=B_SPLINE_CURVE_WITH_KNOTS('',1,(#69,#221),.UNSPECIFIED.,.F.,.F.,(2,2),(0.,1.),.PIECEWISE_BEZIER_KNOTS.);
#226=B_SPLINE_SURFACE_WITH_KNOTS('',1,1,((#69,#221),(#76,#149)),.UNSPECIFIED.,.F.,.F.,.F.,(2,2),(2,2),(0.,0.134350288425),(0.,1.),.PIECEWISE_BEZIER_KNOTS.);
#227=ADVANCED_FACE('',(#228),#239,.F.);
#228=FACE_BOUND('',#229,.F.);
#229=EDGE_LOOP('',(#59,#230,#235,#238));
#230=ORIENTED_EDGE('',*,*,#231,.T.);
#231=EDGE_CURVE('',#61,#232,#234,.T.);
#232=VERTEX_POINT('',#233);
#233=CARTESIAN_POINT('',(0.705,-1.45,0.75));
#234=B_SPLINE_CURVE_WITH_KNOTS('',1,(#62,#233),.UNSPECIFIED.,.F.,.F.,(2,2),(0.,1.),.PIECEWISE_BEZIER_KNOTS.);
#235=ORIENTED_EDGE('',*,*,#236,.F.);
#236=EDGE_CURVE('',#182,#232,#237,.T.);
#237=LINE('',#183,#64);
#238=ORIENTED_EDGE('',*,*,#181,.F.);
#239=B_SPLINE_SURFACE_WITH_KNOTS('',1,1,((#55,#183),(#62,#233)),.UNSPECIFIED.,.F.,.F.,.F.,(2,2),(2,2),(0.,0.134350288425),(0.,1.),.PIECEWISE_BEZIER_KNOTS.);
#240=ADVANCED_FACE('',(#241),#248,.F.);
#241=FACE_BOUND('',#242,.F.);
#242=EDGE_LOOP('',(#66,#243,#244,#247));
#243=ORIENTED_EDGE('',*,*,#224,.T.);
#244=ORIENTED_EDGE('',*,*,#245,.F.);
#245=EDGE_CURVE('',#232,#220,#246,.T.);
#246=LINE('',#233,#71);
#247=ORIENTED_EDGE('',*,*,#231,.F.);
#248=B_SPLINE_SURFACE_WITH_KNOTS('',1,1,((#62,#233),(#69,#221)),.UNSPECIFIED.,.F.,.F.,.F.,(2,2),(2,2),(0.,1.41),(0.,1.),.PIECEWISE_BEZIER_KNOTS.);
#249=ADVANCED_FACE('',(#250),#262,.F.);
#250=FACE_BOUND('',#251,.F.);
#251=EDGE_LOOP('',(#252,#253,#258,#261));
#252=ORIENTED_EDGE('',*,*,#104,.T.);
#253=ORIENTED_EDGE('',*,*,#254,.T.);
#254=EDGE_CURVE('',#100,#255,#257,.T.);
#255=VERTEX_POINT('',#256);
#256=CARTESIAN_POINT('',(0.8,1.355,0.9));
#257=B_SPLINE_CURVE_WITH_KNOTS('',1,(#101,#256),.UNSPECIFIED.,.F.,.F.,(2,2),(0.,1.),.PIECEWISE_BEZIER_KNOTS.);
#258=ORIENTED_EDGE('',*,*,#259,.F.);
#259=EDGE_CURVE('',#114,#255,#260,.T.);
#260=LINE('',#115,#50);
#261=ORIENTED_EDGE('',*,*,#113,.F.);
#262=PLANE('',#263);
#263=AXIS2_PLACEMENT_3D('',#115,#65,#51);
#264=ADVANCED_FACE('',(#265),#321,.F.);
#265=FACE_BOUND('',#266,.F.);
#266=EDGE_LOOP('',(#267,#272,#273,#274,#279,#285,#290,#295,#300,#305,#311,#317));
#267=ORIENTED_EDGE('',*,*,#268,.T.);
#268=EDGE_CURVE('',#269,#119,#271,.T.);
#269=VERTEX_POINT('',#270);
#270=CARTESIAN_POINT('',(-0.8,1.355,0.9));
#271=LINE('',#270,#90);
#272=ORIENTED_EDGE('',*,*,#118,.T.);
#273=ORIENTED_EDGE('',*,*,#259,.T.);
#274=ORIENTED_EDGE('',*,*,#275,.T.);
#275=EDGE_CURVE('',#255,#276,#278,.T.);
#276=VERTEX_POINT('',#277);
#277=CARTESIAN_POINT('',(0.8,1.2,0.9));
#278=LINE('',#256,#57);
#279=ORIENTED_EDGE('',*,*,#280,.T.);
#280=EDGE_CURVE('',#276,#281,#283,.T.);
#281=VERTEX_POINT('',#282);
#282=CARTESIAN_POINT('',(0.775,1.2,0.9));
#283=LINE('',#284,#71);
#284=CARTESIAN_POINT('',(0.85,1.2,0.9));
#285=ORIENTED_EDGE('',*,*,#286,.F.);
#286=EDGE_CURVE('',#287,#281,#289,.T.);
#287=VERTEX_POINT('',#288);
#288=CARTESIAN_POINT('',(0.775,1.3425,0.9));
#289=LINE('',#288,#57);
#290=ORIENTED_EDGE('',*,*,#291,.F.);
#291=EDGE_CURVE('',#292,#287,#294,.T.);
#292=VERTEX_POINT('',#293);
#293=CARTESIAN_POINT('',(0.6925,1.425,0.9));
#294=LINE('',#293,#50);
#295=ORIENTED_EDGE('',*,*,#296,.F.);
#296=EDGE_CURVE('',#297,#292,#299,.T.);
#297=VERTEX_POINT('',#298);
#298=CARTESIAN_POINT('',(-0.6925,1.425,0.9));
#299=LINE('',#298,#27);
#300=ORIENTED_EDGE('',*,*,#301,.F.);
#301=EDGE_CURVE('',#302,#297,#304,.T.);
#302=VERTEX_POINT('',#303);
#303=CARTESIAN_POINT('',(-0.775,1.3425,0.9));
#304=LINE('',#303,#90);
#305=ORIENTED_EDGE('',*,*,#306,.F.);
#306=EDGE_CURVE('',#307,#302,#309,.T.);
#307=VERTEX_POINT('',#308);
#308=CARTESIAN_POINT('',(-0.775,1.2,0.9));
#309=LINE('',#310,#85);
#310=CARTESIAN_POINT('',(-0.775,-1.3425,0.9));
#311=ORIENTED_EDGE('',*,*,#312,.F.);
#312=EDGE_CURVE('',#313,#307,#315,.T.);
#313=VERTEX_POINT('',#314);
#314=CARTESIAN_POINT('',(-0.8,1.2,0.9));
#315=LINE('',#316,#27);
#316=CARTESIAN_POINT('',(-0.85,1.2,0.9));
#317=ORIENTED_EDGE('',*,*,#318,.T.);
#318=EDGE_CURVE('',#313,#269,#319,.T.);
#319=LINE('',#320,#85);
#320=CARTESIAN_POINT('',(-0.8,-1.355,0.9));
#321=PLANE('',#322);
#322=AXIS2_PLACEMENT_3D('',#323,#324,#14);
#323=CARTESIAN_POINT('',(-2.091417030376E-16,1.4375,0.9));
#324=DIRECTION('',(4.595758349624E-18,6.551522493592E-27,-1.));
#325=ADVANCED_FACE('',(#326),#334,.F.);
#326=FACE_BOUND('',#327,.F.);
#327=EDGE_LOOP('',(#328,#329,#330,#331));
#328=ORIENTED_EDGE('',*,*,#132,.T.);
#329=ORIENTED_EDGE('',*,*,#123,.T.);
#330=ORIENTED_EDGE('',*,*,#268,.F.);
#331=ORIENTED_EDGE('',*,*,#332,.F.);
#332=EDGE_CURVE('',#133,#269,#333,.T.);
#333=B_SPLINE_CURVE_WITH_KNOTS('',1,(#134,#270),.UNSPECIFIED.,.F.,.F.,(2,2),(0.,1.),.PIECEWISE_BEZIER_KNOTS.);
#334=PLANE('',#335);
#335=AXIS2_PLACEMENT_3D('',#270,#51,#91);
#336=ADVANCED_FACE('',(#337),#353,.F.);
#337=FACE_BOUND('',#338,.F.);
#338=EDGE_LOOP('',(#339,#343,#344,#351));
#339=ORIENTED_EDGE('',*,*,#340,.F.);
#340=EDGE_CURVE('',#172,#341,#342,.T.);
#341=VERTEX_POINT('',#320);
#342=B_SPLINE_CURVE_WITH_KNOTS('',1,(#149,#320),.UNSPECIFIED.,.F.,.F.,(2,2),(0.,1.),.PIECEWISE_BEZIER_KNOTS.);
#343=ORIENTED_EDGE('',*,*,#171,.T.);
#344=ORIENTED_EDGE('',*,*,#345,.T.);
#345=EDGE_CURVE('',#168,#346,#348,.T.);
#346=VERTEX_POINT('',#347);
#347=CARTESIAN_POINT('',(-0.8,-1.2,0.9));
#348=LINE('',#349,#350);
#349=CARTESIAN_POINT('',(-0.8,-1.2,0.670847817658));
#350=VECTOR('',#13,1.);
#351=ORIENTED_EDGE('',*,*,#352,.F.);
#352=EDGE_CURVE('',#341,#346,#319,.T.);
#353=PLANE('',#354);
#354=AXIS2_PLACEMENT_3D('',#320,#14,#86);
#355=ADVANCED_FACE('',(#356),#374,.F.);
#356=FACE_BOUND('',#357,.F.);
#357=EDGE_LOOP('',(#358,#364,#365,#371));
#358=ORIENTED_EDGE('',*,*,#359,.F.);
#359=EDGE_CURVE('',#168,#360,#362,.T.);
#360=VERTEX_POINT('',#361);
#361=CARTESIAN_POINT('',(-0.85,-1.2,0.75));
#362=LINE('',#363,#71);
#363=CARTESIAN_POINT('',(-0.75,-1.2,0.75));
#364=ORIENTED_EDGE('',*,*,#167,.T.);
#365=ORIENTED_EDGE('',*,*,#366,.T.);
#366=EDGE_CURVE('',#164,#367,#369,.T.);
#367=VERTEX_POINT('',#368);
#368=CARTESIAN_POINT('',(-0.85,-0.7,0.75));
#369=LINE('',#370,#71);
#370=CARTESIAN_POINT('',(-0.75,-0.7,0.75));
#371=ORIENTED_EDGE('',*,*,#372,.F.);
#372=EDGE_CURVE('',#360,#367,#373,.T.);
#373=LINE('',#361,#85);
#374=PLANE('',#375);
#375=AXIS2_PLACEMENT_3D('',#363,#13,#72);
#376=ADVANCED_FACE('',(#377),#353,.F.);
#377=FACE_BOUND('',#378,.F.);
#378=EDGE_LOOP('',(#379,#385,#386,#392));
#379=ORIENTED_EDGE('',*,*,#380,.F.);
#380=EDGE_CURVE('',#164,#381,#383,.T.);
#381=VERTEX_POINT('',#382);
#382=CARTESIAN_POINT('',(-0.8,-0.7,0.9));
#383=LINE('',#384,#350);
#384=CARTESIAN_POINT('',(-0.8,-0.7,0.670847817658));
#385=ORIENTED_EDGE('',*,*,#163,.T.);
#386=ORIENTED_EDGE('',*,*,#387,.T.);
#387=EDGE_CURVE('',#160,#388,#390,.T.);
#388=VERTEX_POINT('',#389);
#389=CARTESIAN_POINT('',(-0.8,-0.25,0.9));
#390=LINE('',#391,#350);
#391=CARTESIAN_POINT('',(-0.8,-0.25,0.670847817658));
#392=ORIENTED_EDGE('',*,*,#393,.F.);
#393=EDGE_CURVE('',#381,#388,#319,.T.);
#394=ADVANCED_FACE('',(#395),#413,.F.);
#395=FACE_BOUND('',#396,.F.);
#396=EDGE_LOOP('',(#397,#403,#404,#410));
#397=ORIENTED_EDGE('',*,*,#398,.F.);
#398=EDGE_CURVE('',#160,#399,#401,.T.);
#399=VERTEX_POINT('',#400);
#400=CARTESIAN_POINT('',(-0.85,-0.25,0.75));
#401=LINE('',#402,#71);
#402=CARTESIAN_POINT('',(-0.75,-0.25,0.75));
#403=ORIENTED_EDGE('',*,*,#159,.T.);
#404=ORIENTED_EDGE('',*,*,#405,.T.);
#405=EDGE_CURVE('',#156,#406,#408,.T.);
#406=VERTEX_POINT('',#407);
#407=CARTESIAN_POINT('',(-0.85,0.25,0.75));
#408=LINE('',#409,#71);
#409=CARTESIAN_POINT('',(-0.75,0.25,0.75));
#410=ORIENTED_EDGE('',*,*,#411,.F.);
#411=EDGE_CURVE('',#399,#406,#412,.T.);
#412=LINE('',#400,#85);
#413=PLANE('',#414);
#414=AXIS2_PLACEMENT_3D('',#402,#13,#72);
#415=ADVANCED_FACE('',(#416),#353,.F.);
#416=FACE_BOUND('',#417,.F.);
#417=EDGE_LOOP('',(#418,#424,#425,#431));
#418=ORIENTED_EDGE('',*,*,#419,.F.);
#419=EDGE_CURVE('',#156,#420,#422,.T.);
#420=VERTEX_POINT('',#421);
#421=CARTESIAN_POINT('',(-0.8,0.25,0.9));
#422=LINE('',#423,#350);
#423=CARTESIAN_POINT('',(-0.8,0.25,0.670847817658));
#424=ORIENTED_EDGE('',*,*,#155,.T.);
#425=ORIENTED_EDGE('',*,*,#426,.T.);
#426=EDGE_CURVE('',#152,#427,#429,.T.);
#427=VERTEX_POINT('',#428);
#428=CARTESIAN_POINT('',(-0.8,0.7,0.9));
#429=LINE('',#430,#350);
#430=CARTESIAN_POINT('',(-0.8,0.7,0.670847817658));
#431=ORIENTED_EDGE('',*,*,#432,.F.);
#432=EDGE_CURVE('',#420,#427,#319,.T.);
#433=ADVANCED_FACE('',(#434),#452,.F.);
#434=FACE_BOUND('',#435,.F.);
#435=EDGE_LOOP('',(#436,#442,#443,#449));
#436=ORIENTED_EDGE('',*,*,#437,.F.);
#437=EDGE_CURVE('',#152,#438,#440,.T.);
#438=VERTEX_POINT('',#439);
#439=CARTESIAN_POINT('',(-0.85,0.7,0.75));
#440=LINE('',#441,#71);
#441=CARTESIAN_POINT('',(-0.75,0.7,0.75));
#442=ORIENTED_EDGE('',*,*,#151,.T.);
#443=ORIENTED_EDGE('',*,*,#444,.T.);
#444=EDGE_CURVE('',#146,#445,#447,.T.);
#445=VERTEX_POINT('',#446);
#446=CARTESIAN_POINT('',(-0.85,1.2,0.75));
#447=LINE('',#448,#71);
#448=CARTESIAN_POINT('',(-0.75,1.2,0.75));
#449=ORIENTED_EDGE('',*,*,#450,.F.);
#450=EDGE_CURVE('',#438,#445,#451,.T.);
#451=LINE('',#439,#85);
#452=PLANE('',#453);
#453=AXIS2_PLACEMENT_3D('',#441,#13,#72);
#454=ADVANCED_FACE('',(#455),#353,.F.);
#455=FACE_BOUND('',#456,.F.);
#456=EDGE_LOOP('',(#457,#461,#462,#463));
#457=ORIENTED_EDGE('',*,*,#458,.F.);
#458=EDGE_CURVE('',#146,#313,#459,.T.);
#459=LINE('',#460,#350);
#460=CARTESIAN_POINT('',(-0.8,1.2,0.670847817658));
#461=ORIENTED_EDGE('',*,*,#145,.T.);
#462=ORIENTED_EDGE('',*,*,#332,.T.);
#463=ORIENTED_EDGE('',*,*,#318,.F.);
#464=ADVANCED_FACE('',(#465),#474,.F.);
#465=FACE_BOUND('',#466,.F.);
#466=EDGE_LOOP('',(#467,#468,#469,#473));
#467=ORIENTED_EDGE('',*,*,#254,.F.);
#468=ORIENTED_EDGE('',*,*,#211,.T.);
#469=ORIENTED_EDGE('',*,*,#470,.T.);
#470=EDGE_CURVE('',#208,#276,#471,.T.);
#471=LINE('',#472,#350);
#472=CARTESIAN_POINT('',(0.8,1.2,0.670847817658));
#473=ORIENTED_EDGE('',*,*,#275,.F.);
#474=PLANE('',#475);
#475=AXIS2_PLACEMENT_3D('',#256,#72,#58);
#476=ADVANCED_FACE('',(#477),#495,.F.);
#477=FACE_BOUND('',#478,.F.);
#478=EDGE_LOOP('',(#479,#485,#486,#492));
#479=ORIENTED_EDGE('',*,*,#480,.F.);
#480=EDGE_CURVE('',#208,#481,#483,.T.);
#481=VERTEX_POINT('',#482);
#482=CARTESIAN_POINT('',(0.85,1.2,0.75));
#483=LINE('',#484,#27);
#484=CARTESIAN_POINT('',(0.75,1.2,0.75));
#485=ORIENTED_EDGE('',*,*,#207,.T.);
#486=ORIENTED_EDGE('',*,*,#487,.T.);
#487=EDGE_CURVE('',#204,#488,#490,.T.);
#488=VERTEX_POINT('',#489);
#489=CARTESIAN_POINT('',(0.85,0.7,0.75));
#490=LINE('',#491,#27);
#491=CARTESIAN_POINT('',(0.75,0.7,0.75));
#492=ORIENTED_EDGE('',*,*,#493,.F.);
#493=EDGE_CURVE('',#481,#488,#494,.T.);
#494=LINE('',#482,#57);
#495=PLANE('',#496);
#496=AXIS2_PLACEMENT_3D('',#484,#13,#14);
#497=ADVANCED_FACE('',(#498),#474,.F.);
#498=FACE_BOUND('',#499,.F.);
#499=EDGE_LOOP('',(#500,#506,#507,#513));
#500=ORIENTED_EDGE('',*,*,#501,.F.);
#501=EDGE_CURVE('',#204,#502,#504,.T.);
#502=VERTEX_POINT('',#503);
#503=CARTESIAN_POINT('',(0.8,0.7,0.9));
#504=LINE('',#505,#350);
#505=CARTESIAN_POINT('',(0.8,0.7,0.670847817658));
#506=ORIENTED_EDGE('',*,*,#203,.T.);
#507=ORIENTED_EDGE('',*,*,#508,.T.);
#508=EDGE_CURVE('',#200,#509,#511,.T.);
#509=VERTEX_POINT('',#510);
#510=CARTESIAN_POINT('',(0.8,0.25,0.9));
#511=LINE('',#512,#350);
#512=CARTESIAN_POINT('',(0.8,0.25,0.670847817658));
#513=ORIENTED_EDGE('',*,*,#514,.F.);
#514=EDGE_CURVE('',#502,#509,#278,.T.);
#515=ADVANCED_FACE('',(#516),#534,.F.);
#516=FACE_BOUND('',#517,.F.);
#517=EDGE_LOOP('',(#518,#524,#525,#531));
#518=ORIENTED_EDGE('',*,*,#519,.F.);
#519=EDGE_CURVE('',#200,#520,#522,.T.);
#520=VERTEX_POINT('',#521);
#521=CARTESIAN_POINT('',(0.85,0.25,0.75));
#522=LINE('',#523,#27);
#523=CARTESIAN_POINT('',(0.75,0.25,0.75));
#524=ORIENTED_EDGE('',*,*,#199,.T.);
#525=ORIENTED_EDGE('',*,*,#526,.T.);
#526=EDGE_CURVE('',#196,#527,#529,.T.);
#527=VERTEX_POINT('',#528);
#528=CARTESIAN_POINT('',(0.85,-0.25,0.75));
#529=LINE('',#530,#27);
#530=CARTESIAN_POINT('',(0.75,-0.25,0.75));
#531=ORIENTED_EDGE('',*,*,#532,.F.);
#532=EDGE_CURVE('',#520,#527,#533,.T.);
#533=LINE('',#521,#57);
#534=PLANE('',#535);
#535=AXIS2_PLACEMENT_3D('',#523,#13,#14);
#536=ADVANCED_FACE('',(#537),#474,.F.);
#537=FACE_BOUND('',#538,.F.);
#538=EDGE_LOOP('',(#539,#545,#546,#552));
#539=ORIENTED_EDGE('',*,*,#540,.F.);
#540=EDGE_CURVE('',#196,#541,#543,.T.);
#541=VERTEX_POINT('',#542);
#542=CARTESIAN_POINT('',(0.8,-0.25,0.9));
#543=LINE('',#544,#350);
#544=CARTESIAN_POINT('',(0.8,-0.25,0.670847817658));
#545=ORIENTED_EDGE('',*,*,#195,.T.);
#546=ORIENTED_EDGE('',*,*,#547,.T.);
#547=EDGE_CURVE('',#192,#548,#550,.T.);
#548=VERTEX_POINT('',#549);
#549=CARTESIAN_POINT('',(0.8,-0.7,0.9));
#550=LINE('',#551,#350);
#551=CARTESIAN_POINT('',(0.8,-0.7,0.670847817658));
#552=ORIENTED_EDGE('',*,*,#553,.F.);
#553=EDGE_CURVE('',#541,#548,#278,.T.);
#554=ADVANCED_FACE('',(#555),#573,.F.);
#555=FACE_BOUND('',#556,.F.);
#556=EDGE_LOOP('',(#557,#563,#564,#570));
#557=ORIENTED_EDGE('',*,*,#558,.F.);
#558=EDGE_CURVE('',#192,#559,#561,.T.);
#559=VERTEX_POINT('',#560);
#560=CARTESIAN_POINT('',(0.85,-0.7,0.75));
#561=LINE('',#562,#27);
#562=CARTESIAN_POINT('',(0.75,-0.7,0.75));
#563=ORIENTED_EDGE('',*,*,#191,.T.);
#564=ORIENTED_EDGE('',*,*,#565,.T.);
#565=EDGE_CURVE('',#187,#566,#568,.T.);
#566=VERTEX_POINT('',#567);
#567=CARTESIAN_POINT('',(0.85,-1.2,0.75));
#568=LINE('',#569,#27);
#569=CARTESIAN_POINT('',(0.75,-1.2,0.75));
#570=ORIENTED_EDGE('',*,*,#571,.F.);
#571=EDGE_CURVE('',#559,#566,#572,.T.);
#572=LINE('',#560,#57);
#573=PLANE('',#574);
#574=AXIS2_PLACEMENT_3D('',#562,#13,#14);
#575=ADVANCED_FACE('',(#576),#474,.F.);
#576=FACE_BOUND('',#577,.F.);
#577=EDGE_LOOP('',(#578,#584,#585,#590));
#578=ORIENTED_EDGE('',*,*,#579,.F.);
#579=EDGE_CURVE('',#187,#580,#582,.T.);
#580=VERTEX_POINT('',#581);
#581=CARTESIAN_POINT('',(0.8,-1.2,0.9));
#582=LINE('',#583,#350);
#583=CARTESIAN_POINT('',(0.8,-1.2,0.670847817658));
#584=ORIENTED_EDGE('',*,*,#186,.T.);
#585=ORIENTED_EDGE('',*,*,#586,.T.);
#586=EDGE_CURVE('',#182,#587,#589,.T.);
#587=VERTEX_POINT('',#588);
#588=CARTESIAN_POINT('',(0.8,-1.355,0.9));
#589=B_SPLINE_CURVE_WITH_KNOTS('',1,(#183,#588),.UNSPECIFIED.,.F.,.F.,(2,2),(0.,1.),.PIECEWISE_BEZIER_KNOTS.);
#590=ORIENTED_EDGE('',*,*,#591,.F.);
#591=EDGE_CURVE('',#580,#587,#278,.T.);
#592=ADVANCED_FACE('',(#593),#605,.F.);
#593=FACE_BOUND('',#594,.F.);
#594=EDGE_LOOP('',(#595,#596,#597,#602));
#595=ORIENTED_EDGE('',*,*,#219,.T.);
#596=ORIENTED_EDGE('',*,*,#340,.T.);
#597=ORIENTED_EDGE('',*,*,#598,.F.);
#598=EDGE_CURVE('',#599,#341,#601,.T.);
#599=VERTEX_POINT('',#600);
#600=CARTESIAN_POINT('',(-0.705,-1.45,0.9));
#601=LINE('',#600,#78);
#602=ORIENTED_EDGE('',*,*,#603,.F.);
#603=EDGE_CURVE('',#220,#599,#604,.T.);
#604=B_SPLINE_CURVE_WITH_KNOTS('',1,(#221,#600),.UNSPECIFIED.,.F.,.F.,(2,2),(0.,1.),.PIECEWISE_BEZIER_KNOTS.);
#605=PLANE('',#606);
#606=AXIS2_PLACEMENT_3D('',#600,#91,#79);
#607=ADVANCED_FACE('',(#608),#620,.F.);
#608=FACE_BOUND('',#609,.F.);
#609=EDGE_LOOP('',(#610,#611,#616,#619));
#610=ORIENTED_EDGE('',*,*,#236,.T.);
#611=ORIENTED_EDGE('',*,*,#612,.T.);
#612=EDGE_CURVE('',#232,#613,#615,.T.);
#613=VERTEX_POINT('',#614);
#614=CARTESIAN_POINT('',(0.705,-1.45,0.9));
#615=B_SPLINE_CURVE_WITH_KNOTS('',1,(#233,#614),.UNSPECIFIED.,.F.,.F.,(2,2),(0.,1.),.PIECEWISE_BEZIER_KNOTS.);
#616=ORIENTED_EDGE('',*,*,#617,.F.);
#617=EDGE_CURVE('',#587,#613,#618,.T.);
#618=LINE('',#588,#64);
#619=ORIENTED_EDGE('',*,*,#586,.F.);
#620=PLANE('',#621);
#621=AXIS2_PLACEMENT_3D('',#588,#79,#65);
#622=ADVANCED_FACE('',(#623),#631,.F.);
#623=FACE_BOUND('',#624,.F.);
#624=EDGE_LOOP('',(#625,#626,#627,#630));
#625=ORIENTED_EDGE('',*,*,#245,.T.);
#626=ORIENTED_EDGE('',*,*,#603,.T.);
#627=ORIENTED_EDGE('',*,*,#628,.F.);
#628=EDGE_CURVE('',#613,#599,#629,.T.);
#629=LINE('',#614,#71);
#630=ORIENTED_EDGE('',*,*,#612,.F.);
#631=PLANE('',#632);
#632=AXIS2_PLACEMENT_3D('',#614,#86,#72);
#633=ADVANCED_FACE('',(#634),#654,.F.);
#634=FACE_BOUND('',#635,.F.);
#635=EDGE_LOOP('',(#636,#641,#645,#647,#648,#652));
#636=ORIENTED_EDGE('',*,*,#637,.F.);
#637=EDGE_CURVE('',#638,#427,#640,.T.);
#638=VERTEX_POINT('',#639);
#639=CARTESIAN_POINT('',(-0.85,0.7,0.9));
#640=LINE('',#639,#27);
#641=ORIENTED_EDGE('',*,*,#642,.T.);
#642=EDGE_CURVE('',#638,#643,#644,.T.);
#643=VERTEX_POINT('',#316);
#644=LINE('',#639,#85);
#645=ORIENTED_EDGE('',*,*,#646,.T.);
#646=EDGE_CURVE('',#643,#313,#315,.T.);
#647=ORIENTED_EDGE('',*,*,#312,.T.);
#648=ORIENTED_EDGE('',*,*,#649,.F.);
#649=EDGE_CURVE('',#650,#307,#309,.T.);
#650=VERTEX_POINT('',#651);
#651=CARTESIAN_POINT('',(-0.775,0.7,0.9));
#652=ORIENTED_EDGE('',*,*,#653,.F.);
#653=EDGE_CURVE('',#427,#650,#640,.T.);
#654=PLANE('',#655);
#655=AXIS2_PLACEMENT_3D('',#639,#324,#14);
#656=ADVANCED_FACE('',(#657),#693,.F.);
#657=FACE_BOUND('',#658,.F.);
#658=EDGE_LOOP('',(#659,#664,#668,#672,#676,#678,#679,#680,#685,#690));
#659=ORIENTED_EDGE('',*,*,#660,.T.);
#660=EDGE_CURVE('',#661,#662,#309,.T.);
#661=VERTEX_POINT('',#310);
#662=VERTEX_POINT('',#663);
#663=CARTESIAN_POINT('',(-0.775,-1.2,0.9));
#664=ORIENTED_EDGE('',*,*,#665,.T.);
#665=EDGE_CURVE('',#662,#666,#309,.T.);
#666=VERTEX_POINT('',#667);
#667=CARTESIAN_POINT('',(-0.775,-0.7,0.9));
#668=ORIENTED_EDGE('',*,*,#669,.T.);
#669=EDGE_CURVE('',#666,#670,#309,.T.);
#670=VERTEX_POINT('',#671);
#671=CARTESIAN_POINT('',(-0.775,-0.25,0.9));
#672=ORIENTED_EDGE('',*,*,#673,.T.);
#673=EDGE_CURVE('',#670,#674,#309,.T.);
#674=VERTEX_POINT('',#675);
#675=CARTESIAN_POINT('',(-0.775,0.25,0.9));
#676=ORIENTED_EDGE('',*,*,#677,.T.);
#677=EDGE_CURVE('',#674,#650,#309,.T.);
#678=ORIENTED_EDGE('',*,*,#649,.T.);
#679=ORIENTED_EDGE('',*,*,#306,.T.);
#680=ORIENTED_EDGE('',*,*,#681,.T.);
#681=EDGE_CURVE('',#302,#682,#684,.T.);
#682=VERTEX_POINT('',#683);
#683=CARTESIAN_POINT('',(-0.683648457443,1.296824228722,1.55));
#684=B_SPLINE_CURVE_WITH_KNOTS('',1,(#303,#683),.UNSPECIFIED.,.F.,.F.,(2,2),(0.,1.),.PIECEWISE_BEZIER_KNOTS.);
#685=ORIENTED_EDGE('',*,*,#686,.F.);
#686=EDGE_CURVE('',#687,#682,#689,.T.);
#687=VERTEX_POINT('',#688);
#688=CARTESIAN_POINT('',(-0.683648457443,-1.296824228722,1.55));
#689=LINE('',#688,#85);
#690=ORIENTED_EDGE('',*,*,#691,.F.);
#691=EDGE_CURVE('',#661,#687,#692,.T.);
#692=B_SPLINE_CURVE_WITH_KNOTS('',1,(#310,#688),.UNSPECIFIED.,.F.,.F.,(2,2),(0.,1.),.PIECEWISE_BEZIER_KNOTS.);
#693=B_SPLINE_SURFACE_WITH_KNOTS('',1,1,((#310,#688),(#303,#683)),.UNSPECIFIED.,.F.,.F.,.F.,(2,2),(2,2),(0.,2.685),(0.,1.),.PIECEWISE_BEZIER_KNOTS.);
#694=ADVANCED_FACE('',(#695),#707,.F.);
#695=FACE_BOUND('',#696,.F.);
#696=EDGE_LOOP('',(#697,#698,#703,#706));
#697=ORIENTED_EDGE('',*,*,#301,.T.);
#698=ORIENTED_EDGE('',*,*,#699,.T.);
#699=EDGE_CURVE('',#297,#700,#702,.T.);
#700=VERTEX_POINT('',#701);
#701=CARTESIAN_POINT('',(-0.646824228722,1.333648457443,1.55));
#702=B_SPLINE_CURVE_WITH_KNOTS('',1,(#298,#701),.UNSPECIFIED.,.F.,.F.,(2,2),(0.,1.),.PIECEWISE_BEZIER_KNOTS.);
#703=ORIENTED_EDGE('',*,*,#704,.F.);
#704=EDGE_CURVE('',#682,#700,#705,.T.);
#705=LINE('',#683,#90);
#706=ORIENTED_EDGE('',*,*,#681,.F.);
#707=B_SPLINE_SURFACE_WITH_KNOTS('',1,1,((#303,#683),(#298,#701)),.UNSPECIFIED.,.F.,.F.,.F.,(2,2),(2,2),(0.,0.116672618896),(0.,1.),.PIECEWISE_BEZIER_KNOTS.);
#708=ADVANCED_FACE('',(#709),#721,.F.);
#709=FACE_BOUND('',#710,.F.);
#710=EDGE_LOOP('',(#711,#712,#717,#720));
#711=ORIENTED_EDGE('',*,*,#296,.T.);
#712=ORIENTED_EDGE('',*,*,#713,.T.);
#713=EDGE_CURVE('',#292,#714,#716,.T.);
#714=VERTEX_POINT('',#715);
#715=CARTESIAN_POINT('',(0.646824228722,1.333648457443,1.55));
#716=B_SPLINE_CURVE_WITH_KNOTS('',1,(#293,#715),.UNSPECIFIED.,.F.,.F.,(2,2),(0.,1.),.PIECEWISE_BEZIER_KNOTS.);
#717=ORIENTED_EDGE('',*,*,#718,.F.);
#718=EDGE_CURVE('',#700,#714,#719,.T.);
#719=LINE('',#701,#27);
#720=ORIENTED_EDGE('',*,*,#699,.F.);
#721=B_SPLINE_SURFACE_WITH_KNOTS('',1,1,((#298,#701),(#293,#715)),.UNSPECIFIED.,.F.,.F.,.F.,(2,2),(2,2),(0.,1.385),(0.,1.),.PIECEWISE_BEZIER_KNOTS.);
#722=ADVANCED_FACE('',(#723),#735,.F.);
#723=FACE_BOUND('',#724,.F.);
#724=EDGE_LOOP('',(#725,#726,#731,#734));
#725=ORIENTED_EDGE('',*,*,#291,.T.);
#726=ORIENTED_EDGE('',*,*,#727,.T.);
#727=EDGE_CURVE('',#287,#728,#730,.T.);
#728=VERTEX_POINT('',#729);
#729=CARTESIAN_POINT('',(0.683648457443,1.296824228722,1.55));
#730=B_SPLINE_CURVE_WITH_KNOTS('',1,(#288,#729),.UNSPECIFIED.,.F.,.F.,(2,2),(0.,1.),.PIECEWISE_BEZIER_KNOTS.);
#731=ORIENTED_EDGE('',*,*,#732,.F.);
#732=EDGE_CURVE('',#714,#728,#733,.T.);
#733=LINE('',#715,#50);
#734=ORIENTED_EDGE('',*,*,#713,.F.);
#735=B_SPLINE_SURFACE_WITH_KNOTS('',1,1,((#293,#715),(#288,#729)),.UNSPECIFIED.,.F.,.F.,.F.,(2,2),(2,2),(0.,0.116672618896),(0.,1.),.PIECEWISE_BEZIER_KNOTS.);
#736=ADVANCED_FACE('',(#737),#773,.F.);
#737=FACE_BOUND('',#738,.F.);
#738=EDGE_LOOP('',(#739,#740,#744,#748,#752,#756,#760,#764,#769,#772));
#739=ORIENTED_EDGE('',*,*,#286,.T.);
#740=ORIENTED_EDGE('',*,*,#741,.T.);
#741=EDGE_CURVE('',#281,#742,#289,.T.);
#742=VERTEX_POINT('',#743);
#743=CARTESIAN_POINT('',(0.775,0.7,0.9));
#744=ORIENTED_EDGE('',*,*,#745,.T.);
#745=EDGE_CURVE('',#742,#746,#289,.T.);
#746=VERTEX_POINT('',#747);
#747=CARTESIAN_POINT('',(0.775,0.25,0.9));
#748=ORIENTED_EDGE('',*,*,#749,.T.);
#749=EDGE_CURVE('',#746,#750,#289,.T.);
#750=VERTEX_POINT('',#751);
#751=CARTESIAN_POINT('',(0.775,-0.25,0.9));
#752=ORIENTED_EDGE('',*,*,#753,.T.);
#753=EDGE_CURVE('',#750,#754,#289,.T.);
#754=VERTEX_POINT('',#755);
#755=CARTESIAN_POINT('',(0.775,-0.7,0.9));
#756=ORIENTED_EDGE('',*,*,#757,.T.);
#757=EDGE_CURVE('',#754,#758,#289,.T.);
#758=VERTEX_POINT('',#759);
#759=CARTESIAN_POINT('',(0.775,-1.2,0.9));
#760=ORIENTED_EDGE('',*,*,#761,.T.);
#761=EDGE_CURVE('',#758,#762,#289,.T.);
#762=VERTEX_POINT('',#763);
#763=CARTESIAN_POINT('',(0.775,-1.3425,0.9));
#764=ORIENTED_EDGE('',*,*,#765,.T.);
#765=EDGE_CURVE('',#762,#766,#768,.T.);
#766=VERTEX_POINT('',#767);
#767=CARTESIAN_POINT('',(0.683648457443,-1.296824228722,1.55));
#768=B_SPLINE_CURVE_WITH_KNOTS('',1,(#763,#767),.UNSPECIFIED.,.F.,.F.,(2,2),(0.,1.),.PIECEWISE_BEZIER_KNOTS.);
#769=ORIENTED_EDGE('',*,*,#770,.F.);
#770=EDGE_CURVE('',#728,#766,#771,.T.);
#771=LINE('',#729,#57);
#772=ORIENTED_EDGE('',*,*,#727,.F.);
#773=B_SPLINE_SURFACE_WITH_KNOTS('',1,1,((#288,#729),(#763,#767)),.UNSPECIFIED.,.F.,.F.,.F.,(2,2),(2,2),(0.,2.685),(0.,1.),.PIECEWISE_BEZIER_KNOTS.);
#774=ADVANCED_FACE('',(#775),#792,.F.);
#775=FACE_BOUND('',#776,.F.);
#776=EDGE_LOOP('',(#777,#780,#785,#788,#790,#791));
#777=ORIENTED_EDGE('',*,*,#778,.F.);
#778=EDGE_CURVE('',#779,#276,#283,.T.);
#779=VERTEX_POINT('',#284);
#780=ORIENTED_EDGE('',*,*,#781,.T.);
#781=EDGE_CURVE('',#779,#782,#784,.T.);
#782=VERTEX_POINT('',#783);
#783=CARTESIAN_POINT('',(0.85,0.7,0.9));
#784=LINE('',#284,#57);
#785=ORIENTED_EDGE('',*,*,#786,.T.);
#786=EDGE_CURVE('',#782,#502,#787,.T.);
#787=LINE('',#783,#71);
#788=ORIENTED_EDGE('',*,*,#789,.T.);
#789=EDGE_CURVE('',#502,#742,#787,.T.);
#790=ORIENTED_EDGE('',*,*,#741,.F.);
#791=ORIENTED_EDGE('',*,*,#280,.F.);
#792=PLANE('',#793);
#793=AXIS2_PLACEMENT_3D('',#284,#324,#72);
#794=ADVANCED_FACE('',(#795),#321,.F.);
#795=FACE_BOUND('',#796,.F.);
#796=EDGE_LOOP('',(#797,#798,#802,#803,#808,#813,#816,#817,#821,#822,#823,#824));
#797=ORIENTED_EDGE('',*,*,#352,.T.);
#798=ORIENTED_EDGE('',*,*,#799,.T.);
#799=EDGE_CURVE('',#346,#662,#800,.T.);
#800=LINE('',#801,#27);
#801=CARTESIAN_POINT('',(-0.85,-1.2,0.9));
#802=ORIENTED_EDGE('',*,*,#660,.F.);
#803=ORIENTED_EDGE('',*,*,#804,.F.);
#804=EDGE_CURVE('',#805,#661,#807,.T.);
#805=VERTEX_POINT('',#806);
#806=CARTESIAN_POINT('',(-0.6925,-1.425,0.9));
#807=LINE('',#806,#78);
#808=ORIENTED_EDGE('',*,*,#809,.F.);
#809=EDGE_CURVE('',#810,#805,#812,.T.);
#810=VERTEX_POINT('',#811);
#811=CARTESIAN_POINT('',(0.6925,-1.425,0.9));
#812=LINE('',#811,#71);
#813=ORIENTED_EDGE('',*,*,#814,.F.);
#814=EDGE_CURVE('',#762,#810,#815,.T.);
#815=LINE('',#763,#64);
#816=ORIENTED_EDGE('',*,*,#761,.F.);
#817=ORIENTED_EDGE('',*,*,#818,.F.);
#818=EDGE_CURVE('',#580,#758,#819,.T.);
#819=LINE('',#820,#71);
#820=CARTESIAN_POINT('',(0.85,-1.2,0.9));
#821=ORIENTED_EDGE('',*,*,#591,.T.);
#822=ORIENTED_EDGE('',*,*,#617,.T.);
#823=ORIENTED_EDGE('',*,*,#628,.T.);
#824=ORIENTED_EDGE('',*,*,#598,.T.);
#825=ADVANCED_FACE('',(#826),#888,.F.);
#826=FACE_BOUND('',#827,.F.);
#827=EDGE_LOOP('',(#828,#829,#830,#837,#844,#852,#857,#862,#867,#873,#880,#886));
#828=ORIENTED_EDGE('',*,*,#345,.F.);
#829=ORIENTED_EDGE('',*,*,#359,.T.);
#830=ORIENTED_EDGE('',*,*,#831,.T.);
#831=EDGE_CURVE('',#360,#832,#834,.T.);
#832=VERTEX_POINT('',#833);
#833=CARTESIAN_POINT('',(-0.948480775301,-1.2,0.667364817767));
#834=CIRCLE('',#835,0.1);
#835=AXIS2_PLACEMENT_3D('',#836,#58,#13);
#836=CARTESIAN_POINT('',(-0.85,-1.2,0.65));
#837=ORIENTED_EDGE('',*,*,#838,.T.);
#838=EDGE_CURVE('',#832,#839,#841,.T.);
#839=VERTEX_POINT('',#840);
#840=CARTESIAN_POINT('',(-1.02432885403,-1.2,0.206587955583));
#841=LINE('',#833,#842);
#842=VECTOR('',#843,1.);
#843=DIRECTION('',(-0.162423314012,1.858508865964E-18,-0.986721169868));
#844=ORIENTED_EDGE('',*,*,#845,.T.);
#845=EDGE_CURVE('',#839,#846,#848,.T.);
#846=VERTEX_POINT('',#847);
#847=CARTESIAN_POINT('',(-1.270530792283,-1.2,0.));
#848=CIRCLE('',#849,0.25);
#849=AXIS2_PLACEMENT_3D('',#850,#86,#851);
#850=CARTESIAN_POINT('',(-1.270530792283,-1.2,0.25));
#851=DIRECTION('',(0.984807753012,-1.126854202784E-17,-0.173648177667));
#852=ORIENTED_EDGE('',*,*,#853,.T.);
#853=EDGE_CURVE('',#846,#854,#856,.T.);
#854=VERTEX_POINT('',#855);
#855=CARTESIAN_POINT('',(-1.4,-1.2,0.));
#856=LINE('',#847,#71);
#857=ORIENTED_EDGE('',*,*,#858,.T.);
#858=EDGE_CURVE('',#854,#859,#861,.T.);
#859=VERTEX_POINT('',#860);
#860=CARTESIAN_POINT('',(-1.4,-1.2,0.15));
#861=LINE('',#855,#350);
#862=ORIENTED_EDGE('',*,*,#863,.T.);
#863=EDGE_CURVE('',#859,#864,#866,.T.);
#864=VERTEX_POINT('',#865);
#865=CARTESIAN_POINT('',(-1.270530792283,-1.2,0.15));
#866=LINE('',#860,#27);
#867=ORIENTED_EDGE('',*,*,#868,.T.);
#868=EDGE_CURVE('',#864,#869,#871,.T.);
#869=VERTEX_POINT('',#870);
#870=CARTESIAN_POINT('',(-1.172050016982,-1.2,0.232635182233));
#871=CIRCLE('',#872,1.E-01);
#872=AXIS2_PLACEMENT_3D('',#850,#58,#324);
#873=ORIENTED_EDGE('',*,*,#874,.T.);
#874=EDGE_CURVE('',#869,#875,#877,.T.);
#875=VERTEX_POINT('',#876);
#876=CARTESIAN_POINT('',(-1.096201938253,-1.2,0.693412044417));
#877=LINE('',#870,#878);
#878=VECTOR('',#879,1.);
#879=DIRECTION('',(0.162423314012,-1.858508865964E-18,0.986721169868));
#880=ORIENTED_EDGE('',*,*,#881,.T.);
#881=EDGE_CURVE('',#875,#882,#883,.T.);
#882=VERTEX_POINT('',#801);
#883=CIRCLE('',#884,0.25);
#884=AXIS2_PLACEMENT_3D('',#836,#86,#885);
#885=DIRECTION('',(-0.984807753012,1.126854202784E-17,0.173648177667));
#886=ORIENTED_EDGE('',*,*,#887,.T.);
#887=EDGE_CURVE('',#882,#346,#800,.T.);
#888=PLANE('',#889);
#889=AXIS2_PLACEMENT_3D('',#890,#86,#13);
#890=CARTESIAN_POINT('',(-1.069123385139,-1.2,0.441695635315));
#891=ADVANCED_FACE('',(#892),#906,.F.);
#892=FACE_BOUND('',#893,.F.);
#893=EDGE_LOOP('',(#894,#895,#902,#905));
#894=ORIENTED_EDGE('',*,*,#372,.T.);
#895=ORIENTED_EDGE('',*,*,#896,.T.);
#896=EDGE_CURVE('',#367,#897,#899,.T.);
#897=VERTEX_POINT('',#898);
#898=CARTESIAN_POINT('',(-0.948480775301,-0.7,0.667364817767));
#899=CIRCLE('',#900,0.1);
#900=AXIS2_PLACEMENT_3D('',#901,#58,#13);
#901=CARTESIAN_POINT('',(-0.85,-0.7,0.65));
#902=ORIENTED_EDGE('',*,*,#903,.F.);
#903=EDGE_CURVE('',#832,#897,#904,.T.);
#904=LINE('',#833,#85);
#905=ORIENTED_EDGE('',*,*,#831,.F.);
#906=CYLINDRICAL_SURFACE('',#835,0.1);
#907=ADVANCED_FACE('',(#908),#957,.T.);
#908=FACE_BOUND('',#909,.T.);
#909=EDGE_LOOP('',(#379,#365,#895,#910,#915,#922,#927,#932,#937,#943,#948,#954));
#910=ORIENTED_EDGE('',*,*,#911,.T.);
#911=EDGE_CURVE('',#897,#912,#914,.T.);
#912=VERTEX_POINT('',#913);
#913=CARTESIAN_POINT('',(-1.02432885403,-0.7,0.206587955583));
#914=LINE('',#898,#842);
#915=ORIENTED_EDGE('',*,*,#916,.T.);
#916=EDGE_CURVE('',#912,#917,#919,.T.);
#917=VERTEX_POINT('',#918);
#918=CARTESIAN_POINT('',(-1.270530792283,-0.7,0.));
#919=CIRCLE('',#920,0.25);
#920=AXIS2_PLACEMENT_3D('',#921,#86,#851);
#921=CARTESIAN_POINT('',(-1.270530792283,-0.7,0.25));
#922=ORIENTED_EDGE('',*,*,#923,.T.);
#923=EDGE_CURVE('',#917,#924,#926,.T.);
#924=VERTEX_POINT('',#925);
#925=CARTESIAN_POINT('',(-1.4,-0.7,0.));
#926=LINE('',#918,#71);
#927=ORIENTED_EDGE('',*,*,#928,.T.);
#928=EDGE_CURVE('',#924,#929,#931,.T.);
#929=VERTEX_POINT('',#930);
#930=CARTESIAN_POINT('',(-1.4,-0.7,0.15));
#931=LINE('',#925,#350);
#932=ORIENTED_EDGE('',*,*,#933,.T.);
#933=EDGE_CURVE('',#929,#934,#936,.T.);
#934=VERTEX_POINT('',#935);
#935=CARTESIAN_POINT('',(-1.270530792283,-0.7,0.15));
#936=LINE('',#930,#27);
#937=ORIENTED_EDGE('',*,*,#938,.T.);
#938=EDGE_CURVE('',#934,#939,#941,.T.);
#939=VERTEX_POINT('',#940);
#940=CARTESIAN_POINT('',(-1.172050016982,-0.7,0.232635182233));
#941=CIRCLE('',#942,1.E-01);
#942=AXIS2_PLACEMENT_3D('',#921,#58,#324);
#943=ORIENTED_EDGE('',*,*,#944,.T.);
#944=EDGE_CURVE('',#939,#945,#947,.T.);
#945=VERTEX_POINT('',#946);
#946=CARTESIAN_POINT('',(-1.096201938253,-0.7,0.693412044417));
#947=LINE('',#940,#878);
#948=ORIENTED_EDGE('',*,*,#949,.T.);
#949=EDGE_CURVE('',#945,#950,#952,.T.);
#950=VERTEX_POINT('',#951);
#951=CARTESIAN_POINT('',(-0.85,-0.7,0.9));
#952=CIRCLE('',#953,0.25);
#953=AXIS2_PLACEMENT_3D('',#901,#86,#885);
#954=ORIENTED_EDGE('',*,*,#955,.T.);
#955=EDGE_CURVE('',#950,#381,#956,.T.);
#956=LINE('',#951,#27);
#957=PLANE('',#958);
#958=AXIS2_PLACEMENT_3D('',#959,#86,#13);
#959=CARTESIAN_POINT('',(-1.069123385139,-0.7,0.441695635315));
#960=ADVANCED_FACE('',(#961),#321,.F.);
#961=FACE_BOUND('',#962,.F.);
#962=EDGE_LOOP('',(#963,#964,#968,#969));
#963=ORIENTED_EDGE('',*,*,#393,.T.);
#964=ORIENTED_EDGE('',*,*,#965,.T.);
#965=EDGE_CURVE('',#388,#670,#966,.T.);
#966=LINE('',#967,#27);
#967=CARTESIAN_POINT('',(-0.85,-0.25,0.9));
#968=ORIENTED_EDGE('',*,*,#669,.F.);
#969=ORIENTED_EDGE('',*,*,#970,.F.);
#970=EDGE_CURVE('',#381,#666,#956,.T.);
#971=ADVANCED_FACE('',(#972),#1028,.F.);
#972=FACE_BOUND('',#973,.F.);
#973=EDGE_LOOP('',(#974,#975,#976,#983,#988,#995,#1000,#1005,#1010,#1016,#1021,#1026));
#974=ORIENTED_EDGE('',*,*,#387,.F.);
#975=ORIENTED_EDGE('',*,*,#398,.T.);
#976=ORIENTED_EDGE('',*,*,#977,.T.);
#977=EDGE_CURVE('',#399,#978,#980,.T.);
#978=VERTEX_POINT('',#979);
#979=CARTESIAN_POINT('',(-0.948480775301,-0.25,0.667364817767));
#980=CIRCLE('',#981,0.1);
#981=AXIS2_PLACEMENT_3D('',#982,#58,#13);
#982=CARTESIAN_POINT('',(-0.85,-0.25,0.65));
#983=ORIENTED_EDGE('',*,*,#984,.T.);
#984=EDGE_CURVE('',#978,#985,#987,.T.);
#985=VERTEX_POINT('',#986);
#986=CARTESIAN_POINT('',(-1.02432885403,-0.25,0.206587955583));
#987=LINE('',#979,#842);
#988=ORIENTED_EDGE('',*,*,#989,.T.);
#989=EDGE_CURVE('',#985,#990,#992,.T.);
#990=VERTEX_POINT('',#991);
#991=CARTESIAN_POINT('',(-1.270530792283,-0.25,0.));
#992=CIRCLE('',#993,0.25);
#993=AXIS2_PLACEMENT_3D('',#994,#86,#851);
#994=CARTESIAN_POINT('',(-1.270530792283,-0.25,0.25));
#995=ORIENTED_EDGE('',*,*,#996,.T.);
#996=EDGE_CURVE('',#990,#997,#999,.T.);
#997=VERTEX_POINT('',#998);
#998=CARTESIAN_POINT('',(-1.4,-0.25,0.));
#999=LINE('',#991,#71);
#1000=ORIENTED_EDGE('',*,*,#1001,.T.);
#1001=EDGE_CURVE('',#997,#1002,#1004,.T.);
#1002=VERTEX_POINT('',#1003);
#1003=CARTESIAN_POINT('',(-1.4,-0.25,0.15));
#1004=LINE('',#998,#350);
#1005=ORIENTED_EDGE('',*,*,#1006,.T.);
#1006=EDGE_CURVE('',#1002,#1007,#1009,.T.);
#1007=VERTEX_POINT('',#1008);
#1008=CARTESIAN_POINT('',(-1.270530792283,-0.25,0.15));
#1009=LINE('',#1003,#27);
#1010=ORIENTED_EDGE('',*,*,#1011,.T.);
#1011=EDGE_CURVE('',#1007,#1012,#1014,.T.);
#1012=VERTEX_POINT('',#1013);
#1013=CARTESIAN_POINT('',(-1.172050016982,-0.25,0.232635182233));
#1014=CIRCLE('',#1015,1.E-01);
#1015=AXIS2_PLACEMENT_3D('',#994,#58,#324);
#1016=ORIENTED_EDGE('',*,*,#1017,.T.);
#1017=EDGE_CURVE('',#1012,#1018,#1020,.T.);
#1018=VERTEX_POINT('',#1019);
#1019=CARTESIAN_POINT('',(-1.096201938253,-0.25,0.693412044417));
#1020=LINE('',#1013,#878);
#1021=ORIENTED_EDGE('',*,*,#1022,.T.);
#1022=EDGE_CURVE('',#1018,#1023,#1024,.T.);
#1023=VERTEX_POINT('',#967);
#1024=CIRCLE('',#1025,0.25);
#1025=AXIS2_PLACEMENT_3D('',#982,#86,#885);
#1026=ORIENTED_EDGE('',*,*,#1027,.T.);
#1027=EDGE_CURVE('',#1023,#388,#966,.T.);
#1028=PLANE('',#1029);
#1029=AXIS2_PLACEMENT_3D('',#1030,#86,#13);
#1030=CARTESIAN_POINT('',(-1.069123385139,-0.25,0.441695635315));
#1031=ADVANCED_FACE('',(#1032),#1046,.F.);
#1032=FACE_BOUND('',#1033,.F.);
#1033=EDGE_LOOP('',(#1034,#1035,#1042,#1045));
#1034=ORIENTED_EDGE('',*,*,#411,.T.);
#1035=ORIENTED_EDGE('',*,*,#1036,.T.);
#1036=EDGE_CURVE('',#406,#1037,#1039,.T.);
#1037=VERTEX_POINT('',#1038);
#1038=CARTESIAN_POINT('',(-0.948480775301,0.25,0.667364817767));
#1039=CIRCLE('',#1040,0.1);
#1040=AXIS2_PLACEMENT_3D('',#1041,#58,#13);
#1041=CARTESIAN_POINT('',(-0.85,0.25,0.65));
#1042=ORIENTED_EDGE('',*,*,#1043,.F.);
#1043=EDGE_CURVE('',#978,#1037,#1044,.T.);
#1044=LINE('',#979,#85);
#1045=ORIENTED_EDGE('',*,*,#977,.F.);
#1046=CYLINDRICAL_SURFACE('',#981,0.1);
#1047=ADVANCED_FACE('',(#1048),#1097,.T.);
#1048=FACE_BOUND('',#1049,.T.);
#1049=EDGE_LOOP('',(#418,#404,#1035,#1050,#1055,#1062,#1067,#1072,#1077,#1083,#1088,#1094));
#1050=ORIENTED_EDGE('',*,*,#1051,.T.);
#1051=EDGE_CURVE('',#1037,#1052,#1054,.T.);
#1052=VERTEX_POINT('',#1053);
#1053=CARTESIAN_POINT('',(-1.02432885403,0.25,0.206587955583));
#1054=LINE('',#1038,#842);
#1055=ORIENTED_EDGE('',*,*,#1056,.T.);
#1056=EDGE_CURVE('',#1052,#1057,#1059,.T.);
#1057=VERTEX_POINT('',#1058);
#1058=CARTESIAN_POINT('',(-1.270530792283,0.25,0.));
#1059=CIRCLE('',#1060,0.25);
#1060=AXIS2_PLACEMENT_3D('',#1061,#86,#851);
#1061=CARTESIAN_POINT('',(-1.270530792283,0.25,0.25));
#1062=ORIENTED_EDGE('',*,*,#1063,.T.);
#1063=EDGE_CURVE('',#1057,#1064,#1066,.T.);
#1064=VERTEX_POINT('',#1065);
#1065=CARTESIAN_POINT('',(-1.4,0.25,0.));
#1066=LINE('',#1058,#71);
#1067=ORIENTED_EDGE('',*,*,#1068,.T.);
#1068=EDGE_CURVE('',#1064,#1069,#1071,.T.);
#1069=VERTEX_POINT('',#1070);
#1070=CARTESIAN_POINT('',(-1.4,0.25,0.15));
#1071=LINE('',#1065,#350);
#1072=ORIENTED_EDGE('',*,*,#1073,.T.);
#1073=EDGE_CURVE('',#1069,#1074,#1076,.T.);
#1074=VERTEX_POINT('',#1075);
#1075=CARTESIAN_POINT('',(-1.270530792283,0.25,0.15));
#1076=LINE('',#1070,#27);
#1077=ORIENTED_EDGE('',*,*,#1078,.T.);
#1078=EDGE_CURVE('',#1074,#1079,#1081,.T.);
#1079=VERTEX_POINT('',#1080);
#1080=CARTESIAN_POINT('',(-1.172050016982,0.25,0.232635182233));
#1081=CIRCLE('',#1082,1.E-01);
#1082=AXIS2_PLACEMENT_3D('',#1061,#58,#324);
#1083=ORIENTED_EDGE('',*,*,#1084,.T.);
#1084=EDGE_CURVE('',#1079,#1085,#1087,.T.);
#1085=VERTEX_POINT('',#1086);
#1086=CARTESIAN_POINT('',(-1.096201938253,0.25,0.693412044417));
#1087=LINE('',#1080,#878);
#1088=ORIENTED_EDGE('',*,*,#1089,.T.);
#1089=EDGE_CURVE('',#1085,#1090,#1092,.T.);
#1090=VERTEX_POINT('',#1091);
#1091=CARTESIAN_POINT('',(-0.85,0.25,0.9));
#1092=CIRCLE('',#1093,0.25);
#1093=AXIS2_PLACEMENT_3D('',#1041,#86,#885);
#1094=ORIENTED_EDGE('',*,*,#1095,.T.);
#1095=EDGE_CURVE('',#1090,#420,#1096,.T.);
#1096=LINE('',#1091,#27);
#1097=PLANE('',#1098);
#1098=AXIS2_PLACEMENT_3D('',#1099,#86,#13);
#1099=CARTESIAN_POINT('',(-1.069123385139,0.25,0.441695635315));
#1100=ADVANCED_FACE('',(#1101),#321,.F.);
#1101=FACE_BOUND('',#1102,.F.);
#1102=EDGE_LOOP('',(#1103,#1104,#1105,#1106));
#1103=ORIENTED_EDGE('',*,*,#432,.T.);
#1104=ORIENTED_EDGE('',*,*,#653,.T.);
#1105=ORIENTED_EDGE('',*,*,#677,.F.);
#1106=ORIENTED_EDGE('',*,*,#1107,.F.);
#1107=EDGE_CURVE('',#420,#674,#1096,.T.);
#1108=ADVANCED_FACE('',(#1109),#1163,.F.);
#1109=FACE_BOUND('',#1110,.F.);
#1110=EDGE_LOOP('',(#1111,#1112,#1113,#1120,#1125,#1132,#1137,#1142,#1147,#1153,#1158,#1162));
#1111=ORIENTED_EDGE('',*,*,#426,.F.);
#1112=ORIENTED_EDGE('',*,*,#437,.T.);
#1113=ORIENTED_EDGE('',*,*,#1114,.T.);
#1114=EDGE_CURVE('',#438,#1115,#1117,.T.);
#1115=VERTEX_POINT('',#1116);
#1116=CARTESIAN_POINT('',(-0.948480775301,0.7,0.667364817767));
#1117=CIRCLE('',#1118,0.1);
#1118=AXIS2_PLACEMENT_3D('',#1119,#58,#13);
#1119=CARTESIAN_POINT('',(-0.85,0.7,0.65));
#1120=ORIENTED_EDGE('',*,*,#1121,.T.);
#1121=EDGE_CURVE('',#1115,#1122,#1124,.T.);
#1122=VERTEX_POINT('',#1123);
#1123=CARTESIAN_POINT('',(-1.02432885403,0.7,0.206587955583));
#1124=LINE('',#1116,#842);
#1125=ORIENTED_EDGE('',*,*,#1126,.T.);
#1126=EDGE_CURVE('',#1122,#1127,#1129,.T.);
#1127=VERTEX_POINT('',#1128);
#1128=CARTESIAN_POINT('',(-1.270530792283,0.7,0.));
#1129=CIRCLE('',#1130,0.25);
#1130=AXIS2_PLACEMENT_3D('',#1131,#86,#851);
#1131=CARTESIAN_POINT('',(-1.270530792283,0.7,0.25));
#1132=ORIENTED_EDGE('',*,*,#1133,.T.);
#1133=EDGE_CURVE('',#1127,#1134,#1136,.T.);
#1134=VERTEX_POINT('',#1135);
#1135=CARTESIAN_POINT('',(-1.4,0.7,0.));
#1136=LINE('',#1128,#71);
#1137=ORIENTED_EDGE('',*,*,#1138,.T.);
#1138=EDGE_CURVE('',#1134,#1139,#1141,.T.);
#1139=VERTEX_POINT('',#1140);
#1140=CARTESIAN_POINT('',(-1.4,0.7,0.15));
#1141=LINE('',#1135,#350);
#1142=ORIENTED_EDGE('',*,*,#1143,.T.);
#1143=EDGE_CURVE('',#1139,#1144,#1146,.T.);
#1144=VERTEX_POINT('',#1145);
#1145=CARTESIAN_POINT('',(-1.270530792283,0.7,0.15));
#1146=LINE('',#1140,#27);
#1147=ORIENTED_EDGE('',*,*,#1148,.T.);
#1148=EDGE_CURVE('',#1144,#1149,#1151,.T.);
#1149=VERTEX_POINT('',#1150);
#1150=CARTESIAN_POINT('',(-1.172050016982,0.7,0.232635182233));
#1151=CIRCLE('',#1152,1.E-01);
#1152=AXIS2_PLACEMENT_3D('',#1131,#58,#324);
#1153=ORIENTED_EDGE('',*,*,#1154,.T.);
#1154=EDGE_CURVE('',#1149,#1155,#1157,.T.);
#1155=VERTEX_POINT('',#1156);
#1156=CARTESIAN_POINT('',(-1.096201938253,0.7,0.693412044417));
#1157=LINE('',#1150,#878);
#1158=ORIENTED_EDGE('',*,*,#1159,.T.);
#1159=EDGE_CURVE('',#1155,#638,#1160,.T.);
#1160=CIRCLE('',#1161,0.25);
#1161=AXIS2_PLACEMENT_3D('',#1119,#86,#885);
#1162=ORIENTED_EDGE('',*,*,#637,.T.);
#1163=PLANE('',#1164);
#1164=AXIS2_PLACEMENT_3D('',#1165,#86,#13);
#1165=CARTESIAN_POINT('',(-1.069123385139,0.7,0.441695635315));
#1166=ADVANCED_FACE('',(#1167),#1181,.F.);
#1167=FACE_BOUND('',#1168,.F.);
#1168=EDGE_LOOP('',(#1169,#1170,#1177,#1180));
#1169=ORIENTED_EDGE('',*,*,#450,.T.);
#1170=ORIENTED_EDGE('',*,*,#1171,.T.);
#1171=EDGE_CURVE('',#445,#1172,#1174,.T.);
#1172=VERTEX_POINT('',#1173);
#1173=CARTESIAN_POINT('',(-0.948480775301,1.2,0.667364817767));
#1174=CIRCLE('',#1175,0.1);
#1175=AXIS2_PLACEMENT_3D('',#1176,#58,#13);
#1176=CARTESIAN_POINT('',(-0.85,1.2,0.65));
#1177=ORIENTED_EDGE('',*,*,#1178,.F.);
#1178=EDGE_CURVE('',#1115,#1172,#1179,.T.);
#1179=LINE('',#1116,#85);
#1180=ORIENTED_EDGE('',*,*,#1114,.F.);
#1181=CYLINDRICAL_SURFACE('',#1118,0.1);
#1182=ADVANCED_FACE('',(#1183),#1227,.T.);
#1183=FACE_BOUND('',#1184,.T.);
#1184=EDGE_LOOP('',(#457,#443,#1170,#1185,#1190,#1197,#1202,#1207,#1212,#1218,#1223,#645));
#1185=ORIENTED_EDGE('',*,*,#1186,.T.);
#1186=EDGE_CURVE('',#1172,#1187,#1189,.T.);
#1187=VERTEX_POINT('',#1188);
#1188=CARTESIAN_POINT('',(-1.02432885403,1.2,0.206587955583));
#1189=LINE('',#1173,#842);
#1190=ORIENTED_EDGE('',*,*,#1191,.T.);
#1191=EDGE_CURVE('',#1187,#1192,#1194,.T.);
#1192=VERTEX_POINT('',#1193);
#1193=CARTESIAN_POINT('',(-1.270530792283,1.2,0.));
#1194=CIRCLE('',#1195,0.25);
#1195=AXIS2_PLACEMENT_3D('',#1196,#86,#851);
#1196=CARTESIAN_POINT('',(-1.270530792283,1.2,0.25));
#1197=ORIENTED_EDGE('',*,*,#1198,.T.);
#1198=EDGE_CURVE('',#1192,#1199,#1201,.T.);
#1199=VERTEX_POINT('',#1200);
#1200=CARTESIAN_POINT('',(-1.4,1.2,0.));
#1201=LINE('',#1193,#71);
#1202=ORIENTED_EDGE('',*,*,#1203,.T.);
#1203=EDGE_CURVE('',#1199,#1204,#1206,.T.);
#1204=VERTEX_POINT('',#1205);
#1205=CARTESIAN_POINT('',(-1.4,1.2,0.15));
#1206=LINE('',#1200,#350);
#1207=ORIENTED_EDGE('',*,*,#1208,.T.);
#1208=EDGE_CURVE('',#1204,#1209,#1211,.T.);
#1209=VERTEX_POINT('',#1210);
#1210=CARTESIAN_POINT('',(-1.270530792283,1.2,0.15));
#1211=LINE('',#1205,#27);
#1212=ORIENTED_EDGE('',*,*,#1213,.T.);
#1213=EDGE_CURVE('',#1209,#1214,#1216,.T.);
#1214=VERTEX_POINT('',#1215);
#1215=CARTESIAN_POINT('',(-1.172050016982,1.2,0.232635182233));
#1216=CIRCLE('',#1217,1.E-01);
#1217=AXIS2_PLACEMENT_3D('',#1196,#58,#324);
#1218=ORIENTED_EDGE('',*,*,#1219,.T.);
#1219=EDGE_CURVE('',#1214,#1220,#1222,.T.);
#1220=VERTEX_POINT('',#1221);
#1221=CARTESIAN_POINT('',(-1.096201938253,1.2,0.693412044417));
#1222=LINE('',#1215,#878);
#1223=ORIENTED_EDGE('',*,*,#1224,.T.);
#1224=EDGE_CURVE('',#1220,#643,#1225,.T.);
#1225=CIRCLE('',#1226,0.25);
#1226=AXIS2_PLACEMENT_3D('',#1176,#86,#885);
#1227=PLANE('',#1228);
#1228=AXIS2_PLACEMENT_3D('',#1229,#86,#13);
#1229=CARTESIAN_POINT('',(-1.069123385139,1.2,0.441695635315));
#1230=ADVANCED_FACE('',(#1231),#1291,.F.);
#1231=FACE_BOUND('',#1232,.F.);
#1232=EDGE_LOOP('',(#1233,#1234,#1235,#1242,#1249,#1257,#1262,#1267,#1272,#1278,#1285,#1290));
#1233=ORIENTED_EDGE('',*,*,#470,.F.);
#1234=ORIENTED_EDGE('',*,*,#480,.T.);
#1235=ORIENTED_EDGE('',*,*,#1236,.T.);
#1236=EDGE_CURVE('',#481,#1237,#1239,.T.);
#1237=VERTEX_POINT('',#1238);
#1238=CARTESIAN_POINT('',(0.948480775301,1.2,0.667364817767));
#1239=CIRCLE('',#1240,0.1);
#1240=AXIS2_PLACEMENT_3D('',#1241,#86,#13);
#1241=CARTESIAN_POINT('',(0.85,1.2,0.65));
#1242=ORIENTED_EDGE('',*,*,#1243,.T.);
#1243=EDGE_CURVE('',#1237,#1244,#1246,.T.);
#1244=VERTEX_POINT('',#1245);
#1245=CARTESIAN_POINT('',(1.02432885403,1.2,0.206587955583));
#1246=LINE('',#1238,#1247);
#1247=VECTOR('',#1248,1.);
#1248=DIRECTION('',(0.162423314012,1.803261029519E-17,-0.986721169868));
#1249=ORIENTED_EDGE('',*,*,#1250,.T.);
#1250=EDGE_CURVE('',#1244,#1251,#1253,.T.);
#1251=VERTEX_POINT('',#1252);
#1252=CARTESIAN_POINT('',(1.270530792283,1.2,0.));
#1253=CIRCLE('',#1254,0.25);
#1254=AXIS2_PLACEMENT_3D('',#1255,#58,#1256);
#1255=CARTESIAN_POINT('',(1.270530792283,1.2,0.25));
#1256=DIRECTION('',(-0.984807753012,-1.093356242224E-16,-0.173648177667));
#1257=ORIENTED_EDGE('',*,*,#1258,.T.);
#1258=EDGE_CURVE('',#1251,#1259,#1261,.T.);
#1259=VERTEX_POINT('',#1260);
#1260=CARTESIAN_POINT('',(1.4,1.2,0.));
#1261=LINE('',#1252,#27);
#1262=ORIENTED_EDGE('',*,*,#1263,.T.);
#1263=EDGE_CURVE('',#1259,#1264,#1266,.T.);
#1264=VERTEX_POINT('',#1265);
#1265=CARTESIAN_POINT('',(1.4,1.2,0.15));
#1266=LINE('',#1260,#350);
#1267=ORIENTED_EDGE('',*,*,#1268,.T.);
#1268=EDGE_CURVE('',#1264,#1269,#1271,.T.);
#1269=VERTEX_POINT('',#1270);
#1270=CARTESIAN_POINT('',(1.270530792283,1.2,0.15));
#1271=LINE('',#1265,#71);
#1272=ORIENTED_EDGE('',*,*,#1273,.T.);
#1273=EDGE_CURVE('',#1269,#1274,#1276,.T.);
#1274=VERTEX_POINT('',#1275);
#1275=CARTESIAN_POINT('',(1.172050016982,1.2,0.232635182233));
#1276=CIRCLE('',#1277,1.E-01);
#1277=AXIS2_PLACEMENT_3D('',#1255,#86,#324);
#1278=ORIENTED_EDGE('',*,*,#1279,.T.);
#1279=EDGE_CURVE('',#1274,#1280,#1282,.T.);
#1280=VERTEX_POINT('',#1281);
#1281=CARTESIAN_POINT('',(1.096201938253,1.2,0.693412044417));
#1282=LINE('',#1275,#1283);
#1283=VECTOR('',#1284,1.);
#1284=DIRECTION('',(-0.162423314012,-1.803261029519E-17,0.986721169868));
#1285=ORIENTED_EDGE('',*,*,#1286,.T.);
#1286=EDGE_CURVE('',#1280,#779,#1287,.T.);
#1287=CIRCLE('',#1288,0.25);
#1288=AXIS2_PLACEMENT_3D('',#1241,#58,#1289);
#1289=DIRECTION('',(0.984807753012,1.093356242224E-16,0.173648177667));
#1290=ORIENTED_EDGE('',*,*,#778,.T.);
#1291=PLANE('',#1292);
#1292=AXIS2_PLACEMENT_3D('',#1293,#58,#13);
#1293=CARTESIAN_POINT('',(1.069123385139,1.2,0.441695635315));
#1294=ADVANCED_FACE('',(#1295),#1309,.F.);
#1295=FACE_BOUND('',#1296,.F.);
#1296=EDGE_LOOP('',(#1297,#1298,#1305,#1308));
#1297=ORIENTED_EDGE('',*,*,#493,.T.);
#1298=ORIENTED_EDGE('',*,*,#1299,.T.);
#1299=EDGE_CURVE('',#488,#1300,#1302,.T.);
#1300=VERTEX_POINT('',#1301);
#1301=CARTESIAN_POINT('',(0.948480775301,0.7,0.667364817767));
#1302=CIRCLE('',#1303,0.1);
#1303=AXIS2_PLACEMENT_3D('',#1304,#86,#13);
#1304=CARTESIAN_POINT('',(0.85,0.7,0.65));
#1305=ORIENTED_EDGE('',*,*,#1306,.F.);
#1306=EDGE_CURVE('',#1237,#1300,#1307,.T.);
#1307=LINE('',#1238,#57);
#1308=ORIENTED_EDGE('',*,*,#1236,.F.);
#1309=CYLINDRICAL_SURFACE('',#1240,0.1);
#1310=ADVANCED_FACE('',(#1311),#1355,.T.);
#1311=FACE_BOUND('',#1312,.T.);
#1312=EDGE_LOOP('',(#500,#486,#1298,#1313,#1318,#1325,#1330,#1335,#1340,#1346,#1351,#785));
#1313=ORIENTED_EDGE('',*,*,#1314,.T.);
#1314=EDGE_CURVE('',#1300,#1315,#1317,.T.);
#1315=VERTEX_POINT('',#1316);
#1316=CARTESIAN_POINT('',(1.02432885403,0.7,0.206587955583));
#1317=LINE('',#1301,#1247);
#1318=ORIENTED_EDGE('',*,*,#1319,.T.);
#1319=EDGE_CURVE('',#1315,#1320,#1322,.T.);
#1320=VERTEX_POINT('',#1321);
#1321=CARTESIAN_POINT('',(1.270530792283,0.7,0.));
#1322=CIRCLE('',#1323,0.25);
#1323=AXIS2_PLACEMENT_3D('',#1324,#58,#1256);
#1324=CARTESIAN_POINT('',(1.270530792283,0.7,0.25));
#1325=ORIENTED_EDGE('',*,*,#1326,.T.);
#1326=EDGE_CURVE('',#1320,#1327,#1329,.T.);
#1327=VERTEX_POINT('',#1328);
#1328=CARTESIAN_POINT('',(1.4,0.7,0.));
#1329=LINE('',#1321,#27);
#1330=ORIENTED_EDGE('',*,*,#1331,.T.);
#1331=EDGE_CURVE('',#1327,#1332,#1334,.T.);
#1332=VERTEX_POINT('',#1333);
#1333=CARTESIAN_POINT('',(1.4,0.7,0.15));
#1334=LINE('',#1328,#350);
#1335=ORIENTED_EDGE('',*,*,#1336,.T.);
#1336=EDGE_CURVE('',#1332,#1337,#1339,.T.);
#1337=VERTEX_POINT('',#1338);
#1338=CARTESIAN_POINT('',(1.270530792283,0.7,0.15));
#1339=LINE('',#1333,#71);
#1340=ORIENTED_EDGE('',*,*,#1341,.T.);
#1341=EDGE_CURVE('',#1337,#1342,#1344,.T.);
#1342=VERTEX_POINT('',#1343);
#1343=CARTESIAN_POINT('',(1.172050016982,0.7,0.232635182233));
#1344=CIRCLE('',#1345,1.E-01);
#1345=AXIS2_PLACEMENT_3D('',#1324,#86,#324);
#1346=ORIENTED_EDGE('',*,*,#1347,.T.);
#1347=EDGE_CURVE('',#1342,#1348,#1350,.T.);
#1348=VERTEX_POINT('',#1349);
#1349=CARTESIAN_POINT('',(1.096201938253,0.7,0.693412044417));
#1350=LINE('',#1343,#1283);
#1351=ORIENTED_EDGE('',*,*,#1352,.T.);
#1352=EDGE_CURVE('',#1348,#782,#1353,.T.);
#1353=CIRCLE('',#1354,0.25);
#1354=AXIS2_PLACEMENT_3D('',#1304,#58,#1289);
#1355=PLANE('',#1356);
#1356=AXIS2_PLACEMENT_3D('',#1357,#58,#13);
#1357=CARTESIAN_POINT('',(1.069123385139,0.7,0.441695635315));
#1358=ADVANCED_FACE('',(#1359),#321,.F.);
#1359=FACE_BOUND('',#1360,.F.);
#1360=EDGE_LOOP('',(#1361,#1362,#1363,#1367));
#1361=ORIENTED_EDGE('',*,*,#789,.F.);
#1362=ORIENTED_EDGE('',*,*,#514,.T.);
#1363=ORIENTED_EDGE('',*,*,#1364,.T.);
#1364=EDGE_CURVE('',#509,#746,#1365,.T.);
#1365=LINE('',#1366,#71);
#1366=CARTESIAN_POINT('',(0.85,0.25,0.9));
#1367=ORIENTED_EDGE('',*,*,#745,.F.);
#1368=ADVANCED_FACE('',(#1369),#1425,.F.);
#1369=FACE_BOUND('',#1370,.F.);
#1370=EDGE_LOOP('',(#1371,#1372,#1373,#1380,#1385,#1392,#1397,#1402,#1407,#1413,#1418,#1423));
#1371=ORIENTED_EDGE('',*,*,#508,.F.);
#1372=ORIENTED_EDGE('',*,*,#519,.T.);
#1373=ORIENTED_EDGE('',*,*,#1374,.T.);
#1374=EDGE_CURVE('',#520,#1375,#1377,.T.);
#1375=VERTEX_POINT('',#1376);
#1376=CARTESIAN_POINT('',(0.948480775301,0.25,0.667364817767));
#1377=CIRCLE('',#1378,0.1);
#1378=AXIS2_PLACEMENT_3D('',#1379,#86,#13);
#1379=CARTESIAN_POINT('',(0.85,0.25,0.65));
#1380=ORIENTED_EDGE('',*,*,#1381,.T.);
#1381=EDGE_CURVE('',#1375,#1382,#1384,.T.);
#1382=VERTEX_POINT('',#1383);
#1383=CARTESIAN_POINT('',(1.02432885403,0.25,0.206587955583));
#1384=LINE('',#1376,#1247);
#1385=ORIENTED_EDGE('',*,*,#1386,.T.);
#1386=EDGE_CURVE('',#1382,#1387,#1389,.T.);
#1387=VERTEX_POINT('',#1388);
#1388=CARTESIAN_POINT('',(1.270530792283,0.25,0.));
#1389=CIRCLE('',#1390,0.25);
#1390=AXIS2_PLACEMENT_3D('',#1391,#58,#1256);
#1391=CARTESIAN_POINT('',(1.270530792283,0.25,0.25));
#1392=ORIENTED_EDGE('',*,*,#1393,.T.);
#1393=EDGE_CURVE('',#1387,#1394,#1396,.T.);
#1394=VERTEX_POINT('',#1395);
#1395=CARTESIAN_POINT('',(1.4,0.25,0.));
#1396=LINE('',#1388,#27);
#1397=ORIENTED_EDGE('',*,*,#1398,.T.);
#1398=EDGE_CURVE('',#1394,#1399,#1401,.T.);
#1399=VERTEX_POINT('',#1400);
#1400=CARTESIAN_POINT('',(1.4,0.25,0.15));
#1401=LINE('',#1395,#350);
#1402=ORIENTED_EDGE('',*,*,#1403,.T.);
#1403=EDGE_CURVE('',#1399,#1404,#1406,.T.);
#1404=VERTEX_POINT('',#1405);
#1405=CARTESIAN_POINT('',(1.270530792283,0.25,0.15));
#1406=LINE('',#1400,#71);
#1407=ORIENTED_EDGE('',*,*,#1408,.T.);
#1408=EDGE_CURVE('',#1404,#1409,#1411,.T.);
#1409=VERTEX_POINT('',#1410);
#1410=CARTESIAN_POINT('',(1.172050016982,0.25,0.232635182233));
#1411=CIRCLE('',#1412,1.E-01);
#1412=AXIS2_PLACEMENT_3D('',#1391,#86,#324);
#1413=ORIENTED_EDGE('',*,*,#1414,.T.);
#1414=EDGE_CURVE('',#1409,#1415,#1417,.T.);
#1415=VERTEX_POINT('',#1416);
#1416=CARTESIAN_POINT('',(1.096201938253,0.25,0.693412044417));
#1417=LINE('',#1410,#1283);
#1418=ORIENTED_EDGE('',*,*,#1419,.T.);
#1419=EDGE_CURVE('',#1415,#1420,#1421,.T.);
#1420=VERTEX_POINT('',#1366);
#1421=CIRCLE('',#1422,0.25);
#1422=AXIS2_PLACEMENT_3D('',#1379,#58,#1289);
#1423=ORIENTED_EDGE('',*,*,#1424,.T.);
#1424=EDGE_CURVE('',#1420,#509,#1365,.T.);
#1425=PLANE('',#1426);
#1426=AXIS2_PLACEMENT_3D('',#1427,#58,#13);
#1427=CARTESIAN_POINT('',(1.069123385139,0.25,0.441695635315));
#1428=ADVANCED_FACE('',(#1429),#1443,.F.);
#1429=FACE_BOUND('',#1430,.F.);
#1430=EDGE_LOOP('',(#1431,#1432,#1439,#1442));
#1431=ORIENTED_EDGE('',*,*,#532,.T.);
#1432=ORIENTED_EDGE('',*,*,#1433,.T.);
#1433=EDGE_CURVE('',#527,#1434,#1436,.T.);
#1434=VERTEX_POINT('',#1435);
#1435=CARTESIAN_POINT('',(0.948480775301,-0.25,0.667364817767));
#1436=CIRCLE('',#1437,0.1);
#1437=AXIS2_PLACEMENT_3D('',#1438,#86,#13);
#1438=CARTESIAN_POINT('',(0.85,-0.25,0.65));
#1439=ORIENTED_EDGE('',*,*,#1440,.F.);
#1440=EDGE_CURVE('',#1375,#1434,#1441,.T.);
#1441=LINE('',#1376,#57);
#1442=ORIENTED_EDGE('',*,*,#1374,.F.);
#1443=CYLINDRICAL_SURFACE('',#1378,0.1);
#1444=ADVANCED_FACE('',(#1445),#1494,.T.);
#1445=FACE_BOUND('',#1446,.T.);
#1446=EDGE_LOOP('',(#539,#525,#1432,#1447,#1452,#1459,#1464,#1469,#1474,#1480,#1485,#1491));
#1447=ORIENTED_EDGE('',*,*,#1448,.T.);
#1448=EDGE_CURVE('',#1434,#1449,#1451,.T.);
#1449=VERTEX_POINT('',#1450);
#1450=CARTESIAN_POINT('',(1.02432885403,-0.25,0.206587955583));
#1451=LINE('',#1435,#1247);
#1452=ORIENTED_EDGE('',*,*,#1453,.T.);
#1453=EDGE_CURVE('',#1449,#1454,#1456,.T.);
#1454=VERTEX_POINT('',#1455);
#1455=CARTESIAN_POINT('',(1.270530792283,-0.25,0.));
#1456=CIRCLE('',#1457,0.25);
#1457=AXIS2_PLACEMENT_3D('',#1458,#58,#1256);
#1458=CARTESIAN_POINT('',(1.270530792283,-0.25,0.25));
#1459=ORIENTED_EDGE('',*,*,#1460,.T.);
#1460=EDGE_CURVE('',#1454,#1461,#1463,.T.);
#1461=VERTEX_POINT('',#1462);
#1462=CARTESIAN_POINT('',(1.4,-0.25,0.));
#1463=LINE('',#1455,#27);
#1464=ORIENTED_EDGE('',*,*,#1465,.T.);
#1465=EDGE_CURVE('',#1461,#1466,#1468,.T.);
#1466=VERTEX_POINT('',#1467);
#1467=CARTESIAN_POINT('',(1.4,-0.25,0.15));
#1468=LINE('',#1462,#350);
#1469=ORIENTED_EDGE('',*,*,#1470,.T.);
#1470=EDGE_CURVE('',#1466,#1471,#1473,.T.);
#1471=VERTEX_POINT('',#1472);
#1472=CARTESIAN_POINT('',(1.270530792283,-0.25,0.15));
#1473=LINE('',#1467,#71);
#1474=ORIENTED_EDGE('',*,*,#1475,.T.);
#1475=EDGE_CURVE('',#1471,#1476,#1478,.T.);
#1476=VERTEX_POINT('',#1477);
#1477=CARTESIAN_POINT('',(1.172050016982,-0.25,0.232635182233));
#1478=CIRCLE('',#1479,1.E-01);
#1479=AXIS2_PLACEMENT_3D('',#1458,#86,#324);
#1480=ORIENTED_EDGE('',*,*,#1481,.T.);
#1481=EDGE_CURVE('',#1476,#1482,#1484,.T.);
#1482=VERTEX_POINT('',#1483);
#1483=CARTESIAN_POINT('',(1.096201938253,-0.25,0.693412044417));
#1484=LINE('',#1477,#1283);
#1485=ORIENTED_EDGE('',*,*,#1486,.T.);
#1486=EDGE_CURVE('',#1482,#1487,#1489,.T.);
#1487=VERTEX_POINT('',#1488);
#1488=CARTESIAN_POINT('',(0.85,-0.25,0.9));
#1489=CIRCLE('',#1490,0.25);
#1490=AXIS2_PLACEMENT_3D('',#1438,#58,#1289);
#1491=ORIENTED_EDGE('',*,*,#1492,.T.);
#1492=EDGE_CURVE('',#1487,#541,#1493,.T.);
#1493=LINE('',#1488,#71);
#1494=PLANE('',#1495);
#1495=AXIS2_PLACEMENT_3D('',#1496,#58,#13);
#1496=CARTESIAN_POINT('',(1.069123385139,-0.25,0.441695635315));
#1497=ADVANCED_FACE('',(#1498),#321,.F.);
#1498=FACE_BOUND('',#1499,.F.);
#1499=EDGE_LOOP('',(#1500,#1502,#1503,#1507));
#1500=ORIENTED_EDGE('',*,*,#1501,.F.);
#1501=EDGE_CURVE('',#541,#750,#1493,.T.);
#1502=ORIENTED_EDGE('',*,*,#553,.T.);
#1503=ORIENTED_EDGE('',*,*,#1504,.T.);
#1504=EDGE_CURVE('',#548,#754,#1505,.T.);
#1505=LINE('',#1506,#71);
#1506=CARTESIAN_POINT('',(0.85,-0.7,0.9));
#1507=ORIENTED_EDGE('',*,*,#753,.F.);
#1508=ADVANCED_FACE('',(#1509),#1565,.F.);
#1509=FACE_BOUND('',#1510,.F.);
#1510=EDGE_LOOP('',(#1511,#1512,#1513,#1520,#1525,#1532,#1537,#1542,#1547,#1553,#1558,#1563));
#1511=ORIENTED_EDGE('',*,*,#547,.F.);
#1512=ORIENTED_EDGE('',*,*,#558,.T.);
#1513=ORIENTED_EDGE('',*,*,#1514,.T.);
#1514=EDGE_CURVE('',#559,#1515,#1517,.T.);
#1515=VERTEX_POINT('',#1516);
#1516=CARTESIAN_POINT('',(0.948480775301,-0.7,0.667364817767));
#1517=CIRCLE('',#1518,0.1);
#1518=AXIS2_PLACEMENT_3D('',#1519,#86,#13);
#1519=CARTESIAN_POINT('',(0.85,-0.7,0.65));
#1520=ORIENTED_EDGE('',*,*,#1521,.T.);
#1521=EDGE_CURVE('',#1515,#1522,#1524,.T.);
#1522=VERTEX_POINT('',#1523);
#1523=CARTESIAN_POINT('',(1.02432885403,-0.7,0.206587955583));
#1524=LINE('',#1516,#1247);
#1525=ORIENTED_EDGE('',*,*,#1526,.T.);
#1526=EDGE_CURVE('',#1522,#1527,#1529,.T.);
#1527=VERTEX_POINT('',#1528);
#1528=CARTESIAN_POINT('',(1.270530792283,-0.7,0.));
#1529=CIRCLE('',#1530,0.25);
#1530=AXIS2_PLACEMENT_3D('',#1531,#58,#1256);
#1531=CARTESIAN_POINT('',(1.270530792283,-0.7,0.25));
#1532=ORIENTED_EDGE('',*,*,#1533,.T.);
#1533=EDGE_CURVE('',#1527,#1534,#1536,.T.);
#1534=VERTEX_POINT('',#1535);
#1535=CARTESIAN_POINT('',(1.4,-0.7,0.));
#1536=LINE('',#1528,#27);
#1537=ORIENTED_EDGE('',*,*,#1538,.T.);
#1538=EDGE_CURVE('',#1534,#1539,#1541,.T.);
#1539=VERTEX_POINT('',#1540);
#1540=CARTESIAN_POINT('',(1.4,-0.7,0.15));
#1541=LINE('',#1535,#350);
#1542=ORIENTED_EDGE('',*,*,#1543,.T.);
#1543=EDGE_CURVE('',#1539,#1544,#1546,.T.);
#1544=VERTEX_POINT('',#1545);
#1545=CARTESIAN_POINT('',(1.270530792283,-0.7,0.15));
#1546=LINE('',#1540,#71);
#1547=ORIENTED_EDGE('',*,*,#1548,.T.);
#1548=EDGE_CURVE('',#1544,#1549,#1551,.T.);
#1549=VERTEX_POINT('',#1550);
#1550=CARTESIAN_POINT('',(1.172050016982,-0.7,0.232635182233));
#1551=CIRCLE('',#1552,1.E-01);
#1552=AXIS2_PLACEMENT_3D('',#1531,#86,#324);
#1553=ORIENTED_EDGE('',*,*,#1554,.T.);
#1554=EDGE_CURVE('',#1549,#1555,#1557,.T.);
#1555=VERTEX_POINT('',#1556);
#1556=CARTESIAN_POINT('',(1.096201938253,-0.7,0.693412044417));
#1557=LINE('',#1550,#1283);
#1558=ORIENTED_EDGE('',*,*,#1559,.T.);
#1559=EDGE_CURVE('',#1555,#1560,#1561,.T.);
#1560=VERTEX_POINT('',#1506);
#1561=CIRCLE('',#1562,0.25);
#1562=AXIS2_PLACEMENT_3D('',#1519,#58,#1289);
#1563=ORIENTED_EDGE('',*,*,#1564,.T.);
#1564=EDGE_CURVE('',#1560,#548,#1505,.T.);
#1565=PLANE('',#1566);
#1566=AXIS2_PLACEMENT_3D('',#1567,#58,#13);
#1567=CARTESIAN_POINT('',(1.069123385139,-0.7,0.441695635315));
#1568=ADVANCED_FACE('',(#1569),#1583,.F.);
#1569=FACE_BOUND('',#1570,.F.);
#1570=EDGE_LOOP('',(#1571,#1572,#1579,#1582));
#1571=ORIENTED_EDGE('',*,*,#571,.T.);
#1572=ORIENTED_EDGE('',*,*,#1573,.T.);
#1573=EDGE_CURVE('',#566,#1574,#1576,.T.);
#1574=VERTEX_POINT('',#1575);
#1575=CARTESIAN_POINT('',(0.948480775301,-1.2,0.667364817767));
#1576=CIRCLE('',#1577,0.1);
#1577=AXIS2_PLACEMENT_3D('',#1578,#86,#13);
#1578=CARTESIAN_POINT('',(0.85,-1.2,0.65));
#1579=ORIENTED_EDGE('',*,*,#1580,.F.);
#1580=EDGE_CURVE('',#1515,#1574,#1581,.T.);
#1581=LINE('',#1516,#57);
#1582=ORIENTED_EDGE('',*,*,#1514,.F.);
#1583=CYLINDRICAL_SURFACE('',#1518,0.1);
#1584=ADVANCED_FACE('',(#1585),#1632,.T.);
#1585=FACE_BOUND('',#1586,.T.);
#1586=EDGE_LOOP('',(#578,#564,#1572,#1587,#1592,#1599,#1604,#1609,#1614,#1620,#1625,#1630));
#1587=ORIENTED_EDGE('',*,*,#1588,.T.);
#1588=EDGE_CURVE('',#1574,#1589,#1591,.T.);
#1589=VERTEX_POINT('',#1590);
#1590=CARTESIAN_POINT('',(1.02432885403,-1.2,0.206587955583));
#1591=LINE('',#1575,#1247);
#1592=ORIENTED_EDGE('',*,*,#1593,.T.);
#1593=EDGE_CURVE('',#1589,#1594,#1596,.T.);
#1594=VERTEX_POINT('',#1595);
#1595=CARTESIAN_POINT('',(1.270530792283,-1.2,0.));
#1596=CIRCLE('',#1597,0.25);
#1597=AXIS2_PLACEMENT_3D('',#1598,#58,#1256);
#1598=CARTESIAN_POINT('',(1.270530792283,-1.2,0.25));
#1599=ORIENTED_EDGE('',*,*,#1600,.T.);
#1600=EDGE_CURVE('',#1594,#1601,#1603,.T.);
#1601=VERTEX_POINT('',#1602);
#1602=CARTESIAN_POINT('',(1.4,-1.2,0.));
#1603=LINE('',#1595,#27);
#1604=ORIENTED_EDGE('',*,*,#1605,.T.);
#1605=EDGE_CURVE('',#1601,#1606,#1608,.T.);
#1606=VERTEX_POINT('',#1607);
#1607=CARTESIAN_POINT('',(1.4,-1.2,0.15));
#1608=LINE('',#1602,#350);
#1609=ORIENTED_EDGE('',*,*,#1610,.T.);
#1610=EDGE_CURVE('',#1606,#1611,#1613,.T.);
#1611=VERTEX_POINT('',#1612);
#1612=CARTESIAN_POINT('',(1.270530792283,-1.2,0.15));
#1613=LINE('',#1607,#71);
#1614=ORIENTED_EDGE('',*,*,#1615,.T.);
#1615=EDGE_CURVE('',#1611,#1616,#1618,.T.);
#1616=VERTEX_POINT('',#1617);
#1617=CARTESIAN_POINT('',(1.172050016982,-1.2,0.232635182233));
#1618=CIRCLE('',#1619,1.E-01);
#1619=AXIS2_PLACEMENT_3D('',#1598,#86,#324);
#1620=ORIENTED_EDGE('',*,*,#1621,.T.);
#1621=EDGE_CURVE('',#1616,#1622,#1624,.T.);
#1622=VERTEX_POINT('',#1623);
#1623=CARTESIAN_POINT('',(1.096201938253,-1.2,0.693412044417));
#1624=LINE('',#1617,#1283);
#1625=ORIENTED_EDGE('',*,*,#1626,.T.);
#1626=EDGE_CURVE('',#1622,#1627,#1628,.T.);
#1627=VERTEX_POINT('',#820);
#1628=CIRCLE('',#1629,0.25);
#1629=AXIS2_PLACEMENT_3D('',#1578,#58,#1289);
#1630=ORIENTED_EDGE('',*,*,#1631,.T.);
#1631=EDGE_CURVE('',#1627,#580,#819,.T.);
#1632=PLANE('',#1633);
#1633=AXIS2_PLACEMENT_3D('',#1634,#58,#13);
#1634=CARTESIAN_POINT('',(1.069123385139,-1.2,0.441695635315));
#1635=ADVANCED_FACE('',(#1636),#1643,.T.);
#1636=FACE_BOUND('',#1637,.F.);
#1637=EDGE_LOOP('',(#1638,#1223,#1641,#1642));
#1638=ORIENTED_EDGE('',*,*,#1639,.T.);
#1639=EDGE_CURVE('',#1155,#1220,#1640,.T.);
#1640=LINE('',#1156,#85);
#1641=ORIENTED_EDGE('',*,*,#642,.F.);
#1642=ORIENTED_EDGE('',*,*,#1159,.F.);
#1643=CYLINDRICAL_SURFACE('',#1644,0.25);
#1644=AXIS2_PLACEMENT_3D('',#1119,#58,#885);
#1645=ADVANCED_FACE('',(#1646),#1655,.F.);
#1646=FACE_BOUND('',#1647,.F.);
#1647=EDGE_LOOP('',(#1648,#1649,#954,#1652,#1653,#1654));
#1648=ORIENTED_EDGE('',*,*,#887,.F.);
#1649=ORIENTED_EDGE('',*,*,#1650,.T.);
#1650=EDGE_CURVE('',#882,#950,#1651,.T.);
#1651=LINE('',#801,#85);
#1652=ORIENTED_EDGE('',*,*,#970,.T.);
#1653=ORIENTED_EDGE('',*,*,#665,.F.);
#1654=ORIENTED_EDGE('',*,*,#799,.F.);
#1655=PLANE('',#1656);
#1656=AXIS2_PLACEMENT_3D('',#801,#324,#14);
#1657=ADVANCED_FACE('',(#1658),#1667,.F.);
#1658=FACE_BOUND('',#1659,.F.);
#1659=EDGE_LOOP('',(#1660,#1661,#1094,#1664,#1665,#1666));
#1660=ORIENTED_EDGE('',*,*,#1027,.F.);
#1661=ORIENTED_EDGE('',*,*,#1662,.T.);
#1662=EDGE_CURVE('',#1023,#1090,#1663,.T.);
#1663=LINE('',#967,#85);
#1664=ORIENTED_EDGE('',*,*,#1107,.T.);
#1665=ORIENTED_EDGE('',*,*,#673,.F.);
#1666=ORIENTED_EDGE('',*,*,#965,.F.);
#1667=PLANE('',#1668);
#1668=AXIS2_PLACEMENT_3D('',#967,#324,#14);
#1669=ADVANCED_FACE('',(#1670,#1685),#1694,.T.);
#1670=FACE_BOUND('',#1671,.T.);
#1671=EDGE_LOOP('',(#717,#703,#685,#1672,#1677,#1682,#769,#731));
#1672=ORIENTED_EDGE('',*,*,#1673,.F.);
#1673=EDGE_CURVE('',#1674,#687,#1676,.T.);
#1674=VERTEX_POINT('',#1675);
#1675=CARTESIAN_POINT('',(-0.646824228722,-1.333648457443,1.55));
#1676=LINE('',#1675,#78);
#1677=ORIENTED_EDGE('',*,*,#1678,.F.);
#1678=EDGE_CURVE('',#1679,#1674,#1681,.T.);
#1679=VERTEX_POINT('',#1680);
#1680=CARTESIAN_POINT('',(0.646824228722,-1.333648457443,1.55));
#1681=LINE('',#1680,#71);
#1682=ORIENTED_EDGE('',*,*,#1683,.F.);
#1683=EDGE_CURVE('',#766,#1679,#1684,.T.);
#1684=LINE('',#767,#64);
#1685=FACE_BOUND('',#1686,.T.);
#1686=EDGE_LOOP('',(#1687));
#1687=ORIENTED_EDGE('',*,*,#1688,.T.);
#1688=EDGE_CURVE('',#1689,#1689,#1691,.T.);
#1689=VERTEX_POINT('',#1690);
#1690=CARTESIAN_POINT('',(-0.333648457443,0.858648457443,1.55));
#1691=CIRCLE('',#1692,0.125);
#1692=AXIS2_PLACEMENT_3D('',#1693,#324,#58);
#1693=CARTESIAN_POINT('',(-0.333648457443,0.983648457443,1.55));
#1694=PLANE('',#1695);
#1695=AXIS2_PLACEMENT_3D('',#701,#13,#1696);
#1696=DIRECTION('',(0.436386464522,-0.899759330922,0.));
#1697=ADVANCED_FACE('',(#1698),#1705,.F.);
#1698=FACE_BOUND('',#1699,.F.);
#1699=EDGE_LOOP('',(#1700,#1701,#1672,#1702));
#1700=ORIENTED_EDGE('',*,*,#804,.T.);
#1701=ORIENTED_EDGE('',*,*,#691,.T.);
#1702=ORIENTED_EDGE('',*,*,#1703,.F.);
#1703=EDGE_CURVE('',#805,#1674,#1704,.T.);
#1704=B_SPLINE_CURVE_WITH_KNOTS('',1,(#806,#1675),.UNSPECIFIED.,.F.,.F.,(2,2),(0.,1.),.PIECEWISE_BEZIER_KNOTS.);
#1705=B_SPLINE_SURFACE_WITH_KNOTS('',1,1,((#806,#1675),(#310,#688)),.UNSPECIFIED.,.F.,.F.,.F.,(2,2),(2,2),(0.,0.116672618896),(0.,1.),.PIECEWISE_BEZIER_KNOTS.);
#1706=ADVANCED_FACE('',(#1707),#1716,.F.);
#1707=FACE_BOUND('',#1708,.F.);
#1708=EDGE_LOOP('',(#1709,#1710,#1491,#1713,#1714,#1715));
#1709=ORIENTED_EDGE('',*,*,#1424,.F.);
#1710=ORIENTED_EDGE('',*,*,#1711,.T.);
#1711=EDGE_CURVE('',#1420,#1487,#1712,.T.);
#1712=LINE('',#1366,#57);
#1713=ORIENTED_EDGE('',*,*,#1501,.T.);
#1714=ORIENTED_EDGE('',*,*,#749,.F.);
#1715=ORIENTED_EDGE('',*,*,#1364,.F.);
#1716=PLANE('',#1717);
#1717=AXIS2_PLACEMENT_3D('',#1366,#324,#72);
#1718=ADVANCED_FACE('',(#1719),#1728,.F.);
#1719=FACE_BOUND('',#1720,.F.);
#1720=EDGE_LOOP('',(#1721,#1722,#1630,#1725,#1726,#1727));
#1721=ORIENTED_EDGE('',*,*,#1564,.F.);
#1722=ORIENTED_EDGE('',*,*,#1723,.T.);
#1723=EDGE_CURVE('',#1560,#1627,#1724,.T.);
#1724=LINE('',#1506,#57);
#1725=ORIENTED_EDGE('',*,*,#818,.T.);
#1726=ORIENTED_EDGE('',*,*,#757,.F.);
#1727=ORIENTED_EDGE('',*,*,#1504,.F.);
#1728=PLANE('',#1729);
#1729=AXIS2_PLACEMENT_3D('',#1506,#324,#72);
#1730=ADVANCED_FACE('',(#1731),#1738,.F.);
#1731=FACE_BOUND('',#1732,.F.);
#1732=EDGE_LOOP('',(#1733,#1734,#1682,#1737));
#1733=ORIENTED_EDGE('',*,*,#814,.T.);
#1734=ORIENTED_EDGE('',*,*,#1735,.T.);
#1735=EDGE_CURVE('',#810,#1679,#1736,.T.);
#1736=B_SPLINE_CURVE_WITH_KNOTS('',1,(#811,#1680),.UNSPECIFIED.,.F.,.F.,(2,2),(0.,1.),.PIECEWISE_BEZIER_KNOTS.);
#1737=ORIENTED_EDGE('',*,*,#765,.F.);
#1738=B_SPLINE_SURFACE_WITH_KNOTS('',1,1,((#763,#767),(#811,#1680)),.UNSPECIFIED.,.F.,.F.,.F.,(2,2),(2,2),(0.,0.116672618896),(0.,1.),.PIECEWISE_BEZIER_KNOTS.);
#1739=ADVANCED_FACE('',(#1740),#1747,.T.);
#1740=FACE_BOUND('',#1741,.F.);
#1741=EDGE_LOOP('',(#1742,#1351,#1745,#1746));
#1742=ORIENTED_EDGE('',*,*,#1743,.T.);
#1743=EDGE_CURVE('',#1280,#1348,#1744,.T.);
#1744=LINE('',#1281,#57);
#1745=ORIENTED_EDGE('',*,*,#781,.F.);
#1746=ORIENTED_EDGE('',*,*,#1286,.F.);
#1747=CYLINDRICAL_SURFACE('',#1748,0.25);
#1748=AXIS2_PLACEMENT_3D('',#1241,#86,#1289);
#1749=ADVANCED_FACE('',(#1750),#1755,.F.);
#1750=FACE_BOUND('',#1751,.F.);
#1751=EDGE_LOOP('',(#1752,#1753,#1677,#1754));
#1752=ORIENTED_EDGE('',*,*,#809,.T.);
#1753=ORIENTED_EDGE('',*,*,#1703,.T.);
#1754=ORIENTED_EDGE('',*,*,#1735,.F.);
#1755=B_SPLINE_SURFACE_WITH_KNOTS('',1,1,((#811,#1680),(#806,#1675)),.UNSPECIFIED.,.F.,.F.,.F.,(2,2),(2,2),(0.,1.385),(0.,1.),.PIECEWISE_BEZIER_KNOTS.);
#1756=ADVANCED_FACE('',(#1757),#1764,.T.);
#1757=FACE_BOUND('',#1758,.F.);
#1758=EDGE_LOOP('',(#1759,#948,#1762,#1763));
#1759=ORIENTED_EDGE('',*,*,#1760,.T.);
#1760=EDGE_CURVE('',#875,#945,#1761,.T.);
#1761=LINE('',#876,#85);
#1762=ORIENTED_EDGE('',*,*,#1650,.F.);
#1763=ORIENTED_EDGE('',*,*,#881,.F.);
#1764=CYLINDRICAL_SURFACE('',#1765,0.25);
#1765=AXIS2_PLACEMENT_3D('',#836,#58,#885);
#1766=ADVANCED_FACE('',(#1767),#1774,.F.);
#1767=FACE_BOUND('',#1768,.F.);
#1768=EDGE_LOOP('',(#1769,#943,#1772,#1773));
#1769=ORIENTED_EDGE('',*,*,#1770,.T.);
#1770=EDGE_CURVE('',#869,#939,#1771,.T.);
#1771=LINE('',#870,#85);
#1772=ORIENTED_EDGE('',*,*,#1760,.F.);
#1773=ORIENTED_EDGE('',*,*,#874,.F.);
#1774=PLANE('',#1775);
#1775=AXIS2_PLACEMENT_3D('',#870,#1776,#879);
#1776=DIRECTION('',(0.986721169868,-1.129043606572E-17,-0.162423314012));
#1777=ADVANCED_FACE('',(#1778),#1785,.F.);
#1778=FACE_BOUND('',#1779,.F.);
#1779=EDGE_LOOP('',(#1780,#937,#1783,#1784));
#1780=ORIENTED_EDGE('',*,*,#1781,.T.);
#1781=EDGE_CURVE('',#864,#934,#1782,.T.);
#1782=LINE('',#865,#85);
#1783=ORIENTED_EDGE('',*,*,#1770,.F.);
#1784=ORIENTED_EDGE('',*,*,#868,.F.);
#1785=CYLINDRICAL_SURFACE('',#872,1.E-01);
#1786=ADVANCED_FACE('',(#1787),#1794,.F.);
#1787=FACE_BOUND('',#1788,.F.);
#1788=EDGE_LOOP('',(#1789,#932,#1792,#1793));
#1789=ORIENTED_EDGE('',*,*,#1790,.T.);
#1790=EDGE_CURVE('',#859,#929,#1791,.T.);
#1791=LINE('',#860,#85);
#1792=ORIENTED_EDGE('',*,*,#1781,.F.);
#1793=ORIENTED_EDGE('',*,*,#863,.F.);
#1794=PLANE('',#1795);
#1795=AXIS2_PLACEMENT_3D('',#860,#324,#14);
#1796=ADVANCED_FACE('',(#1797),#1804,.F.);
#1797=FACE_BOUND('',#1798,.F.);
#1798=EDGE_LOOP('',(#1799,#927,#1802,#1803));
#1799=ORIENTED_EDGE('',*,*,#1800,.T.);
#1800=EDGE_CURVE('',#854,#924,#1801,.T.);
#1801=LINE('',#855,#85);
#1802=ORIENTED_EDGE('',*,*,#1790,.F.);
#1803=ORIENTED_EDGE('',*,*,#858,.F.);
#1804=PLANE('',#1805);
#1805=AXIS2_PLACEMENT_3D('',#855,#14,#13);
#1806=ADVANCED_FACE('',(#1807),#1814,.F.);
#1807=FACE_BOUND('',#1808,.F.);
#1808=EDGE_LOOP('',(#1809,#922,#1812,#1813));
#1809=ORIENTED_EDGE('',*,*,#1810,.T.);
#1810=EDGE_CURVE('',#846,#917,#1811,.T.);
#1811=LINE('',#847,#85);
#1812=ORIENTED_EDGE('',*,*,#1800,.F.);
#1813=ORIENTED_EDGE('',*,*,#853,.F.);
#1814=PLANE('',#1815);
#1815=AXIS2_PLACEMENT_3D('',#847,#13,#72);
#1816=ADVANCED_FACE('',(#1817),#1824,.T.);
#1817=FACE_BOUND('',#1818,.F.);
#1818=EDGE_LOOP('',(#1819,#915,#1822,#1823));
#1819=ORIENTED_EDGE('',*,*,#1820,.T.);
#1820=EDGE_CURVE('',#839,#912,#1821,.T.);
#1821=LINE('',#840,#85);
#1822=ORIENTED_EDGE('',*,*,#1810,.F.);
#1823=ORIENTED_EDGE('',*,*,#845,.F.);
#1824=CYLINDRICAL_SURFACE('',#1825,0.25);
#1825=AXIS2_PLACEMENT_3D('',#850,#58,#851);
#1826=ADVANCED_FACE('',(#1827),#1832,.F.);
#1827=FACE_BOUND('',#1828,.F.);
#1828=EDGE_LOOP('',(#1829,#910,#1830,#1831));
#1829=ORIENTED_EDGE('',*,*,#903,.T.);
#1830=ORIENTED_EDGE('',*,*,#1820,.F.);
#1831=ORIENTED_EDGE('',*,*,#838,.F.);
#1832=PLANE('',#1833);
#1833=AXIS2_PLACEMENT_3D('',#833,#1834,#843);
#1834=DIRECTION('',(-0.986721169868,1.129043606572E-17,0.162423314012));
#1835=ADVANCED_FACE('',(#1836),#1843,.T.);
#1836=FACE_BOUND('',#1837,.F.);
#1837=EDGE_LOOP('',(#1838,#1088,#1841,#1842));
#1838=ORIENTED_EDGE('',*,*,#1839,.T.);
#1839=EDGE_CURVE('',#1018,#1085,#1840,.T.);
#1840=LINE('',#1019,#85);
#1841=ORIENTED_EDGE('',*,*,#1662,.F.);
#1842=ORIENTED_EDGE('',*,*,#1022,.F.);
#1843=CYLINDRICAL_SURFACE('',#1844,0.25);
#1844=AXIS2_PLACEMENT_3D('',#982,#58,#885);
#1845=ADVANCED_FACE('',(#1846),#1853,.F.);
#1846=FACE_BOUND('',#1847,.F.);
#1847=EDGE_LOOP('',(#1848,#1083,#1851,#1852));
#1848=ORIENTED_EDGE('',*,*,#1849,.T.);
#1849=EDGE_CURVE('',#1012,#1079,#1850,.T.);
#1850=LINE('',#1013,#85);
#1851=ORIENTED_EDGE('',*,*,#1839,.F.);
#1852=ORIENTED_EDGE('',*,*,#1017,.F.);
#1853=PLANE('',#1854);
#1854=AXIS2_PLACEMENT_3D('',#1013,#1776,#879);
#1855=ADVANCED_FACE('',(#1856),#1863,.F.);
#1856=FACE_BOUND('',#1857,.F.);
#1857=EDGE_LOOP('',(#1858,#1077,#1861,#1862));
#1858=ORIENTED_EDGE('',*,*,#1859,.T.);
#1859=EDGE_CURVE('',#1007,#1074,#1860,.T.);
#1860=LINE('',#1008,#85);
#1861=ORIENTED_EDGE('',*,*,#1849,.F.);
#1862=ORIENTED_EDGE('',*,*,#1011,.F.);
#1863=CYLINDRICAL_SURFACE('',#1015,1.E-01);
#1864=ADVANCED_FACE('',(#1865),#1872,.F.);
#1865=FACE_BOUND('',#1866,.F.);
#1866=EDGE_LOOP('',(#1867,#1072,#1870,#1871));
#1867=ORIENTED_EDGE('',*,*,#1868,.T.);
#1868=EDGE_CURVE('',#1002,#1069,#1869,.T.);
#1869=LINE('',#1003,#85);
#1870=ORIENTED_EDGE('',*,*,#1859,.F.);
#1871=ORIENTED_EDGE('',*,*,#1006,.F.);
#1872=PLANE('',#1873);
#1873=AXIS2_PLACEMENT_3D('',#1003,#324,#14);
#1874=ADVANCED_FACE('',(#1875),#1882,.F.);
#1875=FACE_BOUND('',#1876,.F.);
#1876=EDGE_LOOP('',(#1877,#1067,#1880,#1881));
#1877=ORIENTED_EDGE('',*,*,#1878,.T.);
#1878=EDGE_CURVE('',#997,#1064,#1879,.T.);
#1879=LINE('',#998,#85);
#1880=ORIENTED_EDGE('',*,*,#1868,.F.);
#1881=ORIENTED_EDGE('',*,*,#1001,.F.);
#1882=PLANE('',#1883);
#1883=AXIS2_PLACEMENT_3D('',#998,#14,#13);
#1884=ADVANCED_FACE('',(#1885),#1892,.F.);
#1885=FACE_BOUND('',#1886,.F.);
#1886=EDGE_LOOP('',(#1887,#1062,#1890,#1891));
#1887=ORIENTED_EDGE('',*,*,#1888,.T.);
#1888=EDGE_CURVE('',#990,#1057,#1889,.T.);
#1889=LINE('',#991,#85);
#1890=ORIENTED_EDGE('',*,*,#1878,.F.);
#1891=ORIENTED_EDGE('',*,*,#996,.F.);
#1892=PLANE('',#1893);
#1893=AXIS2_PLACEMENT_3D('',#991,#13,#72);
#1894=ADVANCED_FACE('',(#1895),#1902,.T.);
#1895=FACE_BOUND('',#1896,.F.);
#1896=EDGE_LOOP('',(#1897,#1055,#1900,#1901));
#1897=ORIENTED_EDGE('',*,*,#1898,.T.);
#1898=EDGE_CURVE('',#985,#1052,#1899,.T.);
#1899=LINE('',#986,#85);
#1900=ORIENTED_EDGE('',*,*,#1888,.F.);
#1901=ORIENTED_EDGE('',*,*,#989,.F.);
#1902=CYLINDRICAL_SURFACE('',#1903,0.25);
#1903=AXIS2_PLACEMENT_3D('',#994,#58,#851);
#1904=ADVANCED_FACE('',(#1905),#1910,.F.);
#1905=FACE_BOUND('',#1906,.F.);
#1906=EDGE_LOOP('',(#1907,#1050,#1908,#1909));
#1907=ORIENTED_EDGE('',*,*,#1043,.T.);
#1908=ORIENTED_EDGE('',*,*,#1898,.F.);
#1909=ORIENTED_EDGE('',*,*,#984,.F.);
#1910=PLANE('',#1911);
#1911=AXIS2_PLACEMENT_3D('',#979,#1834,#843);
#1912=ADVANCED_FACE('',(#1913),#1920,.F.);
#1913=FACE_BOUND('',#1914,.F.);
#1914=EDGE_LOOP('',(#1915,#1218,#1918,#1919));
#1915=ORIENTED_EDGE('',*,*,#1916,.T.);
#1916=EDGE_CURVE('',#1149,#1214,#1917,.T.);
#1917=LINE('',#1150,#85);
#1918=ORIENTED_EDGE('',*,*,#1639,.F.);
#1919=ORIENTED_EDGE('',*,*,#1154,.F.);
#1920=PLANE('',#1921);
#1921=AXIS2_PLACEMENT_3D('',#1150,#1776,#879);
#1922=ADVANCED_FACE('',(#1923),#1930,.F.);
#1923=FACE_BOUND('',#1924,.F.);
#1924=EDGE_LOOP('',(#1925,#1212,#1928,#1929));
#1925=ORIENTED_EDGE('',*,*,#1926,.T.);
#1926=EDGE_CURVE('',#1144,#1209,#1927,.T.);
#1927=LINE('',#1145,#85);
#1928=ORIENTED_EDGE('',*,*,#1916,.F.);
#1929=ORIENTED_EDGE('',*,*,#1148,.F.);
#1930=CYLINDRICAL_SURFACE('',#1152,1.E-01);
#1931=ADVANCED_FACE('',(#1932),#1939,.F.);
#1932=FACE_BOUND('',#1933,.F.);
#1933=EDGE_LOOP('',(#1934,#1207,#1937,#1938));
#1934=ORIENTED_EDGE('',*,*,#1935,.T.);
#1935=EDGE_CURVE('',#1139,#1204,#1936,.T.);
#1936=LINE('',#1140,#85);
#1937=ORIENTED_EDGE('',*,*,#1926,.F.);
#1938=ORIENTED_EDGE('',*,*,#1143,.F.);
#1939=PLANE('',#1940);
#1940=AXIS2_PLACEMENT_3D('',#1140,#324,#14);
#1941=ADVANCED_FACE('',(#1942),#1949,.F.);
#1942=FACE_BOUND('',#1943,.F.);
#1943=EDGE_LOOP('',(#1944,#1202,#1947,#1948));
#1944=ORIENTED_EDGE('',*,*,#1945,.T.);
#1945=EDGE_CURVE('',#1134,#1199,#1946,.T.);
#1946=LINE('',#1135,#85);
#1947=ORIENTED_EDGE('',*,*,#1935,.F.);
#1948=ORIENTED_EDGE('',*,*,#1138,.F.);
#1949=PLANE('',#1950);
#1950=AXIS2_PLACEMENT_3D('',#1135,#14,#13);
#1951=ADVANCED_FACE('',(#1952),#1959,.F.);
#1952=FACE_BOUND('',#1953,.F.);
#1953=EDGE_LOOP('',(#1954,#1197,#1957,#1958));
#1954=ORIENTED_EDGE('',*,*,#1955,.T.);
#1955=EDGE_CURVE('',#1127,#1192,#1956,.T.);
#1956=LINE('',#1128,#85);
#1957=ORIENTED_EDGE('',*,*,#1945,.F.);
#1958=ORIENTED_EDGE('',*,*,#1133,.F.);
#1959=PLANE('',#1960);
#1960=AXIS2_PLACEMENT_3D('',#1128,#13,#72);
#1961=ADVANCED_FACE('',(#1962),#1969,.T.);
#1962=FACE_BOUND('',#1963,.F.);
#1963=EDGE_LOOP('',(#1964,#1190,#1967,#1968));
#1964=ORIENTED_EDGE('',*,*,#1965,.T.);
#1965=EDGE_CURVE('',#1122,#1187,#1966,.T.);
#1966=LINE('',#1123,#85);
#1967=ORIENTED_EDGE('',*,*,#1955,.F.);
#1968=ORIENTED_EDGE('',*,*,#1126,.F.);
#1969=CYLINDRICAL_SURFACE('',#1970,0.25);
#1970=AXIS2_PLACEMENT_3D('',#1131,#58,#851);
#1971=ADVANCED_FACE('',(#1972),#1977,.F.);
#1972=FACE_BOUND('',#1973,.F.);
#1973=EDGE_LOOP('',(#1974,#1185,#1975,#1976));
#1974=ORIENTED_EDGE('',*,*,#1178,.T.);
#1975=ORIENTED_EDGE('',*,*,#1965,.F.);
#1976=ORIENTED_EDGE('',*,*,#1121,.F.);
#1977=PLANE('',#1978);
#1978=AXIS2_PLACEMENT_3D('',#1116,#1834,#843);
#1979=ADVANCED_FACE('',(#1980),#1987,.F.);
#1980=FACE_BOUND('',#1981,.F.);
#1981=EDGE_LOOP('',(#1982,#1346,#1985,#1986));
#1982=ORIENTED_EDGE('',*,*,#1983,.T.);
#1983=EDGE_CURVE('',#1274,#1342,#1984,.T.);
#1984=LINE('',#1275,#57);
#1985=ORIENTED_EDGE('',*,*,#1743,.F.);
#1986=ORIENTED_EDGE('',*,*,#1279,.F.);
#1987=PLANE('',#1988);
#1988=AXIS2_PLACEMENT_3D('',#1275,#1989,#1284);
#1989=DIRECTION('',(-0.986721169868,-1.095480561672E-16,-0.162423314012));
#1990=ADVANCED_FACE('',(#1991),#1998,.F.);
#1991=FACE_BOUND('',#1992,.F.);
#1992=EDGE_LOOP('',(#1993,#1340,#1996,#1997));
#1993=ORIENTED_EDGE('',*,*,#1994,.T.);
#1994=EDGE_CURVE('',#1269,#1337,#1995,.T.);
#1995=LINE('',#1270,#57);
#1996=ORIENTED_EDGE('',*,*,#1983,.F.);
#1997=ORIENTED_EDGE('',*,*,#1273,.F.);
#1998=CYLINDRICAL_SURFACE('',#1277,1.E-01);
#1999=ADVANCED_FACE('',(#2000),#2007,.F.);
#2000=FACE_BOUND('',#2001,.F.);
#2001=EDGE_LOOP('',(#2002,#1335,#2005,#2006));
#2002=ORIENTED_EDGE('',*,*,#2003,.T.);
#2003=EDGE_CURVE('',#1264,#1332,#2004,.T.);
#2004=LINE('',#1265,#57);
#2005=ORIENTED_EDGE('',*,*,#1994,.F.);
#2006=ORIENTED_EDGE('',*,*,#1268,.F.);
#2007=PLANE('',#2008);
#2008=AXIS2_PLACEMENT_3D('',#1265,#324,#72);
#2009=ADVANCED_FACE('',(#2010),#2017,.F.);
#2010=FACE_BOUND('',#2011,.F.);
#2011=EDGE_LOOP('',(#2012,#1330,#2015,#2016));
#2012=ORIENTED_EDGE('',*,*,#2013,.T.);
#2013=EDGE_CURVE('',#1259,#1327,#2014,.T.);
#2014=LINE('',#1260,#57);
#2015=ORIENTED_EDGE('',*,*,#2003,.F.);
#2016=ORIENTED_EDGE('',*,*,#1263,.F.);
#2017=PLANE('',#2018);
#2018=AXIS2_PLACEMENT_3D('',#1260,#72,#13);
#2019=ADVANCED_FACE('',(#2020),#2027,.F.);
#2020=FACE_BOUND('',#2021,.F.);
#2021=EDGE_LOOP('',(#2022,#1325,#2025,#2026));
#2022=ORIENTED_EDGE('',*,*,#2023,.T.);
#2023=EDGE_CURVE('',#1251,#1320,#2024,.T.);
#2024=LINE('',#1252,#57);
#2025=ORIENTED_EDGE('',*,*,#2013,.F.);
#2026=ORIENTED_EDGE('',*,*,#1258,.F.);
#2027=PLANE('',#2028);
#2028=AXIS2_PLACEMENT_3D('',#1252,#13,#14);
#2029=ADVANCED_FACE('',(#2030),#2037,.T.);
#2030=FACE_BOUND('',#2031,.F.);
#2031=EDGE_LOOP('',(#2032,#1318,#2035,#2036));
#2032=ORIENTED_EDGE('',*,*,#2033,.T.);
#2033=EDGE_CURVE('',#1244,#1315,#2034,.T.);
#2034=LINE('',#1245,#57);
#2035=ORIENTED_EDGE('',*,*,#2023,.F.);
#2036=ORIENTED_EDGE('',*,*,#1250,.F.);
#2037=CYLINDRICAL_SURFACE('',#2038,0.25);
#2038=AXIS2_PLACEMENT_3D('',#1255,#86,#1256);
#2039=ADVANCED_FACE('',(#2040),#2045,.F.);
#2040=FACE_BOUND('',#2041,.F.);
#2041=EDGE_LOOP('',(#2042,#1313,#2043,#2044));
#2042=ORIENTED_EDGE('',*,*,#1306,.T.);
#2043=ORIENTED_EDGE('',*,*,#2033,.F.);
#2044=ORIENTED_EDGE('',*,*,#1243,.F.);
#2045=PLANE('',#2046);
#2046=AXIS2_PLACEMENT_3D('',#1238,#2047,#1248);
#2047=DIRECTION('',(0.986721169868,1.095480561672E-16,0.162423314012));
#2048=ADVANCED_FACE('',(#2049),#2056,.T.);
#2049=FACE_BOUND('',#2050,.F.);
#2050=EDGE_LOOP('',(#2051,#1485,#2054,#2055));
#2051=ORIENTED_EDGE('',*,*,#2052,.T.);
#2052=EDGE_CURVE('',#1415,#1482,#2053,.T.);
#2053=LINE('',#1416,#57);
#2054=ORIENTED_EDGE('',*,*,#1711,.F.);
#2055=ORIENTED_EDGE('',*,*,#1419,.F.);
#2056=CYLINDRICAL_SURFACE('',#2057,0.25);
#2057=AXIS2_PLACEMENT_3D('',#1379,#86,#1289);
#2058=ADVANCED_FACE('',(#2059),#2066,.F.);
#2059=FACE_BOUND('',#2060,.F.);
#2060=EDGE_LOOP('',(#2061,#1480,#2064,#2065));
#2061=ORIENTED_EDGE('',*,*,#2062,.T.);
#2062=EDGE_CURVE('',#1409,#1476,#2063,.T.);
#2063=LINE('',#1410,#57);
#2064=ORIENTED_EDGE('',*,*,#2052,.F.);
#2065=ORIENTED_EDGE('',*,*,#1414,.F.);
#2066=PLANE('',#2067);
#2067=AXIS2_PLACEMENT_3D('',#1410,#1989,#1284);
#2068=ADVANCED_FACE('',(#2069),#2076,.F.);
#2069=FACE_BOUND('',#2070,.F.);
#2070=EDGE_LOOP('',(#2071,#1474,#2074,#2075));
#2071=ORIENTED_EDGE('',*,*,#2072,.T.);
#2072=EDGE_CURVE('',#1404,#1471,#2073,.T.);
#2073=LINE('',#1405,#57);
#2074=ORIENTED_EDGE('',*,*,#2062,.F.);
#2075=ORIENTED_EDGE('',*,*,#1408,.F.);
#2076=CYLINDRICAL_SURFACE('',#1412,1.E-01);
#2077=ADVANCED_FACE('',(#2078),#2085,.F.);
#2078=FACE_BOUND('',#2079,.F.);
#2079=EDGE_LOOP('',(#2080,#1469,#2083,#2084));
#2080=ORIENTED_EDGE('',*,*,#2081,.T.);
#2081=EDGE_CURVE('',#1399,#1466,#2082,.T.);
#2082=LINE('',#1400,#57);
#2083=ORIENTED_EDGE('',*,*,#2072,.F.);
#2084=ORIENTED_EDGE('',*,*,#1403,.F.);
#2085=PLANE('',#2086);
#2086=AXIS2_PLACEMENT_3D('',#1400,#324,#72);
#2087=ADVANCED_FACE('',(#2088),#2095,.F.);
#2088=FACE_BOUND('',#2089,.F.);
#2089=EDGE_LOOP('',(#2090,#1464,#2093,#2094));
#2090=ORIENTED_EDGE('',*,*,#2091,.T.);
#2091=EDGE_CURVE('',#1394,#1461,#2092,.T.);
#2092=LINE('',#1395,#57);
#2093=ORIENTED_EDGE('',*,*,#2081,.F.);
#2094=ORIENTED_EDGE('',*,*,#1398,.F.);
#2095=PLANE('',#2096);
#2096=AXIS2_PLACEMENT_3D('',#1395,#72,#13);
#2097=ADVANCED_FACE('',(#2098),#2105,.F.);
#2098=FACE_BOUND('',#2099,.F.);
#2099=EDGE_LOOP('',(#2100,#1459,#2103,#2104));
#2100=ORIENTED_EDGE('',*,*,#2101,.T.);
#2101=EDGE_CURVE('',#1387,#1454,#2102,.T.);
#2102=LINE('',#1388,#57);
#2103=ORIENTED_EDGE('',*,*,#2091,.F.);
#2104=ORIENTED_EDGE('',*,*,#1393,.F.);
#2105=PLANE('',#2106);
#2106=AXIS2_PLACEMENT_3D('',#1388,#13,#14);
#2107=ADVANCED_FACE('',(#2108),#2115,.T.);
#2108=FACE_BOUND('',#2109,.F.);
#2109=EDGE_LOOP('',(#2110,#1452,#2113,#2114));
#2110=ORIENTED_EDGE('',*,*,#2111,.T.);
#2111=EDGE_CURVE('',#1382,#1449,#2112,.T.);
#2112=LINE('',#1383,#57);
#2113=ORIENTED_EDGE('',*,*,#2101,.F.);
#2114=ORIENTED_EDGE('',*,*,#1386,.F.);
#2115=CYLINDRICAL_SURFACE('',#2116,0.25);
#2116=AXIS2_PLACEMENT_3D('',#1391,#86,#1256);
#2117=ADVANCED_FACE('',(#2118),#2123,.F.);
#2118=FACE_BOUND('',#2119,.F.);
#2119=EDGE_LOOP('',(#2120,#1447,#2121,#2122));
#2120=ORIENTED_EDGE('',*,*,#1440,.T.);
#2121=ORIENTED_EDGE('',*,*,#2111,.F.);
#2122=ORIENTED_EDGE('',*,*,#1381,.F.);
#2123=PLANE('',#2124);
#2124=AXIS2_PLACEMENT_3D('',#1376,#2047,#1248);
#2125=ADVANCED_FACE('',(#2126),#2133,.T.);
#2126=FACE_BOUND('',#2127,.F.);
#2127=EDGE_LOOP('',(#2128,#1625,#2131,#2132));
#2128=ORIENTED_EDGE('',*,*,#2129,.T.);
#2129=EDGE_CURVE('',#1555,#1622,#2130,.T.);
#2130=LINE('',#1556,#57);
#2131=ORIENTED_EDGE('',*,*,#1723,.F.);
#2132=ORIENTED_EDGE('',*,*,#1559,.F.);
#2133=CYLINDRICAL_SURFACE('',#2134,0.25);
#2134=AXIS2_PLACEMENT_3D('',#1519,#86,#1289);
#2135=ADVANCED_FACE('',(#2136),#2143,.F.);
#2136=FACE_BOUND('',#2137,.F.);
#2137=EDGE_LOOP('',(#2138,#1620,#2141,#2142));
#2138=ORIENTED_EDGE('',*,*,#2139,.T.);
#2139=EDGE_CURVE('',#1549,#1616,#2140,.T.);
#2140=LINE('',#1550,#57);
#2141=ORIENTED_EDGE('',*,*,#2129,.F.);
#2142=ORIENTED_EDGE('',*,*,#1554,.F.);
#2143=PLANE('',#2144);
#2144=AXIS2_PLACEMENT_3D('',#1550,#1989,#1284);
#2145=ADVANCED_FACE('',(#2146),#2153,.F.);
#2146=FACE_BOUND('',#2147,.F.);
#2147=EDGE_LOOP('',(#2148,#1614,#2151,#2152));
#2148=ORIENTED_EDGE('',*,*,#2149,.T.);
#2149=EDGE_CURVE('',#1544,#1611,#2150,.T.);
#2150=LINE('',#1545,#57);
#2151=ORIENTED_EDGE('',*,*,#2139,.F.);
#2152=ORIENTED_EDGE('',*,*,#1548,.F.);
#2153=CYLINDRICAL_SURFACE('',#1552,1.E-01);
#2154=ADVANCED_FACE('',(#2155),#2162,.F.);
#2155=FACE_BOUND('',#2156,.F.);
#2156=EDGE_LOOP('',(#2157,#1609,#2160,#2161));
#2157=ORIENTED_EDGE('',*,*,#2158,.T.);
#2158=EDGE_CURVE('',#1539,#1606,#2159,.T.);
#2159=LINE('',#1540,#57);
#2160=ORIENTED_EDGE('',*,*,#2149,.F.);
#2161=ORIENTED_EDGE('',*,*,#1543,.F.);
#2162=PLANE('',#2163);
#2163=AXIS2_PLACEMENT_3D('',#1540,#324,#72);
#2164=ADVANCED_FACE('',(#2165),#2172,.F.);
#2165=FACE_BOUND('',#2166,.F.);
#2166=EDGE_LOOP('',(#2167,#1604,#2170,#2171));
#2167=ORIENTED_EDGE('',*,*,#2168,.T.);
#2168=EDGE_CURVE('',#1534,#1601,#2169,.T.);
#2169=LINE('',#1535,#57);
#2170=ORIENTED_EDGE('',*,*,#2158,.F.);
#2171=ORIENTED_EDGE('',*,*,#1538,.F.);
#2172=PLANE('',#2173);
#2173=AXIS2_PLACEMENT_3D('',#1535,#72,#13);
#2174=ADVANCED_FACE('',(#2175),#2182,.F.);
#2175=FACE_BOUND('',#2176,.F.);
#2176=EDGE_LOOP('',(#2177,#1599,#2180,#2181));
#2177=ORIENTED_EDGE('',*,*,#2178,.T.);
#2178=EDGE_CURVE('',#1527,#1594,#2179,.T.);
#2179=LINE('',#1528,#57);
#2180=ORIENTED_EDGE('',*,*,#2168,.F.);
#2181=ORIENTED_EDGE('',*,*,#1533,.F.);
#2182=PLANE('',#2183);
#2183=AXIS2_PLACEMENT_3D('',#1528,#13,#14);
#2184=ADVANCED_FACE('',(#2185),#2192,.T.);
#2185=FACE_BOUND('',#2186,.F.);
#2186=EDGE_LOOP('',(#2187,#1592,#2190,#2191));
#2187=ORIENTED_EDGE('',*,*,#2188,.T.);
#2188=EDGE_CURVE('',#1522,#1589,#2189,.T.);
#2189=LINE('',#1523,#57);
#2190=ORIENTED_EDGE('',*,*,#2178,.F.);
#2191=ORIENTED_EDGE('',*,*,#1526,.F.);
#2192=CYLINDRICAL_SURFACE('',#2193,0.25);
#2193=AXIS2_PLACEMENT_3D('',#1531,#86,#1256);
#2194=ADVANCED_FACE('',(#2195),#2200,.F.);
#2195=FACE_BOUND('',#2196,.F.);
#2196=EDGE_LOOP('',(#2197,#1587,#2198,#2199));
#2197=ORIENTED_EDGE('',*,*,#1580,.T.);
#2198=ORIENTED_EDGE('',*,*,#2188,.F.);
#2199=ORIENTED_EDGE('',*,*,#1521,.F.);
#2200=PLANE('',#2201);
#2201=AXIS2_PLACEMENT_3D('',#1516,#2047,#1248);
#2202=ADVANCED_FACE('',(#2203),#2206,.F.);
#2203=FACE_BOUND('',#2204,.T.);
#2204=EDGE_LOOP('',(#2205));
#2205=ORIENTED_EDGE('',*,*,#1688,.F.);
#2206=PLANE('',#1692);
#2207=( GEOMETRIC_REPRESENTATION_CONTEXT(3) GLOBAL_UNCERTAINTY_ASSIGNED_CONTEXT((#2211)) GLOBAL_UNIT_ASSIGNED_CONTEXT((#2208,#2209,#2210)) REPRESENTATION_CONTEXT('Context #1','3D Context with UNIT and UNCERTAINTY') );
#2208=( LENGTH_UNIT() NAMED_UNIT(*) SI_UNIT(.MILLI.,.METRE.) );
#2209=( NAMED_UNIT(*) PLANE_ANGLE_UNIT() SI_UNIT($,.RADIAN.) );
#2210=( NAMED_UNIT(*) SI_UNIT($,.STERADIAN.) SOLID_ANGLE_UNIT() );
#2211=UNCERTAINTY_MEASURE_WITH_UNIT(LENGTH_MEASURE(1.E-07),#2208,'distance_accuracy_value','confusion accuracy');
#2212=MECHANICAL_DESIGN_GEOMETRIC_PRESENTATION_REPRESENTATION('',(#2213,#2223,#2224,#2225,#2226,#2227,#2228,#2229,#2230,#2231,#2232,#2233,#2234,#2235,#2236,#2245,#2246,#2247,#2248,#2249,#2250,#2251,#2252,#2253,#2254,#2255,#2256,#2257,#2258,#2259,#2260,#2261,#2262,#2263,#2264,#2265,#2266,#2267,#2268,#2269,#2270,#2271,#2272,#2273,#2274,#2275,#2276,#2277,#2278,#2279,#2280,#2281,#2282,#2283,#2284,#2285,#2286,#2287,#2288,#2289,#2290,#2291,#2292,#2293,#2294,#2295,#2296,#2297,#2298,#2299,#2300,#2301,#2302,#2303,#2304,#2305,#2306,#2307,#2308,#2309,#2310,#2311,#2312,#2313,#2314,#2315,#2316,#2317,#2318,#2319,#2320,#2321,#2322,#2323,#2324,#2325,#2326,#2327,#2328,#2329,#2330,#2331,#2332,#2333,#2334,#2335,#2336,#2337,#2338,#2339,#2340,#2341,#2342,#2343,#2344,#2345,#2346),#2207);
#2213=STYLED_ITEM('color',(#2214),#17);
#2214=PRESENTATION_STYLE_ASSIGNMENT((#2215,#2221));
#2215=SURFACE_STYLE_USAGE(.BOTH.,#2216);
#2216=SURFACE_SIDE_STYLE('',(#2217));
#2217=SURFACE_STYLE_FILL_AREA(#2218);
#2218=FILL_AREA_STYLE('',(#2219));
#2219=FILL_AREA_STYLE_COLOUR('',#2220);
#2220=COLOUR_RGB('',0.147999998088,0.145000001626,0.145000001626);
#2221=CURVE_STYLE('',#2222,POSITIVE_LENGTH_MEASURE(0.1),#2220);
#2222=DRAUGHTING_PRE_DEFINED_CURVE_FONT('continuous');
#2223=STYLED_ITEM('color',(#2214),#42);
#2224=STYLED_ITEM('color',(#2214),#95);
#2225=STYLED_ITEM('color',(#2214),#108);
#2226=STYLED_ITEM('color',(#2214),#127);
#2227=STYLED_ITEM('color',(#2214),#140);
#2228=STYLED_ITEM('color',(#2214),#177);
#2229=STYLED_ITEM('color',(#2214),#214);
#2230=STYLED_ITEM('color',(#2214),#227);
#2231=STYLED_ITEM('color',(#2214),#240);
#2232=STYLED_ITEM('color',(#2214),#249);
#2233=STYLED_ITEM('color',(#2214),#264);
#2234=STYLED_ITEM('color',(#2214),#325);
#2235=STYLED_ITEM('color',(#2214),#336);
#2236=STYLED_ITEM('color',(#2237),#355);
#2237=PRESENTATION_STYLE_ASSIGNMENT((#2238,#2244));
#2238=SURFACE_STYLE_USAGE(.BOTH.,#2239);
#2239=SURFACE_SIDE_STYLE('',(#2240));
#2240=SURFACE_STYLE_FILL_AREA(#2241);
#2241=FILL_AREA_STYLE('',(#2242));
#2242=FILL_AREA_STYLE_COLOUR('',#2243);
#2243=COLOUR_RGB('',0.823999987314,0.819999987296,0.781000009244);
#2244=CURVE_STYLE('',#2222,POSITIVE_LENGTH_MEASURE(0.1),#2243);
#2245=STYLED_ITEM('color',(#2214),#376);
#2246=STYLED_ITEM('color',(#2237),#394);
#2247=STYLED_ITEM('color',(#2214),#415);
#2248=STYLED_ITEM('color',(#2237),#433);
#2249=STYLED_ITEM('color',(#2214),#454);
#2250=STYLED_ITEM('color',(#2214),#464);
#2251=STYLED_ITEM('color',(#2237),#476);
#2252=STYLED_ITEM('color',(#2214),#497);
#2253=STYLED_ITEM('color',(#2237),#515);
#2254=STYLED_ITEM('color',(#2214),#536);
#2255=STYLED_ITEM('color',(#2237),#554);
#2256=STYLED_ITEM('color',(#2214),#575);
#2257=STYLED_ITEM('color',(#2214),#592);
#2258=STYLED_ITEM('color',(#2214),#607);
#2259=STYLED_ITEM('color',(#2214),#622);
#2260=STYLED_ITEM('color',(#2237),#633);
#2261=STYLED_ITEM('color',(#2214),#656);
#2262=STYLED_ITEM('color',(#2214),#694);
#2263=STYLED_ITEM('color',(#2214),#708);
#2264=STYLED_ITEM('color',(#2214),#722);
#2265=STYLED_ITEM('color',(#2214),#736);
#2266=STYLED_ITEM('color',(#2237),#774);
#2267=STYLED_ITEM('color',(#2214),#794);
#2268=STYLED_ITEM('color',(#2237),#825);
#2269=STYLED_ITEM('color',(#2237),#891);
#2270=STYLED_ITEM('color',(#2237),#907);
#2271=STYLED_ITEM('color',(#2214),#960);
#2272=STYLED_ITEM('color',(#2237),#971);
#2273=STYLED_ITEM('color',(#2237),#1031);
#2274=STYLED_ITEM('color',(#2237),#1047);
#2275=STYLED_ITEM('color',(#2214),#1100);
#2276=STYLED_ITEM('color',(#2237),#1108);
#2277=STYLED_ITEM('color',(#2237),#1166);
#2278=STYLED_ITEM('color',(#2237),#1182);
#2279=STYLED_ITEM('color',(#2237),#1230);
#2280=STYLED_ITEM('color',(#2237),#1294);
#2281=STYLED_ITEM('color',(#2237),#1310);
#2282=STYLED_ITEM('color',(#2214),#1358);
#2283=STYLED_ITEM('color',(#2237),#1368);
#2284=STYLED_ITEM('color',(#2237),#1428);
#2285=STYLED_ITEM('color',(#2237),#1444);
#2286=STYLED_ITEM('color',(#2214),#1497);
#2287=STYLED_ITEM('color',(#2237),#1508);
#2288=STYLED_ITEM('color',(#2237),#1568);
#2289=STYLED_ITEM('color',(#2237),#1584);
#2290=STYLED_ITEM('color',(#2237),#1635);
#2291=STYLED_ITEM('color',(#2237),#1645);
#2292=STYLED_ITEM('color',(#2237),#1657);
#2293=STYLED_ITEM('color',(#2214),#1669);
#2294=STYLED_ITEM('color',(#2214),#1697);
#2295=STYLED_ITEM('color',(#2237),#1706);
#2296=STYLED_ITEM('color',(#2237),#1718);
#2297=STYLED_ITEM('color',(#2214),#1730);
#2298=STYLED_ITEM('color',(#2237),#1739);
#2299=STYLED_ITEM('color',(#2214),#1749);
#2300=STYLED_ITEM('color',(#2237),#1756);
#2301=STYLED_ITEM('color',(#2237),#1766);
#2302=STYLED_ITEM('color',(#2237),#1777);
#2303=STYLED_ITEM('color',(#2237),#1786);
#2304=STYLED_ITEM('color',(#2237),#1796);
#2305=STYLED_ITEM('color',(#2237),#1806);
#2306=STYLED_ITEM('color',(#2237),#1816);
#2307=STYLED_ITEM('color',(#2237),#1826);
#2308=STYLED_ITEM('color',(#2237),#1835);
#2309=STYLED_ITEM('color',(#2237),#1845);
#2310=STYLED_ITEM('color',(#2237),#1855);
#2311=STYLED_ITEM('color',(#2237),#1864);
#2312=STYLED_ITEM('color',(#2237),#1874);
#2313=STYLED_ITEM('color',(#2237),#1884);
#2314=STYLED_ITEM('color',(#2237),#1894);
#2315=STYLED_ITEM('color',(#2237),#1904);
#2316=STYLED_ITEM('color',(#2237),#1912);
#2317=STYLED_ITEM('color',(#2237),#1922);
#2318=STYLED_ITEM('color',(#2237),#1931);
#2319=STYLED_ITEM('color',(#2237),#1941);
#2320=STYLED_ITEM('color',(#2237),#1951);
#2321=STYLED_ITEM('color',(#2237),#1961);
#2322=STYLED_ITEM('color',(#2237),#1971);
#2323=STYLED_ITEM('color',(#2237),#1979);
#2324=STYLED_ITEM('color',(#2237),#1990);
#2325=STYLED_ITEM('color',(#2237),#1999);
#2326=STYLED_ITEM('color',(#2237),#2009);
#2327=STYLED_ITEM('color',(#2237),#2019);
#2328=STYLED_ITEM('color',(#2237),#2029);
#2329=STYLED_ITEM('color',(#2237),#2039);
#2330=STYLED_ITEM('color',(#2237),#2048);
#2331=STYLED_ITEM('color',(#2237),#2058);
#2332=STYLED_ITEM('color',(#2237),#2068);
#2333=STYLED_ITEM('color',(#2237),#2077);
#2334=STYLED_ITEM('color',(#2237),#2087);
#2335=STYLED_ITEM('color',(#2237),#2097);
#2336=STYLED_ITEM('color',(#2237),#2107);
#2337=STYLED_ITEM('color',(#2237),#2117);
#2338=STYLED_ITEM('color',(#2237),#2125);
#2339=STYLED_ITEM('color',(#2237),#2135);
#2340=STYLED_ITEM('color',(#2237),#2145);
#2341=STYLED_ITEM('color',(#2237),#2154);
#2342=STYLED_ITEM('color',(#2237),#2164);
#2343=STYLED_ITEM('color',(#2237),#2174);
#2344=STYLED_ITEM('color',(#2237),#2184);
#2345=STYLED_ITEM('color',(#2237),#2194);
#2346=STYLED_ITEM('color',(#2347),#2202);
#2347=PRESENTATION_STYLE_ASSIGNMENT((#2348,#2354));
#2348=SURFACE_STYLE_USAGE(.BOTH.,#2349);
#2349=SURFACE_SIDE_STYLE('',(#2350));
#2350=SURFACE_STYLE_FILL_AREA(#2351);
#2351=FILL_AREA_STYLE('',(#2352));
#2352=FILL_AREA_STYLE_COLOUR('',#2353);
#2353=COLOUR_RGB('',0.690999998585,0.664000007176,0.597999987832);
#2354=CURVE_STYLE('',#2222,POSITIVE_LENGTH_MEASURE(0.1),#2353);
ENDSEC;
END-ISO-10303-21;
