M48
; DRILL file KiCad 10.0.5-unknown-202607221313~667fa36054~ubuntu25.10.1 date 2026-10-09T16:31:53
; FORMAT={-:-/ absolute / metric / decimal}
; #@! TF.CreationDate,2026-10-09T16:31:53+00:00
; #@! TF.GenerationSoftware,Kicad,Pcbnew,10.0.5-unknown-202607221313~667fa36054~ubuntu25.10.1
; #@! TF.FileFunction,Plated,1,4,PTH
FMAT,2
METRIC
; #@! TA.AperFunction,Plated,PTH,ViaDrill
T1C0.300
; #@! TA.AperFunction,Plated,PTH,ComponentDrill
T2C0.300
; #@! TA.AperFunction,Plated,PTH,ViaDrill
T3C0.400
; #@! TA.AperFunction,Plated,PTH,ViaDrill
T4C0.500
; #@! TA.AperFunction,Plated,PTH,ComponentDrill
T5C0.500
; #@! TA.AperFunction,Plated,PTH,ComponentDrill
T6C0.600
; #@! TA.AperFunction,Plated,PTH,ComponentDrill
T7C0.700
; #@! TA.AperFunction,Plated,PTH,ComponentDrill
T8C0.740
; #@! TA.AperFunction,Plated,PTH,ComponentDrill
T9C0.950
; #@! TA.AperFunction,Plated,PTH,ComponentDrill
T10C1.000
%
G90
G05
T1
X106.796Y-86.383
X117.21Y-78.577
X120.004Y-56.157
X120.766Y-67.587
X120.766Y-83.081
X122.544Y-83.081
X123.052Y-51.331
X123.814Y-69.873
X126.1Y-78.577
X128.386Y-55.903
X129.402Y-57.427
X130.926Y-74.191
X132.45Y-50.569
X135.244Y-58.189
X135.752Y-53.363
X136.26Y-47.013
X136.27Y-43.457
X140.578Y-49.299
X143.626Y-60.475
X145.404Y-52.601
X166.486Y-74.699
X166.486Y-76.223
X166.486Y-78.001
X166.486Y-79.525
X175.122Y-78.001
X175.122Y-79.525
T2
X159.456Y-75.065
X159.456Y-76.365
X160.756Y-75.065
X160.756Y-76.365
X162.056Y-75.065
X162.056Y-76.365
X163.356Y-75.065
X163.356Y-76.365
T3
X127.37Y-63.777
X129.148Y-63.777
X146.166Y-64.031
X152.262Y-62.38
X152.389Y-58.57
T4
X148.325Y-54.76
X148.325Y-66.19
X148.96Y-53.49
X148.96Y-67.46
X149.595Y-54.76
X149.595Y-66.19
X150.23Y-53.49
X150.23Y-56.03
X150.23Y-64.92
X150.23Y-67.46
X150.865Y-54.76
X150.865Y-66.19
X151.5Y-53.49
X151.5Y-56.03
X151.5Y-64.92
X151.5Y-67.46
X152.135Y-54.76
X152.135Y-66.19
X152.77Y-53.49
X152.77Y-56.03
X152.77Y-64.92
X152.77Y-67.46
X153.405Y-54.76
X153.405Y-66.19
X154.04Y-53.49
X154.04Y-67.46
X154.675Y-54.76
X154.675Y-66.19
X161.66Y-47.267
X161.66Y-48.537
X162.422Y-58.189
X162.422Y-63.269
X164.454Y-58.189
X164.454Y-63.269
X170.55Y-58.189
X170.55Y-63.269
X172.582Y-58.189
X172.582Y-63.269
X173.344Y-48.537
X174.868Y-50.315
T5
X117.21Y-76.477
X117.972Y-51.331
X117.972Y-53.871
X120.512Y-77.747
X122.798Y-77.747
X133.72Y-70.889
X133.807Y-80.247
X133.807Y-81.347
X133.807Y-82.447
X133.807Y-83.547
X133.807Y-84.647
X133.807Y-85.747
X133.807Y-86.847
X133.807Y-87.947
X135.157Y-80.247
X135.157Y-81.347
X135.157Y-82.447
X135.157Y-83.547
X135.157Y-84.647
X135.157Y-85.747
X135.157Y-86.847
X135.157Y-87.947
X136.006Y-72.667
X137.784Y-61.237
X138.546Y-57.173
X138.546Y-88.161
X141.086Y-57.173
X143.626Y-54.633
X143.626Y-56.919
X157.596Y-80.795
X159.12Y-70.889
X159.882Y-80.795
X161.152Y-87.907
X161.406Y-84.097
X173.09Y-71.905
X179.186Y-77.493
X179.186Y-79.779
T6
X190.108Y-78.451
T7
X116.77Y-62.287
X116.77Y-67.367
X156.58Y-58.443
X156.58Y-66.063
X158.778Y-56.665
X158.778Y-64.285
T8
X144.673Y-81.913
X144.673Y-83.183
X145.944Y-81.913
X145.944Y-83.183
X147.213Y-81.913
X147.213Y-83.183
X148.483Y-81.913
X148.483Y-83.183
X149.754Y-81.913
X149.754Y-83.183
T9
X118.032Y-86.366
X120.532Y-86.366
X123.032Y-86.366
X125.532Y-86.366
X143.831Y-45.078
X146.331Y-45.078
X148.831Y-45.078
X151.331Y-45.078
X153.831Y-45.078
X156.331Y-45.078
T10
X105.63Y-49.177
X105.63Y-51.717
X105.63Y-54.257
X105.63Y-56.797
X105.63Y-59.337
X105.63Y-61.877
X105.63Y-64.417
X105.63Y-66.957
X105.63Y-69.497
X105.63Y-72.037
X105.63Y-74.577
X105.63Y-77.117
X105.63Y-79.657
X105.63Y-82.197
X178.81Y-61.877
X178.81Y-64.417
X178.81Y-66.957
X178.81Y-69.497
T5
G00X132.332Y-81.997
M15
G01X132.332Y-81.197
M16
G05
G00X132.332Y-86.997
M15
G01X132.332Y-86.197
M16
G05
G00X136.632Y-81.997
M15
G01X136.632Y-81.197
M16
G05
G00X136.632Y-86.997
M15
G01X136.632Y-86.197
M16
G05
G00X185.333Y-81.101
M15
G01X185.333Y-82.001
M16
G05
G00X185.333Y-87.501
M15
G01X185.333Y-88.401
M16
G05
G00X186.883Y-78.451
M15
G01X187.783Y-78.451
M16
G05
G00X189.658Y-81.851
M15
G01X190.558Y-81.851
M16
G05
G00X189.658Y-85.651
M15
G01X190.558Y-85.651
M16
G05
G00X192.433Y-78.451
M15
G01X193.333Y-78.451
M16
G05
G00X194.883Y-81.101
M15
G01X194.883Y-82.001
M16
G05
G00X194.883Y-87.501
M15
G01X194.883Y-88.401
M16
G05
M30
