M48
; DRILL file KiCad 10.0.5-unknown-202607221313~667fa36054~ubuntu25.10.1 date 2026-10-08T20:09:06
; FORMAT={-:-/ absolute / metric / decimal}
; #@! TF.CreationDate,2026-10-08T20:09:06+00:00
; #@! TF.GenerationSoftware,Kicad,Pcbnew,10.0.5-unknown-202607221313~667fa36054~ubuntu25.10.1
; #@! TF.FileFunction,Plated,1,4,PTH
FMAT,2
METRIC
; #@! TA.AperFunction,Plated,PTH,ViaDrill
T1C0.300
; #@! TA.AperFunction,Plated,PTH,ComponentDrill
T2C0.300
; #@! TA.AperFunction,Plated,PTH,ViaDrill
T3C0.400
; #@! TA.AperFunction,Plated,PTH,ViaDrill
T4C0.500
; #@! TA.AperFunction,Plated,PTH,ComponentDrill
T5C0.500
; #@! TA.AperFunction,Plated,PTH,ComponentDrill
T6C0.600
; #@! TA.AperFunction,Plated,PTH,ComponentDrill
T7C0.700
; #@! TA.AperFunction,Plated,PTH,ComponentDrill
T8C0.740
; #@! TA.AperFunction,Plated,PTH,ComponentDrill
T9C0.950
; #@! TA.AperFunction,Plated,PTH,ComponentDrill
T10C1.000
%
G90
G05
T1
X83.296Y-111.908
X93.71Y-104.102
X96.504Y-81.682
X97.266Y-93.112
X97.266Y-108.606
X99.044Y-108.606
X99.552Y-76.856
X100.314Y-95.398
X102.6Y-104.102
X104.886Y-81.428
X105.902Y-82.952
X107.426Y-99.716
X108.95Y-76.094
X111.744Y-83.714
X112.252Y-78.888
X112.76Y-72.538
X112.77Y-68.982
X117.078Y-74.824
X120.126Y-86.0
X121.904Y-78.126
X142.986Y-100.224
X142.986Y-101.748
X142.986Y-103.526
X142.986Y-105.05
X151.622Y-103.526
X151.622Y-105.05
T2
X135.956Y-100.59
X135.956Y-101.89
X137.256Y-100.59
X137.256Y-101.89
X138.556Y-100.59
X138.556Y-101.89
X139.856Y-100.59
X139.856Y-101.89
T3
X103.87Y-89.302
X105.648Y-89.302
X122.666Y-89.556
X128.762Y-87.905
X128.889Y-84.095
T4
X124.825Y-80.285
X124.825Y-91.715
X125.46Y-79.015
X125.46Y-92.985
X126.095Y-80.285
X126.095Y-91.715
X126.73Y-79.015
X126.73Y-81.555
X126.73Y-90.445
X126.73Y-92.985
X127.365Y-80.285
X127.365Y-91.715
X128.0Y-79.015
X128.0Y-81.555
X128.0Y-90.445
X128.0Y-92.985
X128.635Y-80.285
X128.635Y-91.715
X129.27Y-79.015
X129.27Y-81.555
X129.27Y-90.445
X129.27Y-92.985
X129.905Y-80.285
X129.905Y-91.715
X130.54Y-79.015
X130.54Y-92.985
X131.175Y-80.285
X131.175Y-91.715
X138.16Y-72.792
X138.16Y-74.062
X138.922Y-83.714
X138.922Y-88.794
X140.954Y-83.714
X140.954Y-88.794
X147.05Y-83.714
X147.05Y-88.794
X149.082Y-83.714
X149.082Y-88.794
X149.844Y-74.062
X151.368Y-75.84
T5
X93.71Y-102.002
X94.472Y-76.856
X94.472Y-79.396
X97.012Y-103.272
X99.298Y-103.272
X110.22Y-96.414
X110.307Y-105.772
X110.307Y-106.872
X110.307Y-107.972
X110.307Y-109.072
X110.307Y-110.172
X110.307Y-111.272
X110.307Y-112.372
X110.307Y-113.472
X111.657Y-105.772
X111.657Y-106.872
X111.657Y-107.972
X111.657Y-109.072
X111.657Y-110.172
X111.657Y-111.272
X111.657Y-112.372
X111.657Y-113.472
X112.506Y-98.192
X114.284Y-86.762
X115.046Y-82.698
X115.046Y-113.686
X117.586Y-82.698
X120.126Y-80.158
X120.126Y-82.444
X134.096Y-106.32
X135.62Y-96.414
X136.382Y-106.32
X137.652Y-113.432
X137.906Y-109.622
X149.59Y-97.43
X155.686Y-103.018
X155.686Y-105.304
T6
X166.608Y-103.976
T7
X93.27Y-87.812
X93.27Y-92.892
X133.08Y-83.968
X133.08Y-91.588
X135.278Y-82.19
X135.278Y-89.81
T8
X121.173Y-107.438
X121.173Y-108.708
X122.444Y-107.438
X122.444Y-108.708
X123.713Y-107.438
X123.713Y-108.708
X124.983Y-107.438
X124.983Y-108.708
X126.253Y-107.438
X126.253Y-108.708
T9
X94.532Y-111.891
X97.032Y-111.891
X99.532Y-111.891
X102.032Y-111.891
X120.331Y-70.603
X122.831Y-70.603
X125.331Y-70.603
X127.831Y-70.603
X130.331Y-70.603
X132.831Y-70.603
T10
X82.13Y-74.702
X82.13Y-77.242
X82.13Y-79.782
X82.13Y-82.322
X82.13Y-84.862
X82.13Y-87.402
X82.13Y-89.942
X82.13Y-92.482
X82.13Y-95.022
X82.13Y-97.562
X82.13Y-100.102
X82.13Y-102.642
X82.13Y-105.182
X82.13Y-107.722
X155.31Y-87.402
X155.31Y-89.942
X155.31Y-92.482
X155.31Y-95.022
T5
G00X108.832Y-107.522
M15
G01X108.832Y-106.722
M16
G05
G00X108.832Y-112.522
M15
G01X108.832Y-111.722
M16
G05
G00X113.132Y-107.522
M15
G01X113.132Y-106.722
M16
G05
G00X113.132Y-112.522
M15
G01X113.132Y-111.722
M16
G05
G00X161.833Y-106.626
M15
G01X161.833Y-107.526
M16
G05
G00X161.833Y-113.026
M15
G01X161.833Y-113.926
M16
G05
G00X163.383Y-103.976
M15
G01X164.283Y-103.976
M16
G05
G00X166.158Y-107.376
M15
G01X167.058Y-107.376
M16
G05
G00X166.158Y-111.176
M15
G01X167.058Y-111.176
M16
G05
G00X168.933Y-103.976
M15
G01X169.833Y-103.976
M16
G05
G00X171.383Y-106.626
M15
G01X171.383Y-107.526
M16
G05
G00X171.383Y-113.026
M15
G01X171.383Y-113.926
M16
G05
M30
