M48
; DRILL file KiCad 10.0.5-unknown-202607221313~667fa36054~ubuntu25.10.1 date 2026-10-07T18:41:16
; FORMAT={-:-/ absolute / metric / decimal}
; #@! TF.CreationDate,2026-10-07T18:41:16+00:00
; #@! TF.GenerationSoftware,Kicad,Pcbnew,10.0.5-unknown-202607221313~667fa36054~ubuntu25.10.1
; #@! TF.FileFunction,Plated,1,4,PTH
FMAT,2
METRIC
; #@! TA.AperFunction,Plated,PTH,ViaDrill
T1C0.300
; #@! TA.AperFunction,Plated,PTH,ComponentDrill
T2C0.900
; #@! TA.AperFunction,Plated,PTH,ComponentDrill
T3C1.000
; #@! TA.AperFunction,Plated,PTH,ComponentDrill
T4C1.200
%
G90
G05
T1
X95.208Y-52.578
X102.455Y-54.957
X104.005Y-54.957
X106.892Y-58.166
X112.48Y-47.752
T2
X113.175Y-80.535
X115.715Y-80.535
X122.725Y-90.235
X122.725Y-94.305
X125.265Y-90.235
X125.265Y-94.305
X146.125Y-88.635
X148.665Y-88.635
X158.585Y-66.035
X161.125Y-66.035
T3
X113.259Y-54.881
X113.259Y-57.421
X113.259Y-59.961
X118.245Y-81.355
X118.245Y-83.895
X118.245Y-86.435
T4
X115.525Y-99.0
X115.525Y-108.525
X120.605Y-99.0
X120.605Y-108.525
X124.075Y-67.025
X124.075Y-73.075
X124.075Y-79.125
X124.075Y-85.175
X129.155Y-67.025
X129.155Y-73.075
X129.155Y-79.125
X129.155Y-85.175
X131.95Y-87.0
X137.03Y-87.0
X138.525Y-77.525
X143.605Y-77.525
X149.855Y-67.025
X149.855Y-73.075
X154.935Y-67.025
X154.935Y-73.075
M30
