M48
; DRILL file KiCad 10.0.5-unknown-202607221313~667fa36054~ubuntu25.10.1 date 2026-10-10T19:18:29
; FORMAT={-:-/ absolute / metric / decimal}
; #@! TF.CreationDate,2026-10-10T19:18:29+00:00
; #@! TF.GenerationSoftware,Kicad,Pcbnew,10.0.5-unknown-202607221313~667fa36054~ubuntu25.10.1
; #@! TF.FileFunction,Plated,1,4,PTH
FMAT,2
METRIC
; #@! TA.AperFunction,Plated,PTH,ViaDrill
T1C0.300
; #@! TA.AperFunction,Plated,PTH,ComponentDrill
T2C0.300
; #@! TA.AperFunction,Plated,PTH,ViaDrill
T3C0.400
; #@! TA.AperFunction,Plated,PTH,ViaDrill
T4C0.500
; #@! TA.AperFunction,Plated,PTH,ComponentDrill
T5C0.500
; #@! TA.AperFunction,Plated,PTH,ComponentDrill
T6C0.600
; #@! TA.AperFunction,Plated,PTH,ComponentDrill
T7C0.700
; #@! TA.AperFunction,Plated,PTH,ComponentDrill
T8C0.740
; #@! TA.AperFunction,Plated,PTH,ComponentDrill
T9C0.950
; #@! TA.AperFunction,Plated,PTH,ComponentDrill
T10C1.000
%
G90
G05
T1
X108.863Y-86.383
X119.277Y-78.577
X122.071Y-56.157
X122.833Y-67.587
X122.833Y-83.081
X124.611Y-83.081
X125.119Y-51.331
X125.881Y-69.873
X128.167Y-78.577
X130.453Y-55.903
X131.469Y-57.427
X132.993Y-74.191
X134.517Y-50.569
X137.311Y-58.189
X137.819Y-53.363
X138.327Y-47.013
X138.337Y-43.457
X142.645Y-49.299
X145.693Y-60.475
X147.471Y-52.601
X168.553Y-74.699
X168.553Y-76.223
X168.553Y-78.001
X168.553Y-79.525
X177.189Y-78.001
X177.189Y-79.525
T2
X161.523Y-75.065
X161.523Y-76.365
X162.823Y-75.065
X162.823Y-76.365
X164.123Y-75.065
X164.123Y-76.365
X165.423Y-75.065
X165.423Y-76.365
T3
X129.437Y-63.777
X131.215Y-63.777
X148.233Y-64.031
X154.329Y-62.38
X154.456Y-58.57
T4
X150.392Y-54.76
X150.392Y-66.19
X151.027Y-53.49
X151.027Y-67.46
X151.662Y-54.76
X151.662Y-66.19
X152.297Y-53.49
X152.297Y-56.03
X152.297Y-64.92
X152.297Y-67.46
X152.932Y-54.76
X152.932Y-66.19
X153.567Y-53.49
X153.567Y-56.03
X153.567Y-64.92
X153.567Y-67.46
X154.202Y-54.76
X154.202Y-66.19
X154.837Y-53.49
X154.837Y-56.03
X154.837Y-64.92
X154.837Y-67.46
X155.472Y-54.76
X155.472Y-66.19
X156.107Y-53.49
X156.107Y-67.46
X156.742Y-54.76
X156.742Y-66.19
X163.727Y-47.267
X163.727Y-48.537
X164.489Y-58.189
X164.489Y-63.269
X166.521Y-58.189
X166.521Y-63.269
X172.617Y-58.189
X172.617Y-63.269
X174.649Y-58.189
X174.649Y-63.269
X175.411Y-48.537
X176.935Y-50.315
T5
X119.288Y-76.454
X120.039Y-51.331
X120.039Y-53.871
X122.579Y-77.747
X124.865Y-77.747
X135.787Y-70.889
X135.874Y-80.247
X135.874Y-81.347
X135.874Y-82.447
X135.874Y-83.547
X135.874Y-84.647
X135.874Y-85.747
X135.874Y-86.847
X135.874Y-87.947
X137.224Y-80.247
X137.224Y-81.347
X137.224Y-82.447
X137.224Y-83.547
X137.224Y-84.647
X137.224Y-85.747
X137.224Y-86.847
X137.224Y-87.947
X138.073Y-72.667
X139.851Y-61.237
X140.613Y-57.173
X140.613Y-88.161
X143.153Y-57.173
X145.693Y-54.633
X145.693Y-56.919
X159.663Y-80.795
X161.187Y-70.889
X161.949Y-80.795
X163.219Y-87.907
X163.473Y-84.097
X175.157Y-71.9
X181.253Y-77.493
X181.253Y-79.779
T6
X192.175Y-78.451
T7
X118.837Y-62.287
X118.837Y-67.367
X158.647Y-58.443
X158.647Y-66.063
X160.845Y-56.665
X160.845Y-64.285
T8
X146.74Y-81.913
X146.74Y-83.183
X148.011Y-81.913
X148.011Y-83.183
X149.28Y-81.913
X149.28Y-83.183
X150.55Y-81.913
X150.55Y-83.183
X151.82Y-81.913
X151.82Y-83.183
T9
X120.099Y-86.366
X122.599Y-86.366
X125.099Y-86.366
X127.599Y-86.366
X145.898Y-45.078
X148.398Y-45.078
X150.898Y-45.078
X153.398Y-45.078
X155.898Y-45.078
X158.398Y-45.078
T10
X107.697Y-49.177
X107.697Y-51.717
X107.697Y-54.257
X107.697Y-56.797
X107.697Y-59.337
X107.697Y-61.877
X107.697Y-64.417
X107.697Y-66.957
X107.697Y-69.497
X107.697Y-72.037
X107.697Y-74.577
X107.697Y-77.117
X107.697Y-79.657
X107.697Y-82.197
X180.877Y-61.877
X180.877Y-64.417
X180.877Y-66.957
X180.877Y-69.497
T5
G00X134.399Y-81.997
M15
G01X134.399Y-81.197
M16
G05
G00X134.399Y-86.997
M15
G01X134.399Y-86.197
M16
G05
G00X138.699Y-81.997
M15
G01X138.699Y-81.197
M16
G05
G00X138.699Y-86.997
M15
G01X138.699Y-86.197
M16
G05
G00X187.4Y-81.101
M15
G01X187.4Y-82.001
M16
G05
G00X187.4Y-87.501
M15
G01X187.4Y-88.401
M16
G05
G00X188.95Y-78.451
M15
G01X189.85Y-78.451
M16
G05
G00X191.725Y-81.851
M15
G01X192.625Y-81.851
M16
G05
G00X191.725Y-85.651
M15
G01X192.625Y-85.651
M16
G05
G00X194.5Y-78.451
M15
G01X195.4Y-78.451
M16
G05
G00X196.95Y-81.101
M15
G01X196.95Y-82.001
M16
G05
G00X196.95Y-87.501
M15
G01X196.95Y-88.401
M16
G05
M30
