M48
; DRILL file KiCad 10.0.5-unknown-202607221313~667fa36054~ubuntu25.10.1 date 2026-10-06T06:36:02
; FORMAT={-:-/ absolute / metric / decimal}
; #@! TF.CreationDate,2026-10-06T06:36:02+00:00
; #@! TF.GenerationSoftware,Kicad,Pcbnew,10.0.5-unknown-202607221313~667fa36054~ubuntu25.10.1
; #@! TF.FileFunction,Plated,1,4,PTH
FMAT,2
METRIC
; #@! TA.AperFunction,Plated,PTH,ViaDrill
T1C0.300
; #@! TA.AperFunction,Plated,PTH,ComponentDrill
T2C0.800
; #@! TA.AperFunction,Plated,PTH,ComponentDrill
T3C0.900
; #@! TA.AperFunction,Plated,PTH,ComponentDrill
T4C1.000
; #@! TA.AperFunction,Plated,PTH,ComponentDrill
T5C1.200
%
G90
G05
T1
X95.208Y-52.578
X102.455Y-54.957
X104.005Y-54.957
X106.892Y-58.166
X112.48Y-47.752
T2
X100.085Y-87.055
X100.085Y-89.595
X100.085Y-92.135
X100.085Y-94.675
X100.085Y-97.215
X100.085Y-99.755
X100.085Y-102.295
X100.085Y-104.835
X100.085Y-107.375
X100.085Y-109.915
X100.085Y-112.455
X100.085Y-114.995
X100.085Y-117.535
X100.085Y-120.075
X107.705Y-87.055
X107.705Y-89.595
X107.705Y-92.135
X107.705Y-94.675
X107.705Y-97.215
X107.705Y-99.755
X107.705Y-102.295
X107.705Y-104.835
X107.705Y-107.375
X107.705Y-109.915
X107.705Y-112.455
X107.705Y-114.995
X107.705Y-117.535
X107.705Y-120.075
T3
X113.175Y-80.535
X115.715Y-80.535
X146.125Y-88.635
X148.665Y-88.635
T4
X113.259Y-54.881
X113.259Y-57.421
X113.259Y-59.961
T5
X115.525Y-99.0
X115.525Y-108.525
X120.605Y-99.0
X120.605Y-108.525
X131.95Y-87.0
X137.03Y-87.0
X138.525Y-77.525
X143.605Y-77.525
M30
