%TF.GenerationSoftware,KiCad,Pcbnew,10.0.5-unknown-202607221313~667fa36054~ubuntu25.10.1*%
%TF.CreationDate,2026-10-08T20:20:07+00:00*%
%TF.ProjectId,ktest,6b746573-742e-46b6-9963-61645f706362,0.0.2*%
%TF.SameCoordinates,Original*%
%TF.FileFunction,Soldermask,Bot*%
%TF.FilePolarity,Negative*%
%FSLAX46Y46*%
G04 Gerber Fmt 4.6, Leading zero omitted, Abs format (unit mm)*
G04 Created by KiCad (PCBNEW 10.0.5-unknown-202607221313~667fa36054~ubuntu25.10.1) date 2026-10-08 20:20:07*
%MOMM*%
%LPD*%
G01*
G04 APERTURE LIST*
G04 Aperture macros list*
%AMRoundRect*
0 Rectangle with rounded corners*
0 $1 Rounding radius*
0 $2 $3 $4 $5 $6 $7 $8 $9 X,Y pos of 4 corners*
0 Add a 4 corners polygon primitive as box body*
4,1,4,$2,$3,$4,$5,$6,$7,$8,$9,$2,$3,0*
0 Add four circle primitives for the rounded corners*
1,1,$1+$1,$2,$3*
1,1,$1+$1,$4,$5*
1,1,$1+$1,$6,$7*
1,1,$1+$1,$8,$9*
0 Add four rect primitives between the rounded corners*
20,1,$1+$1,$2,$3,$4,$5,0*
20,1,$1+$1,$4,$5,$6,$7,0*
20,1,$1+$1,$6,$7,$8,$9,0*
20,1,$1+$1,$8,$9,$2,$3,0*%
G04 Aperture macros list end*
%ADD10C,0.550000*%
%ADD11C,0.010000*%
%ADD12C,1.000000*%
%ADD13C,1.400000*%
%ADD14C,1.200000*%
%ADD15O,2.600000X1.600000*%
%ADD16C,1.600000*%
%ADD17R,1.600000X2.600000*%
%ADD18RoundRect,0.251867X6.225133X0.827633X-6.225133X0.827633X-6.225133X-0.827633X6.225133X-0.827633X0*%
%ADD19O,1.000000X0.850000*%
%ADD20O,1.000000X1.800000*%
%ADD21RoundRect,0.250000X-0.600000X-0.725000X0.600000X-0.725000X0.600000X0.725000X-0.600000X0.725000X0*%
%ADD22O,1.700000X1.950000*%
%ADD23RoundRect,0.250000X0.600000X0.725000X-0.600000X0.725000X-0.600000X-0.725000X0.600000X-0.725000X0*%
%ADD24RoundRect,0.080000X-0.545000X0.545000X-0.545000X-0.545000X0.545000X-0.545000X0.545000X0.545000X0*%
%ADD25C,1.250000*%
%ADD26R,1.700000X1.700000*%
%ADD27C,1.700000*%
%ADD28C,5.000000*%
G04 APERTURE END LIST*
D10*
X104145000Y-89302000D02*
G75*
G02*
X103595000Y-89302000I-275000J0D01*
G01*
X103595000Y-89302000D02*
G75*
G02*
X104145000Y-89302000I275000J0D01*
G01*
X105923000Y-89302000D02*
G75*
G02*
X105373000Y-89302000I-275000J0D01*
G01*
X105373000Y-89302000D02*
G75*
G02*
X105923000Y-89302000I275000J0D01*
G01*
X122941000Y-89556000D02*
G75*
G02*
X122391000Y-89556000I-275000J0D01*
G01*
X122391000Y-89556000D02*
G75*
G02*
X122941000Y-89556000I275000J0D01*
G01*
X129037000Y-87905000D02*
G75*
G02*
X128487000Y-87905000I-275000J0D01*
G01*
X128487000Y-87905000D02*
G75*
G02*
X129037000Y-87905000I275000J0D01*
G01*
X129164000Y-84095000D02*
G75*
G02*
X128614000Y-84095000I-275000J0D01*
G01*
X128614000Y-84095000D02*
G75*
G02*
X129164000Y-84095000I275000J0D01*
G01*
D11*
X160512000Y-100224000D02*
X172704000Y-100224000D01*
X172704000Y-102874000D01*
X160512000Y-102874000D01*
X160512000Y-100224000D01*
G36*
X160512000Y-100224000D02*
G01*
X172704000Y-100224000D01*
X172704000Y-102874000D01*
X160512000Y-102874000D01*
X160512000Y-100224000D01*
G37*
X160512000Y-102764000D02*
X162290000Y-102764000D01*
X162290000Y-105304000D01*
X160512000Y-105304000D01*
X160512000Y-102764000D01*
G36*
X160512000Y-102764000D02*
G01*
X162290000Y-102764000D01*
X162290000Y-105304000D01*
X160512000Y-105304000D01*
X160512000Y-102764000D01*
G37*
X170926000Y-102764000D02*
X172704000Y-102764000D01*
X172704000Y-105304000D01*
X170926000Y-105304000D01*
X170926000Y-102764000D01*
G36*
X170926000Y-102764000D02*
G01*
X172704000Y-102764000D01*
X172704000Y-105304000D01*
X170926000Y-105304000D01*
X170926000Y-102764000D01*
G37*
D12*
%TO.C,TP13*%
X115046000Y-82698000D03*
%TD*%
%TO.C,TP18*%
X155686000Y-105304000D03*
%TD*%
D13*
%TO.C,JP9*%
X93270000Y-87812000D03*
X93270000Y-92892000D03*
%TD*%
D12*
%TO.C,TP7*%
X149590000Y-97430000D03*
%TD*%
%TO.C,TP10*%
X155686000Y-103018000D03*
%TD*%
%TO.C,TP21*%
X120126000Y-82444000D03*
%TD*%
%TO.C,TP6*%
X137906000Y-109622000D03*
%TD*%
%TO.C,TP8*%
X112506000Y-98192000D03*
%TD*%
D14*
%TO.C,J6*%
X164883000Y-113526000D03*
X168333000Y-113526000D03*
D15*
X163833000Y-103976000D03*
X169383000Y-103976000D03*
D16*
X166608000Y-103976000D03*
D15*
X166608000Y-107376000D03*
X166608000Y-111176000D03*
D17*
X161833000Y-107076000D03*
X161833000Y-113476000D03*
X171383000Y-107076000D03*
X171383000Y-113476000D03*
%TD*%
D12*
%TO.C,TP14*%
X94472000Y-76856000D03*
%TD*%
%TO.C,TP9*%
X114284000Y-86762000D03*
%TD*%
%TO.C,TP5*%
X134096000Y-106320000D03*
%TD*%
D18*
%TO.C,J8*%
X144002000Y-79332500D03*
X144002000Y-75903500D03*
%TD*%
D19*
%TO.C,J5*%
X110307000Y-113472000D03*
X110307000Y-112372000D03*
X110307000Y-111272000D03*
X110307000Y-110172000D03*
X110307000Y-109072000D03*
X110307000Y-107972000D03*
X110307000Y-106872000D03*
X110307000Y-105772000D03*
X111657000Y-105772000D03*
X111657000Y-106872000D03*
X111657000Y-107972000D03*
X111657000Y-109072000D03*
X111657000Y-110172000D03*
X111657000Y-111272000D03*
X111657000Y-112372000D03*
X111657000Y-113472000D03*
D20*
X108832000Y-112122000D03*
X113132000Y-112122000D03*
X108832000Y-107122000D03*
X113132000Y-107122000D03*
%TD*%
D12*
%TO.C,TP15*%
X120126000Y-80158000D03*
%TD*%
%TO.C,TP11*%
X110220000Y-96414000D03*
%TD*%
%TO.C,TP3*%
X99298000Y-103272000D03*
%TD*%
%TO.C,TP16*%
X115046000Y-113686000D03*
%TD*%
%TO.C,TP20*%
X137652000Y-113432000D03*
%TD*%
%TO.C,TP19*%
X94472000Y-79396000D03*
%TD*%
%TO.C,TP4*%
X97012000Y-103272000D03*
%TD*%
%TO.C,TP12*%
X117586000Y-82698000D03*
%TD*%
%TO.C,TP2*%
X135620000Y-96414000D03*
%TD*%
D21*
%TO.C,J1*%
X94532000Y-111891000D03*
D22*
X97032000Y-111891000D03*
X99532000Y-111891000D03*
X102032000Y-111891000D03*
%TD*%
D13*
%TO.C,JP18*%
X133080000Y-83968000D03*
X133080000Y-91588000D03*
%TD*%
D23*
%TO.C,J7*%
X132831300Y-70603000D03*
D22*
X130331300Y-70603000D03*
X127831300Y-70603000D03*
X125331300Y-70603000D03*
X122831300Y-70603000D03*
X120331300Y-70603000D03*
%TD*%
D12*
%TO.C,TP1*%
X136382000Y-106320000D03*
%TD*%
D13*
%TO.C,JP22*%
X135278000Y-82190000D03*
X135278000Y-89810000D03*
%TD*%
D12*
%TO.C,TP17*%
X93710000Y-102002000D03*
%TD*%
D24*
%TO.C,J4*%
X121173500Y-107437600D03*
D25*
X121173500Y-108707600D03*
X122443500Y-107437600D03*
X122443500Y-108707600D03*
X123713500Y-107437600D03*
X123713500Y-108707600D03*
X124983500Y-107437600D03*
X124983500Y-108707600D03*
X126253500Y-107437600D03*
X126253500Y-108707600D03*
%TD*%
D26*
%TO.C,J2*%
X155310000Y-95022000D03*
D27*
X155310000Y-92482000D03*
X155310000Y-89942000D03*
X155310000Y-87402000D03*
%TD*%
D26*
%TO.C,J3*%
X82130000Y-107722000D03*
D27*
X82130000Y-105182000D03*
X82130000Y-102642000D03*
X82130000Y-100102000D03*
X82130000Y-97562000D03*
X82130000Y-95022000D03*
X82130000Y-92482000D03*
X82130000Y-89942000D03*
X82130000Y-87402000D03*
X82130000Y-84862000D03*
X82130000Y-82322000D03*
X82130000Y-79782000D03*
X82130000Y-77242000D03*
X82130000Y-74702000D03*
%TD*%
D28*
%TO.C,TFT1*%
X87050000Y-109572000D03*
X154310000Y-109572000D03*
X87050000Y-72852000D03*
X154310000Y-72852000D03*
%TD*%
M02*
