%TF.GenerationSoftware,KiCad,Pcbnew,10.0.5-unknown-202607221313~667fa36054~ubuntu25.10.1*%
%TF.CreationDate,2026-10-08T17:50:11+00:00*%
%TF.ProjectId,ktest,6b746573-742e-46b6-9963-61645f706362,0.0.2*%
%TF.SameCoordinates,Original*%
%TF.FileFunction,Copper,L3,Inr*%
%TF.FilePolarity,Positive*%
%FSLAX46Y46*%
G04 Gerber Fmt 4.6, Leading zero omitted, Abs format (unit mm)*
G04 Created by KiCad (PCBNEW 10.0.5-unknown-202607221313~667fa36054~ubuntu25.10.1) date 2026-10-08 17:50:11*
%MOMM*%
%LPD*%
G01*
G04 APERTURE LIST*
G04 Aperture macros list*
%AMRoundRect*
0 Rectangle with rounded corners*
0 $1 Rounding radius*
0 $2 $3 $4 $5 $6 $7 $8 $9 X,Y pos of 4 corners*
0 Add a 4 corners polygon primitive as box body*
4,1,4,$2,$3,$4,$5,$6,$7,$8,$9,$2,$3,0*
0 Add four circle primitives for the rounded corners*
1,1,$1+$1,$2,$3*
1,1,$1+$1,$4,$5*
1,1,$1+$1,$6,$7*
1,1,$1+$1,$8,$9*
0 Add four rect primitives between the rounded corners*
20,1,$1+$1,$2,$3,$4,$5,0*
20,1,$1+$1,$4,$5,$6,$7,0*
20,1,$1+$1,$6,$7,$8,$9,0*
20,1,$1+$1,$8,$9,$2,$3,0*%
G04 Aperture macros list end*
%TA.AperFunction,ComponentPad*%
%ADD10C,1.000000*%
%TD*%
%TA.AperFunction,ComponentPad*%
%ADD11C,1.400000*%
%TD*%
%TA.AperFunction,ComponentPad*%
%ADD12C,0.600000*%
%TD*%
%TA.AperFunction,ComponentPad*%
%ADD13O,2.600000X1.600000*%
%TD*%
%TA.AperFunction,ComponentPad*%
%ADD14C,1.600000*%
%TD*%
%TA.AperFunction,ComponentPad*%
%ADD15R,1.600000X2.600000*%
%TD*%
%TA.AperFunction,ComponentPad*%
%ADD16O,1.000000X0.850000*%
%TD*%
%TA.AperFunction,ComponentPad*%
%ADD17O,1.000000X1.800000*%
%TD*%
%TA.AperFunction,ComponentPad*%
%ADD18RoundRect,0.250000X-0.600000X-0.725000X0.600000X-0.725000X0.600000X0.725000X-0.600000X0.725000X0*%
%TD*%
%TA.AperFunction,ComponentPad*%
%ADD19O,1.700000X1.950000*%
%TD*%
%TA.AperFunction,ComponentPad*%
%ADD20RoundRect,0.250000X0.600000X0.725000X-0.600000X0.725000X-0.600000X-0.725000X0.600000X-0.725000X0*%
%TD*%
%TA.AperFunction,ComponentPad*%
%ADD21R,1.090000X1.090000*%
%TD*%
%TA.AperFunction,ComponentPad*%
%ADD22C,1.090000*%
%TD*%
%TA.AperFunction,ComponentPad*%
%ADD23R,1.700000X1.700000*%
%TD*%
%TA.AperFunction,ComponentPad*%
%ADD24C,1.700000*%
%TD*%
%TA.AperFunction,WasherPad*%
%ADD25C,5.000000*%
%TD*%
%TA.AperFunction,ViaPad*%
%ADD26C,1.000000*%
%TD*%
%TA.AperFunction,ViaPad*%
%ADD27C,0.600000*%
%TD*%
%TA.AperFunction,ViaPad*%
%ADD28C,0.800000*%
%TD*%
%TA.AperFunction,Conductor*%
%ADD29C,0.400000*%
%TD*%
%TA.AperFunction,Conductor*%
%ADD30C,0.200000*%
%TD*%
G04 APERTURE END LIST*
D10*
%TO.N,/System overview/Block diagram/ENCb_filt*%
%TO.C,TP13*%
X115046000Y-82698000D03*
%TD*%
%TO.N,/System overview/Block diagram/GND*%
%TO.C,TP18*%
X155686000Y-105304000D03*
%TD*%
D11*
%TO.N,/System overview/Block diagram/DISP_DC*%
%TO.C,JP9*%
X93270000Y-87812000D03*
%TO.N,Net-(J3-Pin_5)*%
X93270000Y-92892000D03*
%TD*%
D10*
%TO.N,/System overview/Block diagram/3V3_REG*%
%TO.C,TP7*%
X149590000Y-97430000D03*
%TD*%
D12*
%TO.N,/System overview/Block diagram/GND*%
%TO.C,U1*%
X139856000Y-100590000D03*
X138556000Y-100590000D03*
X137256000Y-100590000D03*
X135956000Y-100590000D03*
X139856000Y-101890000D03*
X138556000Y-101890000D03*
X137256000Y-101890000D03*
X135956000Y-101890000D03*
%TD*%
D10*
%TO.N,/System overview/Block diagram/S3V3*%
%TO.C,TP10*%
X155686000Y-103018000D03*
%TD*%
%TO.N,/System overview/Block diagram/GND*%
%TO.C,TP21*%
X120126000Y-82444000D03*
%TD*%
%TO.N,/System overview/Block diagram/SW*%
%TO.C,TP6*%
X137906000Y-109622000D03*
%TD*%
%TO.N,/System overview/Block diagram/NRST*%
%TO.C,TP8*%
X112506000Y-98192000D03*
%TD*%
D13*
%TO.N,/System overview/Block diagram/S19V5_2*%
%TO.C,J6*%
X163833000Y-103976000D03*
X169383000Y-103976000D03*
D14*
%TO.N,unconnected-(J6-ID-Pad2)*%
X166608000Y-103976000D03*
D13*
%TO.N,/System overview/Block diagram/GND_2*%
X166608000Y-107376000D03*
X166608000Y-111176000D03*
D15*
X161833000Y-107076000D03*
X161833000Y-113476000D03*
X171383000Y-107076000D03*
X171383000Y-113476000D03*
%TD*%
D10*
%TO.N,/System overview/Block diagram/MOT_CS*%
%TO.C,TP14*%
X94472000Y-76856000D03*
%TD*%
%TO.N,/System overview/Block diagram/BOOT0*%
%TO.C,TP9*%
X114284000Y-86762000D03*
%TD*%
%TO.N,/System overview/Block diagram/FB*%
%TO.C,TP5*%
X134096000Y-106320000D03*
%TD*%
D16*
%TO.N,/System overview/Block diagram/GND*%
%TO.C,J5*%
X110307000Y-113472000D03*
%TO.N,Net-(J5-VBUS-PadA4)*%
X110307000Y-112372000D03*
%TO.N,/System overview/Block diagram/CC1*%
X110307000Y-111272000D03*
%TO.N,/System overview/Block diagram/D+*%
X110307000Y-110172000D03*
%TO.N,/System overview/Block diagram/D-*%
X110307000Y-109072000D03*
%TO.N,unconnected-(J5-SBU1-PadA8)*%
X110307000Y-107972000D03*
%TO.N,Net-(J5-VBUS-PadA4)*%
X110307000Y-106872000D03*
%TO.N,/System overview/Block diagram/GND*%
X110307000Y-105772000D03*
X111657000Y-105772000D03*
%TO.N,Net-(J5-VBUS-PadA4)*%
X111657000Y-106872000D03*
%TO.N,/System overview/Block diagram/CC2*%
X111657000Y-107972000D03*
%TO.N,/System overview/Block diagram/D+*%
X111657000Y-109072000D03*
%TO.N,/System overview/Block diagram/D-*%
X111657000Y-110172000D03*
%TO.N,unconnected-(J5-SBU2-PadB8)*%
X111657000Y-111272000D03*
%TO.N,Net-(J5-VBUS-PadA4)*%
X111657000Y-112372000D03*
%TO.N,/System overview/Block diagram/GND*%
X111657000Y-113472000D03*
D17*
X108832000Y-112122000D03*
X113132000Y-112122000D03*
X108832000Y-107122000D03*
X113132000Y-107122000D03*
%TD*%
D10*
%TO.N,/System overview/Block diagram/CS'*%
%TO.C,TP15*%
X120126000Y-80158000D03*
%TD*%
%TO.N,/System overview/Block diagram/SEL0*%
%TO.C,TP11*%
X110220000Y-96414000D03*
%TD*%
%TO.N,/System overview/Block diagram/TOP_filt*%
%TO.C,TP3*%
X99298000Y-103272000D03*
%TD*%
%TO.N,Net-(J5-VBUS-PadA4)*%
%TO.C,TP16*%
X115046000Y-113686000D03*
%TD*%
%TO.N,/System overview/Block diagram/GND*%
%TO.C,TP20*%
X137652000Y-113432000D03*
%TD*%
%TO.N,/System overview/Block diagram/GND*%
%TO.C,TP19*%
X94472000Y-79396000D03*
%TD*%
%TO.N,/System overview/Block diagram/BOT_filt*%
%TO.C,TP4*%
X97012000Y-103272000D03*
%TD*%
%TO.N,/System overview/Block diagram/ENCa_filt*%
%TO.C,TP12*%
X117586000Y-82698000D03*
%TD*%
%TO.N,/System overview/Block diagram/RT*%
%TO.C,TP2*%
X135620000Y-96414000D03*
%TD*%
D18*
%TO.N,/System overview/Block diagram/BOT_EOT*%
%TO.C,J1*%
X94532000Y-111891000D03*
D19*
%TO.N,/System overview/Block diagram/GND*%
X97032000Y-111891000D03*
X99532000Y-111891000D03*
%TO.N,/System overview/Block diagram/TOP_EOT*%
X102032000Y-111891000D03*
%TD*%
D11*
%TO.N,/System overview/Block diagram/SEL0'*%
%TO.C,JP18*%
X133080000Y-83968000D03*
%TO.N,/System overview/Block diagram/SEL0*%
X133080000Y-91588000D03*
%TD*%
D20*
%TO.N,/System overview/Block diagram/OUTb*%
%TO.C,J7*%
X132831300Y-70603000D03*
D19*
%TO.N,/System overview/Block diagram/OUTa*%
X130331300Y-70603000D03*
%TO.N,/System overview/Block diagram/S3V3*%
X127831300Y-70603000D03*
%TO.N,/System overview/Block diagram/GND*%
X125331300Y-70603000D03*
%TO.N,/System overview/Block diagram/ENCa*%
X122831300Y-70603000D03*
%TO.N,/System overview/Block diagram/ENCb*%
X120331300Y-70603000D03*
%TD*%
D10*
%TO.N,/System overview/Block diagram/PG*%
%TO.C,TP1*%
X136382000Y-106320000D03*
%TD*%
D11*
%TO.N,/System overview/Block diagram/OUTb*%
%TO.C,JP22*%
X135278000Y-82190000D03*
%TO.N,/System overview/Block diagram/OUTb'*%
X135278000Y-89810000D03*
%TD*%
D10*
%TO.N,/System overview/Block diagram/GND*%
%TO.C,TP17*%
X93710000Y-102002000D03*
%TD*%
D21*
%TO.N,/System overview/Block diagram/NRST*%
%TO.C,J4*%
X121173500Y-107437600D03*
D22*
%TO.N,/System overview/Block diagram/SWDCLK*%
X121173500Y-108707600D03*
%TO.N,/System overview/Block diagram/SWO'*%
X122443500Y-107437600D03*
%TO.N,/System overview/Block diagram/SWDIO*%
X122443500Y-108707600D03*
%TO.N,/System overview/Block diagram/GND*%
X123713500Y-107437600D03*
X123713500Y-108707600D03*
%TO.N,/System overview/Block diagram/S3V3*%
X124983500Y-107437600D03*
X124983500Y-108707600D03*
%TO.N,unconnected-(J4-Pin_9-Pad9)*%
X126253500Y-107437600D03*
%TO.N,unconnected-(J4-Pin_10-Pad10)*%
X126253500Y-108707600D03*
%TD*%
D23*
%TO.N,unconnected-(J2-Pin_1-Pad1)*%
%TO.C,J2*%
X155310000Y-95022000D03*
D24*
%TO.N,unconnected-(J2-Pin_2-Pad2)*%
X155310000Y-92482000D03*
%TO.N,unconnected-(J2-Pin_3-Pad3)*%
X155310000Y-89942000D03*
%TO.N,unconnected-(J2-Pin_4-Pad4)*%
X155310000Y-87402000D03*
%TD*%
D23*
%TO.N,/System overview/Block diagram/S3V3*%
%TO.C,J3*%
X82130000Y-107722000D03*
D24*
%TO.N,/System overview/Block diagram/GND*%
X82130000Y-105182000D03*
%TO.N,Net-(J3-Pin_3)*%
X82130000Y-102642000D03*
%TO.N,Net-(J3-Pin_4)*%
X82130000Y-100102000D03*
%TO.N,Net-(J3-Pin_5)*%
X82130000Y-97562000D03*
%TO.N,Net-(J3-Pin_6)*%
X82130000Y-95022000D03*
%TO.N,Net-(J3-Pin_7)*%
X82130000Y-92482000D03*
%TO.N,/System overview/Block diagram/S3V3*%
X82130000Y-89942000D03*
%TO.N,Net-(J3-Pin_9)*%
X82130000Y-87402000D03*
%TO.N,Net-(J3-Pin_10)*%
X82130000Y-84862000D03*
%TO.N,Net-(J3-Pin_11)*%
X82130000Y-82322000D03*
%TO.N,Net-(J3-Pin_12)*%
X82130000Y-79782000D03*
%TO.N,Net-(J3-Pin_13)*%
X82130000Y-77242000D03*
%TO.N,Net-(J3-Pin_14)*%
X82130000Y-74702000D03*
%TD*%
D25*
%TO.N,*%
%TO.C,TFT1*%
X87050000Y-109572000D03*
X154310000Y-109572000D03*
X87050000Y-72852000D03*
X154310000Y-72852000D03*
%TD*%
D26*
%TO.N,/System overview/Block diagram/GND*%
X129270000Y-90445000D03*
D27*
X100314000Y-95398000D03*
X102600000Y-104102000D03*
D26*
X126730000Y-79015000D03*
X124825000Y-80285000D03*
D27*
X83296000Y-111908000D03*
D26*
X149082000Y-88794000D03*
X126095000Y-80285000D03*
X151368000Y-75840000D03*
X149082000Y-83714000D03*
X126730000Y-90445000D03*
D27*
X104886000Y-81428000D03*
D26*
X129270000Y-79015000D03*
D27*
X121904000Y-78126000D03*
X112770000Y-68982000D03*
X97266000Y-93112000D03*
X96504000Y-81682000D03*
D26*
X128000000Y-79015000D03*
D27*
X93710000Y-104102000D03*
X120126000Y-86000000D03*
X99552000Y-76856000D03*
D26*
X126730000Y-81555000D03*
X130540000Y-79015000D03*
X138160000Y-72792000D03*
D27*
X112760000Y-72538000D03*
D26*
X128635000Y-91715000D03*
X125460000Y-92985000D03*
X127365000Y-91715000D03*
D27*
X117078000Y-74824000D03*
D26*
X128635000Y-80285000D03*
D27*
X151622000Y-103526000D03*
D26*
X147050000Y-88794000D03*
X128000000Y-81555000D03*
D27*
X151622000Y-105050000D03*
D26*
X129270000Y-81555000D03*
X129905000Y-91715000D03*
X131175000Y-80285000D03*
X149844000Y-74062000D03*
X147050000Y-83714000D03*
D27*
X107426000Y-99716000D03*
X97266000Y-108606000D03*
X142986000Y-101748000D03*
X108950000Y-76094000D03*
X105902000Y-82952000D03*
X99044000Y-108606000D03*
D26*
X138160000Y-74062000D03*
X125460000Y-79015000D03*
D27*
X111744000Y-83714000D03*
D26*
X130540000Y-92985000D03*
X126095000Y-91715000D03*
X124825000Y-91715000D03*
D27*
X112252000Y-78888000D03*
D26*
X128000000Y-90445000D03*
X127365000Y-80285000D03*
X129270000Y-92985000D03*
D27*
X142986000Y-105050000D03*
D26*
X128000000Y-92985000D03*
X126730000Y-92985000D03*
X129905000Y-80285000D03*
X131175000Y-91715000D03*
D27*
X142986000Y-100224000D03*
X142986000Y-103526000D03*
D26*
%TO.N,/System overview/Block diagram/S19V5*%
X140954000Y-88794000D03*
X138922000Y-88794000D03*
X138922000Y-83714000D03*
X140954000Y-83714000D03*
D28*
%TO.N,/System overview/Block diagram/NRST*%
X105648000Y-89302000D03*
%TO.N,/System overview/Block diagram/CS'*%
X128889000Y-84095000D03*
%TO.N,/System overview/Block diagram/SEL0*%
X103870000Y-89302000D03*
%TO.N,/System overview/Block diagram/PWM'*%
X128762000Y-87905000D03*
X122666000Y-89556000D03*
%TD*%
%TO.N,/System overview/Block diagram/NRST*%
D29*
X105648000Y-89302000D02*
X112506000Y-96160000D01*
X112506000Y-96160000D02*
X112506000Y-98192000D01*
%TO.N,Net-(J5-VBUS-PadA4)*%
D30*
X113982000Y-112874082D02*
X113484082Y-113372000D01*
X111779918Y-112372000D02*
X111657000Y-112372000D01*
X111779918Y-106872000D02*
X112779918Y-105872000D01*
X112779918Y-105872000D02*
X113484082Y-105872000D01*
X113982000Y-106369918D02*
X113982000Y-112874082D01*
X113484082Y-113372000D02*
X112779918Y-113372000D01*
X112779918Y-113372000D02*
X111779918Y-112372000D01*
X113484082Y-105872000D02*
X113982000Y-106369918D01*
X111657000Y-106872000D02*
X111779918Y-106872000D01*
%TO.N,/System overview/Block diagram/CS'*%
D29*
X128889000Y-84095000D02*
X124063000Y-84095000D01*
X124063000Y-84095000D02*
X120126000Y-80158000D01*
%TO.N,/System overview/Block diagram/SEL0*%
X103870000Y-90064000D02*
X103870000Y-89302000D01*
X110220000Y-96414000D02*
X103870000Y-90064000D01*
%TO.N,/System overview/Block diagram/PWM'*%
X124317000Y-87905000D02*
X128762000Y-87905000D01*
X122666000Y-89556000D02*
X124317000Y-87905000D01*
%TD*%
%TA.AperFunction,Conductor*%
%TO.N,/System overview/Block diagram/SEL0*%
G36*
X103874516Y-89299502D02*
G01*
X104230116Y-89451052D01*
X104236383Y-89457447D01*
X104236800Y-89464952D01*
X104079098Y-90031322D01*
X104073578Y-90038373D01*
X104064689Y-90039455D01*
X104057638Y-90033935D01*
X104057022Y-90032671D01*
X104025743Y-89957156D01*
X104025742Y-89957156D01*
X103761301Y-90221597D01*
X103753028Y-90225024D01*
X103744755Y-90221597D01*
X103730224Y-90207066D01*
X103727688Y-90203270D01*
X103670272Y-90064656D01*
X103669810Y-90063317D01*
X103503199Y-89464952D01*
X103504281Y-89456063D01*
X103509880Y-89451052D01*
X103865415Y-89299531D01*
X103874367Y-89299441D01*
X103874516Y-89299502D01*
G37*
%TD.AperFunction*%
%TD*%
%TA.AperFunction,Conductor*%
%TO.N,/System overview/Block diagram/NRST*%
G36*
X105971204Y-89068722D02*
G01*
X105971955Y-89069856D01*
X106348153Y-89716056D01*
X106349354Y-89724929D01*
X106346315Y-89730215D01*
X106076215Y-90000315D01*
X106067942Y-90003742D01*
X106062056Y-90002153D01*
X105415856Y-89625955D01*
X105410431Y-89618831D01*
X105411632Y-89609957D01*
X105412372Y-89608838D01*
X105643873Y-89300205D01*
X105646205Y-89297873D01*
X105954825Y-89066382D01*
X105963498Y-89064161D01*
X105971204Y-89068722D01*
G37*
%TD.AperFunction*%
%TD*%
%TA.AperFunction,Conductor*%
%TO.N,/System overview/Block diagram/NRST*%
G36*
X112705778Y-97199705D02*
G01*
X112708630Y-97204355D01*
X112964621Y-97990467D01*
X112963924Y-97999395D01*
X112958078Y-98004855D01*
X112510582Y-98195327D01*
X112501628Y-98195414D01*
X112501418Y-98195327D01*
X112053921Y-98004855D01*
X112047651Y-97998462D01*
X112047378Y-97990468D01*
X112303370Y-97204355D01*
X112309190Y-97197550D01*
X112314495Y-97196278D01*
X112697505Y-97196278D01*
X112705778Y-97199705D01*
G37*
%TD.AperFunction*%
%TD*%
%TA.AperFunction,Conductor*%
%TO.N,/System overview/Block diagram/CS'*%
G36*
X120586953Y-79970750D02*
G01*
X120592799Y-79976210D01*
X120967651Y-80713089D01*
X120968348Y-80722017D01*
X120965496Y-80726667D01*
X120694667Y-80997496D01*
X120686394Y-81000923D01*
X120681089Y-80999651D01*
X119944210Y-80624799D01*
X119938390Y-80617994D01*
X119938663Y-80609999D01*
X120120408Y-80158888D01*
X120126678Y-80152495D01*
X120126888Y-80152408D01*
X120577999Y-79970663D01*
X120586953Y-79970750D01*
G37*
%TD.AperFunction*%
%TD*%
%TA.AperFunction,Conductor*%
%TO.N,/System overview/Block diagram/PWM'*%
G36*
X123094215Y-88857684D02*
G01*
X123364315Y-89127784D01*
X123367742Y-89136057D01*
X123366153Y-89141944D01*
X122989955Y-89788143D01*
X122982831Y-89793568D01*
X122973957Y-89792367D01*
X122972827Y-89791618D01*
X122664209Y-89560129D01*
X122661870Y-89557790D01*
X122430382Y-89249174D01*
X122428161Y-89240501D01*
X122432722Y-89232795D01*
X122433843Y-89232052D01*
X123080058Y-88855845D01*
X123088929Y-88854645D01*
X123094215Y-88857684D01*
G37*
%TD.AperFunction*%
%TD*%
%TA.AperFunction,Conductor*%
%TO.N,Net-(J5-VBUS-PadA4)*%
G36*
X112124039Y-112213040D02*
G01*
X112128655Y-112218245D01*
X112169952Y-112309834D01*
X112421818Y-112868432D01*
X112422095Y-112877382D01*
X112419425Y-112881514D01*
X112288783Y-113012156D01*
X112280510Y-113015583D01*
X112276904Y-113015014D01*
X111614113Y-112800315D01*
X111607299Y-112794505D01*
X111606326Y-112786521D01*
X111716121Y-112316810D01*
X111721340Y-112309536D01*
X111724705Y-112308116D01*
X112115187Y-112211696D01*
X112124039Y-112213040D01*
G37*
%TD.AperFunction*%
%TD*%
%TA.AperFunction,Conductor*%
%TO.N,/System overview/Block diagram/PWM'*%
G36*
X128705952Y-87512979D02*
G01*
X128711378Y-87520103D01*
X128711647Y-87521426D01*
X128766186Y-87903346D01*
X128766186Y-87906652D01*
X128737534Y-88107300D01*
X128711649Y-88288563D01*
X128707087Y-88296269D01*
X128698412Y-88298492D01*
X128697079Y-88298221D01*
X127974135Y-88107300D01*
X127967011Y-88101874D01*
X127965422Y-88095988D01*
X127965422Y-87714011D01*
X127968849Y-87705738D01*
X127974135Y-87702699D01*
X128697081Y-87511778D01*
X128705952Y-87512979D01*
G37*
%TD.AperFunction*%
%TD*%
%TA.AperFunction,Conductor*%
%TO.N,Net-(J5-VBUS-PadA4)*%
G36*
X112285831Y-106229696D02*
G01*
X112288783Y-106231843D01*
X112419425Y-106362485D01*
X112422852Y-106370758D01*
X112421818Y-106375567D01*
X112128656Y-107025753D01*
X112122131Y-107031887D01*
X112115185Y-107032303D01*
X111724708Y-106935883D01*
X111717498Y-106930573D01*
X111716121Y-106927190D01*
X111606326Y-106457477D01*
X111607780Y-106448642D01*
X111614112Y-106443684D01*
X112276904Y-106228985D01*
X112285831Y-106229696D01*
G37*
%TD.AperFunction*%
%TD*%
%TA.AperFunction,Conductor*%
%TO.N,/System overview/Block diagram/CS'*%
G36*
X128832952Y-83702979D02*
G01*
X128838378Y-83710103D01*
X128838647Y-83711426D01*
X128893186Y-84093346D01*
X128893186Y-84096652D01*
X128864534Y-84297300D01*
X128838649Y-84478563D01*
X128834087Y-84486269D01*
X128825412Y-84488492D01*
X128824079Y-84488221D01*
X128101135Y-84297300D01*
X128094011Y-84291874D01*
X128092422Y-84285988D01*
X128092422Y-83904011D01*
X128095849Y-83895738D01*
X128101135Y-83892699D01*
X128824081Y-83701778D01*
X128832952Y-83702979D01*
G37*
%TD.AperFunction*%
%TD*%
%TA.AperFunction,Conductor*%
%TO.N,/System overview/Block diagram/SEL0*%
G36*
X109664908Y-95572347D02*
G01*
X110401789Y-95947200D01*
X110407609Y-95954005D01*
X110407336Y-95962000D01*
X110225591Y-96413111D01*
X110219321Y-96419504D01*
X110219111Y-96419591D01*
X109768000Y-96601336D01*
X109759046Y-96601249D01*
X109753200Y-96595789D01*
X109663568Y-96419591D01*
X109378347Y-95858909D01*
X109377651Y-95849982D01*
X109380501Y-95845334D01*
X109651333Y-95574502D01*
X109659605Y-95571076D01*
X109664908Y-95572347D01*
G37*
%TD.AperFunction*%
%TD*%
M02*
