%TF.GenerationSoftware,KiCad,Pcbnew,10.0.5-unknown-202607221313~667fa36054~ubuntu25.10.1*%
%TF.CreationDate,2026-10-10T16:54:13+00:00*%
%TF.ProjectId,ktest,6b746573-742e-46b6-9963-61645f706362,0.0.2*%
%TF.SameCoordinates,Original*%
%TF.FileFunction,Copper,L3,Inr*%
%TF.FilePolarity,Positive*%
%FSLAX46Y46*%
G04 Gerber Fmt 4.6, Leading zero omitted, Abs format (unit mm)*
G04 Created by KiCad (PCBNEW 10.0.5-unknown-202607221313~667fa36054~ubuntu25.10.1) date 2026-10-10 16:54:13*
%MOMM*%
%LPD*%
G01*
G04 APERTURE LIST*
G04 Aperture macros list*
%AMRoundRect*
0 Rectangle with rounded corners*
0 $1 Rounding radius*
0 $2 $3 $4 $5 $6 $7 $8 $9 X,Y pos of 4 corners*
0 Add a 4 corners polygon primitive as box body*
4,1,4,$2,$3,$4,$5,$6,$7,$8,$9,$2,$3,0*
0 Add four circle primitives for the rounded corners*
1,1,$1+$1,$2,$3*
1,1,$1+$1,$4,$5*
1,1,$1+$1,$6,$7*
1,1,$1+$1,$8,$9*
0 Add four rect primitives between the rounded corners*
20,1,$1+$1,$2,$3,$4,$5,0*
20,1,$1+$1,$4,$5,$6,$7,0*
20,1,$1+$1,$6,$7,$8,$9,0*
20,1,$1+$1,$8,$9,$2,$3,0*%
G04 Aperture macros list end*
%TA.AperFunction,ComponentPad*%
%ADD10C,1.000000*%
%TD*%
%TA.AperFunction,ComponentPad*%
%ADD11C,1.400000*%
%TD*%
%TA.AperFunction,ComponentPad*%
%ADD12C,0.600000*%
%TD*%
%TA.AperFunction,ComponentPad*%
%ADD13O,2.600000X1.600000*%
%TD*%
%TA.AperFunction,ComponentPad*%
%ADD14C,1.600000*%
%TD*%
%TA.AperFunction,ComponentPad*%
%ADD15R,1.600000X2.600000*%
%TD*%
%TA.AperFunction,ComponentPad*%
%ADD16O,1.000000X0.850000*%
%TD*%
%TA.AperFunction,ComponentPad*%
%ADD17O,1.000000X1.800000*%
%TD*%
%TA.AperFunction,ComponentPad*%
%ADD18RoundRect,0.250000X-0.600000X-0.725000X0.600000X-0.725000X0.600000X0.725000X-0.600000X0.725000X0*%
%TD*%
%TA.AperFunction,ComponentPad*%
%ADD19O,1.700000X1.950000*%
%TD*%
%TA.AperFunction,ComponentPad*%
%ADD20RoundRect,0.250000X0.600000X0.725000X-0.600000X0.725000X-0.600000X-0.725000X0.600000X-0.725000X0*%
%TD*%
%TA.AperFunction,ComponentPad*%
%ADD21R,1.090000X1.090000*%
%TD*%
%TA.AperFunction,ComponentPad*%
%ADD22C,1.090000*%
%TD*%
%TA.AperFunction,ComponentPad*%
%ADD23R,1.700000X1.700000*%
%TD*%
%TA.AperFunction,ComponentPad*%
%ADD24C,1.700000*%
%TD*%
%TA.AperFunction,WasherPad*%
%ADD25C,5.000000*%
%TD*%
%TA.AperFunction,ViaPad*%
%ADD26C,1.000000*%
%TD*%
%TA.AperFunction,ViaPad*%
%ADD27C,0.600000*%
%TD*%
%TA.AperFunction,ViaPad*%
%ADD28C,0.800000*%
%TD*%
%TA.AperFunction,Conductor*%
%ADD29C,0.400000*%
%TD*%
%TA.AperFunction,Conductor*%
%ADD30C,0.200000*%
%TD*%
G04 APERTURE END LIST*
D10*
%TO.N,/System overview/Block diagram/Microcontroller/ENCb_filt*%
%TO.C,TP13*%
X138546000Y-57173000D03*
%TD*%
%TO.N,/System overview/Block diagram/GND*%
%TO.C,TP18*%
X179186000Y-79779000D03*
%TD*%
D11*
%TO.N,/System overview/Block diagram/Display/DISP_DC*%
%TO.C,JP9*%
X116770000Y-62287000D03*
%TO.N,Net-(J3-Pin_5)*%
X116770000Y-67367000D03*
%TD*%
D10*
%TO.N,/System overview/Block diagram/DCDC converter 3V3/3V3_REG*%
%TO.C,TP10*%
X173090000Y-71899722D03*
%TD*%
%TO.N,/System overview/Block diagram/GND*%
%TO.C,TP7*%
X117221000Y-76454000D03*
%TD*%
D12*
%TO.N,/System overview/Block diagram/GND*%
%TO.C,U1*%
X163356000Y-75065000D03*
X162056000Y-75065000D03*
X160756000Y-75065000D03*
X159456000Y-75065000D03*
X163356000Y-76365000D03*
X162056000Y-76365000D03*
X160756000Y-76365000D03*
X159456000Y-76365000D03*
%TD*%
D10*
%TO.N,/System overview/Block diagram/S3V3*%
%TO.C,TP17*%
X179186000Y-77493000D03*
%TD*%
%TO.N,/System overview/Block diagram/GND*%
%TO.C,TP21*%
X143626000Y-56919000D03*
%TD*%
%TO.N,/System overview/Block diagram/DCDC converter 3V3/SW*%
%TO.C,TP6*%
X161406000Y-84097000D03*
%TD*%
%TO.N,/System overview/Block diagram/Microcontroller/NRST*%
%TO.C,TP8*%
X136006000Y-72667000D03*
%TD*%
D13*
%TO.N,/System overview/Block diagram/DCDC converter 3V3/S19V5_2*%
%TO.C,J6*%
X187333000Y-78451000D03*
X192883000Y-78451000D03*
D14*
%TO.N,unconnected-(J6-ID-Pad2)*%
X190108000Y-78451000D03*
D13*
%TO.N,/System overview/Block diagram/DCDC converter 3V3/GND_2*%
X190108000Y-81851000D03*
X190108000Y-85651000D03*
D15*
X185333000Y-81551000D03*
X185333000Y-87951000D03*
X194883000Y-81551000D03*
X194883000Y-87951000D03*
%TD*%
D10*
%TO.N,/System overview/Block diagram/Microcontroller/MOT_CS*%
%TO.C,TP14*%
X117972000Y-51331000D03*
%TD*%
%TO.N,/System overview/Block diagram/Microcontroller/BOOT0*%
%TO.C,TP9*%
X137784000Y-61237000D03*
%TD*%
%TO.N,/System overview/Block diagram/DCDC converter 3V3/FB*%
%TO.C,TP5*%
X157596000Y-80795000D03*
%TD*%
D16*
%TO.N,/System overview/Block diagram/GND*%
%TO.C,J5*%
X133807000Y-87947000D03*
%TO.N,Net-(J5-VBUS-PadA4)*%
X133807000Y-86847000D03*
%TO.N,/System overview/Block diagram/Microcontroller/CC1*%
X133807000Y-85747000D03*
%TO.N,/System overview/Block diagram/Microcontroller/D+*%
X133807000Y-84647000D03*
%TO.N,/System overview/Block diagram/Microcontroller/D-*%
X133807000Y-83547000D03*
%TO.N,unconnected-(J5-SBU1-PadA8)*%
X133807000Y-82447000D03*
%TO.N,Net-(J5-VBUS-PadA4)*%
X133807000Y-81347000D03*
%TO.N,/System overview/Block diagram/GND*%
X133807000Y-80247000D03*
X135157000Y-80247000D03*
%TO.N,Net-(J5-VBUS-PadA4)*%
X135157000Y-81347000D03*
%TO.N,/System overview/Block diagram/Microcontroller/CC2*%
X135157000Y-82447000D03*
%TO.N,/System overview/Block diagram/Microcontroller/D+*%
X135157000Y-83547000D03*
%TO.N,/System overview/Block diagram/Microcontroller/D-*%
X135157000Y-84647000D03*
%TO.N,unconnected-(J5-SBU2-PadB8)*%
X135157000Y-85747000D03*
%TO.N,Net-(J5-VBUS-PadA4)*%
X135157000Y-86847000D03*
%TO.N,/System overview/Block diagram/GND*%
X135157000Y-87947000D03*
D17*
X132332000Y-86597000D03*
X136632000Y-86597000D03*
X132332000Y-81597000D03*
X136632000Y-81597000D03*
%TD*%
D10*
%TO.N,/System overview/Block diagram/Servomotor interface/CS'*%
%TO.C,TP15*%
X143626000Y-54633000D03*
%TD*%
%TO.N,/System overview/Block diagram/Microcontroller/SEL0*%
%TO.C,TP11*%
X133720000Y-70889000D03*
%TD*%
%TO.N,/System overview/Block diagram/Limit switch interface/TOP_filt*%
%TO.C,TP3*%
X122798000Y-77747000D03*
%TD*%
%TO.N,Net-(J5-VBUS-PadA4)*%
%TO.C,TP16*%
X138546000Y-88161000D03*
%TD*%
%TO.N,/System overview/Block diagram/GND*%
%TO.C,TP20*%
X161152000Y-87907000D03*
%TD*%
%TO.N,/System overview/Block diagram/GND*%
%TO.C,TP19*%
X117972000Y-53871000D03*
%TD*%
%TO.N,/System overview/Block diagram/Limit switch interface/BOT_filt*%
%TO.C,TP4*%
X120512000Y-77747000D03*
%TD*%
%TO.N,/System overview/Block diagram/Microcontroller/ENCa_filt*%
%TO.C,TP12*%
X141086000Y-57173000D03*
%TD*%
%TO.N,/System overview/Block diagram/DCDC converter 3V3/RT*%
%TO.C,TP2*%
X159120000Y-70889000D03*
%TD*%
D18*
%TO.N,/System overview/Block diagram/Limit switch interface/BOT_EOT*%
%TO.C,J1*%
X118032000Y-86366000D03*
D19*
%TO.N,/System overview/Block diagram/GND*%
X120532000Y-86366000D03*
X123032000Y-86366000D03*
%TO.N,/System overview/Block diagram/Limit switch interface/TOP_EOT*%
X125532000Y-86366000D03*
%TD*%
D11*
%TO.N,/System overview/Block diagram/Servomotor interface/SEL0'*%
%TO.C,JP18*%
X156580000Y-58443000D03*
%TO.N,/System overview/Block diagram/Microcontroller/SEL0*%
X156580000Y-66063000D03*
%TD*%
D20*
%TO.N,/System overview/Block diagram/Servomotor interface/OUTb*%
%TO.C,J7*%
X156331300Y-45078000D03*
D19*
%TO.N,/System overview/Block diagram/Servomotor interface/OUTa*%
X153831300Y-45078000D03*
%TO.N,/System overview/Block diagram/S3V3*%
X151331300Y-45078000D03*
%TO.N,/System overview/Block diagram/GND*%
X148831300Y-45078000D03*
%TO.N,/System overview/Block diagram/Servomotor interface/ENCa*%
X146331300Y-45078000D03*
%TO.N,/System overview/Block diagram/Servomotor interface/ENCb*%
X143831300Y-45078000D03*
%TD*%
D10*
%TO.N,/System overview/Block diagram/DCDC converter 3V3/PG*%
%TO.C,TP1*%
X159882000Y-80795000D03*
%TD*%
D11*
%TO.N,/System overview/Block diagram/Servomotor interface/OUTb*%
%TO.C,JP22*%
X158778000Y-56665000D03*
%TO.N,/System overview/Block diagram/Servomotor interface/OUTb'*%
X158778000Y-64285000D03*
%TD*%
D21*
%TO.N,/System overview/Block diagram/Microcontroller/NRST*%
%TO.C,J4*%
X144673500Y-81912600D03*
D22*
%TO.N,/System overview/Block diagram/Microcontroller/SWDCLK*%
X144673500Y-83182600D03*
%TO.N,/System overview/Block diagram/Microcontroller/SWO'*%
X145943500Y-81912600D03*
%TO.N,/System overview/Block diagram/Microcontroller/SWDIO*%
X145943500Y-83182600D03*
%TO.N,/System overview/Block diagram/GND*%
X147213500Y-81912600D03*
X147213500Y-83182600D03*
%TO.N,/System overview/Block diagram/S3V3*%
X148483500Y-81912600D03*
X148483500Y-83182600D03*
%TO.N,unconnected-(J4-Pin_9-Pad9)*%
X149753500Y-81912600D03*
%TO.N,unconnected-(J4-Pin_10-Pad10)*%
X149753500Y-83182600D03*
%TD*%
D23*
%TO.N,unconnected-(J2-Pin_1-Pad1)*%
%TO.C,J2*%
X178810000Y-69497000D03*
D24*
%TO.N,unconnected-(J2-Pin_2-Pad2)*%
X178810000Y-66957000D03*
%TO.N,unconnected-(J2-Pin_3-Pad3)*%
X178810000Y-64417000D03*
%TO.N,unconnected-(J2-Pin_4-Pad4)*%
X178810000Y-61877000D03*
%TD*%
D23*
%TO.N,/System overview/Block diagram/S3V3*%
%TO.C,J3*%
X105630000Y-82197000D03*
D24*
%TO.N,/System overview/Block diagram/GND*%
X105630000Y-79657000D03*
%TO.N,Net-(J3-Pin_3)*%
X105630000Y-77117000D03*
%TO.N,Net-(J3-Pin_4)*%
X105630000Y-74577000D03*
%TO.N,Net-(J3-Pin_5)*%
X105630000Y-72037000D03*
%TO.N,Net-(J3-Pin_6)*%
X105630000Y-69497000D03*
%TO.N,Net-(J3-Pin_7)*%
X105630000Y-66957000D03*
%TO.N,/System overview/Block diagram/S3V3*%
X105630000Y-64417000D03*
%TO.N,Net-(J3-Pin_9)*%
X105630000Y-61877000D03*
%TO.N,Net-(J3-Pin_10)*%
X105630000Y-59337000D03*
%TO.N,Net-(J3-Pin_11)*%
X105630000Y-56797000D03*
%TO.N,Net-(J3-Pin_12)*%
X105630000Y-54257000D03*
%TO.N,Net-(J3-Pin_13)*%
X105630000Y-51717000D03*
%TO.N,Net-(J3-Pin_14)*%
X105630000Y-49177000D03*
%TD*%
D25*
%TO.N,*%
%TO.C,TFT1*%
X110550000Y-84047000D03*
X177810000Y-84047000D03*
X110550000Y-47327000D03*
X177810000Y-47327000D03*
%TD*%
D26*
%TO.N,/System overview/Block diagram/GND*%
X152770000Y-64920000D03*
D27*
X123814000Y-69873000D03*
X126100000Y-78577000D03*
D26*
X150230000Y-53490000D03*
X148325000Y-54760000D03*
D27*
X106796000Y-86383000D03*
D26*
X172582000Y-63269000D03*
X149595000Y-54760000D03*
X174868000Y-50315000D03*
X172582000Y-58189000D03*
X150230000Y-64920000D03*
D27*
X128386000Y-55903000D03*
D26*
X152770000Y-53490000D03*
D27*
X145404000Y-52601000D03*
X136270000Y-43457000D03*
X120766000Y-67587000D03*
X120004000Y-56157000D03*
D26*
X151500000Y-53490000D03*
D27*
X117210000Y-78577000D03*
X143626000Y-60475000D03*
X123052000Y-51331000D03*
D26*
X150230000Y-56030000D03*
X154040000Y-53490000D03*
X161660000Y-47267000D03*
D27*
X136260000Y-47013000D03*
D26*
X152135000Y-66190000D03*
X148960000Y-67460000D03*
X150865000Y-66190000D03*
D27*
X140578000Y-49299000D03*
D26*
X152135000Y-54760000D03*
D27*
X175122000Y-78001000D03*
D26*
X170550000Y-63269000D03*
X151500000Y-56030000D03*
D27*
X175122000Y-79525000D03*
D26*
X152770000Y-56030000D03*
X153405000Y-66190000D03*
X154675000Y-54760000D03*
X173344000Y-48537000D03*
X170550000Y-58189000D03*
D27*
X130926000Y-74191000D03*
X120766000Y-83081000D03*
X166486000Y-76223000D03*
X132450000Y-50569000D03*
X129402000Y-57427000D03*
X122544000Y-83081000D03*
D26*
X161660000Y-48537000D03*
X148960000Y-53490000D03*
D27*
X135244000Y-58189000D03*
D26*
X154040000Y-67460000D03*
X149595000Y-66190000D03*
X148325000Y-66190000D03*
D27*
X135752000Y-53363000D03*
D26*
X151500000Y-64920000D03*
X150865000Y-54760000D03*
X152770000Y-67460000D03*
D27*
X166486000Y-79525000D03*
D26*
X151500000Y-67460000D03*
X150230000Y-67460000D03*
X153405000Y-54760000D03*
X154675000Y-66190000D03*
D27*
X166486000Y-74699000D03*
X166486000Y-78001000D03*
D26*
%TO.N,/System overview/Block diagram/S19V5*%
X164454000Y-63269000D03*
X162422000Y-63269000D03*
X162422000Y-58189000D03*
X164454000Y-58189000D03*
D28*
%TO.N,/System overview/Block diagram/Microcontroller/NRST*%
X129148000Y-63777000D03*
%TO.N,/System overview/Block diagram/Servomotor interface/CS'*%
X152389000Y-58570000D03*
%TO.N,/System overview/Block diagram/Microcontroller/SEL0*%
X127370000Y-63777000D03*
%TO.N,/System overview/Block diagram/Servomotor interface/PWM'*%
X152262000Y-62380000D03*
X146166000Y-64031000D03*
%TD*%
%TO.N,/System overview/Block diagram/Microcontroller/NRST*%
D29*
X129148000Y-63777000D02*
X136006000Y-70635000D01*
X136006000Y-70635000D02*
X136006000Y-72667000D01*
%TO.N,Net-(J5-VBUS-PadA4)*%
D30*
X137482000Y-87349082D02*
X136984082Y-87847000D01*
X135279918Y-86847000D02*
X135157000Y-86847000D01*
X135279918Y-81347000D02*
X136279918Y-80347000D01*
X136279918Y-80347000D02*
X136984082Y-80347000D01*
X137482000Y-80844918D02*
X137482000Y-87349082D01*
X136984082Y-87847000D02*
X136279918Y-87847000D01*
X136279918Y-87847000D02*
X135279918Y-86847000D01*
X136984082Y-80347000D02*
X137482000Y-80844918D01*
X135157000Y-81347000D02*
X135279918Y-81347000D01*
%TO.N,/System overview/Block diagram/Servomotor interface/CS'*%
D29*
X152389000Y-58570000D02*
X147563000Y-58570000D01*
X147563000Y-58570000D02*
X143626000Y-54633000D01*
%TO.N,/System overview/Block diagram/Microcontroller/SEL0*%
X127370000Y-64539000D02*
X127370000Y-63777000D01*
X133720000Y-70889000D02*
X127370000Y-64539000D01*
%TO.N,/System overview/Block diagram/Servomotor interface/PWM'*%
X147817000Y-62380000D02*
X152262000Y-62380000D01*
X146166000Y-64031000D02*
X147817000Y-62380000D01*
%TD*%
%TA.AperFunction,Conductor*%
%TO.N,/System overview/Block diagram/Servomotor interface/PWM'*%
G36*
X152205952Y-61987979D02*
G01*
X152211378Y-61995103D01*
X152211647Y-61996426D01*
X152266186Y-62378346D01*
X152266186Y-62381652D01*
X152237534Y-62582300D01*
X152211649Y-62763563D01*
X152207087Y-62771269D01*
X152198412Y-62773492D01*
X152197079Y-62773221D01*
X151474135Y-62582300D01*
X151467011Y-62576874D01*
X151465422Y-62570988D01*
X151465422Y-62189011D01*
X151468849Y-62180738D01*
X151474135Y-62177699D01*
X152197081Y-61986778D01*
X152205952Y-61987979D01*
G37*
%TD.AperFunction*%
%TD*%
%TA.AperFunction,Conductor*%
%TO.N,/System overview/Block diagram/Servomotor interface/PWM'*%
G36*
X146594215Y-63332684D02*
G01*
X146864315Y-63602784D01*
X146867742Y-63611057D01*
X146866153Y-63616944D01*
X146489955Y-64263143D01*
X146482831Y-64268568D01*
X146473957Y-64267367D01*
X146472827Y-64266618D01*
X146164209Y-64035129D01*
X146161870Y-64032790D01*
X145930382Y-63724174D01*
X145928161Y-63715501D01*
X145932722Y-63707795D01*
X145933843Y-63707052D01*
X146580058Y-63330845D01*
X146588929Y-63329645D01*
X146594215Y-63332684D01*
G37*
%TD.AperFunction*%
%TD*%
%TA.AperFunction,Conductor*%
%TO.N,/System overview/Block diagram/Microcontroller/SEL0*%
G36*
X127374516Y-63774502D02*
G01*
X127730116Y-63926052D01*
X127736383Y-63932447D01*
X127736800Y-63939952D01*
X127579098Y-64506322D01*
X127573578Y-64513373D01*
X127564689Y-64514455D01*
X127557638Y-64508935D01*
X127557022Y-64507671D01*
X127525743Y-64432156D01*
X127525742Y-64432156D01*
X127261301Y-64696597D01*
X127253028Y-64700024D01*
X127244755Y-64696597D01*
X127230224Y-64682066D01*
X127227688Y-64678270D01*
X127170272Y-64539656D01*
X127169810Y-64538317D01*
X127003199Y-63939952D01*
X127004281Y-63931063D01*
X127009880Y-63926052D01*
X127365415Y-63774531D01*
X127374367Y-63774441D01*
X127374516Y-63774502D01*
G37*
%TD.AperFunction*%
%TD*%
%TA.AperFunction,Conductor*%
%TO.N,/System overview/Block diagram/Microcontroller/NRST*%
G36*
X136205778Y-71674705D02*
G01*
X136208630Y-71679355D01*
X136464621Y-72465467D01*
X136463924Y-72474395D01*
X136458078Y-72479855D01*
X136010582Y-72670327D01*
X136001628Y-72670414D01*
X136001418Y-72670327D01*
X135553921Y-72479855D01*
X135547651Y-72473462D01*
X135547378Y-72465468D01*
X135803370Y-71679355D01*
X135809190Y-71672550D01*
X135814495Y-71671278D01*
X136197505Y-71671278D01*
X136205778Y-71674705D01*
G37*
%TD.AperFunction*%
%TD*%
%TA.AperFunction,Conductor*%
%TO.N,/System overview/Block diagram/Servomotor interface/CS'*%
G36*
X144086953Y-54445750D02*
G01*
X144092799Y-54451210D01*
X144467651Y-55188089D01*
X144468348Y-55197017D01*
X144465496Y-55201667D01*
X144194667Y-55472496D01*
X144186394Y-55475923D01*
X144181089Y-55474651D01*
X143444210Y-55099799D01*
X143438390Y-55092994D01*
X143438663Y-55084999D01*
X143620408Y-54633888D01*
X143626678Y-54627495D01*
X143626888Y-54627408D01*
X144077999Y-54445663D01*
X144086953Y-54445750D01*
G37*
%TD.AperFunction*%
%TD*%
%TA.AperFunction,Conductor*%
%TO.N,/System overview/Block diagram/Servomotor interface/CS'*%
G36*
X152332952Y-58177979D02*
G01*
X152338378Y-58185103D01*
X152338647Y-58186426D01*
X152393186Y-58568346D01*
X152393186Y-58571652D01*
X152364534Y-58772300D01*
X152338649Y-58953563D01*
X152334087Y-58961269D01*
X152325412Y-58963492D01*
X152324079Y-58963221D01*
X151601135Y-58772300D01*
X151594011Y-58766874D01*
X151592422Y-58760988D01*
X151592422Y-58379011D01*
X151595849Y-58370738D01*
X151601135Y-58367699D01*
X152324081Y-58176778D01*
X152332952Y-58177979D01*
G37*
%TD.AperFunction*%
%TD*%
%TA.AperFunction,Conductor*%
%TO.N,/System overview/Block diagram/Microcontroller/SEL0*%
G36*
X133164908Y-70047347D02*
G01*
X133901789Y-70422200D01*
X133907609Y-70429005D01*
X133907336Y-70437000D01*
X133725591Y-70888111D01*
X133719321Y-70894504D01*
X133719111Y-70894591D01*
X133268000Y-71076336D01*
X133259046Y-71076249D01*
X133253200Y-71070789D01*
X133163568Y-70894591D01*
X132878347Y-70333909D01*
X132877651Y-70324982D01*
X132880501Y-70320334D01*
X133151333Y-70049502D01*
X133159605Y-70046076D01*
X133164908Y-70047347D01*
G37*
%TD.AperFunction*%
%TD*%
%TA.AperFunction,Conductor*%
%TO.N,/System overview/Block diagram/Microcontroller/NRST*%
G36*
X129471204Y-63543722D02*
G01*
X129471955Y-63544856D01*
X129848153Y-64191056D01*
X129849354Y-64199929D01*
X129846315Y-64205215D01*
X129576215Y-64475315D01*
X129567942Y-64478742D01*
X129562056Y-64477153D01*
X128915856Y-64100955D01*
X128910431Y-64093831D01*
X128911632Y-64084957D01*
X128912372Y-64083838D01*
X129143873Y-63775205D01*
X129146205Y-63772873D01*
X129454825Y-63541382D01*
X129463498Y-63539161D01*
X129471204Y-63543722D01*
G37*
%TD.AperFunction*%
%TD*%
M02*
