%TF.GenerationSoftware,KiCad,Pcbnew,10.0.5-unknown-202607221313~667fa36054~ubuntu25.10.1*%
%TF.CreationDate,2026-10-10T16:40:39+00:00*%
%TF.ProjectId,ktest,6b746573-742e-46b6-9963-61645f706362,0.0.2*%
%TF.SameCoordinates,Original*%
%TF.FileFunction,Copper,L4,Bot*%
%TF.FilePolarity,Positive*%
%FSLAX46Y46*%
G04 Gerber Fmt 4.6, Leading zero omitted, Abs format (unit mm)*
G04 Created by KiCad (PCBNEW 10.0.5-unknown-202607221313~667fa36054~ubuntu25.10.1) date 2026-10-10 16:40:39*
%MOMM*%
%LPD*%
G01*
G04 APERTURE LIST*
G04 Aperture macros list*
%AMRoundRect*
0 Rectangle with rounded corners*
0 $1 Rounding radius*
0 $2 $3 $4 $5 $6 $7 $8 $9 X,Y pos of 4 corners*
0 Add a 4 corners polygon primitive as box body*
4,1,4,$2,$3,$4,$5,$6,$7,$8,$9,$2,$3,0*
0 Add four circle primitives for the rounded corners*
1,1,$1+$1,$2,$3*
1,1,$1+$1,$4,$5*
1,1,$1+$1,$6,$7*
1,1,$1+$1,$8,$9*
0 Add four rect primitives between the rounded corners*
20,1,$1+$1,$2,$3,$4,$5,0*
20,1,$1+$1,$4,$5,$6,$7,0*
20,1,$1+$1,$6,$7,$8,$9,0*
20,1,$1+$1,$8,$9,$2,$3,0*%
G04 Aperture macros list end*
%TA.AperFunction,ComponentPad*%
%ADD10C,1.000000*%
%TD*%
%TA.AperFunction,ComponentPad*%
%ADD11C,1.400000*%
%TD*%
%TA.AperFunction,ComponentPad*%
%ADD12C,0.600000*%
%TD*%
%TA.AperFunction,SMDPad,CuDef*%
%ADD13R,4.900000X2.950000*%
%TD*%
%TA.AperFunction,ComponentPad*%
%ADD14O,2.600000X1.600000*%
%TD*%
%TA.AperFunction,ComponentPad*%
%ADD15C,1.600000*%
%TD*%
%TA.AperFunction,ComponentPad*%
%ADD16R,1.600000X2.600000*%
%TD*%
%TA.AperFunction,SMDPad,CuDef*%
%ADD17RoundRect,0.251867X6.225133X0.827633X-6.225133X0.827633X-6.225133X-0.827633X6.225133X-0.827633X0*%
%TD*%
%TA.AperFunction,ComponentPad*%
%ADD18O,1.000000X0.850000*%
%TD*%
%TA.AperFunction,ComponentPad*%
%ADD19O,1.000000X1.800000*%
%TD*%
%TA.AperFunction,ComponentPad*%
%ADD20RoundRect,0.250000X-0.600000X-0.725000X0.600000X-0.725000X0.600000X0.725000X-0.600000X0.725000X0*%
%TD*%
%TA.AperFunction,ComponentPad*%
%ADD21O,1.700000X1.950000*%
%TD*%
%TA.AperFunction,ComponentPad*%
%ADD22RoundRect,0.250000X0.600000X0.725000X-0.600000X0.725000X-0.600000X-0.725000X0.600000X-0.725000X0*%
%TD*%
%TA.AperFunction,ComponentPad*%
%ADD23R,1.090000X1.090000*%
%TD*%
%TA.AperFunction,ComponentPad*%
%ADD24C,1.090000*%
%TD*%
%TA.AperFunction,ComponentPad*%
%ADD25R,1.700000X1.700000*%
%TD*%
%TA.AperFunction,ComponentPad*%
%ADD26C,1.700000*%
%TD*%
%TA.AperFunction,WasherPad*%
%ADD27C,5.000000*%
%TD*%
%TA.AperFunction,ViaPad*%
%ADD28C,1.000000*%
%TD*%
%TA.AperFunction,ViaPad*%
%ADD29C,0.600000*%
%TD*%
%TA.AperFunction,ViaPad*%
%ADD30C,0.800000*%
%TD*%
%TA.AperFunction,Conductor*%
%ADD31C,0.250000*%
%TD*%
G04 APERTURE END LIST*
D10*
%TO.P,TP13,1,1_1*%
%TO.N,/System overview/Block diagram/Microcontroller/ENCb_filt*%
X138546000Y-57173000D03*
%TD*%
%TO.P,TP18,1,1_1*%
%TO.N,/System overview/Block diagram/GND*%
X179186000Y-79779000D03*
%TD*%
D11*
%TO.P,JP9,1*%
%TO.N,/System overview/Block diagram/Display/DISP_DC*%
X116770000Y-62287000D03*
%TO.P,JP9,2*%
%TO.N,Net-(J3-Pin_5)*%
X116770000Y-67367000D03*
%TD*%
D10*
%TO.P,TP10,1,1_1*%
%TO.N,/System overview/Block diagram/DCDC converter 3V3/3V3_REG*%
X173090000Y-71899722D03*
%TD*%
%TO.P,TP7,1,1_1*%
%TO.N,/System overview/Block diagram/GND*%
X117221000Y-76454000D03*
%TD*%
D12*
%TO.P,U1,9,EP_9*%
%TO.N,/System overview/Block diagram/GND*%
X163356000Y-75065000D03*
X162056000Y-75065000D03*
X160756000Y-75065000D03*
X159456000Y-75065000D03*
D13*
X161406000Y-75715000D03*
D12*
X163356000Y-76365000D03*
X162056000Y-76365000D03*
X160756000Y-76365000D03*
X159456000Y-76365000D03*
%TD*%
D10*
%TO.P,TP17,1,1_1*%
%TO.N,/System overview/Block diagram/S3V3*%
X179186000Y-77493000D03*
%TD*%
%TO.P,TP21,1,1_1*%
%TO.N,/System overview/Block diagram/GND*%
X143626000Y-56919000D03*
%TD*%
%TO.P,TP6,1,1_1*%
%TO.N,/System overview/Block diagram/DCDC converter 3V3/SW*%
X161406000Y-84097000D03*
%TD*%
%TO.P,TP8,1,1_1*%
%TO.N,/System overview/Block diagram/Microcontroller/NRST*%
X136006000Y-72667000D03*
%TD*%
D14*
%TO.P,J6,1,+_1*%
%TO.N,/System overview/Block diagram/DCDC converter 3V3/S19V5_2*%
X187333000Y-78451000D03*
X192883000Y-78451000D03*
D15*
%TO.P,J6,2,ID_2*%
%TO.N,unconnected-(J6-ID-Pad2)*%
X190108000Y-78451000D03*
D14*
%TO.P,J6,3,-_3*%
%TO.N,/System overview/Block diagram/DCDC converter 3V3/GND_2*%
X190108000Y-81851000D03*
X190108000Y-85651000D03*
D16*
%TO.P,J6,SH,SH_SH*%
X185333000Y-81551000D03*
X185333000Y-87951000D03*
X194883000Y-81551000D03*
X194883000Y-87951000D03*
%TD*%
D10*
%TO.P,TP14,1,1_1*%
%TO.N,/System overview/Block diagram/Microcontroller/MOT_CS*%
X117972000Y-51331000D03*
%TD*%
%TO.P,TP9,1,1_1*%
%TO.N,/System overview/Block diagram/Microcontroller/BOOT0*%
X137784000Y-61237000D03*
%TD*%
%TO.P,TP5,1,1_1*%
%TO.N,/System overview/Block diagram/DCDC converter 3V3/FB*%
X157596000Y-80795000D03*
%TD*%
D17*
%TO.P,J8,1,+_1*%
%TO.N,/System overview/Block diagram/S19V5*%
X167502000Y-53807500D03*
%TO.P,J8,2,-_2*%
%TO.N,/System overview/Block diagram/GND*%
X167502000Y-50378500D03*
%TD*%
D18*
%TO.P,J5,A1,GND_A1*%
%TO.N,/System overview/Block diagram/GND*%
X133807000Y-87947000D03*
%TO.P,J5,A4,VBUS_A4*%
%TO.N,Net-(J5-VBUS-PadA4)*%
X133807000Y-86847000D03*
%TO.P,J5,A5,CC1_A5*%
%TO.N,/System overview/Block diagram/Microcontroller/CC1*%
X133807000Y-85747000D03*
%TO.P,J5,A6,D+_A6*%
%TO.N,/System overview/Block diagram/Microcontroller/D+*%
X133807000Y-84647000D03*
%TO.P,J5,A7,D-_A7*%
%TO.N,/System overview/Block diagram/Microcontroller/D-*%
X133807000Y-83547000D03*
%TO.P,J5,A8,SBU1_A8*%
%TO.N,unconnected-(J5-SBU1-PadA8)*%
X133807000Y-82447000D03*
%TO.P,J5,A9,VBUS_A9*%
%TO.N,Net-(J5-VBUS-PadA4)*%
X133807000Y-81347000D03*
%TO.P,J5,A12,GND_A12*%
%TO.N,/System overview/Block diagram/GND*%
X133807000Y-80247000D03*
%TO.P,J5,B1,GND_B1*%
X135157000Y-80247000D03*
%TO.P,J5,B4,VBUS_B4*%
%TO.N,Net-(J5-VBUS-PadA4)*%
X135157000Y-81347000D03*
%TO.P,J5,B5,CC2_B5*%
%TO.N,/System overview/Block diagram/Microcontroller/CC2*%
X135157000Y-82447000D03*
%TO.P,J5,B6,D+_B6*%
%TO.N,/System overview/Block diagram/Microcontroller/D+*%
X135157000Y-83547000D03*
%TO.P,J5,B7,D-_B7*%
%TO.N,/System overview/Block diagram/Microcontroller/D-*%
X135157000Y-84647000D03*
%TO.P,J5,B8,SBU2_B8*%
%TO.N,unconnected-(J5-SBU2-PadB8)*%
X135157000Y-85747000D03*
%TO.P,J5,B9,VBUS_B9*%
%TO.N,Net-(J5-VBUS-PadA4)*%
X135157000Y-86847000D03*
%TO.P,J5,B12,GND_B12*%
%TO.N,/System overview/Block diagram/GND*%
X135157000Y-87947000D03*
D19*
%TO.P,J5,SH,SHIELD_SH*%
X132332000Y-86597000D03*
X136632000Y-86597000D03*
X132332000Y-81597000D03*
X136632000Y-81597000D03*
%TD*%
D10*
%TO.P,TP15,1,1_1*%
%TO.N,/System overview/Block diagram/Servomotor interface/CS'*%
X143626000Y-54633000D03*
%TD*%
%TO.P,TP11,1,1_1*%
%TO.N,/System overview/Block diagram/Microcontroller/SEL0*%
X133720000Y-70889000D03*
%TD*%
%TO.P,TP3,1,1_1*%
%TO.N,/System overview/Block diagram/Limit switch interface/TOP_filt*%
X122798000Y-77747000D03*
%TD*%
%TO.P,TP16,1,1_1*%
%TO.N,Net-(J5-VBUS-PadA4)*%
X138546000Y-88161000D03*
%TD*%
%TO.P,TP20,1,1_1*%
%TO.N,/System overview/Block diagram/GND*%
X161152000Y-87907000D03*
%TD*%
%TO.P,TP19,1,1_1*%
%TO.N,/System overview/Block diagram/GND*%
X117972000Y-53871000D03*
%TD*%
%TO.P,TP4,1,1_1*%
%TO.N,/System overview/Block diagram/Limit switch interface/BOT_filt*%
X120512000Y-77747000D03*
%TD*%
%TO.P,TP12,1,1_1*%
%TO.N,/System overview/Block diagram/Microcontroller/ENCa_filt*%
X141086000Y-57173000D03*
%TD*%
%TO.P,TP2,1,1_1*%
%TO.N,/System overview/Block diagram/DCDC converter 3V3/RT*%
X159120000Y-70889000D03*
%TD*%
D20*
%TO.P,J1,1,Pin_1_1*%
%TO.N,/System overview/Block diagram/Limit switch interface/BOT_EOT*%
X118032000Y-86366000D03*
D21*
%TO.P,J1,2,Pin_2_2*%
%TO.N,/System overview/Block diagram/GND*%
X120532000Y-86366000D03*
%TO.P,J1,3,Pin_3_3*%
X123032000Y-86366000D03*
%TO.P,J1,4,Pin_4_4*%
%TO.N,/System overview/Block diagram/Limit switch interface/TOP_EOT*%
X125532000Y-86366000D03*
%TD*%
D11*
%TO.P,JP18,1*%
%TO.N,/System overview/Block diagram/Servomotor interface/SEL0'*%
X156580000Y-58443000D03*
%TO.P,JP18,2*%
%TO.N,/System overview/Block diagram/Microcontroller/SEL0*%
X156580000Y-66063000D03*
%TD*%
D22*
%TO.P,J7,1,Pin_1_1*%
%TO.N,/System overview/Block diagram/Servomotor interface/OUTb*%
X156331300Y-45078000D03*
D21*
%TO.P,J7,2,Pin_2_2*%
%TO.N,/System overview/Block diagram/Servomotor interface/OUTa*%
X153831300Y-45078000D03*
%TO.P,J7,3,Pin_3_3*%
%TO.N,/System overview/Block diagram/S3V3*%
X151331300Y-45078000D03*
%TO.P,J7,4,Pin_4_4*%
%TO.N,/System overview/Block diagram/GND*%
X148831300Y-45078000D03*
%TO.P,J7,5,Pin_5_5*%
%TO.N,/System overview/Block diagram/Servomotor interface/ENCa*%
X146331300Y-45078000D03*
%TO.P,J7,6,Pin_6_6*%
%TO.N,/System overview/Block diagram/Servomotor interface/ENCb*%
X143831300Y-45078000D03*
%TD*%
D10*
%TO.P,TP1,1,1_1*%
%TO.N,/System overview/Block diagram/DCDC converter 3V3/PG*%
X159882000Y-80795000D03*
%TD*%
D11*
%TO.P,JP22,1*%
%TO.N,/System overview/Block diagram/Servomotor interface/OUTb*%
X158778000Y-56665000D03*
%TO.P,JP22,2*%
%TO.N,/System overview/Block diagram/Servomotor interface/OUTb'*%
X158778000Y-64285000D03*
%TD*%
D23*
%TO.P,J4,1,Pin_1_1*%
%TO.N,/System overview/Block diagram/Microcontroller/NRST*%
X144673500Y-81912600D03*
D24*
%TO.P,J4,2,Pin_2_2*%
%TO.N,/System overview/Block diagram/Microcontroller/SWDCLK*%
X144673500Y-83182600D03*
%TO.P,J4,3,Pin_3_3*%
%TO.N,/System overview/Block diagram/Microcontroller/SWO'*%
X145943500Y-81912600D03*
%TO.P,J4,4,Pin_4_4*%
%TO.N,/System overview/Block diagram/Microcontroller/SWDIO*%
X145943500Y-83182600D03*
%TO.P,J4,5,Pin_5_5*%
%TO.N,/System overview/Block diagram/GND*%
X147213500Y-81912600D03*
%TO.P,J4,6,Pin_6_6*%
X147213500Y-83182600D03*
%TO.P,J4,7,Pin_7_7*%
%TO.N,/System overview/Block diagram/S3V3*%
X148483500Y-81912600D03*
%TO.P,J4,8,Pin_8_8*%
X148483500Y-83182600D03*
%TO.P,J4,9,Pin_9_9*%
%TO.N,unconnected-(J4-Pin_9-Pad9)*%
X149753500Y-81912600D03*
%TO.P,J4,10,Pin_10_10*%
%TO.N,unconnected-(J4-Pin_10-Pad10)*%
X149753500Y-83182600D03*
%TD*%
D25*
%TO.P,J2,1,Pin_1_1*%
%TO.N,unconnected-(J2-Pin_1-Pad1)*%
X178810000Y-69497000D03*
D26*
%TO.P,J2,2,Pin_2_2*%
%TO.N,unconnected-(J2-Pin_2-Pad2)*%
X178810000Y-66957000D03*
%TO.P,J2,3,Pin_3_3*%
%TO.N,unconnected-(J2-Pin_3-Pad3)*%
X178810000Y-64417000D03*
%TO.P,J2,4,Pin_4_4*%
%TO.N,unconnected-(J2-Pin_4-Pad4)*%
X178810000Y-61877000D03*
%TD*%
D25*
%TO.P,J3,1,Pin_1_1*%
%TO.N,/System overview/Block diagram/S3V3*%
X105630000Y-82197000D03*
D26*
%TO.P,J3,2,Pin_2_2*%
%TO.N,/System overview/Block diagram/GND*%
X105630000Y-79657000D03*
%TO.P,J3,3,Pin_3_3*%
%TO.N,Net-(J3-Pin_3)*%
X105630000Y-77117000D03*
%TO.P,J3,4,Pin_4_4*%
%TO.N,Net-(J3-Pin_4)*%
X105630000Y-74577000D03*
%TO.P,J3,5,Pin_5_5*%
%TO.N,Net-(J3-Pin_5)*%
X105630000Y-72037000D03*
%TO.P,J3,6,Pin_6_6*%
%TO.N,Net-(J3-Pin_6)*%
X105630000Y-69497000D03*
%TO.P,J3,7,Pin_7_7*%
%TO.N,Net-(J3-Pin_7)*%
X105630000Y-66957000D03*
%TO.P,J3,8,Pin_8_8*%
%TO.N,/System overview/Block diagram/S3V3*%
X105630000Y-64417000D03*
%TO.P,J3,9,Pin_9_9*%
%TO.N,Net-(J3-Pin_9)*%
X105630000Y-61877000D03*
%TO.P,J3,10,Pin_10_10*%
%TO.N,Net-(J3-Pin_10)*%
X105630000Y-59337000D03*
%TO.P,J3,11,Pin_11_11*%
%TO.N,Net-(J3-Pin_11)*%
X105630000Y-56797000D03*
%TO.P,J3,12,Pin_12_12*%
%TO.N,Net-(J3-Pin_12)*%
X105630000Y-54257000D03*
%TO.P,J3,13,Pin_13_13*%
%TO.N,Net-(J3-Pin_13)*%
X105630000Y-51717000D03*
%TO.P,J3,14,Pin_14_14*%
%TO.N,Net-(J3-Pin_14)*%
X105630000Y-49177000D03*
%TD*%
D27*
%TO.P,TFT1,*%
%TO.N,*%
X110550000Y-84047000D03*
X177810000Y-84047000D03*
X110550000Y-47327000D03*
X177810000Y-47327000D03*
%TD*%
D28*
%TO.N,/System overview/Block diagram/GND*%
X152770000Y-64920000D03*
D29*
X123814000Y-69873000D03*
X126100000Y-78577000D03*
D28*
X150230000Y-53490000D03*
X148325000Y-54760000D03*
D29*
X106796000Y-86383000D03*
D28*
X172582000Y-63269000D03*
X149595000Y-54760000D03*
X174868000Y-50315000D03*
X172582000Y-58189000D03*
X150230000Y-64920000D03*
D29*
X128386000Y-55903000D03*
D28*
X152770000Y-53490000D03*
D29*
X145404000Y-52601000D03*
X136270000Y-43457000D03*
X120766000Y-67587000D03*
X120004000Y-56157000D03*
D28*
X151500000Y-53490000D03*
D29*
X117210000Y-78577000D03*
X143626000Y-60475000D03*
X123052000Y-51331000D03*
D28*
X150230000Y-56030000D03*
X154040000Y-53490000D03*
X161660000Y-47267000D03*
D29*
X136260000Y-47013000D03*
D28*
X152135000Y-66190000D03*
X148960000Y-67460000D03*
X150865000Y-66190000D03*
D29*
X140578000Y-49299000D03*
D28*
X152135000Y-54760000D03*
D29*
X175122000Y-78001000D03*
D28*
X170550000Y-63269000D03*
X151500000Y-56030000D03*
D29*
X175122000Y-79525000D03*
D28*
X152770000Y-56030000D03*
X153405000Y-66190000D03*
X154675000Y-54760000D03*
X173344000Y-48537000D03*
X170550000Y-58189000D03*
D29*
X130926000Y-74191000D03*
X120766000Y-83081000D03*
X166486000Y-76223000D03*
X132450000Y-50569000D03*
X129402000Y-57427000D03*
X122544000Y-83081000D03*
D28*
X161660000Y-48537000D03*
X148960000Y-53490000D03*
D29*
X135244000Y-58189000D03*
D28*
X154040000Y-67460000D03*
X149595000Y-66190000D03*
X148325000Y-66190000D03*
D29*
X135752000Y-53363000D03*
D28*
X151500000Y-64920000D03*
X150865000Y-54760000D03*
X152770000Y-67460000D03*
D29*
X166486000Y-79525000D03*
D28*
X151500000Y-67460000D03*
X150230000Y-67460000D03*
X153405000Y-54760000D03*
X154675000Y-66190000D03*
D29*
X166486000Y-74699000D03*
X166486000Y-78001000D03*
D28*
%TO.N,/System overview/Block diagram/S19V5*%
X164454000Y-63269000D03*
X162422000Y-63269000D03*
X162422000Y-58189000D03*
X164454000Y-58189000D03*
D30*
%TO.N,/System overview/Block diagram/Microcontroller/NRST*%
X129148000Y-63777000D03*
%TO.N,/System overview/Block diagram/Servomotor interface/CS'*%
X152389000Y-58570000D03*
%TO.N,/System overview/Block diagram/Microcontroller/SEL0*%
X127370000Y-63777000D03*
%TO.N,/System overview/Block diagram/Servomotor interface/PWM'*%
X152262000Y-62380000D03*
X146166000Y-64031000D03*
%TD*%
%TO.N,/System overview/Block diagram/Microcontroller/D+*%
D31*
X135050629Y-83547000D02*
X135157000Y-83547000D01*
X133950629Y-84647000D02*
X135050629Y-83547000D01*
X133807000Y-84647000D02*
X133950629Y-84647000D01*
%TD*%
%TA.AperFunction,Conductor*%
%TO.N,/System overview/Block diagram/GND*%
G36*
X181630106Y-40668023D02*
G01*
X181645104Y-40672427D01*
X181703855Y-40710172D01*
X181705042Y-40711541D01*
X181732518Y-40766402D01*
X181734163Y-40773960D01*
X181737000Y-40800331D01*
X181737000Y-43062000D01*
X181736576Y-43072240D01*
X181735731Y-43082437D01*
X181734464Y-43092604D01*
X181733500Y-43098381D01*
X181733500Y-64897616D01*
X181733499Y-64897616D01*
X181734464Y-64903396D01*
X181735730Y-64913547D01*
X181736576Y-64923748D01*
X181737000Y-64933997D01*
X181737000Y-90559170D01*
X181731975Y-90594114D01*
X181727570Y-90609112D01*
X181689827Y-90667855D01*
X181688458Y-90669042D01*
X181633597Y-90696518D01*
X181626039Y-90698163D01*
X181599668Y-90701000D01*
X102365830Y-90701000D01*
X102330889Y-90695975D01*
X102315890Y-90691570D01*
X102257144Y-90653827D01*
X102255957Y-90652458D01*
X102228477Y-90597583D01*
X102226832Y-90590021D01*
X102224000Y-90563668D01*
X102224000Y-88208471D01*
X137790237Y-88208471D01*
X137824338Y-88379899D01*
X137824344Y-88379919D01*
X137880908Y-88516481D01*
X137880913Y-88516490D01*
X137880923Y-88516507D01*
X137963049Y-88639417D01*
X137963050Y-88639418D01*
X137963055Y-88639424D01*
X138067574Y-88743943D01*
X138067580Y-88743948D01*
X138067584Y-88743951D01*
X138190498Y-88826080D01*
X138190511Y-88826087D01*
X138321487Y-88880338D01*
X138325910Y-88882430D01*
X138326638Y-88882571D01*
X138327382Y-88882717D01*
X138472077Y-88911500D01*
X138472079Y-88911500D01*
X138472082Y-88911500D01*
X138619920Y-88911500D01*
X138717462Y-88892096D01*
X138764913Y-88882658D01*
X138901495Y-88826084D01*
X139024416Y-88743951D01*
X139128951Y-88639416D01*
X139211084Y-88516495D01*
X139267658Y-88379913D01*
X139296500Y-88234918D01*
X139296500Y-88087082D01*
X139296500Y-88087079D01*
X139296500Y-88087076D01*
X139267717Y-87942382D01*
X139267571Y-87941638D01*
X139267430Y-87940910D01*
X139265338Y-87936487D01*
X139211087Y-87805511D01*
X139211080Y-87805498D01*
X139128951Y-87682584D01*
X139128948Y-87682580D01*
X139128943Y-87682574D01*
X139024424Y-87578055D01*
X139024418Y-87578050D01*
X139024417Y-87578049D01*
X138901507Y-87495923D01*
X138901506Y-87495922D01*
X138901501Y-87495919D01*
X138901488Y-87495912D01*
X138901481Y-87495908D01*
X138780054Y-87445613D01*
X138764917Y-87439343D01*
X138764907Y-87439340D01*
X138764905Y-87439339D01*
X138764900Y-87439338D01*
X138619922Y-87410500D01*
X138619920Y-87410500D01*
X138619918Y-87410500D01*
X138472082Y-87410500D01*
X138472080Y-87410500D01*
X138472078Y-87410500D01*
X138327096Y-87439338D01*
X138327079Y-87439344D01*
X138190517Y-87495908D01*
X138190508Y-87495913D01*
X138190491Y-87495923D01*
X138067581Y-87578049D01*
X138067580Y-87578050D01*
X138067574Y-87578055D01*
X137963055Y-87682574D01*
X137963050Y-87682580D01*
X137963049Y-87682581D01*
X137880923Y-87805491D01*
X137880913Y-87805508D01*
X137880908Y-87805517D01*
X137824344Y-87942079D01*
X137824338Y-87942098D01*
X137795500Y-88087076D01*
X137795500Y-88190551D01*
X137790237Y-88208471D01*
X102224000Y-88208471D01*
X102224000Y-83892521D01*
X107799500Y-83892521D01*
X107799500Y-84201477D01*
X107834083Y-84508422D01*
X107834089Y-84508457D01*
X107902831Y-84809634D01*
X107902835Y-84809650D01*
X107902842Y-84809671D01*
X108004859Y-85101216D01*
X108004862Y-85101222D01*
X108004868Y-85101236D01*
X108056646Y-85208754D01*
X108138902Y-85379560D01*
X108139106Y-85379918D01*
X108139792Y-85380977D01*
X108168734Y-85427038D01*
X108303265Y-85641143D01*
X108495880Y-85882674D01*
X108714326Y-86101120D01*
X108955857Y-86293735D01*
X109217435Y-86458095D01*
X109495771Y-86592135D01*
X109495775Y-86592136D01*
X109495877Y-86592178D01*
X109496639Y-86592438D01*
X109584686Y-86623247D01*
X109787327Y-86694156D01*
X109787348Y-86694163D01*
X109787352Y-86694164D01*
X109787364Y-86694168D01*
X110012889Y-86745642D01*
X110087381Y-86762645D01*
X110088443Y-86762899D01*
X110088546Y-86762910D01*
X110088548Y-86762911D01*
X110088550Y-86762911D01*
X110088557Y-86762911D01*
X110088562Y-86762913D01*
X110293206Y-86785970D01*
X110375691Y-86795263D01*
X110392511Y-86797159D01*
X110394994Y-86797500D01*
X110704468Y-86797500D01*
X110714263Y-86797500D01*
X110721862Y-86795539D01*
X110861356Y-86779822D01*
X111010749Y-86762990D01*
X111011390Y-86762922D01*
X111011437Y-86762914D01*
X111011448Y-86762911D01*
X111011452Y-86762911D01*
X111312636Y-86694168D01*
X111604229Y-86592135D01*
X111882565Y-86458095D01*
X112144143Y-86293735D01*
X112385674Y-86101120D01*
X112604120Y-85882674D01*
X112796735Y-85641143D01*
X112826907Y-85593125D01*
X116931500Y-85593125D01*
X116931500Y-87138876D01*
X116931659Y-87140806D01*
X116931885Y-87142454D01*
X116937907Y-87198482D01*
X116961405Y-87261482D01*
X116988202Y-87333328D01*
X116988203Y-87333330D01*
X116988204Y-87333332D01*
X117074450Y-87448542D01*
X117074452Y-87448544D01*
X117074455Y-87448547D01*
X117189664Y-87534793D01*
X117189671Y-87534797D01*
X117239155Y-87553253D01*
X117274513Y-87579721D01*
X117331444Y-87585835D01*
X117331443Y-87585839D01*
X117331458Y-87585836D01*
X117384127Y-87591500D01*
X118679872Y-87591499D01*
X118739483Y-87585091D01*
X118874331Y-87534796D01*
X118989546Y-87448546D01*
X119075796Y-87333331D01*
X119126091Y-87198483D01*
X119132500Y-87138873D01*
X119132499Y-86154389D01*
X124431500Y-86154389D01*
X124431500Y-86158814D01*
X124431500Y-86577610D01*
X124449960Y-86694167D01*
X124458598Y-86748701D01*
X124512127Y-86913445D01*
X124590768Y-87067788D01*
X124692586Y-87207928D01*
X124815072Y-87330414D01*
X124955212Y-87432232D01*
X125109555Y-87510873D01*
X125274299Y-87564402D01*
X125445389Y-87591500D01*
X125445390Y-87591500D01*
X125618610Y-87591500D01*
X125618611Y-87591500D01*
X125789701Y-87564402D01*
X125954445Y-87510873D01*
X126108788Y-87432232D01*
X126248928Y-87330414D01*
X126371414Y-87207928D01*
X126473232Y-87067788D01*
X126551873Y-86913445D01*
X126605402Y-86748701D01*
X126632500Y-86577611D01*
X126632500Y-86154389D01*
X126605402Y-85983299D01*
X126551873Y-85818555D01*
X126473232Y-85664212D01*
X126371414Y-85524072D01*
X126248928Y-85401586D01*
X126108788Y-85299768D01*
X126076762Y-85283450D01*
X125954449Y-85221128D01*
X125798532Y-85170467D01*
X125794010Y-85168614D01*
X125784820Y-85166444D01*
X125780057Y-85166070D01*
X125701741Y-85153666D01*
X125658271Y-85146781D01*
X125642407Y-85144268D01*
X125618614Y-85140500D01*
X125618611Y-85140500D01*
X125445389Y-85140500D01*
X125445388Y-85140500D01*
X125405726Y-85146781D01*
X125405725Y-85146780D01*
X125274304Y-85167596D01*
X125109549Y-85221129D01*
X124955210Y-85299768D01*
X124875256Y-85357859D01*
X124875255Y-85357859D01*
X124826941Y-85392961D01*
X124819564Y-85397092D01*
X124688094Y-85528562D01*
X124683965Y-85535936D01*
X124673775Y-85549963D01*
X124673774Y-85549965D01*
X124673771Y-85549969D01*
X124590768Y-85664211D01*
X124590765Y-85664215D01*
X124590764Y-85664218D01*
X124512129Y-85818549D01*
X124458596Y-85983305D01*
X124458595Y-85983306D01*
X124445432Y-86066422D01*
X124445347Y-86066961D01*
X124431500Y-86154389D01*
X119132499Y-86154389D01*
X119132499Y-85593128D01*
X119126091Y-85533517D01*
X119122568Y-85524072D01*
X119086374Y-85427031D01*
X119075798Y-85398673D01*
X119075797Y-85398671D01*
X119075795Y-85398668D01*
X119075793Y-85398664D01*
X118989547Y-85283455D01*
X118989544Y-85283452D01*
X118989542Y-85283450D01*
X118909269Y-85223358D01*
X118874335Y-85197206D01*
X118874332Y-85197204D01*
X118874330Y-85197203D01*
X118874328Y-85197202D01*
X118824844Y-85178746D01*
X118789497Y-85152284D01*
X118687583Y-85141328D01*
X118682742Y-85140500D01*
X118679881Y-85140500D01*
X118679873Y-85140500D01*
X118679864Y-85140500D01*
X117384129Y-85140500D01*
X117384123Y-85140500D01*
X117382192Y-85140659D01*
X117380545Y-85140885D01*
X117324516Y-85146908D01*
X117221730Y-85185245D01*
X117189666Y-85197204D01*
X117189665Y-85197205D01*
X117074456Y-85283450D01*
X117074450Y-85283456D01*
X116988205Y-85398665D01*
X116988203Y-85398668D01*
X116937908Y-85533516D01*
X116931500Y-85593125D01*
X112826907Y-85593125D01*
X112961095Y-85379565D01*
X113095135Y-85101229D01*
X113197168Y-84809636D01*
X113197169Y-84809634D01*
X113229908Y-84666189D01*
X113265911Y-84508452D01*
X113265915Y-84508422D01*
X113272501Y-84449970D01*
X113287605Y-84315913D01*
X113287605Y-84315912D01*
X113287606Y-84315906D01*
X113300500Y-84201465D01*
X113300500Y-83892535D01*
X113277647Y-83689705D01*
X113265913Y-83585562D01*
X113265910Y-83585544D01*
X113241927Y-83480469D01*
X113241926Y-83480466D01*
X113212143Y-83349976D01*
X113197168Y-83284364D01*
X113177305Y-83227600D01*
X113095417Y-82993578D01*
X113095177Y-82992876D01*
X113095133Y-82992767D01*
X113054946Y-82909319D01*
X112961095Y-82714435D01*
X112796735Y-82452857D01*
X112604120Y-82211326D01*
X112519814Y-82127020D01*
X112385683Y-81992888D01*
X112385672Y-81992878D01*
X112383257Y-81990953D01*
X112383248Y-81990946D01*
X112361320Y-81973459D01*
X112297176Y-81922305D01*
X112144143Y-81800265D01*
X111932003Y-81666969D01*
X111882562Y-81635903D01*
X111882563Y-81635903D01*
X111882556Y-81635899D01*
X111604233Y-81501866D01*
X111604231Y-81501865D01*
X111604224Y-81501863D01*
X111604225Y-81501863D01*
X111604222Y-81501862D01*
X111591029Y-81497245D01*
X111312676Y-81399844D01*
X111312654Y-81399836D01*
X111312625Y-81399828D01*
X111309696Y-81399160D01*
X111309696Y-81399159D01*
X111256796Y-81387085D01*
X133051237Y-81387085D01*
X133080822Y-81535808D01*
X133082458Y-81544030D01*
X133082461Y-81544040D01*
X133133376Y-81666961D01*
X133133378Y-81666964D01*
X133133379Y-81666967D01*
X133133382Y-81666973D01*
X133133385Y-81666978D01*
X133133386Y-81666979D01*
X133142442Y-81680533D01*
X133207302Y-81777602D01*
X133207305Y-81777607D01*
X133226408Y-81796710D01*
X133247563Y-81824970D01*
X133255054Y-81838690D01*
X133269905Y-81906948D01*
X133269776Y-81908754D01*
X133250408Y-81966956D01*
X133246229Y-81973459D01*
X133229593Y-81994103D01*
X133207314Y-82016381D01*
X133207307Y-82016389D01*
X133207305Y-82016392D01*
X133207302Y-82016396D01*
X133133382Y-82127025D01*
X133133379Y-82127031D01*
X133133376Y-82127037D01*
X133133376Y-82127038D01*
X133082958Y-82248761D01*
X133082459Y-82249965D01*
X133082456Y-82249976D01*
X133056500Y-82380463D01*
X133056500Y-82469165D01*
X133051237Y-82487085D01*
X133082456Y-82644022D01*
X133082458Y-82644030D01*
X133082461Y-82644040D01*
X133133376Y-82766961D01*
X133133378Y-82766964D01*
X133133379Y-82766967D01*
X133133382Y-82766973D01*
X133133385Y-82766978D01*
X133133386Y-82766979D01*
X133157190Y-82802605D01*
X133207302Y-82877602D01*
X133207305Y-82877607D01*
X133226408Y-82896710D01*
X133247563Y-82924970D01*
X133255054Y-82938690D01*
X133269905Y-83006948D01*
X133269776Y-83008754D01*
X133250408Y-83066956D01*
X133246229Y-83073459D01*
X133229593Y-83094103D01*
X133207314Y-83116381D01*
X133207307Y-83116389D01*
X133207305Y-83116392D01*
X133207302Y-83116396D01*
X133133382Y-83227025D01*
X133133379Y-83227031D01*
X133133376Y-83227037D01*
X133133376Y-83227038D01*
X133082959Y-83348759D01*
X133082459Y-83349965D01*
X133082456Y-83349976D01*
X133056500Y-83480463D01*
X133056500Y-83569165D01*
X133051237Y-83587085D01*
X133081958Y-83741517D01*
X133082458Y-83744030D01*
X133082461Y-83744040D01*
X133133376Y-83866961D01*
X133133378Y-83866965D01*
X133133377Y-83866965D01*
X133133380Y-83866970D01*
X133133385Y-83866978D01*
X133133386Y-83866979D01*
X133193891Y-83957532D01*
X133207302Y-83977602D01*
X133207305Y-83977607D01*
X133226408Y-83996710D01*
X133247563Y-84024970D01*
X133255054Y-84038690D01*
X133269905Y-84106948D01*
X133269776Y-84108754D01*
X133250408Y-84166956D01*
X133246229Y-84173459D01*
X133229593Y-84194103D01*
X133207314Y-84216381D01*
X133207307Y-84216389D01*
X133207307Y-84216390D01*
X133207301Y-84216398D01*
X133162993Y-84282709D01*
X133133382Y-84327025D01*
X133133379Y-84327031D01*
X133133377Y-84327036D01*
X133133376Y-84327038D01*
X133082469Y-84449942D01*
X133082459Y-84449965D01*
X133082456Y-84449976D01*
X133056500Y-84580463D01*
X133056500Y-84669165D01*
X133051237Y-84687085D01*
X133077411Y-84818659D01*
X133082458Y-84844030D01*
X133082461Y-84844040D01*
X133133376Y-84966961D01*
X133133378Y-84966964D01*
X133133379Y-84966967D01*
X133133382Y-84966973D01*
X133207302Y-85077602D01*
X133207305Y-85077607D01*
X133226408Y-85096710D01*
X133247563Y-85124970D01*
X133255054Y-85138690D01*
X133269905Y-85206948D01*
X133269776Y-85208754D01*
X133250408Y-85266956D01*
X133246229Y-85273459D01*
X133229593Y-85294103D01*
X133207314Y-85316381D01*
X133207307Y-85316389D01*
X133207305Y-85316392D01*
X133207302Y-85316396D01*
X133133382Y-85427025D01*
X133133379Y-85427031D01*
X133133376Y-85427037D01*
X133133376Y-85427038D01*
X133082650Y-85549504D01*
X133082459Y-85549965D01*
X133082458Y-85549969D01*
X133056500Y-85680463D01*
X133056500Y-85769165D01*
X133051237Y-85787085D01*
X133082456Y-85944022D01*
X133082458Y-85944030D01*
X133082461Y-85944040D01*
X133133376Y-86066961D01*
X133133378Y-86066964D01*
X133133379Y-86066967D01*
X133133382Y-86066973D01*
X133133385Y-86066978D01*
X133133386Y-86066979D01*
X133191791Y-86154389D01*
X133207302Y-86177602D01*
X133207305Y-86177607D01*
X133226408Y-86196710D01*
X133247563Y-86224970D01*
X133255054Y-86238690D01*
X133269905Y-86306948D01*
X133269776Y-86308754D01*
X133250408Y-86366956D01*
X133246229Y-86373459D01*
X133229593Y-86394103D01*
X133207314Y-86416381D01*
X133207307Y-86416389D01*
X133207305Y-86416392D01*
X133207302Y-86416396D01*
X133133382Y-86527025D01*
X133133379Y-86527031D01*
X133133376Y-86527037D01*
X133133376Y-86527038D01*
X133082959Y-86648759D01*
X133082459Y-86649965D01*
X133082456Y-86649976D01*
X133056500Y-86780463D01*
X133056500Y-86869165D01*
X133051237Y-86887085D01*
X133082456Y-87044022D01*
X133082458Y-87044030D01*
X133082461Y-87044040D01*
X133133376Y-87166961D01*
X133133378Y-87166964D01*
X133133379Y-87166967D01*
X133133382Y-87166973D01*
X133133385Y-87166978D01*
X133133386Y-87166979D01*
X133195021Y-87259223D01*
X133207302Y-87277602D01*
X133207305Y-87277607D01*
X133207310Y-87277613D01*
X133301385Y-87371688D01*
X133301389Y-87371691D01*
X133301390Y-87371692D01*
X133301398Y-87371698D01*
X133391994Y-87432232D01*
X133409232Y-87443750D01*
X133412190Y-87445845D01*
X133416071Y-87447293D01*
X133529369Y-87494222D01*
X133533764Y-87496301D01*
X133534962Y-87496539D01*
X133534964Y-87496540D01*
X133534965Y-87496540D01*
X133534968Y-87496540D01*
X133534969Y-87496541D01*
X133577669Y-87505035D01*
X133665464Y-87522500D01*
X133948533Y-87522500D01*
X133948535Y-87522500D01*
X134036320Y-87505036D01*
X134036323Y-87505036D01*
X134054653Y-87501389D01*
X134079036Y-87496540D01*
X134201969Y-87445620D01*
X134312606Y-87371695D01*
X134350973Y-87333328D01*
X134381713Y-87302587D01*
X134409964Y-87281439D01*
X134423688Y-87273945D01*
X134491946Y-87259094D01*
X134493756Y-87259223D01*
X134551953Y-87278589D01*
X134558471Y-87282778D01*
X134579101Y-87299403D01*
X134651390Y-87371692D01*
X134651398Y-87371698D01*
X134741994Y-87432232D01*
X134759232Y-87443750D01*
X134762190Y-87445845D01*
X134766071Y-87447293D01*
X134879369Y-87494222D01*
X134883764Y-87496301D01*
X134884962Y-87496539D01*
X134884964Y-87496540D01*
X134884965Y-87496540D01*
X134884968Y-87496540D01*
X134884969Y-87496541D01*
X134927669Y-87505035D01*
X135015464Y-87522500D01*
X135298533Y-87522500D01*
X135298535Y-87522500D01*
X135386320Y-87505036D01*
X135386323Y-87505036D01*
X135404653Y-87501389D01*
X135429036Y-87496540D01*
X135551969Y-87445620D01*
X135662606Y-87371695D01*
X135756695Y-87277606D01*
X135830620Y-87166969D01*
X135881540Y-87044036D01*
X135907500Y-86913531D01*
X135907500Y-86780469D01*
X135907500Y-86780466D01*
X135907500Y-86780463D01*
X135881300Y-86648759D01*
X135879215Y-86644349D01*
X135830623Y-86527037D01*
X135830621Y-86527033D01*
X135830620Y-86527031D01*
X135784559Y-86458096D01*
X135756698Y-86416398D01*
X135756692Y-86416390D01*
X135756691Y-86416389D01*
X135756688Y-86416385D01*
X135737591Y-86397289D01*
X135716436Y-86369029D01*
X135708945Y-86355309D01*
X135694094Y-86287051D01*
X135694223Y-86285242D01*
X135713593Y-86227041D01*
X135717777Y-86220530D01*
X135734407Y-86199895D01*
X135756694Y-86177608D01*
X135756695Y-86177604D01*
X135830620Y-86066969D01*
X135881540Y-85944036D01*
X135906501Y-85818555D01*
X135907500Y-85813533D01*
X135907500Y-85680466D01*
X135907500Y-85680463D01*
X135881597Y-85550250D01*
X135881451Y-85549504D01*
X135881313Y-85548788D01*
X135879220Y-85544364D01*
X135832300Y-85431086D01*
X135830997Y-85427597D01*
X135830621Y-85427034D01*
X135830620Y-85427031D01*
X135813618Y-85401586D01*
X135756698Y-85316398D01*
X135756692Y-85316390D01*
X135756690Y-85316388D01*
X135756688Y-85316385D01*
X135737591Y-85297289D01*
X135716436Y-85269029D01*
X135708945Y-85255309D01*
X135694094Y-85187051D01*
X135694223Y-85185242D01*
X135713593Y-85127041D01*
X135717777Y-85120530D01*
X135734407Y-85099895D01*
X135756694Y-85077608D01*
X135756695Y-85077604D01*
X135830620Y-84966969D01*
X135881540Y-84844036D01*
X135907500Y-84713531D01*
X135907500Y-84580469D01*
X135907500Y-84580466D01*
X135907500Y-84580463D01*
X135882046Y-84452507D01*
X135881541Y-84449969D01*
X135881540Y-84449968D01*
X135881300Y-84448759D01*
X135879215Y-84444349D01*
X135830622Y-84327036D01*
X135830620Y-84327031D01*
X135823191Y-84315913D01*
X135756698Y-84216398D01*
X135756692Y-84216390D01*
X135737591Y-84197289D01*
X135716436Y-84169029D01*
X135708945Y-84155309D01*
X135706587Y-84144471D01*
X160650237Y-84144471D01*
X160684338Y-84315899D01*
X160684340Y-84315907D01*
X160684343Y-84315917D01*
X160688950Y-84327039D01*
X160740908Y-84452481D01*
X160740912Y-84452488D01*
X160740916Y-84452496D01*
X160740923Y-84452507D01*
X160823049Y-84575417D01*
X160823050Y-84575418D01*
X160823055Y-84575424D01*
X160927574Y-84679943D01*
X160927580Y-84679948D01*
X160927584Y-84679951D01*
X161050498Y-84762080D01*
X161050511Y-84762087D01*
X161165306Y-84809636D01*
X161181474Y-84816333D01*
X161185885Y-84818419D01*
X161332076Y-84847500D01*
X161332079Y-84847500D01*
X161332082Y-84847500D01*
X161479920Y-84847500D01*
X161577462Y-84828096D01*
X161624913Y-84818658D01*
X161761495Y-84762084D01*
X161884416Y-84679951D01*
X161988951Y-84575416D01*
X162071084Y-84452495D01*
X162072135Y-84449959D01*
X162123050Y-84327038D01*
X162127658Y-84315913D01*
X162147455Y-84216390D01*
X162156500Y-84170920D01*
X162156500Y-84023079D01*
X162156500Y-84023076D01*
X162134652Y-83913248D01*
X162134647Y-83913223D01*
X162130531Y-83892530D01*
X162130529Y-83892521D01*
X175059500Y-83892521D01*
X175059500Y-84201477D01*
X175094083Y-84508422D01*
X175094089Y-84508457D01*
X175162831Y-84809634D01*
X175162835Y-84809650D01*
X175162842Y-84809671D01*
X175264859Y-85101216D01*
X175264862Y-85101222D01*
X175264868Y-85101236D01*
X175316646Y-85208754D01*
X175398902Y-85379560D01*
X175399106Y-85379918D01*
X175399792Y-85380977D01*
X175428734Y-85427038D01*
X175563265Y-85641143D01*
X175755880Y-85882674D01*
X175974326Y-86101120D01*
X176215857Y-86293735D01*
X176477435Y-86458095D01*
X176755771Y-86592135D01*
X176755775Y-86592136D01*
X176755877Y-86592178D01*
X176756639Y-86592438D01*
X176844686Y-86623247D01*
X177047327Y-86694156D01*
X177047348Y-86694163D01*
X177047352Y-86694164D01*
X177047364Y-86694168D01*
X177272889Y-86745642D01*
X177347381Y-86762645D01*
X177348443Y-86762899D01*
X177348546Y-86762910D01*
X177348548Y-86762911D01*
X177348550Y-86762911D01*
X177348557Y-86762911D01*
X177348562Y-86762913D01*
X177553206Y-86785970D01*
X177635691Y-86795263D01*
X177652511Y-86797159D01*
X177654994Y-86797500D01*
X177964468Y-86797500D01*
X177974263Y-86797500D01*
X177981862Y-86795539D01*
X178121356Y-86779822D01*
X178270749Y-86762990D01*
X178271390Y-86762922D01*
X178271437Y-86762914D01*
X178271448Y-86762911D01*
X178271452Y-86762911D01*
X178572636Y-86694168D01*
X178864229Y-86592135D01*
X179142565Y-86458095D01*
X179404143Y-86293735D01*
X179645674Y-86101120D01*
X179864120Y-85882674D01*
X180056735Y-85641143D01*
X180221095Y-85379565D01*
X180355135Y-85101229D01*
X180457168Y-84809636D01*
X180457169Y-84809634D01*
X180489908Y-84666189D01*
X180525911Y-84508452D01*
X180525915Y-84508422D01*
X180532501Y-84449970D01*
X180547605Y-84315913D01*
X180547605Y-84315912D01*
X180547606Y-84315906D01*
X180560500Y-84201465D01*
X180560500Y-83892535D01*
X180537647Y-83689705D01*
X180525913Y-83585562D01*
X180525910Y-83585544D01*
X180501927Y-83480469D01*
X180501926Y-83480466D01*
X180472143Y-83349976D01*
X180457168Y-83284364D01*
X180437305Y-83227600D01*
X180355417Y-82993578D01*
X180355177Y-82992876D01*
X180355133Y-82992767D01*
X180314946Y-82909319D01*
X180221095Y-82714435D01*
X180056735Y-82452857D01*
X179864120Y-82211326D01*
X179779814Y-82127020D01*
X179645683Y-81992888D01*
X179645672Y-81992878D01*
X179643257Y-81990953D01*
X179643248Y-81990946D01*
X179621320Y-81973459D01*
X179557176Y-81922305D01*
X179404143Y-81800265D01*
X179192003Y-81666969D01*
X179142562Y-81635903D01*
X179142563Y-81635903D01*
X179142556Y-81635899D01*
X178864233Y-81501866D01*
X178864231Y-81501865D01*
X178864216Y-81501859D01*
X178572671Y-81399842D01*
X178572650Y-81399835D01*
X178572638Y-81399832D01*
X178572635Y-81399831D01*
X178434909Y-81368396D01*
X178271457Y-81331089D01*
X178271422Y-81331083D01*
X177964477Y-81296500D01*
X177964471Y-81296500D01*
X177964465Y-81296500D01*
X177655535Y-81296500D01*
X177655528Y-81296500D01*
X177655521Y-81296500D01*
X177348576Y-81331083D01*
X177348541Y-81331089D01*
X177103208Y-81387085D01*
X177047378Y-81399828D01*
X177047360Y-81399832D01*
X177047348Y-81399835D01*
X177047327Y-81399842D01*
X176755782Y-81501859D01*
X176755767Y-81501865D01*
X176755765Y-81501866D01*
X176477442Y-81635899D01*
X176215859Y-81800263D01*
X175974326Y-81992878D01*
X175755878Y-82211326D01*
X175563263Y-82452859D01*
X175398899Y-82714442D01*
X175264866Y-82992765D01*
X175264865Y-82992767D01*
X175264859Y-82992782D01*
X175162842Y-83284327D01*
X175162835Y-83284348D01*
X175162835Y-83284350D01*
X175162835Y-83284352D01*
X175162831Y-83284364D01*
X175142066Y-83375343D01*
X175094089Y-83585541D01*
X175094083Y-83585576D01*
X175059500Y-83892521D01*
X162130529Y-83892521D01*
X162127658Y-83878087D01*
X162125909Y-83873865D01*
X162123054Y-83866970D01*
X162075878Y-83753078D01*
X162071087Y-83741511D01*
X162071080Y-83741498D01*
X161988951Y-83618584D01*
X161988948Y-83618580D01*
X161988943Y-83618574D01*
X161884424Y-83514055D01*
X161884418Y-83514050D01*
X161884417Y-83514049D01*
X161761507Y-83431923D01*
X161761506Y-83431922D01*
X161761501Y-83431919D01*
X161761488Y-83431912D01*
X161761481Y-83431908D01*
X161624919Y-83375344D01*
X161624920Y-83375344D01*
X161624917Y-83375343D01*
X161624907Y-83375340D01*
X161624905Y-83375339D01*
X161624900Y-83375338D01*
X161479922Y-83346500D01*
X161479920Y-83346500D01*
X161479918Y-83346500D01*
X161332082Y-83346500D01*
X161332080Y-83346500D01*
X161332078Y-83346500D01*
X161187096Y-83375338D01*
X161187079Y-83375344D01*
X161050517Y-83431908D01*
X161050508Y-83431913D01*
X161050491Y-83431923D01*
X160927581Y-83514049D01*
X160927580Y-83514050D01*
X160927574Y-83514055D01*
X160823055Y-83618574D01*
X160823050Y-83618580D01*
X160823049Y-83618581D01*
X160740923Y-83741491D01*
X160740913Y-83741508D01*
X160740908Y-83741517D01*
X160684344Y-83878079D01*
X160684338Y-83878098D01*
X160655500Y-84023076D01*
X160655500Y-84126551D01*
X160650237Y-84144471D01*
X135706587Y-84144471D01*
X135694094Y-84087051D01*
X135694223Y-84085242D01*
X135713593Y-84027041D01*
X135717777Y-84020530D01*
X135734407Y-83999895D01*
X135756694Y-83977608D01*
X135756695Y-83977604D01*
X135830620Y-83866969D01*
X135881540Y-83744036D01*
X135886389Y-83719653D01*
X135890036Y-83701323D01*
X135890036Y-83701319D01*
X135897482Y-83663889D01*
X135907500Y-83613537D01*
X135907500Y-83480463D01*
X135886589Y-83375344D01*
X135881541Y-83349969D01*
X135881540Y-83349968D01*
X135881300Y-83348759D01*
X135879215Y-83344349D01*
X135850521Y-83275075D01*
X135833715Y-83234503D01*
X143872737Y-83234503D01*
X143908567Y-83414625D01*
X143908569Y-83414633D01*
X143908572Y-83414643D01*
X143908575Y-83414651D01*
X143908580Y-83414665D01*
X143968527Y-83559390D01*
X143968535Y-83559408D01*
X143968544Y-83559423D01*
X144055595Y-83689703D01*
X144055596Y-83689704D01*
X144055601Y-83689710D01*
X144166388Y-83800497D01*
X144166394Y-83800502D01*
X144166395Y-83800503D01*
X144166398Y-83800505D01*
X144296682Y-83887559D01*
X144296695Y-83887566D01*
X144435869Y-83945213D01*
X144440283Y-83947301D01*
X144441015Y-83947442D01*
X144441763Y-83947589D01*
X144595145Y-83978100D01*
X144595147Y-83978100D01*
X144595150Y-83978100D01*
X144751852Y-83978100D01*
X144855246Y-83957532D01*
X144905539Y-83947529D01*
X145017504Y-83901151D01*
X145043761Y-83890275D01*
X145046554Y-83889302D01*
X145047989Y-83888638D01*
X145052653Y-83886593D01*
X145061919Y-83882755D01*
X145070804Y-83873869D01*
X145180602Y-83800505D01*
X145180605Y-83800502D01*
X145208213Y-83772893D01*
X145236464Y-83751745D01*
X145250188Y-83744251D01*
X145318446Y-83729400D01*
X145320256Y-83729529D01*
X145378453Y-83748895D01*
X145384971Y-83753084D01*
X145405602Y-83769710D01*
X145436389Y-83800497D01*
X145436395Y-83800503D01*
X145436398Y-83800505D01*
X145566682Y-83887559D01*
X145566695Y-83887566D01*
X145705869Y-83945213D01*
X145710283Y-83947301D01*
X145711015Y-83947442D01*
X145711763Y-83947589D01*
X145865145Y-83978100D01*
X145865147Y-83978100D01*
X145865150Y-83978100D01*
X146021852Y-83978100D01*
X146125246Y-83957532D01*
X146175539Y-83947529D01*
X146287504Y-83901151D01*
X146313761Y-83890275D01*
X146316554Y-83889302D01*
X146317989Y-83888638D01*
X146322653Y-83886593D01*
X146331919Y-83882755D01*
X146340804Y-83873869D01*
X146450602Y-83800505D01*
X146502210Y-83748897D01*
X146561404Y-83689704D01*
X146561405Y-83689702D01*
X146648463Y-83559411D01*
X146708429Y-83414639D01*
X146731730Y-83297499D01*
X146734345Y-83284354D01*
X146734345Y-83284350D01*
X146734346Y-83284348D01*
X146739000Y-83260952D01*
X146739000Y-83104247D01*
X146739000Y-83104244D01*
X146708190Y-82949359D01*
X146706108Y-82944959D01*
X146678212Y-82877609D01*
X146648466Y-82805795D01*
X146648459Y-82805782D01*
X146561405Y-82675498D01*
X146561402Y-82675494D01*
X146533793Y-82647885D01*
X146512642Y-82619629D01*
X146505151Y-82605909D01*
X146490300Y-82537651D01*
X146490429Y-82535842D01*
X146509798Y-82477642D01*
X146513988Y-82471123D01*
X146530611Y-82450495D01*
X146561402Y-82419705D01*
X146561405Y-82419702D01*
X146648463Y-82289411D01*
X146708429Y-82144639D01*
X146711932Y-82127031D01*
X146718742Y-82092789D01*
X146738616Y-81992880D01*
X146739000Y-81990952D01*
X146739000Y-81964503D01*
X147682737Y-81964503D01*
X147715069Y-82127038D01*
X147718569Y-82144633D01*
X147718572Y-82144643D01*
X147718575Y-82144651D01*
X147718580Y-82144665D01*
X147778527Y-82289390D01*
X147778535Y-82289408D01*
X147778544Y-82289423D01*
X147865590Y-82419695D01*
X147865594Y-82419702D01*
X147865597Y-82419705D01*
X147893205Y-82447313D01*
X147914357Y-82475570D01*
X147921848Y-82489290D01*
X147936699Y-82557548D01*
X147936570Y-82559354D01*
X147917202Y-82617557D01*
X147913021Y-82624063D01*
X147896385Y-82644706D01*
X147865602Y-82675488D01*
X147865594Y-82675497D01*
X147865591Y-82675502D01*
X147778544Y-82805775D01*
X147778535Y-82805790D01*
X147778527Y-82805808D01*
X147718580Y-82950533D01*
X147718567Y-82950572D01*
X147688000Y-83104243D01*
X147688000Y-83216583D01*
X147682737Y-83234503D01*
X147718567Y-83414625D01*
X147718569Y-83414633D01*
X147718572Y-83414643D01*
X147718575Y-83414651D01*
X147718580Y-83414665D01*
X147778527Y-83559390D01*
X147778535Y-83559408D01*
X147778544Y-83559423D01*
X147865595Y-83689703D01*
X147865596Y-83689704D01*
X147865601Y-83689710D01*
X147976388Y-83800497D01*
X147976394Y-83800502D01*
X147976395Y-83800503D01*
X147976398Y-83800505D01*
X148106682Y-83887559D01*
X148106695Y-83887566D01*
X148245869Y-83945213D01*
X148250283Y-83947301D01*
X148251015Y-83947442D01*
X148251763Y-83947589D01*
X148405145Y-83978100D01*
X148405147Y-83978100D01*
X148405150Y-83978100D01*
X148561852Y-83978100D01*
X148665246Y-83957532D01*
X148715539Y-83947529D01*
X148827504Y-83901151D01*
X148853761Y-83890275D01*
X148856554Y-83889302D01*
X148857989Y-83888638D01*
X148862653Y-83886593D01*
X148871919Y-83882755D01*
X148880804Y-83873869D01*
X148990602Y-83800505D01*
X148990605Y-83800502D01*
X149018213Y-83772893D01*
X149046464Y-83751745D01*
X149060188Y-83744251D01*
X149128446Y-83729400D01*
X149130256Y-83729529D01*
X149188453Y-83748895D01*
X149194971Y-83753084D01*
X149215602Y-83769710D01*
X149246389Y-83800497D01*
X149246395Y-83800503D01*
X149246398Y-83800505D01*
X149376682Y-83887559D01*
X149376695Y-83887566D01*
X149515869Y-83945213D01*
X149520283Y-83947301D01*
X149521015Y-83947442D01*
X149521763Y-83947589D01*
X149675145Y-83978100D01*
X149675147Y-83978100D01*
X149675150Y-83978100D01*
X149831852Y-83978100D01*
X149935246Y-83957532D01*
X149985539Y-83947529D01*
X150034508Y-83927244D01*
X150034511Y-83927244D01*
X150034511Y-83927243D01*
X150034512Y-83927243D01*
X150094422Y-83902429D01*
X150123757Y-83890277D01*
X150126550Y-83889304D01*
X150127995Y-83888635D01*
X150132663Y-83886588D01*
X150141924Y-83882752D01*
X150150810Y-83873866D01*
X150260605Y-83800503D01*
X150260605Y-83800502D01*
X150371404Y-83689704D01*
X150371405Y-83689702D01*
X150458463Y-83559411D01*
X150518429Y-83414639D01*
X150541730Y-83297499D01*
X150544345Y-83284354D01*
X150544345Y-83284350D01*
X150544346Y-83284348D01*
X150549000Y-83260952D01*
X150549000Y-83104247D01*
X150549000Y-83104244D01*
X150518190Y-82949359D01*
X150516108Y-82944959D01*
X150488212Y-82877609D01*
X150458466Y-82805795D01*
X150458459Y-82805782D01*
X150371405Y-82675498D01*
X150371402Y-82675494D01*
X150343793Y-82647885D01*
X150322642Y-82619629D01*
X150315151Y-82605909D01*
X150300300Y-82537651D01*
X150300429Y-82535842D01*
X150319798Y-82477642D01*
X150323988Y-82471123D01*
X150340611Y-82450495D01*
X150371402Y-82419705D01*
X150371405Y-82419702D01*
X150458463Y-82289411D01*
X150518429Y-82144639D01*
X150521932Y-82127031D01*
X150548616Y-81992880D01*
X150548626Y-81992882D01*
X150548626Y-81992829D01*
X150549000Y-81990952D01*
X150549000Y-81834247D01*
X150549000Y-81834244D01*
X150518190Y-81679360D01*
X150516104Y-81674949D01*
X150512800Y-81666973D01*
X150499931Y-81635903D01*
X150499930Y-81635902D01*
X150499930Y-81635899D01*
X150461877Y-81544030D01*
X150458466Y-81535795D01*
X150458459Y-81535782D01*
X150371405Y-81405498D01*
X150371402Y-81405494D01*
X150371397Y-81405488D01*
X150260610Y-81294701D01*
X150260604Y-81294696D01*
X150260603Y-81294695D01*
X150130323Y-81207644D01*
X150130322Y-81207643D01*
X150130317Y-81207640D01*
X150130304Y-81207633D01*
X150122149Y-81204255D01*
X149985565Y-81147680D01*
X149985551Y-81147675D01*
X149985543Y-81147672D01*
X149985533Y-81147669D01*
X149985530Y-81147668D01*
X149985526Y-81147667D01*
X149831855Y-81117100D01*
X149831852Y-81117100D01*
X149831850Y-81117100D01*
X149675150Y-81117100D01*
X149675148Y-81117100D01*
X149675144Y-81117100D01*
X149521472Y-81147667D01*
X149521466Y-81147669D01*
X149521456Y-81147672D01*
X149521451Y-81147673D01*
X149521433Y-81147680D01*
X149376708Y-81207627D01*
X149376690Y-81207635D01*
X149376675Y-81207644D01*
X149246402Y-81294691D01*
X149246397Y-81294694D01*
X149246388Y-81294702D01*
X149218787Y-81322304D01*
X149190529Y-81343457D01*
X149176809Y-81350948D01*
X149108551Y-81365799D01*
X149106745Y-81365670D01*
X149048544Y-81346302D01*
X149042029Y-81342115D01*
X149021396Y-81325488D01*
X148990605Y-81294697D01*
X148990604Y-81294696D01*
X148990603Y-81294695D01*
X148860323Y-81207644D01*
X148860322Y-81207643D01*
X148860317Y-81207640D01*
X148860304Y-81207633D01*
X148852149Y-81204255D01*
X148715565Y-81147680D01*
X148715551Y-81147675D01*
X148715543Y-81147672D01*
X148715533Y-81147669D01*
X148715530Y-81147668D01*
X148715526Y-81147667D01*
X148561855Y-81117100D01*
X148561852Y-81117100D01*
X148561850Y-81117100D01*
X148405150Y-81117100D01*
X148405148Y-81117100D01*
X148405144Y-81117100D01*
X148251472Y-81147667D01*
X148251466Y-81147669D01*
X148251456Y-81147672D01*
X148251451Y-81147673D01*
X148251433Y-81147680D01*
X148106708Y-81207627D01*
X148106690Y-81207635D01*
X148106675Y-81207644D01*
X147976395Y-81294695D01*
X147976394Y-81294696D01*
X147976388Y-81294701D01*
X147865601Y-81405488D01*
X147865596Y-81405494D01*
X147865595Y-81405495D01*
X147778544Y-81535775D01*
X147778535Y-81535790D01*
X147778527Y-81535808D01*
X147718580Y-81680533D01*
X147718567Y-81680572D01*
X147688000Y-81834243D01*
X147688000Y-81946583D01*
X147682737Y-81964503D01*
X146739000Y-81964503D01*
X146739000Y-81834247D01*
X146739000Y-81834244D01*
X146708190Y-81679360D01*
X146706104Y-81674949D01*
X146702800Y-81666973D01*
X146689931Y-81635903D01*
X146689930Y-81635902D01*
X146689930Y-81635899D01*
X146651877Y-81544030D01*
X146648466Y-81535795D01*
X146648459Y-81535782D01*
X146561405Y-81405498D01*
X146561402Y-81405494D01*
X146561397Y-81405488D01*
X146450610Y-81294701D01*
X146450604Y-81294696D01*
X146450603Y-81294695D01*
X146320323Y-81207644D01*
X146320322Y-81207643D01*
X146320317Y-81207640D01*
X146320304Y-81207633D01*
X146312149Y-81204255D01*
X146175565Y-81147680D01*
X146175551Y-81147675D01*
X146175543Y-81147672D01*
X146175533Y-81147669D01*
X146175530Y-81147668D01*
X146175526Y-81147667D01*
X146021855Y-81117100D01*
X146021852Y-81117100D01*
X146021850Y-81117100D01*
X145865150Y-81117100D01*
X145865148Y-81117100D01*
X145865144Y-81117100D01*
X145711472Y-81147667D01*
X145711453Y-81147673D01*
X145566690Y-81207634D01*
X145566232Y-81207849D01*
X145565281Y-81208218D01*
X145564123Y-81208698D01*
X145564112Y-81208672D01*
X145550734Y-81213868D01*
X145531267Y-81219961D01*
X145461601Y-81221253D01*
X145461414Y-81221202D01*
X145427538Y-81200346D01*
X145424927Y-81204255D01*
X145400912Y-81188209D01*
X145397294Y-81185698D01*
X145395053Y-81184083D01*
X145392636Y-81182678D01*
X145340244Y-81147672D01*
X145340242Y-81147671D01*
X145316240Y-81131633D01*
X145316237Y-81131632D01*
X145316235Y-81131632D01*
X145316225Y-81131630D01*
X145316209Y-81131626D01*
X145243180Y-81117100D01*
X145243177Y-81117100D01*
X145243174Y-81117100D01*
X144103826Y-81117100D01*
X144103823Y-81117100D01*
X144103819Y-81117100D01*
X144030785Y-81131627D01*
X144030762Y-81131632D01*
X144030758Y-81131633D01*
X143947899Y-81186999D01*
X143892533Y-81269858D01*
X143892532Y-81269866D01*
X143892528Y-81269881D01*
X143878000Y-81342918D01*
X143878000Y-81342921D01*
X143878000Y-82482278D01*
X143878000Y-82482280D01*
X143877999Y-82482280D01*
X143885750Y-82521242D01*
X143892532Y-82555335D01*
X143892533Y-82555339D01*
X143904973Y-82573957D01*
X143904974Y-82573959D01*
X143943578Y-82631736D01*
X143944988Y-82634162D01*
X143946603Y-82636403D01*
X143949108Y-82640011D01*
X143963549Y-82661623D01*
X143969285Y-82671099D01*
X143971479Y-82675118D01*
X143986326Y-82743371D01*
X143985780Y-82751013D01*
X143969622Y-82802605D01*
X143970079Y-82802845D01*
X143968756Y-82805370D01*
X143968726Y-82805467D01*
X143968552Y-82805759D01*
X143968534Y-82805793D01*
X143968523Y-82805816D01*
X143908573Y-82950553D01*
X143908567Y-82950572D01*
X143878000Y-83104243D01*
X143878000Y-83216583D01*
X143872737Y-83234503D01*
X135833715Y-83234503D01*
X135830621Y-83227033D01*
X135830619Y-83227030D01*
X135830616Y-83227025D01*
X135775634Y-83144739D01*
X135775631Y-83144735D01*
X135756699Y-83116399D01*
X135756696Y-83116396D01*
X135756693Y-83116392D01*
X135756692Y-83116390D01*
X135756690Y-83116388D01*
X135756688Y-83116385D01*
X135737591Y-83097289D01*
X135716436Y-83069029D01*
X135708945Y-83055309D01*
X135694094Y-82987051D01*
X135694223Y-82985242D01*
X135713593Y-82927041D01*
X135717777Y-82920530D01*
X135734407Y-82899895D01*
X135756694Y-82877608D01*
X135756695Y-82877604D01*
X135830620Y-82766969D01*
X135881540Y-82644036D01*
X135895480Y-82573958D01*
X135903062Y-82535845D01*
X135907500Y-82513534D01*
X135907500Y-82380463D01*
X135881301Y-82248761D01*
X135879214Y-82244349D01*
X135830623Y-82127038D01*
X135830622Y-82127037D01*
X135830620Y-82127031D01*
X135756695Y-82016394D01*
X135756692Y-82016390D01*
X135756691Y-82016389D01*
X135756690Y-82016387D01*
X135756688Y-82016385D01*
X135737591Y-81997289D01*
X135716436Y-81969029D01*
X135708945Y-81955309D01*
X135694094Y-81887051D01*
X135694223Y-81885242D01*
X135713593Y-81827041D01*
X135717777Y-81820530D01*
X135734407Y-81799895D01*
X135756694Y-81777608D01*
X135756695Y-81777604D01*
X135830620Y-81666969D01*
X135881540Y-81544036D01*
X135898240Y-81460084D01*
X135907500Y-81413533D01*
X135907500Y-81280466D01*
X135907500Y-81280463D01*
X135881301Y-81148761D01*
X135879213Y-81144347D01*
X135873945Y-81131627D01*
X135873945Y-81131626D01*
X135836660Y-81041613D01*
X135830623Y-81027038D01*
X135830622Y-81027037D01*
X135830620Y-81027031D01*
X135756695Y-80916394D01*
X135756692Y-80916390D01*
X135682773Y-80842471D01*
X156840237Y-80842471D01*
X156874338Y-81013899D01*
X156874340Y-81013907D01*
X156874343Y-81013917D01*
X156879775Y-81027031D01*
X156930908Y-81150481D01*
X156930913Y-81150490D01*
X156930923Y-81150507D01*
X157013049Y-81273417D01*
X157013050Y-81273418D01*
X157013055Y-81273424D01*
X157117574Y-81377943D01*
X157117580Y-81377948D01*
X157117584Y-81377951D01*
X157240498Y-81460080D01*
X157240511Y-81460087D01*
X157371487Y-81514338D01*
X157375910Y-81516430D01*
X157376638Y-81516571D01*
X157377382Y-81516717D01*
X157522077Y-81545500D01*
X157522079Y-81545500D01*
X157522082Y-81545500D01*
X157669920Y-81545500D01*
X157767462Y-81526096D01*
X157814913Y-81516658D01*
X157951495Y-81460084D01*
X158074416Y-81377951D01*
X158178951Y-81273416D01*
X158261084Y-81150495D01*
X158268897Y-81131634D01*
X158268898Y-81131632D01*
X158283448Y-81096503D01*
X158283449Y-81096500D01*
X158317658Y-81013913D01*
X158322012Y-80992019D01*
X158326409Y-80969919D01*
X158326410Y-80969908D01*
X158327096Y-80966462D01*
X158346500Y-80868920D01*
X158346500Y-80842471D01*
X159126237Y-80842471D01*
X159160338Y-81013899D01*
X159160340Y-81013907D01*
X159160343Y-81013917D01*
X159165775Y-81027031D01*
X159216908Y-81150481D01*
X159216913Y-81150490D01*
X159216923Y-81150507D01*
X159299049Y-81273417D01*
X159299050Y-81273418D01*
X159299055Y-81273424D01*
X159403574Y-81377943D01*
X159403580Y-81377948D01*
X159403584Y-81377951D01*
X159526498Y-81460080D01*
X159526511Y-81460087D01*
X159657487Y-81514338D01*
X159661910Y-81516430D01*
X159662638Y-81516571D01*
X159663382Y-81516717D01*
X159808077Y-81545500D01*
X159808079Y-81545500D01*
X159808082Y-81545500D01*
X159955920Y-81545500D01*
X160053462Y-81526096D01*
X160100913Y-81516658D01*
X160237495Y-81460084D01*
X160360416Y-81377951D01*
X160464951Y-81273416D01*
X160547084Y-81150495D01*
X160554897Y-81131634D01*
X160554898Y-81131632D01*
X160569448Y-81096503D01*
X160569449Y-81096500D01*
X160603658Y-81013913D01*
X160608355Y-80990294D01*
X160613096Y-80966465D01*
X160613096Y-80966462D01*
X160632500Y-80868920D01*
X160632500Y-80721079D01*
X160632500Y-80721076D01*
X160603717Y-80576382D01*
X160603571Y-80575638D01*
X160603430Y-80574910D01*
X160601338Y-80570487D01*
X160547087Y-80439511D01*
X160547080Y-80439498D01*
X160464951Y-80316584D01*
X160464948Y-80316580D01*
X160464943Y-80316574D01*
X160360424Y-80212055D01*
X160360418Y-80212050D01*
X160360417Y-80212049D01*
X160237507Y-80129923D01*
X160237506Y-80129922D01*
X160237501Y-80129919D01*
X160237488Y-80129912D01*
X160237481Y-80129908D01*
X160100919Y-80073344D01*
X160100920Y-80073344D01*
X160100917Y-80073343D01*
X160100907Y-80073340D01*
X160100905Y-80073339D01*
X160100900Y-80073338D01*
X159955922Y-80044500D01*
X159955920Y-80044500D01*
X159955918Y-80044500D01*
X159808082Y-80044500D01*
X159808080Y-80044500D01*
X159808078Y-80044500D01*
X159663096Y-80073338D01*
X159663079Y-80073344D01*
X159526517Y-80129908D01*
X159526508Y-80129913D01*
X159526491Y-80129923D01*
X159403581Y-80212049D01*
X159403580Y-80212050D01*
X159403574Y-80212055D01*
X159299055Y-80316574D01*
X159299050Y-80316580D01*
X159299049Y-80316581D01*
X159216923Y-80439491D01*
X159216913Y-80439508D01*
X159216908Y-80439517D01*
X159160344Y-80576079D01*
X159160338Y-80576098D01*
X159131500Y-80721076D01*
X159131500Y-80824551D01*
X159126237Y-80842471D01*
X158346500Y-80842471D01*
X158346500Y-80721079D01*
X158346500Y-80721076D01*
X158317717Y-80576382D01*
X158317571Y-80575638D01*
X158317430Y-80574910D01*
X158315338Y-80570487D01*
X158261087Y-80439511D01*
X158261080Y-80439498D01*
X158178951Y-80316584D01*
X158178948Y-80316580D01*
X158178943Y-80316574D01*
X158074424Y-80212055D01*
X158074418Y-80212050D01*
X158074417Y-80212049D01*
X157951507Y-80129923D01*
X157951506Y-80129922D01*
X157951501Y-80129919D01*
X157951488Y-80129912D01*
X157951481Y-80129908D01*
X157814919Y-80073344D01*
X157814920Y-80073344D01*
X157814917Y-80073343D01*
X157814907Y-80073340D01*
X157814905Y-80073339D01*
X157814900Y-80073338D01*
X157669922Y-80044500D01*
X157669920Y-80044500D01*
X157669918Y-80044500D01*
X157522082Y-80044500D01*
X157522080Y-80044500D01*
X157522078Y-80044500D01*
X157377096Y-80073338D01*
X157377079Y-80073344D01*
X157240517Y-80129908D01*
X157240508Y-80129913D01*
X157240491Y-80129923D01*
X157117581Y-80212049D01*
X157117580Y-80212050D01*
X157117574Y-80212055D01*
X157013055Y-80316574D01*
X157013050Y-80316580D01*
X157013049Y-80316581D01*
X156930923Y-80439491D01*
X156930913Y-80439508D01*
X156930908Y-80439517D01*
X156874344Y-80576079D01*
X156874338Y-80576098D01*
X156845500Y-80721076D01*
X156845500Y-80824551D01*
X156840237Y-80842471D01*
X135682773Y-80842471D01*
X135662608Y-80822306D01*
X135662604Y-80822303D01*
X135662603Y-80822302D01*
X135662597Y-80822297D01*
X135551978Y-80748384D01*
X135551965Y-80748378D01*
X135551960Y-80748375D01*
X135551957Y-80748374D01*
X135429042Y-80697462D01*
X135429043Y-80697462D01*
X135429040Y-80697461D01*
X135429030Y-80697458D01*
X135429026Y-80697457D01*
X135429022Y-80697456D01*
X135298535Y-80671500D01*
X135298533Y-80671500D01*
X135298531Y-80671500D01*
X135015469Y-80671500D01*
X135015467Y-80671500D01*
X135015465Y-80671500D01*
X134884975Y-80697456D01*
X134884965Y-80697459D01*
X134884963Y-80697459D01*
X134884959Y-80697461D01*
X134762038Y-80748376D01*
X134762031Y-80748379D01*
X134762025Y-80748382D01*
X134651396Y-80822302D01*
X134651392Y-80822305D01*
X134651389Y-80822307D01*
X134651380Y-80822315D01*
X134582285Y-80891411D01*
X134554027Y-80912564D01*
X134540309Y-80920054D01*
X134472051Y-80934905D01*
X134470245Y-80934776D01*
X134412044Y-80915408D01*
X134405529Y-80911221D01*
X134384897Y-80894595D01*
X134312609Y-80822307D01*
X134312608Y-80822306D01*
X134312607Y-80822305D01*
X134312602Y-80822302D01*
X134306298Y-80818090D01*
X134201979Y-80748386D01*
X134201972Y-80748381D01*
X134201965Y-80748378D01*
X134201960Y-80748375D01*
X134201957Y-80748374D01*
X134079042Y-80697462D01*
X134079043Y-80697462D01*
X134079040Y-80697461D01*
X134079030Y-80697458D01*
X134079026Y-80697457D01*
X134079022Y-80697456D01*
X133948535Y-80671500D01*
X133948533Y-80671500D01*
X133948531Y-80671500D01*
X133665469Y-80671500D01*
X133665467Y-80671500D01*
X133665465Y-80671500D01*
X133534975Y-80697456D01*
X133534965Y-80697459D01*
X133534963Y-80697459D01*
X133534959Y-80697461D01*
X133412038Y-80748376D01*
X133412031Y-80748379D01*
X133412025Y-80748382D01*
X133301396Y-80822302D01*
X133301391Y-80822305D01*
X133301385Y-80822310D01*
X133207310Y-80916385D01*
X133207305Y-80916391D01*
X133207302Y-80916396D01*
X133133382Y-81027025D01*
X133133379Y-81027031D01*
X133133376Y-81027037D01*
X133133376Y-81027038D01*
X133082958Y-81148761D01*
X133082459Y-81149965D01*
X133082456Y-81149976D01*
X133056500Y-81280463D01*
X133056500Y-81369165D01*
X133051237Y-81387085D01*
X111256796Y-81387085D01*
X111011460Y-81331089D01*
X111011422Y-81331083D01*
X110704477Y-81296500D01*
X110704471Y-81296500D01*
X110704465Y-81296500D01*
X110395535Y-81296500D01*
X110395528Y-81296500D01*
X110395521Y-81296500D01*
X110088576Y-81331083D01*
X110088541Y-81331089D01*
X109843208Y-81387085D01*
X109787378Y-81399828D01*
X109787360Y-81399832D01*
X109787348Y-81399835D01*
X109787327Y-81399842D01*
X109495782Y-81501859D01*
X109495767Y-81501865D01*
X109495765Y-81501866D01*
X109217442Y-81635899D01*
X108955859Y-81800263D01*
X108714326Y-81992878D01*
X108495878Y-82211326D01*
X108303263Y-82452859D01*
X108138899Y-82714442D01*
X108004866Y-82992765D01*
X108004865Y-82992767D01*
X108004859Y-82992782D01*
X107902842Y-83284327D01*
X107902835Y-83284348D01*
X107902835Y-83284350D01*
X107902835Y-83284352D01*
X107902831Y-83284364D01*
X107882066Y-83375343D01*
X107834089Y-83585541D01*
X107834083Y-83585576D01*
X107799500Y-83892521D01*
X102224000Y-83892521D01*
X102224000Y-83071680D01*
X104529499Y-83071680D01*
X104544028Y-83144717D01*
X104544032Y-83144735D01*
X104544033Y-83144739D01*
X104547480Y-83150826D01*
X104550816Y-83154891D01*
X104599399Y-83227601D01*
X104682256Y-83282964D01*
X104682258Y-83282965D01*
X104682259Y-83282965D01*
X104682260Y-83282966D01*
X104682264Y-83282967D01*
X104682279Y-83282970D01*
X104682288Y-83282972D01*
X104727021Y-83291869D01*
X104747681Y-83295979D01*
X104750415Y-83296703D01*
X104755323Y-83297500D01*
X106504676Y-83297500D01*
X106508796Y-83297500D01*
X106516648Y-83295117D01*
X106577740Y-83282966D01*
X106660601Y-83227601D01*
X106715966Y-83144740D01*
X106730500Y-83071674D01*
X106730500Y-81322326D01*
X106730500Y-81322323D01*
X106730500Y-81322139D01*
X106730064Y-81320134D01*
X106715972Y-81249289D01*
X106715967Y-81249266D01*
X106715967Y-81249264D01*
X106715966Y-81249260D01*
X106689711Y-81209966D01*
X106689711Y-81209965D01*
X106675174Y-81188209D01*
X106660601Y-81166399D01*
X106608559Y-81131626D01*
X106587891Y-81117816D01*
X106583826Y-81114480D01*
X106577739Y-81111033D01*
X106577735Y-81111032D01*
X106577709Y-81111026D01*
X106504680Y-81096500D01*
X106504677Y-81096500D01*
X106504674Y-81096500D01*
X104755326Y-81096500D01*
X104755323Y-81096500D01*
X104755319Y-81096500D01*
X104682285Y-81111027D01*
X104682262Y-81111032D01*
X104682258Y-81111033D01*
X104599399Y-81166399D01*
X104544033Y-81249258D01*
X104544032Y-81249266D01*
X104544028Y-81249281D01*
X104529500Y-81322318D01*
X104529500Y-81322321D01*
X104529500Y-83071678D01*
X104529500Y-83071680D01*
X104529499Y-83071680D01*
X102224000Y-83071680D01*
X102224000Y-77030383D01*
X104529500Y-77030383D01*
X104529500Y-77203614D01*
X104539789Y-77268574D01*
X104540661Y-77274082D01*
X104556598Y-77374701D01*
X104610127Y-77539445D01*
X104688768Y-77693788D01*
X104790586Y-77833928D01*
X104913072Y-77956414D01*
X105053212Y-78058232D01*
X105207555Y-78136873D01*
X105372299Y-78190402D01*
X105543389Y-78217500D01*
X105543390Y-78217500D01*
X105716610Y-78217500D01*
X105716611Y-78217500D01*
X105887701Y-78190402D01*
X106052445Y-78136873D01*
X106206788Y-78058232D01*
X106346928Y-77956414D01*
X106469414Y-77833928D01*
X106498081Y-77794471D01*
X119756237Y-77794471D01*
X119790338Y-77965899D01*
X119790339Y-77965904D01*
X119790344Y-77965919D01*
X119846908Y-78102481D01*
X119846913Y-78102490D01*
X119846923Y-78102507D01*
X119929049Y-78225417D01*
X119929050Y-78225418D01*
X119929055Y-78225424D01*
X120033574Y-78329943D01*
X120033580Y-78329948D01*
X120033584Y-78329951D01*
X120156498Y-78412080D01*
X120156511Y-78412087D01*
X120287487Y-78466338D01*
X120291910Y-78468430D01*
X120292638Y-78468571D01*
X120293382Y-78468717D01*
X120438077Y-78497500D01*
X120438079Y-78497500D01*
X120438082Y-78497500D01*
X120585920Y-78497500D01*
X120683462Y-78478096D01*
X120730913Y-78468658D01*
X120867495Y-78412084D01*
X120990416Y-78329951D01*
X121094951Y-78225416D01*
X121177084Y-78102495D01*
X121233658Y-77965913D01*
X121243096Y-77918462D01*
X121262500Y-77820920D01*
X121262500Y-77794471D01*
X122042237Y-77794471D01*
X122076338Y-77965899D01*
X122076339Y-77965904D01*
X122076344Y-77965919D01*
X122132908Y-78102481D01*
X122132913Y-78102490D01*
X122132923Y-78102507D01*
X122215049Y-78225417D01*
X122215050Y-78225418D01*
X122215055Y-78225424D01*
X122319574Y-78329943D01*
X122319580Y-78329948D01*
X122319584Y-78329951D01*
X122442498Y-78412080D01*
X122442511Y-78412087D01*
X122573487Y-78466338D01*
X122577910Y-78468430D01*
X122578638Y-78468571D01*
X122579382Y-78468717D01*
X122724077Y-78497500D01*
X122724079Y-78497500D01*
X122724082Y-78497500D01*
X122871920Y-78497500D01*
X122969462Y-78478096D01*
X123016913Y-78468658D01*
X123153495Y-78412084D01*
X123276416Y-78329951D01*
X123380951Y-78225416D01*
X123463084Y-78102495D01*
X123519658Y-77965913D01*
X123525035Y-77938876D01*
X123529096Y-77918465D01*
X123529096Y-77918462D01*
X123548500Y-77820920D01*
X123548500Y-77673079D01*
X123548500Y-77673076D01*
X123526280Y-77561372D01*
X123526276Y-77561357D01*
X123522121Y-77540471D01*
X178430237Y-77540471D01*
X178464338Y-77711899D01*
X178464344Y-77711919D01*
X178520908Y-77848481D01*
X178520913Y-77848490D01*
X178520923Y-77848507D01*
X178603049Y-77971417D01*
X178603050Y-77971418D01*
X178603055Y-77971424D01*
X178707574Y-78075943D01*
X178707580Y-78075948D01*
X178707584Y-78075951D01*
X178830498Y-78158080D01*
X178830511Y-78158087D01*
X178961487Y-78212338D01*
X178965910Y-78214430D01*
X178966638Y-78214571D01*
X178967382Y-78214717D01*
X179112077Y-78243500D01*
X179112079Y-78243500D01*
X179112082Y-78243500D01*
X179259920Y-78243500D01*
X179357462Y-78224096D01*
X179404913Y-78214658D01*
X179541495Y-78158084D01*
X179664416Y-78075951D01*
X179768951Y-77971416D01*
X179851084Y-77848495D01*
X179907658Y-77711913D01*
X179927792Y-77610695D01*
X179936500Y-77566920D01*
X179936500Y-77419079D01*
X179936500Y-77419078D01*
X179936500Y-77419076D01*
X179907419Y-77272884D01*
X179905332Y-77268472D01*
X179862079Y-77164048D01*
X179851092Y-77137524D01*
X179851089Y-77137517D01*
X179851087Y-77137511D01*
X179851080Y-77137498D01*
X179768951Y-77014584D01*
X179768948Y-77014580D01*
X179768943Y-77014574D01*
X179664424Y-76910055D01*
X179664418Y-76910050D01*
X179664417Y-76910049D01*
X179541507Y-76827923D01*
X179541506Y-76827922D01*
X179541501Y-76827919D01*
X179541488Y-76827912D01*
X179541481Y-76827908D01*
X179404919Y-76771344D01*
X179404920Y-76771344D01*
X179404917Y-76771343D01*
X179404907Y-76771340D01*
X179404905Y-76771339D01*
X179404900Y-76771338D01*
X179259922Y-76742500D01*
X179259920Y-76742500D01*
X179259918Y-76742500D01*
X179112082Y-76742500D01*
X179112080Y-76742500D01*
X179112078Y-76742500D01*
X178967096Y-76771338D01*
X178967079Y-76771344D01*
X178830517Y-76827908D01*
X178830508Y-76827913D01*
X178830491Y-76827923D01*
X178707581Y-76910049D01*
X178707580Y-76910050D01*
X178707574Y-76910055D01*
X178603055Y-77014574D01*
X178603050Y-77014580D01*
X178603049Y-77014581D01*
X178520923Y-77137491D01*
X178520913Y-77137508D01*
X178520908Y-77137517D01*
X178464344Y-77274079D01*
X178464338Y-77274098D01*
X178435500Y-77419076D01*
X178435500Y-77522551D01*
X178430237Y-77540471D01*
X123522121Y-77540471D01*
X123519659Y-77528092D01*
X123519658Y-77528091D01*
X123519658Y-77528087D01*
X123474506Y-77419079D01*
X123463087Y-77391511D01*
X123463080Y-77391498D01*
X123380951Y-77268584D01*
X123380948Y-77268580D01*
X123380943Y-77268574D01*
X123276424Y-77164055D01*
X123276418Y-77164050D01*
X123276415Y-77164048D01*
X123153507Y-77081923D01*
X123153506Y-77081922D01*
X123153501Y-77081919D01*
X123153488Y-77081912D01*
X123153481Y-77081908D01*
X123016919Y-77025344D01*
X123016920Y-77025344D01*
X123016917Y-77025343D01*
X123016907Y-77025340D01*
X123016905Y-77025339D01*
X123016900Y-77025338D01*
X122871922Y-76996500D01*
X122871920Y-76996500D01*
X122871918Y-76996500D01*
X122724082Y-76996500D01*
X122724080Y-76996500D01*
X122724078Y-76996500D01*
X122579096Y-77025338D01*
X122579079Y-77025344D01*
X122442517Y-77081908D01*
X122442508Y-77081913D01*
X122442491Y-77081923D01*
X122319584Y-77164048D01*
X122319580Y-77164050D01*
X122319574Y-77164055D01*
X122215055Y-77268574D01*
X122215050Y-77268580D01*
X122215049Y-77268581D01*
X122132923Y-77391491D01*
X122132913Y-77391508D01*
X122132908Y-77391517D01*
X122076344Y-77528079D01*
X122076338Y-77528098D01*
X122047500Y-77673076D01*
X122047500Y-77776551D01*
X122042237Y-77794471D01*
X121262500Y-77794471D01*
X121262500Y-77673079D01*
X121262500Y-77673076D01*
X121233419Y-77526884D01*
X121231332Y-77522472D01*
X121188506Y-77419079D01*
X121177087Y-77391511D01*
X121177080Y-77391498D01*
X121094951Y-77268584D01*
X121094948Y-77268580D01*
X121094943Y-77268574D01*
X120990424Y-77164055D01*
X120990418Y-77164050D01*
X120990415Y-77164048D01*
X120867507Y-77081923D01*
X120867506Y-77081922D01*
X120867501Y-77081919D01*
X120867488Y-77081912D01*
X120867481Y-77081908D01*
X120730919Y-77025344D01*
X120730920Y-77025344D01*
X120730917Y-77025343D01*
X120730907Y-77025340D01*
X120730905Y-77025339D01*
X120730900Y-77025338D01*
X120585922Y-76996500D01*
X120585920Y-76996500D01*
X120585918Y-76996500D01*
X120438082Y-76996500D01*
X120438080Y-76996500D01*
X120438078Y-76996500D01*
X120293096Y-77025338D01*
X120293079Y-77025344D01*
X120156517Y-77081908D01*
X120156508Y-77081913D01*
X120156491Y-77081923D01*
X120033584Y-77164048D01*
X120033580Y-77164050D01*
X120033574Y-77164055D01*
X119929055Y-77268574D01*
X119929050Y-77268580D01*
X119929049Y-77268581D01*
X119846923Y-77391491D01*
X119846913Y-77391508D01*
X119846908Y-77391517D01*
X119790344Y-77528079D01*
X119790338Y-77528098D01*
X119761500Y-77673076D01*
X119761500Y-77776551D01*
X119756237Y-77794471D01*
X106498081Y-77794471D01*
X106571232Y-77693788D01*
X106649873Y-77539445D01*
X106703402Y-77374701D01*
X106730500Y-77203611D01*
X106730500Y-77030389D01*
X106703402Y-76859299D01*
X106649873Y-76694555D01*
X106571232Y-76540212D01*
X106469414Y-76400072D01*
X106346928Y-76277586D01*
X106206788Y-76175768D01*
X106052449Y-76097128D01*
X105896532Y-76046467D01*
X105892010Y-76044614D01*
X105882820Y-76042444D01*
X105878057Y-76042070D01*
X105867513Y-76040400D01*
X105756271Y-76022781D01*
X105740407Y-76020268D01*
X105716614Y-76016500D01*
X105716611Y-76016500D01*
X105543389Y-76016500D01*
X105543388Y-76016500D01*
X105503726Y-76022781D01*
X105503725Y-76022780D01*
X105372304Y-76043596D01*
X105207549Y-76097129D01*
X105053210Y-76175768D01*
X104973256Y-76233859D01*
X104973255Y-76233859D01*
X104924941Y-76268961D01*
X104917564Y-76273092D01*
X104786092Y-76404564D01*
X104781961Y-76411941D01*
X104746859Y-76460255D01*
X104746859Y-76460256D01*
X104688768Y-76540210D01*
X104610129Y-76694549D01*
X104556596Y-76859305D01*
X104529500Y-77030383D01*
X102224000Y-77030383D01*
X102224000Y-74490383D01*
X104529500Y-74490383D01*
X104529500Y-74490389D01*
X104529500Y-74663611D01*
X104556598Y-74834701D01*
X104610127Y-74999445D01*
X104688768Y-75153788D01*
X104790586Y-75293928D01*
X104913072Y-75416414D01*
X105053212Y-75518232D01*
X105207555Y-75596873D01*
X105372299Y-75650402D01*
X105543389Y-75677500D01*
X105543390Y-75677500D01*
X105716610Y-75677500D01*
X105716611Y-75677500D01*
X105887701Y-75650402D01*
X106052445Y-75596873D01*
X106206788Y-75518232D01*
X106346928Y-75416414D01*
X106469414Y-75293928D01*
X106571232Y-75153788D01*
X106649873Y-74999445D01*
X106703402Y-74834701D01*
X106730500Y-74663611D01*
X106730500Y-74490389D01*
X106703402Y-74319299D01*
X106649873Y-74154555D01*
X106571232Y-74000212D01*
X106469414Y-73860072D01*
X106346928Y-73737586D01*
X106206788Y-73635768D01*
X106052449Y-73557128D01*
X105896532Y-73506467D01*
X105892010Y-73504614D01*
X105882820Y-73502444D01*
X105878057Y-73502070D01*
X105867513Y-73500400D01*
X105756271Y-73482781D01*
X105740407Y-73480268D01*
X105716614Y-73476500D01*
X105716611Y-73476500D01*
X105543389Y-73476500D01*
X105543388Y-73476500D01*
X105503726Y-73482781D01*
X105503725Y-73482780D01*
X105372304Y-73503596D01*
X105207549Y-73557129D01*
X105053210Y-73635768D01*
X104973256Y-73693859D01*
X104973255Y-73693859D01*
X104924941Y-73728961D01*
X104917564Y-73733092D01*
X104786092Y-73864564D01*
X104781961Y-73871941D01*
X104746859Y-73920255D01*
X104746859Y-73920256D01*
X104688768Y-74000210D01*
X104610129Y-74154549D01*
X104556596Y-74319305D01*
X104529500Y-74490383D01*
X102224000Y-74490383D01*
X102224000Y-71950389D01*
X104529500Y-71950389D01*
X104529500Y-71954937D01*
X104529500Y-72123610D01*
X104550343Y-72255212D01*
X104556598Y-72294701D01*
X104610127Y-72459445D01*
X104688768Y-72613788D01*
X104790586Y-72753928D01*
X104913072Y-72876414D01*
X105053212Y-72978232D01*
X105207555Y-73056873D01*
X105372299Y-73110402D01*
X105543389Y-73137500D01*
X105543390Y-73137500D01*
X105716610Y-73137500D01*
X105716611Y-73137500D01*
X105887701Y-73110402D01*
X106052445Y-73056873D01*
X106206788Y-72978232D01*
X106346928Y-72876414D01*
X106469414Y-72753928D01*
X106498081Y-72714471D01*
X135250237Y-72714471D01*
X135284338Y-72885899D01*
X135284344Y-72885919D01*
X135340908Y-73022481D01*
X135340913Y-73022490D01*
X135340923Y-73022507D01*
X135423049Y-73145417D01*
X135423050Y-73145418D01*
X135423055Y-73145424D01*
X135527574Y-73249943D01*
X135527580Y-73249948D01*
X135527584Y-73249951D01*
X135650498Y-73332080D01*
X135650511Y-73332087D01*
X135781487Y-73386338D01*
X135785910Y-73388430D01*
X135786638Y-73388571D01*
X135787382Y-73388717D01*
X135932077Y-73417500D01*
X135932079Y-73417500D01*
X135932082Y-73417500D01*
X136079920Y-73417500D01*
X136177462Y-73398096D01*
X136224913Y-73388658D01*
X136361495Y-73332084D01*
X136484416Y-73249951D01*
X136588951Y-73145416D01*
X136671084Y-73022495D01*
X136727658Y-72885913D01*
X136756500Y-72740918D01*
X136756500Y-72593082D01*
X136756500Y-72593079D01*
X136756500Y-72593076D01*
X136727717Y-72448382D01*
X136727571Y-72447638D01*
X136727430Y-72446910D01*
X136725338Y-72442487D01*
X136671087Y-72311511D01*
X136671080Y-72311498D01*
X136588951Y-72188584D01*
X136588948Y-72188580D01*
X136588943Y-72188574D01*
X136484424Y-72084055D01*
X136484418Y-72084050D01*
X136484417Y-72084049D01*
X136423604Y-72043415D01*
X136423602Y-72043413D01*
X136361517Y-72001929D01*
X136361502Y-72001920D01*
X136361501Y-72001919D01*
X136361488Y-72001912D01*
X136361481Y-72001908D01*
X136229385Y-71947193D01*
X172334237Y-71947193D01*
X172361462Y-72084055D01*
X172368340Y-72118629D01*
X172368343Y-72118639D01*
X172375973Y-72137060D01*
X172424908Y-72255203D01*
X172424913Y-72255212D01*
X172424923Y-72255229D01*
X172507049Y-72378139D01*
X172507050Y-72378140D01*
X172507055Y-72378146D01*
X172611574Y-72482665D01*
X172611580Y-72482670D01*
X172611584Y-72482673D01*
X172734498Y-72564802D01*
X172734511Y-72564809D01*
X172802769Y-72593082D01*
X172865475Y-72619055D01*
X172869885Y-72621141D01*
X173016076Y-72650222D01*
X173016079Y-72650222D01*
X173016082Y-72650222D01*
X173163920Y-72650222D01*
X173261462Y-72630818D01*
X173308913Y-72621380D01*
X173445495Y-72564806D01*
X173568416Y-72482673D01*
X173672951Y-72378138D01*
X173755084Y-72255217D01*
X173811658Y-72118635D01*
X173834875Y-72001919D01*
X173840500Y-71973642D01*
X173840500Y-71825801D01*
X173840500Y-71825798D01*
X173811419Y-71679607D01*
X173809332Y-71675194D01*
X173784215Y-71614555D01*
X173782600Y-71610656D01*
X173755087Y-71544233D01*
X173755080Y-71544220D01*
X173672951Y-71421306D01*
X173672948Y-71421302D01*
X173672943Y-71421296D01*
X173568424Y-71316777D01*
X173568418Y-71316772D01*
X173568417Y-71316771D01*
X173445507Y-71234645D01*
X173445506Y-71234644D01*
X173445501Y-71234641D01*
X173445488Y-71234634D01*
X173445481Y-71234630D01*
X173308919Y-71178066D01*
X173308920Y-71178066D01*
X173308917Y-71178065D01*
X173308907Y-71178062D01*
X173308905Y-71178061D01*
X173308900Y-71178060D01*
X173163922Y-71149222D01*
X173163920Y-71149222D01*
X173163918Y-71149222D01*
X173016082Y-71149222D01*
X173016080Y-71149222D01*
X173016078Y-71149222D01*
X172871096Y-71178060D01*
X172871079Y-71178066D01*
X172734517Y-71234630D01*
X172734508Y-71234635D01*
X172734491Y-71234645D01*
X172611581Y-71316771D01*
X172611580Y-71316772D01*
X172611574Y-71316777D01*
X172507055Y-71421296D01*
X172507050Y-71421302D01*
X172507049Y-71421303D01*
X172424923Y-71544213D01*
X172424913Y-71544230D01*
X172424908Y-71544239D01*
X172368344Y-71680801D01*
X172368338Y-71680820D01*
X172339500Y-71825798D01*
X172339500Y-71929273D01*
X172334237Y-71947193D01*
X136229385Y-71947193D01*
X136224916Y-71945342D01*
X136224910Y-71945341D01*
X136224907Y-71945340D01*
X136211522Y-71942677D01*
X136204737Y-71941328D01*
X136204737Y-71941327D01*
X136079922Y-71916500D01*
X136079920Y-71916500D01*
X136079918Y-71916500D01*
X135932082Y-71916500D01*
X135932080Y-71916500D01*
X135932078Y-71916500D01*
X135787096Y-71945338D01*
X135787079Y-71945344D01*
X135650517Y-72001908D01*
X135650508Y-72001913D01*
X135650491Y-72001923D01*
X135527581Y-72084049D01*
X135527580Y-72084050D01*
X135527574Y-72084055D01*
X135423055Y-72188574D01*
X135423050Y-72188580D01*
X135423049Y-72188581D01*
X135340923Y-72311491D01*
X135340913Y-72311508D01*
X135340908Y-72311517D01*
X135284344Y-72448079D01*
X135284338Y-72448098D01*
X135255500Y-72593076D01*
X135255500Y-72696551D01*
X135250237Y-72714471D01*
X106498081Y-72714471D01*
X106571232Y-72613788D01*
X106649873Y-72459445D01*
X106703402Y-72294701D01*
X106730500Y-72123611D01*
X106730500Y-71950389D01*
X106703402Y-71779299D01*
X106649873Y-71614555D01*
X106571232Y-71460212D01*
X106469414Y-71320072D01*
X106346928Y-71197586D01*
X106223510Y-71107917D01*
X106206786Y-71095766D01*
X106103938Y-71043363D01*
X106103932Y-71043360D01*
X106052445Y-71017127D01*
X105894164Y-70965698D01*
X105891798Y-70964822D01*
X105891291Y-70964444D01*
X105882820Y-70962444D01*
X105878057Y-70962070D01*
X105867513Y-70960400D01*
X105756271Y-70942781D01*
X105740407Y-70940268D01*
X105716614Y-70936500D01*
X105716611Y-70936500D01*
X105543389Y-70936500D01*
X105543388Y-70936500D01*
X105503726Y-70942781D01*
X105503725Y-70942780D01*
X105372304Y-70963596D01*
X105207549Y-71017129D01*
X105053211Y-71095767D01*
X105036490Y-71107917D01*
X104924943Y-71188961D01*
X104917562Y-71193094D01*
X104786093Y-71324563D01*
X104781962Y-71331940D01*
X104756187Y-71367417D01*
X104756186Y-71367419D01*
X104688768Y-71460210D01*
X104610129Y-71614547D01*
X104556596Y-71779301D01*
X104549299Y-71825375D01*
X104549273Y-71825544D01*
X104549232Y-71825804D01*
X104529500Y-71950389D01*
X102224000Y-71950389D01*
X102224000Y-70936471D01*
X132964237Y-70936471D01*
X132998338Y-71107899D01*
X132998343Y-71107917D01*
X133054908Y-71244481D01*
X133054913Y-71244490D01*
X133054923Y-71244507D01*
X133137049Y-71367417D01*
X133137055Y-71367424D01*
X133241574Y-71471943D01*
X133241580Y-71471948D01*
X133241584Y-71471951D01*
X133364498Y-71554080D01*
X133364511Y-71554087D01*
X133495487Y-71608338D01*
X133499910Y-71610430D01*
X133500638Y-71610571D01*
X133501382Y-71610717D01*
X133646077Y-71639500D01*
X133646079Y-71639500D01*
X133646082Y-71639500D01*
X133793920Y-71639500D01*
X133891462Y-71620096D01*
X133938913Y-71610658D01*
X134075495Y-71554084D01*
X134198416Y-71471951D01*
X134302951Y-71367416D01*
X134385084Y-71244495D01*
X134441658Y-71107913D01*
X134454498Y-71043363D01*
X134470500Y-70962920D01*
X134470500Y-70936471D01*
X158364237Y-70936471D01*
X158398338Y-71107899D01*
X158398343Y-71107917D01*
X158454908Y-71244481D01*
X158454913Y-71244490D01*
X158454923Y-71244507D01*
X158537049Y-71367417D01*
X158537055Y-71367424D01*
X158641574Y-71471943D01*
X158641580Y-71471948D01*
X158641584Y-71471951D01*
X158764498Y-71554080D01*
X158764511Y-71554087D01*
X158895487Y-71608338D01*
X158899910Y-71610430D01*
X158900638Y-71610571D01*
X158901382Y-71610717D01*
X159046077Y-71639500D01*
X159046079Y-71639500D01*
X159046082Y-71639500D01*
X159193920Y-71639500D01*
X159291462Y-71620096D01*
X159338913Y-71610658D01*
X159475495Y-71554084D01*
X159598416Y-71471951D01*
X159702951Y-71367416D01*
X159785084Y-71244495D01*
X159841658Y-71107913D01*
X159854498Y-71043363D01*
X159870500Y-70962920D01*
X159870500Y-70815076D01*
X159841419Y-70668885D01*
X159839332Y-70664472D01*
X159805572Y-70582967D01*
X159785087Y-70533511D01*
X159785080Y-70533498D01*
X159702951Y-70410584D01*
X159702948Y-70410580D01*
X159702943Y-70410574D01*
X159664049Y-70371680D01*
X177709499Y-70371680D01*
X177724028Y-70444717D01*
X177724032Y-70444735D01*
X177724033Y-70444739D01*
X177727480Y-70450826D01*
X177730816Y-70454891D01*
X177779399Y-70527601D01*
X177862256Y-70582964D01*
X177862258Y-70582965D01*
X177862259Y-70582965D01*
X177862260Y-70582966D01*
X177862264Y-70582967D01*
X177862279Y-70582970D01*
X177862288Y-70582972D01*
X177907021Y-70591869D01*
X177927681Y-70595979D01*
X177930415Y-70596703D01*
X177935323Y-70597500D01*
X179684676Y-70597500D01*
X179688796Y-70597500D01*
X179696648Y-70595117D01*
X179757740Y-70582966D01*
X179840601Y-70527601D01*
X179895966Y-70444740D01*
X179910500Y-70371674D01*
X179910500Y-68622326D01*
X179910500Y-68622323D01*
X179910500Y-68622139D01*
X179910064Y-68620134D01*
X179895972Y-68549289D01*
X179895967Y-68549266D01*
X179895967Y-68549264D01*
X179895966Y-68549260D01*
X179895965Y-68549258D01*
X179895964Y-68549256D01*
X179840601Y-68466399D01*
X179767891Y-68417816D01*
X179763826Y-68414480D01*
X179757739Y-68411033D01*
X179757735Y-68411032D01*
X179757709Y-68411026D01*
X179684680Y-68396500D01*
X179684677Y-68396500D01*
X179684674Y-68396500D01*
X177935326Y-68396500D01*
X177935323Y-68396500D01*
X177935319Y-68396500D01*
X177862285Y-68411027D01*
X177862262Y-68411032D01*
X177862258Y-68411033D01*
X177779399Y-68466399D01*
X177724033Y-68549258D01*
X177724032Y-68549266D01*
X177724028Y-68549281D01*
X177709500Y-68622318D01*
X177709500Y-68622321D01*
X177709500Y-70371678D01*
X177709500Y-70371680D01*
X177709499Y-70371680D01*
X159664049Y-70371680D01*
X159598424Y-70306055D01*
X159598418Y-70306050D01*
X159598417Y-70306049D01*
X159475507Y-70223923D01*
X159475506Y-70223922D01*
X159475501Y-70223919D01*
X159475488Y-70223912D01*
X159475481Y-70223908D01*
X159338919Y-70167344D01*
X159338920Y-70167344D01*
X159338917Y-70167343D01*
X159338907Y-70167340D01*
X159338905Y-70167339D01*
X159338900Y-70167338D01*
X159193922Y-70138500D01*
X159193920Y-70138500D01*
X159193918Y-70138500D01*
X159046082Y-70138500D01*
X159046080Y-70138500D01*
X159046078Y-70138500D01*
X158901096Y-70167338D01*
X158901079Y-70167344D01*
X158764517Y-70223908D01*
X158764508Y-70223913D01*
X158764491Y-70223923D01*
X158641581Y-70306049D01*
X158641580Y-70306050D01*
X158641574Y-70306055D01*
X158537055Y-70410574D01*
X158537050Y-70410580D01*
X158537049Y-70410581D01*
X158454923Y-70533491D01*
X158454913Y-70533508D01*
X158454908Y-70533517D01*
X158398344Y-70670079D01*
X158398338Y-70670098D01*
X158369500Y-70815076D01*
X158369500Y-70918551D01*
X158364237Y-70936471D01*
X134470500Y-70936471D01*
X134470500Y-70815076D01*
X134441419Y-70668885D01*
X134439332Y-70664472D01*
X134405572Y-70582967D01*
X134385087Y-70533511D01*
X134385080Y-70533498D01*
X134302951Y-70410584D01*
X134302948Y-70410580D01*
X134302943Y-70410574D01*
X134198424Y-70306055D01*
X134198418Y-70306050D01*
X134198417Y-70306049D01*
X134075507Y-70223923D01*
X134075506Y-70223922D01*
X134075501Y-70223919D01*
X134075488Y-70223912D01*
X134075481Y-70223908D01*
X133938919Y-70167344D01*
X133938920Y-70167344D01*
X133938917Y-70167343D01*
X133938907Y-70167340D01*
X133938905Y-70167339D01*
X133938900Y-70167338D01*
X133793922Y-70138500D01*
X133793920Y-70138500D01*
X133793918Y-70138500D01*
X133646082Y-70138500D01*
X133646080Y-70138500D01*
X133646078Y-70138500D01*
X133501096Y-70167338D01*
X133501079Y-70167344D01*
X133364517Y-70223908D01*
X133364508Y-70223913D01*
X133364491Y-70223923D01*
X133241581Y-70306049D01*
X133241580Y-70306050D01*
X133241574Y-70306055D01*
X133137055Y-70410574D01*
X133137050Y-70410580D01*
X133137049Y-70410581D01*
X133054923Y-70533491D01*
X133054913Y-70533508D01*
X133054908Y-70533517D01*
X132998344Y-70670079D01*
X132998338Y-70670098D01*
X132969500Y-70815076D01*
X132969500Y-70918551D01*
X132964237Y-70936471D01*
X102224000Y-70936471D01*
X102224000Y-69410383D01*
X104529500Y-69410383D01*
X104529500Y-69410389D01*
X104529500Y-69583611D01*
X104556598Y-69754701D01*
X104610127Y-69919445D01*
X104688768Y-70073788D01*
X104790586Y-70213928D01*
X104913072Y-70336414D01*
X105053212Y-70438232D01*
X105207555Y-70516873D01*
X105372299Y-70570402D01*
X105543389Y-70597500D01*
X105543390Y-70597500D01*
X105716610Y-70597500D01*
X105716611Y-70597500D01*
X105887701Y-70570402D01*
X106052445Y-70516873D01*
X106206788Y-70438232D01*
X106346928Y-70336414D01*
X106469414Y-70213928D01*
X106571232Y-70073788D01*
X106649873Y-69919445D01*
X106703402Y-69754701D01*
X106730500Y-69583611D01*
X106730500Y-69410389D01*
X106703402Y-69239299D01*
X106649873Y-69074555D01*
X106571232Y-68920212D01*
X106469414Y-68780072D01*
X106346928Y-68657586D01*
X106206788Y-68555768D01*
X106194072Y-68549289D01*
X106052449Y-68477128D01*
X105896532Y-68426467D01*
X105892010Y-68424614D01*
X105882820Y-68422444D01*
X105878057Y-68422070D01*
X105851198Y-68417816D01*
X105756271Y-68402781D01*
X105740407Y-68400268D01*
X105716614Y-68396500D01*
X105716611Y-68396500D01*
X105543389Y-68396500D01*
X105543388Y-68396500D01*
X105503726Y-68402781D01*
X105503725Y-68402780D01*
X105372304Y-68423596D01*
X105207549Y-68477129D01*
X105053210Y-68555768D01*
X104973256Y-68613859D01*
X104973255Y-68613859D01*
X104924941Y-68648961D01*
X104917564Y-68653092D01*
X104786092Y-68784564D01*
X104781961Y-68791941D01*
X104746859Y-68840255D01*
X104746859Y-68840256D01*
X104688768Y-68920210D01*
X104610129Y-69074549D01*
X104556596Y-69239305D01*
X104529500Y-69410383D01*
X102224000Y-69410383D01*
X102224000Y-66870389D01*
X104529500Y-66870389D01*
X104529500Y-67043611D01*
X104556598Y-67214701D01*
X104610127Y-67379445D01*
X104688768Y-67533788D01*
X104790586Y-67673928D01*
X104913072Y-67796414D01*
X105053212Y-67898232D01*
X105207555Y-67976873D01*
X105372299Y-68030402D01*
X105543389Y-68057500D01*
X105543390Y-68057500D01*
X105716610Y-68057500D01*
X105716611Y-68057500D01*
X105887701Y-68030402D01*
X106052445Y-67976873D01*
X106206788Y-67898232D01*
X106346928Y-67796414D01*
X106469414Y-67673928D01*
X106571232Y-67533788D01*
X106608512Y-67460622D01*
X115819499Y-67460622D01*
X115856021Y-67644225D01*
X115856027Y-67644252D01*
X115927672Y-67817222D01*
X115927677Y-67817232D01*
X116031698Y-67972909D01*
X116031699Y-67972910D01*
X116031704Y-67972916D01*
X116164082Y-68105294D01*
X116164088Y-68105299D01*
X116164089Y-68105300D01*
X116319761Y-68209318D01*
X116319766Y-68209320D01*
X116319768Y-68209321D01*
X116319769Y-68209322D01*
X116492749Y-68280973D01*
X116664389Y-68315114D01*
X116673408Y-68316908D01*
X116675643Y-68317409D01*
X116676381Y-68317500D01*
X116863617Y-68317500D01*
X116867737Y-68317500D01*
X116875586Y-68315118D01*
X117047251Y-68280973D01*
X117220231Y-68209322D01*
X117375908Y-68105302D01*
X117508302Y-67972908D01*
X117612322Y-67817231D01*
X117683973Y-67644251D01*
X117720500Y-67460616D01*
X117720500Y-67273384D01*
X117683973Y-67089749D01*
X117612322Y-66916769D01*
X117612321Y-66916768D01*
X117612318Y-66916762D01*
X117612318Y-66916761D01*
X117508300Y-66761089D01*
X117508299Y-66761088D01*
X117508294Y-66761082D01*
X117375916Y-66628704D01*
X117375910Y-66628699D01*
X117375909Y-66628698D01*
X117220231Y-66524677D01*
X117220232Y-66524677D01*
X117220222Y-66524672D01*
X117047252Y-66453027D01*
X117047225Y-66453021D01*
X116863622Y-66416500D01*
X116863620Y-66416500D01*
X116863616Y-66416500D01*
X116676384Y-66416500D01*
X116676379Y-66416500D01*
X116676377Y-66416500D01*
X116492773Y-66453021D01*
X116492746Y-66453027D01*
X116319776Y-66524672D01*
X116319766Y-66524677D01*
X116164089Y-66628698D01*
X116164088Y-66628699D01*
X116164082Y-66628704D01*
X116031704Y-66761082D01*
X116031699Y-66761088D01*
X116031698Y-66761089D01*
X115927677Y-66916766D01*
X115927672Y-66916776D01*
X115856027Y-67089746D01*
X115856021Y-67089773D01*
X115819500Y-67273376D01*
X115819500Y-67273379D01*
X115819500Y-67460620D01*
X115819500Y-67460622D01*
X115819499Y-67460622D01*
X106608512Y-67460622D01*
X106649873Y-67379445D01*
X106703402Y-67214701D01*
X106730500Y-67043611D01*
X106730500Y-66870389D01*
X106703402Y-66699299D01*
X106649873Y-66534555D01*
X106571232Y-66380212D01*
X106469414Y-66240072D01*
X106385964Y-66156622D01*
X155629499Y-66156622D01*
X155666021Y-66340225D01*
X155666027Y-66340252D01*
X155737672Y-66513222D01*
X155737677Y-66513232D01*
X155841698Y-66668909D01*
X155841699Y-66668910D01*
X155841704Y-66668916D01*
X155974085Y-66801297D01*
X155974089Y-66801300D01*
X156129761Y-66905318D01*
X156129766Y-66905320D01*
X156129768Y-66905321D01*
X156129769Y-66905322D01*
X156302749Y-66976973D01*
X156474389Y-67011114D01*
X156483408Y-67012908D01*
X156485643Y-67013409D01*
X156486381Y-67013500D01*
X156673617Y-67013500D01*
X156677737Y-67013500D01*
X156685586Y-67011118D01*
X156857251Y-66976973D01*
X157030231Y-66905322D01*
X157082512Y-66870389D01*
X177709500Y-66870389D01*
X177709500Y-67043611D01*
X177736598Y-67214701D01*
X177790127Y-67379445D01*
X177868768Y-67533788D01*
X177970586Y-67673928D01*
X178093072Y-67796414D01*
X178233212Y-67898232D01*
X178387555Y-67976873D01*
X178552299Y-68030402D01*
X178723389Y-68057500D01*
X178723390Y-68057500D01*
X178896610Y-68057500D01*
X178896611Y-68057500D01*
X179067701Y-68030402D01*
X179232445Y-67976873D01*
X179386788Y-67898232D01*
X179526928Y-67796414D01*
X179649414Y-67673928D01*
X179751232Y-67533788D01*
X179829873Y-67379445D01*
X179883402Y-67214701D01*
X179910500Y-67043611D01*
X179910500Y-66870389D01*
X179883402Y-66699299D01*
X179829873Y-66534555D01*
X179751232Y-66380212D01*
X179649414Y-66240072D01*
X179526928Y-66117586D01*
X179386788Y-66015768D01*
X179338545Y-65991187D01*
X179338545Y-65991186D01*
X179249945Y-65946043D01*
X179244606Y-65942164D01*
X179220287Y-65932090D01*
X179213767Y-65931058D01*
X179163648Y-65914773D01*
X179076532Y-65886467D01*
X179072010Y-65884614D01*
X179062820Y-65882444D01*
X179058057Y-65882070D01*
X179047513Y-65880400D01*
X178936271Y-65862781D01*
X178920407Y-65860268D01*
X178896614Y-65856500D01*
X178896611Y-65856500D01*
X178723389Y-65856500D01*
X178723388Y-65856500D01*
X178683726Y-65862781D01*
X178683725Y-65862780D01*
X178552304Y-65883596D01*
X178387549Y-65937129D01*
X178233211Y-66015767D01*
X178196351Y-66042549D01*
X178104943Y-66108961D01*
X178097562Y-66113094D01*
X177966092Y-66244564D01*
X177961961Y-66251941D01*
X177926859Y-66300255D01*
X177926859Y-66300256D01*
X177868768Y-66380210D01*
X177790129Y-66534547D01*
X177736598Y-66699297D01*
X177736596Y-66699303D01*
X177726810Y-66761091D01*
X177726811Y-66761092D01*
X177709500Y-66870389D01*
X157082512Y-66870389D01*
X157185908Y-66801302D01*
X157185911Y-66801299D01*
X157209375Y-66777836D01*
X157318299Y-66668911D01*
X157318302Y-66668908D01*
X157422322Y-66513231D01*
X157493973Y-66340251D01*
X157530500Y-66156616D01*
X157530500Y-65969384D01*
X157493973Y-65785749D01*
X157422322Y-65612769D01*
X157422321Y-65612768D01*
X157422318Y-65612762D01*
X157422318Y-65612761D01*
X157318300Y-65457089D01*
X157318299Y-65457088D01*
X157318294Y-65457082D01*
X157185916Y-65324704D01*
X157185910Y-65324699D01*
X157185909Y-65324698D01*
X157030231Y-65220677D01*
X157030232Y-65220677D01*
X157030222Y-65220672D01*
X156857252Y-65149027D01*
X156857225Y-65149021D01*
X156673622Y-65112500D01*
X156673620Y-65112500D01*
X156673616Y-65112500D01*
X156486384Y-65112500D01*
X156486379Y-65112500D01*
X156486377Y-65112500D01*
X156302773Y-65149021D01*
X156302746Y-65149027D01*
X156129776Y-65220672D01*
X156129766Y-65220677D01*
X155974089Y-65324698D01*
X155974088Y-65324699D01*
X155974082Y-65324704D01*
X155841704Y-65457082D01*
X155841699Y-65457088D01*
X155841698Y-65457089D01*
X155737677Y-65612766D01*
X155737672Y-65612776D01*
X155666027Y-65785746D01*
X155666021Y-65785773D01*
X155629500Y-65969376D01*
X155629500Y-65969379D01*
X155629500Y-66156620D01*
X155629500Y-66156622D01*
X155629499Y-66156622D01*
X106385964Y-66156622D01*
X106346928Y-66117586D01*
X106206788Y-66015768D01*
X106158545Y-65991187D01*
X106158545Y-65991186D01*
X106069945Y-65946043D01*
X106064606Y-65942164D01*
X106040287Y-65932090D01*
X106033767Y-65931058D01*
X105983648Y-65914773D01*
X105896532Y-65886467D01*
X105892010Y-65884614D01*
X105882820Y-65882444D01*
X105878057Y-65882070D01*
X105867513Y-65880400D01*
X105756271Y-65862781D01*
X105740407Y-65860268D01*
X105716614Y-65856500D01*
X105716611Y-65856500D01*
X105543389Y-65856500D01*
X105543388Y-65856500D01*
X105503726Y-65862781D01*
X105503725Y-65862780D01*
X105372304Y-65883596D01*
X105207549Y-65937129D01*
X105053211Y-66015767D01*
X105016351Y-66042549D01*
X104924943Y-66108961D01*
X104917562Y-66113094D01*
X104786092Y-66244564D01*
X104781961Y-66251941D01*
X104746859Y-66300255D01*
X104746859Y-66300256D01*
X104688768Y-66380210D01*
X104610129Y-66534547D01*
X104556598Y-66699297D01*
X104556596Y-66699303D01*
X104546810Y-66761091D01*
X104546811Y-66761092D01*
X104529500Y-66870389D01*
X102224000Y-66870389D01*
X102224000Y-64330383D01*
X104529500Y-64330383D01*
X104529500Y-64503614D01*
X104553715Y-64656503D01*
X104556595Y-64674692D01*
X104556597Y-64674697D01*
X104556598Y-64674701D01*
X104610127Y-64839445D01*
X104688768Y-64993788D01*
X104790586Y-65133928D01*
X104913072Y-65256414D01*
X105053212Y-65358232D01*
X105207555Y-65436873D01*
X105372299Y-65490402D01*
X105543389Y-65517500D01*
X105543390Y-65517500D01*
X105716610Y-65517500D01*
X105716611Y-65517500D01*
X105887701Y-65490402D01*
X106052445Y-65436873D01*
X106206788Y-65358232D01*
X106346928Y-65256414D01*
X106469414Y-65133928D01*
X106571232Y-64993788D01*
X106649873Y-64839445D01*
X106703402Y-64674701D01*
X106730500Y-64503611D01*
X106730500Y-64330389D01*
X106703402Y-64159299D01*
X106649873Y-63994555D01*
X106571769Y-63841265D01*
X106571233Y-63840213D01*
X106552640Y-63814622D01*
X126714237Y-63814622D01*
X126744494Y-63966726D01*
X126744495Y-63966732D01*
X126744502Y-63966753D01*
X126793529Y-64085118D01*
X126793534Y-64085128D01*
X126864724Y-64191670D01*
X126864725Y-64191671D01*
X126864730Y-64191677D01*
X126955321Y-64282268D01*
X126955327Y-64282273D01*
X126955328Y-64282274D01*
X127061869Y-64353463D01*
X127061872Y-64353464D01*
X127061873Y-64353465D01*
X127174651Y-64400179D01*
X127179053Y-64402261D01*
X127180252Y-64402499D01*
X127180256Y-64402501D01*
X127180259Y-64402501D01*
X127180260Y-64402501D01*
X127180261Y-64402502D01*
X127277899Y-64421924D01*
X127305927Y-64427500D01*
X127434071Y-64427500D01*
X127434073Y-64427500D01*
X127518615Y-64410682D01*
X127559744Y-64402501D01*
X127678127Y-64353465D01*
X127784669Y-64282276D01*
X127875276Y-64191669D01*
X127946465Y-64085127D01*
X127995501Y-63966744D01*
X128003682Y-63925615D01*
X128020500Y-63841071D01*
X128020500Y-63814622D01*
X128492237Y-63814622D01*
X128522494Y-63966726D01*
X128522495Y-63966732D01*
X128522502Y-63966753D01*
X128571529Y-64085118D01*
X128571534Y-64085128D01*
X128642724Y-64191670D01*
X128642725Y-64191671D01*
X128642730Y-64191677D01*
X128733321Y-64282268D01*
X128733327Y-64282273D01*
X128733328Y-64282274D01*
X128839869Y-64353463D01*
X128839872Y-64353464D01*
X128839873Y-64353465D01*
X128952651Y-64400179D01*
X128957053Y-64402261D01*
X128958252Y-64402499D01*
X128958256Y-64402501D01*
X128958259Y-64402501D01*
X128958260Y-64402501D01*
X128958261Y-64402502D01*
X129055899Y-64421924D01*
X129083927Y-64427500D01*
X129212071Y-64427500D01*
X129212073Y-64427500D01*
X129296615Y-64410682D01*
X129337744Y-64402501D01*
X129456127Y-64353465D01*
X129562669Y-64282276D01*
X129653276Y-64191669D01*
X129724465Y-64085127D01*
X129731302Y-64068622D01*
X145510237Y-64068622D01*
X145540494Y-64220726D01*
X145540495Y-64220732D01*
X145540502Y-64220753D01*
X145589529Y-64339118D01*
X145589534Y-64339128D01*
X145660724Y-64445670D01*
X145660725Y-64445671D01*
X145660730Y-64445677D01*
X145751321Y-64536268D01*
X145751327Y-64536273D01*
X145751328Y-64536274D01*
X145857869Y-64607463D01*
X145857872Y-64607464D01*
X145857873Y-64607465D01*
X145970651Y-64654179D01*
X145975053Y-64656261D01*
X145976252Y-64656499D01*
X145976256Y-64656501D01*
X145976259Y-64656501D01*
X145976260Y-64656501D01*
X145976261Y-64656502D01*
X146067704Y-64674692D01*
X146101927Y-64681500D01*
X146230071Y-64681500D01*
X146230073Y-64681500D01*
X146314615Y-64664682D01*
X146355744Y-64656501D01*
X146474127Y-64607465D01*
X146580669Y-64536276D01*
X146671276Y-64445669D01*
X146716075Y-64378622D01*
X157827499Y-64378622D01*
X157864021Y-64562225D01*
X157864027Y-64562252D01*
X157935672Y-64735222D01*
X157935677Y-64735232D01*
X158039698Y-64890909D01*
X158039699Y-64890910D01*
X158039704Y-64890916D01*
X158172082Y-65023294D01*
X158172088Y-65023299D01*
X158172092Y-65023302D01*
X158327762Y-65127318D01*
X158327767Y-65127321D01*
X158327766Y-65127321D01*
X158327769Y-65127322D01*
X158327771Y-65127323D01*
X158343716Y-65133927D01*
X158343721Y-65133931D01*
X158343722Y-65133930D01*
X158500749Y-65198973D01*
X158672389Y-65233114D01*
X158681408Y-65234908D01*
X158683643Y-65235409D01*
X158684381Y-65235500D01*
X158871617Y-65235500D01*
X158875737Y-65235500D01*
X158883586Y-65233118D01*
X159055251Y-65198973D01*
X159228231Y-65127322D01*
X159383908Y-65023302D01*
X159516302Y-64890908D01*
X159620322Y-64735231D01*
X159691973Y-64562251D01*
X159728500Y-64378616D01*
X159728500Y-64330383D01*
X177709500Y-64330383D01*
X177709500Y-64503614D01*
X177733715Y-64656503D01*
X177736595Y-64674692D01*
X177736597Y-64674697D01*
X177736598Y-64674701D01*
X177790127Y-64839445D01*
X177868768Y-64993788D01*
X177970586Y-65133928D01*
X178093072Y-65256414D01*
X178233212Y-65358232D01*
X178387555Y-65436873D01*
X178552299Y-65490402D01*
X178723389Y-65517500D01*
X178723390Y-65517500D01*
X178896610Y-65517500D01*
X178896611Y-65517500D01*
X179067701Y-65490402D01*
X179232445Y-65436873D01*
X179386788Y-65358232D01*
X179526928Y-65256414D01*
X179649414Y-65133928D01*
X179751232Y-64993788D01*
X179829873Y-64839445D01*
X179883402Y-64674701D01*
X179910500Y-64503611D01*
X179910500Y-64330389D01*
X179883402Y-64159299D01*
X179829873Y-63994555D01*
X179751232Y-63840212D01*
X179649414Y-63700072D01*
X179526928Y-63577586D01*
X179386788Y-63475768D01*
X179386786Y-63475767D01*
X179232449Y-63397128D01*
X179076532Y-63346467D01*
X179072010Y-63344614D01*
X179062820Y-63342444D01*
X179058057Y-63342070D01*
X179047513Y-63340400D01*
X178936271Y-63322781D01*
X178920407Y-63320268D01*
X178896614Y-63316500D01*
X178896611Y-63316500D01*
X178723389Y-63316500D01*
X178723388Y-63316500D01*
X178683726Y-63322781D01*
X178683725Y-63322780D01*
X178552304Y-63343596D01*
X178387549Y-63397129D01*
X178233211Y-63475767D01*
X178216490Y-63487917D01*
X178104943Y-63568961D01*
X178097562Y-63573094D01*
X177966093Y-63704563D01*
X177961962Y-63711940D01*
X177936187Y-63747417D01*
X177936186Y-63747419D01*
X177868768Y-63840210D01*
X177790129Y-63994549D01*
X177736596Y-64159305D01*
X177709500Y-64330383D01*
X159728500Y-64330383D01*
X159728500Y-64191384D01*
X159691973Y-64007749D01*
X159623009Y-63841255D01*
X159622577Y-63840213D01*
X159620323Y-63834771D01*
X159620320Y-63834765D01*
X159516300Y-63679089D01*
X159516299Y-63679088D01*
X159516294Y-63679082D01*
X159383916Y-63546704D01*
X159383910Y-63546699D01*
X159383909Y-63546698D01*
X159228231Y-63442677D01*
X159228232Y-63442677D01*
X159228222Y-63442672D01*
X159055252Y-63371027D01*
X159055225Y-63371021D01*
X158871622Y-63334500D01*
X158871620Y-63334500D01*
X158871616Y-63334500D01*
X158684384Y-63334500D01*
X158684379Y-63334500D01*
X158684377Y-63334500D01*
X158500773Y-63371021D01*
X158500746Y-63371027D01*
X158327776Y-63442672D01*
X158327766Y-63442677D01*
X158172089Y-63546698D01*
X158172088Y-63546699D01*
X158172082Y-63546704D01*
X158039704Y-63679082D01*
X158039699Y-63679088D01*
X158039698Y-63679089D01*
X157935677Y-63834766D01*
X157935672Y-63834776D01*
X157864027Y-64007746D01*
X157864021Y-64007773D01*
X157827500Y-64191376D01*
X157827500Y-64191379D01*
X157827500Y-64378620D01*
X157827500Y-64378622D01*
X157827499Y-64378622D01*
X146716075Y-64378622D01*
X146742465Y-64339127D01*
X146791501Y-64220744D01*
X146795332Y-64201480D01*
X146799163Y-64182225D01*
X146799164Y-64182218D01*
X146803368Y-64161089D01*
X146803368Y-64161087D01*
X146803369Y-64161086D01*
X146804551Y-64155143D01*
X146804555Y-64155118D01*
X146816064Y-64097259D01*
X146816500Y-64095252D01*
X146816500Y-63966925D01*
X146791262Y-63840055D01*
X146789176Y-63835644D01*
X146788816Y-63834776D01*
X146742465Y-63722873D01*
X146742464Y-63722872D01*
X146742463Y-63722870D01*
X146742463Y-63722869D01*
X146671274Y-63616328D01*
X146671273Y-63616327D01*
X146671268Y-63616321D01*
X146580677Y-63525730D01*
X146580671Y-63525725D01*
X146580670Y-63525724D01*
X146474127Y-63454534D01*
X146474128Y-63454534D01*
X146474118Y-63454529D01*
X146355753Y-63405502D01*
X146355733Y-63405495D01*
X146355725Y-63405493D01*
X146230074Y-63380500D01*
X146230071Y-63380500D01*
X146230069Y-63380500D01*
X146101931Y-63380500D01*
X146101929Y-63380500D01*
X146101926Y-63380500D01*
X145976273Y-63405493D01*
X145976265Y-63405495D01*
X145976245Y-63405502D01*
X145857880Y-63454529D01*
X145857870Y-63454534D01*
X145751328Y-63525724D01*
X145751327Y-63525725D01*
X145751321Y-63525730D01*
X145660730Y-63616321D01*
X145660725Y-63616327D01*
X145660724Y-63616328D01*
X145589534Y-63722870D01*
X145589529Y-63722880D01*
X145540502Y-63841245D01*
X145540495Y-63841265D01*
X145540493Y-63841273D01*
X145515500Y-63966923D01*
X145515500Y-64050702D01*
X145510237Y-64068622D01*
X129731302Y-64068622D01*
X129773501Y-63966744D01*
X129779998Y-63934084D01*
X129798460Y-63841273D01*
X129798500Y-63841073D01*
X129798500Y-63712925D01*
X129773262Y-63586055D01*
X129771176Y-63581644D01*
X129769495Y-63577586D01*
X129724465Y-63468873D01*
X129724464Y-63468872D01*
X129724463Y-63468870D01*
X129724463Y-63468869D01*
X129653274Y-63362328D01*
X129653273Y-63362327D01*
X129653268Y-63362321D01*
X129562677Y-63271730D01*
X129562671Y-63271725D01*
X129562670Y-63271724D01*
X129456127Y-63200534D01*
X129456128Y-63200534D01*
X129456118Y-63200529D01*
X129337753Y-63151502D01*
X129337733Y-63151495D01*
X129337725Y-63151493D01*
X129212074Y-63126500D01*
X129212071Y-63126500D01*
X129212069Y-63126500D01*
X129083931Y-63126500D01*
X129083929Y-63126500D01*
X129083926Y-63126500D01*
X128958273Y-63151493D01*
X128958265Y-63151495D01*
X128958245Y-63151502D01*
X128839880Y-63200529D01*
X128839870Y-63200534D01*
X128733328Y-63271724D01*
X128733327Y-63271725D01*
X128733321Y-63271730D01*
X128642730Y-63362321D01*
X128642725Y-63362327D01*
X128642724Y-63362328D01*
X128571534Y-63468870D01*
X128571529Y-63468880D01*
X128522502Y-63587245D01*
X128522495Y-63587265D01*
X128522493Y-63587273D01*
X128497500Y-63712923D01*
X128497500Y-63796702D01*
X128492237Y-63814622D01*
X128020500Y-63814622D01*
X128020500Y-63712928D01*
X128020500Y-63712925D01*
X127995262Y-63586055D01*
X127993176Y-63581644D01*
X127991495Y-63577586D01*
X127946465Y-63468873D01*
X127946464Y-63468872D01*
X127946463Y-63468870D01*
X127946463Y-63468869D01*
X127875274Y-63362328D01*
X127875273Y-63362327D01*
X127875268Y-63362321D01*
X127784677Y-63271730D01*
X127784671Y-63271725D01*
X127784670Y-63271724D01*
X127678127Y-63200534D01*
X127678128Y-63200534D01*
X127678118Y-63200529D01*
X127559753Y-63151502D01*
X127559733Y-63151495D01*
X127559725Y-63151493D01*
X127434074Y-63126500D01*
X127434071Y-63126500D01*
X127434069Y-63126500D01*
X127305931Y-63126500D01*
X127305929Y-63126500D01*
X127305926Y-63126500D01*
X127180273Y-63151493D01*
X127180265Y-63151495D01*
X127180245Y-63151502D01*
X127061880Y-63200529D01*
X127061870Y-63200534D01*
X126955328Y-63271724D01*
X126955327Y-63271725D01*
X126955321Y-63271730D01*
X126864730Y-63362321D01*
X126864725Y-63362327D01*
X126864724Y-63362328D01*
X126793534Y-63468870D01*
X126793529Y-63468880D01*
X126744502Y-63587245D01*
X126744495Y-63587265D01*
X126744493Y-63587273D01*
X126719500Y-63712923D01*
X126719500Y-63796702D01*
X126714237Y-63814622D01*
X106552640Y-63814622D01*
X106539620Y-63796702D01*
X106469414Y-63700072D01*
X106346928Y-63577586D01*
X106206788Y-63475768D01*
X106206786Y-63475767D01*
X106052449Y-63397128D01*
X105896532Y-63346467D01*
X105892010Y-63344614D01*
X105882820Y-63342444D01*
X105878057Y-63342070D01*
X105867513Y-63340400D01*
X105756271Y-63322781D01*
X105740407Y-63320268D01*
X105716614Y-63316500D01*
X105716611Y-63316500D01*
X105543389Y-63316500D01*
X105543388Y-63316500D01*
X105503726Y-63322781D01*
X105503725Y-63322780D01*
X105372304Y-63343596D01*
X105207549Y-63397129D01*
X105053211Y-63475767D01*
X105036490Y-63487917D01*
X104924943Y-63568961D01*
X104917562Y-63573094D01*
X104786093Y-63704563D01*
X104781962Y-63711940D01*
X104756187Y-63747417D01*
X104756186Y-63747419D01*
X104688768Y-63840210D01*
X104610129Y-63994549D01*
X104556596Y-64159305D01*
X104529500Y-64330383D01*
X102224000Y-64330383D01*
X102224000Y-61790389D01*
X104529500Y-61790389D01*
X104529500Y-61963611D01*
X104536808Y-62009749D01*
X104546646Y-62071870D01*
X104556598Y-62134701D01*
X104610127Y-62299445D01*
X104688768Y-62453788D01*
X104790586Y-62593928D01*
X104913072Y-62716414D01*
X105053212Y-62818232D01*
X105207555Y-62896873D01*
X105372299Y-62950402D01*
X105543389Y-62977500D01*
X105543390Y-62977500D01*
X105716610Y-62977500D01*
X105716611Y-62977500D01*
X105887701Y-62950402D01*
X106052445Y-62896873D01*
X106206788Y-62818232D01*
X106346928Y-62716414D01*
X106469414Y-62593928D01*
X106571232Y-62453788D01*
X106608512Y-62380622D01*
X115819499Y-62380622D01*
X115856021Y-62564225D01*
X115856027Y-62564252D01*
X115927672Y-62737222D01*
X115927677Y-62737232D01*
X116031698Y-62892909D01*
X116031699Y-62892910D01*
X116031704Y-62892916D01*
X116164082Y-63025294D01*
X116164088Y-63025299D01*
X116164089Y-63025300D01*
X116319761Y-63129318D01*
X116319766Y-63129320D01*
X116319768Y-63129321D01*
X116319769Y-63129322D01*
X116492749Y-63200973D01*
X116664389Y-63235114D01*
X116673408Y-63236908D01*
X116675643Y-63237409D01*
X116676381Y-63237500D01*
X116863617Y-63237500D01*
X116867737Y-63237500D01*
X116875586Y-63235118D01*
X117047251Y-63200973D01*
X117220231Y-63129322D01*
X117375908Y-63025302D01*
X117508302Y-62892908D01*
X117612322Y-62737231D01*
X117683973Y-62564251D01*
X117713139Y-62417622D01*
X151606237Y-62417622D01*
X151636494Y-62569726D01*
X151636495Y-62569732D01*
X151636502Y-62569753D01*
X151685529Y-62688118D01*
X151685534Y-62688128D01*
X151756724Y-62794670D01*
X151756725Y-62794671D01*
X151756730Y-62794677D01*
X151847321Y-62885268D01*
X151847327Y-62885273D01*
X151847328Y-62885274D01*
X151953869Y-62956463D01*
X151953872Y-62956464D01*
X151953873Y-62956465D01*
X152066651Y-63003179D01*
X152071055Y-63005262D01*
X152197926Y-63030500D01*
X152326071Y-63030500D01*
X152326073Y-63030500D01*
X152410615Y-63013682D01*
X152451744Y-63005501D01*
X152570127Y-62956465D01*
X152676669Y-62885276D01*
X152767276Y-62794669D01*
X152838465Y-62688127D01*
X152887501Y-62569744D01*
X152912500Y-62444069D01*
X152912500Y-62315931D01*
X152912500Y-62315928D01*
X152912500Y-62315925D01*
X152887262Y-62189055D01*
X152885176Y-62184644D01*
X152870398Y-62148968D01*
X152838465Y-62071873D01*
X152838464Y-62071872D01*
X152838463Y-62071870D01*
X152838463Y-62071869D01*
X152767274Y-61965328D01*
X152767273Y-61965327D01*
X152767268Y-61965321D01*
X152676677Y-61874730D01*
X152676671Y-61874725D01*
X152676670Y-61874724D01*
X152570127Y-61803534D01*
X152570128Y-61803534D01*
X152570118Y-61803529D01*
X152451753Y-61754502D01*
X152451733Y-61754495D01*
X152451725Y-61754493D01*
X152326074Y-61729500D01*
X152326071Y-61729500D01*
X152326069Y-61729500D01*
X152197931Y-61729500D01*
X152197929Y-61729500D01*
X152197926Y-61729500D01*
X152072273Y-61754493D01*
X152072265Y-61754495D01*
X152072245Y-61754502D01*
X151953880Y-61803529D01*
X151953870Y-61803534D01*
X151847328Y-61874724D01*
X151847327Y-61874725D01*
X151847321Y-61874730D01*
X151756730Y-61965321D01*
X151756725Y-61965327D01*
X151756724Y-61965328D01*
X151685534Y-62071870D01*
X151685529Y-62071880D01*
X151636502Y-62190245D01*
X151636495Y-62190265D01*
X151636493Y-62190273D01*
X151611500Y-62315923D01*
X151611500Y-62399702D01*
X151606237Y-62417622D01*
X117713139Y-62417622D01*
X117716704Y-62399702D01*
X117719320Y-62386551D01*
X117720499Y-62380620D01*
X117720500Y-62380617D01*
X117720500Y-62193383D01*
X117720499Y-62193379D01*
X117719639Y-62189055D01*
X117683973Y-62009749D01*
X117612322Y-61836769D01*
X117612321Y-61836768D01*
X117612318Y-61836762D01*
X117612318Y-61836761D01*
X117508300Y-61681089D01*
X117508299Y-61681088D01*
X117508294Y-61681082D01*
X117375916Y-61548704D01*
X117375910Y-61548699D01*
X117375909Y-61548698D01*
X117220231Y-61444677D01*
X117220232Y-61444677D01*
X117220222Y-61444672D01*
X117093424Y-61392152D01*
X117047252Y-61373027D01*
X117047225Y-61373021D01*
X116863622Y-61336500D01*
X116863620Y-61336500D01*
X116863616Y-61336500D01*
X116676384Y-61336500D01*
X116676379Y-61336500D01*
X116676377Y-61336500D01*
X116492773Y-61373021D01*
X116492746Y-61373027D01*
X116319776Y-61444672D01*
X116319766Y-61444677D01*
X116164089Y-61548698D01*
X116164088Y-61548699D01*
X116164082Y-61548704D01*
X116031704Y-61681082D01*
X116031699Y-61681088D01*
X116031698Y-61681089D01*
X115927677Y-61836766D01*
X115927672Y-61836776D01*
X115856027Y-62009746D01*
X115856021Y-62009773D01*
X115819500Y-62193376D01*
X115819500Y-62193379D01*
X115819500Y-62380620D01*
X115819500Y-62380622D01*
X115819499Y-62380622D01*
X106608512Y-62380622D01*
X106649873Y-62299445D01*
X106703402Y-62134701D01*
X106730500Y-61963611D01*
X106730500Y-61790389D01*
X106703402Y-61619299D01*
X106649873Y-61454555D01*
X106571232Y-61300212D01*
X106559795Y-61284471D01*
X137028237Y-61284471D01*
X137062069Y-61454547D01*
X137062339Y-61455904D01*
X137062344Y-61455919D01*
X137118908Y-61592481D01*
X137118913Y-61592490D01*
X137118923Y-61592507D01*
X137201049Y-61715417D01*
X137201050Y-61715418D01*
X137201055Y-61715424D01*
X137305574Y-61819943D01*
X137305580Y-61819948D01*
X137305584Y-61819951D01*
X137428498Y-61902080D01*
X137428511Y-61902087D01*
X137559487Y-61956338D01*
X137563910Y-61958430D01*
X137564638Y-61958571D01*
X137565382Y-61958717D01*
X137710077Y-61987500D01*
X137857920Y-61987500D01*
X137857921Y-61987500D01*
X137917969Y-61975555D01*
X137978018Y-61963610D01*
X138002913Y-61958658D01*
X138139495Y-61902084D01*
X138262416Y-61819951D01*
X138291978Y-61790389D01*
X138366950Y-61715418D01*
X138366951Y-61715416D01*
X138449084Y-61592495D01*
X138505658Y-61455913D01*
X138511035Y-61428876D01*
X138515096Y-61408465D01*
X138515096Y-61408462D01*
X138534500Y-61310920D01*
X138534500Y-61163079D01*
X138534500Y-61163076D01*
X138505717Y-61018382D01*
X138505571Y-61017638D01*
X138505430Y-61016910D01*
X138503338Y-61012487D01*
X138449087Y-60881511D01*
X138449080Y-60881498D01*
X138366951Y-60758584D01*
X138366948Y-60758580D01*
X138366943Y-60758574D01*
X138262424Y-60654055D01*
X138262418Y-60654050D01*
X138262417Y-60654049D01*
X138139507Y-60571923D01*
X138139506Y-60571922D01*
X138139501Y-60571919D01*
X138139488Y-60571912D01*
X138139481Y-60571908D01*
X138002919Y-60515344D01*
X138002920Y-60515344D01*
X138002917Y-60515343D01*
X138002907Y-60515340D01*
X138002905Y-60515339D01*
X138002900Y-60515338D01*
X137857922Y-60486500D01*
X137857920Y-60486500D01*
X137857918Y-60486500D01*
X137710082Y-60486500D01*
X137710080Y-60486500D01*
X137710078Y-60486500D01*
X137565096Y-60515338D01*
X137565079Y-60515344D01*
X137428517Y-60571908D01*
X137428508Y-60571913D01*
X137428491Y-60571923D01*
X137305581Y-60654049D01*
X137305580Y-60654050D01*
X137305574Y-60654055D01*
X137201055Y-60758574D01*
X137201050Y-60758580D01*
X137201049Y-60758581D01*
X137118923Y-60881491D01*
X137118913Y-60881508D01*
X137118908Y-60881517D01*
X137062344Y-61018079D01*
X137062338Y-61018098D01*
X137033500Y-61163076D01*
X137033500Y-61266551D01*
X137028237Y-61284471D01*
X106559795Y-61284471D01*
X106469414Y-61160072D01*
X106346928Y-61037586D01*
X106206788Y-60935768D01*
X106052449Y-60857128D01*
X105896532Y-60806467D01*
X105892010Y-60804614D01*
X105882820Y-60802444D01*
X105878057Y-60802070D01*
X105867513Y-60800400D01*
X105756271Y-60782781D01*
X105740407Y-60780268D01*
X105716614Y-60776500D01*
X105716611Y-60776500D01*
X105543389Y-60776500D01*
X105543388Y-60776500D01*
X105503726Y-60782781D01*
X105503725Y-60782780D01*
X105372304Y-60803596D01*
X105207549Y-60857129D01*
X105053210Y-60935768D01*
X104973256Y-60993859D01*
X104973255Y-60993859D01*
X104924941Y-61028961D01*
X104917564Y-61033092D01*
X104786092Y-61164564D01*
X104781961Y-61171941D01*
X104746859Y-61220255D01*
X104746859Y-61220256D01*
X104688768Y-61300210D01*
X104610129Y-61454547D01*
X104556596Y-61619301D01*
X104541468Y-61714819D01*
X104541450Y-61714937D01*
X104541374Y-61715419D01*
X104529500Y-61790389D01*
X102224000Y-61790389D01*
X102224000Y-59250389D01*
X104529500Y-59250389D01*
X104529500Y-59423611D01*
X104556598Y-59594701D01*
X104610127Y-59759445D01*
X104688768Y-59913788D01*
X104790586Y-60053928D01*
X104913072Y-60176414D01*
X105053212Y-60278232D01*
X105207555Y-60356873D01*
X105372299Y-60410402D01*
X105543389Y-60437500D01*
X105543390Y-60437500D01*
X105716610Y-60437500D01*
X105716611Y-60437500D01*
X105887701Y-60410402D01*
X106052445Y-60356873D01*
X106206788Y-60278232D01*
X106346928Y-60176414D01*
X106469414Y-60053928D01*
X106571232Y-59913788D01*
X106649873Y-59759445D01*
X106703402Y-59594701D01*
X106730500Y-59423611D01*
X106730500Y-59250389D01*
X106703402Y-59079299D01*
X106649873Y-58914555D01*
X106571232Y-58760212D01*
X106469414Y-58620072D01*
X106456964Y-58607622D01*
X151733237Y-58607622D01*
X151763494Y-58759726D01*
X151763495Y-58759732D01*
X151763502Y-58759753D01*
X151812529Y-58878118D01*
X151812534Y-58878128D01*
X151883724Y-58984670D01*
X151883725Y-58984671D01*
X151883730Y-58984677D01*
X151974321Y-59075268D01*
X151974327Y-59075273D01*
X151974328Y-59075274D01*
X152080869Y-59146463D01*
X152080872Y-59146464D01*
X152080873Y-59146465D01*
X152193651Y-59193179D01*
X152198053Y-59195261D01*
X152199252Y-59195499D01*
X152199256Y-59195501D01*
X152199259Y-59195501D01*
X152199260Y-59195501D01*
X152199261Y-59195502D01*
X152296899Y-59214924D01*
X152324927Y-59220500D01*
X152453071Y-59220500D01*
X152453073Y-59220500D01*
X152537615Y-59203682D01*
X152578744Y-59195501D01*
X152697127Y-59146465D01*
X152803669Y-59075276D01*
X152894276Y-58984669D01*
X152965465Y-58878127D01*
X153014501Y-58759744D01*
X153031631Y-58673628D01*
X153039500Y-58634071D01*
X153039500Y-58536622D01*
X155629499Y-58536622D01*
X155666021Y-58720225D01*
X155666027Y-58720252D01*
X155737672Y-58893222D01*
X155737677Y-58893232D01*
X155841698Y-59048909D01*
X155841699Y-59048910D01*
X155841704Y-59048916D01*
X155974082Y-59181294D01*
X155974088Y-59181299D01*
X155974089Y-59181300D01*
X156129761Y-59285318D01*
X156129766Y-59285320D01*
X156129768Y-59285321D01*
X156129769Y-59285322D01*
X156302749Y-59356973D01*
X156474389Y-59391114D01*
X156483408Y-59392908D01*
X156485643Y-59393409D01*
X156486381Y-59393500D01*
X156673617Y-59393500D01*
X156677737Y-59393500D01*
X156685586Y-59391118D01*
X156857251Y-59356973D01*
X157030231Y-59285322D01*
X157185908Y-59181302D01*
X157318302Y-59048908D01*
X157422322Y-58893231D01*
X157493973Y-58720251D01*
X157530500Y-58536616D01*
X157530500Y-58349384D01*
X157493973Y-58165749D01*
X157422639Y-57993535D01*
X157422323Y-57992771D01*
X157422318Y-57992762D01*
X157318302Y-57837092D01*
X157318299Y-57837088D01*
X157318294Y-57837082D01*
X157185916Y-57704704D01*
X157185910Y-57704699D01*
X157185909Y-57704698D01*
X157030231Y-57600677D01*
X157030232Y-57600677D01*
X157030222Y-57600672D01*
X156857252Y-57529027D01*
X156857225Y-57529021D01*
X156673622Y-57492500D01*
X156673620Y-57492500D01*
X156673616Y-57492500D01*
X156486384Y-57492500D01*
X156486379Y-57492500D01*
X156486377Y-57492500D01*
X156302773Y-57529021D01*
X156302746Y-57529027D01*
X156129776Y-57600672D01*
X156129766Y-57600677D01*
X155974089Y-57704698D01*
X155974088Y-57704699D01*
X155974082Y-57704704D01*
X155841704Y-57837082D01*
X155841699Y-57837088D01*
X155841698Y-57837089D01*
X155737677Y-57992766D01*
X155737672Y-57992776D01*
X155666027Y-58165746D01*
X155666021Y-58165773D01*
X155629500Y-58349376D01*
X155629500Y-58349379D01*
X155629500Y-58536620D01*
X155629500Y-58536622D01*
X155629499Y-58536622D01*
X153039500Y-58536622D01*
X153039500Y-58505926D01*
X153020210Y-58408960D01*
X153020001Y-58407907D01*
X153014501Y-58380256D01*
X152965465Y-58261873D01*
X152965464Y-58261872D01*
X152965463Y-58261870D01*
X152965463Y-58261869D01*
X152894274Y-58155328D01*
X152894273Y-58155327D01*
X152894268Y-58155321D01*
X152803677Y-58064730D01*
X152803671Y-58064725D01*
X152803670Y-58064724D01*
X152697127Y-57993534D01*
X152697128Y-57993534D01*
X152697118Y-57993529D01*
X152578753Y-57944502D01*
X152578733Y-57944495D01*
X152578725Y-57944493D01*
X152453074Y-57919500D01*
X152453071Y-57919500D01*
X152453069Y-57919500D01*
X152324931Y-57919500D01*
X152324929Y-57919500D01*
X152324926Y-57919500D01*
X152199273Y-57944493D01*
X152199265Y-57944495D01*
X152199245Y-57944502D01*
X152080880Y-57993529D01*
X152080870Y-57993534D01*
X151974328Y-58064724D01*
X151974327Y-58064725D01*
X151974321Y-58064730D01*
X151883730Y-58155321D01*
X151883725Y-58155327D01*
X151883724Y-58155328D01*
X151812534Y-58261870D01*
X151812529Y-58261880D01*
X151763502Y-58380245D01*
X151763499Y-58380255D01*
X151763493Y-58380273D01*
X151738500Y-58505923D01*
X151738500Y-58589702D01*
X151733237Y-58607622D01*
X106456964Y-58607622D01*
X106346928Y-58497586D01*
X106206788Y-58395768D01*
X106176342Y-58380255D01*
X106176342Y-58380254D01*
X106069946Y-58326044D01*
X106064605Y-58322163D01*
X106040287Y-58312090D01*
X106033767Y-58311058D01*
X105983648Y-58294773D01*
X105896532Y-58266467D01*
X105892010Y-58264614D01*
X105882820Y-58262444D01*
X105878057Y-58262070D01*
X105867513Y-58260400D01*
X105756271Y-58242781D01*
X105740407Y-58240268D01*
X105716614Y-58236500D01*
X105716611Y-58236500D01*
X105543389Y-58236500D01*
X105543388Y-58236500D01*
X105503726Y-58242781D01*
X105503725Y-58242780D01*
X105372304Y-58263596D01*
X105207549Y-58317129D01*
X105053211Y-58395767D01*
X105036490Y-58407917D01*
X104924943Y-58488961D01*
X104917562Y-58493094D01*
X104786093Y-58624563D01*
X104781962Y-58631940D01*
X104756187Y-58667417D01*
X104756186Y-58667419D01*
X104688768Y-58760210D01*
X104610129Y-58914549D01*
X104556596Y-59079305D01*
X104556595Y-59079306D01*
X104538298Y-59194833D01*
X104538287Y-59194904D01*
X104538193Y-59195501D01*
X104529500Y-59250389D01*
X102224000Y-59250389D01*
X102224000Y-56883613D01*
X104529499Y-56883613D01*
X104540472Y-56952887D01*
X104540661Y-56954082D01*
X104556598Y-57054701D01*
X104610127Y-57219445D01*
X104688768Y-57373788D01*
X104790586Y-57513928D01*
X104913072Y-57636414D01*
X105053212Y-57738232D01*
X105207555Y-57816873D01*
X105372299Y-57870402D01*
X105543389Y-57897500D01*
X105543390Y-57897500D01*
X105716610Y-57897500D01*
X105716611Y-57897500D01*
X105887701Y-57870402D01*
X106052445Y-57816873D01*
X106206788Y-57738232D01*
X106346928Y-57636414D01*
X106469414Y-57513928D01*
X106571232Y-57373788D01*
X106649350Y-57220471D01*
X137790237Y-57220471D01*
X137824338Y-57391899D01*
X137824340Y-57391907D01*
X137824343Y-57391917D01*
X137829058Y-57403299D01*
X137880908Y-57528481D01*
X137880913Y-57528490D01*
X137880923Y-57528507D01*
X137963049Y-57651417D01*
X137963050Y-57651418D01*
X137963055Y-57651424D01*
X138067574Y-57755943D01*
X138067580Y-57755948D01*
X138067584Y-57755951D01*
X138190498Y-57838080D01*
X138190511Y-57838087D01*
X138321487Y-57892338D01*
X138325910Y-57894430D01*
X138326638Y-57894571D01*
X138327382Y-57894717D01*
X138472077Y-57923500D01*
X138472079Y-57923500D01*
X138472082Y-57923500D01*
X138619920Y-57923500D01*
X138717462Y-57904096D01*
X138764913Y-57894658D01*
X138901495Y-57838084D01*
X139024416Y-57755951D01*
X139128951Y-57651416D01*
X139211084Y-57528495D01*
X139212980Y-57523919D01*
X139248361Y-57438500D01*
X139267658Y-57391913D01*
X139277096Y-57344462D01*
X139296500Y-57246920D01*
X139296500Y-57220471D01*
X140330237Y-57220471D01*
X140364338Y-57391899D01*
X140364340Y-57391907D01*
X140364343Y-57391917D01*
X140369058Y-57403299D01*
X140420908Y-57528481D01*
X140420913Y-57528490D01*
X140420923Y-57528507D01*
X140503049Y-57651417D01*
X140503050Y-57651418D01*
X140503055Y-57651424D01*
X140607574Y-57755943D01*
X140607580Y-57755948D01*
X140607584Y-57755951D01*
X140730498Y-57838080D01*
X140730511Y-57838087D01*
X140861487Y-57892338D01*
X140865910Y-57894430D01*
X140866638Y-57894571D01*
X140867382Y-57894717D01*
X141012077Y-57923500D01*
X141012079Y-57923500D01*
X141012082Y-57923500D01*
X141159920Y-57923500D01*
X141257462Y-57904096D01*
X141304913Y-57894658D01*
X141441495Y-57838084D01*
X141564416Y-57755951D01*
X141668951Y-57651416D01*
X141751084Y-57528495D01*
X141752980Y-57523919D01*
X141788361Y-57438500D01*
X141807658Y-57391913D01*
X141813035Y-57364876D01*
X141817096Y-57344465D01*
X141817096Y-57344462D01*
X141836500Y-57246920D01*
X141836500Y-57099079D01*
X141836500Y-57099076D01*
X141807419Y-56952887D01*
X141805340Y-56948492D01*
X141778466Y-56883610D01*
X141763893Y-56848429D01*
X141751090Y-56817517D01*
X141751085Y-56817508D01*
X141751080Y-56817498D01*
X141711740Y-56758622D01*
X157827499Y-56758622D01*
X157864021Y-56942225D01*
X157864027Y-56942252D01*
X157935672Y-57115222D01*
X157935677Y-57115232D01*
X158039698Y-57270909D01*
X158039699Y-57270910D01*
X158039704Y-57270916D01*
X158172082Y-57403294D01*
X158172088Y-57403299D01*
X158172092Y-57403302D01*
X158327762Y-57507318D01*
X158327767Y-57507321D01*
X158327766Y-57507321D01*
X158327769Y-57507322D01*
X158327771Y-57507323D01*
X158343716Y-57513927D01*
X158343721Y-57513931D01*
X158343722Y-57513930D01*
X158500749Y-57578973D01*
X158672389Y-57613114D01*
X158681408Y-57614908D01*
X158683643Y-57615409D01*
X158684381Y-57615500D01*
X158871617Y-57615500D01*
X158875737Y-57615500D01*
X158883586Y-57613118D01*
X159055251Y-57578973D01*
X159228231Y-57507322D01*
X159383908Y-57403302D01*
X159516302Y-57270908D01*
X159620322Y-57115231D01*
X159691973Y-56942251D01*
X159728500Y-56758616D01*
X159728500Y-56571384D01*
X159691973Y-56387749D01*
X159620322Y-56214769D01*
X159620321Y-56214768D01*
X159620318Y-56214762D01*
X159620318Y-56214761D01*
X159516300Y-56059089D01*
X159516299Y-56059088D01*
X159516294Y-56059082D01*
X159383916Y-55926704D01*
X159383910Y-55926699D01*
X159383909Y-55926698D01*
X159228231Y-55822677D01*
X159228232Y-55822677D01*
X159228222Y-55822672D01*
X159055252Y-55751027D01*
X159055225Y-55751021D01*
X158871622Y-55714500D01*
X158871620Y-55714500D01*
X158871616Y-55714500D01*
X158684384Y-55714500D01*
X158684379Y-55714500D01*
X158684377Y-55714500D01*
X158500773Y-55751021D01*
X158500746Y-55751027D01*
X158327776Y-55822672D01*
X158327766Y-55822677D01*
X158172089Y-55926698D01*
X158172088Y-55926699D01*
X158172082Y-55926704D01*
X158039704Y-56059082D01*
X158039699Y-56059088D01*
X158039698Y-56059089D01*
X157935677Y-56214766D01*
X157935672Y-56214776D01*
X157864027Y-56387746D01*
X157864021Y-56387773D01*
X157827500Y-56571376D01*
X157827500Y-56571379D01*
X157827500Y-56758620D01*
X157827500Y-56758622D01*
X157827499Y-56758622D01*
X141711740Y-56758622D01*
X141668951Y-56694584D01*
X141668948Y-56694580D01*
X141668943Y-56694574D01*
X141564424Y-56590055D01*
X141564418Y-56590050D01*
X141564417Y-56590049D01*
X141441507Y-56507923D01*
X141441506Y-56507922D01*
X141441501Y-56507919D01*
X141441488Y-56507912D01*
X141441481Y-56507908D01*
X141304919Y-56451344D01*
X141304920Y-56451344D01*
X141304917Y-56451343D01*
X141304907Y-56451340D01*
X141304905Y-56451339D01*
X141304900Y-56451338D01*
X141159922Y-56422500D01*
X141159920Y-56422500D01*
X141159918Y-56422500D01*
X141012082Y-56422500D01*
X141012080Y-56422500D01*
X141012078Y-56422500D01*
X140867096Y-56451338D01*
X140867079Y-56451344D01*
X140730517Y-56507908D01*
X140730508Y-56507913D01*
X140730491Y-56507923D01*
X140607581Y-56590049D01*
X140607580Y-56590050D01*
X140607574Y-56590055D01*
X140503055Y-56694574D01*
X140503050Y-56694580D01*
X140503049Y-56694581D01*
X140420923Y-56817491D01*
X140420913Y-56817508D01*
X140420908Y-56817517D01*
X140364344Y-56954079D01*
X140364338Y-56954098D01*
X140335500Y-57099076D01*
X140335500Y-57202551D01*
X140330237Y-57220471D01*
X139296500Y-57220471D01*
X139296500Y-57099079D01*
X139296500Y-57099076D01*
X139267419Y-56952887D01*
X139265340Y-56948492D01*
X139238466Y-56883610D01*
X139223893Y-56848429D01*
X139211090Y-56817517D01*
X139211085Y-56817508D01*
X139211080Y-56817498D01*
X139128951Y-56694584D01*
X139128948Y-56694580D01*
X139128943Y-56694574D01*
X139024424Y-56590055D01*
X139024418Y-56590050D01*
X139024417Y-56590049D01*
X138901507Y-56507923D01*
X138901506Y-56507922D01*
X138901501Y-56507919D01*
X138901488Y-56507912D01*
X138901481Y-56507908D01*
X138764919Y-56451344D01*
X138764920Y-56451344D01*
X138764917Y-56451343D01*
X138764907Y-56451340D01*
X138764905Y-56451339D01*
X138764900Y-56451338D01*
X138619922Y-56422500D01*
X138619920Y-56422500D01*
X138619918Y-56422500D01*
X138472082Y-56422500D01*
X138472080Y-56422500D01*
X138472078Y-56422500D01*
X138327096Y-56451338D01*
X138327079Y-56451344D01*
X138190517Y-56507908D01*
X138190508Y-56507913D01*
X138190491Y-56507923D01*
X138067581Y-56590049D01*
X138067580Y-56590050D01*
X138067574Y-56590055D01*
X137963055Y-56694574D01*
X137963050Y-56694580D01*
X137963049Y-56694581D01*
X137880923Y-56817491D01*
X137880913Y-56817508D01*
X137880908Y-56817517D01*
X137824344Y-56954079D01*
X137824338Y-56954098D01*
X137795500Y-57099076D01*
X137795500Y-57202551D01*
X137790237Y-57220471D01*
X106649350Y-57220471D01*
X106649873Y-57219445D01*
X106703402Y-57054701D01*
X106730500Y-56883611D01*
X106730500Y-56710389D01*
X106703402Y-56539299D01*
X106649873Y-56374555D01*
X106571232Y-56220212D01*
X106469414Y-56080072D01*
X106346928Y-55957586D01*
X106206788Y-55855768D01*
X106169818Y-55836931D01*
X106052449Y-55777128D01*
X105896532Y-55726467D01*
X105892010Y-55724614D01*
X105882820Y-55722444D01*
X105878057Y-55722070D01*
X105867513Y-55720400D01*
X105756271Y-55702781D01*
X105740407Y-55700268D01*
X105716614Y-55696500D01*
X105716611Y-55696500D01*
X105543389Y-55696500D01*
X105543388Y-55696500D01*
X105503726Y-55702781D01*
X105503725Y-55702780D01*
X105372304Y-55723596D01*
X105207549Y-55777129D01*
X105053210Y-55855768D01*
X104973256Y-55913859D01*
X104973255Y-55913859D01*
X104924941Y-55948961D01*
X104917564Y-55953092D01*
X104786092Y-56084564D01*
X104781961Y-56091941D01*
X104746859Y-56140255D01*
X104746859Y-56140256D01*
X104688768Y-56220210D01*
X104610129Y-56374549D01*
X104556596Y-56539305D01*
X104529500Y-56710383D01*
X104529500Y-56883610D01*
X104529499Y-56883613D01*
X102224000Y-56883613D01*
X102224000Y-54343613D01*
X104529499Y-54343613D01*
X104540472Y-54412887D01*
X104540661Y-54414082D01*
X104556598Y-54514701D01*
X104610127Y-54679445D01*
X104688768Y-54833788D01*
X104790586Y-54973928D01*
X104913072Y-55096414D01*
X105053212Y-55198232D01*
X105207555Y-55276873D01*
X105372299Y-55330402D01*
X105543389Y-55357500D01*
X105543390Y-55357500D01*
X105716610Y-55357500D01*
X105716611Y-55357500D01*
X105887701Y-55330402D01*
X106052445Y-55276873D01*
X106206788Y-55198232D01*
X106346928Y-55096414D01*
X106469414Y-54973928D01*
X106571232Y-54833788D01*
X106649350Y-54680471D01*
X142870237Y-54680471D01*
X142904338Y-54851899D01*
X142904339Y-54851904D01*
X142904344Y-54851919D01*
X142960908Y-54988481D01*
X142960913Y-54988490D01*
X142960923Y-54988507D01*
X143043049Y-55111417D01*
X143043050Y-55111418D01*
X143043055Y-55111424D01*
X143147574Y-55215943D01*
X143147580Y-55215948D01*
X143147584Y-55215951D01*
X143270498Y-55298080D01*
X143270511Y-55298087D01*
X143401487Y-55352338D01*
X143405910Y-55354430D01*
X143406638Y-55354571D01*
X143407382Y-55354717D01*
X143552077Y-55383500D01*
X143552079Y-55383500D01*
X143552082Y-55383500D01*
X143699920Y-55383500D01*
X143797462Y-55364096D01*
X143844913Y-55354658D01*
X143981495Y-55298084D01*
X144104416Y-55215951D01*
X144208951Y-55111416D01*
X144291084Y-54988495D01*
X144347658Y-54851913D01*
X144353035Y-54824876D01*
X144357096Y-54804465D01*
X144357096Y-54804462D01*
X144376500Y-54706920D01*
X144376500Y-54559079D01*
X144376500Y-54559076D01*
X144347419Y-54412887D01*
X144345340Y-54408492D01*
X144318466Y-54343610D01*
X144303893Y-54308429D01*
X144291090Y-54277517D01*
X144291085Y-54277508D01*
X144291080Y-54277498D01*
X144208951Y-54154584D01*
X144208948Y-54154580D01*
X144208943Y-54154574D01*
X144104424Y-54050055D01*
X144104418Y-54050050D01*
X144104417Y-54050049D01*
X143981507Y-53967923D01*
X143981506Y-53967922D01*
X143981501Y-53967919D01*
X143981488Y-53967912D01*
X143981481Y-53967908D01*
X143844919Y-53911344D01*
X143844920Y-53911344D01*
X143844917Y-53911343D01*
X143844907Y-53911340D01*
X143844905Y-53911339D01*
X143844900Y-53911338D01*
X143699922Y-53882500D01*
X143699920Y-53882500D01*
X143699918Y-53882500D01*
X143552082Y-53882500D01*
X143552080Y-53882500D01*
X143552078Y-53882500D01*
X143407096Y-53911338D01*
X143407079Y-53911344D01*
X143270517Y-53967908D01*
X143270508Y-53967913D01*
X143270491Y-53967923D01*
X143147581Y-54050049D01*
X143147580Y-54050050D01*
X143147574Y-54050055D01*
X143043055Y-54154574D01*
X143043050Y-54154580D01*
X143043049Y-54154581D01*
X142960923Y-54277491D01*
X142960913Y-54277508D01*
X142960908Y-54277517D01*
X142904344Y-54414079D01*
X142904338Y-54414098D01*
X142875500Y-54559076D01*
X142875500Y-54662551D01*
X142870237Y-54680471D01*
X106649350Y-54680471D01*
X106649873Y-54679445D01*
X106703402Y-54514701D01*
X106730500Y-54343611D01*
X106730500Y-54170389D01*
X106703402Y-53999299D01*
X106649873Y-53834555D01*
X106571232Y-53680212D01*
X106562621Y-53668360D01*
X160134500Y-53668360D01*
X160134500Y-62963639D01*
X160135963Y-62990934D01*
X160135967Y-62990988D01*
X160138797Y-63017310D01*
X160138798Y-63017312D01*
X160168586Y-63112441D01*
X160168590Y-63112451D01*
X160202068Y-63173761D01*
X160202073Y-63173769D01*
X160245649Y-63231980D01*
X160245665Y-63231998D01*
X160718231Y-63704563D01*
X161189015Y-64175347D01*
X161209365Y-64193626D01*
X161209371Y-64193631D01*
X161209379Y-64193638D01*
X161230000Y-64210255D01*
X161230002Y-64210256D01*
X161230007Y-64210260D01*
X161318338Y-64256465D01*
X161385377Y-64276150D01*
X161385381Y-64276150D01*
X161385383Y-64276151D01*
X161397014Y-64277823D01*
X161457362Y-64286500D01*
X161457363Y-64286500D01*
X165418638Y-64286500D01*
X165418639Y-64286500D01*
X165420075Y-64286422D01*
X165445952Y-64285036D01*
X165472310Y-64282202D01*
X165567444Y-64252413D01*
X165628767Y-64218928D01*
X165686985Y-64175347D01*
X166630347Y-63231985D01*
X166648626Y-63211635D01*
X166665260Y-63190993D01*
X166711465Y-63102662D01*
X166731150Y-63035623D01*
X166741500Y-62963638D01*
X166741500Y-61790389D01*
X177709500Y-61790389D01*
X177709500Y-61963611D01*
X177716808Y-62009749D01*
X177726646Y-62071870D01*
X177736598Y-62134701D01*
X177790127Y-62299445D01*
X177868768Y-62453788D01*
X177970586Y-62593928D01*
X178093072Y-62716414D01*
X178233212Y-62818232D01*
X178387555Y-62896873D01*
X178552299Y-62950402D01*
X178723389Y-62977500D01*
X178723390Y-62977500D01*
X178896610Y-62977500D01*
X178896611Y-62977500D01*
X179067701Y-62950402D01*
X179232445Y-62896873D01*
X179386788Y-62818232D01*
X179526928Y-62716414D01*
X179649414Y-62593928D01*
X179751232Y-62453788D01*
X179829873Y-62299445D01*
X179883402Y-62134701D01*
X179910500Y-61963611D01*
X179910500Y-61790389D01*
X179883402Y-61619299D01*
X179829873Y-61454555D01*
X179751232Y-61300212D01*
X179649414Y-61160072D01*
X179526928Y-61037586D01*
X179386788Y-60935768D01*
X179232449Y-60857128D01*
X179076532Y-60806467D01*
X179072010Y-60804614D01*
X179062820Y-60802444D01*
X179058057Y-60802070D01*
X179047513Y-60800400D01*
X178936271Y-60782781D01*
X178920407Y-60780268D01*
X178896614Y-60776500D01*
X178896611Y-60776500D01*
X178723389Y-60776500D01*
X178723388Y-60776500D01*
X178683726Y-60782781D01*
X178683725Y-60782780D01*
X178552304Y-60803596D01*
X178387549Y-60857129D01*
X178233210Y-60935768D01*
X178153256Y-60993859D01*
X178153255Y-60993859D01*
X178104941Y-61028961D01*
X178097564Y-61033092D01*
X177966092Y-61164564D01*
X177961961Y-61171941D01*
X177926859Y-61220255D01*
X177926859Y-61220256D01*
X177868768Y-61300210D01*
X177790129Y-61454547D01*
X177736596Y-61619301D01*
X177721468Y-61714819D01*
X177721450Y-61714937D01*
X177721374Y-61715419D01*
X177709500Y-61790389D01*
X166741500Y-61790389D01*
X166741500Y-56568193D01*
X166761185Y-56501154D01*
X166777819Y-56480512D01*
X167317512Y-55940819D01*
X167378835Y-55907334D01*
X167405193Y-55904500D01*
X173800639Y-55904500D01*
X173802075Y-55904422D01*
X173827952Y-55903036D01*
X173854310Y-55900202D01*
X173949444Y-55870413D01*
X174010767Y-55836928D01*
X174068985Y-55793347D01*
X174250347Y-55611985D01*
X174268626Y-55591635D01*
X174285260Y-55570993D01*
X174331465Y-55482662D01*
X174351150Y-55415623D01*
X174361500Y-55343638D01*
X174361500Y-53414362D01*
X174360036Y-53387048D01*
X174357202Y-53360690D01*
X174327413Y-53265556D01*
X174293928Y-53204233D01*
X174278479Y-53183596D01*
X174254232Y-53151205D01*
X174229815Y-53085741D01*
X174229499Y-53076895D01*
X174229499Y-52931819D01*
X174229498Y-52931813D01*
X174228343Y-52921072D01*
X174223067Y-52871983D01*
X174198465Y-52806023D01*
X174173359Y-52738709D01*
X174172470Y-52736192D01*
X174170181Y-52732895D01*
X174170177Y-52732889D01*
X174167275Y-52729540D01*
X174113894Y-52658232D01*
X174086013Y-52620987D01*
X174072472Y-52610851D01*
X174072468Y-52610845D01*
X174072467Y-52610847D01*
X174017318Y-52569561D01*
X173992365Y-52544608D01*
X173982996Y-52532093D01*
X173958579Y-52466633D01*
X173957648Y-52453620D01*
X173961558Y-52412685D01*
X173979499Y-52345729D01*
X173979500Y-52345726D01*
X173979500Y-51840275D01*
X173979500Y-51840273D01*
X173952207Y-51738413D01*
X173899480Y-51647087D01*
X173867006Y-51614613D01*
X173866698Y-51614293D01*
X173857919Y-51605508D01*
X173857410Y-51605017D01*
X173824914Y-51572521D01*
X173824913Y-51572520D01*
X173758059Y-51533922D01*
X173733589Y-51519794D01*
X173733588Y-51519793D01*
X173733587Y-51519793D01*
X173631727Y-51492500D01*
X173631726Y-51492500D01*
X161372273Y-51492500D01*
X161270416Y-51519791D01*
X161270408Y-51519795D01*
X161179099Y-51572512D01*
X161179081Y-51572523D01*
X161146296Y-51605308D01*
X161145804Y-51605784D01*
X161137784Y-51613804D01*
X161137308Y-51614296D01*
X161104523Y-51647081D01*
X161104512Y-51647099D01*
X161051795Y-51738408D01*
X161051791Y-51738416D01*
X161024500Y-51840273D01*
X161024500Y-52345727D01*
X161041801Y-52410298D01*
X161045991Y-52445341D01*
X161045619Y-52460968D01*
X161024346Y-52527518D01*
X161017038Y-52538316D01*
X160988658Y-52568081D01*
X160917987Y-52620985D01*
X160917981Y-52620991D01*
X160836730Y-52729532D01*
X160833818Y-52732892D01*
X160831414Y-52736632D01*
X160784406Y-52862667D01*
X160742535Y-52918600D01*
X160739233Y-52921072D01*
X160681015Y-52964653D01*
X160681013Y-52964655D01*
X160681001Y-52964665D01*
X160245666Y-53400001D01*
X160245638Y-53400031D01*
X160227361Y-53420379D01*
X160210744Y-53441000D01*
X160164534Y-53529340D01*
X160144850Y-53596375D01*
X160144848Y-53596383D01*
X160134500Y-53668360D01*
X106562621Y-53668360D01*
X106469414Y-53540072D01*
X106346928Y-53417586D01*
X106206788Y-53315768D01*
X106052449Y-53237128D01*
X105896532Y-53186467D01*
X105892010Y-53184614D01*
X105882820Y-53182444D01*
X105878057Y-53182070D01*
X105867513Y-53180400D01*
X105756271Y-53162781D01*
X105740407Y-53160268D01*
X105716614Y-53156500D01*
X105716611Y-53156500D01*
X105543389Y-53156500D01*
X105543388Y-53156500D01*
X105503726Y-53162781D01*
X105503725Y-53162780D01*
X105372304Y-53183596D01*
X105207549Y-53237129D01*
X105053210Y-53315768D01*
X104973256Y-53373859D01*
X104973255Y-53373859D01*
X104924941Y-53408961D01*
X104917564Y-53413092D01*
X104786092Y-53544564D01*
X104781961Y-53551941D01*
X104746859Y-53600255D01*
X104746859Y-53600256D01*
X104688768Y-53680210D01*
X104610129Y-53834549D01*
X104556596Y-53999305D01*
X104529500Y-54170383D01*
X104529500Y-54343610D01*
X104529499Y-54343613D01*
X102224000Y-54343613D01*
X102224000Y-51630389D01*
X104529500Y-51630389D01*
X104529500Y-51803611D01*
X104530420Y-51809419D01*
X104530421Y-51809423D01*
X104530420Y-51809423D01*
X104543625Y-51892793D01*
X104546975Y-51913948D01*
X104556598Y-51974701D01*
X104610127Y-52139445D01*
X104688768Y-52293788D01*
X104790586Y-52433928D01*
X104913072Y-52556414D01*
X105053212Y-52658232D01*
X105207555Y-52736873D01*
X105372299Y-52790402D01*
X105543389Y-52817500D01*
X105543390Y-52817500D01*
X105716610Y-52817500D01*
X105716611Y-52817500D01*
X105887701Y-52790402D01*
X106052445Y-52736873D01*
X106206788Y-52658232D01*
X106346928Y-52556414D01*
X106469414Y-52433928D01*
X106571232Y-52293788D01*
X106649873Y-52139445D01*
X106703402Y-51974701D01*
X106730500Y-51803611D01*
X106730500Y-51630389D01*
X106703402Y-51459299D01*
X106677139Y-51378471D01*
X117216237Y-51378471D01*
X117250338Y-51549899D01*
X117250344Y-51549919D01*
X117306908Y-51686481D01*
X117306913Y-51686490D01*
X117306923Y-51686507D01*
X117389049Y-51809417D01*
X117389050Y-51809418D01*
X117389053Y-51809422D01*
X117493578Y-51913947D01*
X117493581Y-51913949D01*
X117493584Y-51913951D01*
X117616498Y-51996080D01*
X117616511Y-51996087D01*
X117747487Y-52050338D01*
X117751910Y-52052430D01*
X117752638Y-52052571D01*
X117753382Y-52052717D01*
X117898077Y-52081500D01*
X117898079Y-52081500D01*
X117898082Y-52081500D01*
X118045920Y-52081500D01*
X118143462Y-52062096D01*
X118190913Y-52052658D01*
X118327495Y-51996084D01*
X118450416Y-51913951D01*
X118450415Y-51913951D01*
X118450419Y-51913949D01*
X118450421Y-51913947D01*
X118554948Y-51809419D01*
X118554950Y-51809417D01*
X118554951Y-51809416D01*
X118637084Y-51686495D01*
X118693658Y-51549913D01*
X118705078Y-51492500D01*
X118722500Y-51404920D01*
X118722500Y-51257076D01*
X118693419Y-51110884D01*
X118691332Y-51106472D01*
X118647260Y-51000071D01*
X118637087Y-50975511D01*
X118637080Y-50975498D01*
X118554951Y-50852584D01*
X118554948Y-50852580D01*
X118554943Y-50852574D01*
X118450424Y-50748055D01*
X118450418Y-50748050D01*
X118450417Y-50748049D01*
X118327507Y-50665923D01*
X118327506Y-50665922D01*
X118327501Y-50665919D01*
X118327488Y-50665912D01*
X118327481Y-50665908D01*
X118190919Y-50609344D01*
X118190920Y-50609344D01*
X118190917Y-50609343D01*
X118190907Y-50609340D01*
X118190905Y-50609339D01*
X118190900Y-50609338D01*
X118045922Y-50580500D01*
X118045920Y-50580500D01*
X118045918Y-50580500D01*
X117898082Y-50580500D01*
X117898080Y-50580500D01*
X117898078Y-50580500D01*
X117753096Y-50609338D01*
X117753079Y-50609344D01*
X117616517Y-50665908D01*
X117616508Y-50665913D01*
X117616491Y-50665923D01*
X117493581Y-50748049D01*
X117493580Y-50748050D01*
X117493574Y-50748055D01*
X117389055Y-50852574D01*
X117389050Y-50852580D01*
X117389049Y-50852581D01*
X117306923Y-50975491D01*
X117306913Y-50975508D01*
X117306908Y-50975517D01*
X117250344Y-51112079D01*
X117250338Y-51112098D01*
X117221500Y-51257076D01*
X117221500Y-51360551D01*
X117216237Y-51378471D01*
X106677139Y-51378471D01*
X106649873Y-51294555D01*
X106571232Y-51140212D01*
X106469414Y-51000072D01*
X106346928Y-50877586D01*
X106206788Y-50775768D01*
X106152398Y-50748055D01*
X106052449Y-50697128D01*
X105896532Y-50646467D01*
X105892010Y-50644614D01*
X105882820Y-50642444D01*
X105878057Y-50642070D01*
X105867513Y-50640400D01*
X105756271Y-50622781D01*
X105740407Y-50620268D01*
X105716614Y-50616500D01*
X105716611Y-50616500D01*
X105543389Y-50616500D01*
X105543388Y-50616500D01*
X105503726Y-50622781D01*
X105503725Y-50622780D01*
X105372304Y-50643596D01*
X105207549Y-50697129D01*
X105053210Y-50775768D01*
X104973256Y-50833859D01*
X104973255Y-50833859D01*
X104924941Y-50868961D01*
X104917564Y-50873092D01*
X104786092Y-51004564D01*
X104781961Y-51011941D01*
X104746859Y-51060255D01*
X104746859Y-51060256D01*
X104688768Y-51140210D01*
X104610129Y-51294547D01*
X104556598Y-51459297D01*
X104556596Y-51459305D01*
X104538665Y-51572522D01*
X104533234Y-51606816D01*
X104529500Y-51630389D01*
X102224000Y-51630389D01*
X102224000Y-49090383D01*
X104529500Y-49090383D01*
X104529500Y-49263614D01*
X104548111Y-49381120D01*
X104556598Y-49434701D01*
X104610127Y-49599445D01*
X104688768Y-49753788D01*
X104790586Y-49893928D01*
X104913072Y-50016414D01*
X105053212Y-50118232D01*
X105207555Y-50196873D01*
X105372299Y-50250402D01*
X105543389Y-50277500D01*
X105543390Y-50277500D01*
X105716610Y-50277500D01*
X105716611Y-50277500D01*
X105887701Y-50250402D01*
X106052445Y-50196873D01*
X106206788Y-50118232D01*
X106346928Y-50016414D01*
X106469414Y-49893928D01*
X106571232Y-49753788D01*
X106649873Y-49599445D01*
X106703402Y-49434701D01*
X106730500Y-49263611D01*
X106730500Y-49090389D01*
X106703402Y-48919299D01*
X106649873Y-48754555D01*
X106571232Y-48600212D01*
X106469414Y-48460072D01*
X106346928Y-48337586D01*
X106206788Y-48235768D01*
X106052449Y-48157128D01*
X105896532Y-48106467D01*
X105892010Y-48104614D01*
X105882820Y-48102444D01*
X105878057Y-48102070D01*
X105867513Y-48100400D01*
X105756271Y-48082781D01*
X105740407Y-48080268D01*
X105716614Y-48076500D01*
X105716611Y-48076500D01*
X105543389Y-48076500D01*
X105543388Y-48076500D01*
X105503726Y-48082781D01*
X105503725Y-48082780D01*
X105372304Y-48103596D01*
X105207549Y-48157129D01*
X105053210Y-48235768D01*
X104973256Y-48293859D01*
X104973255Y-48293859D01*
X104924941Y-48328961D01*
X104917564Y-48333092D01*
X104786092Y-48464564D01*
X104781961Y-48471941D01*
X104746859Y-48520255D01*
X104746859Y-48520256D01*
X104688768Y-48600210D01*
X104610129Y-48754549D01*
X104556596Y-48919305D01*
X104529500Y-49090383D01*
X102224000Y-49090383D01*
X102224000Y-47172521D01*
X107799500Y-47172521D01*
X107799500Y-47481477D01*
X107834083Y-47788422D01*
X107834089Y-47788455D01*
X107902831Y-48089635D01*
X107902832Y-48089638D01*
X107902835Y-48089650D01*
X107902842Y-48089671D01*
X108004859Y-48381216D01*
X108004862Y-48381222D01*
X108004868Y-48381236D01*
X108125589Y-48631917D01*
X108138902Y-48659560D01*
X108139106Y-48659918D01*
X108139792Y-48660977D01*
X108303265Y-48921143D01*
X108495880Y-49162674D01*
X108714326Y-49381120D01*
X108955857Y-49573735D01*
X109217435Y-49738095D01*
X109495771Y-49872135D01*
X109495777Y-49872137D01*
X109592968Y-49906146D01*
X109787327Y-49974156D01*
X109787348Y-49974163D01*
X109787352Y-49974164D01*
X109787364Y-49974168D01*
X109972457Y-50016414D01*
X110087381Y-50042645D01*
X110088443Y-50042899D01*
X110088546Y-50042910D01*
X110088548Y-50042911D01*
X110088550Y-50042911D01*
X110088557Y-50042911D01*
X110088562Y-50042913D01*
X110293206Y-50065970D01*
X110375691Y-50075263D01*
X110392511Y-50077159D01*
X110394994Y-50077500D01*
X110704468Y-50077500D01*
X110714263Y-50077500D01*
X110721862Y-50075539D01*
X110861356Y-50059822D01*
X111010749Y-50042990D01*
X111011390Y-50042922D01*
X111011437Y-50042914D01*
X111011448Y-50042911D01*
X111011452Y-50042911D01*
X111312636Y-49974168D01*
X111604229Y-49872135D01*
X111882565Y-49738095D01*
X112144143Y-49573735D01*
X112385674Y-49381120D01*
X112604120Y-49162674D01*
X112796735Y-48921143D01*
X112961095Y-48659565D01*
X113095135Y-48381229D01*
X113197168Y-48089636D01*
X113265911Y-47788452D01*
X113265915Y-47788422D01*
X113282822Y-47638356D01*
X113300500Y-47481465D01*
X113300500Y-47172535D01*
X113300499Y-47172525D01*
X113300499Y-47172521D01*
X175059500Y-47172521D01*
X175059500Y-47481477D01*
X175094083Y-47788422D01*
X175094089Y-47788455D01*
X175162831Y-48089635D01*
X175162832Y-48089638D01*
X175162835Y-48089650D01*
X175162842Y-48089671D01*
X175264859Y-48381216D01*
X175264862Y-48381222D01*
X175264868Y-48381236D01*
X175385589Y-48631917D01*
X175398902Y-48659560D01*
X175399106Y-48659918D01*
X175399792Y-48660977D01*
X175563265Y-48921143D01*
X175755880Y-49162674D01*
X175974326Y-49381120D01*
X176215857Y-49573735D01*
X176477435Y-49738095D01*
X176755771Y-49872135D01*
X176755777Y-49872137D01*
X176852968Y-49906146D01*
X177047327Y-49974156D01*
X177047348Y-49974163D01*
X177047352Y-49974164D01*
X177047364Y-49974168D01*
X177232457Y-50016414D01*
X177347381Y-50042645D01*
X177348443Y-50042899D01*
X177348546Y-50042910D01*
X177348548Y-50042911D01*
X177348550Y-50042911D01*
X177348557Y-50042911D01*
X177348562Y-50042913D01*
X177553206Y-50065970D01*
X177635691Y-50075263D01*
X177652511Y-50077159D01*
X177654994Y-50077500D01*
X177964468Y-50077500D01*
X177974263Y-50077500D01*
X177981862Y-50075539D01*
X178121356Y-50059822D01*
X178270749Y-50042990D01*
X178271390Y-50042922D01*
X178271437Y-50042914D01*
X178271448Y-50042911D01*
X178271452Y-50042911D01*
X178572636Y-49974168D01*
X178864229Y-49872135D01*
X179142565Y-49738095D01*
X179404143Y-49573735D01*
X179645674Y-49381120D01*
X179864120Y-49162674D01*
X180056735Y-48921143D01*
X180221095Y-48659565D01*
X180355135Y-48381229D01*
X180457168Y-48089636D01*
X180525911Y-47788452D01*
X180525915Y-47788422D01*
X180542822Y-47638356D01*
X180560500Y-47481465D01*
X180560500Y-47172535D01*
X180548970Y-47070206D01*
X180525913Y-46865562D01*
X180525910Y-46865544D01*
X180457168Y-46564364D01*
X180457164Y-46564352D01*
X180389146Y-46369968D01*
X180355135Y-46272771D01*
X180221095Y-45994435D01*
X180056735Y-45732857D01*
X179864120Y-45491326D01*
X179645674Y-45272880D01*
X179645671Y-45272878D01*
X179584334Y-45223963D01*
X179404143Y-45080265D01*
X179143977Y-44916792D01*
X179142918Y-44916106D01*
X179142560Y-44915902D01*
X179114917Y-44902589D01*
X178864236Y-44781868D01*
X178864227Y-44781864D01*
X178864216Y-44781859D01*
X178572671Y-44679842D01*
X178572650Y-44679835D01*
X178572638Y-44679832D01*
X178572635Y-44679831D01*
X178449601Y-44651749D01*
X178271457Y-44611089D01*
X178271422Y-44611083D01*
X177964477Y-44576500D01*
X177964471Y-44576500D01*
X177964465Y-44576500D01*
X177655535Y-44576500D01*
X177655528Y-44576500D01*
X177655521Y-44576500D01*
X177348576Y-44611083D01*
X177348541Y-44611089D01*
X177047360Y-44679832D01*
X177047348Y-44679835D01*
X177047327Y-44679842D01*
X176755782Y-44781859D01*
X176755767Y-44781865D01*
X176755765Y-44781866D01*
X176477442Y-44915899D01*
X176215859Y-45080263D01*
X175974326Y-45272878D01*
X175755878Y-45491326D01*
X175563263Y-45732859D01*
X175398899Y-45994442D01*
X175264866Y-46272765D01*
X175264865Y-46272767D01*
X175264859Y-46272782D01*
X175162842Y-46564327D01*
X175162835Y-46564348D01*
X175162832Y-46564360D01*
X175094089Y-46865541D01*
X175094083Y-46865576D01*
X175059500Y-47172521D01*
X113300499Y-47172521D01*
X113265913Y-46865562D01*
X113265910Y-46865544D01*
X113197168Y-46564364D01*
X113197164Y-46564352D01*
X113129146Y-46369968D01*
X113095135Y-46272771D01*
X112961095Y-45994435D01*
X112796735Y-45732857D01*
X112604120Y-45491326D01*
X112385674Y-45272880D01*
X112385671Y-45272878D01*
X112324334Y-45223963D01*
X112144143Y-45080265D01*
X111883977Y-44916792D01*
X111882918Y-44916106D01*
X111882560Y-44915902D01*
X111854917Y-44902589D01*
X111779747Y-44866389D01*
X142730800Y-44866389D01*
X142730800Y-45289611D01*
X142757898Y-45460701D01*
X142811427Y-45625445D01*
X142890068Y-45779788D01*
X142991886Y-45919928D01*
X143114372Y-46042414D01*
X143254512Y-46144232D01*
X143408855Y-46222873D01*
X143573599Y-46276402D01*
X143744689Y-46303500D01*
X143744690Y-46303500D01*
X143917910Y-46303500D01*
X143917911Y-46303500D01*
X144089001Y-46276402D01*
X144253745Y-46222873D01*
X144408088Y-46144232D01*
X144548228Y-46042414D01*
X144670714Y-45919928D01*
X144772532Y-45779788D01*
X144851173Y-45625445D01*
X144904702Y-45460701D01*
X144931800Y-45289611D01*
X144931800Y-44866389D01*
X145230800Y-44866389D01*
X145230800Y-45289611D01*
X145257898Y-45460701D01*
X145311427Y-45625445D01*
X145390068Y-45779788D01*
X145491886Y-45919928D01*
X145614372Y-46042414D01*
X145754512Y-46144232D01*
X145908855Y-46222873D01*
X146073599Y-46276402D01*
X146244689Y-46303500D01*
X146244690Y-46303500D01*
X146417910Y-46303500D01*
X146417911Y-46303500D01*
X146589001Y-46276402D01*
X146753745Y-46222873D01*
X146908088Y-46144232D01*
X147048228Y-46042414D01*
X147170714Y-45919928D01*
X147272532Y-45779788D01*
X147351173Y-45625445D01*
X147404702Y-45460701D01*
X147431800Y-45289611D01*
X147431800Y-44866389D01*
X150230800Y-44866389D01*
X150230800Y-45289611D01*
X150257898Y-45460701D01*
X150311427Y-45625445D01*
X150390068Y-45779788D01*
X150491886Y-45919928D01*
X150614372Y-46042414D01*
X150754512Y-46144232D01*
X150908855Y-46222873D01*
X151073599Y-46276402D01*
X151244689Y-46303500D01*
X151244690Y-46303500D01*
X151417910Y-46303500D01*
X151417911Y-46303500D01*
X151589001Y-46276402D01*
X151753745Y-46222873D01*
X151908088Y-46144232D01*
X152048228Y-46042414D01*
X152170714Y-45919928D01*
X152272532Y-45779788D01*
X152351173Y-45625445D01*
X152404702Y-45460701D01*
X152431800Y-45289611D01*
X152431800Y-44866389D01*
X152730800Y-44866389D01*
X152730800Y-45289611D01*
X152757898Y-45460701D01*
X152811427Y-45625445D01*
X152890068Y-45779788D01*
X152991886Y-45919928D01*
X153114372Y-46042414D01*
X153254512Y-46144232D01*
X153408855Y-46222873D01*
X153573599Y-46276402D01*
X153744689Y-46303500D01*
X153744690Y-46303500D01*
X153917910Y-46303500D01*
X153917911Y-46303500D01*
X154089001Y-46276402D01*
X154253745Y-46222873D01*
X154408088Y-46144232D01*
X154548228Y-46042414D01*
X154670714Y-45919928D01*
X154772532Y-45779788D01*
X154851173Y-45625445D01*
X154904702Y-45460701D01*
X154931800Y-45289611D01*
X154931800Y-44866389D01*
X154904702Y-44695299D01*
X154851173Y-44530555D01*
X154772532Y-44376212D01*
X154772530Y-44376209D01*
X154772529Y-44376207D01*
X154771430Y-44374693D01*
X154771428Y-44374692D01*
X154769185Y-44371605D01*
X154769168Y-44371577D01*
X154762711Y-44362681D01*
X154762668Y-44362634D01*
X154720887Y-44305129D01*
X154720887Y-44305128D01*
X154720885Y-44305126D01*
X154720884Y-44305125D01*
X155230800Y-44305125D01*
X155230800Y-45850876D01*
X155230959Y-45852806D01*
X155231185Y-45854454D01*
X155237207Y-45910482D01*
X155264990Y-45984971D01*
X155287502Y-46045328D01*
X155287503Y-46045330D01*
X155287504Y-46045332D01*
X155287505Y-46045333D01*
X155373750Y-46160542D01*
X155373752Y-46160544D01*
X155373755Y-46160547D01*
X155488964Y-46246793D01*
X155488971Y-46246797D01*
X155538455Y-46265253D01*
X155573813Y-46291721D01*
X155630744Y-46297835D01*
X155630743Y-46297839D01*
X155630758Y-46297836D01*
X155683427Y-46303500D01*
X156979172Y-46303499D01*
X157038783Y-46297091D01*
X157173631Y-46246796D01*
X157288846Y-46160546D01*
X157375096Y-46045331D01*
X157425391Y-45910483D01*
X157431800Y-45850873D01*
X157431799Y-44305128D01*
X157425391Y-44245517D01*
X157421868Y-44236072D01*
X157375097Y-44110671D01*
X157375093Y-44110664D01*
X157288847Y-43995455D01*
X157288844Y-43995452D01*
X157288842Y-43995450D01*
X157230916Y-43952086D01*
X157173635Y-43909206D01*
X157173632Y-43909204D01*
X157173630Y-43909203D01*
X157173628Y-43909202D01*
X157124144Y-43890746D01*
X157088797Y-43864284D01*
X156986883Y-43853328D01*
X156982042Y-43852500D01*
X156979181Y-43852500D01*
X156979173Y-43852500D01*
X156979164Y-43852500D01*
X155683429Y-43852500D01*
X155683423Y-43852500D01*
X155681492Y-43852659D01*
X155679845Y-43852885D01*
X155623816Y-43858908D01*
X155538452Y-43890747D01*
X155488966Y-43909204D01*
X155488965Y-43909205D01*
X155373756Y-43995450D01*
X155373750Y-43995456D01*
X155287505Y-44110665D01*
X155287503Y-44110668D01*
X155237208Y-44245516D01*
X155230800Y-44305125D01*
X154720884Y-44305125D01*
X154677578Y-44245519D01*
X154670716Y-44236074D01*
X154548230Y-44113588D01*
X154548228Y-44113586D01*
X154408088Y-44011768D01*
X154376062Y-43995450D01*
X154253749Y-43933128D01*
X154097832Y-43882467D01*
X154093310Y-43880614D01*
X154084120Y-43878444D01*
X154079357Y-43878070D01*
X154068813Y-43876400D01*
X153957571Y-43858781D01*
X153941707Y-43856268D01*
X153917914Y-43852500D01*
X153917911Y-43852500D01*
X153744689Y-43852500D01*
X153744688Y-43852500D01*
X153705026Y-43858781D01*
X153705025Y-43858780D01*
X153573604Y-43879596D01*
X153408849Y-43933129D01*
X153254510Y-44011768D01*
X153174556Y-44069859D01*
X153174555Y-44069859D01*
X153126241Y-44104961D01*
X153118864Y-44109092D01*
X152987393Y-44240563D01*
X152983261Y-44247942D01*
X152891171Y-44374693D01*
X152890068Y-44376211D01*
X152890066Y-44376213D01*
X152890064Y-44376218D01*
X152811429Y-44530547D01*
X152757898Y-44695297D01*
X152757896Y-44695303D01*
X152744187Y-44781861D01*
X152744188Y-44781862D01*
X152730800Y-44866389D01*
X152431800Y-44866389D01*
X152404702Y-44695299D01*
X152351173Y-44530555D01*
X152272532Y-44376212D01*
X152170714Y-44236072D01*
X152048228Y-44113586D01*
X151908088Y-44011768D01*
X151876062Y-43995450D01*
X151753749Y-43933128D01*
X151597832Y-43882467D01*
X151593310Y-43880614D01*
X151584120Y-43878444D01*
X151579357Y-43878070D01*
X151568813Y-43876400D01*
X151457571Y-43858781D01*
X151441707Y-43856268D01*
X151417914Y-43852500D01*
X151417911Y-43852500D01*
X151244689Y-43852500D01*
X151244688Y-43852500D01*
X151205026Y-43858781D01*
X151205025Y-43858780D01*
X151073604Y-43879596D01*
X150908849Y-43933129D01*
X150754510Y-44011768D01*
X150674556Y-44069859D01*
X150674555Y-44069859D01*
X150626241Y-44104961D01*
X150618864Y-44109092D01*
X150487393Y-44240563D01*
X150483261Y-44247942D01*
X150391171Y-44374693D01*
X150390068Y-44376211D01*
X150390066Y-44376213D01*
X150390064Y-44376218D01*
X150311429Y-44530547D01*
X150257898Y-44695297D01*
X150257896Y-44695303D01*
X150244187Y-44781861D01*
X150244188Y-44781862D01*
X150230800Y-44866389D01*
X147431800Y-44866389D01*
X147404702Y-44695299D01*
X147351173Y-44530555D01*
X147272532Y-44376212D01*
X147170714Y-44236072D01*
X147048228Y-44113586D01*
X146908088Y-44011768D01*
X146876062Y-43995450D01*
X146753749Y-43933128D01*
X146597832Y-43882467D01*
X146593310Y-43880614D01*
X146584120Y-43878444D01*
X146579357Y-43878070D01*
X146568813Y-43876400D01*
X146457571Y-43858781D01*
X146441707Y-43856268D01*
X146417914Y-43852500D01*
X146417911Y-43852500D01*
X146244689Y-43852500D01*
X146244688Y-43852500D01*
X146205026Y-43858781D01*
X146205025Y-43858780D01*
X146073604Y-43879596D01*
X145908849Y-43933129D01*
X145754510Y-44011768D01*
X145674556Y-44069859D01*
X145674555Y-44069859D01*
X145626241Y-44104961D01*
X145618864Y-44109092D01*
X145487393Y-44240563D01*
X145483261Y-44247942D01*
X145391171Y-44374693D01*
X145390068Y-44376211D01*
X145390066Y-44376213D01*
X145390064Y-44376218D01*
X145311429Y-44530547D01*
X145257898Y-44695297D01*
X145257896Y-44695303D01*
X145244187Y-44781861D01*
X145244188Y-44781862D01*
X145230800Y-44866389D01*
X144931800Y-44866389D01*
X144904702Y-44695299D01*
X144851173Y-44530555D01*
X144772532Y-44376212D01*
X144670714Y-44236072D01*
X144548228Y-44113586D01*
X144408088Y-44011768D01*
X144376062Y-43995450D01*
X144253749Y-43933128D01*
X144097832Y-43882467D01*
X144093310Y-43880614D01*
X144084120Y-43878444D01*
X144079357Y-43878070D01*
X144068813Y-43876400D01*
X143957571Y-43858781D01*
X143941707Y-43856268D01*
X143917914Y-43852500D01*
X143917911Y-43852500D01*
X143744689Y-43852500D01*
X143744688Y-43852500D01*
X143705026Y-43858781D01*
X143705025Y-43858780D01*
X143573604Y-43879596D01*
X143408849Y-43933129D01*
X143254510Y-44011768D01*
X143174556Y-44069859D01*
X143174555Y-44069859D01*
X143126241Y-44104961D01*
X143118864Y-44109092D01*
X142987393Y-44240563D01*
X142983261Y-44247942D01*
X142891171Y-44374693D01*
X142890068Y-44376211D01*
X142890066Y-44376213D01*
X142890064Y-44376218D01*
X142811429Y-44530547D01*
X142757898Y-44695297D01*
X142757896Y-44695303D01*
X142744187Y-44781861D01*
X142744188Y-44781862D01*
X142730800Y-44866389D01*
X111779747Y-44866389D01*
X111604236Y-44781868D01*
X111604227Y-44781864D01*
X111604216Y-44781859D01*
X111312671Y-44679842D01*
X111312650Y-44679835D01*
X111312638Y-44679832D01*
X111312635Y-44679831D01*
X111189601Y-44651749D01*
X111011457Y-44611089D01*
X111011422Y-44611083D01*
X110704477Y-44576500D01*
X110704471Y-44576500D01*
X110704465Y-44576500D01*
X110395535Y-44576500D01*
X110395528Y-44576500D01*
X110395521Y-44576500D01*
X110088576Y-44611083D01*
X110088541Y-44611089D01*
X109787360Y-44679832D01*
X109787348Y-44679835D01*
X109787327Y-44679842D01*
X109495782Y-44781859D01*
X109495767Y-44781865D01*
X109495765Y-44781866D01*
X109217442Y-44915899D01*
X108955859Y-45080263D01*
X108714326Y-45272878D01*
X108495878Y-45491326D01*
X108303263Y-45732859D01*
X108138899Y-45994442D01*
X108004866Y-46272765D01*
X108004865Y-46272767D01*
X108004859Y-46272782D01*
X107902842Y-46564327D01*
X107902835Y-46564348D01*
X107902832Y-46564360D01*
X107834089Y-46865541D01*
X107834083Y-46865576D01*
X107799500Y-47172521D01*
X102224000Y-47172521D01*
X102224000Y-40804829D01*
X102229023Y-40769893D01*
X102233427Y-40754895D01*
X102271172Y-40696144D01*
X102272541Y-40694957D01*
X102327420Y-40667477D01*
X102334979Y-40665833D01*
X102361332Y-40663000D01*
X181595170Y-40663000D01*
X181630106Y-40668023D01*
G37*
%TD.AperFunction*%
%TD*%
%TA.AperFunction,Conductor*%
%TO.N,/System overview/Block diagram/S19V5*%
G36*
X173867677Y-53128685D02*
G01*
X173888319Y-53145319D01*
X174069681Y-53326681D01*
X174103166Y-53388004D01*
X174106000Y-53414362D01*
X174106000Y-55343638D01*
X174086315Y-55410677D01*
X174069681Y-55431319D01*
X173888319Y-55612681D01*
X173826996Y-55646166D01*
X173800638Y-55649000D01*
X167247999Y-55649000D01*
X166486000Y-56410999D01*
X166486000Y-62963638D01*
X166466315Y-63030677D01*
X166449681Y-63051319D01*
X165506319Y-63994681D01*
X165444996Y-64028166D01*
X165418638Y-64031000D01*
X161457362Y-64031000D01*
X161390323Y-64011315D01*
X161369681Y-63994681D01*
X160426319Y-63051319D01*
X160392834Y-62989996D01*
X160390000Y-62963638D01*
X160390000Y-53668362D01*
X160409685Y-53601323D01*
X160426319Y-53580681D01*
X160861681Y-53145319D01*
X160923004Y-53111834D01*
X160949362Y-53109000D01*
X173800638Y-53109000D01*
X173867677Y-53128685D01*
G37*
%TD.AperFunction*%
%TD*%
%TA.AperFunction,Conductor*%
%TO.N,/System overview/Block diagram/DCDC converter 3V3/S19V5_2*%
G36*
X185747706Y-74700690D02*
G01*
X185896381Y-74725500D01*
X194321619Y-74725500D01*
X194470293Y-74700691D01*
X194490702Y-74699000D01*
X195844500Y-74699000D01*
X195911539Y-74718685D01*
X195957294Y-74771489D01*
X195968500Y-74823000D01*
X195968500Y-79655000D01*
X195948815Y-79722039D01*
X195896011Y-79767794D01*
X195844500Y-79779000D01*
X184384772Y-79779000D01*
X184317733Y-79759315D01*
X184271978Y-79706511D01*
X184260772Y-79655024D01*
X184260735Y-79461131D01*
X184260523Y-78347530D01*
X189057500Y-78347530D01*
X189057500Y-78554469D01*
X189097868Y-78757412D01*
X189097870Y-78757420D01*
X189177058Y-78948596D01*
X189292024Y-79120657D01*
X189438342Y-79266975D01*
X189438345Y-79266977D01*
X189610402Y-79381941D01*
X189801580Y-79461130D01*
X190004530Y-79501499D01*
X190004534Y-79501500D01*
X190004535Y-79501500D01*
X190211466Y-79501500D01*
X190211467Y-79501499D01*
X190414420Y-79461130D01*
X190605598Y-79381941D01*
X190777655Y-79266977D01*
X190923977Y-79120655D01*
X191038941Y-78948598D01*
X191118130Y-78757420D01*
X191158500Y-78554465D01*
X191158500Y-78347535D01*
X191118130Y-78144580D01*
X191038941Y-77953402D01*
X190923977Y-77781345D01*
X190923975Y-77781342D01*
X190777657Y-77635024D01*
X190691626Y-77577541D01*
X190605598Y-77520059D01*
X190414420Y-77440870D01*
X190414412Y-77440868D01*
X190211469Y-77400500D01*
X190211465Y-77400500D01*
X190004535Y-77400500D01*
X190004530Y-77400500D01*
X189801587Y-77440868D01*
X189801579Y-77440870D01*
X189610403Y-77520058D01*
X189438342Y-77635024D01*
X189292024Y-77781342D01*
X189177058Y-77953403D01*
X189097870Y-78144579D01*
X189097868Y-78144587D01*
X189057500Y-78347530D01*
X184260523Y-78347530D01*
X184259852Y-74823024D01*
X184279524Y-74755980D01*
X184332319Y-74710215D01*
X184383852Y-74699000D01*
X185727298Y-74699000D01*
X185747706Y-74700690D01*
G37*
%TD.AperFunction*%
%TD*%
M02*
