%TF.GenerationSoftware,KiCad,Pcbnew,10.0.5-unknown-202607221313~667fa36054~ubuntu25.10.1*%
%TF.CreationDate,2026-10-08T19:49:46+00:00*%
%TF.ProjectId,ktest,6b746573-742e-46b6-9963-61645f706362,0.0.2*%
%TF.SameCoordinates,Original*%
%TF.FileFunction,Paste,Top*%
%TF.FilePolarity,Positive*%
%FSLAX46Y46*%
G04 Gerber Fmt 4.6, Leading zero omitted, Abs format (unit mm)*
G04 Created by KiCad (PCBNEW 10.0.5-unknown-202607221313~667fa36054~ubuntu25.10.1) date 2026-10-08 19:49:46*
%MOMM*%
%LPD*%
G01*
G04 APERTURE LIST*
G04 Aperture macros list*
%AMRoundRect*
0 Rectangle with rounded corners*
0 $1 Rounding radius*
0 $2 $3 $4 $5 $6 $7 $8 $9 X,Y pos of 4 corners*
0 Add a 4 corners polygon primitive as box body*
4,1,4,$2,$3,$4,$5,$6,$7,$8,$9,$2,$3,0*
0 Add four circle primitives for the rounded corners*
1,1,$1+$1,$2,$3*
1,1,$1+$1,$4,$5*
1,1,$1+$1,$6,$7*
1,1,$1+$1,$8,$9*
0 Add four rect primitives between the rounded corners*
20,1,$1+$1,$2,$3,$4,$5,0*
20,1,$1+$1,$4,$5,$6,$7,0*
20,1,$1+$1,$6,$7,$8,$9,0*
20,1,$1+$1,$8,$9,$2,$3,0*%
%AMFreePoly0*
4,1,33,0.340887,0.456921,0.417938,0.405438,0.469421,0.328387,0.487500,0.237500,0.487500,0.150000,1.000000,0.150000,1.029264,0.147118,1.083336,0.124720,1.124720,0.083336,1.147118,0.029264,1.147118,-0.029264,1.124720,-0.083336,1.083336,-0.124720,1.029264,-0.147118,1.000000,-0.150000,0.487500,-0.150000,0.487500,-0.237500,0.469421,-0.328387,0.417938,-0.405438,0.340887,-0.456921,
0.250000,-0.475000,-0.250000,-0.475000,-0.340887,-0.456921,-0.417938,-0.405438,-0.469421,-0.328387,-0.487500,-0.237500,-0.487500,0.237500,-0.469421,0.328387,-0.417938,0.405438,-0.340887,0.456921,-0.250000,0.475000,0.250000,0.475000,0.340887,0.456921,0.340887,0.456921,$1*%
G04 Aperture macros list end*
%ADD10RoundRect,0.237500X-0.237500X0.300000X-0.237500X-0.300000X0.237500X-0.300000X0.237500X0.300000X0*%
%ADD11RoundRect,0.237500X0.237500X-0.250000X0.237500X0.250000X-0.237500X0.250000X-0.237500X-0.250000X0*%
%ADD12FreePoly0,90.000000*%
%ADD13FreePoly0,270.000000*%
%ADD14RoundRect,0.237500X-0.300000X-0.237500X0.300000X-0.237500X0.300000X0.237500X-0.300000X0.237500X0*%
%ADD15RoundRect,0.250000X0.412500X1.100000X-0.412500X1.100000X-0.412500X-1.100000X0.412500X-1.100000X0*%
%ADD16RoundRect,0.298387X-0.626613X-1.401613X0.626613X-1.401613X0.626613X1.401613X-0.626613X1.401613X0*%
%ADD17RoundRect,0.237500X0.237500X-0.300000X0.237500X0.300000X-0.237500X0.300000X-0.237500X-0.300000X0*%
%ADD18RoundRect,0.237500X0.300000X0.237500X-0.300000X0.237500X-0.300000X-0.237500X0.300000X-0.237500X0*%
%ADD19FreePoly0,180.000000*%
%ADD20FreePoly0,0.000000*%
%ADD21RoundRect,0.237500X-0.237500X0.250000X-0.237500X-0.250000X0.237500X-0.250000X0.237500X0.250000X0*%
%ADD22R,3.100000X2.600000*%
%ADD23R,0.600000X1.550000*%
%ADD24RoundRect,0.237500X0.250000X0.237500X-0.250000X0.237500X-0.250000X-0.237500X0.250000X-0.237500X0*%
%ADD25RoundRect,0.250000X-0.625000X0.400000X-0.625000X-0.400000X0.625000X-0.400000X0.625000X0.400000X0*%
%ADD26RoundRect,0.250000X0.400000X0.625000X-0.400000X0.625000X-0.400000X-0.625000X0.400000X-0.625000X0*%
%ADD27RoundRect,0.250000X6.227000X0.829500X-6.227000X0.829500X-6.227000X-0.829500X6.227000X-0.829500X0*%
%ADD28RoundRect,0.250000X0.512000X0.829500X-0.512000X0.829500X-0.512000X-0.829500X0.512000X-0.829500X0*%
%ADD29RoundRect,0.250000X-0.650000X0.412500X-0.650000X-0.412500X0.650000X-0.412500X0.650000X0.412500X0*%
%ADD30RoundRect,0.250000X0.650000X-0.800000X0.650000X0.800000X-0.650000X0.800000X-0.650000X-0.800000X0*%
%ADD31RoundRect,0.162500X-0.575000X-0.162500X0.575000X-0.162500X0.575000X0.162500X-0.575000X0.162500X0*%
%ADD32RoundRect,0.250000X-0.400000X-0.625000X0.400000X-0.625000X0.400000X0.625000X-0.400000X0.625000X0*%
%ADD33RoundRect,0.150000X-0.150000X0.512500X-0.150000X-0.512500X0.150000X-0.512500X0.150000X0.512500X0*%
%ADD34RoundRect,0.125000X-0.125000X0.625000X-0.125000X-0.625000X0.125000X-0.625000X0.125000X0.625000X0*%
%ADD35RoundRect,0.125000X-0.625000X0.125000X-0.625000X-0.125000X0.625000X-0.125000X0.625000X0.125000X0*%
%ADD36RoundRect,0.250000X-1.750000X-1.000000X1.750000X-1.000000X1.750000X1.000000X-1.750000X1.000000X0*%
%ADD37RoundRect,0.250000X-0.412500X-1.100000X0.412500X-1.100000X0.412500X1.100000X-0.412500X1.100000X0*%
%ADD38RoundRect,0.150000X0.150000X-0.587500X0.150000X0.587500X-0.150000X0.587500X-0.150000X-0.587500X0*%
G04 APERTURE END LIST*
D10*
%TO.C,C27*%
X121904000Y-74977500D03*
X121904000Y-76702500D03*
%TD*%
D11*
%TO.C,R10*%
X96504000Y-76752500D03*
X96504000Y-74927500D03*
%TD*%
D12*
%TO.C,JP13*%
X96758000Y-98342500D03*
D13*
X96758000Y-96517500D03*
%TD*%
D10*
%TO.C,C14*%
X104886000Y-78533500D03*
X104886000Y-80258500D03*
%TD*%
D14*
%TO.C,C6*%
X137805500Y-96414000D03*
X139530500Y-96414000D03*
%TD*%
D15*
%TO.C,C18*%
X145056500Y-100986000D03*
X141931500Y-100986000D03*
%TD*%
D11*
%TO.C,R9*%
X112252000Y-82086500D03*
X112252000Y-80261500D03*
%TD*%
D16*
%TO.C,L1*%
X140211000Y-109622000D03*
X145761000Y-109622000D03*
%TD*%
D17*
%TO.C,C23*%
X118348000Y-76702500D03*
X118348000Y-74977500D03*
%TD*%
D18*
%TO.C,C10*%
X108796500Y-82952000D03*
X107071500Y-82952000D03*
%TD*%
D17*
%TO.C,C12*%
X135874000Y-110230500D03*
X135874000Y-108505500D03*
%TD*%
D10*
%TO.C,C9*%
X138160000Y-105965500D03*
X138160000Y-107690500D03*
%TD*%
D11*
%TO.C,JP20*%
X106156000Y-107232500D03*
X106156000Y-105407500D03*
%TD*%
D19*
%TO.C,JP8*%
X87256500Y-94890000D03*
D20*
X85431500Y-94890000D03*
%TD*%
D21*
%TO.C,R14*%
X107172000Y-110741500D03*
X107172000Y-112566500D03*
%TD*%
D19*
%TO.C,JP2*%
X87256500Y-78634000D03*
D20*
X85431500Y-78634000D03*
%TD*%
D22*
%TO.C,U1*%
X137906000Y-101240000D03*
D23*
X139811000Y-98540000D03*
X138541000Y-98540000D03*
X137271000Y-98540000D03*
X136001000Y-98540000D03*
X136001000Y-103940000D03*
X137271000Y-103940000D03*
X138541000Y-103940000D03*
X139811000Y-103940000D03*
%TD*%
D11*
%TO.C,R12*%
X120126000Y-76752500D03*
X120126000Y-74927500D03*
%TD*%
D20*
%TO.C,JP15*%
X116419500Y-91080000D03*
D19*
X118244500Y-91080000D03*
%TD*%
D24*
%TO.C,R13*%
X115958500Y-70760000D03*
X114133500Y-70760000D03*
%TD*%
D17*
%TO.C,C3*%
X93710000Y-107182500D03*
X93710000Y-105457500D03*
%TD*%
D25*
%TO.C,JP14*%
X121142000Y-94610000D03*
X121142000Y-97710000D03*
%TD*%
D20*
%TO.C,JP16*%
X116419500Y-93112000D03*
D19*
X118244500Y-93112000D03*
%TD*%
D11*
%TO.C,R7*%
X134096000Y-104184500D03*
X134096000Y-102359500D03*
%TD*%
D26*
%TO.C,JP5*%
X88656000Y-85238000D03*
X85556000Y-85238000D03*
%TD*%
D19*
%TO.C,JP10*%
X87256500Y-99970000D03*
D20*
X85431500Y-99970000D03*
%TD*%
D19*
%TO.C,JP21*%
X111894500Y-103526000D03*
D20*
X110069500Y-103526000D03*
%TD*%
D17*
%TO.C,C16*%
X98536000Y-98292500D03*
X98536000Y-96567500D03*
%TD*%
D27*
%TO.C,J8*%
X144002000Y-79332500D03*
D28*
X149717000Y-75903500D03*
X138287000Y-75903500D03*
%TD*%
D29*
%TO.C,C4*%
X141970000Y-95105500D03*
X141970000Y-98230500D03*
%TD*%
D18*
%TO.C,C26*%
X115908500Y-68982000D03*
X114183500Y-68982000D03*
%TD*%
D11*
%TO.C,R2*%
X104378000Y-107232500D03*
X104378000Y-105407500D03*
%TD*%
D14*
%TO.C,C1*%
X81417500Y-110638000D03*
X83142500Y-110638000D03*
%TD*%
D11*
%TO.C,R5*%
X95488000Y-107232500D03*
X95488000Y-105407500D03*
%TD*%
D30*
%TO.C,Y1*%
X109084000Y-80846000D03*
X109084000Y-77946000D03*
X106784000Y-77946000D03*
X106784000Y-80846000D03*
%TD*%
D18*
%TO.C,C25*%
X123020500Y-86000000D03*
X121295500Y-86000000D03*
%TD*%
D11*
%TO.C,R15*%
X114792000Y-108502500D03*
X114792000Y-106677500D03*
%TD*%
D24*
%TO.C,JP6*%
X87256500Y-87524000D03*
X85431500Y-87524000D03*
%TD*%
D31*
%TO.C,U3*%
X125137500Y-81555000D03*
X125137500Y-82825000D03*
X125137500Y-84095000D03*
X125137500Y-85365000D03*
X125137500Y-86635000D03*
X125137500Y-87905000D03*
X125137500Y-89175000D03*
X125137500Y-90445000D03*
X130862500Y-90445000D03*
X130862500Y-89175000D03*
X130862500Y-87905000D03*
X130862500Y-86635000D03*
X130862500Y-85365000D03*
X130862500Y-84095000D03*
X130862500Y-82825000D03*
X130862500Y-81555000D03*
%TD*%
D32*
%TO.C,JP19*%
X114766000Y-80158000D03*
X117866000Y-80158000D03*
%TD*%
D14*
%TO.C,C13*%
X110119500Y-86762000D03*
X111844500Y-86762000D03*
%TD*%
D11*
%TO.C,R6*%
X134096000Y-110280500D03*
X134096000Y-108455500D03*
%TD*%
D14*
%TO.C,C11*%
X110119500Y-84984000D03*
X111844500Y-84984000D03*
%TD*%
D26*
%TO.C,JP7*%
X88656000Y-91842000D03*
X85556000Y-91842000D03*
%TD*%
D15*
%TO.C,C17*%
X145056500Y-104288000D03*
X141931500Y-104288000D03*
%TD*%
D21*
%TO.C,R3*%
X134096000Y-98295500D03*
X134096000Y-100120500D03*
%TD*%
D17*
%TO.C,C5*%
X102600000Y-107182500D03*
X102600000Y-105457500D03*
%TD*%
D33*
%TO.C,U4*%
X108376000Y-101118500D03*
X107426000Y-101118500D03*
X106476000Y-101118500D03*
X106476000Y-103393500D03*
X107426000Y-103393500D03*
X108376000Y-103393500D03*
%TD*%
D17*
%TO.C,C19*%
X100314000Y-98292500D03*
X100314000Y-96567500D03*
%TD*%
D20*
%TO.C,JP17*%
X116419500Y-95144000D03*
D19*
X118244500Y-95144000D03*
%TD*%
D17*
%TO.C,C20*%
X98497900Y-94736500D03*
X98497900Y-93011500D03*
%TD*%
D34*
%TO.C,U2*%
X107940000Y-87159000D03*
X107140000Y-87159000D03*
X106340000Y-87159000D03*
X105540000Y-87159000D03*
X104740000Y-87159000D03*
X103940000Y-87159000D03*
X103140000Y-87159000D03*
X102340000Y-87159000D03*
D35*
X100965000Y-88534000D03*
X100965000Y-89334000D03*
X100965000Y-90134000D03*
X100965000Y-90934000D03*
X100965000Y-91734000D03*
X100965000Y-92534000D03*
X100965000Y-93334000D03*
X100965000Y-94134000D03*
D34*
X102340000Y-95509000D03*
X103140000Y-95509000D03*
X103940000Y-95509000D03*
X104740000Y-95509000D03*
X105540000Y-95509000D03*
X106340000Y-95509000D03*
X107140000Y-95509000D03*
X107940000Y-95509000D03*
D35*
X109315000Y-94134000D03*
X109315000Y-93334000D03*
X109315000Y-92534000D03*
X109315000Y-91734000D03*
X109315000Y-90934000D03*
X109315000Y-90134000D03*
X109315000Y-89334000D03*
X109315000Y-88534000D03*
%TD*%
D36*
%TO.C,C24*%
X140002000Y-86254000D03*
X148002000Y-86254000D03*
%TD*%
D19*
%TO.C,JP11*%
X87256500Y-102510000D03*
D20*
X85431500Y-102510000D03*
%TD*%
D26*
%TO.C,JP4*%
X88656000Y-82698000D03*
X85556000Y-82698000D03*
%TD*%
D21*
%TO.C,R8*%
X102346000Y-78991500D03*
X102346000Y-80816500D03*
%TD*%
%TO.C,R11*%
X98282000Y-74927500D03*
X98282000Y-76752500D03*
%TD*%
D37*
%TO.C,C15*%
X147265500Y-104288000D03*
X150390500Y-104288000D03*
%TD*%
D19*
%TO.C,JP1*%
X87256500Y-76856000D03*
D20*
X85431500Y-76856000D03*
%TD*%
D10*
%TO.C,C7*%
X97266000Y-105457500D03*
X97266000Y-107182500D03*
%TD*%
D11*
%TO.C,R1*%
X91932000Y-107232500D03*
X91932000Y-105407500D03*
%TD*%
D29*
%TO.C,C2*%
X144510000Y-95079300D03*
X144510000Y-98204300D03*
%TD*%
D11*
%TO.C,R4*%
X100822000Y-107232500D03*
X100822000Y-105407500D03*
%TD*%
D18*
%TO.C,C22*%
X115908500Y-72538000D03*
X114183500Y-72538000D03*
%TD*%
D19*
%TO.C,JP3*%
X87256500Y-80412000D03*
D20*
X85431500Y-80412000D03*
%TD*%
D38*
%TO.C,D1*%
X98348000Y-80587500D03*
X100248000Y-80587500D03*
X99298000Y-78712500D03*
%TD*%
D10*
%TO.C,C8*%
X99020000Y-105457500D03*
X99020000Y-107182500D03*
%TD*%
D20*
%TO.C,JP12*%
X151979500Y-99716000D03*
D19*
X153804500Y-99716000D03*
%TD*%
D10*
%TO.C,C21*%
X96504000Y-78787500D03*
X96504000Y-80512500D03*
%TD*%
M02*
