%TF.GenerationSoftware,KiCad,Pcbnew,10.0.5-unknown-202607221313~667fa36054~ubuntu25.10.1*%
%TF.CreationDate,2026-10-06T06:36:02+00:00*%
%TF.ProjectId,ktest,6b746573-742e-46b6-9963-61645f706362,0.0.2*%
%TF.SameCoordinates,Original*%
%TF.FileFunction,Copper,L4,Bot*%
%TF.FilePolarity,Positive*%
%FSLAX46Y46*%
G04 Gerber Fmt 4.6, Leading zero omitted, Abs format (unit mm)*
G04 Created by KiCad (PCBNEW 10.0.5-unknown-202607221313~667fa36054~ubuntu25.10.1) date 2026-10-06 06:36:02*
%MOMM*%
%LPD*%
G01*
G04 APERTURE LIST*
G04 Aperture macros list*
%AMRoundRect*
0 Rectangle with rounded corners*
0 $1 Rounding radius*
0 $2 $3 $4 $5 $6 $7 $8 $9 X,Y pos of 4 corners*
0 Add a 4 corners polygon primitive as box body*
4,1,4,$2,$3,$4,$5,$6,$7,$8,$9,$2,$3,0*
0 Add four circle primitives for the rounded corners*
1,1,$1+$1,$2,$3*
1,1,$1+$1,$4,$5*
1,1,$1+$1,$6,$7*
1,1,$1+$1,$8,$9*
0 Add four rect primitives between the rounded corners*
20,1,$1+$1,$2,$3,$4,$5,0*
20,1,$1+$1,$4,$5,$6,$7,0*
20,1,$1+$1,$6,$7,$8,$9,0*
20,1,$1+$1,$8,$9,$2,$3,0*%
G04 Aperture macros list end*
%TA.AperFunction,ComponentPad*%
%ADD10R,1.800000X1.800000*%
%TD*%
%TA.AperFunction,ComponentPad*%
%ADD11C,1.800000*%
%TD*%
%TA.AperFunction,ComponentPad*%
%ADD12C,2.400000*%
%TD*%
%TA.AperFunction,ComponentPad*%
%ADD13R,1.700000X1.700000*%
%TD*%
%TA.AperFunction,ComponentPad*%
%ADD14C,1.700000*%
%TD*%
%TA.AperFunction,ComponentPad*%
%ADD15RoundRect,0.250000X-0.550000X-0.550000X0.550000X-0.550000X0.550000X0.550000X-0.550000X0.550000X0*%
%TD*%
%TA.AperFunction,ComponentPad*%
%ADD16C,1.600000*%
%TD*%
%TA.AperFunction,SMDPad,CuDef*%
%ADD17RoundRect,0.075000X-0.125000X-0.075000X0.125000X-0.075000X0.125000X0.075000X-0.125000X0.075000X0*%
%TD*%
%TA.AperFunction,SMDPad,CuDef*%
%ADD18RoundRect,0.075000X0.125000X0.075000X-0.125000X0.075000X-0.125000X-0.075000X0.125000X-0.075000X0*%
%TD*%
%TA.AperFunction,SMDPad,CuDef*%
%ADD19RoundRect,0.250000X1.250000X0.550000X-1.250000X0.550000X-1.250000X-0.550000X1.250000X-0.550000X0*%
%TD*%
%TA.AperFunction,ViaPad*%
%ADD20C,0.600000*%
%TD*%
%TA.AperFunction,Conductor*%
%ADD21C,0.200000*%
%TD*%
G04 APERTURE END LIST*
D10*
%TO.P,D2,1,K_1*%
%TO.N,/child_1/a*%
X146125000Y-88635000D03*
D11*
%TO.P,D2,2,A_2*%
%TO.N,Net-(D2-A)*%
X148665000Y-88635000D03*
%TD*%
D12*
%TO.P,R4,1*%
%TO.N,Net-(D1-A)*%
X115525000Y-108525000D03*
%TO.P,R4,2*%
%TO.N,/child_1/a*%
X120605000Y-108525000D03*
%TD*%
D13*
%TO.P,J1,1,Pin_1_1*%
%TO.N,/child_1/n*%
X113259000Y-54881000D03*
D14*
%TO.P,J1,2,Pin_2_2*%
%TO.N,Net-(J1-Pin_2)*%
X113259000Y-57421000D03*
%TO.P,J1,3,Pin_3_3*%
%TO.N,Net-(J1-Pin_3)*%
X113259000Y-59961000D03*
%TD*%
D10*
%TO.P,D1,1,K_1*%
%TO.N,/child_1/n*%
X113175000Y-80535000D03*
D11*
%TO.P,D1,2,A_2*%
%TO.N,Net-(D1-A)*%
X115715000Y-80535000D03*
%TD*%
D12*
%TO.P,R9,1*%
%TO.N,Net-(D2-A)*%
X138525000Y-77525000D03*
%TO.P,R9,2*%
%TO.N,/child_1/n*%
X143605000Y-77525000D03*
%TD*%
D15*
%TO.P,U2,1,PC6/~{RESET}_1*%
%TO.N,unconnected-(U2-PC6{slash}~{RESET}-Pad1)*%
X100085000Y-87055000D03*
D16*
%TO.P,U2,2,PD0_2*%
%TO.N,Net-(U2-PB0)*%
X100085000Y-89595000D03*
%TO.P,U2,3,PD1_3*%
X100085000Y-92135000D03*
%TO.P,U2,4,PD2_4*%
X100085000Y-94675000D03*
%TO.P,U2,5,PD3_5*%
%TO.N,unconnected-(U2-PD3-Pad5)*%
X100085000Y-97215000D03*
%TO.P,U2,6,PD4_6*%
%TO.N,unconnected-(U2-PD4-Pad6)*%
X100085000Y-99755000D03*
%TO.P,U2,7,VCC_7*%
%TO.N,unconnected-(U2-VCC-Pad7)*%
X100085000Y-102295000D03*
%TO.P,U2,8,GND_8*%
%TO.N,unconnected-(U2-GND-Pad8)*%
X100085000Y-104835000D03*
%TO.P,U2,9,PB6/XTAL1_9*%
%TO.N,unconnected-(U2-PB6{slash}XTAL1-Pad9)*%
X100085000Y-107375000D03*
%TO.P,U2,10,PB7/XTAL2_10*%
%TO.N,unconnected-(U2-PB7{slash}XTAL2-Pad10)*%
X100085000Y-109915000D03*
%TO.P,U2,11,PD5_11*%
%TO.N,unconnected-(U2-PD5-Pad11)*%
X100085000Y-112455000D03*
%TO.P,U2,12,PD6_12*%
%TO.N,unconnected-(U2-PD6-Pad12)*%
X100085000Y-114995000D03*
%TO.P,U2,13,PD7_13*%
%TO.N,unconnected-(U2-PD7-Pad13)*%
X100085000Y-117535000D03*
%TO.P,U2,14,PB0_14*%
%TO.N,Net-(U2-PB0)*%
X100085000Y-120075000D03*
%TO.P,U2,15,PB1_15*%
X107705000Y-120075000D03*
%TO.P,U2,16,PB2_16*%
X107705000Y-117535000D03*
%TO.P,U2,17,PB3_17*%
X107705000Y-114995000D03*
%TO.P,U2,18,PB4_18*%
X107705000Y-112455000D03*
%TO.P,U2,19,PB5_19*%
X107705000Y-109915000D03*
%TO.P,U2,20,AVCC_20*%
%TO.N,unconnected-(U2-AVCC-Pad20)*%
X107705000Y-107375000D03*
%TO.P,U2,21,AREF_21*%
%TO.N,unconnected-(U2-AREF-Pad21)*%
X107705000Y-104835000D03*
%TO.P,U2,22,AGND_22*%
%TO.N,unconnected-(U2-AGND-Pad22)*%
X107705000Y-102295000D03*
%TO.P,U2,23,PC0_23*%
%TO.N,Net-(U2-PB0)*%
X107705000Y-99755000D03*
%TO.P,U2,24,PC1_24*%
X107705000Y-97215000D03*
%TO.P,U2,25,PC2_25*%
X107705000Y-94675000D03*
%TO.P,U2,26,PC3_26*%
X107705000Y-92135000D03*
%TO.P,U2,27,PC4_27*%
X107705000Y-89595000D03*
%TO.P,U2,28,PC5_28*%
X107705000Y-87055000D03*
%TD*%
D17*
%TO.P,R1,1*%
%TO.N,Net-(C1-Pad1)*%
X102455000Y-55910000D03*
%TO.P,R1,2*%
%TO.N,Net-(J1-Pin_2)*%
X102955000Y-55910000D03*
%TD*%
D18*
%TO.P,R8,1*%
%TO.N,/child_1/a*%
X147250000Y-106000000D03*
%TO.P,R8,2*%
%TO.N,Net-(C4-Pad2)*%
X146750000Y-106000000D03*
%TD*%
D12*
%TO.P,R5,1*%
%TO.N,Net-(D1-A)*%
X115525000Y-99000000D03*
%TO.P,R5,2*%
%TO.N,/child_1/a*%
X120605000Y-99000000D03*
%TD*%
%TO.P,R10,1*%
%TO.N,Net-(D2-A)*%
X137030000Y-87000000D03*
%TO.P,R10,2*%
%TO.N,/child_1/n*%
X131950000Y-87000000D03*
%TD*%
D19*
%TO.P,C4,1*%
%TO.N,/child_1/a*%
X137780000Y-93450000D03*
%TO.P,C4,2*%
%TO.N,Net-(C4-Pad2)*%
X133380000Y-93450000D03*
%TD*%
D20*
%TO.N,Net-(J1-Pin_3)*%
X95208000Y-52578000D03*
X106892000Y-58166000D03*
%TO.N,Net-(C1-Pad1)*%
X102455000Y-54957000D03*
%TO.N,Net-(J1-Pin_2)*%
X104005000Y-54957000D03*
X112480000Y-47752000D03*
%TD*%
%TO.N,/child_1/a*%
D21*
X137780000Y-93450000D02*
X141310000Y-93450000D01*
X147250000Y-102750000D02*
X147250000Y-106000000D01*
X141310000Y-93450000D02*
X143450000Y-93450000D01*
X141310000Y-93450000D02*
X146125000Y-88635000D01*
X150000000Y-100000000D02*
X147250000Y-102750000D01*
X143450000Y-93450000D02*
X150000000Y-100000000D01*
%TO.N,Net-(J1-Pin_3)*%
X95208000Y-54864000D02*
X95208000Y-52578000D01*
X98510000Y-58166000D02*
X95208000Y-54864000D01*
X106892000Y-58166000D02*
X98510000Y-58166000D01*
%TO.N,Net-(C1-Pad1)*%
X102455000Y-55910000D02*
X102455000Y-54957000D01*
%TO.N,/child_1/n*%
X113175000Y-80535000D02*
X113175000Y-67825000D01*
X113175000Y-67825000D02*
X118000000Y-63000000D01*
X118000000Y-63000000D02*
X118000000Y-59622000D01*
X118000000Y-59622000D02*
X113259000Y-54881000D01*
%TO.N,Net-(D1-A)*%
X115715000Y-80535000D02*
X115715000Y-98810000D01*
X115715000Y-98810000D02*
X115525000Y-99000000D01*
%TO.N,Net-(J1-Pin_2)*%
X102955000Y-55910000D02*
X103052000Y-55910000D01*
X103052000Y-55910000D02*
X104005000Y-54957000D01*
%TO.N,Net-(C4-Pad2)*%
X145930000Y-106000000D02*
X133380000Y-93450000D01*
X146750000Y-106000000D02*
X145930000Y-106000000D01*
%TD*%
%TA.AperFunction,Conductor*%
%TO.N,/child_1/a*%
G36*
X94915487Y-55420722D02*
G01*
X98025139Y-58530374D01*
X98025149Y-58530385D01*
X98029479Y-58534715D01*
X98029480Y-58534716D01*
X98141284Y-58646520D01*
X98186383Y-58672557D01*
X98228095Y-58696639D01*
X98228097Y-58696641D01*
X98250271Y-58709443D01*
X98278215Y-58725577D01*
X98430943Y-58766500D01*
X106312234Y-58766500D01*
X106379273Y-58786185D01*
X106381125Y-58787398D01*
X106512814Y-58875390D01*
X106512827Y-58875397D01*
X106658498Y-58935735D01*
X106658503Y-58935737D01*
X106813153Y-58966499D01*
X106813156Y-58966500D01*
X106837337Y-58966500D01*
X106904376Y-58986185D01*
X106950131Y-59038989D01*
X106960425Y-59075489D01*
X110000000Y-84000001D01*
X111508259Y-88524778D01*
X113000000Y-93000000D01*
X114999340Y-93142810D01*
X115064801Y-93167219D01*
X115106678Y-93223149D01*
X115114500Y-93266493D01*
X115114500Y-97254356D01*
X115094815Y-97321395D01*
X115042011Y-97367150D01*
X115022596Y-97374130D01*
X114977222Y-97386288D01*
X114771282Y-97471590D01*
X114771273Y-97471595D01*
X114578226Y-97583052D01*
X114578217Y-97583058D01*
X114401377Y-97718751D01*
X114401370Y-97718757D01*
X114243757Y-97876370D01*
X114243751Y-97876377D01*
X114108058Y-98053217D01*
X114108052Y-98053226D01*
X113996595Y-98246273D01*
X113996593Y-98246277D01*
X113911293Y-98452209D01*
X113911290Y-98452219D01*
X113863228Y-98631592D01*
X113853597Y-98667534D01*
X113853594Y-98667547D01*
X113824501Y-98888533D01*
X113824500Y-98888549D01*
X113824500Y-99111450D01*
X113824501Y-99111466D01*
X113853594Y-99332452D01*
X113853595Y-99332457D01*
X113853596Y-99332463D01*
X113911290Y-99547780D01*
X113911293Y-99547790D01*
X113996593Y-99753722D01*
X113996595Y-99753726D01*
X114108052Y-99946774D01*
X114108057Y-99946780D01*
X114108058Y-99946782D01*
X114243751Y-100123622D01*
X114243757Y-100123629D01*
X114401370Y-100281242D01*
X114401376Y-100281247D01*
X114578226Y-100416948D01*
X114771274Y-100528405D01*
X114901140Y-100582197D01*
X114976074Y-100613236D01*
X114977219Y-100613710D01*
X115192537Y-100671404D01*
X115413543Y-100700500D01*
X115413550Y-100700500D01*
X115636450Y-100700500D01*
X115636457Y-100700500D01*
X115857463Y-100671404D01*
X116072781Y-100613710D01*
X116278726Y-100528405D01*
X116471774Y-100416948D01*
X116648624Y-100281247D01*
X116648629Y-100281242D01*
X116699550Y-100230322D01*
X116806242Y-100123629D01*
X116806247Y-100123624D01*
X116941948Y-99946774D01*
X117053405Y-99753726D01*
X117138710Y-99547781D01*
X117196404Y-99332463D01*
X117225500Y-99111457D01*
X117225500Y-98888575D01*
X118905000Y-98888575D01*
X118905000Y-99111424D01*
X118934085Y-99332354D01*
X118934088Y-99332367D01*
X118991763Y-99547618D01*
X119077045Y-99753502D01*
X119077054Y-99753520D01*
X119188464Y-99946491D01*
X119188473Y-99946504D01*
X119239040Y-100012403D01*
X119239043Y-100012403D01*
X120040387Y-99211059D01*
X120045889Y-99231591D01*
X120124881Y-99368408D01*
X120236592Y-99480119D01*
X120373409Y-99559111D01*
X120393940Y-99564612D01*
X119592595Y-100365955D01*
X119592595Y-100365956D01*
X119658507Y-100416533D01*
X119851485Y-100527949D01*
X119851497Y-100527954D01*
X120057381Y-100613236D01*
X120272632Y-100670911D01*
X120272645Y-100670914D01*
X120493575Y-100700000D01*
X120716425Y-100700000D01*
X120937354Y-100670914D01*
X120937367Y-100670911D01*
X121152618Y-100613236D01*
X121358502Y-100527954D01*
X121358514Y-100527949D01*
X121551498Y-100416530D01*
X121617403Y-100365957D01*
X121617404Y-100365956D01*
X120816059Y-99564612D01*
X120836591Y-99559111D01*
X120973408Y-99480119D01*
X121085119Y-99368408D01*
X121164111Y-99231591D01*
X121169612Y-99211059D01*
X121970956Y-100012404D01*
X121970957Y-100012403D01*
X122021530Y-99946498D01*
X122132949Y-99753514D01*
X122132954Y-99753502D01*
X122218236Y-99547618D01*
X122275911Y-99332367D01*
X122275914Y-99332354D01*
X122305000Y-99111424D01*
X122305000Y-98888575D01*
X122275914Y-98667645D01*
X122275911Y-98667632D01*
X122218236Y-98452381D01*
X122132954Y-98246497D01*
X122132949Y-98246485D01*
X122021533Y-98053507D01*
X121970956Y-97987595D01*
X121970955Y-97987595D01*
X121169612Y-98788939D01*
X121164111Y-98768409D01*
X121085119Y-98631592D01*
X120973408Y-98519881D01*
X120836591Y-98440889D01*
X120816058Y-98435387D01*
X121617403Y-97634043D01*
X121617403Y-97634040D01*
X121551504Y-97583473D01*
X121551491Y-97583464D01*
X121358520Y-97472054D01*
X121358502Y-97472045D01*
X121152618Y-97386763D01*
X120937367Y-97329088D01*
X120937354Y-97329085D01*
X120716425Y-97300000D01*
X120493575Y-97300000D01*
X120272645Y-97329085D01*
X120272632Y-97329088D01*
X120057381Y-97386763D01*
X119851497Y-97472045D01*
X119851479Y-97472054D01*
X119658511Y-97583462D01*
X119592595Y-97634042D01*
X120393941Y-98435387D01*
X120373409Y-98440889D01*
X120236592Y-98519881D01*
X120124881Y-98631592D01*
X120045889Y-98768409D01*
X120040387Y-98788940D01*
X119239042Y-97987595D01*
X119188462Y-98053511D01*
X119077054Y-98246479D01*
X119077045Y-98246497D01*
X118991763Y-98452381D01*
X118934088Y-98667632D01*
X118934085Y-98667645D01*
X118905000Y-98888575D01*
X117225500Y-98888575D01*
X117225500Y-98888543D01*
X117196404Y-98667537D01*
X117138710Y-98452219D01*
X117053405Y-98246274D01*
X116941948Y-98053226D01*
X116891588Y-97987595D01*
X116806248Y-97876377D01*
X116806242Y-97876370D01*
X116648629Y-97718757D01*
X116648622Y-97718751D01*
X116471782Y-97583058D01*
X116471768Y-97583048D01*
X116377498Y-97528620D01*
X116329284Y-97478052D01*
X116315500Y-97421234D01*
X116315500Y-93369994D01*
X116335185Y-93302955D01*
X116387989Y-93257200D01*
X116448332Y-93246309D01*
X127000000Y-94000000D01*
X127156820Y-92849983D01*
X131379500Y-92849983D01*
X131379500Y-94050001D01*
X131379501Y-94050018D01*
X131390000Y-94152796D01*
X131390001Y-94152799D01*
X131397617Y-94175781D01*
X131445186Y-94319334D01*
X131537288Y-94468656D01*
X131661344Y-94592712D01*
X131810666Y-94684814D01*
X131977203Y-94739999D01*
X132079991Y-94750500D01*
X133779902Y-94750499D01*
X133846941Y-94770184D01*
X133867583Y-94786818D01*
X145445139Y-106364374D01*
X145445149Y-106364385D01*
X145449479Y-106368715D01*
X145449480Y-106368716D01*
X145561284Y-106480520D01*
X145643143Y-106527781D01*
X145698215Y-106559577D01*
X145850942Y-106600500D01*
X145850943Y-106600500D01*
X146365151Y-106600500D01*
X146412603Y-106609938D01*
X146474764Y-106635687D01*
X146575894Y-106649001D01*
X146583474Y-106649999D01*
X146587280Y-106650500D01*
X146587287Y-106650500D01*
X146912713Y-106650500D01*
X146912720Y-106650500D01*
X147025236Y-106635687D01*
X147165233Y-106577698D01*
X147200515Y-106550624D01*
X147265681Y-106525431D01*
X147334126Y-106539468D01*
X147384116Y-106588282D01*
X147400000Y-106649001D01*
X147400000Y-106650000D01*
X147412683Y-106650000D01*
X147412697Y-106649999D01*
X147525104Y-106635199D01*
X147525108Y-106635198D01*
X147664978Y-106577263D01*
X147785094Y-106485094D01*
X147877263Y-106364978D01*
X147935198Y-106225108D01*
X147935199Y-106225103D01*
X147945088Y-106150000D01*
X147574500Y-106150000D01*
X147507461Y-106130315D01*
X147461706Y-106077511D01*
X147450500Y-106026000D01*
X147450500Y-105974000D01*
X147470185Y-105906961D01*
X147522989Y-105861206D01*
X147574500Y-105850000D01*
X147945088Y-105850000D01*
X147945088Y-105849999D01*
X147935199Y-105774896D01*
X147935198Y-105774891D01*
X147877263Y-105635021D01*
X147785094Y-105514905D01*
X147664978Y-105422736D01*
X147525108Y-105364801D01*
X147525104Y-105364800D01*
X147412697Y-105350000D01*
X147400000Y-105350000D01*
X147400000Y-105350998D01*
X147380315Y-105418037D01*
X147327511Y-105463792D01*
X147258353Y-105473736D01*
X147200514Y-105449374D01*
X147169084Y-105425257D01*
X147165233Y-105422302D01*
X147025236Y-105364313D01*
X146973252Y-105357469D01*
X146973246Y-105357467D01*
X146912722Y-105349500D01*
X146912720Y-105349500D01*
X146587280Y-105349500D01*
X146587272Y-105349500D01*
X146474764Y-105364313D01*
X146474763Y-105364313D01*
X146412604Y-105390061D01*
X146365151Y-105399500D01*
X146230097Y-105399500D01*
X146163058Y-105379815D01*
X146142416Y-105363181D01*
X135301646Y-94522411D01*
X135268161Y-94461088D01*
X135273145Y-94391396D01*
X135283786Y-94369637D01*
X135314814Y-94319334D01*
X135369999Y-94152797D01*
X135380500Y-94050009D01*
X135380500Y-94049986D01*
X135780001Y-94049986D01*
X135790494Y-94152697D01*
X135845641Y-94319119D01*
X135845643Y-94319124D01*
X135937684Y-94468345D01*
X136061654Y-94592315D01*
X136210875Y-94684356D01*
X136210880Y-94684358D01*
X136377302Y-94739505D01*
X136377309Y-94739506D01*
X136480019Y-94749999D01*
X137529999Y-94749999D01*
X138030000Y-94749999D01*
X139079972Y-94749999D01*
X139079986Y-94749998D01*
X139182697Y-94739505D01*
X139349119Y-94684358D01*
X139349124Y-94684356D01*
X139498345Y-94592315D01*
X139622315Y-94468345D01*
X139714356Y-94319124D01*
X139714358Y-94319119D01*
X139769505Y-94152697D01*
X139769506Y-94152690D01*
X139779999Y-94049986D01*
X139780000Y-94049973D01*
X139780000Y-93700000D01*
X138030000Y-93700000D01*
X138030000Y-94749999D01*
X137529999Y-94749999D01*
X137530000Y-94749998D01*
X137530000Y-93700000D01*
X135780001Y-93700000D01*
X135780001Y-94049986D01*
X135380500Y-94049986D01*
X135380499Y-93410311D01*
X135380499Y-92850013D01*
X135780000Y-92850013D01*
X135780000Y-93200000D01*
X137530000Y-93200000D01*
X138030000Y-93200000D01*
X139779999Y-93200000D01*
X139779999Y-92850028D01*
X139779998Y-92850013D01*
X139769505Y-92747302D01*
X139714358Y-92580880D01*
X139714356Y-92580875D01*
X139622315Y-92431654D01*
X139498345Y-92307684D01*
X139349124Y-92215643D01*
X139349119Y-92215641D01*
X139182697Y-92160494D01*
X139182690Y-92160493D01*
X139079986Y-92150000D01*
X138030000Y-92150000D01*
X138030000Y-93200000D01*
X137530000Y-93200000D01*
X137530000Y-92150000D01*
X136480028Y-92150000D01*
X136480012Y-92150001D01*
X136377302Y-92160494D01*
X136210880Y-92215641D01*
X136210875Y-92215643D01*
X136061654Y-92307684D01*
X135937684Y-92431654D01*
X135845643Y-92580875D01*
X135845641Y-92580880D01*
X135790494Y-92747302D01*
X135790493Y-92747309D01*
X135780000Y-92850013D01*
X135380499Y-92850013D01*
X135380499Y-92849998D01*
X135380498Y-92849981D01*
X135369999Y-92747203D01*
X135369998Y-92747200D01*
X135332561Y-92634223D01*
X135314814Y-92580666D01*
X135222712Y-92431344D01*
X135098656Y-92307288D01*
X134985271Y-92237352D01*
X134949336Y-92215187D01*
X134949331Y-92215185D01*
X134947862Y-92214698D01*
X134782797Y-92160001D01*
X134782795Y-92160000D01*
X134680010Y-92149500D01*
X132079998Y-92149500D01*
X132079981Y-92149501D01*
X131977203Y-92160000D01*
X131977200Y-92160001D01*
X131810668Y-92215185D01*
X131810663Y-92215187D01*
X131661342Y-92307289D01*
X131537289Y-92431342D01*
X131445187Y-92580663D01*
X131445185Y-92580668D01*
X131445115Y-92580880D01*
X131390001Y-92747203D01*
X131390001Y-92747204D01*
X131390000Y-92747204D01*
X131379500Y-92849983D01*
X127156820Y-92849983D01*
X127969743Y-86888549D01*
X130249500Y-86888549D01*
X130249500Y-87111450D01*
X130249501Y-87111466D01*
X130278594Y-87332452D01*
X130278595Y-87332457D01*
X130278596Y-87332463D01*
X130336290Y-87547780D01*
X130336293Y-87547790D01*
X130421593Y-87753722D01*
X130421595Y-87753726D01*
X130533052Y-87946774D01*
X130533057Y-87946780D01*
X130533058Y-87946782D01*
X130668751Y-88123622D01*
X130668757Y-88123629D01*
X130826370Y-88281242D01*
X130826377Y-88281248D01*
X130883396Y-88325000D01*
X131003226Y-88416948D01*
X131196274Y-88528405D01*
X131402219Y-88613710D01*
X131617537Y-88671404D01*
X131838543Y-88700500D01*
X131838550Y-88700500D01*
X132061450Y-88700500D01*
X132061457Y-88700500D01*
X132282463Y-88671404D01*
X132497781Y-88613710D01*
X132703726Y-88528405D01*
X132896774Y-88416948D01*
X133073624Y-88281247D01*
X133231247Y-88123624D01*
X133366948Y-87946774D01*
X133478405Y-87753726D01*
X133563710Y-87547781D01*
X133621404Y-87332463D01*
X133650500Y-87111457D01*
X133650500Y-86888549D01*
X135329500Y-86888549D01*
X135329500Y-87111450D01*
X135329501Y-87111466D01*
X135358594Y-87332452D01*
X135358595Y-87332457D01*
X135358596Y-87332463D01*
X135416290Y-87547780D01*
X135416293Y-87547790D01*
X135501593Y-87753722D01*
X135501595Y-87753726D01*
X135613052Y-87946774D01*
X135613057Y-87946780D01*
X135613058Y-87946782D01*
X135748751Y-88123622D01*
X135748757Y-88123629D01*
X135906370Y-88281242D01*
X135906377Y-88281248D01*
X135963396Y-88325000D01*
X136083226Y-88416948D01*
X136276274Y-88528405D01*
X136482219Y-88613710D01*
X136697537Y-88671404D01*
X136918543Y-88700500D01*
X136918550Y-88700500D01*
X137141450Y-88700500D01*
X137141457Y-88700500D01*
X137362463Y-88671404D01*
X137577781Y-88613710D01*
X137783726Y-88528405D01*
X137976774Y-88416948D01*
X138153624Y-88281247D01*
X138311247Y-88123624D01*
X138446948Y-87946774D01*
X138558405Y-87753726D01*
X138585980Y-87687155D01*
X144725000Y-87687155D01*
X144725000Y-88385000D01*
X145749722Y-88385000D01*
X145705667Y-88461306D01*
X145675000Y-88575756D01*
X145675000Y-88694244D01*
X145705667Y-88808694D01*
X145749722Y-88885000D01*
X144725000Y-88885000D01*
X144725000Y-89582844D01*
X144731401Y-89642372D01*
X144731403Y-89642379D01*
X144781645Y-89777086D01*
X144781649Y-89777093D01*
X144867809Y-89892187D01*
X144867812Y-89892190D01*
X144982906Y-89978350D01*
X144982913Y-89978354D01*
X145117620Y-90028596D01*
X145117627Y-90028598D01*
X145177155Y-90034999D01*
X145177172Y-90035000D01*
X145875000Y-90035000D01*
X145875000Y-89010277D01*
X145951306Y-89054333D01*
X146065756Y-89085000D01*
X146184244Y-89085000D01*
X146298694Y-89054333D01*
X146375000Y-89010277D01*
X146375000Y-90035000D01*
X147072828Y-90035000D01*
X147072844Y-90034999D01*
X147132372Y-90028598D01*
X147132379Y-90028596D01*
X147267086Y-89978354D01*
X147267093Y-89978350D01*
X147382187Y-89892190D01*
X147382190Y-89892187D01*
X147468350Y-89777093D01*
X147468354Y-89777086D01*
X147498213Y-89697031D01*
X147540084Y-89641097D01*
X147605548Y-89616680D01*
X147673821Y-89631531D01*
X147702076Y-89652683D01*
X147752636Y-89703243D01*
X147752641Y-89703247D01*
X147908192Y-89816260D01*
X147930978Y-89832815D01*
X148047501Y-89892187D01*
X148127393Y-89932895D01*
X148127396Y-89932896D01*
X148232221Y-89966955D01*
X148337049Y-90001015D01*
X148554778Y-90035500D01*
X148554779Y-90035500D01*
X148775221Y-90035500D01*
X148775222Y-90035500D01*
X148992951Y-90001015D01*
X149202606Y-89932895D01*
X149399022Y-89832815D01*
X149577365Y-89703242D01*
X149733242Y-89547365D01*
X149862815Y-89369022D01*
X149962895Y-89172606D01*
X150031015Y-88962951D01*
X150065500Y-88745222D01*
X150065500Y-88524778D01*
X150031015Y-88307049D01*
X149995489Y-88197710D01*
X149962896Y-88097396D01*
X149962895Y-88097393D01*
X149928237Y-88029375D01*
X149862815Y-87900978D01*
X149758788Y-87757796D01*
X149733247Y-87722641D01*
X149733243Y-87722636D01*
X149577363Y-87566756D01*
X149577358Y-87566752D01*
X149399025Y-87437187D01*
X149399024Y-87437186D01*
X149399022Y-87437185D01*
X149336096Y-87405122D01*
X149202606Y-87337104D01*
X149202603Y-87337103D01*
X148992952Y-87268985D01*
X148884086Y-87251742D01*
X148775222Y-87234500D01*
X148554778Y-87234500D01*
X148482201Y-87245995D01*
X148337047Y-87268985D01*
X148127396Y-87337103D01*
X148127393Y-87337104D01*
X147930974Y-87437187D01*
X147752641Y-87566752D01*
X147752636Y-87566756D01*
X147702075Y-87617317D01*
X147640752Y-87650801D01*
X147571060Y-87645816D01*
X147515127Y-87603945D01*
X147498213Y-87572968D01*
X147468354Y-87492913D01*
X147468350Y-87492906D01*
X147382190Y-87377812D01*
X147382187Y-87377809D01*
X147267093Y-87291649D01*
X147267086Y-87291645D01*
X147132379Y-87241403D01*
X147132372Y-87241401D01*
X147072844Y-87235000D01*
X146375000Y-87235000D01*
X146375000Y-88259722D01*
X146298694Y-88215667D01*
X146184244Y-88185000D01*
X146065756Y-88185000D01*
X145951306Y-88215667D01*
X145875000Y-88259722D01*
X145875000Y-87235000D01*
X145177155Y-87235000D01*
X145117627Y-87241401D01*
X145117620Y-87241403D01*
X144982913Y-87291645D01*
X144982906Y-87291649D01*
X144867812Y-87377809D01*
X144867809Y-87377812D01*
X144781649Y-87492906D01*
X144781645Y-87492913D01*
X144731403Y-87627620D01*
X144731401Y-87627627D01*
X144725000Y-87687155D01*
X138585980Y-87687155D01*
X138643710Y-87547781D01*
X138701404Y-87332463D01*
X138730500Y-87111457D01*
X138730500Y-86888543D01*
X138701404Y-86667537D01*
X138643710Y-86452219D01*
X138558405Y-86246274D01*
X138446948Y-86053226D01*
X138407867Y-86002294D01*
X138311248Y-85876377D01*
X138311242Y-85876370D01*
X138153629Y-85718757D01*
X138153622Y-85718751D01*
X137976782Y-85583058D01*
X137976780Y-85583057D01*
X137976774Y-85583052D01*
X137783726Y-85471595D01*
X137783722Y-85471593D01*
X137577790Y-85386293D01*
X137577783Y-85386291D01*
X137577781Y-85386290D01*
X137362463Y-85328596D01*
X137362457Y-85328595D01*
X137362452Y-85328594D01*
X137141466Y-85299501D01*
X137141463Y-85299500D01*
X137141457Y-85299500D01*
X136918543Y-85299500D01*
X136918537Y-85299500D01*
X136918533Y-85299501D01*
X136697547Y-85328594D01*
X136697540Y-85328595D01*
X136697537Y-85328596D01*
X136482219Y-85386290D01*
X136482209Y-85386293D01*
X136276277Y-85471593D01*
X136276273Y-85471595D01*
X136083226Y-85583052D01*
X136083217Y-85583058D01*
X135906377Y-85718751D01*
X135906370Y-85718757D01*
X135748757Y-85876370D01*
X135748751Y-85876377D01*
X135613058Y-86053217D01*
X135613052Y-86053226D01*
X135501595Y-86246273D01*
X135501593Y-86246277D01*
X135416293Y-86452209D01*
X135416290Y-86452219D01*
X135358597Y-86667534D01*
X135358594Y-86667547D01*
X135329501Y-86888533D01*
X135329500Y-86888549D01*
X133650500Y-86888549D01*
X133650500Y-86888543D01*
X133621404Y-86667537D01*
X133563710Y-86452219D01*
X133478405Y-86246274D01*
X133366948Y-86053226D01*
X133327867Y-86002294D01*
X133231248Y-85876377D01*
X133231242Y-85876370D01*
X133073629Y-85718757D01*
X133073622Y-85718751D01*
X132896782Y-85583058D01*
X132896780Y-85583057D01*
X132896774Y-85583052D01*
X132703726Y-85471595D01*
X132703722Y-85471593D01*
X132497790Y-85386293D01*
X132497783Y-85386291D01*
X132497781Y-85386290D01*
X132282463Y-85328596D01*
X132282457Y-85328595D01*
X132282452Y-85328594D01*
X132061466Y-85299501D01*
X132061463Y-85299500D01*
X132061457Y-85299500D01*
X131838543Y-85299500D01*
X131838537Y-85299500D01*
X131838533Y-85299501D01*
X131617547Y-85328594D01*
X131617540Y-85328595D01*
X131617537Y-85328596D01*
X131402219Y-85386290D01*
X131402209Y-85386293D01*
X131196277Y-85471593D01*
X131196273Y-85471595D01*
X131003226Y-85583052D01*
X131003217Y-85583058D01*
X130826377Y-85718751D01*
X130826370Y-85718757D01*
X130668757Y-85876370D01*
X130668751Y-85876377D01*
X130533058Y-86053217D01*
X130533052Y-86053226D01*
X130421595Y-86246273D01*
X130421593Y-86246277D01*
X130336293Y-86452209D01*
X130336290Y-86452219D01*
X130278597Y-86667534D01*
X130278594Y-86667547D01*
X130249501Y-86888533D01*
X130249500Y-86888549D01*
X127969743Y-86888549D01*
X129261788Y-77413549D01*
X136824500Y-77413549D01*
X136824500Y-77636450D01*
X136824501Y-77636466D01*
X136853594Y-77857452D01*
X136853595Y-77857457D01*
X136853596Y-77857463D01*
X136853597Y-77857465D01*
X136911290Y-78072780D01*
X136911293Y-78072790D01*
X136996593Y-78278722D01*
X136996595Y-78278726D01*
X137108052Y-78471774D01*
X137108057Y-78471780D01*
X137108058Y-78471782D01*
X137243751Y-78648622D01*
X137243757Y-78648629D01*
X137401370Y-78806242D01*
X137401376Y-78806247D01*
X137578226Y-78941948D01*
X137771274Y-79053405D01*
X137901140Y-79107197D01*
X137967057Y-79134501D01*
X137977219Y-79138710D01*
X138192537Y-79196404D01*
X138413543Y-79225500D01*
X138413550Y-79225500D01*
X138636450Y-79225500D01*
X138636457Y-79225500D01*
X138857463Y-79196404D01*
X139072781Y-79138710D01*
X139278726Y-79053405D01*
X139471774Y-78941948D01*
X139648624Y-78806247D01*
X139806247Y-78648624D01*
X139941948Y-78471774D01*
X140053405Y-78278726D01*
X140138710Y-78072781D01*
X140196404Y-77857463D01*
X140225500Y-77636457D01*
X140225500Y-77413549D01*
X141904500Y-77413549D01*
X141904500Y-77636450D01*
X141904501Y-77636466D01*
X141933594Y-77857452D01*
X141933595Y-77857457D01*
X141933596Y-77857463D01*
X141933597Y-77857465D01*
X141991290Y-78072780D01*
X141991293Y-78072790D01*
X142076593Y-78278722D01*
X142076595Y-78278726D01*
X142188052Y-78471774D01*
X142188057Y-78471780D01*
X142188058Y-78471782D01*
X142323751Y-78648622D01*
X142323757Y-78648629D01*
X142481370Y-78806242D01*
X142481376Y-78806247D01*
X142658226Y-78941948D01*
X142851274Y-79053405D01*
X142981140Y-79107197D01*
X143047057Y-79134501D01*
X143057219Y-79138710D01*
X143272537Y-79196404D01*
X143493543Y-79225500D01*
X143493550Y-79225500D01*
X143716450Y-79225500D01*
X143716457Y-79225500D01*
X143937463Y-79196404D01*
X144152781Y-79138710D01*
X144358726Y-79053405D01*
X144551774Y-78941948D01*
X144728624Y-78806247D01*
X144886247Y-78648624D01*
X145021948Y-78471774D01*
X145133405Y-78278726D01*
X145218710Y-78072781D01*
X145276404Y-77857463D01*
X145305500Y-77636457D01*
X145305500Y-77413543D01*
X145276404Y-77192537D01*
X145218710Y-76977219D01*
X145133405Y-76771274D01*
X145021948Y-76578226D01*
X144886247Y-76401376D01*
X144886242Y-76401370D01*
X144728629Y-76243757D01*
X144728622Y-76243751D01*
X144551782Y-76108058D01*
X144551780Y-76108057D01*
X144551774Y-76108052D01*
X144358726Y-75996595D01*
X144358722Y-75996593D01*
X144152790Y-75911293D01*
X144152783Y-75911291D01*
X144152781Y-75911290D01*
X143937463Y-75853596D01*
X143937457Y-75853595D01*
X143937452Y-75853594D01*
X143716466Y-75824501D01*
X143716463Y-75824500D01*
X143716457Y-75824500D01*
X143493543Y-75824500D01*
X143493537Y-75824500D01*
X143493533Y-75824501D01*
X143272547Y-75853594D01*
X143272540Y-75853595D01*
X143272537Y-75853596D01*
X143057219Y-75911290D01*
X143057209Y-75911293D01*
X142851277Y-75996593D01*
X142851273Y-75996595D01*
X142658226Y-76108052D01*
X142658217Y-76108058D01*
X142481377Y-76243751D01*
X142481370Y-76243757D01*
X142323757Y-76401370D01*
X142323751Y-76401377D01*
X142188058Y-76578217D01*
X142188052Y-76578226D01*
X142076595Y-76771273D01*
X142076593Y-76771277D01*
X141991293Y-76977209D01*
X141991290Y-76977219D01*
X141933597Y-77192534D01*
X141933594Y-77192547D01*
X141904501Y-77413533D01*
X141904500Y-77413549D01*
X140225500Y-77413549D01*
X140225500Y-77413543D01*
X140196404Y-77192537D01*
X140138710Y-76977219D01*
X140053405Y-76771274D01*
X139941948Y-76578226D01*
X139806247Y-76401376D01*
X139806242Y-76401370D01*
X139648629Y-76243757D01*
X139648622Y-76243751D01*
X139471782Y-76108058D01*
X139471780Y-76108057D01*
X139471774Y-76108052D01*
X139278726Y-75996595D01*
X139278722Y-75996593D01*
X139072790Y-75911293D01*
X139072783Y-75911291D01*
X139072781Y-75911290D01*
X138857463Y-75853596D01*
X138857457Y-75853595D01*
X138857452Y-75853594D01*
X138636466Y-75824501D01*
X138636463Y-75824500D01*
X138636457Y-75824500D01*
X138413543Y-75824500D01*
X138413537Y-75824500D01*
X138413533Y-75824501D01*
X138192547Y-75853594D01*
X138192540Y-75853595D01*
X138192537Y-75853596D01*
X137977219Y-75911290D01*
X137977209Y-75911293D01*
X137771277Y-75996593D01*
X137771273Y-75996595D01*
X137578226Y-76108052D01*
X137578217Y-76108058D01*
X137401377Y-76243751D01*
X137401370Y-76243757D01*
X137243757Y-76401370D01*
X137243751Y-76401377D01*
X137108058Y-76578217D01*
X137108052Y-76578226D01*
X136996595Y-76771273D01*
X136996593Y-76771277D01*
X136911293Y-76977209D01*
X136911290Y-76977219D01*
X136853597Y-77192534D01*
X136853594Y-77192547D01*
X136824501Y-77413533D01*
X136824500Y-77413549D01*
X129261788Y-77413549D01*
X129981304Y-72137100D01*
X130009865Y-72073339D01*
X130068367Y-72035138D01*
X130134240Y-72033560D01*
X173890853Y-82972713D01*
X173951117Y-83008070D01*
X173982699Y-83070394D01*
X173983426Y-83111278D01*
X167015518Y-129895806D01*
X166986173Y-129959214D01*
X166927205Y-129996691D01*
X166894668Y-130001526D01*
X98104721Y-130998482D01*
X98037403Y-130979771D01*
X97990888Y-130927636D01*
X97980987Y-130897013D01*
X89776305Y-86454983D01*
X98784500Y-86454983D01*
X98784500Y-87655001D01*
X98784501Y-87655018D01*
X98795000Y-87757796D01*
X98795001Y-87757799D01*
X98842856Y-87902213D01*
X98850186Y-87924334D01*
X98942288Y-88073656D01*
X99066344Y-88197712D01*
X99215666Y-88289814D01*
X99297570Y-88316954D01*
X99355015Y-88356727D01*
X99381838Y-88421243D01*
X99369523Y-88490018D01*
X99331451Y-88534978D01*
X99237787Y-88603028D01*
X99237782Y-88603032D01*
X99093028Y-88747786D01*
X98972715Y-88913386D01*
X98879781Y-89095776D01*
X98816522Y-89290465D01*
X98784500Y-89492648D01*
X98784500Y-89697351D01*
X98816522Y-89899534D01*
X98879781Y-90094223D01*
X98972715Y-90276613D01*
X99093028Y-90442213D01*
X99237786Y-90586971D01*
X99392749Y-90699556D01*
X99403390Y-90707287D01*
X99494840Y-90753883D01*
X99496080Y-90754515D01*
X99546876Y-90802490D01*
X99563671Y-90870311D01*
X99541134Y-90936446D01*
X99496080Y-90975485D01*
X99403386Y-91022715D01*
X99237786Y-91143028D01*
X99093028Y-91287786D01*
X98972715Y-91453386D01*
X98879781Y-91635776D01*
X98816522Y-91830465D01*
X98784500Y-92032648D01*
X98784500Y-92237351D01*
X98816522Y-92439534D01*
X98879781Y-92634223D01*
X98972715Y-92816613D01*
X99093028Y-92982213D01*
X99237786Y-93126971D01*
X99392749Y-93239556D01*
X99403390Y-93247287D01*
X99494840Y-93293883D01*
X99496080Y-93294515D01*
X99546876Y-93342490D01*
X99563671Y-93410311D01*
X99541134Y-93476446D01*
X99496080Y-93515485D01*
X99403386Y-93562715D01*
X99237786Y-93683028D01*
X99093028Y-93827786D01*
X98972715Y-93993386D01*
X98879781Y-94175776D01*
X98816522Y-94370465D01*
X98784500Y-94572648D01*
X98784500Y-94777351D01*
X98816522Y-94979534D01*
X98879781Y-95174223D01*
X98972715Y-95356613D01*
X99093028Y-95522213D01*
X99237786Y-95666971D01*
X99392749Y-95779556D01*
X99403390Y-95787287D01*
X99494840Y-95833883D01*
X99496080Y-95834515D01*
X99546876Y-95882490D01*
X99563671Y-95950311D01*
X99541134Y-96016446D01*
X99496080Y-96055485D01*
X99403386Y-96102715D01*
X99237786Y-96223028D01*
X99093028Y-96367786D01*
X98972715Y-96533386D01*
X98879781Y-96715776D01*
X98816522Y-96910465D01*
X98784500Y-97112648D01*
X98784500Y-97317351D01*
X98816522Y-97519534D01*
X98879781Y-97714223D01*
X98943691Y-97839653D01*
X98962403Y-97876376D01*
X98972715Y-97896613D01*
X99093028Y-98062213D01*
X99237786Y-98206971D01*
X99392749Y-98319556D01*
X99403390Y-98327287D01*
X99494840Y-98373883D01*
X99496080Y-98374515D01*
X99546876Y-98422490D01*
X99563671Y-98490311D01*
X99541134Y-98556446D01*
X99496080Y-98595485D01*
X99403386Y-98642715D01*
X99237786Y-98763028D01*
X99093028Y-98907786D01*
X98972715Y-99073386D01*
X98879781Y-99255776D01*
X98816522Y-99450465D01*
X98784500Y-99652648D01*
X98784500Y-99857351D01*
X98816522Y-100059534D01*
X98879781Y-100254223D01*
X98936712Y-100365955D01*
X98962483Y-100416533D01*
X98972715Y-100436613D01*
X99093028Y-100602213D01*
X99237786Y-100746971D01*
X99392749Y-100859556D01*
X99403390Y-100867287D01*
X99494840Y-100913883D01*
X99496080Y-100914515D01*
X99546876Y-100962490D01*
X99563671Y-101030311D01*
X99541134Y-101096446D01*
X99496080Y-101135485D01*
X99403386Y-101182715D01*
X99237786Y-101303028D01*
X99093028Y-101447786D01*
X98972715Y-101613386D01*
X98879781Y-101795776D01*
X98816522Y-101990465D01*
X98784500Y-102192648D01*
X98784500Y-102397351D01*
X98816522Y-102599534D01*
X98879781Y-102794223D01*
X98972715Y-102976613D01*
X99093028Y-103142213D01*
X99237786Y-103286971D01*
X99392749Y-103399556D01*
X99403390Y-103407287D01*
X99494840Y-103453883D01*
X99496080Y-103454515D01*
X99546876Y-103502490D01*
X99563671Y-103570311D01*
X99541134Y-103636446D01*
X99496080Y-103675485D01*
X99403386Y-103722715D01*
X99237786Y-103843028D01*
X99093028Y-103987786D01*
X98972715Y-104153386D01*
X98879781Y-104335776D01*
X98816522Y-104530465D01*
X98784500Y-104732648D01*
X98784500Y-104937351D01*
X98816522Y-105139534D01*
X98879781Y-105334223D01*
X98926166Y-105425257D01*
X98971844Y-105514905D01*
X98972715Y-105516613D01*
X99093028Y-105682213D01*
X99237786Y-105826971D01*
X99392749Y-105939556D01*
X99403390Y-105947287D01*
X99494840Y-105993883D01*
X99496080Y-105994515D01*
X99546876Y-106042490D01*
X99563671Y-106110311D01*
X99541134Y-106176446D01*
X99496080Y-106215485D01*
X99403386Y-106262715D01*
X99237786Y-106383028D01*
X99237782Y-106383032D01*
X99093035Y-106527780D01*
X99093028Y-106527786D01*
X98972715Y-106693386D01*
X98879781Y-106875776D01*
X98816522Y-107070465D01*
X98784500Y-107272648D01*
X98784500Y-107477351D01*
X98816522Y-107679534D01*
X98879781Y-107874223D01*
X98972715Y-108056613D01*
X99093028Y-108222213D01*
X99237786Y-108366971D01*
X99346575Y-108446009D01*
X99403390Y-108487287D01*
X99477404Y-108524999D01*
X99496080Y-108534515D01*
X99546876Y-108582490D01*
X99563671Y-108650311D01*
X99541134Y-108716446D01*
X99496080Y-108755485D01*
X99403386Y-108802715D01*
X99237786Y-108923028D01*
X99093028Y-109067786D01*
X98972715Y-109233386D01*
X98879781Y-109415776D01*
X98816522Y-109610465D01*
X98784500Y-109812648D01*
X98784500Y-110017351D01*
X98816522Y-110219534D01*
X98879781Y-110414223D01*
X98972715Y-110596613D01*
X99093028Y-110762213D01*
X99237786Y-110906971D01*
X99392749Y-111019556D01*
X99403390Y-111027287D01*
X99494840Y-111073883D01*
X99496080Y-111074515D01*
X99546876Y-111122490D01*
X99563671Y-111190311D01*
X99541134Y-111256446D01*
X99496080Y-111295485D01*
X99403386Y-111342715D01*
X99237786Y-111463028D01*
X99093028Y-111607786D01*
X98972715Y-111773386D01*
X98879781Y-111955776D01*
X98816522Y-112150465D01*
X98784500Y-112352648D01*
X98784500Y-112557351D01*
X98816522Y-112759534D01*
X98879781Y-112954223D01*
X98972715Y-113136613D01*
X99093028Y-113302213D01*
X99237786Y-113446971D01*
X99392749Y-113559556D01*
X99403390Y-113567287D01*
X99494840Y-113613883D01*
X99496080Y-113614515D01*
X99546876Y-113662490D01*
X99563671Y-113730311D01*
X99541134Y-113796446D01*
X99496080Y-113835485D01*
X99403386Y-113882715D01*
X99237786Y-114003028D01*
X99093028Y-114147786D01*
X98972715Y-114313386D01*
X98879781Y-114495776D01*
X98816522Y-114690465D01*
X98784500Y-114892648D01*
X98784500Y-115097351D01*
X98816522Y-115299534D01*
X98879781Y-115494223D01*
X98972715Y-115676613D01*
X99093028Y-115842213D01*
X99237786Y-115986971D01*
X99392749Y-116099556D01*
X99403390Y-116107287D01*
X99494840Y-116153883D01*
X99496080Y-116154515D01*
X99546876Y-116202490D01*
X99563671Y-116270311D01*
X99541134Y-116336446D01*
X99496080Y-116375485D01*
X99403386Y-116422715D01*
X99237786Y-116543028D01*
X99093028Y-116687786D01*
X98972715Y-116853386D01*
X98879781Y-117035776D01*
X98816522Y-117230465D01*
X98784500Y-117432648D01*
X98784500Y-117637351D01*
X98816522Y-117839534D01*
X98879781Y-118034223D01*
X98972715Y-118216613D01*
X99093028Y-118382213D01*
X99237786Y-118526971D01*
X99392749Y-118639556D01*
X99403390Y-118647287D01*
X99494840Y-118693883D01*
X99496080Y-118694515D01*
X99546876Y-118742490D01*
X99563671Y-118810311D01*
X99541134Y-118876446D01*
X99496080Y-118915485D01*
X99403386Y-118962715D01*
X99237786Y-119083028D01*
X99093028Y-119227786D01*
X98972715Y-119393386D01*
X98879781Y-119575776D01*
X98816522Y-119770465D01*
X98784500Y-119972648D01*
X98784500Y-120177351D01*
X98816522Y-120379534D01*
X98879781Y-120574223D01*
X98972715Y-120756613D01*
X99093028Y-120922213D01*
X99237786Y-121066971D01*
X99392749Y-121179556D01*
X99403390Y-121187287D01*
X99519607Y-121246503D01*
X99585776Y-121280218D01*
X99585778Y-121280218D01*
X99585781Y-121280220D01*
X99690137Y-121314127D01*
X99780465Y-121343477D01*
X99881557Y-121359488D01*
X99982648Y-121375500D01*
X99982649Y-121375500D01*
X100187351Y-121375500D01*
X100187352Y-121375500D01*
X100389534Y-121343477D01*
X100584219Y-121280220D01*
X100766610Y-121187287D01*
X100859590Y-121119732D01*
X100932213Y-121066971D01*
X100932215Y-121066968D01*
X100932219Y-121066966D01*
X101076966Y-120922219D01*
X101076968Y-120922215D01*
X101076971Y-120922213D01*
X101129732Y-120849590D01*
X101197287Y-120756610D01*
X101290220Y-120574219D01*
X101353477Y-120379534D01*
X101385500Y-120177352D01*
X101385500Y-119972648D01*
X101353477Y-119770466D01*
X101290220Y-119575781D01*
X101290218Y-119575778D01*
X101290218Y-119575776D01*
X101256503Y-119509607D01*
X101197287Y-119393390D01*
X101189556Y-119382749D01*
X101076971Y-119227786D01*
X100932213Y-119083028D01*
X100766614Y-118962715D01*
X100760006Y-118959348D01*
X100673917Y-118915483D01*
X100623123Y-118867511D01*
X100606328Y-118799690D01*
X100628865Y-118733555D01*
X100673917Y-118694516D01*
X100766610Y-118647287D01*
X100787770Y-118631913D01*
X100932213Y-118526971D01*
X100932215Y-118526968D01*
X100932219Y-118526966D01*
X101076966Y-118382219D01*
X101076968Y-118382215D01*
X101076971Y-118382213D01*
X101129732Y-118309590D01*
X101197287Y-118216610D01*
X101290220Y-118034219D01*
X101353477Y-117839534D01*
X101385500Y-117637352D01*
X101385500Y-117432648D01*
X101353477Y-117230466D01*
X101290220Y-117035781D01*
X101290218Y-117035778D01*
X101290218Y-117035776D01*
X101256503Y-116969607D01*
X101197287Y-116853390D01*
X101189556Y-116842749D01*
X101076971Y-116687786D01*
X100932213Y-116543028D01*
X100766614Y-116422715D01*
X100760006Y-116419348D01*
X100673917Y-116375483D01*
X100623123Y-116327511D01*
X100606328Y-116259690D01*
X100628865Y-116193555D01*
X100673917Y-116154516D01*
X100766610Y-116107287D01*
X100787770Y-116091913D01*
X100932213Y-115986971D01*
X100932215Y-115986968D01*
X100932219Y-115986966D01*
X101076966Y-115842219D01*
X101076968Y-115842215D01*
X101076971Y-115842213D01*
X101129732Y-115769590D01*
X101197287Y-115676610D01*
X101290220Y-115494219D01*
X101353477Y-115299534D01*
X101385500Y-115097352D01*
X101385500Y-114892648D01*
X101353477Y-114690466D01*
X101290220Y-114495781D01*
X101290218Y-114495778D01*
X101290218Y-114495776D01*
X101256503Y-114429607D01*
X101197287Y-114313390D01*
X101189556Y-114302749D01*
X101076971Y-114147786D01*
X100932213Y-114003028D01*
X100766614Y-113882715D01*
X100760006Y-113879348D01*
X100673917Y-113835483D01*
X100623123Y-113787511D01*
X100606328Y-113719690D01*
X100628865Y-113653555D01*
X100673917Y-113614516D01*
X100766610Y-113567287D01*
X100787770Y-113551913D01*
X100932213Y-113446971D01*
X100932215Y-113446968D01*
X100932219Y-113446966D01*
X101076966Y-113302219D01*
X101076968Y-113302215D01*
X101076971Y-113302213D01*
X101129732Y-113229590D01*
X101197287Y-113136610D01*
X101290220Y-112954219D01*
X101353477Y-112759534D01*
X101385500Y-112557352D01*
X101385500Y-112352648D01*
X101353477Y-112150466D01*
X101290220Y-111955781D01*
X101290218Y-111955778D01*
X101290218Y-111955776D01*
X101256503Y-111889607D01*
X101197287Y-111773390D01*
X101189556Y-111762749D01*
X101076971Y-111607786D01*
X100932213Y-111463028D01*
X100766614Y-111342715D01*
X100760006Y-111339348D01*
X100673917Y-111295483D01*
X100623123Y-111247511D01*
X100606328Y-111179690D01*
X100628865Y-111113555D01*
X100673917Y-111074516D01*
X100766610Y-111027287D01*
X100787770Y-111011913D01*
X100932213Y-110906971D01*
X100932215Y-110906968D01*
X100932219Y-110906966D01*
X101076966Y-110762219D01*
X101076968Y-110762215D01*
X101076971Y-110762213D01*
X101129732Y-110689590D01*
X101197287Y-110596610D01*
X101290220Y-110414219D01*
X101353477Y-110219534D01*
X101385500Y-110017352D01*
X101385500Y-109812648D01*
X101359521Y-109648624D01*
X101353477Y-109610465D01*
X101308413Y-109471773D01*
X101290220Y-109415781D01*
X101290218Y-109415778D01*
X101290218Y-109415776D01*
X101256503Y-109349607D01*
X101197287Y-109233390D01*
X101189556Y-109222749D01*
X101076971Y-109067786D01*
X100932213Y-108923028D01*
X100766614Y-108802715D01*
X100760006Y-108799348D01*
X100673917Y-108755483D01*
X100623123Y-108707511D01*
X100606328Y-108639690D01*
X100628865Y-108573555D01*
X100673917Y-108534516D01*
X100766610Y-108487287D01*
X100868067Y-108413575D01*
X100932213Y-108366971D01*
X100932215Y-108366968D01*
X100932219Y-108366966D01*
X101076966Y-108222219D01*
X101076968Y-108222215D01*
X101076971Y-108222213D01*
X101129732Y-108149590D01*
X101197287Y-108056610D01*
X101290220Y-107874219D01*
X101353477Y-107679534D01*
X101385500Y-107477352D01*
X101385500Y-107272648D01*
X101380923Y-107243751D01*
X101353477Y-107070465D01*
X101301911Y-106911763D01*
X101290220Y-106875781D01*
X101290218Y-106875778D01*
X101290218Y-106875776D01*
X101256503Y-106809607D01*
X101197287Y-106693390D01*
X101155363Y-106635686D01*
X101076971Y-106527786D01*
X100932213Y-106383028D01*
X100766614Y-106262715D01*
X100693057Y-106225236D01*
X100673917Y-106215483D01*
X100623123Y-106167511D01*
X100606328Y-106099690D01*
X100628865Y-106033555D01*
X100673917Y-105994516D01*
X100766610Y-105947287D01*
X100787770Y-105931913D01*
X100932213Y-105826971D01*
X100932215Y-105826968D01*
X100932219Y-105826966D01*
X101076966Y-105682219D01*
X101076968Y-105682215D01*
X101076971Y-105682213D01*
X101129732Y-105609590D01*
X101197287Y-105516610D01*
X101290220Y-105334219D01*
X101353477Y-105139534D01*
X101385500Y-104937352D01*
X101385500Y-104732648D01*
X101353477Y-104530466D01*
X101290220Y-104335781D01*
X101290218Y-104335778D01*
X101290218Y-104335776D01*
X101256503Y-104269607D01*
X101197287Y-104153390D01*
X101189556Y-104142749D01*
X101076971Y-103987786D01*
X100932213Y-103843028D01*
X100766614Y-103722715D01*
X100760006Y-103719348D01*
X100673917Y-103675483D01*
X100623123Y-103627511D01*
X100606328Y-103559690D01*
X100628865Y-103493555D01*
X100673917Y-103454516D01*
X100766610Y-103407287D01*
X100787770Y-103391913D01*
X100932213Y-103286971D01*
X100932215Y-103286968D01*
X100932219Y-103286966D01*
X101076966Y-103142219D01*
X101076968Y-103142215D01*
X101076971Y-103142213D01*
X101129732Y-103069590D01*
X101197287Y-102976610D01*
X101290220Y-102794219D01*
X101353477Y-102599534D01*
X101385500Y-102397352D01*
X101385500Y-102192648D01*
X101353477Y-101990466D01*
X101290220Y-101795781D01*
X101290218Y-101795778D01*
X101290218Y-101795776D01*
X101256503Y-101729607D01*
X101197287Y-101613390D01*
X101189556Y-101602749D01*
X101076971Y-101447786D01*
X100932213Y-101303028D01*
X100766614Y-101182715D01*
X100760006Y-101179348D01*
X100673917Y-101135483D01*
X100623123Y-101087511D01*
X100606328Y-101019690D01*
X100628865Y-100953555D01*
X100673917Y-100914516D01*
X100766610Y-100867287D01*
X100787770Y-100851913D01*
X100932213Y-100746971D01*
X100932215Y-100746968D01*
X100932219Y-100746966D01*
X101076966Y-100602219D01*
X101076968Y-100602215D01*
X101076971Y-100602213D01*
X101130926Y-100527949D01*
X101197287Y-100436610D01*
X101290220Y-100254219D01*
X101353477Y-100059534D01*
X101385500Y-99857352D01*
X101385500Y-99652648D01*
X101368892Y-99547790D01*
X101353477Y-99450465D01*
X101290218Y-99255776D01*
X101256503Y-99189607D01*
X101197287Y-99073390D01*
X101189556Y-99062749D01*
X101076971Y-98907786D01*
X100932213Y-98763028D01*
X100766614Y-98642715D01*
X100744784Y-98631592D01*
X100673917Y-98595483D01*
X100623123Y-98547511D01*
X100606328Y-98479690D01*
X100628865Y-98413555D01*
X100673917Y-98374516D01*
X100766610Y-98327287D01*
X100877809Y-98246497D01*
X100932213Y-98206971D01*
X100932215Y-98206968D01*
X100932219Y-98206966D01*
X101076966Y-98062219D01*
X101076968Y-98062215D01*
X101076971Y-98062213D01*
X101131183Y-97987595D01*
X101197287Y-97896610D01*
X101290220Y-97714219D01*
X101353477Y-97519534D01*
X101385500Y-97317352D01*
X101385500Y-97112648D01*
X101353477Y-96910466D01*
X101290220Y-96715781D01*
X101290218Y-96715778D01*
X101290218Y-96715776D01*
X101256503Y-96649607D01*
X101197287Y-96533390D01*
X101189556Y-96522749D01*
X101076971Y-96367786D01*
X100932213Y-96223028D01*
X100766614Y-96102715D01*
X100760006Y-96099348D01*
X100673917Y-96055483D01*
X100623123Y-96007511D01*
X100606328Y-95939690D01*
X100628865Y-95873555D01*
X100673917Y-95834516D01*
X100766610Y-95787287D01*
X100787770Y-95771913D01*
X100932213Y-95666971D01*
X100932215Y-95666968D01*
X100932219Y-95666966D01*
X101076966Y-95522219D01*
X101076968Y-95522215D01*
X101076971Y-95522213D01*
X101129732Y-95449590D01*
X101197287Y-95356610D01*
X101290220Y-95174219D01*
X101353477Y-94979534D01*
X101385500Y-94777352D01*
X101385500Y-94572648D01*
X101353477Y-94370466D01*
X101290220Y-94175781D01*
X101290218Y-94175778D01*
X101290218Y-94175776D01*
X101226139Y-94050016D01*
X101197287Y-93993390D01*
X101189556Y-93982749D01*
X101076971Y-93827786D01*
X100932213Y-93683028D01*
X100766614Y-93562715D01*
X100760006Y-93559348D01*
X100673917Y-93515483D01*
X100623123Y-93467511D01*
X100606328Y-93399690D01*
X100628865Y-93333555D01*
X100673917Y-93294516D01*
X100766610Y-93247287D01*
X100831696Y-93200000D01*
X100932213Y-93126971D01*
X100932215Y-93126968D01*
X100932219Y-93126966D01*
X101076966Y-92982219D01*
X101076968Y-92982215D01*
X101076971Y-92982213D01*
X101129732Y-92909590D01*
X101197287Y-92816610D01*
X101290220Y-92634219D01*
X101353477Y-92439534D01*
X101385500Y-92237352D01*
X101385500Y-92032648D01*
X101353477Y-91830466D01*
X101290220Y-91635781D01*
X101290218Y-91635778D01*
X101290218Y-91635776D01*
X101256503Y-91569607D01*
X101197287Y-91453390D01*
X101189556Y-91442749D01*
X101076971Y-91287786D01*
X100932213Y-91143028D01*
X100766614Y-91022715D01*
X100760006Y-91019348D01*
X100673917Y-90975483D01*
X100623123Y-90927511D01*
X100606328Y-90859690D01*
X100628865Y-90793555D01*
X100673917Y-90754516D01*
X100766610Y-90707287D01*
X100787770Y-90691913D01*
X100932213Y-90586971D01*
X100932215Y-90586968D01*
X100932219Y-90586966D01*
X101076966Y-90442219D01*
X101076968Y-90442215D01*
X101076971Y-90442213D01*
X101129732Y-90369590D01*
X101197287Y-90276610D01*
X101290220Y-90094219D01*
X101353477Y-89899534D01*
X101385500Y-89697352D01*
X101385500Y-89492648D01*
X101353477Y-89290466D01*
X101290220Y-89095781D01*
X101290218Y-89095778D01*
X101290218Y-89095776D01*
X101222540Y-88962952D01*
X101197287Y-88913390D01*
X101121222Y-88808694D01*
X101076971Y-88747786D01*
X100932219Y-88603034D01*
X100894674Y-88575756D01*
X100838547Y-88534978D01*
X100795882Y-88479649D01*
X100789903Y-88410036D01*
X100822508Y-88348240D01*
X100872426Y-88316955D01*
X100954334Y-88289814D01*
X101103656Y-88197712D01*
X101227712Y-88073656D01*
X101319814Y-87924334D01*
X101374999Y-87757797D01*
X101385500Y-87655009D01*
X101385499Y-86952648D01*
X106404500Y-86952648D01*
X106404500Y-87157351D01*
X106436522Y-87359534D01*
X106499781Y-87554223D01*
X106551135Y-87655009D01*
X106585595Y-87722641D01*
X106592715Y-87736613D01*
X106713028Y-87902213D01*
X106857786Y-88046971D01*
X106963299Y-88123629D01*
X107023390Y-88167287D01*
X107114840Y-88213883D01*
X107116080Y-88214515D01*
X107166876Y-88262490D01*
X107183671Y-88330311D01*
X107161134Y-88396446D01*
X107116080Y-88435485D01*
X107023386Y-88482715D01*
X106857786Y-88603028D01*
X106713028Y-88747786D01*
X106592715Y-88913386D01*
X106499781Y-89095776D01*
X106436522Y-89290465D01*
X106404500Y-89492648D01*
X106404500Y-89697351D01*
X106436522Y-89899534D01*
X106499781Y-90094223D01*
X106592715Y-90276613D01*
X106713028Y-90442213D01*
X106857786Y-90586971D01*
X107012749Y-90699556D01*
X107023390Y-90707287D01*
X107114840Y-90753883D01*
X107116080Y-90754515D01*
X107166876Y-90802490D01*
X107183671Y-90870311D01*
X107161134Y-90936446D01*
X107116080Y-90975485D01*
X107023386Y-91022715D01*
X106857786Y-91143028D01*
X106713028Y-91287786D01*
X106592715Y-91453386D01*
X106499781Y-91635776D01*
X106436522Y-91830465D01*
X106404500Y-92032648D01*
X106404500Y-92237351D01*
X106436522Y-92439534D01*
X106499781Y-92634223D01*
X106592715Y-92816613D01*
X106713028Y-92982213D01*
X106857786Y-93126971D01*
X107012749Y-93239556D01*
X107023390Y-93247287D01*
X107114840Y-93293883D01*
X107116080Y-93294515D01*
X107166876Y-93342490D01*
X107183671Y-93410311D01*
X107161134Y-93476446D01*
X107116080Y-93515485D01*
X107023386Y-93562715D01*
X106857786Y-93683028D01*
X106713028Y-93827786D01*
X106592715Y-93993386D01*
X106499781Y-94175776D01*
X106436522Y-94370465D01*
X106404500Y-94572648D01*
X106404500Y-94777351D01*
X106436522Y-94979534D01*
X106499781Y-95174223D01*
X106592715Y-95356613D01*
X106713028Y-95522213D01*
X106857786Y-95666971D01*
X107012749Y-95779556D01*
X107023390Y-95787287D01*
X107114840Y-95833883D01*
X107116080Y-95834515D01*
X107166876Y-95882490D01*
X107183671Y-95950311D01*
X107161134Y-96016446D01*
X107116080Y-96055485D01*
X107023386Y-96102715D01*
X106857786Y-96223028D01*
X106713028Y-96367786D01*
X106592715Y-96533386D01*
X106499781Y-96715776D01*
X106436522Y-96910465D01*
X106404500Y-97112648D01*
X106404500Y-97317351D01*
X106436522Y-97519534D01*
X106499781Y-97714223D01*
X106563691Y-97839653D01*
X106582403Y-97876376D01*
X106592715Y-97896613D01*
X106713028Y-98062213D01*
X106857786Y-98206971D01*
X107012749Y-98319556D01*
X107023390Y-98327287D01*
X107114840Y-98373883D01*
X107116080Y-98374515D01*
X107166876Y-98422490D01*
X107183671Y-98490311D01*
X107161134Y-98556446D01*
X107116080Y-98595485D01*
X107023386Y-98642715D01*
X106857786Y-98763028D01*
X106713028Y-98907786D01*
X106592715Y-99073386D01*
X106499781Y-99255776D01*
X106436522Y-99450465D01*
X106404500Y-99652648D01*
X106404500Y-99857351D01*
X106436522Y-100059534D01*
X106499781Y-100254223D01*
X106556712Y-100365955D01*
X106582483Y-100416533D01*
X106592715Y-100436613D01*
X106713028Y-100602213D01*
X106857786Y-100746971D01*
X107012749Y-100859556D01*
X107023390Y-100867287D01*
X107114840Y-100913883D01*
X107116080Y-100914515D01*
X107166876Y-100962490D01*
X107183671Y-101030311D01*
X107161134Y-101096446D01*
X107116080Y-101135485D01*
X107023386Y-101182715D01*
X106857786Y-101303028D01*
X106713028Y-101447786D01*
X106592715Y-101613386D01*
X106499781Y-101795776D01*
X106436522Y-101990465D01*
X106404500Y-102192648D01*
X106404500Y-102397351D01*
X106436522Y-102599534D01*
X106499781Y-102794223D01*
X106592715Y-102976613D01*
X106713028Y-103142213D01*
X106857786Y-103286971D01*
X107012749Y-103399556D01*
X107023390Y-103407287D01*
X107114840Y-103453883D01*
X107116080Y-103454515D01*
X107166876Y-103502490D01*
X107183671Y-103570311D01*
X107161134Y-103636446D01*
X107116080Y-103675485D01*
X107023386Y-103722715D01*
X106857786Y-103843028D01*
X106713028Y-103987786D01*
X106592715Y-104153386D01*
X106499781Y-104335776D01*
X106436522Y-104530465D01*
X106404500Y-104732648D01*
X106404500Y-104937351D01*
X106436522Y-105139534D01*
X106499781Y-105334223D01*
X106546166Y-105425257D01*
X106591844Y-105514905D01*
X106592715Y-105516613D01*
X106713028Y-105682213D01*
X106857786Y-105826971D01*
X107012749Y-105939556D01*
X107023390Y-105947287D01*
X107114840Y-105993883D01*
X107116080Y-105994515D01*
X107166876Y-106042490D01*
X107183671Y-106110311D01*
X107161134Y-106176446D01*
X107116080Y-106215485D01*
X107023386Y-106262715D01*
X106857786Y-106383028D01*
X106857782Y-106383032D01*
X106713035Y-106527780D01*
X106713028Y-106527786D01*
X106592715Y-106693386D01*
X106499781Y-106875776D01*
X106436522Y-107070465D01*
X106404500Y-107272648D01*
X106404500Y-107477351D01*
X106436522Y-107679534D01*
X106499781Y-107874223D01*
X106592715Y-108056613D01*
X106713028Y-108222213D01*
X106857786Y-108366971D01*
X106966575Y-108446009D01*
X107023390Y-108487287D01*
X107097404Y-108524999D01*
X107116080Y-108534515D01*
X107166876Y-108582490D01*
X107183671Y-108650311D01*
X107161134Y-108716446D01*
X107116080Y-108755485D01*
X107023386Y-108802715D01*
X106857786Y-108923028D01*
X106713028Y-109067786D01*
X106592715Y-109233386D01*
X106499781Y-109415776D01*
X106436522Y-109610465D01*
X106404500Y-109812648D01*
X106404500Y-110017351D01*
X106436522Y-110219534D01*
X106499781Y-110414223D01*
X106592715Y-110596613D01*
X106713028Y-110762213D01*
X106857786Y-110906971D01*
X107012749Y-111019556D01*
X107023390Y-111027287D01*
X107114840Y-111073883D01*
X107116080Y-111074515D01*
X107166876Y-111122490D01*
X107183671Y-111190311D01*
X107161134Y-111256446D01*
X107116080Y-111295485D01*
X107023386Y-111342715D01*
X106857786Y-111463028D01*
X106713028Y-111607786D01*
X106592715Y-111773386D01*
X106499781Y-111955776D01*
X106436522Y-112150465D01*
X106404500Y-112352648D01*
X106404500Y-112557351D01*
X106436522Y-112759534D01*
X106499781Y-112954223D01*
X106592715Y-113136613D01*
X106713028Y-113302213D01*
X106857786Y-113446971D01*
X107012749Y-113559556D01*
X107023390Y-113567287D01*
X107114840Y-113613883D01*
X107116080Y-113614515D01*
X107166876Y-113662490D01*
X107183671Y-113730311D01*
X107161134Y-113796446D01*
X107116080Y-113835485D01*
X107023386Y-113882715D01*
X106857786Y-114003028D01*
X106713028Y-114147786D01*
X106592715Y-114313386D01*
X106499781Y-114495776D01*
X106436522Y-114690465D01*
X106404500Y-114892648D01*
X106404500Y-115097351D01*
X106436522Y-115299534D01*
X106499781Y-115494223D01*
X106592715Y-115676613D01*
X106713028Y-115842213D01*
X106857786Y-115986971D01*
X107012749Y-116099556D01*
X107023390Y-116107287D01*
X107114840Y-116153883D01*
X107116080Y-116154515D01*
X107166876Y-116202490D01*
X107183671Y-116270311D01*
X107161134Y-116336446D01*
X107116080Y-116375485D01*
X107023386Y-116422715D01*
X106857786Y-116543028D01*
X106713028Y-116687786D01*
X106592715Y-116853386D01*
X106499781Y-117035776D01*
X106436522Y-117230465D01*
X106404500Y-117432648D01*
X106404500Y-117637351D01*
X106436522Y-117839534D01*
X106499781Y-118034223D01*
X106592715Y-118216613D01*
X106713028Y-118382213D01*
X106857786Y-118526971D01*
X107012749Y-118639556D01*
X107023390Y-118647287D01*
X107114840Y-118693883D01*
X107116080Y-118694515D01*
X107166876Y-118742490D01*
X107183671Y-118810311D01*
X107161134Y-118876446D01*
X107116080Y-118915485D01*
X107023386Y-118962715D01*
X106857786Y-119083028D01*
X106713028Y-119227786D01*
X106592715Y-119393386D01*
X106499781Y-119575776D01*
X106436522Y-119770465D01*
X106404500Y-119972648D01*
X106404500Y-120177351D01*
X106436522Y-120379534D01*
X106499781Y-120574223D01*
X106592715Y-120756613D01*
X106713028Y-120922213D01*
X106857786Y-121066971D01*
X107012749Y-121179556D01*
X107023390Y-121187287D01*
X107139607Y-121246503D01*
X107205776Y-121280218D01*
X107205778Y-121280218D01*
X107205781Y-121280220D01*
X107310137Y-121314127D01*
X107400465Y-121343477D01*
X107501557Y-121359488D01*
X107602648Y-121375500D01*
X107602649Y-121375500D01*
X107807351Y-121375500D01*
X107807352Y-121375500D01*
X108009534Y-121343477D01*
X108204219Y-121280220D01*
X108386610Y-121187287D01*
X108479590Y-121119732D01*
X108552213Y-121066971D01*
X108552215Y-121066968D01*
X108552219Y-121066966D01*
X108696966Y-120922219D01*
X108696968Y-120922215D01*
X108696971Y-120922213D01*
X108749732Y-120849590D01*
X108817287Y-120756610D01*
X108910220Y-120574219D01*
X108973477Y-120379534D01*
X109005500Y-120177352D01*
X109005500Y-119972648D01*
X108973477Y-119770466D01*
X108910220Y-119575781D01*
X108910218Y-119575778D01*
X108910218Y-119575776D01*
X108876503Y-119509607D01*
X108817287Y-119393390D01*
X108809556Y-119382749D01*
X108696971Y-119227786D01*
X108552213Y-119083028D01*
X108386614Y-118962715D01*
X108380006Y-118959348D01*
X108293917Y-118915483D01*
X108243123Y-118867511D01*
X108226328Y-118799690D01*
X108248865Y-118733555D01*
X108293917Y-118694516D01*
X108386610Y-118647287D01*
X108407770Y-118631913D01*
X108552213Y-118526971D01*
X108552215Y-118526968D01*
X108552219Y-118526966D01*
X108696966Y-118382219D01*
X108696968Y-118382215D01*
X108696971Y-118382213D01*
X108749732Y-118309590D01*
X108817287Y-118216610D01*
X108910220Y-118034219D01*
X108973477Y-117839534D01*
X109005500Y-117637352D01*
X109005500Y-117432648D01*
X108973477Y-117230466D01*
X108910220Y-117035781D01*
X108910218Y-117035778D01*
X108910218Y-117035776D01*
X108876503Y-116969607D01*
X108817287Y-116853390D01*
X108809556Y-116842749D01*
X108696971Y-116687786D01*
X108552213Y-116543028D01*
X108386614Y-116422715D01*
X108380006Y-116419348D01*
X108293917Y-116375483D01*
X108243123Y-116327511D01*
X108226328Y-116259690D01*
X108248865Y-116193555D01*
X108293917Y-116154516D01*
X108386610Y-116107287D01*
X108407770Y-116091913D01*
X108552213Y-115986971D01*
X108552215Y-115986968D01*
X108552219Y-115986966D01*
X108696966Y-115842219D01*
X108696968Y-115842215D01*
X108696971Y-115842213D01*
X108749732Y-115769590D01*
X108817287Y-115676610D01*
X108910220Y-115494219D01*
X108973477Y-115299534D01*
X109005500Y-115097352D01*
X109005500Y-114892648D01*
X108973477Y-114690466D01*
X108910220Y-114495781D01*
X108910218Y-114495778D01*
X108910218Y-114495776D01*
X108876503Y-114429607D01*
X108817287Y-114313390D01*
X108809556Y-114302749D01*
X108696971Y-114147786D01*
X108552213Y-114003028D01*
X108386614Y-113882715D01*
X108380006Y-113879348D01*
X108293917Y-113835483D01*
X108243123Y-113787511D01*
X108226328Y-113719690D01*
X108248865Y-113653555D01*
X108293917Y-113614516D01*
X108386610Y-113567287D01*
X108407770Y-113551913D01*
X108552213Y-113446971D01*
X108552215Y-113446968D01*
X108552219Y-113446966D01*
X108696966Y-113302219D01*
X108696968Y-113302215D01*
X108696971Y-113302213D01*
X108749732Y-113229590D01*
X108817287Y-113136610D01*
X108910220Y-112954219D01*
X108973477Y-112759534D01*
X109005500Y-112557352D01*
X109005500Y-112352648D01*
X108973477Y-112150466D01*
X108910220Y-111955781D01*
X108910218Y-111955778D01*
X108910218Y-111955776D01*
X108876503Y-111889607D01*
X108817287Y-111773390D01*
X108809556Y-111762749D01*
X108696971Y-111607786D01*
X108552213Y-111463028D01*
X108386614Y-111342715D01*
X108380006Y-111339348D01*
X108293917Y-111295483D01*
X108243123Y-111247511D01*
X108226328Y-111179690D01*
X108248865Y-111113555D01*
X108293917Y-111074516D01*
X108386610Y-111027287D01*
X108407770Y-111011913D01*
X108552213Y-110906971D01*
X108552215Y-110906968D01*
X108552219Y-110906966D01*
X108696966Y-110762219D01*
X108696968Y-110762215D01*
X108696971Y-110762213D01*
X108749732Y-110689590D01*
X108817287Y-110596610D01*
X108910220Y-110414219D01*
X108973477Y-110219534D01*
X109005500Y-110017352D01*
X109005500Y-109812648D01*
X108979521Y-109648624D01*
X108973477Y-109610465D01*
X108928413Y-109471773D01*
X108910220Y-109415781D01*
X108910218Y-109415778D01*
X108910218Y-109415776D01*
X108876503Y-109349607D01*
X108817287Y-109233390D01*
X108809556Y-109222749D01*
X108696971Y-109067786D01*
X108552213Y-108923028D01*
X108386614Y-108802715D01*
X108380006Y-108799348D01*
X108293917Y-108755483D01*
X108243123Y-108707511D01*
X108226328Y-108639690D01*
X108248865Y-108573555D01*
X108293917Y-108534516D01*
X108386610Y-108487287D01*
X108488067Y-108413575D01*
X108488103Y-108413549D01*
X113824500Y-108413549D01*
X113824500Y-108636450D01*
X113824501Y-108636466D01*
X113853594Y-108857452D01*
X113853595Y-108857457D01*
X113853596Y-108857463D01*
X113911290Y-109072780D01*
X113911293Y-109072790D01*
X113996593Y-109278722D01*
X113996595Y-109278726D01*
X114108052Y-109471774D01*
X114108057Y-109471780D01*
X114108058Y-109471782D01*
X114243751Y-109648622D01*
X114243757Y-109648629D01*
X114401370Y-109806242D01*
X114401376Y-109806247D01*
X114578226Y-109941948D01*
X114771274Y-110053405D01*
X114901140Y-110107197D01*
X114976074Y-110138236D01*
X114977219Y-110138710D01*
X115192537Y-110196404D01*
X115413543Y-110225500D01*
X115413550Y-110225500D01*
X115636450Y-110225500D01*
X115636457Y-110225500D01*
X115857463Y-110196404D01*
X116072781Y-110138710D01*
X116278726Y-110053405D01*
X116471774Y-109941948D01*
X116648624Y-109806247D01*
X116648629Y-109806242D01*
X116699550Y-109755322D01*
X116806242Y-109648629D01*
X116806247Y-109648624D01*
X116941948Y-109471774D01*
X117053405Y-109278726D01*
X117138710Y-109072781D01*
X117196404Y-108857463D01*
X117225500Y-108636457D01*
X117225500Y-108413575D01*
X118905000Y-108413575D01*
X118905000Y-108636424D01*
X118934085Y-108857354D01*
X118934088Y-108857367D01*
X118991763Y-109072618D01*
X119077045Y-109278502D01*
X119077054Y-109278520D01*
X119188464Y-109471491D01*
X119188473Y-109471504D01*
X119239040Y-109537403D01*
X119239043Y-109537403D01*
X120040387Y-108736059D01*
X120045889Y-108756591D01*
X120124881Y-108893408D01*
X120236592Y-109005119D01*
X120373409Y-109084111D01*
X120393940Y-109089612D01*
X119592595Y-109890955D01*
X119592595Y-109890956D01*
X119658507Y-109941533D01*
X119851485Y-110052949D01*
X119851497Y-110052954D01*
X120057381Y-110138236D01*
X120272632Y-110195911D01*
X120272645Y-110195914D01*
X120493575Y-110225000D01*
X120716425Y-110225000D01*
X120937354Y-110195914D01*
X120937367Y-110195911D01*
X121152618Y-110138236D01*
X121358502Y-110052954D01*
X121358514Y-110052949D01*
X121551498Y-109941530D01*
X121617403Y-109890957D01*
X121617404Y-109890956D01*
X120816059Y-109089612D01*
X120836591Y-109084111D01*
X120973408Y-109005119D01*
X121085119Y-108893408D01*
X121164111Y-108756591D01*
X121169612Y-108736059D01*
X121970956Y-109537404D01*
X121970957Y-109537403D01*
X122021530Y-109471498D01*
X122132949Y-109278514D01*
X122132954Y-109278502D01*
X122218236Y-109072618D01*
X122275911Y-108857367D01*
X122275914Y-108857354D01*
X122305000Y-108636424D01*
X122305000Y-108413575D01*
X122275914Y-108192645D01*
X122275911Y-108192632D01*
X122218236Y-107977381D01*
X122132954Y-107771497D01*
X122132949Y-107771485D01*
X122021533Y-107578507D01*
X121970956Y-107512595D01*
X121970955Y-107512595D01*
X121169612Y-108313939D01*
X121164111Y-108293409D01*
X121085119Y-108156592D01*
X120973408Y-108044881D01*
X120836591Y-107965889D01*
X120816058Y-107960387D01*
X121617403Y-107159043D01*
X121617403Y-107159040D01*
X121551504Y-107108473D01*
X121551491Y-107108464D01*
X121358520Y-106997054D01*
X121358502Y-106997045D01*
X121152618Y-106911763D01*
X120937367Y-106854088D01*
X120937354Y-106854085D01*
X120716425Y-106825000D01*
X120493575Y-106825000D01*
X120272645Y-106854085D01*
X120272632Y-106854088D01*
X120057381Y-106911763D01*
X119851497Y-106997045D01*
X119851479Y-106997054D01*
X119658511Y-107108462D01*
X119592595Y-107159042D01*
X120393941Y-107960387D01*
X120373409Y-107965889D01*
X120236592Y-108044881D01*
X120124881Y-108156592D01*
X120045889Y-108293409D01*
X120040387Y-108313940D01*
X119239042Y-107512595D01*
X119188462Y-107578511D01*
X119077054Y-107771479D01*
X119077045Y-107771497D01*
X118991763Y-107977381D01*
X118934088Y-108192632D01*
X118934085Y-108192645D01*
X118905000Y-108413575D01*
X117225500Y-108413575D01*
X117225500Y-108413543D01*
X117196404Y-108192537D01*
X117138710Y-107977219D01*
X117053405Y-107771274D01*
X116941948Y-107578226D01*
X116806247Y-107401376D01*
X116806242Y-107401370D01*
X116648629Y-107243757D01*
X116648622Y-107243751D01*
X116471782Y-107108058D01*
X116471780Y-107108057D01*
X116471774Y-107108052D01*
X116278726Y-106996595D01*
X116278722Y-106996593D01*
X116072790Y-106911293D01*
X116072783Y-106911291D01*
X116072781Y-106911290D01*
X115857463Y-106853596D01*
X115857457Y-106853595D01*
X115857452Y-106853594D01*
X115636466Y-106824501D01*
X115636463Y-106824500D01*
X115636457Y-106824500D01*
X115413543Y-106824500D01*
X115413537Y-106824500D01*
X115413533Y-106824501D01*
X115192547Y-106853594D01*
X115192540Y-106853595D01*
X115192537Y-106853596D01*
X115109760Y-106875776D01*
X114977219Y-106911290D01*
X114977209Y-106911293D01*
X114771277Y-106996593D01*
X114771273Y-106996595D01*
X114578226Y-107108052D01*
X114578217Y-107108058D01*
X114401377Y-107243751D01*
X114401370Y-107243757D01*
X114243757Y-107401370D01*
X114243751Y-107401377D01*
X114108058Y-107578217D01*
X114108052Y-107578226D01*
X113996595Y-107771273D01*
X113996593Y-107771277D01*
X113911293Y-107977209D01*
X113911290Y-107977219D01*
X113863228Y-108156592D01*
X113853597Y-108192534D01*
X113853594Y-108192547D01*
X113824501Y-108413533D01*
X113824500Y-108413549D01*
X108488103Y-108413549D01*
X108552213Y-108366971D01*
X108552215Y-108366968D01*
X108552219Y-108366966D01*
X108696966Y-108222219D01*
X108696968Y-108222215D01*
X108696971Y-108222213D01*
X108749732Y-108149590D01*
X108817287Y-108056610D01*
X108910220Y-107874219D01*
X108973477Y-107679534D01*
X109005500Y-107477352D01*
X109005500Y-107272648D01*
X109000923Y-107243751D01*
X108973477Y-107070465D01*
X108921911Y-106911763D01*
X108910220Y-106875781D01*
X108910218Y-106875778D01*
X108910218Y-106875776D01*
X108876503Y-106809607D01*
X108817287Y-106693390D01*
X108775363Y-106635686D01*
X108696971Y-106527786D01*
X108552213Y-106383028D01*
X108386614Y-106262715D01*
X108313057Y-106225236D01*
X108293917Y-106215483D01*
X108243123Y-106167511D01*
X108226328Y-106099690D01*
X108248865Y-106033555D01*
X108293917Y-105994516D01*
X108386610Y-105947287D01*
X108407770Y-105931913D01*
X108552213Y-105826971D01*
X108552215Y-105826968D01*
X108552219Y-105826966D01*
X108696966Y-105682219D01*
X108696968Y-105682215D01*
X108696971Y-105682213D01*
X108749732Y-105609590D01*
X108817287Y-105516610D01*
X108910220Y-105334219D01*
X108973477Y-105139534D01*
X109005500Y-104937352D01*
X109005500Y-104732648D01*
X108973477Y-104530466D01*
X108910220Y-104335781D01*
X108910218Y-104335778D01*
X108910218Y-104335776D01*
X108876503Y-104269607D01*
X108817287Y-104153390D01*
X108809556Y-104142749D01*
X108696971Y-103987786D01*
X108552213Y-103843028D01*
X108386614Y-103722715D01*
X108380006Y-103719348D01*
X108293917Y-103675483D01*
X108243123Y-103627511D01*
X108226328Y-103559690D01*
X108248865Y-103493555D01*
X108293917Y-103454516D01*
X108386610Y-103407287D01*
X108407770Y-103391913D01*
X108552213Y-103286971D01*
X108552215Y-103286968D01*
X108552219Y-103286966D01*
X108696966Y-103142219D01*
X108696968Y-103142215D01*
X108696971Y-103142213D01*
X108749732Y-103069590D01*
X108817287Y-102976610D01*
X108910220Y-102794219D01*
X108973477Y-102599534D01*
X109005500Y-102397352D01*
X109005500Y-102192648D01*
X108973477Y-101990466D01*
X108910220Y-101795781D01*
X108910218Y-101795778D01*
X108910218Y-101795776D01*
X108876503Y-101729607D01*
X108817287Y-101613390D01*
X108809556Y-101602749D01*
X108696971Y-101447786D01*
X108552213Y-101303028D01*
X108386614Y-101182715D01*
X108380006Y-101179348D01*
X108293917Y-101135483D01*
X108243123Y-101087511D01*
X108226328Y-101019690D01*
X108248865Y-100953555D01*
X108293917Y-100914516D01*
X108386610Y-100867287D01*
X108407770Y-100851913D01*
X108552213Y-100746971D01*
X108552215Y-100746968D01*
X108552219Y-100746966D01*
X108696966Y-100602219D01*
X108696968Y-100602215D01*
X108696971Y-100602213D01*
X108750926Y-100527949D01*
X108817287Y-100436610D01*
X108910220Y-100254219D01*
X108973477Y-100059534D01*
X109005500Y-99857352D01*
X109005500Y-99652648D01*
X108988892Y-99547790D01*
X108973477Y-99450465D01*
X108910218Y-99255776D01*
X108876503Y-99189607D01*
X108817287Y-99073390D01*
X108809556Y-99062749D01*
X108696971Y-98907786D01*
X108552213Y-98763028D01*
X108386614Y-98642715D01*
X108364784Y-98631592D01*
X108293917Y-98595483D01*
X108243123Y-98547511D01*
X108226328Y-98479690D01*
X108248865Y-98413555D01*
X108293917Y-98374516D01*
X108386610Y-98327287D01*
X108497809Y-98246497D01*
X108552213Y-98206971D01*
X108552215Y-98206968D01*
X108552219Y-98206966D01*
X108696966Y-98062219D01*
X108696968Y-98062215D01*
X108696971Y-98062213D01*
X108751183Y-97987595D01*
X108817287Y-97896610D01*
X108910220Y-97714219D01*
X108973477Y-97519534D01*
X109005500Y-97317352D01*
X109005500Y-97112648D01*
X108973477Y-96910466D01*
X108910220Y-96715781D01*
X108910218Y-96715778D01*
X108910218Y-96715776D01*
X108876503Y-96649607D01*
X108817287Y-96533390D01*
X108809556Y-96522749D01*
X108696971Y-96367786D01*
X108552213Y-96223028D01*
X108386614Y-96102715D01*
X108380006Y-96099348D01*
X108293917Y-96055483D01*
X108243123Y-96007511D01*
X108226328Y-95939690D01*
X108248865Y-95873555D01*
X108293917Y-95834516D01*
X108386610Y-95787287D01*
X108407770Y-95771913D01*
X108552213Y-95666971D01*
X108552215Y-95666968D01*
X108552219Y-95666966D01*
X108696966Y-95522219D01*
X108696968Y-95522215D01*
X108696971Y-95522213D01*
X108749732Y-95449590D01*
X108817287Y-95356610D01*
X108910220Y-95174219D01*
X108973477Y-94979534D01*
X109005500Y-94777352D01*
X109005500Y-94572648D01*
X108973477Y-94370466D01*
X108910220Y-94175781D01*
X108910218Y-94175778D01*
X108910218Y-94175776D01*
X108846139Y-94050016D01*
X108817287Y-93993390D01*
X108809556Y-93982749D01*
X108696971Y-93827786D01*
X108552213Y-93683028D01*
X108386614Y-93562715D01*
X108380006Y-93559348D01*
X108293917Y-93515483D01*
X108243123Y-93467511D01*
X108226328Y-93399690D01*
X108248865Y-93333555D01*
X108293917Y-93294516D01*
X108386610Y-93247287D01*
X108451696Y-93200000D01*
X108552213Y-93126971D01*
X108552215Y-93126968D01*
X108552219Y-93126966D01*
X108696966Y-92982219D01*
X108696968Y-92982215D01*
X108696971Y-92982213D01*
X108749732Y-92909590D01*
X108817287Y-92816610D01*
X108910220Y-92634219D01*
X108973477Y-92439534D01*
X109005500Y-92237352D01*
X109005500Y-92032648D01*
X108973477Y-91830466D01*
X108910220Y-91635781D01*
X108910218Y-91635778D01*
X108910218Y-91635776D01*
X108876503Y-91569607D01*
X108817287Y-91453390D01*
X108809556Y-91442749D01*
X108696971Y-91287786D01*
X108552213Y-91143028D01*
X108386614Y-91022715D01*
X108380006Y-91019348D01*
X108293917Y-90975483D01*
X108243123Y-90927511D01*
X108226328Y-90859690D01*
X108248865Y-90793555D01*
X108293917Y-90754516D01*
X108386610Y-90707287D01*
X108407770Y-90691913D01*
X108552213Y-90586971D01*
X108552215Y-90586968D01*
X108552219Y-90586966D01*
X108696966Y-90442219D01*
X108696968Y-90442215D01*
X108696971Y-90442213D01*
X108749732Y-90369590D01*
X108817287Y-90276610D01*
X108910220Y-90094219D01*
X108973477Y-89899534D01*
X109005500Y-89697352D01*
X109005500Y-89492648D01*
X108973477Y-89290466D01*
X108910220Y-89095781D01*
X108910218Y-89095778D01*
X108910218Y-89095776D01*
X108842540Y-88962952D01*
X108817287Y-88913390D01*
X108741222Y-88808694D01*
X108696971Y-88747786D01*
X108552213Y-88603028D01*
X108386614Y-88482715D01*
X108344596Y-88461306D01*
X108293917Y-88435483D01*
X108243123Y-88387511D01*
X108226328Y-88319690D01*
X108248865Y-88253555D01*
X108293917Y-88214516D01*
X108386610Y-88167287D01*
X108446701Y-88123629D01*
X108552213Y-88046971D01*
X108552215Y-88046968D01*
X108552219Y-88046966D01*
X108696966Y-87902219D01*
X108696968Y-87902215D01*
X108696971Y-87902213D01*
X108801892Y-87757799D01*
X108817287Y-87736610D01*
X108910220Y-87554219D01*
X108973477Y-87359534D01*
X109005500Y-87157352D01*
X109005500Y-86952648D01*
X108973477Y-86750466D01*
X108910220Y-86555781D01*
X108910218Y-86555778D01*
X108910218Y-86555776D01*
X108858865Y-86454991D01*
X108817287Y-86373390D01*
X108801892Y-86352200D01*
X108696971Y-86207786D01*
X108552213Y-86063028D01*
X108386613Y-85942715D01*
X108386612Y-85942714D01*
X108386610Y-85942713D01*
X108326898Y-85912288D01*
X108204223Y-85849781D01*
X108009534Y-85786522D01*
X107834995Y-85758878D01*
X107807352Y-85754500D01*
X107602648Y-85754500D01*
X107578329Y-85758351D01*
X107400465Y-85786522D01*
X107205776Y-85849781D01*
X107023386Y-85942715D01*
X106857786Y-86063028D01*
X106713028Y-86207786D01*
X106592715Y-86373386D01*
X106499781Y-86555776D01*
X106436522Y-86750465D01*
X106404500Y-86952648D01*
X101385499Y-86952648D01*
X101385499Y-86454992D01*
X101374999Y-86352203D01*
X101319814Y-86185666D01*
X101227712Y-86036344D01*
X101103656Y-85912288D01*
X100954334Y-85820186D01*
X100787797Y-85765001D01*
X100787795Y-85765000D01*
X100685010Y-85754500D01*
X99484998Y-85754500D01*
X99484981Y-85754501D01*
X99382203Y-85765000D01*
X99382200Y-85765001D01*
X99215668Y-85820185D01*
X99215663Y-85820187D01*
X99066342Y-85912289D01*
X98942289Y-86036342D01*
X98850187Y-86185663D01*
X98850186Y-86185666D01*
X98795001Y-86352203D01*
X98795001Y-86352204D01*
X98795000Y-86352204D01*
X98784500Y-86454983D01*
X89776305Y-86454983D01*
X86010502Y-66056885D01*
X86017688Y-65987387D01*
X86036840Y-65955403D01*
X94732213Y-55429425D01*
X94790079Y-55390282D01*
X94859929Y-55388636D01*
X94915487Y-55420722D01*
G37*
%TD.AperFunction*%
%TD*%
M02*
