%TF.GenerationSoftware,KiCad,Pcbnew,10.0.5-unknown-202607221313~667fa36054~ubuntu25.10.1*%
%TF.CreationDate,2026-10-09T19:51:19+00:00*%
%TF.ProjectId,ktest,6b746573-742e-46b6-9963-61645f706362,0.0.2*%
%TF.SameCoordinates,Original*%
%TF.FileFunction,Copper,L3,Inr*%
%TF.FilePolarity,Positive*%
%FSLAX46Y46*%
G04 Gerber Fmt 4.6, Leading zero omitted, Abs format (unit mm)*
G04 Created by KiCad (PCBNEW 10.0.5-unknown-202607221313~667fa36054~ubuntu25.10.1) date 2026-10-09 19:51:19*
%MOMM*%
%LPD*%
G01*
G04 APERTURE LIST*
G04 Aperture macros list*
%AMRoundRect*
0 Rectangle with rounded corners*
0 $1 Rounding radius*
0 $2 $3 $4 $5 $6 $7 $8 $9 X,Y pos of 4 corners*
0 Add a 4 corners polygon primitive as box body*
4,1,4,$2,$3,$4,$5,$6,$7,$8,$9,$2,$3,0*
0 Add four circle primitives for the rounded corners*
1,1,$1+$1,$2,$3*
1,1,$1+$1,$4,$5*
1,1,$1+$1,$6,$7*
1,1,$1+$1,$8,$9*
0 Add four rect primitives between the rounded corners*
20,1,$1+$1,$2,$3,$4,$5,0*
20,1,$1+$1,$4,$5,$6,$7,0*
20,1,$1+$1,$6,$7,$8,$9,0*
20,1,$1+$1,$8,$9,$2,$3,0*%
G04 Aperture macros list end*
%TA.AperFunction,ComponentPad*%
%ADD10C,1.000000*%
%TD*%
%TA.AperFunction,ComponentPad*%
%ADD11C,1.400000*%
%TD*%
%TA.AperFunction,ComponentPad*%
%ADD12C,0.600000*%
%TD*%
%TA.AperFunction,ComponentPad*%
%ADD13O,2.600000X1.600000*%
%TD*%
%TA.AperFunction,ComponentPad*%
%ADD14C,1.600000*%
%TD*%
%TA.AperFunction,ComponentPad*%
%ADD15R,1.600000X2.600000*%
%TD*%
%TA.AperFunction,ComponentPad*%
%ADD16O,1.000000X0.850000*%
%TD*%
%TA.AperFunction,ComponentPad*%
%ADD17O,1.000000X1.800000*%
%TD*%
%TA.AperFunction,ComponentPad*%
%ADD18RoundRect,0.250000X-0.600000X-0.725000X0.600000X-0.725000X0.600000X0.725000X-0.600000X0.725000X0*%
%TD*%
%TA.AperFunction,ComponentPad*%
%ADD19O,1.700000X1.950000*%
%TD*%
%TA.AperFunction,ComponentPad*%
%ADD20RoundRect,0.250000X0.600000X0.725000X-0.600000X0.725000X-0.600000X-0.725000X0.600000X-0.725000X0*%
%TD*%
%TA.AperFunction,ComponentPad*%
%ADD21R,1.090000X1.090000*%
%TD*%
%TA.AperFunction,ComponentPad*%
%ADD22C,1.090000*%
%TD*%
%TA.AperFunction,ComponentPad*%
%ADD23R,1.700000X1.700000*%
%TD*%
%TA.AperFunction,ComponentPad*%
%ADD24C,1.700000*%
%TD*%
%TA.AperFunction,WasherPad*%
%ADD25C,5.000000*%
%TD*%
%TA.AperFunction,ViaPad*%
%ADD26C,1.000000*%
%TD*%
%TA.AperFunction,ViaPad*%
%ADD27C,0.600000*%
%TD*%
%TA.AperFunction,ViaPad*%
%ADD28C,0.800000*%
%TD*%
%TA.AperFunction,Conductor*%
%ADD29C,0.400000*%
%TD*%
%TA.AperFunction,Conductor*%
%ADD30C,0.200000*%
%TD*%
G04 APERTURE END LIST*
D10*
%TO.N,/System overview/Block diagram/ENCb_filt*%
%TO.C,TP13*%
X138546000Y-57173000D03*
%TD*%
%TO.N,/System overview/Block diagram/GND*%
%TO.C,TP18*%
X179186000Y-79779000D03*
%TD*%
D11*
%TO.N,/System overview/Block diagram/DISP_DC*%
%TO.C,JP9*%
X116770000Y-62287000D03*
%TO.N,Net-(J3-Pin_5)*%
X116770000Y-67367000D03*
%TD*%
D10*
%TO.N,/System overview/Block diagram/3V3_REG*%
%TO.C,TP7*%
X173090000Y-71905000D03*
%TD*%
D12*
%TO.N,/System overview/Block diagram/GND*%
%TO.C,U1*%
X163356000Y-75065000D03*
X162056000Y-75065000D03*
X160756000Y-75065000D03*
X159456000Y-75065000D03*
X163356000Y-76365000D03*
X162056000Y-76365000D03*
X160756000Y-76365000D03*
X159456000Y-76365000D03*
%TD*%
D10*
%TO.N,/System overview/Block diagram/S3V3*%
%TO.C,TP10*%
X179186000Y-77493000D03*
%TD*%
%TO.N,/System overview/Block diagram/GND*%
%TO.C,TP21*%
X143626000Y-56919000D03*
%TD*%
%TO.N,/System overview/Block diagram/SW*%
%TO.C,TP6*%
X161406000Y-84097000D03*
%TD*%
%TO.N,/System overview/Block diagram/NRST*%
%TO.C,TP8*%
X136006000Y-72667000D03*
%TD*%
D13*
%TO.N,/System overview/Block diagram/S19V5_2*%
%TO.C,J6*%
X187333000Y-78451000D03*
X192883000Y-78451000D03*
D14*
%TO.N,unconnected-(J6-ID-Pad2)*%
X190108000Y-78451000D03*
D13*
%TO.N,/System overview/Block diagram/GND_2*%
X190108000Y-81851000D03*
X190108000Y-85651000D03*
D15*
X185333000Y-81551000D03*
X185333000Y-87951000D03*
X194883000Y-81551000D03*
X194883000Y-87951000D03*
%TD*%
D10*
%TO.N,/System overview/Block diagram/MOT_CS*%
%TO.C,TP14*%
X117972000Y-51331000D03*
%TD*%
%TO.N,/System overview/Block diagram/BOOT0*%
%TO.C,TP9*%
X137784000Y-61237000D03*
%TD*%
%TO.N,/System overview/Block diagram/FB*%
%TO.C,TP5*%
X157596000Y-80795000D03*
%TD*%
D16*
%TO.N,/System overview/Block diagram/GND*%
%TO.C,J5*%
X133807000Y-87947000D03*
%TO.N,Net-(J5-VBUS-PadA4)*%
X133807000Y-86847000D03*
%TO.N,/System overview/Block diagram/CC1*%
X133807000Y-85747000D03*
%TO.N,/System overview/Block diagram/D+*%
X133807000Y-84647000D03*
%TO.N,/System overview/Block diagram/D-*%
X133807000Y-83547000D03*
%TO.N,unconnected-(J5-SBU1-PadA8)*%
X133807000Y-82447000D03*
%TO.N,Net-(J5-VBUS-PadA4)*%
X133807000Y-81347000D03*
%TO.N,/System overview/Block diagram/GND*%
X133807000Y-80247000D03*
X135157000Y-80247000D03*
%TO.N,Net-(J5-VBUS-PadA4)*%
X135157000Y-81347000D03*
%TO.N,/System overview/Block diagram/CC2*%
X135157000Y-82447000D03*
%TO.N,/System overview/Block diagram/D+*%
X135157000Y-83547000D03*
%TO.N,/System overview/Block diagram/D-*%
X135157000Y-84647000D03*
%TO.N,unconnected-(J5-SBU2-PadB8)*%
X135157000Y-85747000D03*
%TO.N,Net-(J5-VBUS-PadA4)*%
X135157000Y-86847000D03*
%TO.N,/System overview/Block diagram/GND*%
X135157000Y-87947000D03*
D17*
X132332000Y-86597000D03*
X136632000Y-86597000D03*
X132332000Y-81597000D03*
X136632000Y-81597000D03*
%TD*%
D10*
%TO.N,/System overview/Block diagram/CS'*%
%TO.C,TP15*%
X143626000Y-54633000D03*
%TD*%
%TO.N,/System overview/Block diagram/SEL0*%
%TO.C,TP11*%
X133720000Y-70889000D03*
%TD*%
%TO.N,/System overview/Block diagram/TOP_filt*%
%TO.C,TP3*%
X122798000Y-77747000D03*
%TD*%
%TO.N,Net-(J5-VBUS-PadA4)*%
%TO.C,TP16*%
X138546000Y-88161000D03*
%TD*%
%TO.N,/System overview/Block diagram/GND*%
%TO.C,TP20*%
X161152000Y-87907000D03*
%TD*%
%TO.N,/System overview/Block diagram/GND*%
%TO.C,TP19*%
X117972000Y-53871000D03*
%TD*%
%TO.N,/System overview/Block diagram/BOT_filt*%
%TO.C,TP4*%
X120512000Y-77747000D03*
%TD*%
%TO.N,/System overview/Block diagram/ENCa_filt*%
%TO.C,TP12*%
X141086000Y-57173000D03*
%TD*%
%TO.N,/System overview/Block diagram/RT*%
%TO.C,TP2*%
X159120000Y-70889000D03*
%TD*%
D18*
%TO.N,/System overview/Block diagram/BOT_EOT*%
%TO.C,J1*%
X118032000Y-86366000D03*
D19*
%TO.N,/System overview/Block diagram/GND*%
X120532000Y-86366000D03*
X123032000Y-86366000D03*
%TO.N,/System overview/Block diagram/TOP_EOT*%
X125532000Y-86366000D03*
%TD*%
D11*
%TO.N,/System overview/Block diagram/SEL0'*%
%TO.C,JP18*%
X156580000Y-58443000D03*
%TO.N,/System overview/Block diagram/SEL0*%
X156580000Y-66063000D03*
%TD*%
D20*
%TO.N,/System overview/Block diagram/OUTb*%
%TO.C,J7*%
X156331300Y-45078000D03*
D19*
%TO.N,/System overview/Block diagram/OUTa*%
X153831300Y-45078000D03*
%TO.N,/System overview/Block diagram/S3V3*%
X151331300Y-45078000D03*
%TO.N,/System overview/Block diagram/GND*%
X148831300Y-45078000D03*
%TO.N,/System overview/Block diagram/ENCa*%
X146331300Y-45078000D03*
%TO.N,/System overview/Block diagram/ENCb*%
X143831300Y-45078000D03*
%TD*%
D10*
%TO.N,/System overview/Block diagram/PG*%
%TO.C,TP1*%
X159882000Y-80795000D03*
%TD*%
D11*
%TO.N,/System overview/Block diagram/OUTb*%
%TO.C,JP22*%
X158778000Y-56665000D03*
%TO.N,/System overview/Block diagram/OUTb'*%
X158778000Y-64285000D03*
%TD*%
D10*
%TO.N,/System overview/Block diagram/GND*%
%TO.C,TP17*%
X117210000Y-76477000D03*
%TD*%
D21*
%TO.N,/System overview/Block diagram/NRST*%
%TO.C,J4*%
X144673500Y-81912600D03*
D22*
%TO.N,/System overview/Block diagram/SWDCLK*%
X144673500Y-83182600D03*
%TO.N,/System overview/Block diagram/SWO'*%
X145943500Y-81912600D03*
%TO.N,/System overview/Block diagram/SWDIO*%
X145943500Y-83182600D03*
%TO.N,/System overview/Block diagram/GND*%
X147213500Y-81912600D03*
X147213500Y-83182600D03*
%TO.N,/System overview/Block diagram/S3V3*%
X148483500Y-81912600D03*
X148483500Y-83182600D03*
%TO.N,unconnected-(J4-Pin_9-Pad9)*%
X149753500Y-81912600D03*
%TO.N,unconnected-(J4-Pin_10-Pad10)*%
X149753500Y-83182600D03*
%TD*%
D23*
%TO.N,unconnected-(J2-Pin_1-Pad1)*%
%TO.C,J2*%
X178810000Y-69497000D03*
D24*
%TO.N,unconnected-(J2-Pin_2-Pad2)*%
X178810000Y-66957000D03*
%TO.N,unconnected-(J2-Pin_3-Pad3)*%
X178810000Y-64417000D03*
%TO.N,unconnected-(J2-Pin_4-Pad4)*%
X178810000Y-61877000D03*
%TD*%
D23*
%TO.N,/System overview/Block diagram/S3V3*%
%TO.C,J3*%
X105630000Y-82197000D03*
D24*
%TO.N,/System overview/Block diagram/GND*%
X105630000Y-79657000D03*
%TO.N,Net-(J3-Pin_3)*%
X105630000Y-77117000D03*
%TO.N,Net-(J3-Pin_4)*%
X105630000Y-74577000D03*
%TO.N,Net-(J3-Pin_5)*%
X105630000Y-72037000D03*
%TO.N,Net-(J3-Pin_6)*%
X105630000Y-69497000D03*
%TO.N,Net-(J3-Pin_7)*%
X105630000Y-66957000D03*
%TO.N,/System overview/Block diagram/S3V3*%
X105630000Y-64417000D03*
%TO.N,Net-(J3-Pin_9)*%
X105630000Y-61877000D03*
%TO.N,Net-(J3-Pin_10)*%
X105630000Y-59337000D03*
%TO.N,Net-(J3-Pin_11)*%
X105630000Y-56797000D03*
%TO.N,Net-(J3-Pin_12)*%
X105630000Y-54257000D03*
%TO.N,Net-(J3-Pin_13)*%
X105630000Y-51717000D03*
%TO.N,Net-(J3-Pin_14)*%
X105630000Y-49177000D03*
%TD*%
D25*
%TO.N,*%
%TO.C,TFT1*%
X110550000Y-84047000D03*
X177810000Y-84047000D03*
X110550000Y-47327000D03*
X177810000Y-47327000D03*
%TD*%
D26*
%TO.N,/System overview/Block diagram/GND*%
X152770000Y-64920000D03*
D27*
X123814000Y-69873000D03*
X126100000Y-78577000D03*
D26*
X150230000Y-53490000D03*
X148325000Y-54760000D03*
D27*
X106796000Y-86383000D03*
D26*
X172582000Y-63269000D03*
X149595000Y-54760000D03*
X174868000Y-50315000D03*
X172582000Y-58189000D03*
X150230000Y-64920000D03*
D27*
X128386000Y-55903000D03*
D26*
X152770000Y-53490000D03*
D27*
X145404000Y-52601000D03*
X136270000Y-43457000D03*
X120766000Y-67587000D03*
X120004000Y-56157000D03*
D26*
X151500000Y-53490000D03*
D27*
X117210000Y-78577000D03*
X143626000Y-60475000D03*
X123052000Y-51331000D03*
D26*
X150230000Y-56030000D03*
X154040000Y-53490000D03*
X161660000Y-47267000D03*
D27*
X136260000Y-47013000D03*
D26*
X152135000Y-66190000D03*
X148960000Y-67460000D03*
X150865000Y-66190000D03*
D27*
X140578000Y-49299000D03*
D26*
X152135000Y-54760000D03*
D27*
X175122000Y-78001000D03*
D26*
X170550000Y-63269000D03*
X151500000Y-56030000D03*
D27*
X175122000Y-79525000D03*
D26*
X152770000Y-56030000D03*
X153405000Y-66190000D03*
X154675000Y-54760000D03*
X173344000Y-48537000D03*
X170550000Y-58189000D03*
D27*
X130926000Y-74191000D03*
X120766000Y-83081000D03*
X166486000Y-76223000D03*
X132450000Y-50569000D03*
X129402000Y-57427000D03*
X122544000Y-83081000D03*
D26*
X161660000Y-48537000D03*
X148960000Y-53490000D03*
D27*
X135244000Y-58189000D03*
D26*
X154040000Y-67460000D03*
X149595000Y-66190000D03*
X148325000Y-66190000D03*
D27*
X135752000Y-53363000D03*
D26*
X151500000Y-64920000D03*
X150865000Y-54760000D03*
X152770000Y-67460000D03*
D27*
X166486000Y-79525000D03*
D26*
X151500000Y-67460000D03*
X150230000Y-67460000D03*
X153405000Y-54760000D03*
X154675000Y-66190000D03*
D27*
X166486000Y-74699000D03*
X166486000Y-78001000D03*
D26*
%TO.N,/System overview/Block diagram/S19V5*%
X164454000Y-63269000D03*
X162422000Y-63269000D03*
X162422000Y-58189000D03*
X164454000Y-58189000D03*
D28*
%TO.N,/System overview/Block diagram/NRST*%
X129148000Y-63777000D03*
%TO.N,/System overview/Block diagram/CS'*%
X152389000Y-58570000D03*
%TO.N,/System overview/Block diagram/SEL0*%
X127370000Y-63777000D03*
%TO.N,/System overview/Block diagram/PWM'*%
X152262000Y-62380000D03*
X146166000Y-64031000D03*
%TD*%
%TO.N,/System overview/Block diagram/NRST*%
D29*
X129148000Y-63777000D02*
X136006000Y-70635000D01*
X136006000Y-70635000D02*
X136006000Y-72667000D01*
%TO.N,Net-(J5-VBUS-PadA4)*%
D30*
X137482000Y-87349082D02*
X136984082Y-87847000D01*
X135279918Y-86847000D02*
X135157000Y-86847000D01*
X135279918Y-81347000D02*
X136279918Y-80347000D01*
X136279918Y-80347000D02*
X136984082Y-80347000D01*
X137482000Y-80844918D02*
X137482000Y-87349082D01*
X136984082Y-87847000D02*
X136279918Y-87847000D01*
X136279918Y-87847000D02*
X135279918Y-86847000D01*
X136984082Y-80347000D02*
X137482000Y-80844918D01*
X135157000Y-81347000D02*
X135279918Y-81347000D01*
%TO.N,/System overview/Block diagram/CS'*%
D29*
X152389000Y-58570000D02*
X147563000Y-58570000D01*
X147563000Y-58570000D02*
X143626000Y-54633000D01*
%TO.N,/System overview/Block diagram/SEL0*%
X127370000Y-64539000D02*
X127370000Y-63777000D01*
X133720000Y-70889000D02*
X127370000Y-64539000D01*
%TO.N,/System overview/Block diagram/PWM'*%
X147817000Y-62380000D02*
X152262000Y-62380000D01*
X146166000Y-64031000D02*
X147817000Y-62380000D01*
%TD*%
%TA.AperFunction,Conductor*%
%TO.N,Net-(J5-VBUS-PadA4)*%
G36*
X135925140Y-80843200D02*
G01*
X135783718Y-80701778D01*
X135103877Y-80922000D01*
X135217752Y-81409166D01*
X135624649Y-81509640D01*
X135925140Y-80843200D01*
G37*
%TD.AperFunction*%
%TD*%
%TA.AperFunction,Conductor*%
%TO.N,/System overview/Block diagram/PWM'*%
G36*
X151465422Y-62180000D02*
G01*
X151465422Y-62580000D01*
X152209790Y-62776578D01*
X152266422Y-62380000D01*
X152209790Y-61983422D01*
X151465422Y-62180000D01*
G37*
%TD.AperFunction*%
%TD*%
%TA.AperFunction,Conductor*%
%TO.N,Net-(J5-VBUS-PadA4)*%
G36*
X135783718Y-87492222D02*
G01*
X135925140Y-87350800D01*
X135624649Y-86684360D01*
X135217752Y-86784834D01*
X135103877Y-87272000D01*
X135783718Y-87492222D01*
G37*
%TD.AperFunction*%
%TD*%
%TA.AperFunction,Conductor*%
%TO.N,/System overview/Block diagram/SEL0*%
G36*
X133157339Y-70043497D02*
G01*
X132874497Y-70326339D01*
X133258060Y-71080342D01*
X133723731Y-70892731D01*
X133911342Y-70427060D01*
X133157339Y-70043497D01*
G37*
%TD.AperFunction*%
%TD*%
%TA.AperFunction,Conductor*%
%TO.N,/System overview/Block diagram/NRST*%
G36*
X136206000Y-71671278D02*
G01*
X135806000Y-71671278D01*
X135544060Y-72475658D01*
X136006000Y-72672278D01*
X136467940Y-72475658D01*
X136206000Y-71671278D01*
G37*
%TD.AperFunction*%
%TD*%
%TA.AperFunction,Conductor*%
%TO.N,/System overview/Block diagram/CS'*%
G36*
X151592422Y-58370000D02*
G01*
X151592422Y-58770000D01*
X152336790Y-58966578D01*
X152393422Y-58570000D01*
X152336790Y-58173422D01*
X151592422Y-58370000D01*
G37*
%TD.AperFunction*%
%TD*%
%TA.AperFunction,Conductor*%
%TO.N,/System overview/Block diagram/SEL0*%
G36*
X127253029Y-64704871D02*
G01*
X127535871Y-64422029D01*
X127511421Y-64397579D01*
X127570000Y-64539000D01*
X127739552Y-63930073D01*
X127370000Y-63772578D01*
X127000448Y-63930073D01*
X127170000Y-64539000D01*
X127228579Y-64680421D01*
X127253029Y-64704871D01*
G37*
%TD.AperFunction*%
%TD*%
%TA.AperFunction,Conductor*%
%TO.N,/System overview/Block diagram/NRST*%
G36*
X129569844Y-64481687D02*
G01*
X129852687Y-64198844D01*
X129465341Y-63533495D01*
X129144873Y-63773873D01*
X128904495Y-64094341D01*
X129569844Y-64481687D01*
G37*
%TD.AperFunction*%
%TD*%
%TA.AperFunction,Conductor*%
%TO.N,/System overview/Block diagram/CS'*%
G36*
X144188661Y-55478503D02*
G01*
X144471503Y-55195661D01*
X144087940Y-54441658D01*
X143622269Y-54629269D01*
X143434658Y-55094940D01*
X144188661Y-55478503D01*
G37*
%TD.AperFunction*%
%TD*%
%TA.AperFunction,Conductor*%
%TO.N,/System overview/Block diagram/PWM'*%
G36*
X146870687Y-63609156D02*
G01*
X146587844Y-63326313D01*
X145922495Y-63713659D01*
X146162873Y-64034127D01*
X146483341Y-64274505D01*
X146870687Y-63609156D01*
G37*
%TD.AperFunction*%
%TD*%
M02*
