%TF.GenerationSoftware,KiCad,Pcbnew,10.0.5-unknown-202607221313~667fa36054~ubuntu25.10.1*%
%TF.CreationDate,2026-10-07T18:14:38+00:00*%
%TF.ProjectId,ktest,6b746573-742e-46b6-9963-61645f706362,0.0.2*%
%TF.SameCoordinates,Original*%
%TF.FileFunction,Copper,L3,Inr*%
%TF.FilePolarity,Positive*%
%FSLAX46Y46*%
G04 Gerber Fmt 4.6, Leading zero omitted, Abs format (unit mm)*
G04 Created by KiCad (PCBNEW 10.0.5-unknown-202607221313~667fa36054~ubuntu25.10.1) date 2026-10-07 18:14:38*
%MOMM*%
%LPD*%
G01*
G04 APERTURE LIST*
%TA.AperFunction,ComponentPad*%
%ADD10R,1.800000X1.800000*%
%TD*%
%TA.AperFunction,ComponentPad*%
%ADD11C,1.800000*%
%TD*%
%TA.AperFunction,ComponentPad*%
%ADD12C,2.400000*%
%TD*%
%TA.AperFunction,ComponentPad*%
%ADD13R,1.700000X1.700000*%
%TD*%
%TA.AperFunction,ComponentPad*%
%ADD14C,1.700000*%
%TD*%
%TA.AperFunction,ViaPad*%
%ADD15C,0.600000*%
%TD*%
G04 APERTURE END LIST*
D10*
%TO.N,/System_overview/Block_diagram/child_1/a*%
%TO.C,D3*%
X158585000Y-66035000D03*
D11*
%TO.N,Net-(D3-A)*%
X161125000Y-66035000D03*
%TD*%
D10*
%TO.N,/child_1/a*%
%TO.C,D2*%
X146125000Y-88635000D03*
D11*
%TO.N,Net-(D2-A)*%
X148665000Y-88635000D03*
%TD*%
D10*
%TO.N,/System_overview/Block_diagram/a*%
%TO.C,D1*%
X122725000Y-90235000D03*
D11*
%TO.N,Net-(D1-A)*%
X125265000Y-90235000D03*
%TD*%
D12*
%TO.N,Net-(D3-A)*%
%TO.C,R22*%
X149855000Y-73075000D03*
%TO.N,/System_overview/Block_diagram/child_1/n*%
X154935000Y-73075000D03*
%TD*%
%TO.N,Net-(D1-A)*%
%TO.C,R4*%
X115525000Y-108525000D03*
%TO.N,/child_1/a*%
X120605000Y-108525000D03*
%TD*%
%TO.N,Net-(D1-A)*%
%TO.C,R4*%
X124075000Y-67025000D03*
%TO.N,/System_overview/Block_diagram/n*%
X129155000Y-67025000D03*
%TD*%
D10*
%TO.N,Net-(D2-K)*%
%TO.C,D2*%
X122725000Y-94305000D03*
D11*
%TO.N,Net-(D2-A)*%
X125265000Y-94305000D03*
%TD*%
D12*
%TO.N,Net-(D3-A)*%
%TO.C,R21*%
X149855000Y-67025000D03*
%TO.N,/System_overview/Block_diagram/child_1/n*%
X154935000Y-67025000D03*
%TD*%
%TO.N,Net-(D2-A)*%
%TO.C,R9*%
X124075000Y-79125000D03*
%TO.N,Net-(R10-Pad2)*%
X129155000Y-79125000D03*
%TD*%
D13*
%TO.N,/child_1/n*%
%TO.C,J1*%
X113259000Y-54881000D03*
D14*
%TO.N,Net-(J1-Pin_2)*%
X113259000Y-57421000D03*
%TO.N,Net-(J1-Pin_3)*%
X113259000Y-59961000D03*
%TD*%
D10*
%TO.N,/child_1/n*%
%TO.C,D1*%
X113175000Y-80535000D03*
D11*
%TO.N,Net-(D1-A)*%
X115715000Y-80535000D03*
%TD*%
D12*
%TO.N,Net-(D1-A)*%
%TO.C,R5*%
X124075000Y-73075000D03*
%TO.N,/System_overview/Block_diagram/n*%
X129155000Y-73075000D03*
%TD*%
%TO.N,Net-(D2-A)*%
%TO.C,R9*%
X138525000Y-77525000D03*
%TO.N,/child_1/n*%
X143605000Y-77525000D03*
%TD*%
D13*
%TO.N,Net-(D2-K)*%
%TO.C,J1*%
X118245000Y-81355000D03*
D14*
%TO.N,Net-(J1-Pin_2)*%
X118245000Y-83895000D03*
%TO.N,Net-(J1-Pin_3)*%
X118245000Y-86435000D03*
%TD*%
D12*
%TO.N,Net-(D2-A)*%
%TO.C,R10*%
X124075000Y-85175000D03*
%TO.N,Net-(R10-Pad2)*%
X129155000Y-85175000D03*
%TD*%
%TO.N,Net-(D1-A)*%
%TO.C,R5*%
X115525000Y-99000000D03*
%TO.N,/child_1/a*%
X120605000Y-99000000D03*
%TD*%
%TO.N,Net-(D2-A)*%
%TO.C,R10*%
X137030000Y-87000000D03*
%TO.N,/child_1/n*%
X131950000Y-87000000D03*
%TD*%
D15*
%TO.N,Net-(J1-Pin_3)*%
X95208000Y-52578000D03*
X106892000Y-58166000D03*
%TO.N,Net-(C1-Pad1)*%
X102455000Y-54957000D03*
%TO.N,Net-(J1-Pin_2)*%
X104005000Y-54957000D03*
X112480000Y-47752000D03*
%TD*%
%TA.AperFunction,Conductor*%
%TO.N,Net-(J1-Pin_3)*%
G36*
X112495677Y-44723685D02*
G01*
X112516319Y-44740319D01*
X115694319Y-47918319D01*
X115727804Y-47979642D01*
X115722820Y-48049334D01*
X115694319Y-48093681D01*
X115020000Y-48767999D01*
X115020000Y-63884000D01*
X115000315Y-63951039D01*
X114947511Y-63996794D01*
X114896000Y-64008000D01*
X94497362Y-64008000D01*
X94430323Y-63988315D01*
X94409681Y-63971681D01*
X93212319Y-62774319D01*
X93178834Y-62712996D01*
X93176000Y-62686638D01*
X93176000Y-54878153D01*
X101654500Y-54878153D01*
X101654500Y-55035846D01*
X101685261Y-55190489D01*
X101685264Y-55190501D01*
X101745602Y-55336172D01*
X101745609Y-55336185D01*
X101833210Y-55467288D01*
X101833213Y-55467292D01*
X101944707Y-55578786D01*
X101944711Y-55578789D01*
X102075814Y-55666390D01*
X102075827Y-55666397D01*
X102221498Y-55726735D01*
X102221503Y-55726737D01*
X102376153Y-55757499D01*
X102376156Y-55757500D01*
X102376158Y-55757500D01*
X102533844Y-55757500D01*
X102533845Y-55757499D01*
X102688497Y-55726737D01*
X102834179Y-55666394D01*
X102965289Y-55578789D01*
X103076789Y-55467289D01*
X103126898Y-55392296D01*
X103180510Y-55347491D01*
X103249835Y-55338784D01*
X103312862Y-55368938D01*
X103333102Y-55392296D01*
X103383210Y-55467288D01*
X103383213Y-55467292D01*
X103494707Y-55578786D01*
X103494711Y-55578789D01*
X103625814Y-55666390D01*
X103625827Y-55666397D01*
X103771498Y-55726735D01*
X103771503Y-55726737D01*
X103926153Y-55757499D01*
X103926156Y-55757500D01*
X103926158Y-55757500D01*
X104083844Y-55757500D01*
X104083845Y-55757499D01*
X104238497Y-55726737D01*
X104384179Y-55666394D01*
X104515289Y-55578789D01*
X104626789Y-55467289D01*
X104714394Y-55336179D01*
X104774737Y-55190497D01*
X104805500Y-55035842D01*
X104805500Y-54878158D01*
X104805500Y-54878155D01*
X104805499Y-54878153D01*
X104774738Y-54723510D01*
X104774737Y-54723503D01*
X104774735Y-54723498D01*
X104714397Y-54577827D01*
X104714390Y-54577814D01*
X104626789Y-54446711D01*
X104626786Y-54446707D01*
X104515292Y-54335213D01*
X104515288Y-54335210D01*
X104384185Y-54247609D01*
X104384172Y-54247602D01*
X104238501Y-54187264D01*
X104238489Y-54187261D01*
X104083845Y-54156500D01*
X104083842Y-54156500D01*
X103926158Y-54156500D01*
X103926155Y-54156500D01*
X103771510Y-54187261D01*
X103771498Y-54187264D01*
X103625827Y-54247602D01*
X103625814Y-54247609D01*
X103494711Y-54335210D01*
X103494707Y-54335213D01*
X103383213Y-54446707D01*
X103383210Y-54446711D01*
X103333102Y-54521703D01*
X103279489Y-54566508D01*
X103210164Y-54575215D01*
X103147137Y-54545060D01*
X103126898Y-54521703D01*
X103076789Y-54446711D01*
X103076786Y-54446707D01*
X102965292Y-54335213D01*
X102965288Y-54335210D01*
X102834185Y-54247609D01*
X102834172Y-54247602D01*
X102688501Y-54187264D01*
X102688489Y-54187261D01*
X102533845Y-54156500D01*
X102533842Y-54156500D01*
X102376158Y-54156500D01*
X102376155Y-54156500D01*
X102221510Y-54187261D01*
X102221498Y-54187264D01*
X102075827Y-54247602D01*
X102075814Y-54247609D01*
X101944711Y-54335210D01*
X101944707Y-54335213D01*
X101833213Y-54446707D01*
X101833210Y-54446711D01*
X101745609Y-54577814D01*
X101745602Y-54577827D01*
X101685264Y-54723498D01*
X101685261Y-54723510D01*
X101654500Y-54878153D01*
X93176000Y-54878153D01*
X93176000Y-53983135D01*
X111908500Y-53983135D01*
X111908500Y-55778870D01*
X111908501Y-55778876D01*
X111914908Y-55838483D01*
X111965202Y-55973328D01*
X111965206Y-55973335D01*
X112051452Y-56088544D01*
X112051455Y-56088547D01*
X112166664Y-56174793D01*
X112166671Y-56174797D01*
X112298082Y-56223810D01*
X112354016Y-56265681D01*
X112378433Y-56331145D01*
X112363582Y-56399418D01*
X112342431Y-56427673D01*
X112228889Y-56541215D01*
X112103951Y-56713179D01*
X112007444Y-56902585D01*
X111941753Y-57104760D01*
X111908500Y-57314713D01*
X111908500Y-57527286D01*
X111941753Y-57737239D01*
X112007444Y-57939414D01*
X112103951Y-58128820D01*
X112228890Y-58300786D01*
X112379213Y-58451109D01*
X112551179Y-58576048D01*
X112551181Y-58576049D01*
X112551184Y-58576051D01*
X112740588Y-58672557D01*
X112942757Y-58738246D01*
X113152713Y-58771500D01*
X113152714Y-58771500D01*
X113365286Y-58771500D01*
X113365287Y-58771500D01*
X113575243Y-58738246D01*
X113777412Y-58672557D01*
X113966816Y-58576051D01*
X113988789Y-58560086D01*
X114138786Y-58451109D01*
X114138788Y-58451106D01*
X114138792Y-58451104D01*
X114289104Y-58300792D01*
X114289106Y-58300788D01*
X114289109Y-58300786D01*
X114414048Y-58128820D01*
X114414047Y-58128820D01*
X114414051Y-58128816D01*
X114510557Y-57939412D01*
X114576246Y-57737243D01*
X114609500Y-57527287D01*
X114609500Y-57314713D01*
X114576246Y-57104757D01*
X114510557Y-56902588D01*
X114414051Y-56713184D01*
X114414049Y-56713181D01*
X114414048Y-56713179D01*
X114289109Y-56541213D01*
X114175569Y-56427673D01*
X114142084Y-56366350D01*
X114147068Y-56296658D01*
X114188940Y-56240725D01*
X114219915Y-56223810D01*
X114351331Y-56174796D01*
X114466546Y-56088546D01*
X114552796Y-55973331D01*
X114603091Y-55838483D01*
X114609500Y-55778873D01*
X114609499Y-53983128D01*
X114603091Y-53923517D01*
X114552796Y-53788669D01*
X114552795Y-53788668D01*
X114552793Y-53788664D01*
X114466547Y-53673455D01*
X114466544Y-53673452D01*
X114351335Y-53587206D01*
X114351328Y-53587202D01*
X114216482Y-53536908D01*
X114216483Y-53536908D01*
X114156883Y-53530501D01*
X114156881Y-53530500D01*
X114156873Y-53530500D01*
X114156864Y-53530500D01*
X112361129Y-53530500D01*
X112361123Y-53530501D01*
X112301516Y-53536908D01*
X112166671Y-53587202D01*
X112166664Y-53587206D01*
X112051455Y-53673452D01*
X112051452Y-53673455D01*
X111965206Y-53788664D01*
X111965202Y-53788671D01*
X111914908Y-53923517D01*
X111908501Y-53983116D01*
X111908501Y-53983123D01*
X111908500Y-53983135D01*
X93176000Y-53983135D01*
X93176000Y-47673153D01*
X111679500Y-47673153D01*
X111679500Y-47830846D01*
X111710261Y-47985489D01*
X111710264Y-47985501D01*
X111770602Y-48131172D01*
X111770609Y-48131185D01*
X111858210Y-48262288D01*
X111858213Y-48262292D01*
X111969707Y-48373786D01*
X111969711Y-48373789D01*
X112100814Y-48461390D01*
X112100827Y-48461397D01*
X112246498Y-48521735D01*
X112246503Y-48521737D01*
X112401153Y-48552499D01*
X112401156Y-48552500D01*
X112401158Y-48552500D01*
X112558844Y-48552500D01*
X112558845Y-48552499D01*
X112713497Y-48521737D01*
X112859179Y-48461394D01*
X112990289Y-48373789D01*
X113101789Y-48262289D01*
X113189394Y-48131179D01*
X113249737Y-47985497D01*
X113280500Y-47830842D01*
X113280500Y-47673158D01*
X113280500Y-47673155D01*
X113280499Y-47673153D01*
X113249738Y-47518510D01*
X113249737Y-47518503D01*
X113249735Y-47518498D01*
X113189397Y-47372827D01*
X113189390Y-47372814D01*
X113101789Y-47241711D01*
X113101786Y-47241707D01*
X112990292Y-47130213D01*
X112990288Y-47130210D01*
X112859185Y-47042609D01*
X112859172Y-47042602D01*
X112713501Y-46982264D01*
X112713489Y-46982261D01*
X112558845Y-46951500D01*
X112558842Y-46951500D01*
X112401158Y-46951500D01*
X112401155Y-46951500D01*
X112246510Y-46982261D01*
X112246498Y-46982264D01*
X112100827Y-47042602D01*
X112100814Y-47042609D01*
X111969711Y-47130210D01*
X111969707Y-47130213D01*
X111858213Y-47241707D01*
X111858210Y-47241711D01*
X111770609Y-47372814D01*
X111770602Y-47372827D01*
X111710264Y-47518498D01*
X111710261Y-47518510D01*
X111679500Y-47673153D01*
X93176000Y-47673153D01*
X93176000Y-47041362D01*
X93195685Y-46974323D01*
X93212319Y-46953681D01*
X95425681Y-44740319D01*
X95487004Y-44706834D01*
X95513362Y-44704000D01*
X112428638Y-44704000D01*
X112495677Y-44723685D01*
G37*
%TD.AperFunction*%
%TD*%
M02*
