%TF.GenerationSoftware,KiCad,Pcbnew,10.0.5-unknown-202607221313~667fa36054~ubuntu25.10.1*%
%TF.CreationDate,2026-10-09T19:10:45+00:00*%
%TF.ProjectId,ktest,6b746573-742e-46b6-9963-61645f706362,0.0.2*%
%TF.SameCoordinates,Original*%
%TF.FileFunction,Paste,Top*%
%TF.FilePolarity,Positive*%
%FSLAX46Y46*%
G04 Gerber Fmt 4.6, Leading zero omitted, Abs format (unit mm)*
G04 Created by KiCad (PCBNEW 10.0.5-unknown-202607221313~667fa36054~ubuntu25.10.1) date 2026-10-09 19:10:45*
%MOMM*%
%LPD*%
G01*
G04 APERTURE LIST*
G04 Aperture macros list*
%AMRoundRect*
0 Rectangle with rounded corners*
0 $1 Rounding radius*
0 $2 $3 $4 $5 $6 $7 $8 $9 X,Y pos of 4 corners*
0 Add a 4 corners polygon primitive as box body*
4,1,4,$2,$3,$4,$5,$6,$7,$8,$9,$2,$3,0*
0 Add four circle primitives for the rounded corners*
1,1,$1+$1,$2,$3*
1,1,$1+$1,$4,$5*
1,1,$1+$1,$6,$7*
1,1,$1+$1,$8,$9*
0 Add four rect primitives between the rounded corners*
20,1,$1+$1,$2,$3,$4,$5,0*
20,1,$1+$1,$4,$5,$6,$7,0*
20,1,$1+$1,$6,$7,$8,$9,0*
20,1,$1+$1,$8,$9,$2,$3,0*%
%AMFreePoly0*
4,1,33,0.340887,0.456921,0.417938,0.405438,0.469421,0.328387,0.487500,0.237500,0.487500,0.150000,1.000000,0.150000,1.029264,0.147118,1.083336,0.124720,1.124720,0.083336,1.147118,0.029264,1.147118,-0.029264,1.124720,-0.083336,1.083336,-0.124720,1.029264,-0.147118,1.000000,-0.150000,0.487500,-0.150000,0.487500,-0.237500,0.469421,-0.328387,0.417938,-0.405438,0.340887,-0.456921,
0.250000,-0.475000,-0.250000,-0.475000,-0.340887,-0.456921,-0.417938,-0.405438,-0.469421,-0.328387,-0.487500,-0.237500,-0.487500,0.237500,-0.469421,0.328387,-0.417938,0.405438,-0.340887,0.456921,-0.250000,0.475000,0.250000,0.475000,0.340887,0.456921,0.340887,0.456921,$1*%
G04 Aperture macros list end*
%ADD10RoundRect,0.237500X-0.237500X0.300000X-0.237500X-0.300000X0.237500X-0.300000X0.237500X0.300000X0*%
%ADD11RoundRect,0.237500X0.237500X-0.250000X0.237500X0.250000X-0.237500X0.250000X-0.237500X-0.250000X0*%
%ADD12FreePoly0,90.000000*%
%ADD13FreePoly0,270.000000*%
%ADD14RoundRect,0.237500X-0.300000X-0.237500X0.300000X-0.237500X0.300000X0.237500X-0.300000X0.237500X0*%
%ADD15RoundRect,0.250000X0.412500X1.100000X-0.412500X1.100000X-0.412500X-1.100000X0.412500X-1.100000X0*%
%ADD16RoundRect,0.298387X-0.626613X-1.401613X0.626613X-1.401613X0.626613X1.401613X-0.626613X1.401613X0*%
%ADD17RoundRect,0.237500X0.237500X-0.300000X0.237500X0.300000X-0.237500X0.300000X-0.237500X-0.300000X0*%
%ADD18RoundRect,0.237500X0.300000X0.237500X-0.300000X0.237500X-0.300000X-0.237500X0.300000X-0.237500X0*%
%ADD19FreePoly0,180.000000*%
%ADD20FreePoly0,0.000000*%
%ADD21RoundRect,0.237500X-0.237500X0.250000X-0.237500X-0.250000X0.237500X-0.250000X0.237500X0.250000X0*%
%ADD22R,3.100000X2.600000*%
%ADD23R,0.600000X1.550000*%
%ADD24RoundRect,0.237500X0.250000X0.237500X-0.250000X0.237500X-0.250000X-0.237500X0.250000X-0.237500X0*%
%ADD25RoundRect,0.250000X-0.625000X0.400000X-0.625000X-0.400000X0.625000X-0.400000X0.625000X0.400000X0*%
%ADD26RoundRect,0.250000X0.400000X0.625000X-0.400000X0.625000X-0.400000X-0.625000X0.400000X-0.625000X0*%
%ADD27RoundRect,0.250000X6.227000X0.829500X-6.227000X0.829500X-6.227000X-0.829500X6.227000X-0.829500X0*%
%ADD28RoundRect,0.250000X0.512000X0.829500X-0.512000X0.829500X-0.512000X-0.829500X0.512000X-0.829500X0*%
%ADD29RoundRect,0.250000X-0.650000X0.412500X-0.650000X-0.412500X0.650000X-0.412500X0.650000X0.412500X0*%
%ADD30RoundRect,0.250000X0.650000X-0.800000X0.650000X0.800000X-0.650000X0.800000X-0.650000X-0.800000X0*%
%ADD31RoundRect,0.162500X-0.575000X-0.162500X0.575000X-0.162500X0.575000X0.162500X-0.575000X0.162500X0*%
%ADD32RoundRect,0.250000X-0.400000X-0.625000X0.400000X-0.625000X0.400000X0.625000X-0.400000X0.625000X0*%
%ADD33RoundRect,0.150000X-0.150000X0.512500X-0.150000X-0.512500X0.150000X-0.512500X0.150000X0.512500X0*%
%ADD34RoundRect,0.125000X-0.125000X0.625000X-0.125000X-0.625000X0.125000X-0.625000X0.125000X0.625000X0*%
%ADD35RoundRect,0.125000X-0.625000X0.125000X-0.625000X-0.125000X0.625000X-0.125000X0.625000X0.125000X0*%
%ADD36RoundRect,0.250000X-1.750000X-1.000000X1.750000X-1.000000X1.750000X1.000000X-1.750000X1.000000X0*%
%ADD37RoundRect,0.250000X-0.412500X-1.100000X0.412500X-1.100000X0.412500X1.100000X-0.412500X1.100000X0*%
%ADD38RoundRect,0.150000X0.150000X-0.587500X0.150000X0.587500X-0.150000X0.587500X-0.150000X-0.587500X0*%
G04 APERTURE END LIST*
D10*
%TO.C,C27*%
X145404000Y-49452500D03*
X145404000Y-51177500D03*
%TD*%
D11*
%TO.C,R10*%
X120004000Y-51227500D03*
X120004000Y-49402500D03*
%TD*%
D12*
%TO.C,JP13*%
X120258000Y-72817500D03*
D13*
X120258000Y-70992500D03*
%TD*%
D10*
%TO.C,C14*%
X128386000Y-53008500D03*
X128386000Y-54733500D03*
%TD*%
D14*
%TO.C,C6*%
X161305500Y-70889000D03*
X163030500Y-70889000D03*
%TD*%
D15*
%TO.C,C18*%
X168556500Y-75461000D03*
X165431500Y-75461000D03*
%TD*%
D11*
%TO.C,R9*%
X135752000Y-56561500D03*
X135752000Y-54736500D03*
%TD*%
D16*
%TO.C,L1*%
X163711000Y-84097000D03*
X169261000Y-84097000D03*
%TD*%
D17*
%TO.C,C23*%
X141848000Y-51177500D03*
X141848000Y-49452500D03*
%TD*%
D18*
%TO.C,C10*%
X132296500Y-57427000D03*
X130571500Y-57427000D03*
%TD*%
D17*
%TO.C,C12*%
X159374000Y-84705500D03*
X159374000Y-82980500D03*
%TD*%
D10*
%TO.C,C9*%
X161660000Y-80440500D03*
X161660000Y-82165500D03*
%TD*%
D11*
%TO.C,JP20*%
X129656000Y-81707500D03*
X129656000Y-79882500D03*
%TD*%
D19*
%TO.C,JP8*%
X110756500Y-69365000D03*
D20*
X108931500Y-69365000D03*
%TD*%
D21*
%TO.C,R14*%
X130672000Y-85216500D03*
X130672000Y-87041500D03*
%TD*%
D19*
%TO.C,JP2*%
X110756500Y-53109000D03*
D20*
X108931500Y-53109000D03*
%TD*%
D22*
%TO.C,U1*%
X161406000Y-75715000D03*
D23*
X163311000Y-73015000D03*
X162041000Y-73015000D03*
X160771000Y-73015000D03*
X159501000Y-73015000D03*
X159501000Y-78415000D03*
X160771000Y-78415000D03*
X162041000Y-78415000D03*
X163311000Y-78415000D03*
%TD*%
D11*
%TO.C,R12*%
X143626000Y-51227500D03*
X143626000Y-49402500D03*
%TD*%
D20*
%TO.C,JP15*%
X139919500Y-65555000D03*
D19*
X141744500Y-65555000D03*
%TD*%
D24*
%TO.C,R13*%
X139458500Y-45235000D03*
X137633500Y-45235000D03*
%TD*%
D17*
%TO.C,C3*%
X117210000Y-81657500D03*
X117210000Y-79932500D03*
%TD*%
D25*
%TO.C,JP14*%
X144642000Y-69085000D03*
X144642000Y-72185000D03*
%TD*%
D20*
%TO.C,JP16*%
X139919500Y-67587000D03*
D19*
X141744500Y-67587000D03*
%TD*%
D11*
%TO.C,R7*%
X157596000Y-78659500D03*
X157596000Y-76834500D03*
%TD*%
D26*
%TO.C,JP5*%
X112156000Y-59713000D03*
X109056000Y-59713000D03*
%TD*%
D19*
%TO.C,JP10*%
X110756500Y-74445000D03*
D20*
X108931500Y-74445000D03*
%TD*%
D19*
%TO.C,JP21*%
X135394500Y-78001000D03*
D20*
X133569500Y-78001000D03*
%TD*%
D17*
%TO.C,C16*%
X122036000Y-72767500D03*
X122036000Y-71042500D03*
%TD*%
D27*
%TO.C,J8*%
X167502000Y-53807500D03*
D28*
X173217000Y-50378500D03*
X161787000Y-50378500D03*
%TD*%
D29*
%TO.C,C4*%
X165470000Y-69580500D03*
X165470000Y-72705500D03*
%TD*%
D18*
%TO.C,C26*%
X139408500Y-43457000D03*
X137683500Y-43457000D03*
%TD*%
D11*
%TO.C,R2*%
X127878000Y-81707500D03*
X127878000Y-79882500D03*
%TD*%
D14*
%TO.C,C1*%
X104917500Y-85113000D03*
X106642500Y-85113000D03*
%TD*%
D11*
%TO.C,R5*%
X118988000Y-81707500D03*
X118988000Y-79882500D03*
%TD*%
D30*
%TO.C,Y1*%
X132584000Y-55321000D03*
X132584000Y-52421000D03*
X130284000Y-52421000D03*
X130284000Y-55321000D03*
%TD*%
D18*
%TO.C,C25*%
X146520500Y-60475000D03*
X144795500Y-60475000D03*
%TD*%
D11*
%TO.C,R15*%
X138292000Y-82977500D03*
X138292000Y-81152500D03*
%TD*%
D24*
%TO.C,JP6*%
X110756500Y-61999000D03*
X108931500Y-61999000D03*
%TD*%
D31*
%TO.C,U3*%
X148637500Y-56030000D03*
X148637500Y-57300000D03*
X148637500Y-58570000D03*
X148637500Y-59840000D03*
X148637500Y-61110000D03*
X148637500Y-62380000D03*
X148637500Y-63650000D03*
X148637500Y-64920000D03*
X154362500Y-64920000D03*
X154362500Y-63650000D03*
X154362500Y-62380000D03*
X154362500Y-61110000D03*
X154362500Y-59840000D03*
X154362500Y-58570000D03*
X154362500Y-57300000D03*
X154362500Y-56030000D03*
%TD*%
D32*
%TO.C,JP19*%
X138266000Y-54633000D03*
X141366000Y-54633000D03*
%TD*%
D14*
%TO.C,C13*%
X133619500Y-61237000D03*
X135344500Y-61237000D03*
%TD*%
D11*
%TO.C,R6*%
X157596000Y-84755500D03*
X157596000Y-82930500D03*
%TD*%
D14*
%TO.C,C11*%
X133619500Y-59459000D03*
X135344500Y-59459000D03*
%TD*%
D26*
%TO.C,JP7*%
X112156000Y-66317000D03*
X109056000Y-66317000D03*
%TD*%
D15*
%TO.C,C17*%
X168556500Y-78763000D03*
X165431500Y-78763000D03*
%TD*%
D21*
%TO.C,R3*%
X157596000Y-72770500D03*
X157596000Y-74595500D03*
%TD*%
D17*
%TO.C,C5*%
X126100000Y-81657500D03*
X126100000Y-79932500D03*
%TD*%
D33*
%TO.C,U4*%
X131876000Y-75593500D03*
X130926000Y-75593500D03*
X129976000Y-75593500D03*
X129976000Y-77868500D03*
X130926000Y-77868500D03*
X131876000Y-77868500D03*
%TD*%
D17*
%TO.C,C19*%
X123814000Y-72767500D03*
X123814000Y-71042500D03*
%TD*%
D20*
%TO.C,JP17*%
X139919500Y-69619000D03*
D19*
X141744500Y-69619000D03*
%TD*%
D17*
%TO.C,C20*%
X121997900Y-69211500D03*
X121997900Y-67486500D03*
%TD*%
D34*
%TO.C,U2*%
X131440000Y-61634000D03*
X130640000Y-61634000D03*
X129840000Y-61634000D03*
X129040000Y-61634000D03*
X128240000Y-61634000D03*
X127440000Y-61634000D03*
X126640000Y-61634000D03*
X125840000Y-61634000D03*
D35*
X124465000Y-63009000D03*
X124465000Y-63809000D03*
X124465000Y-64609000D03*
X124465000Y-65409000D03*
X124465000Y-66209000D03*
X124465000Y-67009000D03*
X124465000Y-67809000D03*
X124465000Y-68609000D03*
D34*
X125840000Y-69984000D03*
X126640000Y-69984000D03*
X127440000Y-69984000D03*
X128240000Y-69984000D03*
X129040000Y-69984000D03*
X129840000Y-69984000D03*
X130640000Y-69984000D03*
X131440000Y-69984000D03*
D35*
X132815000Y-68609000D03*
X132815000Y-67809000D03*
X132815000Y-67009000D03*
X132815000Y-66209000D03*
X132815000Y-65409000D03*
X132815000Y-64609000D03*
X132815000Y-63809000D03*
X132815000Y-63009000D03*
%TD*%
D36*
%TO.C,C24*%
X163502000Y-60729000D03*
X171502000Y-60729000D03*
%TD*%
D19*
%TO.C,JP11*%
X110756500Y-76985000D03*
D20*
X108931500Y-76985000D03*
%TD*%
D26*
%TO.C,JP4*%
X112156000Y-57173000D03*
X109056000Y-57173000D03*
%TD*%
D21*
%TO.C,R8*%
X125846000Y-53466500D03*
X125846000Y-55291500D03*
%TD*%
%TO.C,R11*%
X121782000Y-49402500D03*
X121782000Y-51227500D03*
%TD*%
D37*
%TO.C,C15*%
X170765500Y-78763000D03*
X173890500Y-78763000D03*
%TD*%
D19*
%TO.C,JP1*%
X110756500Y-51331000D03*
D20*
X108931500Y-51331000D03*
%TD*%
D10*
%TO.C,C7*%
X120766000Y-79932500D03*
X120766000Y-81657500D03*
%TD*%
D11*
%TO.C,R1*%
X115432000Y-81707500D03*
X115432000Y-79882500D03*
%TD*%
D29*
%TO.C,C2*%
X168010000Y-69554300D03*
X168010000Y-72679300D03*
%TD*%
D11*
%TO.C,R4*%
X124322000Y-81707500D03*
X124322000Y-79882500D03*
%TD*%
D18*
%TO.C,C22*%
X139408500Y-47013000D03*
X137683500Y-47013000D03*
%TD*%
D19*
%TO.C,JP3*%
X110756500Y-54887000D03*
D20*
X108931500Y-54887000D03*
%TD*%
D38*
%TO.C,D1*%
X121848000Y-55062500D03*
X123748000Y-55062500D03*
X122798000Y-53187500D03*
%TD*%
D10*
%TO.C,C8*%
X122520000Y-79932500D03*
X122520000Y-81657500D03*
%TD*%
D20*
%TO.C,JP12*%
X175479500Y-74191000D03*
D19*
X177304500Y-74191000D03*
%TD*%
D10*
%TO.C,C21*%
X120004000Y-53262500D03*
X120004000Y-54987500D03*
%TD*%
M02*
