%TF.GenerationSoftware,KiCad,Pcbnew,10.0.5-unknown-202607221313~667fa36054~ubuntu25.10.1*%
%TF.CreationDate,2026-10-10T20:13:19+00:00*%
%TF.ProjectId,ktest,6b746573-742e-46b6-9963-61645f706362,1.0.1*%
%TF.SameCoordinates,Original*%
%TF.FileFunction,Soldermask,Top*%
%TF.FilePolarity,Negative*%
%FSLAX46Y46*%
G04 Gerber Fmt 4.6, Leading zero omitted, Abs format (unit mm)*
G04 Created by KiCad (PCBNEW 10.0.5-unknown-202607221313~667fa36054~ubuntu25.10.1) date 2026-10-10 20:13:19*
%MOMM*%
%LPD*%
G01*
G04 APERTURE LIST*
G04 Aperture macros list*
%AMRoundRect*
0 Rectangle with rounded corners*
0 $1 Rounding radius*
0 $2 $3 $4 $5 $6 $7 $8 $9 X,Y pos of 4 corners*
0 Add a 4 corners polygon primitive as box body*
4,1,4,$2,$3,$4,$5,$6,$7,$8,$9,$2,$3,0*
0 Add four circle primitives for the rounded corners*
1,1,$1+$1,$2,$3*
1,1,$1+$1,$4,$5*
1,1,$1+$1,$6,$7*
1,1,$1+$1,$8,$9*
0 Add four rect primitives between the rounded corners*
20,1,$1+$1,$2,$3,$4,$5,0*
20,1,$1+$1,$4,$5,$6,$7,0*
20,1,$1+$1,$6,$7,$8,$9,0*
20,1,$1+$1,$8,$9,$2,$3,0*%
%AMFreePoly0*
4,1,33,0.340887,0.456921,0.417938,0.405438,0.469421,0.328387,0.487500,0.237500,0.487500,0.150000,1.000000,0.150000,1.029264,0.147118,1.083336,0.124720,1.124720,0.083336,1.147118,0.029264,1.147118,-0.029264,1.124720,-0.083336,1.083336,-0.124720,1.029264,-0.147118,1.000000,-0.150000,0.487500,-0.150000,0.487500,-0.237500,0.469421,-0.328387,0.417938,-0.405438,0.340887,-0.456921,
0.250000,-0.475000,-0.250000,-0.475000,-0.340887,-0.456921,-0.417938,-0.405438,-0.469421,-0.328387,-0.487500,-0.237500,-0.487500,0.237500,-0.469421,0.328387,-0.417938,0.405438,-0.340887,0.456921,-0.250000,0.475000,0.250000,0.475000,0.340887,0.456921,0.340887,0.456921,$1*%
G04 Aperture macros list end*
%ADD10C,0.010000*%
%ADD11RoundRect,0.237500X-0.237500X0.300000X-0.237500X-0.300000X0.237500X-0.300000X0.237500X0.300000X0*%
%ADD12RoundRect,0.237500X0.237500X-0.250000X0.237500X0.250000X-0.237500X0.250000X-0.237500X-0.250000X0*%
%ADD13FreePoly0,90.000000*%
%ADD14FreePoly0,270.000000*%
%ADD15RoundRect,0.237500X-0.300000X-0.237500X0.300000X-0.237500X0.300000X0.237500X-0.300000X0.237500X0*%
%ADD16RoundRect,0.250000X0.412500X1.100000X-0.412500X1.100000X-0.412500X-1.100000X0.412500X-1.100000X0*%
%ADD17RoundRect,0.298387X-0.626613X-1.401613X0.626613X-1.401613X0.626613X1.401613X-0.626613X1.401613X0*%
%ADD18C,1.000000*%
%ADD19RoundRect,0.237500X0.237500X-0.300000X0.237500X0.300000X-0.237500X0.300000X-0.237500X-0.300000X0*%
%ADD20RoundRect,0.237500X0.300000X0.237500X-0.300000X0.237500X-0.300000X-0.237500X0.300000X-0.237500X0*%
%ADD21C,1.400000*%
%ADD22FreePoly0,180.000000*%
%ADD23FreePoly0,0.000000*%
%ADD24RoundRect,0.237500X-0.237500X0.250000X-0.237500X-0.250000X0.237500X-0.250000X0.237500X0.250000X0*%
%ADD25R,3.100000X2.600000*%
%ADD26R,0.600000X1.550000*%
%ADD27C,1.200000*%
%ADD28O,2.600000X1.600000*%
%ADD29C,1.600000*%
%ADD30R,1.600000X2.600000*%
%ADD31RoundRect,0.237500X0.250000X0.237500X-0.250000X0.237500X-0.250000X-0.237500X0.250000X-0.237500X0*%
%ADD32RoundRect,0.250000X-0.625000X0.400000X-0.625000X-0.400000X0.625000X-0.400000X0.625000X0.400000X0*%
%ADD33RoundRect,0.250000X0.400000X0.625000X-0.400000X0.625000X-0.400000X-0.625000X0.400000X-0.625000X0*%
%ADD34RoundRect,0.250000X6.227000X0.829500X-6.227000X0.829500X-6.227000X-0.829500X6.227000X-0.829500X0*%
%ADD35RoundRect,0.250000X0.512000X0.829500X-0.512000X0.829500X-0.512000X-0.829500X0.512000X-0.829500X0*%
%ADD36RoundRect,0.250000X-0.650000X0.412500X-0.650000X-0.412500X0.650000X-0.412500X0.650000X0.412500X0*%
%ADD37O,1.000000X0.850000*%
%ADD38O,1.000000X1.800000*%
%ADD39RoundRect,0.250000X0.650000X-0.800000X0.650000X0.800000X-0.650000X0.800000X-0.650000X-0.800000X0*%
%ADD40RoundRect,0.162500X-0.575000X-0.162500X0.575000X-0.162500X0.575000X0.162500X-0.575000X0.162500X0*%
%ADD41RoundRect,0.250000X-0.400000X-0.625000X0.400000X-0.625000X0.400000X0.625000X-0.400000X0.625000X0*%
%ADD42RoundRect,0.150000X-0.150000X0.512500X-0.150000X-0.512500X0.150000X-0.512500X0.150000X0.512500X0*%
%ADD43RoundRect,0.125000X-0.125000X0.625000X-0.125000X-0.625000X0.125000X-0.625000X0.125000X0.625000X0*%
%ADD44RoundRect,0.125000X-0.625000X0.125000X-0.625000X-0.125000X0.625000X-0.125000X0.625000X0.125000X0*%
%ADD45RoundRect,0.250000X-0.600000X-0.725000X0.600000X-0.725000X0.600000X0.725000X-0.600000X0.725000X0*%
%ADD46O,1.700000X1.950000*%
%ADD47RoundRect,0.250000X-1.750000X-1.000000X1.750000X-1.000000X1.750000X1.000000X-1.750000X1.000000X0*%
%ADD48RoundRect,0.250000X0.600000X0.725000X-0.600000X0.725000X-0.600000X-0.725000X0.600000X-0.725000X0*%
%ADD49RoundRect,0.250000X-0.412500X-1.100000X0.412500X-1.100000X0.412500X1.100000X-0.412500X1.100000X0*%
%ADD50RoundRect,0.150000X0.150000X-0.587500X0.150000X0.587500X-0.150000X0.587500X-0.150000X-0.587500X0*%
%ADD51RoundRect,0.080000X-0.545000X0.545000X-0.545000X-0.545000X0.545000X-0.545000X0.545000X0.545000X0*%
%ADD52C,1.250000*%
%ADD53R,1.700000X1.700000*%
%ADD54C,1.700000*%
%ADD55C,5.000000*%
G04 APERTURE END LIST*
D10*
X186079000Y-74699000D02*
X198271000Y-74699000D01*
X198271000Y-77349000D01*
X186079000Y-77349000D01*
X186079000Y-74699000D01*
G36*
X186079000Y-74699000D02*
G01*
X198271000Y-74699000D01*
X198271000Y-77349000D01*
X186079000Y-77349000D01*
X186079000Y-74699000D01*
G37*
X186079000Y-77239000D02*
X187857000Y-77239000D01*
X187857000Y-79779000D01*
X186079000Y-79779000D01*
X186079000Y-77239000D01*
G36*
X186079000Y-77239000D02*
G01*
X187857000Y-77239000D01*
X187857000Y-79779000D01*
X186079000Y-79779000D01*
X186079000Y-77239000D01*
G37*
X196493000Y-77239000D02*
X198271000Y-77239000D01*
X198271000Y-79779000D01*
X196493000Y-79779000D01*
X196493000Y-77239000D01*
G36*
X196493000Y-77239000D02*
G01*
X198271000Y-77239000D01*
X198271000Y-79779000D01*
X196493000Y-79779000D01*
X196493000Y-77239000D01*
G37*
D11*
%TO.C,C27*%
X147471000Y-49452500D03*
X147471000Y-51177500D03*
%TD*%
D12*
%TO.C,R10*%
X122071000Y-51227500D03*
X122071000Y-49402500D03*
%TD*%
D13*
%TO.C,JP13*%
X122325000Y-72817500D03*
D14*
X122325000Y-70992500D03*
%TD*%
D11*
%TO.C,C14*%
X130453000Y-53008500D03*
X130453000Y-54733500D03*
%TD*%
D15*
%TO.C,C6*%
X163372500Y-70889000D03*
X165097500Y-70889000D03*
%TD*%
D16*
%TO.C,C18*%
X170623500Y-75461000D03*
X167498500Y-75461000D03*
%TD*%
D12*
%TO.C,R9*%
X137819000Y-56561500D03*
X137819000Y-54736500D03*
%TD*%
D17*
%TO.C,L1*%
X165778000Y-84097000D03*
X171328000Y-84097000D03*
%TD*%
D18*
%TO.C,TP13*%
X140613000Y-57173000D03*
%TD*%
D19*
%TO.C,C23*%
X143915000Y-51177500D03*
X143915000Y-49452500D03*
%TD*%
D20*
%TO.C,C10*%
X134363500Y-57427000D03*
X132638500Y-57427000D03*
%TD*%
D18*
%TO.C,TP18*%
X181253000Y-79779000D03*
%TD*%
D19*
%TO.C,C12*%
X161441000Y-84705500D03*
X161441000Y-82980500D03*
%TD*%
D11*
%TO.C,C9*%
X163727000Y-80440500D03*
X163727000Y-82165500D03*
%TD*%
D21*
%TO.C,JP9*%
X118837000Y-62287000D03*
X118837000Y-67367000D03*
%TD*%
D18*
%TO.C,TP10*%
X175157000Y-71899722D03*
%TD*%
%TO.C,TP7*%
X119288000Y-76454000D03*
%TD*%
D12*
%TO.C,JP20*%
X131723000Y-81707500D03*
X131723000Y-79882500D03*
%TD*%
D22*
%TO.C,JP8*%
X112823500Y-69365000D03*
D23*
X110998500Y-69365000D03*
%TD*%
D24*
%TO.C,R14*%
X132739000Y-85216500D03*
X132739000Y-87041500D03*
%TD*%
D22*
%TO.C,JP2*%
X112823500Y-53109000D03*
D23*
X110998500Y-53109000D03*
%TD*%
D25*
%TO.C,U1*%
X163473000Y-75715000D03*
D26*
X165378000Y-73015000D03*
X164108000Y-73015000D03*
X162838000Y-73015000D03*
X161568000Y-73015000D03*
X161568000Y-78415000D03*
X162838000Y-78415000D03*
X164108000Y-78415000D03*
X165378000Y-78415000D03*
%TD*%
D18*
%TO.C,TP17*%
X181253000Y-77493000D03*
%TD*%
D12*
%TO.C,R12*%
X145693000Y-51227500D03*
X145693000Y-49402500D03*
%TD*%
D18*
%TO.C,TP21*%
X145693000Y-56919000D03*
%TD*%
%TO.C,TP6*%
X163473000Y-84097000D03*
%TD*%
%TO.C,TP8*%
X138073000Y-72667000D03*
%TD*%
D27*
%TO.C,J6*%
X190450000Y-88001000D03*
X193900000Y-88001000D03*
D28*
X189400000Y-78451000D03*
X194950000Y-78451000D03*
D29*
X192175000Y-78451000D03*
D28*
X192175000Y-81851000D03*
X192175000Y-85651000D03*
D30*
X187400000Y-81551000D03*
X187400000Y-87951000D03*
X196950000Y-81551000D03*
X196950000Y-87951000D03*
%TD*%
D23*
%TO.C,JP15*%
X141986500Y-65555000D03*
D22*
X143811500Y-65555000D03*
%TD*%
D18*
%TO.C,TP14*%
X120039000Y-51331000D03*
%TD*%
D31*
%TO.C,R13*%
X141525500Y-45235000D03*
X139700500Y-45235000D03*
%TD*%
D18*
%TO.C,TP9*%
X139851000Y-61237000D03*
%TD*%
D19*
%TO.C,C3*%
X119277000Y-81657500D03*
X119277000Y-79932500D03*
%TD*%
D32*
%TO.C,JP14*%
X146709000Y-69085000D03*
X146709000Y-72185000D03*
%TD*%
D23*
%TO.C,JP16*%
X141986500Y-67587000D03*
D22*
X143811500Y-67587000D03*
%TD*%
D18*
%TO.C,TP5*%
X159663000Y-80795000D03*
%TD*%
D12*
%TO.C,R7*%
X159663000Y-78659500D03*
X159663000Y-76834500D03*
%TD*%
D33*
%TO.C,JP5*%
X114223000Y-59713000D03*
X111123000Y-59713000D03*
%TD*%
D22*
%TO.C,JP10*%
X112823500Y-74445000D03*
D23*
X110998500Y-74445000D03*
%TD*%
D22*
%TO.C,JP21*%
X137461500Y-78001000D03*
D23*
X135636500Y-78001000D03*
%TD*%
D19*
%TO.C,C16*%
X124103000Y-72767500D03*
X124103000Y-71042500D03*
%TD*%
D34*
%TO.C,J8*%
X169569000Y-53807500D03*
D35*
X175284000Y-50378500D03*
X163854000Y-50378500D03*
%TD*%
D36*
%TO.C,C4*%
X167537000Y-69580500D03*
X167537000Y-72705500D03*
%TD*%
D20*
%TO.C,C26*%
X141475500Y-43457000D03*
X139750500Y-43457000D03*
%TD*%
D37*
%TO.C,J5*%
X135874000Y-87947000D03*
X135874000Y-86847000D03*
X135874000Y-85747000D03*
X135874000Y-84647000D03*
X135874000Y-83547000D03*
X135874000Y-82447000D03*
X135874000Y-81347000D03*
X135874000Y-80247000D03*
X137224000Y-80247000D03*
X137224000Y-81347000D03*
X137224000Y-82447000D03*
X137224000Y-83547000D03*
X137224000Y-84647000D03*
X137224000Y-85747000D03*
X137224000Y-86847000D03*
X137224000Y-87947000D03*
D38*
X134399000Y-86597000D03*
X138699000Y-86597000D03*
X134399000Y-81597000D03*
X138699000Y-81597000D03*
%TD*%
D18*
%TO.C,TP15*%
X145693000Y-54633000D03*
%TD*%
D12*
%TO.C,R2*%
X129945000Y-81707500D03*
X129945000Y-79882500D03*
%TD*%
D15*
%TO.C,C1*%
X106984500Y-85113000D03*
X108709500Y-85113000D03*
%TD*%
D12*
%TO.C,R5*%
X121055000Y-81707500D03*
X121055000Y-79882500D03*
%TD*%
D18*
%TO.C,TP11*%
X135787000Y-70889000D03*
%TD*%
%TO.C,TP3*%
X124865000Y-77747000D03*
%TD*%
%TO.C,TP16*%
X140613000Y-88161000D03*
%TD*%
D39*
%TO.C,Y1*%
X134651000Y-55321000D03*
X134651000Y-52421000D03*
X132351000Y-52421000D03*
X132351000Y-55321000D03*
%TD*%
D20*
%TO.C,C25*%
X148587500Y-60475000D03*
X146862500Y-60475000D03*
%TD*%
D12*
%TO.C,R15*%
X140359000Y-82977500D03*
X140359000Y-81152500D03*
%TD*%
D31*
%TO.C,JP6*%
X112823500Y-61999000D03*
X110998500Y-61999000D03*
%TD*%
D40*
%TO.C,U3*%
X150704500Y-56030000D03*
X150704500Y-57300000D03*
X150704500Y-58570000D03*
X150704500Y-59840000D03*
X150704500Y-61110000D03*
X150704500Y-62380000D03*
X150704500Y-63650000D03*
X150704500Y-64920000D03*
X156429500Y-64920000D03*
X156429500Y-63650000D03*
X156429500Y-62380000D03*
X156429500Y-61110000D03*
X156429500Y-59840000D03*
X156429500Y-58570000D03*
X156429500Y-57300000D03*
X156429500Y-56030000D03*
%TD*%
D41*
%TO.C,JP19*%
X140333000Y-54633000D03*
X143433000Y-54633000D03*
%TD*%
D15*
%TO.C,C13*%
X135686500Y-61237000D03*
X137411500Y-61237000D03*
%TD*%
D12*
%TO.C,R6*%
X159663000Y-84755500D03*
X159663000Y-82930500D03*
%TD*%
D18*
%TO.C,TP20*%
X163219000Y-87907000D03*
%TD*%
%TO.C,TP19*%
X120039000Y-53871000D03*
%TD*%
D15*
%TO.C,C11*%
X135686500Y-59459000D03*
X137411500Y-59459000D03*
%TD*%
D33*
%TO.C,JP7*%
X114223000Y-66317000D03*
X111123000Y-66317000D03*
%TD*%
D16*
%TO.C,C17*%
X170623500Y-78763000D03*
X167498500Y-78763000D03*
%TD*%
D18*
%TO.C,TP4*%
X122579000Y-77747000D03*
%TD*%
D24*
%TO.C,R3*%
X159663000Y-72770500D03*
X159663000Y-74595500D03*
%TD*%
D19*
%TO.C,C5*%
X128167000Y-81657500D03*
X128167000Y-79932500D03*
%TD*%
D42*
%TO.C,U4*%
X133943000Y-75593500D03*
X132993000Y-75593500D03*
X132043000Y-75593500D03*
X132043000Y-77868500D03*
X132993000Y-77868500D03*
X133943000Y-77868500D03*
%TD*%
D19*
%TO.C,C19*%
X125881000Y-72767500D03*
X125881000Y-71042500D03*
%TD*%
D18*
%TO.C,TP12*%
X143153000Y-57173000D03*
%TD*%
D23*
%TO.C,JP17*%
X141986500Y-69619000D03*
D22*
X143811500Y-69619000D03*
%TD*%
D19*
%TO.C,C20*%
X124064900Y-69211500D03*
X124064900Y-67486500D03*
%TD*%
D18*
%TO.C,TP2*%
X161187000Y-70889000D03*
%TD*%
D43*
%TO.C,U2*%
X133507000Y-61634000D03*
X132707000Y-61634000D03*
X131907000Y-61634000D03*
X131107000Y-61634000D03*
X130307000Y-61634000D03*
X129507000Y-61634000D03*
X128707000Y-61634000D03*
X127907000Y-61634000D03*
D44*
X126532000Y-63009000D03*
X126532000Y-63809000D03*
X126532000Y-64609000D03*
X126532000Y-65409000D03*
X126532000Y-66209000D03*
X126532000Y-67009000D03*
X126532000Y-67809000D03*
X126532000Y-68609000D03*
D43*
X127907000Y-69984000D03*
X128707000Y-69984000D03*
X129507000Y-69984000D03*
X130307000Y-69984000D03*
X131107000Y-69984000D03*
X131907000Y-69984000D03*
X132707000Y-69984000D03*
X133507000Y-69984000D03*
D44*
X134882000Y-68609000D03*
X134882000Y-67809000D03*
X134882000Y-67009000D03*
X134882000Y-66209000D03*
X134882000Y-65409000D03*
X134882000Y-64609000D03*
X134882000Y-63809000D03*
X134882000Y-63009000D03*
%TD*%
D45*
%TO.C,J1*%
X120099000Y-86366000D03*
D46*
X122599000Y-86366000D03*
X125099000Y-86366000D03*
X127599000Y-86366000D03*
%TD*%
D47*
%TO.C,C24*%
X165569000Y-60729000D03*
X173569000Y-60729000D03*
%TD*%
D22*
%TO.C,JP11*%
X112823500Y-76985000D03*
D23*
X110998500Y-76985000D03*
%TD*%
D21*
%TO.C,JP18*%
X158647000Y-58443000D03*
X158647000Y-66063000D03*
%TD*%
D48*
%TO.C,J7*%
X158398300Y-45078000D03*
D46*
X155898300Y-45078000D03*
X153398300Y-45078000D03*
X150898300Y-45078000D03*
X148398300Y-45078000D03*
X145898300Y-45078000D03*
%TD*%
D33*
%TO.C,JP4*%
X114223000Y-57173000D03*
X111123000Y-57173000D03*
%TD*%
D24*
%TO.C,R8*%
X127913000Y-53466500D03*
X127913000Y-55291500D03*
%TD*%
%TO.C,R11*%
X123849000Y-49402500D03*
X123849000Y-51227500D03*
%TD*%
D49*
%TO.C,C15*%
X172832500Y-78763000D03*
X175957500Y-78763000D03*
%TD*%
D18*
%TO.C,TP1*%
X161949000Y-80795000D03*
%TD*%
D22*
%TO.C,JP1*%
X112823500Y-51331000D03*
D23*
X110998500Y-51331000D03*
%TD*%
D11*
%TO.C,C7*%
X122833000Y-79932500D03*
X122833000Y-81657500D03*
%TD*%
D12*
%TO.C,R1*%
X117499000Y-81707500D03*
X117499000Y-79882500D03*
%TD*%
D36*
%TO.C,C2*%
X170077000Y-69554300D03*
X170077000Y-72679300D03*
%TD*%
D21*
%TO.C,JP22*%
X160845000Y-56665000D03*
X160845000Y-64285000D03*
%TD*%
D12*
%TO.C,R4*%
X126389000Y-81707500D03*
X126389000Y-79882500D03*
%TD*%
D20*
%TO.C,C22*%
X141475500Y-47013000D03*
X139750500Y-47013000D03*
%TD*%
D22*
%TO.C,JP3*%
X112823500Y-54887000D03*
D23*
X110998500Y-54887000D03*
%TD*%
D50*
%TO.C,D1*%
X123915000Y-55062500D03*
X125815000Y-55062500D03*
X124865000Y-53187500D03*
%TD*%
D11*
%TO.C,C8*%
X124587000Y-79932500D03*
X124587000Y-81657500D03*
%TD*%
D23*
%TO.C,JP12*%
X177546500Y-74191000D03*
D22*
X179371500Y-74191000D03*
%TD*%
D11*
%TO.C,C21*%
X122071000Y-53262500D03*
X122071000Y-54987500D03*
%TD*%
D51*
%TO.C,J4*%
X146740500Y-81912600D03*
D52*
X146740500Y-83182600D03*
X148010500Y-81912600D03*
X148010500Y-83182600D03*
X149280500Y-81912600D03*
X149280500Y-83182600D03*
X150550500Y-81912600D03*
X150550500Y-83182600D03*
X151820500Y-81912600D03*
X151820500Y-83182600D03*
%TD*%
D53*
%TO.C,J2*%
X180877000Y-69497000D03*
D54*
X180877000Y-66957000D03*
X180877000Y-64417000D03*
X180877000Y-61877000D03*
%TD*%
D53*
%TO.C,J3*%
X107697000Y-82197000D03*
D54*
X107697000Y-79657000D03*
X107697000Y-77117000D03*
X107697000Y-74577000D03*
X107697000Y-72037000D03*
X107697000Y-69497000D03*
X107697000Y-66957000D03*
X107697000Y-64417000D03*
X107697000Y-61877000D03*
X107697000Y-59337000D03*
X107697000Y-56797000D03*
X107697000Y-54257000D03*
X107697000Y-51717000D03*
X107697000Y-49177000D03*
%TD*%
D55*
%TO.C,TFT1*%
X112617000Y-84047000D03*
X179877000Y-84047000D03*
X112617000Y-47327000D03*
X179877000Y-47327000D03*
%TD*%
M02*
