%TF.GenerationSoftware,KiCad,Pcbnew,10.0.5-unknown-202607221313~667fa36054~ubuntu25.10.1*%
%TF.CreationDate,2026-10-09T19:10:45+00:00*%
%TF.ProjectId,ktest,6b746573-742e-46b6-9963-61645f706362,0.0.2*%
%TF.SameCoordinates,Original*%
%TF.FileFunction,Legend,Bot*%
%TF.FilePolarity,Positive*%
%FSLAX46Y46*%
G04 Gerber Fmt 4.6, Leading zero omitted, Abs format (unit mm)*
G04 Created by KiCad (PCBNEW 10.0.5-unknown-202607221313~667fa36054~ubuntu25.10.1) date 2026-10-09 19:10:45*
%MOMM*%
%LPD*%
G01*
G04 APERTURE LIST*
%ADD10C,0.100000*%
%ADD11C,0.150000*%
%ADD12C,0.200000*%
%ADD13C,0.120000*%
%ADD14C,0.050000*%
G04 APERTURE END LIST*
D10*
X139050919Y-85897266D02*
X139765204Y-85897266D01*
X139765204Y-85897266D02*
X139908061Y-85849647D01*
X139908061Y-85849647D02*
X140003300Y-85754409D01*
X140003300Y-85754409D02*
X140050919Y-85611552D01*
X140050919Y-85611552D02*
X140050919Y-85516314D01*
X139384252Y-86802028D02*
X140050919Y-86802028D01*
X139003300Y-86563933D02*
X139717585Y-86325838D01*
X139717585Y-86325838D02*
X139717585Y-86944885D01*
D11*
X179143333Y-71721819D02*
X179143333Y-72436104D01*
X179143333Y-72436104D02*
X179190952Y-72578961D01*
X179190952Y-72578961D02*
X179286190Y-72674200D01*
X179286190Y-72674200D02*
X179429047Y-72721819D01*
X179429047Y-72721819D02*
X179524285Y-72721819D01*
X178714761Y-71817057D02*
X178667142Y-71769438D01*
X178667142Y-71769438D02*
X178571904Y-71721819D01*
X178571904Y-71721819D02*
X178333809Y-71721819D01*
X178333809Y-71721819D02*
X178238571Y-71769438D01*
X178238571Y-71769438D02*
X178190952Y-71817057D01*
X178190952Y-71817057D02*
X178143333Y-71912295D01*
X178143333Y-71912295D02*
X178143333Y-72007533D01*
X178143333Y-72007533D02*
X178190952Y-72150390D01*
X178190952Y-72150390D02*
X178762380Y-72721819D01*
X178762380Y-72721819D02*
X178143333Y-72721819D01*
X105963333Y-84421819D02*
X105963333Y-85136104D01*
X105963333Y-85136104D02*
X106010952Y-85278961D01*
X106010952Y-85278961D02*
X106106190Y-85374200D01*
X106106190Y-85374200D02*
X106249047Y-85421819D01*
X106249047Y-85421819D02*
X106344285Y-85421819D01*
X105582380Y-84421819D02*
X104963333Y-84421819D01*
X104963333Y-84421819D02*
X105296666Y-84802771D01*
X105296666Y-84802771D02*
X105153809Y-84802771D01*
X105153809Y-84802771D02*
X105058571Y-84850390D01*
X105058571Y-84850390D02*
X105010952Y-84898009D01*
X105010952Y-84898009D02*
X104963333Y-84993247D01*
X104963333Y-84993247D02*
X104963333Y-85231342D01*
X104963333Y-85231342D02*
X105010952Y-85326580D01*
X105010952Y-85326580D02*
X105058571Y-85374200D01*
X105058571Y-85374200D02*
X105153809Y-85421819D01*
X105153809Y-85421819D02*
X105439523Y-85421819D01*
X105439523Y-85421819D02*
X105534761Y-85374200D01*
X105534761Y-85374200D02*
X105582380Y-85326580D01*
D10*
X143778580Y-67258428D02*
X143778580Y-66687000D01*
X142778580Y-66972714D02*
X143778580Y-66972714D01*
X143302390Y-66020333D02*
X143302390Y-66353666D01*
X142778580Y-66353666D02*
X143778580Y-66353666D01*
X143778580Y-66353666D02*
X143778580Y-65877476D01*
X143778580Y-65639380D02*
X143778580Y-65067952D01*
X142778580Y-65353666D02*
X143778580Y-65353666D01*
X142778580Y-64210809D02*
X142778580Y-64782237D01*
X142778580Y-64496523D02*
X143778580Y-64496523D01*
X143778580Y-64496523D02*
X143635723Y-64591761D01*
X143635723Y-64591761D02*
X143540485Y-64686999D01*
X143540485Y-64686999D02*
X143492866Y-64782237D01*
%TO.C,J8*%
X160771000Y-52728000D02*
X160771000Y-51458000D01*
X174233000Y-52728000D02*
X174233000Y-51458000D01*
%TO.C,J4*%
D12*
X140863500Y-84452600D02*
X140863500Y-89352600D01*
X153563500Y-84452600D02*
X140863500Y-84452600D01*
X153563500Y-89352600D02*
X140863500Y-89352600D01*
X153563500Y-89352600D02*
X153563500Y-84452600D01*
X140313500Y-81912600D02*
G75*
G02*
X140113500Y-81912600I-100000J0D01*
G01*
X140113500Y-81912600D02*
G75*
G02*
X140313500Y-81912600I100000J0D01*
G01*
%TO.C,J2*%
D13*
X177480000Y-60547000D02*
X180140000Y-60547000D01*
X177480000Y-68227000D02*
X177480000Y-60547000D01*
X177480000Y-68227000D02*
X180140000Y-68227000D01*
X178810000Y-70827000D02*
X180140000Y-70827000D01*
X180140000Y-68227000D02*
X180140000Y-60547000D01*
X180140000Y-70827000D02*
X180140000Y-69497000D01*
%TO.C,J3*%
X104300000Y-47847000D02*
X106960000Y-47847000D01*
X104300000Y-80927000D02*
X104300000Y-47847000D01*
X104300000Y-80927000D02*
X106960000Y-80927000D01*
X105630000Y-83527000D02*
X106960000Y-83527000D01*
X106960000Y-80927000D02*
X106960000Y-47847000D01*
X106960000Y-83527000D02*
X106960000Y-82197000D01*
%TO.C,TFT1*%
D14*
X103880000Y-47397000D02*
X107420000Y-47397000D01*
X103880000Y-83977000D02*
X103880000Y-47397000D01*
X107420000Y-47397000D02*
X107420000Y-83977000D01*
X107420000Y-83977000D02*
X103880000Y-83977000D01*
X177050000Y-60097000D02*
X180590000Y-60097000D01*
X177050000Y-71277000D02*
X177050000Y-60097000D01*
X180590000Y-60099000D02*
X180590000Y-71277000D01*
X180590000Y-71277000D02*
X177050000Y-71277000D01*
%TD*%
M02*
