%TF.GenerationSoftware,KiCad,Pcbnew,10.0.5-unknown-202607221313~667fa36054~ubuntu25.10.1*%
%TF.CreationDate,2026-10-09T16:31:53+00:00*%
%TF.ProjectId,ktest,6b746573-742e-46b6-9963-61645f706362,0.0.2*%
%TF.SameCoordinates,Original*%
%TF.FileFunction,Copper,L1,Top*%
%TF.FilePolarity,Positive*%
%FSLAX46Y46*%
G04 Gerber Fmt 4.6, Leading zero omitted, Abs format (unit mm)*
G04 Created by KiCad (PCBNEW 10.0.5-unknown-202607221313~667fa36054~ubuntu25.10.1) date 2026-10-09 16:31:53*
%MOMM*%
%LPD*%
G01*
G04 APERTURE LIST*
G04 Aperture macros list*
%AMRoundRect*
0 Rectangle with rounded corners*
0 $1 Rounding radius*
0 $2 $3 $4 $5 $6 $7 $8 $9 X,Y pos of 4 corners*
0 Add a 4 corners polygon primitive as box body*
4,1,4,$2,$3,$4,$5,$6,$7,$8,$9,$2,$3,0*
0 Add four circle primitives for the rounded corners*
1,1,$1+$1,$2,$3*
1,1,$1+$1,$4,$5*
1,1,$1+$1,$6,$7*
1,1,$1+$1,$8,$9*
0 Add four rect primitives between the rounded corners*
20,1,$1+$1,$2,$3,$4,$5,0*
20,1,$1+$1,$4,$5,$6,$7,0*
20,1,$1+$1,$6,$7,$8,$9,0*
20,1,$1+$1,$8,$9,$2,$3,0*%
%AMFreePoly0*
4,1,33,0.340887,0.456921,0.417938,0.405438,0.469421,0.328387,0.487500,0.237500,0.487500,0.150000,1.000000,0.150000,1.029264,0.147118,1.083336,0.124720,1.124720,0.083336,1.147118,0.029264,1.147118,-0.029264,1.124720,-0.083336,1.083336,-0.124720,1.029264,-0.147118,1.000000,-0.150000,0.487500,-0.150000,0.487500,-0.237500,0.469421,-0.328387,0.417938,-0.405438,0.340887,-0.456921,
0.250000,-0.475000,-0.250000,-0.475000,-0.340887,-0.456921,-0.417938,-0.405438,-0.469421,-0.328387,-0.487500,-0.237500,-0.487500,0.237500,-0.469421,0.328387,-0.417938,0.405438,-0.340887,0.456921,-0.250000,0.475000,0.250000,0.475000,0.340887,0.456921,0.340887,0.456921,$1*%
G04 Aperture macros list end*
%TA.AperFunction,SMDPad,CuDef*%
%ADD10RoundRect,0.237500X-0.237500X0.300000X-0.237500X-0.300000X0.237500X-0.300000X0.237500X0.300000X0*%
%TD*%
%TA.AperFunction,SMDPad,CuDef*%
%ADD11RoundRect,0.237500X0.237500X-0.250000X0.237500X0.250000X-0.237500X0.250000X-0.237500X-0.250000X0*%
%TD*%
%TA.AperFunction,SMDPad,CuDef*%
%ADD12FreePoly0,90.000000*%
%TD*%
%TA.AperFunction,SMDPad,CuDef*%
%ADD13FreePoly0,270.000000*%
%TD*%
%TA.AperFunction,SMDPad,CuDef*%
%ADD14RoundRect,0.237500X-0.300000X-0.237500X0.300000X-0.237500X0.300000X0.237500X-0.300000X0.237500X0*%
%TD*%
%TA.AperFunction,SMDPad,CuDef*%
%ADD15RoundRect,0.250000X0.412500X1.100000X-0.412500X1.100000X-0.412500X-1.100000X0.412500X-1.100000X0*%
%TD*%
%TA.AperFunction,SMDPad,CuDef*%
%ADD16RoundRect,0.298387X-0.626613X-1.401613X0.626613X-1.401613X0.626613X1.401613X-0.626613X1.401613X0*%
%TD*%
%TA.AperFunction,ComponentPad*%
%ADD17C,1.000000*%
%TD*%
%TA.AperFunction,SMDPad,CuDef*%
%ADD18RoundRect,0.237500X0.237500X-0.300000X0.237500X0.300000X-0.237500X0.300000X-0.237500X-0.300000X0*%
%TD*%
%TA.AperFunction,SMDPad,CuDef*%
%ADD19RoundRect,0.237500X0.300000X0.237500X-0.300000X0.237500X-0.300000X-0.237500X0.300000X-0.237500X0*%
%TD*%
%TA.AperFunction,ComponentPad*%
%ADD20C,1.400000*%
%TD*%
%TA.AperFunction,SMDPad,CuDef*%
%ADD21FreePoly0,180.000000*%
%TD*%
%TA.AperFunction,SMDPad,CuDef*%
%ADD22FreePoly0,0.000000*%
%TD*%
%TA.AperFunction,SMDPad,CuDef*%
%ADD23RoundRect,0.237500X-0.237500X0.250000X-0.237500X-0.250000X0.237500X-0.250000X0.237500X0.250000X0*%
%TD*%
%TA.AperFunction,SMDPad,CuDef*%
%ADD24R,0.600000X1.550000*%
%TD*%
%TA.AperFunction,ComponentPad*%
%ADD25C,0.600000*%
%TD*%
%TA.AperFunction,SMDPad,CuDef*%
%ADD26R,4.900000X2.950000*%
%TD*%
%TA.AperFunction,ComponentPad*%
%ADD27O,2.600000X1.600000*%
%TD*%
%TA.AperFunction,ComponentPad*%
%ADD28C,1.600000*%
%TD*%
%TA.AperFunction,ComponentPad*%
%ADD29R,1.600000X2.600000*%
%TD*%
%TA.AperFunction,SMDPad,CuDef*%
%ADD30RoundRect,0.237500X0.250000X0.237500X-0.250000X0.237500X-0.250000X-0.237500X0.250000X-0.237500X0*%
%TD*%
%TA.AperFunction,SMDPad,CuDef*%
%ADD31RoundRect,0.250000X-0.625000X0.400000X-0.625000X-0.400000X0.625000X-0.400000X0.625000X0.400000X0*%
%TD*%
%TA.AperFunction,SMDPad,CuDef*%
%ADD32RoundRect,0.250000X0.400000X0.625000X-0.400000X0.625000X-0.400000X-0.625000X0.400000X-0.625000X0*%
%TD*%
%TA.AperFunction,SMDPad,CuDef*%
%ADD33RoundRect,0.250000X6.227000X0.829500X-6.227000X0.829500X-6.227000X-0.829500X6.227000X-0.829500X0*%
%TD*%
%TA.AperFunction,SMDPad,CuDef*%
%ADD34RoundRect,0.250000X0.512000X0.829500X-0.512000X0.829500X-0.512000X-0.829500X0.512000X-0.829500X0*%
%TD*%
%TA.AperFunction,SMDPad,CuDef*%
%ADD35RoundRect,0.250000X-0.650000X0.412500X-0.650000X-0.412500X0.650000X-0.412500X0.650000X0.412500X0*%
%TD*%
%TA.AperFunction,ComponentPad*%
%ADD36O,1.000000X0.850000*%
%TD*%
%TA.AperFunction,ComponentPad*%
%ADD37O,1.000000X1.800000*%
%TD*%
%TA.AperFunction,SMDPad,CuDef*%
%ADD38RoundRect,0.250000X0.650000X-0.800000X0.650000X0.800000X-0.650000X0.800000X-0.650000X-0.800000X0*%
%TD*%
%TA.AperFunction,SMDPad,CuDef*%
%ADD39RoundRect,0.162500X-0.575000X-0.162500X0.575000X-0.162500X0.575000X0.162500X-0.575000X0.162500X0*%
%TD*%
%TA.AperFunction,SMDPad,CuDef*%
%ADD40RoundRect,0.250000X-0.400000X-0.625000X0.400000X-0.625000X0.400000X0.625000X-0.400000X0.625000X0*%
%TD*%
%TA.AperFunction,SMDPad,CuDef*%
%ADD41RoundRect,0.150000X-0.150000X0.512500X-0.150000X-0.512500X0.150000X-0.512500X0.150000X0.512500X0*%
%TD*%
%TA.AperFunction,SMDPad,CuDef*%
%ADD42RoundRect,0.125000X-0.125000X0.625000X-0.125000X-0.625000X0.125000X-0.625000X0.125000X0.625000X0*%
%TD*%
%TA.AperFunction,SMDPad,CuDef*%
%ADD43RoundRect,0.125000X-0.625000X0.125000X-0.625000X-0.125000X0.625000X-0.125000X0.625000X0.125000X0*%
%TD*%
%TA.AperFunction,ComponentPad*%
%ADD44RoundRect,0.250000X-0.600000X-0.725000X0.600000X-0.725000X0.600000X0.725000X-0.600000X0.725000X0*%
%TD*%
%TA.AperFunction,ComponentPad*%
%ADD45O,1.700000X1.950000*%
%TD*%
%TA.AperFunction,SMDPad,CuDef*%
%ADD46RoundRect,0.250000X-1.750000X-1.000000X1.750000X-1.000000X1.750000X1.000000X-1.750000X1.000000X0*%
%TD*%
%TA.AperFunction,ComponentPad*%
%ADD47RoundRect,0.250000X0.600000X0.725000X-0.600000X0.725000X-0.600000X-0.725000X0.600000X-0.725000X0*%
%TD*%
%TA.AperFunction,SMDPad,CuDef*%
%ADD48RoundRect,0.250000X-0.412500X-1.100000X0.412500X-1.100000X0.412500X1.100000X-0.412500X1.100000X0*%
%TD*%
%TA.AperFunction,SMDPad,CuDef*%
%ADD49RoundRect,0.150000X0.150000X-0.587500X0.150000X0.587500X-0.150000X0.587500X-0.150000X-0.587500X0*%
%TD*%
%TA.AperFunction,ComponentPad*%
%ADD50R,1.090000X1.090000*%
%TD*%
%TA.AperFunction,ComponentPad*%
%ADD51C,1.090000*%
%TD*%
%TA.AperFunction,ComponentPad*%
%ADD52R,1.700000X1.700000*%
%TD*%
%TA.AperFunction,ComponentPad*%
%ADD53C,1.700000*%
%TD*%
%TA.AperFunction,WasherPad*%
%ADD54C,5.000000*%
%TD*%
%TA.AperFunction,ViaPad*%
%ADD55C,1.000000*%
%TD*%
%TA.AperFunction,ViaPad*%
%ADD56C,0.600000*%
%TD*%
%TA.AperFunction,ViaPad*%
%ADD57C,0.800000*%
%TD*%
%TA.AperFunction,Conductor*%
%ADD58C,0.400000*%
%TD*%
%TA.AperFunction,Conductor*%
%ADD59C,0.800000*%
%TD*%
%TA.AperFunction,Conductor*%
%ADD60C,0.200000*%
%TD*%
%TA.AperFunction,Conductor*%
%ADD61C,0.300000*%
%TD*%
%TA.AperFunction,Conductor*%
%ADD62C,0.350000*%
%TD*%
%TA.AperFunction,Conductor*%
%ADD63C,0.250000*%
%TD*%
%TA.AperFunction,Conductor*%
%ADD64C,0.700000*%
%TD*%
%TA.AperFunction,Conductor*%
%ADD65C,0.600000*%
%TD*%
%TA.AperFunction,Conductor*%
%ADD66C,0.500000*%
%TD*%
G04 APERTURE END LIST*
D10*
%TO.P,C27,1*%
%TO.N,/System overview/Block diagram/ENCa*%
X145404000Y-49452500D03*
%TO.P,C27,2*%
%TO.N,/System overview/Block diagram/GND*%
X145404000Y-51177500D03*
%TD*%
D11*
%TO.P,R10,1*%
%TO.N,/System overview/Block diagram/MOT_CS*%
X120004000Y-51227500D03*
%TO.P,R10,2*%
%TO.N,Net-(JP19-Pad1)*%
X120004000Y-49402500D03*
%TD*%
D12*
%TO.P,JP13,1*%
%TO.N,/System overview/Block diagram/S3V3*%
X120258000Y-72817500D03*
D13*
%TO.P,JP13,2*%
%TO.N,/System overview/Block diagram/S3V3_A*%
X120258000Y-70992500D03*
%TD*%
D10*
%TO.P,C14,1*%
%TO.N,/System overview/Block diagram/XOUT*%
X128386000Y-53008500D03*
%TO.P,C14,2*%
%TO.N,/System overview/Block diagram/GND*%
X128386000Y-54733500D03*
%TD*%
D14*
%TO.P,C6,1*%
%TO.N,/System overview/Block diagram/S19V5*%
X161305500Y-70889000D03*
%TO.P,C6,2*%
%TO.N,/System overview/Block diagram/GND*%
X163030500Y-70889000D03*
%TD*%
D15*
%TO.P,C18,1*%
%TO.N,/System overview/Block diagram/3V3_REG*%
X168556500Y-75461000D03*
%TO.P,C18,2*%
%TO.N,/System overview/Block diagram/GND*%
X165431500Y-75461000D03*
%TD*%
D11*
%TO.P,R9,1*%
%TO.N,/System overview/Block diagram/BOOT0*%
X135752000Y-56561500D03*
%TO.P,R9,2*%
%TO.N,/System overview/Block diagram/GND*%
X135752000Y-54736500D03*
%TD*%
D16*
%TO.P,L1,1,1_1*%
%TO.N,/System overview/Block diagram/SW*%
X163711000Y-84097000D03*
%TO.P,L1,2,2_2*%
%TO.N,/System overview/Block diagram/3V3_REG*%
X169261000Y-84097000D03*
%TD*%
D17*
%TO.P,TP13,1,1_1*%
%TO.N,/System overview/Block diagram/ENCb_filt*%
X138546000Y-57173000D03*
%TD*%
D18*
%TO.P,C23,1*%
%TO.N,/System overview/Block diagram/ENCa_filt*%
X141848000Y-51177500D03*
%TO.P,C23,2*%
%TO.N,/System overview/Block diagram/GND*%
X141848000Y-49452500D03*
%TD*%
D19*
%TO.P,C10,1*%
%TO.N,/System overview/Block diagram/XIN*%
X132296500Y-57427000D03*
%TO.P,C10,2*%
%TO.N,/System overview/Block diagram/GND*%
X130571500Y-57427000D03*
%TD*%
D17*
%TO.P,TP18,1,1_1*%
%TO.N,/System overview/Block diagram/GND*%
X179186000Y-79779000D03*
%TD*%
D18*
%TO.P,C12,1*%
%TO.N,/System overview/Block diagram/3V3_REG*%
X159374000Y-84705500D03*
%TO.P,C12,2*%
%TO.N,/System overview/Block diagram/FB*%
X159374000Y-82980500D03*
%TD*%
D10*
%TO.P,C9,1*%
%TO.N,Net-(U1-BOOT)*%
X161660000Y-80440500D03*
%TO.P,C9,2*%
%TO.N,/System overview/Block diagram/SW*%
X161660000Y-82165500D03*
%TD*%
D20*
%TO.P,JP9,1*%
%TO.N,/System overview/Block diagram/DISP_DC*%
X116770000Y-62287000D03*
%TO.P,JP9,2*%
%TO.N,Net-(J3-Pin_5)*%
X116770000Y-67367000D03*
%TD*%
D17*
%TO.P,TP7,1,1_1*%
%TO.N,/System overview/Block diagram/3V3_REG*%
X173090000Y-71905000D03*
%TD*%
D11*
%TO.P,JP20,1*%
%TO.N,/System overview/Block diagram/D-*%
X129656000Y-81707500D03*
%TO.P,JP20,2*%
%TO.N,/System overview/Block diagram/D-'*%
X129656000Y-79882500D03*
%TD*%
D21*
%TO.P,JP8,1*%
%TO.N,/System overview/Block diagram/DISP_MOSI*%
X110756500Y-69365000D03*
D22*
%TO.P,JP8,2*%
%TO.N,Net-(J3-Pin_6)*%
X108931500Y-69365000D03*
%TD*%
D23*
%TO.P,R14,1*%
%TO.N,/System overview/Block diagram/CC1*%
X130672000Y-85216500D03*
%TO.P,R14,2*%
%TO.N,/System overview/Block diagram/GND*%
X130672000Y-87041500D03*
%TD*%
D21*
%TO.P,JP2,1*%
%TO.N,/System overview/Block diagram/DISP_MISO*%
X110756500Y-53109000D03*
D22*
%TO.P,JP2,2*%
%TO.N,Net-(J3-Pin_13)*%
X108931500Y-53109000D03*
%TD*%
D24*
%TO.P,U1,1,GND_1*%
%TO.N,/System overview/Block diagram/GND*%
X163311000Y-73015000D03*
%TO.P,U1,2,EN_2*%
%TO.N,/System overview/Block diagram/S19V5*%
X162041000Y-73015000D03*
%TO.P,U1,3,VIN_3*%
X160771000Y-73015000D03*
%TO.P,U1,4,RT/SYNC_4*%
%TO.N,/System overview/Block diagram/RT*%
X159501000Y-73015000D03*
%TO.P,U1,5,FB_5*%
%TO.N,/System overview/Block diagram/FB*%
X159501000Y-78415000D03*
%TO.P,U1,6,PG_6*%
%TO.N,/System overview/Block diagram/PG*%
X160771000Y-78415000D03*
%TO.P,U1,7,BOOT_7*%
%TO.N,Net-(U1-BOOT)*%
X162041000Y-78415000D03*
%TO.P,U1,8,SW_8*%
%TO.N,/System overview/Block diagram/SW*%
X163311000Y-78415000D03*
D25*
%TO.P,U1,9,EP_9*%
%TO.N,/System overview/Block diagram/GND*%
X163356000Y-75065000D03*
X162056000Y-75065000D03*
X160756000Y-75065000D03*
X159456000Y-75065000D03*
D26*
X161406000Y-75715000D03*
D25*
X163356000Y-76365000D03*
X162056000Y-76365000D03*
X160756000Y-76365000D03*
X159456000Y-76365000D03*
%TD*%
D17*
%TO.P,TP10,1,1_1*%
%TO.N,/System overview/Block diagram/S3V3*%
X179186000Y-77493000D03*
%TD*%
D11*
%TO.P,R12,1*%
%TO.N,/System overview/Block diagram/ENCa_filt*%
X143626000Y-51227500D03*
%TO.P,R12,2*%
%TO.N,/System overview/Block diagram/ENCa*%
X143626000Y-49402500D03*
%TD*%
D17*
%TO.P,TP21,1,1_1*%
%TO.N,/System overview/Block diagram/GND*%
X143626000Y-56919000D03*
%TD*%
%TO.P,TP6,1,1_1*%
%TO.N,/System overview/Block diagram/SW*%
X161406000Y-84097000D03*
%TD*%
%TO.P,TP8,1,1_1*%
%TO.N,/System overview/Block diagram/NRST*%
X136006000Y-72667000D03*
%TD*%
D27*
%TO.P,J6,1,+_1*%
%TO.N,/System overview/Block diagram/S19V5_2*%
X187333000Y-78451000D03*
X192883000Y-78451000D03*
D28*
%TO.P,J6,2,ID_2*%
%TO.N,unconnected-(J6-ID-Pad2)*%
X190108000Y-78451000D03*
D27*
%TO.P,J6,3,-_3*%
%TO.N,/System overview/Block diagram/GND_2*%
X190108000Y-81851000D03*
X190108000Y-85651000D03*
D29*
%TO.P,J6,SH,SH_SH*%
X185333000Y-81551000D03*
X185333000Y-87951000D03*
X194883000Y-81551000D03*
X194883000Y-87951000D03*
%TD*%
D22*
%TO.P,JP15,1*%
%TO.N,/System overview/Block diagram/INa*%
X139919500Y-65555000D03*
D21*
%TO.P,JP15,2*%
%TO.N,/System overview/Block diagram/INa'*%
X141744500Y-65555000D03*
%TD*%
D17*
%TO.P,TP14,1,1_1*%
%TO.N,/System overview/Block diagram/MOT_CS*%
X117972000Y-51331000D03*
%TD*%
D30*
%TO.P,R13,1*%
%TO.N,/System overview/Block diagram/ENCb_filt*%
X139458500Y-45235000D03*
%TO.P,R13,2*%
%TO.N,/System overview/Block diagram/ENCb*%
X137633500Y-45235000D03*
%TD*%
D17*
%TO.P,TP9,1,1_1*%
%TO.N,/System overview/Block diagram/BOOT0*%
X137784000Y-61237000D03*
%TD*%
D18*
%TO.P,C3,1*%
%TO.N,/System overview/Block diagram/BOT_EOT*%
X117210000Y-81657500D03*
%TO.P,C3,2*%
%TO.N,/System overview/Block diagram/GND*%
X117210000Y-79932500D03*
%TD*%
D31*
%TO.P,JP14,1*%
%TO.N,/System overview/Block diagram/SWO*%
X144642000Y-69085000D03*
%TO.P,JP14,2*%
%TO.N,/System overview/Block diagram/SWO'*%
X144642000Y-72185000D03*
%TD*%
D22*
%TO.P,JP16,1*%
%TO.N,/System overview/Block diagram/INb*%
X139919500Y-67587000D03*
D21*
%TO.P,JP16,2*%
%TO.N,/System overview/Block diagram/INb'*%
X141744500Y-67587000D03*
%TD*%
D17*
%TO.P,TP5,1,1_1*%
%TO.N,/System overview/Block diagram/FB*%
X157596000Y-80795000D03*
%TD*%
D11*
%TO.P,R7,1*%
%TO.N,/System overview/Block diagram/FB*%
X157596000Y-78659500D03*
%TO.P,R7,2*%
%TO.N,/System overview/Block diagram/GND*%
X157596000Y-76834500D03*
%TD*%
D32*
%TO.P,JP5,1*%
%TO.N,/System overview/Block diagram/DISP_SCK*%
X112156000Y-59713000D03*
%TO.P,JP5,2*%
%TO.N,Net-(J3-Pin_10)*%
X109056000Y-59713000D03*
%TD*%
D21*
%TO.P,JP10,1*%
%TO.N,/System overview/Block diagram/DISP_RST*%
X110756500Y-74445000D03*
D22*
%TO.P,JP10,2*%
%TO.N,Net-(J3-Pin_4)*%
X108931500Y-74445000D03*
%TD*%
D21*
%TO.P,JP21,1*%
%TO.N,/System overview/Block diagram/D+*%
X135394500Y-78001000D03*
D22*
%TO.P,JP21,2*%
%TO.N,/System overview/Block diagram/D+'*%
X133569500Y-78001000D03*
%TD*%
D18*
%TO.P,C16,1*%
%TO.N,/System overview/Block diagram/S3V3*%
X122036000Y-72767500D03*
%TO.P,C16,2*%
%TO.N,/System overview/Block diagram/GND*%
X122036000Y-71042500D03*
%TD*%
D33*
%TO.P,J8,1,+_1*%
%TO.N,/System overview/Block diagram/S19V5*%
X167502000Y-53807500D03*
D34*
%TO.P,J8,2,-_2*%
%TO.N,/System overview/Block diagram/GND*%
X173217000Y-50378500D03*
X161787000Y-50378500D03*
%TD*%
D35*
%TO.P,C4,1*%
%TO.N,/System overview/Block diagram/S19V5*%
X165470000Y-69580500D03*
%TO.P,C4,2*%
%TO.N,/System overview/Block diagram/GND*%
X165470000Y-72705500D03*
%TD*%
D19*
%TO.P,C26,1*%
%TO.N,/System overview/Block diagram/ENCb*%
X139408500Y-43457000D03*
%TO.P,C26,2*%
%TO.N,/System overview/Block diagram/GND*%
X137683500Y-43457000D03*
%TD*%
D36*
%TO.P,J5,A1,GND_A1*%
%TO.N,/System overview/Block diagram/GND*%
X133807000Y-87947000D03*
%TO.P,J5,A4,VBUS_A4*%
%TO.N,Net-(J5-VBUS-PadA4)*%
X133807000Y-86847000D03*
%TO.P,J5,A5,CC1_A5*%
%TO.N,/System overview/Block diagram/CC1*%
X133807000Y-85747000D03*
%TO.P,J5,A6,D+_A6*%
%TO.N,/System overview/Block diagram/D+*%
X133807000Y-84647000D03*
%TO.P,J5,A7,D-_A7*%
%TO.N,/System overview/Block diagram/D-*%
X133807000Y-83547000D03*
%TO.P,J5,A8,SBU1_A8*%
%TO.N,unconnected-(J5-SBU1-PadA8)*%
X133807000Y-82447000D03*
%TO.P,J5,A9,VBUS_A9*%
%TO.N,Net-(J5-VBUS-PadA4)*%
X133807000Y-81347000D03*
%TO.P,J5,A12,GND_A12*%
%TO.N,/System overview/Block diagram/GND*%
X133807000Y-80247000D03*
%TO.P,J5,B1,GND_B1*%
X135157000Y-80247000D03*
%TO.P,J5,B4,VBUS_B4*%
%TO.N,Net-(J5-VBUS-PadA4)*%
X135157000Y-81347000D03*
%TO.P,J5,B5,CC2_B5*%
%TO.N,/System overview/Block diagram/CC2*%
X135157000Y-82447000D03*
%TO.P,J5,B6,D+_B6*%
%TO.N,/System overview/Block diagram/D+*%
X135157000Y-83547000D03*
%TO.P,J5,B7,D-_B7*%
%TO.N,/System overview/Block diagram/D-*%
X135157000Y-84647000D03*
%TO.P,J5,B8,SBU2_B8*%
%TO.N,unconnected-(J5-SBU2-PadB8)*%
X135157000Y-85747000D03*
%TO.P,J5,B9,VBUS_B9*%
%TO.N,Net-(J5-VBUS-PadA4)*%
X135157000Y-86847000D03*
%TO.P,J5,B12,GND_B12*%
%TO.N,/System overview/Block diagram/GND*%
X135157000Y-87947000D03*
D37*
%TO.P,J5,SH,SHIELD_SH*%
X132332000Y-86597000D03*
X136632000Y-86597000D03*
X132332000Y-81597000D03*
X136632000Y-81597000D03*
%TD*%
D17*
%TO.P,TP15,1,1_1*%
%TO.N,/System overview/Block diagram/CS'*%
X143626000Y-54633000D03*
%TD*%
D11*
%TO.P,R2,1*%
%TO.N,/System overview/Block diagram/S3V3*%
X127878000Y-81707500D03*
%TO.P,R2,2*%
%TO.N,/System overview/Block diagram/TOP_EOT*%
X127878000Y-79882500D03*
%TD*%
D14*
%TO.P,C1,1*%
%TO.N,/System overview/Block diagram/S3V3*%
X104917500Y-85113000D03*
%TO.P,C1,2*%
%TO.N,/System overview/Block diagram/GND*%
X106642500Y-85113000D03*
%TD*%
D11*
%TO.P,R5,1*%
%TO.N,/System overview/Block diagram/BOT_EOT*%
X118988000Y-81707500D03*
%TO.P,R5,2*%
%TO.N,/System overview/Block diagram/BOT_filt*%
X118988000Y-79882500D03*
%TD*%
D17*
%TO.P,TP11,1,1_1*%
%TO.N,/System overview/Block diagram/SEL0*%
X133720000Y-70889000D03*
%TD*%
%TO.P,TP3,1,1_1*%
%TO.N,/System overview/Block diagram/TOP_filt*%
X122798000Y-77747000D03*
%TD*%
%TO.P,TP16,1,1_1*%
%TO.N,Net-(J5-VBUS-PadA4)*%
X138546000Y-88161000D03*
%TD*%
D38*
%TO.P,Y1,1,1_1*%
%TO.N,/System overview/Block diagram/XIN*%
X132584000Y-55321000D03*
%TO.P,Y1,2,G_2*%
%TO.N,/System overview/Block diagram/GND*%
X132584000Y-52421000D03*
%TO.P,Y1,3,3_3*%
%TO.N,/System overview/Block diagram/XOUT*%
X130284000Y-52421000D03*
%TO.P,Y1,4,G_4*%
%TO.N,/System overview/Block diagram/GND*%
X130284000Y-55321000D03*
%TD*%
D19*
%TO.P,C25,1*%
%TO.N,/System overview/Block diagram/S19V5*%
X146520500Y-60475000D03*
%TO.P,C25,2*%
%TO.N,/System overview/Block diagram/GND*%
X144795500Y-60475000D03*
%TD*%
D11*
%TO.P,R15,1*%
%TO.N,/System overview/Block diagram/CC2*%
X138292000Y-82977500D03*
%TO.P,R15,2*%
%TO.N,/System overview/Block diagram/GND*%
X138292000Y-81152500D03*
%TD*%
D30*
%TO.P,JP6,1*%
%TO.N,/System overview/Block diagram/DISP_MISO*%
X110756500Y-61999000D03*
%TO.P,JP6,2*%
%TO.N,Net-(J3-Pin_9)*%
X108931500Y-61999000D03*
%TD*%
D39*
%TO.P,U3,1,GNDa_1*%
%TO.N,/System overview/Block diagram/GND*%
X148637500Y-56030000D03*
%TO.P,U3,2,OUTa_2*%
%TO.N,/System overview/Block diagram/OUTa*%
X148637500Y-57300000D03*
%TO.P,U3,3,INa_3*%
%TO.N,/System overview/Block diagram/INa'*%
X148637500Y-58570000D03*
%TO.P,U3,4,VCC_4*%
%TO.N,/System overview/Block diagram/S19V5*%
X148637500Y-59840000D03*
%TO.P,U3,5,VCC_5*%
X148637500Y-61110000D03*
%TO.P,U3,6,INb_6*%
%TO.N,/System overview/Block diagram/INb'*%
X148637500Y-62380000D03*
%TO.P,U3,7,OUTb_7*%
%TO.N,/System overview/Block diagram/OUTb'*%
X148637500Y-63650000D03*
%TO.P,U3,8,GNDb_8*%
%TO.N,/System overview/Block diagram/GND*%
X148637500Y-64920000D03*
%TO.P,U3,9,GNDb_9*%
X154362500Y-64920000D03*
%TO.P,U3,10,OUTb_10*%
%TO.N,/System overview/Block diagram/OUTb'*%
X154362500Y-63650000D03*
%TO.P,U3,11,PWM_11*%
%TO.N,/System overview/Block diagram/PWM'*%
X154362500Y-62380000D03*
%TO.P,U3,12,VCC_12*%
%TO.N,/System overview/Block diagram/S19V5*%
X154362500Y-61110000D03*
%TO.P,U3,13,CS_13*%
%TO.N,/System overview/Block diagram/CS'*%
X154362500Y-59840000D03*
%TO.P,U3,14,SEL0_14*%
%TO.N,/System overview/Block diagram/SEL0'*%
X154362500Y-58570000D03*
%TO.P,U3,15,OUTa_15*%
%TO.N,/System overview/Block diagram/OUTa*%
X154362500Y-57300000D03*
%TO.P,U3,16,GNDa_16*%
%TO.N,/System overview/Block diagram/GND*%
X154362500Y-56030000D03*
%TD*%
D40*
%TO.P,JP19,1*%
%TO.N,Net-(JP19-Pad1)*%
X138266000Y-54633000D03*
%TO.P,JP19,2*%
%TO.N,/System overview/Block diagram/CS'*%
X141366000Y-54633000D03*
%TD*%
D14*
%TO.P,C13,1*%
%TO.N,/System overview/Block diagram/S3V3*%
X133619500Y-61237000D03*
%TO.P,C13,2*%
%TO.N,/System overview/Block diagram/GND*%
X135344500Y-61237000D03*
%TD*%
D11*
%TO.P,R6,1*%
%TO.N,/System overview/Block diagram/3V3_REG*%
X157596000Y-84755500D03*
%TO.P,R6,2*%
%TO.N,/System overview/Block diagram/FB*%
X157596000Y-82930500D03*
%TD*%
D17*
%TO.P,TP20,1,1_1*%
%TO.N,/System overview/Block diagram/GND*%
X161152000Y-87907000D03*
%TD*%
%TO.P,TP19,1,1_1*%
%TO.N,/System overview/Block diagram/GND*%
X117972000Y-53871000D03*
%TD*%
D14*
%TO.P,C11,1*%
%TO.N,/System overview/Block diagram/S3V3*%
X133619500Y-59459000D03*
%TO.P,C11,2*%
%TO.N,/System overview/Block diagram/GND*%
X135344500Y-59459000D03*
%TD*%
D32*
%TO.P,JP7,1*%
%TO.N,/System overview/Block diagram/DISP_SCK*%
X112156000Y-66317000D03*
%TO.P,JP7,2*%
%TO.N,Net-(J3-Pin_7)*%
X109056000Y-66317000D03*
%TD*%
D15*
%TO.P,C17,1*%
%TO.N,/System overview/Block diagram/3V3_REG*%
X168556500Y-78763000D03*
%TO.P,C17,2*%
%TO.N,/System overview/Block diagram/GND*%
X165431500Y-78763000D03*
%TD*%
D17*
%TO.P,TP4,1,1_1*%
%TO.N,/System overview/Block diagram/BOT_filt*%
X120512000Y-77747000D03*
%TD*%
D23*
%TO.P,R3,1*%
%TO.N,/System overview/Block diagram/RT*%
X157596000Y-72770500D03*
%TO.P,R3,2*%
%TO.N,/System overview/Block diagram/GND*%
X157596000Y-74595500D03*
%TD*%
D18*
%TO.P,C5,1*%
%TO.N,/System overview/Block diagram/TOP_EOT*%
X126100000Y-81657500D03*
%TO.P,C5,2*%
%TO.N,/System overview/Block diagram/GND*%
X126100000Y-79932500D03*
%TD*%
D41*
%TO.P,U4,1,I/O1_1*%
%TO.N,/System overview/Block diagram/USB_DP*%
X131876000Y-75593500D03*
%TO.P,U4,2,GND_2*%
%TO.N,/System overview/Block diagram/GND*%
X130926000Y-75593500D03*
%TO.P,U4,3,I/O2_3*%
%TO.N,/System overview/Block diagram/USB_DM*%
X129976000Y-75593500D03*
%TO.P,U4,4,I/O2_4*%
%TO.N,/System overview/Block diagram/D-'*%
X129976000Y-77868500D03*
%TO.P,U4,5,VBUS_5*%
%TO.N,/System overview/Block diagram/S3V3*%
X130926000Y-77868500D03*
%TO.P,U4,6,I/O1_6*%
%TO.N,/System overview/Block diagram/D+'*%
X131876000Y-77868500D03*
%TD*%
D18*
%TO.P,C19,1*%
%TO.N,/System overview/Block diagram/S3V3*%
X123814000Y-72767500D03*
%TO.P,C19,2*%
%TO.N,/System overview/Block diagram/GND*%
X123814000Y-71042500D03*
%TD*%
D17*
%TO.P,TP12,1,1_1*%
%TO.N,/System overview/Block diagram/ENCa_filt*%
X141086000Y-57173000D03*
%TD*%
D22*
%TO.P,JP17,1*%
%TO.N,/System overview/Block diagram/PWM*%
X139919500Y-69619000D03*
D21*
%TO.P,JP17,2*%
%TO.N,/System overview/Block diagram/PWM'*%
X141744500Y-69619000D03*
%TD*%
D18*
%TO.P,C20,1*%
%TO.N,/System overview/Block diagram/S3V3_A*%
X121997900Y-69211500D03*
%TO.P,C20,2*%
%TO.N,/System overview/Block diagram/GND*%
X121997900Y-67486500D03*
%TD*%
D17*
%TO.P,TP2,1,1_1*%
%TO.N,/System overview/Block diagram/RT*%
X159120000Y-70889000D03*
%TD*%
D42*
%TO.P,U2,1,VDD_1*%
%TO.N,/System overview/Block diagram/S3V3*%
X131440000Y-61634000D03*
%TO.P,U2,2,PF0_2*%
%TO.N,/System overview/Block diagram/XIN*%
X130640000Y-61634000D03*
%TO.P,U2,3,PF1_3*%
%TO.N,/System overview/Block diagram/XOUT*%
X129840000Y-61634000D03*
%TO.P,U2,4,PG10_4*%
%TO.N,/System overview/Block diagram/NRST*%
X129040000Y-61634000D03*
%TO.P,U2,5,PA0_5*%
%TO.N,/System overview/Block diagram/MOT_CS*%
X128240000Y-61634000D03*
%TO.P,U2,6,PA1_6*%
%TO.N,/System overview/Block diagram/SEL0*%
X127440000Y-61634000D03*
%TO.P,U2,7,PA2_7*%
%TO.N,/System overview/Block diagram/TCH_IRQ*%
X126640000Y-61634000D03*
%TO.P,U2,8,PA3_8*%
%TO.N,/System overview/Block diagram/TCH_CS*%
X125840000Y-61634000D03*
D43*
%TO.P,U2,9,PA4_9*%
%TO.N,/System overview/Block diagram/DISP_DC*%
X124465000Y-63009000D03*
%TO.P,U2,10,PA5_10*%
%TO.N,/System overview/Block diagram/DISP_SCK*%
X124465000Y-63809000D03*
%TO.P,U2,11,PA6_11*%
%TO.N,/System overview/Block diagram/DISP_MISO*%
X124465000Y-64609000D03*
%TO.P,U2,12,PA7_12*%
%TO.N,/System overview/Block diagram/DISP_MOSI*%
X124465000Y-65409000D03*
%TO.P,U2,13,PB0_13*%
%TO.N,/System overview/Block diagram/DISP_RST*%
X124465000Y-66209000D03*
%TO.P,U2,14,VSSA_14*%
%TO.N,/System overview/Block diagram/GND*%
X124465000Y-67009000D03*
%TO.P,U2,15,VDDA_15*%
%TO.N,/System overview/Block diagram/S3V3_A*%
X124465000Y-67809000D03*
%TO.P,U2,16,VSS_16*%
%TO.N,/System overview/Block diagram/GND*%
X124465000Y-68609000D03*
D42*
%TO.P,U2,17,VDD_17*%
%TO.N,/System overview/Block diagram/S3V3*%
X125840000Y-69984000D03*
%TO.P,U2,18,PA8_18*%
%TO.N,/System overview/Block diagram/DISP_CS*%
X126640000Y-69984000D03*
%TO.P,U2,19,PA9_19*%
%TO.N,/System overview/Block diagram/BOT_filt*%
X127440000Y-69984000D03*
%TO.P,U2,20,PA10_20*%
%TO.N,/System overview/Block diagram/TOP_filt*%
X128240000Y-69984000D03*
%TO.P,U2,21,PA11_21*%
%TO.N,/System overview/Block diagram/USB_DM*%
X129040000Y-69984000D03*
%TO.P,U2,22,PA12_22*%
%TO.N,/System overview/Block diagram/USB_DP*%
X129840000Y-69984000D03*
%TO.P,U2,23,PA13_23*%
%TO.N,/System overview/Block diagram/SWDIO*%
X130640000Y-69984000D03*
%TO.P,U2,24,PA14_24*%
%TO.N,/System overview/Block diagram/SWDCLK*%
X131440000Y-69984000D03*
D43*
%TO.P,U2,25,PA15_25*%
%TO.N,/System overview/Block diagram/PWM*%
X132815000Y-68609000D03*
%TO.P,U2,26,PB3_26*%
%TO.N,/System overview/Block diagram/SWO*%
X132815000Y-67809000D03*
%TO.P,U2,27,PB4_27*%
%TO.N,/System overview/Block diagram/INb*%
X132815000Y-67009000D03*
%TO.P,U2,28,PB5_28*%
%TO.N,/System overview/Block diagram/INa*%
X132815000Y-66209000D03*
%TO.P,U2,29,PB6_29*%
%TO.N,/System overview/Block diagram/ENCa_filt*%
X132815000Y-65409000D03*
%TO.P,U2,30,PB7_30*%
%TO.N,/System overview/Block diagram/ENCb_filt*%
X132815000Y-64609000D03*
%TO.P,U2,31,PB8_31*%
%TO.N,/System overview/Block diagram/BOOT0*%
X132815000Y-63809000D03*
%TO.P,U2,32,VSS_32*%
%TO.N,/System overview/Block diagram/GND*%
X132815000Y-63009000D03*
%TD*%
D44*
%TO.P,J1,1,Pin_1_1*%
%TO.N,/System overview/Block diagram/BOT_EOT*%
X118032000Y-86366000D03*
D45*
%TO.P,J1,2,Pin_2_2*%
%TO.N,/System overview/Block diagram/GND*%
X120532000Y-86366000D03*
%TO.P,J1,3,Pin_3_3*%
X123032000Y-86366000D03*
%TO.P,J1,4,Pin_4_4*%
%TO.N,/System overview/Block diagram/TOP_EOT*%
X125532000Y-86366000D03*
%TD*%
D46*
%TO.P,C24,1*%
%TO.N,/System overview/Block diagram/S19V5*%
X163502000Y-60729000D03*
%TO.P,C24,2*%
%TO.N,/System overview/Block diagram/GND*%
X171502000Y-60729000D03*
%TD*%
D21*
%TO.P,JP11,1*%
%TO.N,/System overview/Block diagram/DISP_CS*%
X110756500Y-76985000D03*
D22*
%TO.P,JP11,2*%
%TO.N,Net-(J3-Pin_3)*%
X108931500Y-76985000D03*
%TD*%
D20*
%TO.P,JP18,1*%
%TO.N,/System overview/Block diagram/SEL0'*%
X156580000Y-58443000D03*
%TO.P,JP18,2*%
%TO.N,/System overview/Block diagram/SEL0*%
X156580000Y-66063000D03*
%TD*%
D47*
%TO.P,J7,1,Pin_1_1*%
%TO.N,/System overview/Block diagram/OUTb*%
X156331300Y-45078000D03*
D45*
%TO.P,J7,2,Pin_2_2*%
%TO.N,/System overview/Block diagram/OUTa*%
X153831300Y-45078000D03*
%TO.P,J7,3,Pin_3_3*%
%TO.N,/System overview/Block diagram/S3V3*%
X151331300Y-45078000D03*
%TO.P,J7,4,Pin_4_4*%
%TO.N,/System overview/Block diagram/GND*%
X148831300Y-45078000D03*
%TO.P,J7,5,Pin_5_5*%
%TO.N,/System overview/Block diagram/ENCa*%
X146331300Y-45078000D03*
%TO.P,J7,6,Pin_6_6*%
%TO.N,/System overview/Block diagram/ENCb*%
X143831300Y-45078000D03*
%TD*%
D32*
%TO.P,JP4,1*%
%TO.N,/System overview/Block diagram/TCH_CS*%
X112156000Y-57173000D03*
%TO.P,JP4,2*%
%TO.N,Net-(J3-Pin_11)*%
X109056000Y-57173000D03*
%TD*%
D23*
%TO.P,R8,1*%
%TO.N,/System overview/Block diagram/S3V3*%
X125846000Y-53466500D03*
%TO.P,R8,2*%
%TO.N,/System overview/Block diagram/NRST*%
X125846000Y-55291500D03*
%TD*%
%TO.P,R11,1*%
%TO.N,Net-(JP19-Pad1)*%
X121782000Y-49402500D03*
%TO.P,R11,2*%
%TO.N,/System overview/Block diagram/GND*%
X121782000Y-51227500D03*
%TD*%
D48*
%TO.P,C15,1*%
%TO.N,/System overview/Block diagram/3V3_REG*%
X170765500Y-78763000D03*
%TO.P,C15,2*%
%TO.N,/System overview/Block diagram/GND*%
X173890500Y-78763000D03*
%TD*%
D17*
%TO.P,TP1,1,1_1*%
%TO.N,/System overview/Block diagram/PG*%
X159882000Y-80795000D03*
%TD*%
D21*
%TO.P,JP1,1*%
%TO.N,/System overview/Block diagram/TCH_IRQ*%
X110756500Y-51331000D03*
D22*
%TO.P,JP1,2*%
%TO.N,Net-(J3-Pin_14)*%
X108931500Y-51331000D03*
%TD*%
D10*
%TO.P,C7,1*%
%TO.N,/System overview/Block diagram/BOT_filt*%
X120766000Y-79932500D03*
%TO.P,C7,2*%
%TO.N,/System overview/Block diagram/GND*%
X120766000Y-81657500D03*
%TD*%
D11*
%TO.P,R1,1*%
%TO.N,/System overview/Block diagram/S3V3*%
X115432000Y-81707500D03*
%TO.P,R1,2*%
%TO.N,/System overview/Block diagram/BOT_EOT*%
X115432000Y-79882500D03*
%TD*%
D35*
%TO.P,C2,1*%
%TO.N,/System overview/Block diagram/S19V5*%
X168010000Y-69554300D03*
%TO.P,C2,2*%
%TO.N,/System overview/Block diagram/GND*%
X168010000Y-72679300D03*
%TD*%
D20*
%TO.P,JP22,1*%
%TO.N,/System overview/Block diagram/OUTb*%
X158778000Y-56665000D03*
%TO.P,JP22,2*%
%TO.N,/System overview/Block diagram/OUTb'*%
X158778000Y-64285000D03*
%TD*%
D11*
%TO.P,R4,1*%
%TO.N,/System overview/Block diagram/TOP_EOT*%
X124322000Y-81707500D03*
%TO.P,R4,2*%
%TO.N,/System overview/Block diagram/TOP_filt*%
X124322000Y-79882500D03*
%TD*%
D17*
%TO.P,TP17,1,1_1*%
%TO.N,/System overview/Block diagram/GND*%
X117210000Y-76477000D03*
%TD*%
D19*
%TO.P,C22,1*%
%TO.N,/System overview/Block diagram/ENCb_filt*%
X139408500Y-47013000D03*
%TO.P,C22,2*%
%TO.N,/System overview/Block diagram/GND*%
X137683500Y-47013000D03*
%TD*%
D21*
%TO.P,JP3,1*%
%TO.N,/System overview/Block diagram/DISP_MOSI*%
X110756500Y-54887000D03*
D22*
%TO.P,JP3,2*%
%TO.N,Net-(J3-Pin_12)*%
X108931500Y-54887000D03*
%TD*%
D49*
%TO.P,D1,1,K_1*%
%TO.N,/System overview/Block diagram/GND*%
X121848000Y-55062500D03*
%TO.P,D1,2,A_2*%
%TO.N,/System overview/Block diagram/S3V3*%
X123748000Y-55062500D03*
%TO.P,D1,3,K_3*%
%TO.N,/System overview/Block diagram/MOT_CS*%
X122798000Y-53187500D03*
%TD*%
D10*
%TO.P,C8,1*%
%TO.N,/System overview/Block diagram/TOP_filt*%
X122520000Y-79932500D03*
%TO.P,C8,2*%
%TO.N,/System overview/Block diagram/GND*%
X122520000Y-81657500D03*
%TD*%
D22*
%TO.P,JP12,1*%
%TO.N,/System overview/Block diagram/3V3_REG*%
X175479500Y-74191000D03*
D21*
%TO.P,JP12,2*%
%TO.N,/System overview/Block diagram/S3V3*%
X177304500Y-74191000D03*
%TD*%
D10*
%TO.P,C21,1*%
%TO.N,/System overview/Block diagram/MOT_CS*%
X120004000Y-53262500D03*
%TO.P,C21,2*%
%TO.N,/System overview/Block diagram/GND*%
X120004000Y-54987500D03*
%TD*%
D50*
%TO.P,J4,1,Pin_1_1*%
%TO.N,/System overview/Block diagram/NRST*%
X144673500Y-81912600D03*
D51*
%TO.P,J4,2,Pin_2_2*%
%TO.N,/System overview/Block diagram/SWDCLK*%
X144673500Y-83182600D03*
%TO.P,J4,3,Pin_3_3*%
%TO.N,/System overview/Block diagram/SWO'*%
X145943500Y-81912600D03*
%TO.P,J4,4,Pin_4_4*%
%TO.N,/System overview/Block diagram/SWDIO*%
X145943500Y-83182600D03*
%TO.P,J4,5,Pin_5_5*%
%TO.N,/System overview/Block diagram/GND*%
X147213500Y-81912600D03*
%TO.P,J4,6,Pin_6_6*%
X147213500Y-83182600D03*
%TO.P,J4,7,Pin_7_7*%
%TO.N,/System overview/Block diagram/S3V3*%
X148483500Y-81912600D03*
%TO.P,J4,8,Pin_8_8*%
X148483500Y-83182600D03*
%TO.P,J4,9,Pin_9_9*%
%TO.N,unconnected-(J4-Pin_9-Pad9)*%
X149753500Y-81912600D03*
%TO.P,J4,10,Pin_10_10*%
%TO.N,unconnected-(J4-Pin_10-Pad10)*%
X149753500Y-83182600D03*
%TD*%
D52*
%TO.P,J2,1,Pin_1_1*%
%TO.N,unconnected-(J2-Pin_1-Pad1)*%
X178810000Y-69497000D03*
D53*
%TO.P,J2,2,Pin_2_2*%
%TO.N,unconnected-(J2-Pin_2-Pad2)*%
X178810000Y-66957000D03*
%TO.P,J2,3,Pin_3_3*%
%TO.N,unconnected-(J2-Pin_3-Pad3)*%
X178810000Y-64417000D03*
%TO.P,J2,4,Pin_4_4*%
%TO.N,unconnected-(J2-Pin_4-Pad4)*%
X178810000Y-61877000D03*
%TD*%
D52*
%TO.P,J3,1,Pin_1_1*%
%TO.N,/System overview/Block diagram/S3V3*%
X105630000Y-82197000D03*
D53*
%TO.P,J3,2,Pin_2_2*%
%TO.N,/System overview/Block diagram/GND*%
X105630000Y-79657000D03*
%TO.P,J3,3,Pin_3_3*%
%TO.N,Net-(J3-Pin_3)*%
X105630000Y-77117000D03*
%TO.P,J3,4,Pin_4_4*%
%TO.N,Net-(J3-Pin_4)*%
X105630000Y-74577000D03*
%TO.P,J3,5,Pin_5_5*%
%TO.N,Net-(J3-Pin_5)*%
X105630000Y-72037000D03*
%TO.P,J3,6,Pin_6_6*%
%TO.N,Net-(J3-Pin_6)*%
X105630000Y-69497000D03*
%TO.P,J3,7,Pin_7_7*%
%TO.N,Net-(J3-Pin_7)*%
X105630000Y-66957000D03*
%TO.P,J3,8,Pin_8_8*%
%TO.N,/System overview/Block diagram/S3V3*%
X105630000Y-64417000D03*
%TO.P,J3,9,Pin_9_9*%
%TO.N,Net-(J3-Pin_9)*%
X105630000Y-61877000D03*
%TO.P,J3,10,Pin_10_10*%
%TO.N,Net-(J3-Pin_10)*%
X105630000Y-59337000D03*
%TO.P,J3,11,Pin_11_11*%
%TO.N,Net-(J3-Pin_11)*%
X105630000Y-56797000D03*
%TO.P,J3,12,Pin_12_12*%
%TO.N,Net-(J3-Pin_12)*%
X105630000Y-54257000D03*
%TO.P,J3,13,Pin_13_13*%
%TO.N,Net-(J3-Pin_13)*%
X105630000Y-51717000D03*
%TO.P,J3,14,Pin_14_14*%
%TO.N,Net-(J3-Pin_14)*%
X105630000Y-49177000D03*
%TD*%
D54*
%TO.P,TFT1,*%
%TO.N,*%
X110550000Y-84047000D03*
X177810000Y-84047000D03*
X110550000Y-47327000D03*
X177810000Y-47327000D03*
%TD*%
D55*
%TO.N,/System overview/Block diagram/GND*%
X152770000Y-64920000D03*
D56*
X123814000Y-69873000D03*
X126100000Y-78577000D03*
D55*
X150230000Y-53490000D03*
X148325000Y-54760000D03*
D56*
X106796000Y-86383000D03*
D55*
X172582000Y-63269000D03*
X149595000Y-54760000D03*
X174868000Y-50315000D03*
X172582000Y-58189000D03*
X150230000Y-64920000D03*
D56*
X128386000Y-55903000D03*
D55*
X152770000Y-53490000D03*
D56*
X145404000Y-52601000D03*
X136270000Y-43457000D03*
X120766000Y-67587000D03*
X120004000Y-56157000D03*
D55*
X151500000Y-53490000D03*
D56*
X117210000Y-78577000D03*
X143626000Y-60475000D03*
X123052000Y-51331000D03*
D55*
X150230000Y-56030000D03*
X154040000Y-53490000D03*
X161660000Y-47267000D03*
D56*
X136260000Y-47013000D03*
D55*
X152135000Y-66190000D03*
X148960000Y-67460000D03*
X150865000Y-66190000D03*
D56*
X140578000Y-49299000D03*
D55*
X152135000Y-54760000D03*
D56*
X175122000Y-78001000D03*
D55*
X170550000Y-63269000D03*
X151500000Y-56030000D03*
D56*
X175122000Y-79525000D03*
D55*
X152770000Y-56030000D03*
X153405000Y-66190000D03*
X154675000Y-54760000D03*
X173344000Y-48537000D03*
X170550000Y-58189000D03*
D56*
X130926000Y-74191000D03*
X120766000Y-83081000D03*
X166486000Y-76223000D03*
X132450000Y-50569000D03*
X129402000Y-57427000D03*
X122544000Y-83081000D03*
D55*
X161660000Y-48537000D03*
X148960000Y-53490000D03*
D56*
X135244000Y-58189000D03*
D55*
X154040000Y-67460000D03*
X149595000Y-66190000D03*
X148325000Y-66190000D03*
D56*
X135752000Y-53363000D03*
D55*
X151500000Y-64920000D03*
X150865000Y-54760000D03*
X152770000Y-67460000D03*
D56*
X166486000Y-79525000D03*
D55*
X151500000Y-67460000D03*
X150230000Y-67460000D03*
X153405000Y-54760000D03*
X154675000Y-66190000D03*
D56*
X166486000Y-74699000D03*
X166486000Y-78001000D03*
D55*
%TO.N,/System overview/Block diagram/S19V5*%
X164454000Y-63269000D03*
X162422000Y-63269000D03*
X162422000Y-58189000D03*
X164454000Y-58189000D03*
D57*
%TO.N,/System overview/Block diagram/NRST*%
X129148000Y-63777000D03*
%TO.N,/System overview/Block diagram/CS'*%
X152389000Y-58570000D03*
%TO.N,/System overview/Block diagram/SEL0*%
X127370000Y-63777000D03*
%TO.N,/System overview/Block diagram/PWM'*%
X152262000Y-62380000D03*
X146166000Y-64031000D03*
%TD*%
%TO.N,/System overview/Block diagram/ENCa*%
D58*
X146331300Y-48525200D02*
X145404000Y-49452500D01*
X143676000Y-49452500D02*
X143626000Y-49402500D01*
X145404000Y-49452500D02*
X143676000Y-49452500D01*
X146331300Y-45078000D02*
X146331300Y-48525200D01*
%TO.N,/System overview/Block diagram/GND*%
X120766000Y-67587000D02*
X121897400Y-67587000D01*
X126100000Y-78577000D02*
X126100000Y-79932500D01*
X128386000Y-54733500D02*
X128132000Y-54987500D01*
X120766000Y-83081000D02*
X120766000Y-81657500D01*
X131887500Y-87041500D02*
X132332000Y-86597000D01*
X130926000Y-74191000D02*
X130926000Y-75593500D01*
X106796000Y-85266500D02*
X106642500Y-85113000D01*
X163311000Y-71169500D02*
X163030500Y-70889000D01*
X121897400Y-67587000D02*
X121997900Y-67486500D01*
D59*
X174652500Y-78001000D02*
X173890500Y-78763000D01*
D58*
X132815000Y-63009000D02*
X134488000Y-63009000D01*
X124465000Y-68609000D02*
X124465000Y-69222000D01*
X117210000Y-78577000D02*
X117210000Y-79932500D01*
X123052000Y-51331000D02*
X121885500Y-51331000D01*
X130571500Y-57427000D02*
X129402000Y-57427000D01*
X121848000Y-55062500D02*
X120079000Y-55062500D01*
X138292000Y-81152500D02*
X137076500Y-81152500D01*
D59*
X175122000Y-79525000D02*
X174652500Y-79525000D01*
D58*
X140578000Y-49299000D02*
X141694500Y-49299000D01*
D59*
X144795500Y-60475000D02*
X143626000Y-60475000D01*
D58*
X128386000Y-54733500D02*
X129442500Y-54733500D01*
D59*
X174652500Y-79525000D02*
X173890500Y-78763000D01*
D58*
X135752000Y-54736500D02*
X135752000Y-53363000D01*
X132450000Y-52287000D02*
X132584000Y-52421000D01*
X136260000Y-47013000D02*
X137683500Y-47013000D01*
X130284000Y-55321000D02*
X130030000Y-55575000D01*
X132764000Y-52601000D02*
X132584000Y-52421000D01*
X137076500Y-81152500D02*
X136632000Y-81597000D01*
X158986500Y-74595500D02*
X159456000Y-75065000D01*
X122036000Y-71042500D02*
X123814000Y-71042500D01*
X130317500Y-57427000D02*
X130571500Y-57427000D01*
X134488000Y-63009000D02*
X135344500Y-62152500D01*
X135244000Y-59358500D02*
X135344500Y-59459000D01*
X123814000Y-71042500D02*
X123814000Y-69873000D01*
X157596000Y-76834500D02*
X158986500Y-76834500D01*
X136270000Y-43457000D02*
X137683500Y-43457000D01*
X141694500Y-49299000D02*
X141848000Y-49452500D01*
X163311000Y-73015000D02*
X163311000Y-71169500D01*
X120004000Y-54987500D02*
X120004000Y-56157000D01*
X128386000Y-54987500D02*
X128386000Y-55903000D01*
X145404000Y-52601000D02*
X145404000Y-51177500D01*
X122544000Y-81681500D02*
X122520000Y-81657500D01*
X121885500Y-51331000D02*
X121782000Y-51227500D01*
X120079000Y-55062500D02*
X120004000Y-54987500D01*
X124465000Y-67009000D02*
X122475400Y-67009000D01*
X122475400Y-67009000D02*
X121997900Y-67486500D01*
D59*
X175122000Y-78001000D02*
X174652500Y-78001000D01*
D58*
X106796000Y-86383000D02*
X106796000Y-85266500D01*
X129442500Y-54733500D02*
X130030000Y-55321000D01*
X132450000Y-50569000D02*
X132450000Y-52287000D01*
X122544000Y-83081000D02*
X122544000Y-81681500D01*
X124465000Y-69222000D02*
X123814000Y-69873000D01*
X157596000Y-74595500D02*
X158986500Y-74595500D01*
X130030000Y-55321000D02*
X130284000Y-55321000D01*
X135244000Y-58189000D02*
X135244000Y-59358500D01*
X130672000Y-87041500D02*
X131887500Y-87041500D01*
X130418000Y-55608500D02*
X130418000Y-57173000D01*
X158986500Y-76834500D02*
X159456000Y-76365000D01*
X135344500Y-62152500D02*
X135344500Y-59459000D01*
%TO.N,/System overview/Block diagram/MOT_CS*%
X117972000Y-51331000D02*
X119900500Y-51331000D01*
X122798000Y-53187500D02*
X120079000Y-53187500D01*
X128240000Y-60329000D02*
X128240000Y-61634000D01*
X120079000Y-53187500D02*
X120004000Y-53262500D01*
X124322000Y-57935000D02*
X124830000Y-58443000D01*
X122798000Y-53187500D02*
X122798000Y-56411000D01*
X124830000Y-58443000D02*
X126354000Y-58443000D01*
X126354000Y-58443000D02*
X128240000Y-60329000D01*
X122798000Y-56411000D02*
X124322000Y-57935000D01*
X119900500Y-51331000D02*
X120004000Y-51227500D01*
X120004000Y-51227500D02*
X120004000Y-53262500D01*
%TO.N,Net-(JP19-Pad1)*%
X121782000Y-49402500D02*
X123710500Y-49402500D01*
X124576000Y-48537000D02*
X134482000Y-48537000D01*
X123710500Y-49402500D02*
X124576000Y-48537000D01*
X138266000Y-52321000D02*
X138266000Y-54633000D01*
X120004000Y-49402500D02*
X121782000Y-49402500D01*
X134482000Y-48537000D02*
X138266000Y-52321000D01*
%TO.N,/System overview/Block diagram/S3V3*%
X123748000Y-53683000D02*
X123748000Y-53175000D01*
D59*
X103240000Y-75715000D02*
X103240000Y-64539000D01*
X103240000Y-85113000D02*
X103240000Y-75715000D01*
D58*
X104917500Y-83943500D02*
X104917500Y-85113000D01*
D59*
X181218000Y-85367000D02*
X181218000Y-77493000D01*
D60*
X130164000Y-80795000D02*
X129148000Y-80795000D01*
D58*
X123748000Y-55062500D02*
X123748000Y-53683000D01*
X125846000Y-53363000D02*
X124703000Y-52220000D01*
X127878000Y-81557000D02*
X128640000Y-80795000D01*
X128640000Y-80795000D02*
X129148000Y-80795000D01*
D59*
X106542000Y-89685000D02*
X103240000Y-86383000D01*
D58*
X125840000Y-69984000D02*
X125840000Y-71403000D01*
X130164000Y-80795000D02*
X130418000Y-80795000D01*
D60*
X148511300Y-82663300D02*
X148531300Y-82643300D01*
D59*
X127878000Y-89685000D02*
X115432000Y-89685000D01*
D58*
X134482000Y-57427000D02*
X133619500Y-58289500D01*
D59*
X151331300Y-41764300D02*
X151331300Y-45078000D01*
D58*
X116043500Y-72817500D02*
X113146000Y-75715000D01*
D59*
X148452000Y-89685000D02*
X176900000Y-89685000D01*
X181218000Y-77493000D02*
X181218000Y-74191000D01*
X109844000Y-41679000D02*
X117972000Y-41679000D01*
X105630000Y-64417000D02*
X103362000Y-64417000D01*
D58*
X148452000Y-81944100D02*
X148452000Y-89685000D01*
X103341600Y-75816600D02*
X103240000Y-75715000D01*
X125084000Y-51839000D02*
X127116000Y-49807000D01*
D61*
X105079200Y-75827000D02*
X105068800Y-75816600D01*
D59*
X103240000Y-64539000D02*
X103240000Y-48283000D01*
D58*
X123764000Y-72817500D02*
X123814000Y-72767500D01*
X113146000Y-75715000D02*
X106400000Y-75715000D01*
X127878000Y-81707500D02*
X127878000Y-81557000D01*
X127878000Y-81707500D02*
X127878000Y-89685000D01*
D59*
X103362000Y-64417000D02*
X103240000Y-64539000D01*
D58*
X124475500Y-72767500D02*
X123814000Y-72767500D01*
D59*
X115432000Y-89685000D02*
X106542000Y-89685000D01*
X177304500Y-74191000D02*
X181218000Y-74191000D01*
X151246000Y-41679000D02*
X176646000Y-41679000D01*
D58*
X123748000Y-53175000D02*
X125084000Y-51839000D01*
D59*
X148452000Y-89685000D02*
X127878000Y-89685000D01*
X151246000Y-41679000D02*
X151331300Y-41764300D01*
X103240000Y-48283000D02*
X109844000Y-41679000D01*
D58*
X133466000Y-49807000D02*
X134482000Y-50823000D01*
X133619500Y-61237000D02*
X131837000Y-61237000D01*
X120258000Y-72817500D02*
X123764000Y-72817500D01*
X123560000Y-50315000D02*
X125084000Y-51839000D01*
X127116000Y-49807000D02*
X133466000Y-49807000D01*
X125840000Y-71403000D02*
X124475500Y-72767500D01*
X105630000Y-83231000D02*
X104917500Y-83943500D01*
X115432000Y-81707500D02*
X115432000Y-89685000D01*
D62*
X118988000Y-50315000D02*
X122798000Y-50315000D01*
D58*
X122798000Y-50315000D02*
X123560000Y-50315000D01*
X133549400Y-61166900D02*
X133619500Y-61237000D01*
X131440000Y-61634000D02*
X131440000Y-63009000D01*
X117972000Y-41679000D02*
X117972000Y-49299000D01*
X133619500Y-58289500D02*
X133619500Y-61237000D01*
D59*
X103240000Y-86383000D02*
X103240000Y-85113000D01*
D58*
X130926000Y-80287000D02*
X130926000Y-77868500D01*
X117972000Y-49299000D02*
X118988000Y-50315000D01*
X131837000Y-61237000D02*
X131440000Y-61634000D01*
X125846000Y-53466500D02*
X125846000Y-53363000D01*
D59*
X181218000Y-46251000D02*
X181218000Y-74191000D01*
D58*
X106400000Y-75715000D02*
X106288000Y-75827000D01*
X125840000Y-68609000D02*
X125840000Y-69984000D01*
X104917500Y-85113000D02*
X103240000Y-85113000D01*
X134482000Y-50823000D02*
X134482000Y-57427000D01*
X179186000Y-77493000D02*
X181218000Y-77493000D01*
D59*
X176646000Y-41679000D02*
X181218000Y-46251000D01*
D58*
X120258000Y-72817500D02*
X116043500Y-72817500D01*
X105630000Y-82197000D02*
X105630000Y-83231000D01*
D59*
X176900000Y-89685000D02*
X181218000Y-85367000D01*
D61*
X106288000Y-75827000D02*
X105079200Y-75827000D01*
D58*
X130418000Y-80795000D02*
X130926000Y-80287000D01*
X148483500Y-81912600D02*
X148452000Y-81944100D01*
X131440000Y-63009000D02*
X125840000Y-68609000D01*
D59*
X117972000Y-41679000D02*
X151246000Y-41679000D01*
D58*
X105068800Y-75816600D02*
X103341600Y-75816600D01*
%TO.N,/System overview/Block diagram/S3V3_A*%
X123400400Y-67809000D02*
X121997900Y-69211500D01*
X124465000Y-67809000D02*
X123400400Y-67809000D01*
X121173500Y-69211500D02*
X120258000Y-70127000D01*
X121997900Y-69211500D02*
X121173500Y-69211500D01*
X120258000Y-70127000D02*
X120258000Y-70992500D01*
%TO.N,/System overview/Block diagram/XOUT*%
X130030000Y-52421000D02*
X130284000Y-52421000D01*
X129442500Y-53008500D02*
X130030000Y-52421000D01*
X127370000Y-53363000D02*
X127724500Y-53008500D01*
X128386000Y-53008500D02*
X129442500Y-53008500D01*
X127724500Y-53008500D02*
X128386000Y-53008500D01*
X129840000Y-61634000D02*
X129840000Y-59389000D01*
X129840000Y-59389000D02*
X127370000Y-56919000D01*
X127370000Y-56919000D02*
X127370000Y-53363000D01*
%TO.N,/System overview/Block diagram/S19V5*%
D59*
X161698500Y-69580500D02*
X161305500Y-69973500D01*
X168010000Y-69554300D02*
X165496200Y-69554300D01*
X165496200Y-69554300D02*
X165470000Y-69580500D01*
X165470000Y-69580500D02*
X161698500Y-69580500D01*
X146520500Y-60475000D02*
X148452000Y-60475000D01*
X161305500Y-69973500D02*
X161305500Y-70889000D01*
X161305500Y-72566500D02*
X161406000Y-72667000D01*
X164454000Y-63269000D02*
X165724000Y-63269000D01*
X161305500Y-70889000D02*
X161305500Y-72566500D01*
X165724000Y-63269000D02*
X168010000Y-65555000D01*
X168010000Y-65555000D02*
X168010000Y-69554300D01*
%TO.N,/System overview/Block diagram/3V3_REG*%
X173090000Y-74191000D02*
X172559809Y-74191000D01*
D58*
X157596000Y-84755500D02*
X159324000Y-84755500D01*
X166994000Y-86637000D02*
X169261000Y-84370000D01*
D59*
X175479500Y-74191000D02*
X173090000Y-74191000D01*
D58*
X161406000Y-86637000D02*
X166994000Y-86637000D01*
X159324000Y-84755500D02*
X159374000Y-84705500D01*
X169261000Y-84370000D02*
X169261000Y-84097000D01*
X159474500Y-84705500D02*
X161406000Y-86637000D01*
X173090000Y-71905000D02*
X173090000Y-74191000D01*
X159374000Y-84705500D02*
X159474500Y-84705500D01*
X168556500Y-78113000D02*
X168556500Y-78763000D01*
D59*
X172559809Y-74191000D02*
X169479372Y-77271437D01*
%TO.N,/System overview/Block diagram/BOOT0*%
D58*
X137784000Y-58951000D02*
X135752000Y-56919000D01*
X135720000Y-63809000D02*
X137784000Y-61745000D01*
X137784000Y-61237000D02*
X137784000Y-58951000D01*
X132815000Y-63809000D02*
X135720000Y-63809000D01*
X137784000Y-61745000D02*
X137784000Y-61237000D01*
X135752000Y-56919000D02*
X135752000Y-56561500D01*
%TO.N,/System overview/Block diagram/SW*%
X163711000Y-82846000D02*
X163711000Y-84097000D01*
X161660000Y-82165500D02*
X163030500Y-82165500D01*
X161406000Y-84097000D02*
X163711000Y-84097000D01*
X163030500Y-82165500D02*
X163711000Y-82846000D01*
%TO.N,/System overview/Block diagram/ENCb_filt*%
X139458500Y-45235000D02*
X139458500Y-46963000D01*
D60*
X139308000Y-53109000D02*
X139562000Y-53363000D01*
D58*
X138546000Y-57173000D02*
X138546000Y-56919000D01*
X139816000Y-61745000D02*
X139816000Y-59205000D01*
X136952000Y-64609000D02*
X139816000Y-61745000D01*
X139458500Y-46963000D02*
X139408500Y-47013000D01*
X138546000Y-57935000D02*
X138546000Y-57173000D01*
D60*
X139562000Y-53363000D02*
X139562000Y-55903000D01*
D58*
X132815000Y-64609000D02*
X136952000Y-64609000D01*
X139308000Y-53109000D02*
X139308000Y-47113500D01*
X138546000Y-56919000D02*
X139308000Y-56157000D01*
X139308000Y-47113500D02*
X139408500Y-47013000D01*
D60*
X139562000Y-55903000D02*
X139308000Y-56157000D01*
D58*
X139816000Y-59205000D02*
X138546000Y-57935000D01*
%TO.N,/System overview/Block diagram/ENCa_filt*%
X141898000Y-51227500D02*
X141848000Y-51177500D01*
X137676000Y-65409000D02*
X141086000Y-61999000D01*
X141086000Y-56919000D02*
X140324000Y-56157000D01*
X132815000Y-65409000D02*
X137676000Y-65409000D01*
D60*
X140070000Y-55903000D02*
X140324000Y-56157000D01*
D58*
X141239500Y-51177500D02*
X140324000Y-52093000D01*
X141086000Y-61999000D02*
X141086000Y-57173000D01*
X141747500Y-51177500D02*
X141239500Y-51177500D01*
D60*
X140324000Y-53109000D02*
X140070000Y-53363000D01*
D58*
X140324000Y-52093000D02*
X140324000Y-53109000D01*
X141848000Y-51177500D02*
X141747500Y-51177500D01*
X143626000Y-51227500D02*
X141898000Y-51227500D01*
D60*
X140070000Y-53363000D02*
X140070000Y-55903000D01*
D58*
X141086000Y-57173000D02*
X141086000Y-56919000D01*
%TO.N,/System overview/Block diagram/XIN*%
X132330000Y-57393500D02*
X132330000Y-55575000D01*
X132330000Y-55575000D02*
X132584000Y-55321000D01*
X132296500Y-57427000D02*
X132330000Y-57393500D01*
X130640000Y-61634000D02*
X130640000Y-59237000D01*
X132296500Y-57580500D02*
X132296500Y-57427000D01*
X130640000Y-59237000D02*
X132296500Y-57580500D01*
%TO.N,/System overview/Block diagram/FB*%
X157840500Y-78415000D02*
X157596000Y-78659500D01*
X159501000Y-78415000D02*
X157840500Y-78415000D01*
X157596000Y-82930500D02*
X157596000Y-78659500D01*
X159374000Y-82980500D02*
X157646000Y-82980500D01*
X157646000Y-82980500D02*
X157596000Y-82930500D01*
%TO.N,Net-(U1-BOOT)*%
X162041000Y-78415000D02*
X162041000Y-80059500D01*
X162041000Y-80059500D02*
X161660000Y-80440500D01*
%TO.N,/System overview/Block diagram/DISP_DC*%
X124465000Y-63009000D02*
X117492000Y-63009000D01*
X117492000Y-63009000D02*
X116770000Y-62287000D01*
%TO.N,Net-(J3-Pin_5)*%
X116770000Y-67367000D02*
X116770000Y-68281000D01*
X113014000Y-72037000D02*
X105630000Y-72037000D01*
X116770000Y-68281000D02*
X113014000Y-72037000D01*
%TO.N,/System overview/Block diagram/D-*%
D59*
X128894000Y-83081000D02*
X128894000Y-83825000D01*
X129656000Y-81707500D02*
X131076500Y-81707500D01*
D63*
X135013371Y-84647000D02*
X133913371Y-83547000D01*
D59*
X131670000Y-84079000D02*
X131688000Y-84097000D01*
X131182000Y-81813000D02*
X131182000Y-82672654D01*
X131688000Y-84097000D02*
X131688000Y-84061000D01*
X129148000Y-82827000D02*
X128894000Y-83081000D01*
X128894000Y-83825000D02*
X129148000Y-84079000D01*
D64*
X132196000Y-83589000D02*
X133765000Y-83589000D01*
D59*
X131182000Y-82672654D02*
X131027654Y-82827000D01*
X131027654Y-82827000D02*
X129148000Y-82827000D01*
X131076500Y-81707500D02*
X131182000Y-81813000D01*
X129148000Y-84079000D02*
X131670000Y-84079000D01*
D63*
X135157000Y-84647000D02*
X135013371Y-84647000D01*
D59*
X131688000Y-84061000D02*
X132160000Y-83589000D01*
D64*
X133765000Y-83589000D02*
X133807000Y-83547000D01*
D63*
X133913371Y-83547000D02*
X133807000Y-83547000D01*
D59*
X132160000Y-83589000D02*
X132196000Y-83589000D01*
%TO.N,/System overview/Block diagram/D-'*%
X129976000Y-78697000D02*
X129656000Y-79017000D01*
X129656000Y-79017000D02*
X129656000Y-79882500D01*
X129976000Y-77868500D02*
X129976000Y-78697000D01*
%TO.N,/System overview/Block diagram/DISP_MOSI*%
D58*
X114924000Y-67841000D02*
X113400000Y-69365000D01*
X124465000Y-65409000D02*
X116213000Y-65409000D01*
D60*
X110756500Y-55498500D02*
X110342451Y-55912549D01*
X109844000Y-61284784D02*
X109844000Y-64793000D01*
X109844000Y-64793000D02*
X110352000Y-65301000D01*
D58*
X113400000Y-69365000D02*
X110756500Y-69365000D01*
D60*
X110756500Y-68753500D02*
X110756500Y-69365000D01*
X110352000Y-68349000D02*
X110756500Y-68753500D01*
X110342451Y-55912549D02*
X110342451Y-60786333D01*
X110342451Y-60786333D02*
X109844000Y-61284784D01*
D58*
X114924000Y-66698000D02*
X114924000Y-67841000D01*
D60*
X110756500Y-54887000D02*
X110756500Y-55498500D01*
X110352000Y-65301000D02*
X110352000Y-68349000D01*
D58*
X116213000Y-65409000D02*
X114924000Y-66698000D01*
%TO.N,Net-(J3-Pin_6)*%
X108931500Y-69365000D02*
X105762000Y-69365000D01*
X105762000Y-69365000D02*
X105630000Y-69497000D01*
%TO.N,/System overview/Block diagram/CC1*%
X133807000Y-85747000D02*
X133338000Y-85747000D01*
X132807500Y-85216500D02*
X130672000Y-85216500D01*
X133338000Y-85747000D02*
X132807500Y-85216500D01*
%TO.N,/System overview/Block diagram/DISP_MISO*%
D60*
X110860000Y-61895500D02*
X110756500Y-61999000D01*
X111599000Y-55506772D02*
X110860000Y-56245772D01*
X110860000Y-56245772D02*
X110860000Y-61895500D01*
X111114000Y-67841000D02*
X110860000Y-67587000D01*
X111599000Y-53951500D02*
X111599000Y-55506772D01*
D58*
X111368000Y-68095000D02*
X113146000Y-68095000D01*
X115362000Y-64609000D02*
X124465000Y-64609000D01*
D60*
X110860000Y-67587000D02*
X110860000Y-62102500D01*
D58*
X113908000Y-66063000D02*
X115362000Y-64609000D01*
D60*
X110756500Y-53109000D02*
X111599000Y-53951500D01*
X110860000Y-62102500D02*
X110756500Y-61999000D01*
D58*
X111114000Y-67841000D02*
X111368000Y-68095000D01*
X113908000Y-67333000D02*
X113908000Y-66063000D01*
X113146000Y-68095000D02*
X113908000Y-67333000D01*
%TO.N,Net-(J3-Pin_13)*%
X108931500Y-53109000D02*
X107812000Y-53109000D01*
X106420000Y-51717000D02*
X105630000Y-51717000D01*
X107812000Y-53109000D02*
X106420000Y-51717000D01*
%TO.N,/System overview/Block diagram/RT*%
X159120000Y-70889000D02*
X159120000Y-72634000D01*
X159120000Y-72634000D02*
X159501000Y-73015000D01*
X157596000Y-72770500D02*
X159256500Y-72770500D01*
X159256500Y-72770500D02*
X159501000Y-73015000D01*
%TO.N,/System overview/Block diagram/PG*%
X160771000Y-79398000D02*
X160390000Y-79779000D01*
X160390000Y-79779000D02*
X160390000Y-80287000D01*
X160390000Y-80287000D02*
X159882000Y-80795000D01*
X160771000Y-78415000D02*
X160771000Y-79398000D01*
%TO.N,/System overview/Block diagram/NRST*%
X136006000Y-72667000D02*
X140070000Y-72667000D01*
X129040000Y-61634000D02*
X129040000Y-63669000D01*
X129040000Y-63669000D02*
X129148000Y-63777000D01*
X140070000Y-72667000D02*
X144673500Y-77270500D01*
X144673500Y-77270500D02*
X144673500Y-81912600D01*
X125846000Y-56665000D02*
X125846000Y-55291500D01*
X129040000Y-59859000D02*
X125846000Y-56665000D01*
X129040000Y-61634000D02*
X129040000Y-59859000D01*
%TO.N,/System overview/Block diagram/INa*%
X139054000Y-65555000D02*
X138800000Y-65809000D01*
X138400000Y-66209000D02*
X138800000Y-65809000D01*
X132815000Y-66209000D02*
X138400000Y-66209000D01*
X139919500Y-65555000D02*
X139054000Y-65555000D01*
%TO.N,/System overview/Block diagram/INa'*%
X142356000Y-64943500D02*
X141744500Y-65555000D01*
X142356000Y-59713000D02*
X142356000Y-64943500D01*
X143499000Y-58570000D02*
X142356000Y-59713000D01*
D60*
X148523800Y-58597000D02*
X148637500Y-58710700D01*
D58*
X148637500Y-58570000D02*
X143499000Y-58570000D01*
%TO.N,/System overview/Block diagram/ENCb*%
X142210300Y-43457000D02*
X143831300Y-45078000D01*
X139408500Y-43457000D02*
X139408500Y-43460000D01*
X139408500Y-43460000D02*
X137633500Y-45235000D01*
X139408500Y-43457000D02*
X142210300Y-43457000D01*
%TO.N,/System overview/Block diagram/BOT_EOT*%
X115432000Y-79882500D02*
X115435000Y-79882500D01*
X115435000Y-79882500D02*
X117210000Y-81657500D01*
X117210000Y-85544000D02*
X118032000Y-86366000D01*
X118938000Y-81657500D02*
X118988000Y-81707500D01*
X117210000Y-81657500D02*
X117210000Y-85544000D01*
X117210000Y-81657500D02*
X118938000Y-81657500D01*
%TO.N,/System overview/Block diagram/SWO*%
X138292000Y-68603000D02*
X143118000Y-68603000D01*
X144160000Y-68603000D02*
X144642000Y-69085000D01*
X137498000Y-67809000D02*
X138292000Y-68603000D01*
X132815000Y-67809000D02*
X137498000Y-67809000D01*
X142102000Y-68603000D02*
X144160000Y-68603000D01*
%TO.N,/System overview/Block diagram/SWO'*%
X145943500Y-77016500D02*
X145943500Y-81912600D01*
X144642000Y-75715000D02*
X145943500Y-77016500D01*
X144642000Y-72185000D02*
X144642000Y-75715000D01*
%TO.N,/System overview/Block diagram/INb*%
X138476000Y-67009000D02*
X139054000Y-67587000D01*
X132815000Y-67009000D02*
X138476000Y-67009000D01*
X139054000Y-67587000D02*
X139919500Y-67587000D01*
%TO.N,/System overview/Block diagram/INb'*%
X143880000Y-64031000D02*
X143880000Y-66825000D01*
X143118000Y-67587000D02*
X141744500Y-67587000D01*
X143880000Y-66825000D02*
X143118000Y-67587000D01*
X148637500Y-62380000D02*
X145531000Y-62380000D01*
X145531000Y-62380000D02*
X143880000Y-64031000D01*
%TO.N,/System overview/Block diagram/DISP_SCK*%
X112156000Y-63777000D02*
X112156000Y-59713000D01*
X112188000Y-63809000D02*
X112156000Y-63777000D01*
X112156000Y-66317000D02*
X112156000Y-63777000D01*
X124465000Y-63809000D02*
X112188000Y-63809000D01*
%TO.N,Net-(J3-Pin_10)*%
X107182000Y-59337000D02*
X105630000Y-59337000D01*
X109056000Y-59713000D02*
X107558000Y-59713000D01*
X107558000Y-59713000D02*
X107182000Y-59337000D01*
%TO.N,/System overview/Block diagram/DISP_RST*%
X112384000Y-74445000D02*
X111876000Y-74445000D01*
X120620000Y-66209000D02*
X112384000Y-74445000D01*
X111876000Y-74445000D02*
X110756500Y-74445000D01*
X124465000Y-66209000D02*
X120620000Y-66209000D01*
%TO.N,Net-(J3-Pin_4)*%
X105762000Y-74445000D02*
X105630000Y-74577000D01*
X108931500Y-74445000D02*
X105762000Y-74445000D01*
%TO.N,/System overview/Block diagram/D+*%
D64*
X137022000Y-84097000D02*
X136702500Y-83777500D01*
D59*
X135394500Y-78001000D02*
X136895000Y-78001000D01*
X138903696Y-84115000D02*
X137040000Y-84115000D01*
D65*
X135411340Y-83547000D02*
X135157000Y-83547000D01*
D59*
X139562000Y-83456696D02*
X138903696Y-84115000D01*
D64*
X136702500Y-83777500D02*
X136514000Y-83777500D01*
D59*
X136895000Y-78001000D02*
X139562000Y-80668000D01*
D65*
X136464000Y-83727500D02*
X135591840Y-83727500D01*
D59*
X137040000Y-84115000D02*
X137022000Y-84097000D01*
D65*
X136514000Y-83777500D02*
X136464000Y-83727500D01*
D59*
X139562000Y-80668000D02*
X139562000Y-83456696D01*
D65*
X135591840Y-83727500D02*
X135411340Y-83547000D01*
%TO.N,/System overview/Block diagram/D+'*%
D59*
X132008500Y-78001000D02*
X133569500Y-78001000D01*
X131876000Y-77868500D02*
X132008500Y-78001000D01*
%TO.N,Net-(J5-VBUS-PadA4)*%
D60*
X135228016Y-86847000D02*
X135157000Y-86847000D01*
X138546000Y-88161000D02*
X136542016Y-88161000D01*
D58*
X133807000Y-81347000D02*
X135157000Y-81347000D01*
X133807000Y-86847000D02*
X135157000Y-86847000D01*
D60*
X136542016Y-88161000D02*
X135228016Y-86847000D01*
X135157000Y-81347000D02*
X135228016Y-81347000D01*
%TO.N,/System overview/Block diagram/CC2*%
D58*
X135372000Y-82447000D02*
X135902500Y-82977500D01*
X135902500Y-82977500D02*
X138292000Y-82977500D01*
X135157000Y-82447000D02*
X135372000Y-82447000D01*
%TO.N,/System overview/Block diagram/CS'*%
X154362500Y-59840000D02*
X153659000Y-59840000D01*
X153659000Y-59840000D02*
X152389000Y-58570000D01*
X141366000Y-54633000D02*
X143626000Y-54633000D01*
%TO.N,/System overview/Block diagram/TOP_EOT*%
X127878000Y-79882500D02*
X127875000Y-79882500D01*
X126100000Y-85798000D02*
X125532000Y-86366000D01*
X126100000Y-81657500D02*
X126100000Y-85798000D01*
X124372000Y-81657500D02*
X124322000Y-81707500D01*
X127875000Y-79882500D02*
X126100000Y-81657500D01*
X126100000Y-81657500D02*
X124372000Y-81657500D01*
%TO.N,/System overview/Block diagram/BOT_filt*%
X120766000Y-78001000D02*
X120512000Y-77747000D01*
X121782000Y-74953000D02*
X120512000Y-76223000D01*
X127440000Y-69984000D02*
X127440000Y-72851000D01*
X125338000Y-74953000D02*
X121782000Y-74953000D01*
X127440000Y-72851000D02*
X125338000Y-74953000D01*
X120512000Y-76223000D02*
X120512000Y-77747000D01*
X118988000Y-79882500D02*
X120716000Y-79882500D01*
X120716000Y-79882500D02*
X120766000Y-79932500D01*
X120766000Y-79932500D02*
X120766000Y-78001000D01*
%TO.N,/System overview/Block diagram/SEL0*%
X156580000Y-67587000D02*
X156580000Y-66063000D01*
D60*
X143118000Y-70889000D02*
X146420000Y-70889000D01*
D58*
X143118000Y-70889000D02*
X133720000Y-70889000D01*
X146420000Y-70889000D02*
X147944000Y-69365000D01*
X127440000Y-63707000D02*
X127370000Y-63777000D01*
X147944000Y-69365000D02*
X154802000Y-69365000D01*
X154802000Y-69365000D02*
X156580000Y-67587000D01*
X127440000Y-61634000D02*
X127440000Y-63707000D01*
%TO.N,/System overview/Block diagram/TOP_filt*%
X128240000Y-73575000D02*
X125846000Y-75969000D01*
X125846000Y-75969000D02*
X123560000Y-75969000D01*
X122520000Y-78025000D02*
X122798000Y-77747000D01*
X122570000Y-79882500D02*
X122520000Y-79932500D01*
X122520000Y-79932500D02*
X122520000Y-78025000D01*
X124322000Y-79882500D02*
X122570000Y-79882500D01*
X122798000Y-76731000D02*
X122798000Y-77747000D01*
X128240000Y-69984000D02*
X128240000Y-73575000D01*
X123560000Y-75969000D02*
X122798000Y-76731000D01*
%TO.N,Net-(J3-Pin_9)*%
X108931500Y-61999000D02*
X105752000Y-61999000D01*
X105752000Y-61999000D02*
X105630000Y-61877000D01*
%TO.N,/System overview/Block diagram/OUTb'*%
D60*
X148688800Y-63842000D02*
X148637500Y-63790700D01*
%TO.N,/System overview/Block diagram/PWM'*%
D58*
X142610000Y-69619000D02*
X143118000Y-70127000D01*
X141744500Y-69619000D02*
X142610000Y-69619000D01*
D60*
X143118000Y-70127000D02*
X143372000Y-70381000D01*
X145912000Y-70381000D02*
X146166000Y-70127000D01*
D58*
X154362500Y-62380000D02*
X152262000Y-62380000D01*
D60*
X143372000Y-70381000D02*
X145912000Y-70381000D01*
D58*
X146166000Y-64031000D02*
X146166000Y-70127000D01*
%TO.N,/System overview/Block diagram/SEL0'*%
X154362500Y-58570000D02*
X156453000Y-58570000D01*
X156453000Y-58570000D02*
X156580000Y-58443000D01*
%TO.N,Net-(J3-Pin_7)*%
X109056000Y-66317000D02*
X108066000Y-66317000D01*
X108066000Y-66317000D02*
X107426000Y-66957000D01*
X107426000Y-66957000D02*
X105630000Y-66957000D01*
%TO.N,/System overview/Block diagram/USB_DP*%
D59*
X131876000Y-73797497D02*
X131404751Y-73326248D01*
D64*
X130062400Y-71803400D02*
X130316400Y-72159000D01*
D59*
X131876000Y-75593500D02*
X131876000Y-73797497D01*
X131404751Y-73326248D02*
X130875200Y-72870200D01*
X130875200Y-72870200D02*
X130316400Y-72159000D01*
D66*
X129840000Y-71143000D02*
X129960800Y-71549400D01*
D65*
X129960800Y-71549400D02*
X130062400Y-71803400D01*
D58*
X129840000Y-69984000D02*
X129840000Y-71143000D01*
%TO.N,/System overview/Block diagram/USB_DM*%
D65*
X129046400Y-71752600D02*
X129097200Y-72159000D01*
D59*
X129976000Y-73683000D02*
X129468000Y-73175000D01*
X129976000Y-75593500D02*
X129976000Y-73683000D01*
X129300400Y-72717800D02*
X129468000Y-73175000D01*
D58*
X129040000Y-71397000D02*
X129040000Y-69984000D01*
D66*
X129040000Y-71397000D02*
X129046400Y-71752600D01*
D64*
X129097200Y-72159000D02*
X129300400Y-72717800D01*
%TO.N,/System overview/Block diagram/PWM*%
D58*
X137784000Y-69619000D02*
X139919500Y-69619000D01*
X136774000Y-68609000D02*
X137784000Y-69619000D01*
X132815000Y-68609000D02*
X136774000Y-68609000D01*
%TO.N,/System overview/Block diagram/TCH_IRQ*%
X119242000Y-59205000D02*
X111368000Y-51331000D01*
X119750000Y-59713000D02*
X119242000Y-59205000D01*
X111368000Y-51331000D02*
X110756500Y-51331000D01*
X126640000Y-60253000D02*
X126100000Y-59713000D01*
X126640000Y-61634000D02*
X126640000Y-60253000D01*
X126100000Y-59713000D02*
X119750000Y-59713000D01*
%TO.N,/System overview/Block diagram/TCH_CS*%
X125840000Y-60950750D02*
X125364250Y-60475000D01*
X115686000Y-57173000D02*
X112156000Y-57173000D01*
X125364250Y-60475000D02*
X118988000Y-60475000D01*
X125840000Y-61634000D02*
X125840000Y-60950750D01*
X118988000Y-60475000D02*
X118734000Y-60221000D01*
X118734000Y-60221000D02*
X115686000Y-57173000D01*
%TO.N,/System overview/Block diagram/DISP_CS*%
X114924000Y-76985000D02*
X110756500Y-76985000D01*
X126640000Y-69984000D02*
X126640000Y-72127000D01*
X126640000Y-72127000D02*
X124576000Y-74191000D01*
X117718000Y-74191000D02*
X114924000Y-76985000D01*
X124576000Y-74191000D02*
X117718000Y-74191000D01*
%TO.N,/System overview/Block diagram/SWDIO*%
X142356000Y-77493000D02*
X142356000Y-83589000D01*
X130640000Y-69984000D02*
X130640000Y-71111000D01*
X133974000Y-74445000D02*
X139308000Y-74445000D01*
X139308000Y-74445000D02*
X142356000Y-77493000D01*
X130640000Y-71111000D02*
X133974000Y-74445000D01*
X143372000Y-84605000D02*
X145158122Y-84605000D01*
X145158122Y-84605000D02*
X145943500Y-83819622D01*
X145943500Y-83819622D02*
X145943500Y-83182600D01*
X142356000Y-83589000D02*
X143372000Y-84605000D01*
%TO.N,/System overview/Block diagram/SWDCLK*%
X134482000Y-73683000D02*
X139816000Y-73683000D01*
X139816000Y-73683000D02*
X143372000Y-77239000D01*
X143372000Y-77239000D02*
X143372000Y-82827000D01*
X143372000Y-82827000D02*
X143727600Y-83182600D01*
X131440000Y-70641000D02*
X134482000Y-73683000D01*
X131440000Y-69984000D02*
X131440000Y-70641000D01*
X143727600Y-83182600D02*
X144673500Y-83182600D01*
%TO.N,Net-(J3-Pin_3)*%
X108931500Y-76985000D02*
X105762000Y-76985000D01*
X105762000Y-76985000D02*
X105630000Y-77117000D01*
%TO.N,Net-(J3-Pin_11)*%
X107812000Y-57173000D02*
X107436000Y-56797000D01*
X109056000Y-57173000D02*
X107812000Y-57173000D01*
X107436000Y-56797000D02*
X105630000Y-56797000D01*
%TO.N,Net-(J3-Pin_14)*%
X106777500Y-49177000D02*
X105630000Y-49177000D01*
X108931500Y-51331000D02*
X106777500Y-49177000D01*
%TO.N,Net-(J3-Pin_12)*%
X108931500Y-54887000D02*
X107558000Y-54887000D01*
X106928000Y-54257000D02*
X105630000Y-54257000D01*
X107558000Y-54887000D02*
X106928000Y-54257000D01*
%TD*%
%TA.AperFunction,Conductor*%
%TO.N,/System overview/Block diagram/GND*%
G36*
X122732000Y-51531000D02*
G01*
X122732000Y-51131000D01*
X122218466Y-50856000D01*
X121781000Y-51331000D01*
X122110387Y-51696921D01*
X122732000Y-51531000D01*
G37*
%TD.AperFunction*%
%TD*%
%TA.AperFunction,Conductor*%
%TO.N,/System overview/Block diagram/ENCb*%
G36*
X138521242Y-44630101D02*
G01*
X138238399Y-44347258D01*
X137436749Y-44760000D01*
X137632793Y-45235707D01*
X138121000Y-45419252D01*
X138521242Y-44630101D01*
G37*
%TD.AperFunction*%
%TD*%
%TA.AperFunction,Conductor*%
%TO.N,/System overview/Block diagram/BOT_filt*%
G36*
X119938000Y-80082500D02*
G01*
X119938000Y-79682500D01*
X119316387Y-79413079D01*
X118987000Y-79882500D01*
X119316387Y-80351921D01*
X119938000Y-80082500D01*
G37*
%TD.AperFunction*%
%TD*%
%TA.AperFunction,Conductor*%
%TO.N,/System overview/Block diagram/SWO'*%
G36*
X146143500Y-80827263D02*
G01*
X145743500Y-80827263D01*
X145439986Y-81704038D01*
X145943500Y-81918263D01*
X146447014Y-81704038D01*
X146143500Y-80827263D01*
G37*
%TD.AperFunction*%
%TD*%
%TA.AperFunction,Conductor*%
%TO.N,/System overview/Block diagram/GND*%
G36*
X121363433Y-67787000D02*
G01*
X121363433Y-67387000D01*
X120805158Y-67289567D01*
X120762433Y-67587000D01*
X120805158Y-67884433D01*
X121363433Y-67787000D01*
G37*
%TD.AperFunction*%
%TD*%
%TA.AperFunction,Conductor*%
%TO.N,/System overview/Block diagram/GND*%
G36*
X132650000Y-50569000D02*
G01*
X132250000Y-50569000D01*
X131703030Y-51525329D01*
X132450000Y-52422000D01*
X133350000Y-51403613D01*
X132650000Y-50569000D01*
G37*
%TD.AperFunction*%
%TD*%
%TA.AperFunction,Conductor*%
%TO.N,/System overview/Block diagram/S3V3*%
G36*
X127678000Y-82670000D02*
G01*
X128078000Y-82670000D01*
X128334921Y-82048387D01*
X127878000Y-81706500D01*
X127421079Y-82048387D01*
X127678000Y-82670000D01*
G37*
%TD.AperFunction*%
%TD*%
%TA.AperFunction,Conductor*%
%TO.N,/System overview/Block diagram/BOT_EOT*%
G36*
X116038100Y-80768443D02*
G01*
X116320943Y-80485600D01*
X115907000Y-79682748D01*
X115432793Y-79880293D01*
X115250748Y-80370000D01*
X116038100Y-80768443D01*
G37*
%TD.AperFunction*%
%TD*%
%TA.AperFunction,Conductor*%
%TO.N,/System overview/Block diagram/TOP_filt*%
G36*
X123470000Y-80082500D02*
G01*
X123470000Y-79682500D01*
X122848387Y-79413079D01*
X122519000Y-79882500D01*
X122954128Y-80357500D01*
X123470000Y-80082500D01*
G37*
%TD.AperFunction*%
%TD*%
%TA.AperFunction,Conductor*%
%TO.N,/System overview/Block diagram/S3V3*%
G36*
X125300659Y-52534816D02*
G01*
X125017816Y-52817659D01*
X125371000Y-53559751D01*
X125898457Y-53415457D01*
X126146229Y-52991477D01*
X125300659Y-52534816D01*
G37*
%TD.AperFunction*%
%TD*%
%TA.AperFunction,Conductor*%
%TO.N,/System overview/Block diagram/CC2*%
G36*
X137342000Y-82777500D02*
G01*
X137342000Y-83177500D01*
X137963613Y-83446921D01*
X138293000Y-82977500D01*
X137963613Y-82508079D01*
X137342000Y-82777500D01*
G37*
%TD.AperFunction*%
%TD*%
%TA.AperFunction,Conductor*%
%TO.N,/System overview/Block diagram/FB*%
G36*
X157396000Y-79622000D02*
G01*
X157796000Y-79622000D01*
X158052921Y-79000387D01*
X157596000Y-78658500D01*
X157139079Y-79000387D01*
X157396000Y-79622000D01*
G37*
%TD.AperFunction*%
%TD*%
%TA.AperFunction,Conductor*%
%TO.N,/System overview/Block diagram/PWM'*%
G36*
X153058578Y-62580000D02*
G01*
X153058578Y-62180000D01*
X152314210Y-61983422D01*
X152257578Y-62380000D01*
X152314210Y-62776578D01*
X153058578Y-62580000D01*
G37*
%TD.AperFunction*%
%TD*%
%TA.AperFunction,Conductor*%
%TO.N,/System overview/Block diagram/S3V3*%
G36*
X123948000Y-54025000D02*
G01*
X123548000Y-54025000D01*
X123459418Y-54417597D01*
X123748000Y-55063500D01*
X124036582Y-54417597D01*
X123948000Y-54025000D01*
G37*
%TD.AperFunction*%
%TD*%
%TA.AperFunction,Conductor*%
%TO.N,/System overview/Block diagram/3V3_REG*%
G36*
X158546000Y-84955500D02*
G01*
X158546000Y-84555500D01*
X157924387Y-84286079D01*
X157595000Y-84755500D01*
X157924387Y-85224921D01*
X158546000Y-84955500D01*
G37*
%TD.AperFunction*%
%TD*%
%TA.AperFunction,Conductor*%
%TO.N,/System overview/Block diagram/GND*%
G36*
X158546000Y-77034500D02*
G01*
X158546000Y-76634500D01*
X157924387Y-76365079D01*
X157595000Y-76834500D01*
X157924387Y-77303921D01*
X158546000Y-77034500D01*
G37*
%TD.AperFunction*%
%TD*%
%TA.AperFunction,Conductor*%
%TO.N,/System overview/Block diagram/ENCa*%
G36*
X146131300Y-46898907D02*
G01*
X146531300Y-46898907D01*
X147080933Y-45603687D01*
X146331300Y-45077000D01*
X145581667Y-45603687D01*
X146131300Y-46898907D01*
G37*
%TD.AperFunction*%
%TD*%
%TA.AperFunction,Conductor*%
%TO.N,/System overview/Block diagram/S3V3*%
G36*
X133819500Y-58509000D02*
G01*
X133419500Y-58509000D01*
X133144500Y-59064131D01*
X133619500Y-59460000D01*
X134094500Y-59064131D01*
X133819500Y-58509000D01*
G37*
%TD.AperFunction*%
%TD*%
%TA.AperFunction,Conductor*%
%TO.N,/System overview/Block diagram/GND*%
G36*
X117410000Y-78920000D02*
G01*
X117010000Y-78920000D01*
X116753079Y-79541613D01*
X117210000Y-79933500D01*
X117666921Y-79541613D01*
X117410000Y-78920000D01*
G37*
%TD.AperFunction*%
%TD*%
%TA.AperFunction,Conductor*%
%TO.N,/System overview/Block diagram/NRST*%
G36*
X125646000Y-56254000D02*
G01*
X126046000Y-56254000D01*
X126302921Y-55632387D01*
X125846000Y-55290500D01*
X125389079Y-55632387D01*
X125646000Y-56254000D01*
G37*
%TD.AperFunction*%
%TD*%
%TA.AperFunction,Conductor*%
%TO.N,/System overview/Block diagram/SWO*%
G36*
X133815000Y-68009000D02*
G01*
X133815000Y-67609000D01*
X133440000Y-67559000D01*
X132814000Y-67809000D01*
X133440000Y-68059000D01*
X133815000Y-68009000D01*
G37*
%TD.AperFunction*%
%TD*%
%TA.AperFunction,Conductor*%
%TO.N,/System overview/Block diagram/ENCa_filt*%
G36*
X140856602Y-51277555D02*
G01*
X141139445Y-51560398D01*
X141239500Y-51377500D01*
X141442562Y-51645438D01*
X141849000Y-51177500D01*
X141442562Y-50709562D01*
X141239500Y-50977500D01*
X141098079Y-51036079D01*
X140856602Y-51277555D01*
G37*
%TD.AperFunction*%
%TD*%
%TA.AperFunction,Conductor*%
%TO.N,/System overview/Block diagram/TOP_EOT*%
G36*
X125272000Y-81857500D02*
G01*
X125272000Y-81457500D01*
X124650387Y-81238079D01*
X124321000Y-81657500D01*
X124716869Y-82132500D01*
X125272000Y-81857500D01*
G37*
%TD.AperFunction*%
%TD*%
%TA.AperFunction,Conductor*%
%TO.N,/System overview/Block diagram/ENCa_filt*%
G36*
X140886000Y-58168722D02*
G01*
X141286000Y-58168722D01*
X141547940Y-57364342D01*
X141086000Y-57167722D01*
X140624060Y-57364342D01*
X140886000Y-58168722D01*
G37*
%TD.AperFunction*%
%TD*%
%TA.AperFunction,Conductor*%
%TO.N,/System overview/Block diagram/FB*%
G36*
X157796000Y-79799278D02*
G01*
X157396000Y-79799278D01*
X157134060Y-80603658D01*
X157596000Y-80800278D01*
X158057940Y-80603658D01*
X157796000Y-79799278D01*
G37*
%TD.AperFunction*%
%TD*%
%TA.AperFunction,Conductor*%
%TO.N,/System overview/Block diagram/BOT_filt*%
G36*
X127240000Y-70984000D02*
G01*
X127640000Y-70984000D01*
X127690000Y-70609000D01*
X127440000Y-69983000D01*
X127190000Y-70609000D01*
X127240000Y-70984000D01*
G37*
%TD.AperFunction*%
%TD*%
%TA.AperFunction,Conductor*%
%TO.N,/System overview/Block diagram/S3V3*%
G36*
X148655835Y-82092355D02*
G01*
X148255965Y-82102525D01*
X147979986Y-82974038D01*
X148483639Y-83188086D01*
X148987014Y-82974038D01*
X148655835Y-82092355D01*
G37*
%TD.AperFunction*%
%TD*%
%TA.AperFunction,Conductor*%
%TO.N,/System overview/Block diagram/GND*%
G36*
X130726000Y-74788433D02*
G01*
X131126000Y-74788433D01*
X131223433Y-74230158D01*
X130926000Y-74187433D01*
X130628567Y-74230158D01*
X130726000Y-74788433D01*
G37*
%TD.AperFunction*%
%TD*%
%TA.AperFunction,Conductor*%
%TO.N,/System overview/Block diagram/INa*%
G36*
X133815000Y-66409000D02*
G01*
X133815000Y-66009000D01*
X133440000Y-65959000D01*
X132814000Y-66209000D01*
X133440000Y-66459000D01*
X133815000Y-66409000D01*
G37*
%TD.AperFunction*%
%TD*%
%TA.AperFunction,Conductor*%
%TO.N,/System overview/Block diagram/NRST*%
G36*
X129240000Y-62995371D02*
G01*
X128840000Y-62995371D01*
X128748000Y-63777000D01*
X129040000Y-63796371D01*
X129332000Y-63421832D01*
X129240000Y-62995371D01*
G37*
%TD.AperFunction*%
%TD*%
%TA.AperFunction,Conductor*%
%TO.N,Net-(J3-Pin_7)*%
G36*
X107705376Y-66394781D02*
G01*
X107988219Y-66677624D01*
X108066000Y-66517000D01*
X108410973Y-66967000D01*
X109057000Y-66317000D01*
X108410973Y-65667000D01*
X108066000Y-66117000D01*
X107924579Y-66175579D01*
X107705376Y-66394781D01*
G37*
%TD.AperFunction*%
%TD*%
%TA.AperFunction,Conductor*%
%TO.N,/System overview/Block diagram/SWDCLK*%
G36*
X131568355Y-71052198D02*
G01*
X131851198Y-70769355D01*
X131690000Y-70537446D01*
X131190707Y-70391707D01*
X131226612Y-70697388D01*
X131568355Y-71052198D01*
G37*
%TD.AperFunction*%
%TD*%
%TA.AperFunction,Conductor*%
%TO.N,Net-(J3-Pin_13)*%
G36*
X106935526Y-52515369D02*
G01*
X107218369Y-52232526D01*
X106231041Y-51115959D01*
X105874159Y-51171159D01*
X106389524Y-52098606D01*
X106935526Y-52515369D01*
G37*
%TD.AperFunction*%
%TD*%
%TA.AperFunction,Conductor*%
%TO.N,/System overview/Block diagram/USB_DP*%
G36*
X129640000Y-70984000D02*
G01*
X130040000Y-70984000D01*
X130090000Y-70609000D01*
X129840000Y-69983000D01*
X129590000Y-70609000D01*
X129640000Y-70984000D01*
G37*
%TD.AperFunction*%
%TD*%
%TA.AperFunction,Conductor*%
%TO.N,/System overview/Block diagram/GND*%
G36*
X122454567Y-51131000D02*
G01*
X122454567Y-51531000D01*
X123012842Y-51628433D01*
X123055567Y-51331000D01*
X123012842Y-51033567D01*
X122454567Y-51131000D01*
G37*
%TD.AperFunction*%
%TD*%
%TA.AperFunction,Conductor*%
%TO.N,/System overview/Block diagram/GND*%
G36*
X140898000Y-49099000D02*
G01*
X140898000Y-49499000D01*
X141377277Y-49774000D01*
X141849000Y-49299000D01*
X141519613Y-48933079D01*
X140898000Y-49099000D01*
G37*
%TD.AperFunction*%
%TD*%
%TA.AperFunction,Conductor*%
%TO.N,Net-(J5-VBUS-PadA4)*%
G36*
X135757767Y-87518173D02*
G01*
X135899189Y-87376751D01*
X135624649Y-86684360D01*
X135191801Y-86810785D01*
X135049869Y-87269894D01*
X135757767Y-87518173D01*
G37*
%TD.AperFunction*%
%TD*%
%TA.AperFunction,Conductor*%
%TO.N,/System overview/Block diagram/ENCb_filt*%
G36*
X138569845Y-58241687D02*
G01*
X138852687Y-57958845D01*
X138746000Y-57935000D01*
X139007940Y-57364342D01*
X138546000Y-57167722D01*
X138084060Y-57364342D01*
X138346000Y-57935000D01*
X138404579Y-58076421D01*
X138569845Y-58241687D01*
G37*
%TD.AperFunction*%
%TD*%
%TA.AperFunction,Conductor*%
%TO.N,/System overview/Block diagram/GND*%
G36*
X120954000Y-55262500D02*
G01*
X120954000Y-54862500D01*
X120454832Y-54587500D01*
X120003000Y-55062500D01*
X120332387Y-55506921D01*
X120954000Y-55262500D01*
G37*
%TD.AperFunction*%
%TD*%
%TA.AperFunction,Conductor*%
%TO.N,/System overview/Block diagram/DISP_MISO*%
G36*
X123465000Y-64409000D02*
G01*
X123465000Y-64809000D01*
X123840000Y-64859000D01*
X124466000Y-64609000D01*
X123840000Y-64359000D01*
X123465000Y-64409000D01*
G37*
%TD.AperFunction*%
%TD*%
%TA.AperFunction,Conductor*%
%TO.N,/System overview/Block diagram/GND*%
G36*
X122986000Y-71242500D02*
G01*
X122986000Y-70842500D01*
X122430869Y-70567500D01*
X122035000Y-71042500D01*
X122430869Y-71517500D01*
X122986000Y-71242500D01*
G37*
%TD.AperFunction*%
%TD*%
%TA.AperFunction,Conductor*%
%TO.N,/System overview/Block diagram/GND*%
G36*
X161879740Y-46510021D02*
G01*
X161904984Y-46517434D01*
X161957730Y-46548730D01*
X162373073Y-46964073D01*
X162394223Y-46992325D01*
X162406831Y-47015414D01*
X162422000Y-47074843D01*
X162422000Y-50499808D01*
X162416976Y-50534745D01*
X162409564Y-50559986D01*
X162378269Y-50612730D01*
X161962926Y-51028073D01*
X161934675Y-51049222D01*
X161911587Y-51061830D01*
X161852157Y-51077000D01*
X160967192Y-51077000D01*
X160932256Y-51071977D01*
X160907014Y-51064565D01*
X160854269Y-51033269D01*
X160692926Y-50871926D01*
X160671774Y-50843670D01*
X160659167Y-50820581D01*
X160644000Y-50761156D01*
X160644000Y-47336191D01*
X160649022Y-47301258D01*
X160656434Y-47276013D01*
X160687728Y-47223271D01*
X161357076Y-46553923D01*
X161385326Y-46532775D01*
X161408418Y-46520167D01*
X161467843Y-46505000D01*
X161844808Y-46505000D01*
X161879740Y-46510021D01*
G37*
%TD.AperFunction*%
%TD*%
%TA.AperFunction,Conductor*%
%TO.N,/System overview/Block diagram/FB*%
G36*
X158546000Y-78615000D02*
G01*
X158546000Y-78215000D01*
X157833500Y-78172000D01*
X157595000Y-78415000D01*
X158071000Y-78890000D01*
X158546000Y-78615000D01*
G37*
%TD.AperFunction*%
%TD*%
%TA.AperFunction,Conductor*%
%TO.N,/System overview/Block diagram/S3V3*%
G36*
X103905000Y-84913000D02*
G01*
X103905000Y-85313000D01*
X104526613Y-85569921D01*
X104918500Y-85113000D01*
X104526613Y-84656079D01*
X103905000Y-84913000D01*
G37*
%TD.AperFunction*%
%TD*%
%TA.AperFunction,Conductor*%
%TO.N,/System overview/Block diagram/SWO*%
G36*
X143133311Y-68403000D02*
G01*
X143133311Y-68803000D01*
X143767000Y-69253000D01*
X144643000Y-68603000D01*
X144643000Y-68435000D01*
X143133311Y-68403000D01*
G37*
%TD.AperFunction*%
%TD*%
%TA.AperFunction,Conductor*%
%TO.N,Net-(J5-VBUS-PadA4)*%
G36*
X134728364Y-87047000D02*
G01*
X134728364Y-86647000D01*
X134044640Y-86454351D01*
X133806000Y-86847000D01*
X134044640Y-87239649D01*
X134728364Y-87047000D01*
G37*
%TD.AperFunction*%
%TD*%
%TA.AperFunction,Conductor*%
%TO.N,/System overview/Block diagram/TCH_CS*%
G36*
X113456000Y-57373000D02*
G01*
X113456000Y-56973000D01*
X112801027Y-56523000D01*
X112155000Y-57173000D01*
X112801027Y-57823000D01*
X113456000Y-57373000D01*
G37*
%TD.AperFunction*%
%TD*%
%TA.AperFunction,Conductor*%
%TO.N,/System overview/Block diagram/ENCa_filt*%
G36*
X140672003Y-56222161D02*
G01*
X140389161Y-56505003D01*
X140647199Y-56933306D01*
X141238395Y-57071395D01*
X141439553Y-56819447D01*
X140672003Y-56222161D01*
G37*
%TD.AperFunction*%
%TD*%
%TA.AperFunction,Conductor*%
%TO.N,Net-(J3-Pin_6)*%
G36*
X107316223Y-69565000D02*
G01*
X107316223Y-69165000D01*
X105630000Y-68647000D01*
X105615223Y-69365000D01*
X106245714Y-70083000D01*
X107316223Y-69565000D01*
G37*
%TD.AperFunction*%
%TD*%
%TA.AperFunction,Conductor*%
%TO.N,/System overview/Block diagram/S3V3*%
G36*
X131240000Y-62634000D02*
G01*
X131640000Y-62634000D01*
X131690000Y-62259000D01*
X131440000Y-61633000D01*
X131190000Y-62259000D01*
X131240000Y-62634000D01*
G37*
%TD.AperFunction*%
%TD*%
%TA.AperFunction,Conductor*%
%TO.N,/System overview/Block diagram/RT*%
G36*
X158901000Y-72570500D02*
G01*
X158901000Y-72970500D01*
X159201000Y-73070500D01*
X159502000Y-72770500D01*
X159201000Y-72470500D01*
X158901000Y-72570500D01*
G37*
%TD.AperFunction*%
%TD*%
%TA.AperFunction,Conductor*%
%TO.N,Net-(JP19-Pad1)*%
G36*
X120954000Y-49602500D02*
G01*
X120954000Y-49202500D01*
X120332387Y-48933079D01*
X120003000Y-49402500D01*
X120332387Y-49871921D01*
X120954000Y-49602500D01*
G37*
%TD.AperFunction*%
%TD*%
%TA.AperFunction,Conductor*%
%TO.N,/System overview/Block diagram/SWDIO*%
G36*
X145485073Y-83995207D02*
G01*
X145767915Y-84278049D01*
X146084921Y-83961043D01*
X146143500Y-83819622D01*
X146375878Y-83514375D01*
X145943500Y-83176937D01*
X145511122Y-83514375D01*
X145743500Y-83819622D01*
X145485073Y-83995207D01*
G37*
%TD.AperFunction*%
%TD*%
%TA.AperFunction,Conductor*%
%TO.N,/System overview/Block diagram/GND*%
G36*
X136671000Y-46813000D02*
G01*
X136671000Y-47213000D01*
X137292613Y-47469921D01*
X137684500Y-47013000D01*
X137292613Y-46556079D01*
X136671000Y-46813000D01*
G37*
%TD.AperFunction*%
%TD*%
%TA.AperFunction,Conductor*%
%TO.N,/System overview/Block diagram/OUTb*%
G36*
X158831740Y-43716021D02*
G01*
X158856984Y-43723434D01*
X158909730Y-43754730D01*
X160087073Y-44932073D01*
X160108223Y-44960325D01*
X160120831Y-44983414D01*
X160136000Y-45042843D01*
X160136000Y-53660788D01*
X160135684Y-53669633D01*
X160134500Y-53686187D01*
X160134500Y-57269806D01*
X160114815Y-57336845D01*
X160098181Y-57357487D01*
X159558487Y-57897181D01*
X159497164Y-57930666D01*
X159470806Y-57933500D01*
X157914083Y-57933500D01*
X157879146Y-57928476D01*
X157859013Y-57922564D01*
X157806269Y-57891269D01*
X157390926Y-57475926D01*
X157369774Y-57447670D01*
X157357167Y-57424581D01*
X157342000Y-57365156D01*
X157342000Y-48029000D01*
X155358926Y-46045926D01*
X155337774Y-46017670D01*
X155326667Y-45997328D01*
X155311500Y-45937903D01*
X155311500Y-44283082D01*
X155316522Y-44248149D01*
X155322434Y-44228014D01*
X155353728Y-44175271D01*
X155769076Y-43759923D01*
X155797326Y-43738775D01*
X155820418Y-43726167D01*
X155879843Y-43711000D01*
X158796808Y-43711000D01*
X158831740Y-43716021D01*
G37*
%TD.AperFunction*%
%TD*%
%TA.AperFunction,Conductor*%
%TO.N,/System overview/Block diagram/XIN*%
G36*
X132530000Y-56477000D02*
G01*
X132130000Y-56477000D01*
X131855000Y-57003896D01*
X132330000Y-57428000D01*
X132805000Y-57082268D01*
X132530000Y-56477000D01*
G37*
%TD.AperFunction*%
%TD*%
%TA.AperFunction,Conductor*%
%TO.N,Net-(J5-VBUS-PadA4)*%
G36*
X134235636Y-81147000D02*
G01*
X134235636Y-81547000D01*
X134919360Y-81739649D01*
X135158000Y-81347000D01*
X134919360Y-80954351D01*
X134235636Y-81147000D01*
G37*
%TD.AperFunction*%
%TD*%
%TA.AperFunction,Conductor*%
%TO.N,/System overview/Block diagram/ENCa*%
G36*
X144454000Y-49252500D02*
G01*
X144454000Y-49652500D01*
X145009131Y-49927500D01*
X145405000Y-49452500D01*
X145009131Y-48977500D01*
X144454000Y-49252500D01*
G37*
%TD.AperFunction*%
%TD*%
%TA.AperFunction,Conductor*%
%TO.N,/System overview/Block diagram/MOT_CS*%
G36*
X122198000Y-52987500D02*
G01*
X122198000Y-53387500D01*
X122498000Y-53487500D01*
X122799000Y-53187500D01*
X122498000Y-52887500D01*
X122198000Y-52987500D01*
G37*
%TD.AperFunction*%
%TD*%
%TA.AperFunction,Conductor*%
%TO.N,/System overview/Block diagram/DISP_CS*%
G36*
X126440000Y-70984000D02*
G01*
X126840000Y-70984000D01*
X126890000Y-70609000D01*
X126640000Y-69983000D01*
X126390000Y-70609000D01*
X126440000Y-70984000D01*
G37*
%TD.AperFunction*%
%TD*%
%TA.AperFunction,Conductor*%
%TO.N,/System overview/Block diagram/GND*%
G36*
X135444000Y-58509000D02*
G01*
X135044000Y-58509000D01*
X134825079Y-59130613D01*
X135244000Y-59460000D01*
X135719000Y-58998819D01*
X135444000Y-58509000D01*
G37*
%TD.AperFunction*%
%TD*%
%TA.AperFunction,Conductor*%
%TO.N,/System overview/Block diagram/S19V5*%
G36*
X173817740Y-53114021D02*
G01*
X173842984Y-53121434D01*
X173895730Y-53152730D01*
X174057110Y-53314110D01*
X174078260Y-53342363D01*
X174090875Y-53365465D01*
X174106044Y-53424803D01*
X174107417Y-55325740D01*
X174102419Y-55360680D01*
X174095032Y-55385904D01*
X174063692Y-55438755D01*
X173900934Y-55601441D01*
X173872671Y-55622587D01*
X173849580Y-55635188D01*
X173790156Y-55650341D01*
X167256969Y-55649001D01*
X167253817Y-55649001D01*
X167253815Y-55649000D01*
X167248000Y-55649000D01*
X167247999Y-55649000D01*
X167247998Y-55649000D01*
X167247997Y-55649000D01*
X166486000Y-56410998D01*
X166486000Y-62945808D01*
X166480976Y-62980745D01*
X166473564Y-63005986D01*
X166442269Y-63058730D01*
X165518926Y-63982073D01*
X165490675Y-64003222D01*
X165467587Y-64015830D01*
X165408157Y-64031000D01*
X160967192Y-64031000D01*
X160932256Y-64025977D01*
X160907014Y-64018565D01*
X160854269Y-63987269D01*
X160405872Y-63538872D01*
X160373404Y-63481855D01*
X160368394Y-63462225D01*
X160345076Y-63402964D01*
X160345076Y-63402963D01*
X160332468Y-63379874D01*
X160312758Y-63349206D01*
X160300087Y-63332280D01*
X160291613Y-63320960D01*
X160267751Y-63293421D01*
X160267739Y-63293407D01*
X160267729Y-63293397D01*
X160267719Y-63293386D01*
X159852402Y-62878070D01*
X159852396Y-62878064D01*
X159840066Y-62868486D01*
X159802111Y-62839001D01*
X159802097Y-62838992D01*
X159749363Y-62807703D01*
X159749360Y-62807701D01*
X159749359Y-62807701D01*
X159690973Y-62782285D01*
X159690971Y-62782284D01*
X159690968Y-62782283D01*
X159665727Y-62774871D01*
X159663570Y-62774321D01*
X159663639Y-62774048D01*
X159646546Y-62768682D01*
X159628000Y-62761000D01*
X159584212Y-62761000D01*
X159575368Y-62760684D01*
X159558813Y-62759500D01*
X159558808Y-62759500D01*
X156390084Y-62759500D01*
X156355148Y-62754477D01*
X156335014Y-62748565D01*
X156282269Y-62717269D01*
X155310000Y-61745000D01*
X152428144Y-61745000D01*
X152396481Y-61740889D01*
X152392150Y-61739745D01*
X152377806Y-61736396D01*
X152376516Y-61736133D01*
X152364890Y-61734123D01*
X152361707Y-61733573D01*
X152361706Y-61733573D01*
X152354715Y-61733165D01*
X152354747Y-61732614D01*
X152334486Y-61731173D01*
X152326073Y-61729500D01*
X152326070Y-61729500D01*
X152326069Y-61729500D01*
X152197931Y-61729500D01*
X152197930Y-61729500D01*
X152161228Y-61736800D01*
X152161225Y-61736800D01*
X152137962Y-61741428D01*
X152125927Y-61743214D01*
X152119892Y-61743808D01*
X152113856Y-61744403D01*
X152101701Y-61745000D01*
X147759192Y-61745000D01*
X147724256Y-61739977D01*
X147699014Y-61732565D01*
X147646269Y-61701269D01*
X147484926Y-61539926D01*
X147463774Y-61511670D01*
X147451167Y-61488581D01*
X147436000Y-61429156D01*
X147436000Y-59528191D01*
X147441022Y-59493258D01*
X147448434Y-59468013D01*
X147479728Y-59415271D01*
X147641076Y-59253923D01*
X147669326Y-59232775D01*
X147692418Y-59220167D01*
X147751843Y-59205000D01*
X151808070Y-59205000D01*
X151843002Y-59210021D01*
X151868246Y-59217434D01*
X151920992Y-59248730D01*
X153147262Y-60475000D01*
X155056000Y-60475000D01*
X156140540Y-59390458D01*
X156168794Y-59369309D01*
X156182512Y-59361819D01*
X156250778Y-59346969D01*
X156264359Y-59347940D01*
X156296800Y-59355606D01*
X156296922Y-59355205D01*
X156302738Y-59356968D01*
X156302749Y-59356973D01*
X156471111Y-59390462D01*
X156483408Y-59392908D01*
X156485643Y-59393409D01*
X156486381Y-59393500D01*
X156486383Y-59393500D01*
X156486384Y-59393500D01*
X156539306Y-59393500D01*
X156550043Y-59393965D01*
X156561250Y-59394940D01*
X156561250Y-59394939D01*
X156561252Y-59394940D01*
X156564874Y-59394792D01*
X156580184Y-59393500D01*
X156677737Y-59393500D01*
X156685586Y-59391118D01*
X156857251Y-59356973D01*
X157030231Y-59285322D01*
X157185908Y-59181302D01*
X157318302Y-59048908D01*
X157422322Y-58893231D01*
X157493973Y-58720251D01*
X157526666Y-58555885D01*
X157538405Y-58522613D01*
X157553771Y-58493239D01*
X157575964Y-58463035D01*
X157801076Y-58237923D01*
X157829326Y-58216775D01*
X157852418Y-58204167D01*
X157911843Y-58189000D01*
X159628000Y-58189000D01*
X160390000Y-57427000D01*
X160390000Y-53686191D01*
X160395022Y-53651258D01*
X160402434Y-53626013D01*
X160433728Y-53573271D01*
X160849076Y-53157923D01*
X160877326Y-53136775D01*
X160900418Y-53124167D01*
X160959843Y-53109000D01*
X173782808Y-53109000D01*
X173817740Y-53114021D01*
G37*
%TD.AperFunction*%
%TD*%
%TA.AperFunction,Conductor*%
%TO.N,/System overview/Block diagram/GND*%
G36*
X124265000Y-69109000D02*
G01*
X124665000Y-69109000D01*
X124715000Y-68859000D01*
X124465000Y-68608000D01*
X124215000Y-68859000D01*
X124265000Y-69109000D01*
G37*
%TD.AperFunction*%
%TD*%
%TA.AperFunction,Conductor*%
%TO.N,/System overview/Block diagram/MOT_CS*%
G36*
X120204000Y-52250000D02*
G01*
X119804000Y-52250000D01*
X119547079Y-52871613D01*
X120004000Y-53263500D01*
X120460921Y-52871613D01*
X120204000Y-52250000D01*
G37*
%TD.AperFunction*%
%TD*%
%TA.AperFunction,Conductor*%
%TO.N,/System overview/Block diagram/GND*%
G36*
X131334917Y-86841500D02*
G01*
X131334917Y-87241500D01*
X132140658Y-87458940D01*
X132335917Y-87041500D01*
X131832000Y-86541500D01*
X131334917Y-86841500D01*
G37*
%TD.AperFunction*%
%TD*%
%TA.AperFunction,Conductor*%
%TO.N,/System overview/Block diagram/ENCb_filt*%
G36*
X139658500Y-46063000D02*
G01*
X139258500Y-46063000D01*
X138983500Y-46578872D01*
X139458500Y-47014000D01*
X139927921Y-46684613D01*
X139658500Y-46063000D01*
G37*
%TD.AperFunction*%
%TD*%
%TA.AperFunction,Conductor*%
%TO.N,/System overview/Block diagram/GND*%
G36*
X130218000Y-57173000D02*
G01*
X130618000Y-57173000D01*
X131164970Y-56216671D01*
X130418000Y-55320000D01*
X129518000Y-56338386D01*
X130218000Y-57173000D01*
G37*
%TD.AperFunction*%
%TD*%
%TA.AperFunction,Conductor*%
%TO.N,/System overview/Block diagram/CC1*%
G36*
X131622000Y-85416500D02*
G01*
X131622000Y-85016500D01*
X131000387Y-84747079D01*
X130671000Y-85216500D01*
X131000387Y-85685921D01*
X131622000Y-85416500D01*
G37*
%TD.AperFunction*%
%TD*%
%TA.AperFunction,Conductor*%
%TO.N,/System overview/Block diagram/GND*%
G36*
X129559000Y-57227000D02*
G01*
X129559000Y-57627000D01*
X130180613Y-57883921D01*
X130572500Y-57427000D01*
X130180613Y-56970079D01*
X129559000Y-57227000D01*
G37*
%TD.AperFunction*%
%TD*%
%TA.AperFunction,Conductor*%
%TO.N,/System overview/Block diagram/D-*%
G36*
X132885636Y-83239000D02*
G01*
X132885636Y-83939000D01*
X133732000Y-83972000D01*
X133808000Y-83589000D01*
X133552647Y-83164000D01*
X132885636Y-83239000D01*
G37*
%TD.AperFunction*%
%TD*%
%TA.AperFunction,Conductor*%
%TO.N,/System overview/Block diagram/DISP_MISO*%
G36*
X110760000Y-62949000D02*
G01*
X110960000Y-62949000D01*
X111225921Y-62327387D01*
X110860000Y-61998000D01*
X110385000Y-62435466D01*
X110760000Y-62949000D01*
G37*
%TD.AperFunction*%
%TD*%
%TA.AperFunction,Conductor*%
%TO.N,/System overview/Block diagram/TOP_EOT*%
G36*
X126989057Y-80485600D02*
G01*
X127271900Y-80768443D01*
X128059251Y-80370000D01*
X127877207Y-79880293D01*
X127403000Y-79682748D01*
X126989057Y-80485600D01*
G37*
%TD.AperFunction*%
%TD*%
%TA.AperFunction,Conductor*%
%TO.N,/System overview/Block diagram/GND*%
G36*
X121047900Y-67387000D02*
G01*
X121047900Y-67787000D01*
X121669513Y-68005921D01*
X121998900Y-67587000D01*
X121537719Y-67112000D01*
X121047900Y-67387000D01*
G37*
%TD.AperFunction*%
%TD*%
%TA.AperFunction,Conductor*%
%TO.N,/System overview/Block diagram/GND*%
G36*
X135552000Y-53960433D02*
G01*
X135952000Y-53960433D01*
X136049433Y-53402158D01*
X135752000Y-53359433D01*
X135454567Y-53402158D01*
X135552000Y-53960433D01*
G37*
%TD.AperFunction*%
%TD*%
%TA.AperFunction,Conductor*%
%TO.N,/System overview/Block diagram/S3V3*%
G36*
X148278245Y-84266961D02*
G01*
X148678239Y-84268899D01*
X148987014Y-83391162D01*
X148483527Y-83176943D01*
X147979986Y-83391162D01*
X148278245Y-84266961D01*
G37*
%TD.AperFunction*%
%TD*%
%TA.AperFunction,Conductor*%
%TO.N,/System overview/Block diagram/ENCb*%
G36*
X138502530Y-44083127D02*
G01*
X138785373Y-44365970D01*
X139608252Y-43932000D01*
X139410707Y-43457793D01*
X138871000Y-43325749D01*
X138502530Y-44083127D01*
G37*
%TD.AperFunction*%
%TD*%
%TA.AperFunction,Conductor*%
%TO.N,/System overview/Block diagram/ENCb_filt*%
G36*
X139258500Y-46185000D02*
G01*
X139658500Y-46185000D01*
X139927921Y-45563387D01*
X139458500Y-45234000D01*
X138989079Y-45563387D01*
X139258500Y-46185000D01*
G37*
%TD.AperFunction*%
%TD*%
%TA.AperFunction,Conductor*%
%TO.N,/System overview/Block diagram/S3V3*%
G36*
X124820921Y-72704922D02*
G01*
X124538078Y-72422079D01*
X124475500Y-72567500D01*
X124219438Y-72299562D01*
X123813000Y-72767500D01*
X124219438Y-73235438D01*
X124475500Y-72967500D01*
X124616921Y-72908921D01*
X124820921Y-72704922D01*
G37*
%TD.AperFunction*%
%TD*%
%TA.AperFunction,Conductor*%
%TO.N,/System overview/Block diagram/TCH_CS*%
G36*
X125737895Y-60565802D02*
G01*
X125455052Y-60848645D01*
X125590000Y-61054303D01*
X126089293Y-61200043D01*
X126053388Y-60920612D01*
X125737895Y-60565802D01*
G37*
%TD.AperFunction*%
%TD*%
%TA.AperFunction,Conductor*%
%TO.N,Net-(J3-Pin_9)*%
G36*
X107318212Y-62199000D02*
G01*
X107318212Y-61799000D01*
X106226040Y-61271000D01*
X105617212Y-61999000D01*
X105630000Y-62727000D01*
X107318212Y-62199000D01*
G37*
%TD.AperFunction*%
%TD*%
%TA.AperFunction,Conductor*%
%TO.N,/System overview/Block diagram/GND*%
G36*
X163111000Y-71839000D02*
G01*
X163511000Y-71839000D01*
X163568000Y-71126500D01*
X163311000Y-70888000D01*
X162836000Y-71364000D01*
X163111000Y-71839000D01*
G37*
%TD.AperFunction*%
%TD*%
%TA.AperFunction,Conductor*%
%TO.N,/System overview/Block diagram/GND*%
G36*
X135144500Y-62152500D02*
G01*
X135544500Y-62152500D01*
X135819500Y-61631868D01*
X135344500Y-61236000D01*
X134869500Y-61631868D01*
X135144500Y-62152500D01*
G37*
%TD.AperFunction*%
%TD*%
%TA.AperFunction,Conductor*%
%TO.N,/System overview/Block diagram/S3V3*%
G36*
X133819500Y-60287000D02*
G01*
X133419500Y-60287000D01*
X133144500Y-60842131D01*
X133619500Y-61238000D01*
X134094500Y-60842131D01*
X133819500Y-60287000D01*
G37*
%TD.AperFunction*%
%TD*%
%TA.AperFunction,Conductor*%
%TO.N,/System overview/Block diagram/S19V5*%
G36*
X163907500Y-69180500D02*
G01*
X163907500Y-69980500D01*
X164724329Y-70223970D01*
X165471000Y-69580500D01*
X164724329Y-68937030D01*
X163907500Y-69180500D01*
G37*
%TD.AperFunction*%
%TD*%
%TA.AperFunction,Conductor*%
%TO.N,/System overview/Block diagram/GND*%
G36*
X175122000Y-79925000D02*
G01*
X175122000Y-79125000D01*
X174935343Y-79242157D01*
X174553000Y-78488583D01*
X173889793Y-78762293D01*
X174184042Y-79993458D01*
X174369657Y-79807843D01*
X174652500Y-79925000D01*
X175122000Y-79925000D01*
G37*
%TD.AperFunction*%
%TD*%
%TA.AperFunction,Conductor*%
%TO.N,/System overview/Block diagram/S3V3*%
G36*
X148652000Y-83177937D02*
G01*
X148252000Y-83177937D01*
X147943163Y-83253737D01*
X148452000Y-83725689D01*
X147943163Y-83253737D01*
X148652000Y-83177937D01*
G37*
%TD.AperFunction*%
%TD*%
%TA.AperFunction,Conductor*%
%TO.N,/System overview/Block diagram/S3V3*%
G36*
X133419500Y-60409000D02*
G01*
X133819500Y-60409000D01*
X134094500Y-59853868D01*
X133619500Y-59458000D01*
X133144500Y-59853868D01*
X133419500Y-60409000D01*
G37*
%TD.AperFunction*%
%TD*%
%TA.AperFunction,Conductor*%
%TO.N,/System overview/Block diagram/SEL0'*%
G36*
X155425000Y-58770000D02*
G01*
X155425000Y-58370000D01*
X154999686Y-58257370D01*
X154361500Y-58570000D01*
X154999686Y-58882630D01*
X155425000Y-58770000D01*
G37*
%TD.AperFunction*%
%TD*%
%TA.AperFunction,Conductor*%
%TO.N,/System overview/Block diagram/GND*%
G36*
X143783000Y-60075000D02*
G01*
X143783000Y-60875000D01*
X144495500Y-60950000D01*
X144796500Y-60475000D01*
X144495500Y-60000000D01*
X143783000Y-60075000D01*
G37*
%TD.AperFunction*%
%TD*%
%TA.AperFunction,Conductor*%
%TO.N,/System overview/Block diagram/3V3_REG*%
G36*
X169295677Y-73956685D02*
G01*
X169316319Y-73973319D01*
X169497681Y-74154681D01*
X169531166Y-74216004D01*
X169534000Y-74242362D01*
X169534000Y-76477000D01*
X170296000Y-77239000D01*
X171260638Y-77239000D01*
X171327677Y-77258685D01*
X171348319Y-77275319D01*
X171529681Y-77456681D01*
X171563166Y-77518004D01*
X171566000Y-77544362D01*
X171566000Y-84553638D01*
X171546315Y-84620677D01*
X171529681Y-84641319D01*
X170332319Y-85838681D01*
X170270996Y-85872166D01*
X170244638Y-85875000D01*
X168315362Y-85875000D01*
X168248323Y-85855315D01*
X168227681Y-85838681D01*
X167792319Y-85403319D01*
X167758834Y-85341996D01*
X167756000Y-85315638D01*
X167756000Y-74242362D01*
X167775685Y-74175323D01*
X167792319Y-74154681D01*
X167973681Y-73973319D01*
X168035004Y-73939834D01*
X168061362Y-73937000D01*
X169228638Y-73937000D01*
X169295677Y-73956685D01*
G37*
%TD.AperFunction*%
%TD*%
%TA.AperFunction,Conductor*%
%TO.N,/System overview/Block diagram/BOOT0*%
G36*
X137297708Y-61948450D02*
G01*
X137580550Y-62231292D01*
X137925421Y-61886421D01*
X137984000Y-61745000D01*
X138180677Y-61541381D01*
X137784000Y-61231722D01*
X137387323Y-61541381D01*
X137584000Y-61745000D01*
X137297708Y-61948450D01*
G37*
%TD.AperFunction*%
%TD*%
%TA.AperFunction,Conductor*%
%TO.N,/System overview/Block diagram/NRST*%
G36*
X128840000Y-62634000D02*
G01*
X129240000Y-62634000D01*
X129290000Y-62259000D01*
X129040000Y-61633000D01*
X128790000Y-62259000D01*
X128840000Y-62634000D01*
G37*
%TD.AperFunction*%
%TD*%
%TA.AperFunction,Conductor*%
%TO.N,/System overview/Block diagram/S3V3*%
G36*
X115232000Y-82670000D02*
G01*
X115632000Y-82670000D01*
X115888921Y-82048387D01*
X115432000Y-81706500D01*
X114975079Y-82048387D01*
X115232000Y-82670000D01*
G37*
%TD.AperFunction*%
%TD*%
%TA.AperFunction,Conductor*%
%TO.N,/System overview/Block diagram/GND*%
G36*
X145604000Y-52003567D02*
G01*
X145204000Y-52003567D01*
X145106567Y-52561842D01*
X145404000Y-52604567D01*
X145701433Y-52561842D01*
X145604000Y-52003567D01*
G37*
%TD.AperFunction*%
%TD*%
%TA.AperFunction,Conductor*%
%TO.N,/System overview/Block diagram/ENCb*%
G36*
X140421000Y-43657000D02*
G01*
X140421000Y-43257000D01*
X139799387Y-43000079D01*
X139407500Y-43457000D01*
X139799387Y-43913921D01*
X140421000Y-43657000D01*
G37*
%TD.AperFunction*%
%TD*%
%TA.AperFunction,Conductor*%
%TO.N,/System overview/Block diagram/DISP_DC*%
G36*
X123465000Y-62809000D02*
G01*
X123465000Y-63209000D01*
X123840000Y-63259000D01*
X124466000Y-63009000D01*
X123840000Y-62759000D01*
X123465000Y-62809000D01*
G37*
%TD.AperFunction*%
%TD*%
%TA.AperFunction,Conductor*%
%TO.N,/System overview/Block diagram/NRST*%
G36*
X129240000Y-60634000D02*
G01*
X128840000Y-60634000D01*
X128790000Y-61009000D01*
X129040000Y-61635000D01*
X129290000Y-61009000D01*
X129240000Y-60634000D01*
G37*
%TD.AperFunction*%
%TD*%
%TA.AperFunction,Conductor*%
%TO.N,/System overview/Block diagram/USB_DM*%
G36*
X128840000Y-70984000D02*
G01*
X129240000Y-70984000D01*
X129290000Y-70609000D01*
X129040000Y-69983000D01*
X128790000Y-70609000D01*
X128840000Y-70984000D01*
G37*
%TD.AperFunction*%
%TD*%
%TA.AperFunction,Conductor*%
%TO.N,/System overview/Block diagram/SEL0*%
G36*
X127240000Y-62634000D02*
G01*
X127640000Y-62634000D01*
X127690000Y-62259000D01*
X127440000Y-61633000D01*
X127190000Y-62259000D01*
X127240000Y-62634000D01*
G37*
%TD.AperFunction*%
%TD*%
%TA.AperFunction,Conductor*%
%TO.N,Net-(JP19-Pad1)*%
G36*
X120832000Y-49202500D02*
G01*
X120832000Y-49602500D01*
X121453613Y-49871921D01*
X121783000Y-49402500D01*
X121453613Y-48933079D01*
X120832000Y-49202500D01*
G37*
%TD.AperFunction*%
%TD*%
%TA.AperFunction,Conductor*%
%TO.N,/System overview/Block diagram/D-'*%
G36*
X130007432Y-79231253D02*
G01*
X129441747Y-78665568D01*
X129373157Y-78734157D01*
X129256000Y-79017000D01*
X129181000Y-79632500D01*
X129656000Y-79883500D01*
X130131000Y-79632500D01*
X130056000Y-79017000D01*
X129938843Y-79299843D01*
X130007432Y-79231253D01*
G37*
%TD.AperFunction*%
%TD*%
%TA.AperFunction,Conductor*%
%TO.N,/System overview/Block diagram/RT*%
G36*
X158546000Y-72970500D02*
G01*
X158546000Y-72570500D01*
X157924387Y-72301079D01*
X157595000Y-72770500D01*
X157924387Y-73239921D01*
X158546000Y-72970500D01*
G37*
%TD.AperFunction*%
%TD*%
%TA.AperFunction,Conductor*%
%TO.N,/System overview/Block diagram/GND*%
G36*
X131126000Y-74631000D02*
G01*
X130726000Y-74631000D01*
X130637418Y-75023597D01*
X130926000Y-75594500D01*
X131214582Y-75023597D01*
X131126000Y-74631000D01*
G37*
%TD.AperFunction*%
%TD*%
%TA.AperFunction,Conductor*%
%TO.N,Net-(J3-Pin_5)*%
G36*
X107325907Y-72237000D02*
G01*
X107325907Y-71837000D01*
X106030687Y-71287367D01*
X105624907Y-72037000D01*
X106030687Y-72786633D01*
X107325907Y-72237000D01*
G37*
%TD.AperFunction*%
%TD*%
%TA.AperFunction,Conductor*%
%TO.N,/System overview/Block diagram/XIN*%
G36*
X131501270Y-58092887D02*
G01*
X131784113Y-58375730D01*
X132659228Y-57889522D01*
X132373957Y-57503043D01*
X131759000Y-57446248D01*
X131501270Y-58092887D01*
G37*
%TD.AperFunction*%
%TD*%
%TA.AperFunction,Conductor*%
%TO.N,/System overview/Block diagram/GND*%
G36*
X173613677Y-57446685D02*
G01*
X173634319Y-57463319D01*
X174577681Y-58406681D01*
X174611166Y-58468004D01*
X174614000Y-58494362D01*
X174614000Y-62963638D01*
X174594315Y-63030677D01*
X174577681Y-63051319D01*
X173634319Y-63994681D01*
X173572996Y-64028166D01*
X173546638Y-64031000D01*
X169585362Y-64031000D01*
X169518323Y-64011315D01*
X169497681Y-63994681D01*
X168554319Y-63051319D01*
X168520834Y-62989996D01*
X168518000Y-62963638D01*
X168518000Y-58494362D01*
X168537685Y-58427323D01*
X168554319Y-58406681D01*
X169497681Y-57463319D01*
X169559004Y-57429834D01*
X169585362Y-57427000D01*
X173546638Y-57427000D01*
X173613677Y-57446685D01*
G37*
%TD.AperFunction*%
%TD*%
%TA.AperFunction,Conductor*%
%TO.N,Net-(J5-VBUS-PadA4)*%
G36*
X137550278Y-88061000D02*
G01*
X137550278Y-88261000D01*
X138354658Y-88622940D01*
X138551278Y-88161000D01*
X138354658Y-87699060D01*
X137550278Y-88061000D01*
G37*
%TD.AperFunction*%
%TD*%
%TA.AperFunction,Conductor*%
%TO.N,/System overview/Block diagram/ENCb_filt*%
G36*
X139242839Y-56505003D02*
G01*
X138959997Y-56222161D01*
X138192447Y-56819447D01*
X138393605Y-57071395D01*
X138984801Y-56933306D01*
X139242839Y-56505003D01*
G37*
%TD.AperFunction*%
%TD*%
%TA.AperFunction,Conductor*%
%TO.N,/System overview/Block diagram/GND*%
G36*
X122864000Y-70842500D02*
G01*
X122864000Y-71242500D01*
X123419131Y-71517500D01*
X123815000Y-71042500D01*
X123419131Y-70567500D01*
X122864000Y-70842500D01*
G37*
%TD.AperFunction*%
%TD*%
%TA.AperFunction,Conductor*%
%TO.N,/System overview/Block diagram/RT*%
G36*
X158920000Y-71884722D02*
G01*
X159320000Y-71884722D01*
X159581940Y-71080342D01*
X159120000Y-70883722D01*
X158658060Y-71080342D01*
X158920000Y-71884722D01*
G37*
%TD.AperFunction*%
%TD*%
%TA.AperFunction,Conductor*%
%TO.N,/System overview/Block diagram/BOT_EOT*%
G36*
X116585074Y-80749731D02*
G01*
X116302231Y-81032574D01*
X116735000Y-81854252D01*
X117210707Y-81658207D01*
X117344252Y-81120000D01*
X116585074Y-80749731D01*
G37*
%TD.AperFunction*%
%TD*%
%TA.AperFunction,Conductor*%
%TO.N,/System overview/Block diagram/S3V3*%
G36*
X132607000Y-61037000D02*
G01*
X132607000Y-61437000D01*
X133228613Y-61693921D01*
X133620500Y-61237000D01*
X133228613Y-60780079D01*
X132607000Y-61037000D01*
G37*
%TD.AperFunction*%
%TD*%
%TA.AperFunction,Conductor*%
%TO.N,/System overview/Block diagram/GND*%
G36*
X120204000Y-55559567D02*
G01*
X119804000Y-55559567D01*
X119706567Y-56117842D01*
X120004000Y-56160567D01*
X120301433Y-56117842D01*
X120204000Y-55559567D01*
G37*
%TD.AperFunction*%
%TD*%
%TA.AperFunction,Conductor*%
%TO.N,/System overview/Block diagram/S19V5*%
G36*
X161612737Y-70231947D02*
G01*
X161047053Y-69666263D01*
X161022657Y-69690657D01*
X160905500Y-69973500D01*
X160830500Y-70494131D01*
X161305500Y-70890000D01*
X161780500Y-70494131D01*
X161705500Y-69973500D01*
X161588343Y-70256343D01*
X161612737Y-70231947D01*
G37*
%TD.AperFunction*%
%TD*%
%TA.AperFunction,Conductor*%
%TO.N,/System overview/Block diagram/MOT_CS*%
G36*
X120954000Y-53387500D02*
G01*
X120954000Y-52987500D01*
X120332387Y-52743079D01*
X120003000Y-53187500D01*
X120454832Y-53662500D01*
X120954000Y-53387500D01*
G37*
%TD.AperFunction*%
%TD*%
%TA.AperFunction,Conductor*%
%TO.N,/System overview/Block diagram/CS'*%
G36*
X142666000Y-54833000D02*
G01*
X142666000Y-54433000D01*
X142011027Y-53983000D01*
X141365000Y-54633000D01*
X142011027Y-55283000D01*
X142666000Y-54833000D01*
G37*
%TD.AperFunction*%
%TD*%
%TA.AperFunction,Conductor*%
%TO.N,/System overview/Block diagram/MOT_CS*%
G36*
X119804000Y-52190000D02*
G01*
X120204000Y-52190000D01*
X120460921Y-51568387D01*
X120004000Y-51226500D01*
X119547079Y-51568387D01*
X119804000Y-52190000D01*
G37*
%TD.AperFunction*%
%TD*%
%TA.AperFunction,Conductor*%
%TO.N,/System overview/Block diagram/MOT_CS*%
G36*
X118967722Y-51531000D02*
G01*
X118967722Y-51131000D01*
X118163342Y-50869060D01*
X117966722Y-51331000D01*
X118163342Y-51792940D01*
X118967722Y-51531000D01*
G37*
%TD.AperFunction*%
%TD*%
%TA.AperFunction,Conductor*%
%TO.N,/System overview/Block diagram/S3V3*%
G36*
X151731300Y-43257093D02*
G01*
X150931300Y-43257093D01*
X150517901Y-44706258D01*
X151331300Y-45079000D01*
X152144699Y-44706258D01*
X151731300Y-43257093D01*
G37*
%TD.AperFunction*%
%TD*%
%TA.AperFunction,Conductor*%
%TO.N,/System overview/Block diagram/TOP_filt*%
G36*
X122998000Y-76751278D02*
G01*
X122598000Y-76751278D01*
X122336060Y-77555658D01*
X122798000Y-77752278D01*
X123259940Y-77555658D01*
X122998000Y-76751278D01*
G37*
%TD.AperFunction*%
%TD*%
%TA.AperFunction,Conductor*%
%TO.N,/System overview/Block diagram/MOT_CS*%
G36*
X122598000Y-54225000D02*
G01*
X122998000Y-54225000D01*
X123086582Y-53832403D01*
X122798000Y-53186500D01*
X122509418Y-53832403D01*
X122598000Y-54225000D01*
G37*
%TD.AperFunction*%
%TD*%
%TA.AperFunction,Conductor*%
%TO.N,Net-(J3-Pin_11)*%
G36*
X107913823Y-56991981D02*
G01*
X107630981Y-57274823D01*
X107670579Y-57314421D01*
X107812000Y-57373000D01*
X108410973Y-57823000D01*
X109057000Y-57173000D01*
X108410973Y-56523000D01*
X107812000Y-56973000D01*
X107953421Y-57031579D01*
X107913823Y-56991981D01*
G37*
%TD.AperFunction*%
%TD*%
%TA.AperFunction,Conductor*%
%TO.N,/System overview/Block diagram/ENCb_filt*%
G36*
X133815000Y-64809000D02*
G01*
X133815000Y-64409000D01*
X133440000Y-64359000D01*
X132814000Y-64609000D01*
X133440000Y-64859000D01*
X133815000Y-64809000D01*
G37*
%TD.AperFunction*%
%TD*%
%TA.AperFunction,Conductor*%
%TO.N,/System overview/Block diagram/S3V3_A*%
G36*
X120943267Y-69158892D02*
G01*
X121226108Y-69441733D01*
X121314921Y-69352921D01*
X121173500Y-69411500D01*
X121603031Y-69686500D01*
X121998900Y-69211500D01*
X121603031Y-68736500D01*
X121173500Y-69011500D01*
X121032079Y-69070079D01*
X120943267Y-69158892D01*
G37*
%TD.AperFunction*%
%TD*%
%TA.AperFunction,Conductor*%
%TO.N,/System overview/Block diagram/S3V3*%
G36*
X128675789Y-81042054D02*
G01*
X128392946Y-80759211D01*
X127549613Y-81238079D01*
X127802043Y-81632957D01*
X128353000Y-81753752D01*
X128675789Y-81042054D01*
G37*
%TD.AperFunction*%
%TD*%
%TA.AperFunction,Conductor*%
%TO.N,/System overview/Block diagram/S3V3*%
G36*
X121080566Y-72594290D02*
G01*
X121091810Y-72994131D01*
X121657348Y-73253336D01*
X122037000Y-72767472D01*
X121627734Y-72303793D01*
X121080566Y-72594290D01*
G37*
%TD.AperFunction*%
%TD*%
%TA.AperFunction,Conductor*%
%TO.N,/System overview/Block diagram/GND*%
G36*
X124014000Y-70030000D02*
G01*
X123614000Y-70030000D01*
X123357079Y-70651613D01*
X123814000Y-71043500D01*
X124270921Y-70651613D01*
X124014000Y-70030000D01*
G37*
%TD.AperFunction*%
%TD*%
%TA.AperFunction,Conductor*%
%TO.N,/System overview/Block diagram/ENCb*%
G36*
X142711748Y-43675605D02*
G01*
X142428905Y-43958448D01*
X143017901Y-45449742D01*
X143832007Y-45078707D01*
X144078042Y-44139601D01*
X142711748Y-43675605D01*
G37*
%TD.AperFunction*%
%TD*%
%TA.AperFunction,Conductor*%
%TO.N,/System overview/Block diagram/D-*%
G36*
X134407767Y-84218172D02*
G01*
X134584543Y-84041396D01*
X134274649Y-83384360D01*
X133859478Y-83493107D01*
X133737330Y-83972000D01*
X134407767Y-84218172D01*
G37*
%TD.AperFunction*%
%TD*%
%TA.AperFunction,Conductor*%
%TO.N,/System overview/Block diagram/3V3_REG*%
G36*
X172890000Y-72900722D02*
G01*
X173290000Y-72900722D01*
X173551940Y-72096342D01*
X173090000Y-71899722D01*
X172628060Y-72096342D01*
X172890000Y-72900722D01*
G37*
%TD.AperFunction*%
%TD*%
%TA.AperFunction,Conductor*%
%TO.N,Net-(J3-Pin_3)*%
G36*
X107316223Y-77185000D02*
G01*
X107316223Y-76785000D01*
X105630000Y-76267000D01*
X105615223Y-76985000D01*
X106245714Y-77703000D01*
X107316223Y-77185000D01*
G37*
%TD.AperFunction*%
%TD*%
%TA.AperFunction,Conductor*%
%TO.N,/System overview/Block diagram/TOP_EOT*%
G36*
X125150000Y-81457500D02*
G01*
X125150000Y-81857500D01*
X125705131Y-82132500D01*
X126101000Y-81657500D01*
X125705131Y-81182500D01*
X125150000Y-81457500D01*
G37*
%TD.AperFunction*%
%TD*%
%TA.AperFunction,Conductor*%
%TO.N,/System overview/Block diagram/DISP_MISO*%
G36*
X110960000Y-61049000D02*
G01*
X110760000Y-61049000D01*
X110385000Y-61562533D01*
X110860000Y-62000000D01*
X111225921Y-61670613D01*
X110960000Y-61049000D01*
G37*
%TD.AperFunction*%
%TD*%
%TA.AperFunction,Conductor*%
%TO.N,/System overview/Block diagram/MOT_CS*%
G36*
X128440000Y-60634000D02*
G01*
X128040000Y-60634000D01*
X127990000Y-61009000D01*
X128240000Y-61635000D01*
X128490000Y-61009000D01*
X128440000Y-60634000D01*
G37*
%TD.AperFunction*%
%TD*%
%TA.AperFunction,Conductor*%
%TO.N,/System overview/Block diagram/BOT_EOT*%
G36*
X118038000Y-81457500D02*
G01*
X118038000Y-81857500D01*
X118593131Y-82132500D01*
X118989000Y-81657500D01*
X118659613Y-81238079D01*
X118038000Y-81457500D01*
G37*
%TD.AperFunction*%
%TD*%
%TA.AperFunction,Conductor*%
%TO.N,/System overview/Block diagram/GND*%
G36*
X128484000Y-54533500D02*
G01*
X128484000Y-54933500D01*
X129384000Y-55633500D01*
X130285000Y-54733500D01*
X129538329Y-54290030D01*
X128484000Y-54533500D01*
G37*
%TD.AperFunction*%
%TD*%
%TA.AperFunction,Conductor*%
%TO.N,/System overview/Block diagram/ENCa*%
G36*
X146311769Y-48827574D02*
G01*
X146028926Y-48544731D01*
X145269748Y-48915000D01*
X145403293Y-49453207D01*
X145879000Y-49649251D01*
X146311769Y-48827574D01*
G37*
%TD.AperFunction*%
%TD*%
%TA.AperFunction,Conductor*%
%TO.N,/System overview/Block diagram/FB*%
G36*
X158424000Y-82780500D02*
G01*
X158424000Y-83180500D01*
X158979131Y-83455500D01*
X159375000Y-82980500D01*
X158979131Y-82505500D01*
X158424000Y-82780500D01*
G37*
%TD.AperFunction*%
%TD*%
%TA.AperFunction,Conductor*%
%TO.N,/System overview/Block diagram/XIN*%
G36*
X132130000Y-57271000D02*
G01*
X132530000Y-57271000D01*
X133230000Y-56371000D01*
X132330000Y-55320000D01*
X131703030Y-56216671D01*
X132130000Y-57271000D01*
G37*
%TD.AperFunction*%
%TD*%
%TA.AperFunction,Conductor*%
%TO.N,/System overview/Block diagram/CC1*%
G36*
X133151537Y-85277695D02*
G01*
X132868695Y-85560537D01*
X133473276Y-86084175D01*
X133611863Y-86020863D01*
X133554798Y-85362758D01*
X133151537Y-85277695D01*
G37*
%TD.AperFunction*%
%TD*%
%TA.AperFunction,Conductor*%
%TO.N,/System overview/Block diagram/ENCa_filt*%
G36*
X133815000Y-65609000D02*
G01*
X133815000Y-65209000D01*
X133440000Y-65159000D01*
X132814000Y-65409000D01*
X133440000Y-65659000D01*
X133815000Y-65609000D01*
G37*
%TD.AperFunction*%
%TD*%
%TA.AperFunction,Conductor*%
%TO.N,/System overview/Block diagram/GND*%
G36*
X137629083Y-81352500D02*
G01*
X137629083Y-80952500D01*
X136823342Y-80735060D01*
X136628083Y-81152500D01*
X137132000Y-81652500D01*
X137629083Y-81352500D01*
G37*
%TD.AperFunction*%
%TD*%
%TA.AperFunction,Conductor*%
%TO.N,/System overview/Block diagram/INb'*%
G36*
X147575000Y-62180000D02*
G01*
X147575000Y-62580000D01*
X148000314Y-62692630D01*
X148638500Y-62380000D01*
X148000314Y-62067370D01*
X147575000Y-62180000D01*
G37*
%TD.AperFunction*%
%TD*%
%TA.AperFunction,Conductor*%
%TO.N,Net-(J3-Pin_5)*%
G36*
X116287309Y-68480848D02*
G01*
X116570152Y-68763691D01*
X116911421Y-68422421D01*
X116970000Y-68281000D01*
X117311107Y-67811075D01*
X116770000Y-67362629D01*
X116228893Y-67811075D01*
X116570000Y-68281000D01*
X116287309Y-68480848D01*
G37*
%TD.AperFunction*%
%TD*%
%TA.AperFunction,Conductor*%
%TO.N,/System overview/Block diagram/GND*%
G36*
X130618000Y-56477000D02*
G01*
X130218000Y-56477000D01*
X130052079Y-57098613D01*
X130418000Y-57428000D01*
X130893000Y-56956276D01*
X130618000Y-56477000D01*
G37*
%TD.AperFunction*%
%TD*%
%TA.AperFunction,Conductor*%
%TO.N,/System overview/Block diagram/S3V3*%
G36*
X122864000Y-72617500D02*
G01*
X122864000Y-73017500D01*
X123485613Y-73286921D01*
X123815000Y-72817500D01*
X123379872Y-72342500D01*
X122864000Y-72617500D01*
G37*
%TD.AperFunction*%
%TD*%
%TA.AperFunction,Conductor*%
%TO.N,/System overview/Block diagram/D-*%
G36*
X134537604Y-83994457D02*
G01*
X134360828Y-84171233D01*
X134689351Y-84809640D01*
X135085893Y-84719522D01*
X135189412Y-84222000D01*
X134537604Y-83994457D01*
G37*
%TD.AperFunction*%
%TD*%
%TA.AperFunction,Conductor*%
%TO.N,/System overview/Block diagram/GND*%
G36*
X136867433Y-43657000D02*
G01*
X136867433Y-43257000D01*
X136309158Y-43159567D01*
X136266433Y-43457000D01*
X136309158Y-43754433D01*
X136867433Y-43657000D01*
G37*
%TD.AperFunction*%
%TD*%
%TA.AperFunction,Conductor*%
%TO.N,/System overview/Block diagram/S3V3*%
G36*
X122980016Y-72994898D02*
G01*
X122991585Y-72595067D01*
X122444484Y-72304121D01*
X122035000Y-72767471D01*
X122414193Y-73253641D01*
X122980016Y-72994898D01*
G37*
%TD.AperFunction*%
%TD*%
%TA.AperFunction,Conductor*%
%TO.N,/System overview/Block diagram/S3V3*%
G36*
X180181722Y-77693000D02*
G01*
X180181722Y-77293000D01*
X179377342Y-77031060D01*
X179180722Y-77493000D01*
X179377342Y-77954940D01*
X180181722Y-77693000D01*
G37*
%TD.AperFunction*%
%TD*%
%TA.AperFunction,Conductor*%
%TO.N,/System overview/Block diagram/FB*%
G36*
X157396000Y-80799278D02*
G01*
X157796000Y-80799278D01*
X157100278Y-80860263D01*
X157596000Y-80296000D01*
X157100278Y-80860263D01*
X157396000Y-80799278D01*
G37*
%TD.AperFunction*%
%TD*%
%TA.AperFunction,Conductor*%
%TO.N,/System overview/Block diagram/BOT_filt*%
G36*
X120566000Y-78672764D02*
G01*
X120966000Y-78672764D01*
X121012000Y-77747000D01*
X120766000Y-77671764D01*
X120520000Y-78246936D01*
X120566000Y-78672764D01*
G37*
%TD.AperFunction*%
%TD*%
%TA.AperFunction,Conductor*%
%TO.N,/System overview/Block diagram/BOT_filt*%
G36*
X120966000Y-78920000D02*
G01*
X120566000Y-78920000D01*
X120309079Y-79541613D01*
X120766000Y-79933500D01*
X121222921Y-79541613D01*
X120966000Y-78920000D01*
G37*
%TD.AperFunction*%
%TD*%
%TA.AperFunction,Conductor*%
%TO.N,/System overview/Block diagram/FB*%
G36*
X157796000Y-81968000D02*
G01*
X157396000Y-81968000D01*
X157139079Y-82589613D01*
X157596000Y-82931500D01*
X158052921Y-82589613D01*
X157796000Y-81968000D01*
G37*
%TD.AperFunction*%
%TD*%
%TA.AperFunction,Conductor*%
%TO.N,/System overview/Block diagram/TOP_EOT*%
G36*
X126300000Y-84762707D02*
G01*
X125900000Y-84762707D01*
X125250000Y-85442205D01*
X126100000Y-86463707D01*
X126377907Y-86157685D01*
X126300000Y-84762707D01*
G37*
%TD.AperFunction*%
%TD*%
%TA.AperFunction,Conductor*%
%TO.N,/System overview/Block diagram/GND*%
G36*
X173613677Y-47794685D02*
G01*
X173634319Y-47811319D01*
X175593681Y-49770681D01*
X175627166Y-49832004D01*
X175630000Y-49858362D01*
X175630000Y-50771638D01*
X175610315Y-50838677D01*
X175593681Y-50859319D01*
X174904319Y-51548681D01*
X174842996Y-51582166D01*
X174816638Y-51585000D01*
X173879754Y-51585000D01*
X173817754Y-51568387D01*
X173783622Y-51548681D01*
X173733587Y-51519793D01*
X173631727Y-51492500D01*
X173579207Y-51492500D01*
X172794862Y-51492500D01*
X172727823Y-51472815D01*
X172707181Y-51456181D01*
X172618319Y-51367319D01*
X172584834Y-51305996D01*
X172582000Y-51279638D01*
X172582000Y-48334362D01*
X172601685Y-48267323D01*
X172618319Y-48246681D01*
X173053681Y-47811319D01*
X173115004Y-47777834D01*
X173141362Y-47775000D01*
X173546638Y-47775000D01*
X173613677Y-47794685D01*
G37*
%TD.AperFunction*%
%TD*%
%TA.AperFunction,Conductor*%
%TO.N,/System overview/Block diagram/FB*%
G36*
X158901000Y-78215000D02*
G01*
X158901000Y-78615000D01*
X159201000Y-78715000D01*
X159502000Y-78415000D01*
X159201000Y-78115000D01*
X158901000Y-78215000D01*
G37*
%TD.AperFunction*%
%TD*%
%TA.AperFunction,Conductor*%
%TO.N,/System overview/Block diagram/ENCa_filt*%
G36*
X142798000Y-51427500D02*
G01*
X142798000Y-51027500D01*
X142282128Y-50752500D01*
X141847000Y-51227500D01*
X142176387Y-51696921D01*
X142798000Y-51427500D01*
G37*
%TD.AperFunction*%
%TD*%
%TA.AperFunction,Conductor*%
%TO.N,/System overview/Block diagram/GND*%
G36*
X129336000Y-54933500D02*
G01*
X129336000Y-54533500D01*
X128780869Y-54258500D01*
X128385000Y-54733500D01*
X128780869Y-55208500D01*
X129336000Y-54933500D01*
G37*
%TD.AperFunction*%
%TD*%
%TA.AperFunction,Conductor*%
%TO.N,/System overview/Block diagram/XOUT*%
G36*
X128484000Y-52808500D02*
G01*
X128484000Y-53208500D01*
X129538329Y-53451970D01*
X130285000Y-53008500D01*
X129384000Y-52108500D01*
X128484000Y-52808500D01*
G37*
%TD.AperFunction*%
%TD*%
%TA.AperFunction,Conductor*%
%TO.N,/System overview/Block diagram/GND_2*%
G36*
X185779054Y-74705921D02*
G01*
X185896381Y-74725500D01*
X185896382Y-74725500D01*
X196080000Y-74725500D01*
X196147039Y-74745185D01*
X196192794Y-74797989D01*
X196204000Y-74849500D01*
X196204000Y-90600500D01*
X196184315Y-90667539D01*
X196131511Y-90713294D01*
X196080000Y-90724500D01*
X184136000Y-90724500D01*
X184068961Y-90704815D01*
X184023206Y-90652011D01*
X184012000Y-90600500D01*
X184012000Y-89522828D01*
X184031685Y-89455789D01*
X184038147Y-89446666D01*
X184060545Y-89417889D01*
X184160126Y-89233879D01*
X184228062Y-89035988D01*
X184262500Y-88829614D01*
X184262500Y-88799101D01*
X184262514Y-88798876D01*
X184262500Y-88722561D01*
X184262500Y-88650686D01*
X184262485Y-88650474D01*
X184262465Y-88543162D01*
X184262346Y-87917228D01*
X187532500Y-87917228D01*
X187532500Y-88084771D01*
X187565182Y-88249074D01*
X187565184Y-88249082D01*
X187629295Y-88403860D01*
X187722373Y-88543162D01*
X187840837Y-88661626D01*
X187932033Y-88722561D01*
X187980137Y-88754703D01*
X188134918Y-88818816D01*
X188299228Y-88851499D01*
X188299232Y-88851500D01*
X188299233Y-88851500D01*
X188466768Y-88851500D01*
X188466769Y-88851499D01*
X188631082Y-88818816D01*
X188785863Y-88754703D01*
X188925162Y-88661626D01*
X189043626Y-88543162D01*
X189136703Y-88403863D01*
X189200816Y-88249082D01*
X189233500Y-88084767D01*
X189233500Y-87917233D01*
X189233499Y-87917228D01*
X190982500Y-87917228D01*
X190982500Y-88084771D01*
X191015182Y-88249074D01*
X191015184Y-88249082D01*
X191079295Y-88403860D01*
X191172373Y-88543162D01*
X191290837Y-88661626D01*
X191382033Y-88722561D01*
X191430137Y-88754703D01*
X191584918Y-88818816D01*
X191749228Y-88851499D01*
X191749232Y-88851500D01*
X191749233Y-88851500D01*
X191916768Y-88851500D01*
X191916769Y-88851499D01*
X192081082Y-88818816D01*
X192235863Y-88754703D01*
X192375162Y-88661626D01*
X192493626Y-88543162D01*
X192586703Y-88403863D01*
X192650816Y-88249082D01*
X192683500Y-88084767D01*
X192683500Y-87917233D01*
X192650816Y-87752918D01*
X192586703Y-87598137D01*
X192555537Y-87551494D01*
X192493626Y-87458837D01*
X192375162Y-87340373D01*
X192235860Y-87247295D01*
X192081082Y-87183184D01*
X192081074Y-87183182D01*
X191916771Y-87150500D01*
X191916767Y-87150500D01*
X191749233Y-87150500D01*
X191749228Y-87150500D01*
X191584925Y-87183182D01*
X191584917Y-87183184D01*
X191430139Y-87247295D01*
X191290837Y-87340373D01*
X191172373Y-87458837D01*
X191079295Y-87598139D01*
X191015184Y-87752917D01*
X191015182Y-87752925D01*
X190982500Y-87917228D01*
X189233499Y-87917228D01*
X189200816Y-87752918D01*
X189136703Y-87598137D01*
X189105537Y-87551494D01*
X189043626Y-87458837D01*
X188925162Y-87340373D01*
X188785860Y-87247295D01*
X188631082Y-87183184D01*
X188631074Y-87183182D01*
X188466771Y-87150500D01*
X188466767Y-87150500D01*
X188299233Y-87150500D01*
X188299228Y-87150500D01*
X188134925Y-87183182D01*
X188134917Y-87183184D01*
X187980139Y-87247295D01*
X187840837Y-87340373D01*
X187722373Y-87458837D01*
X187629295Y-87598139D01*
X187565184Y-87752917D01*
X187565182Y-87752925D01*
X187532500Y-87917228D01*
X184262346Y-87917228D01*
X184260522Y-78347530D01*
X185782500Y-78347530D01*
X185782500Y-78554469D01*
X185822868Y-78757412D01*
X185822870Y-78757420D01*
X185902058Y-78948596D01*
X186017024Y-79120657D01*
X186163342Y-79266975D01*
X186163345Y-79266977D01*
X186335402Y-79381941D01*
X186526580Y-79461130D01*
X186729530Y-79501499D01*
X186729534Y-79501500D01*
X186729535Y-79501500D01*
X187936466Y-79501500D01*
X187936467Y-79501499D01*
X188139420Y-79461130D01*
X188330598Y-79381941D01*
X188502655Y-79266977D01*
X188648977Y-79120655D01*
X188763941Y-78948598D01*
X188843130Y-78757420D01*
X188848883Y-78728500D01*
X188881268Y-78666589D01*
X188941983Y-78632015D01*
X189011753Y-78635754D01*
X189068425Y-78676620D01*
X189092117Y-78728500D01*
X189097868Y-78757412D01*
X189097870Y-78757420D01*
X189177058Y-78948596D01*
X189292024Y-79120657D01*
X189438342Y-79266975D01*
X189438345Y-79266977D01*
X189610402Y-79381941D01*
X189801580Y-79461130D01*
X190004530Y-79501499D01*
X190004534Y-79501500D01*
X190004535Y-79501500D01*
X190211466Y-79501500D01*
X190211467Y-79501499D01*
X190414420Y-79461130D01*
X190605598Y-79381941D01*
X190777655Y-79266977D01*
X190923977Y-79120655D01*
X191038941Y-78948598D01*
X191118130Y-78757420D01*
X191123883Y-78728500D01*
X191156268Y-78666589D01*
X191216983Y-78632015D01*
X191286753Y-78635754D01*
X191343425Y-78676620D01*
X191367117Y-78728500D01*
X191372868Y-78757412D01*
X191372870Y-78757420D01*
X191452058Y-78948596D01*
X191567024Y-79120657D01*
X191713342Y-79266975D01*
X191713345Y-79266977D01*
X191885402Y-79381941D01*
X192076580Y-79461130D01*
X192279530Y-79501499D01*
X192279534Y-79501500D01*
X192279535Y-79501500D01*
X193486466Y-79501500D01*
X193486467Y-79501499D01*
X193689420Y-79461130D01*
X193880598Y-79381941D01*
X194052655Y-79266977D01*
X194198977Y-79120655D01*
X194313941Y-78948598D01*
X194393130Y-78757420D01*
X194433500Y-78554465D01*
X194433500Y-78347535D01*
X194393130Y-78144580D01*
X194313941Y-77953402D01*
X194198977Y-77781345D01*
X194198975Y-77781342D01*
X194052657Y-77635024D01*
X193966626Y-77577541D01*
X193880598Y-77520059D01*
X193689420Y-77440870D01*
X193689412Y-77440868D01*
X193486469Y-77400500D01*
X193486465Y-77400500D01*
X192279535Y-77400500D01*
X192279530Y-77400500D01*
X192076587Y-77440868D01*
X192076579Y-77440870D01*
X191885403Y-77520058D01*
X191713342Y-77635024D01*
X191567024Y-77781342D01*
X191452058Y-77953403D01*
X191372870Y-78144579D01*
X191372868Y-78144585D01*
X191367117Y-78173500D01*
X191334732Y-78235411D01*
X191274016Y-78269985D01*
X191204247Y-78266245D01*
X191147575Y-78225378D01*
X191123883Y-78173500D01*
X191118131Y-78144585D01*
X191118130Y-78144584D01*
X191118130Y-78144580D01*
X191038941Y-77953402D01*
X190923977Y-77781345D01*
X190923975Y-77781342D01*
X190777657Y-77635024D01*
X190691626Y-77577541D01*
X190605598Y-77520059D01*
X190414420Y-77440870D01*
X190414412Y-77440868D01*
X190211469Y-77400500D01*
X190211465Y-77400500D01*
X190004535Y-77400500D01*
X190004530Y-77400500D01*
X189801587Y-77440868D01*
X189801579Y-77440870D01*
X189610403Y-77520058D01*
X189438342Y-77635024D01*
X189292024Y-77781342D01*
X189177058Y-77953403D01*
X189097870Y-78144579D01*
X189097868Y-78144585D01*
X189092117Y-78173500D01*
X189059732Y-78235411D01*
X188999016Y-78269985D01*
X188929247Y-78266245D01*
X188872575Y-78225378D01*
X188848883Y-78173500D01*
X188843131Y-78144585D01*
X188843130Y-78144584D01*
X188843130Y-78144580D01*
X188763941Y-77953402D01*
X188648977Y-77781345D01*
X188648975Y-77781342D01*
X188502657Y-77635024D01*
X188416626Y-77577541D01*
X188330598Y-77520059D01*
X188139420Y-77440870D01*
X188139412Y-77440868D01*
X187936469Y-77400500D01*
X187936465Y-77400500D01*
X186729535Y-77400500D01*
X186729530Y-77400500D01*
X186526587Y-77440868D01*
X186526579Y-77440870D01*
X186335403Y-77520058D01*
X186163342Y-77635024D01*
X186017024Y-77781342D01*
X185902058Y-77953403D01*
X185822870Y-78144579D01*
X185822868Y-78144587D01*
X185782500Y-78347530D01*
X184260522Y-78347530D01*
X184259852Y-74828959D01*
X184279524Y-74761918D01*
X184332319Y-74716153D01*
X184383782Y-74704939D01*
X185758607Y-74704233D01*
X185779054Y-74705921D01*
G37*
%TD.AperFunction*%
%TD*%
%TA.AperFunction,Conductor*%
%TO.N,Net-(J5-VBUS-PadA4)*%
G36*
X134728364Y-81547000D02*
G01*
X134728364Y-81147000D01*
X134044640Y-80954351D01*
X133806000Y-81347000D01*
X134044640Y-81739649D01*
X134728364Y-81547000D01*
G37*
%TD.AperFunction*%
%TD*%
%TA.AperFunction,Conductor*%
%TO.N,/System overview/Block diagram/DISP_DC*%
G36*
X117867567Y-63209000D02*
G01*
X117867567Y-62809000D01*
X117633421Y-62867579D01*
X117439858Y-62083801D01*
X116766909Y-62283909D01*
X116566801Y-62956858D01*
X117350579Y-63150421D01*
X117492000Y-63209000D01*
X117867567Y-63209000D01*
G37*
%TD.AperFunction*%
%TD*%
%TA.AperFunction,Conductor*%
%TO.N,/System overview/Block diagram/SWDIO*%
G36*
X130440000Y-70984000D02*
G01*
X130840000Y-70984000D01*
X130890000Y-70609000D01*
X130640000Y-69983000D01*
X130390000Y-70609000D01*
X130440000Y-70984000D01*
G37*
%TD.AperFunction*%
%TD*%
%TA.AperFunction,Conductor*%
%TO.N,/System overview/Block diagram/BOT_EOT*%
G36*
X118160000Y-81857500D02*
G01*
X118160000Y-81457500D01*
X117604869Y-81182500D01*
X117209000Y-81657500D01*
X117604869Y-82132500D01*
X118160000Y-81857500D01*
G37*
%TD.AperFunction*%
%TD*%
%TA.AperFunction,Conductor*%
%TO.N,/System overview/Block diagram/GND*%
G36*
X129999433Y-57627000D02*
G01*
X129999433Y-57227000D01*
X129441158Y-57129567D01*
X129398433Y-57427000D01*
X129441158Y-57724433D01*
X129999433Y-57627000D01*
G37*
%TD.AperFunction*%
%TD*%
%TA.AperFunction,Conductor*%
%TO.N,Net-(J3-Pin_10)*%
G36*
X107756000Y-59513000D02*
G01*
X107756000Y-59913000D01*
X108410973Y-60363000D01*
X109057000Y-59713000D01*
X108410973Y-59063000D01*
X107756000Y-59513000D01*
G37*
%TD.AperFunction*%
%TD*%
%TA.AperFunction,Conductor*%
%TO.N,Net-(U1-BOOT)*%
G36*
X161841000Y-79490000D02*
G01*
X162241000Y-79490000D01*
X162341000Y-79190000D01*
X162041000Y-78414000D01*
X161741000Y-79190000D01*
X161841000Y-79490000D01*
G37*
%TD.AperFunction*%
%TD*%
%TA.AperFunction,Conductor*%
%TO.N,Net-(JP19-Pad1)*%
G36*
X138466000Y-53108000D02*
G01*
X138066000Y-53108000D01*
X137635030Y-53912329D01*
X138266000Y-54634000D01*
X138896970Y-53912329D01*
X138466000Y-53108000D01*
G37*
%TD.AperFunction*%
%TD*%
%TA.AperFunction,Conductor*%
%TO.N,/System overview/Block diagram/DISP_MOSI*%
G36*
X123465000Y-65209000D02*
G01*
X123465000Y-65609000D01*
X123840000Y-65659000D01*
X124466000Y-65409000D01*
X123840000Y-65159000D01*
X123465000Y-65209000D01*
G37*
%TD.AperFunction*%
%TD*%
%TA.AperFunction,Conductor*%
%TO.N,/System overview/Block diagram/GND*%
G36*
X141175433Y-49499000D02*
G01*
X141175433Y-49099000D01*
X140617158Y-49001567D01*
X140574433Y-49299000D01*
X140617158Y-49596433D01*
X141175433Y-49499000D01*
G37*
%TD.AperFunction*%
%TD*%
%TA.AperFunction,Conductor*%
%TO.N,/System overview/Block diagram/BOT_filt*%
G36*
X119816000Y-79682500D02*
G01*
X119816000Y-80082500D01*
X120331872Y-80357500D01*
X120767000Y-79882500D01*
X120437613Y-79413079D01*
X119816000Y-79682500D01*
G37*
%TD.AperFunction*%
%TD*%
%TA.AperFunction,Conductor*%
%TO.N,/System overview/Block diagram/INa'*%
G36*
X147575000Y-58370000D02*
G01*
X147575000Y-58770000D01*
X148000314Y-58882630D01*
X148638500Y-58570000D01*
X148000314Y-58257370D01*
X147575000Y-58370000D01*
G37*
%TD.AperFunction*%
%TD*%
%TA.AperFunction,Conductor*%
%TO.N,/System overview/Block diagram/GND*%
G36*
X135144500Y-60409000D02*
G01*
X135544500Y-60409000D01*
X135819500Y-59853868D01*
X135344500Y-59458000D01*
X134869500Y-59853868D01*
X135144500Y-60409000D01*
G37*
%TD.AperFunction*%
%TD*%
%TA.AperFunction,Conductor*%
%TO.N,/System overview/Block diagram/PG*%
G36*
X160590000Y-80009698D02*
G01*
X160190000Y-80009698D01*
X160248579Y-80145579D01*
X159690658Y-80333060D01*
X159878269Y-80798731D01*
X160343940Y-80986342D01*
X160531421Y-80428421D01*
X160590000Y-80287000D01*
X160590000Y-80009698D01*
G37*
%TD.AperFunction*%
%TD*%
%TA.AperFunction,Conductor*%
%TO.N,/System overview/Block diagram/NRST*%
G36*
X137001722Y-72867000D02*
G01*
X137001722Y-72467000D01*
X136197342Y-72205060D01*
X136000722Y-72667000D01*
X136197342Y-73128940D01*
X137001722Y-72867000D01*
G37*
%TD.AperFunction*%
%TD*%
%TA.AperFunction,Conductor*%
%TO.N,/System overview/Block diagram/S3V3*%
G36*
X105017646Y-83560511D02*
G01*
X105300489Y-83843354D01*
X105771421Y-83372421D01*
X105830000Y-83231000D01*
X106480000Y-83047000D01*
X105630000Y-82196000D01*
X104780000Y-83047000D01*
X105430000Y-83231000D01*
X105017646Y-83560511D01*
G37*
%TD.AperFunction*%
%TD*%
%TA.AperFunction,Conductor*%
%TO.N,/System overview/Block diagram/DISP_SCK*%
G36*
X111956000Y-61238000D02*
G01*
X112356000Y-61238000D01*
X112786970Y-60433671D01*
X112156000Y-59712000D01*
X111525030Y-60433671D01*
X111956000Y-61238000D01*
G37*
%TD.AperFunction*%
%TD*%
%TA.AperFunction,Conductor*%
%TO.N,/System overview/Block diagram/PG*%
G36*
X160564525Y-79321633D02*
G01*
X160847367Y-79604475D01*
X160912421Y-79539421D01*
X160971000Y-79398000D01*
X161071000Y-79190000D01*
X160771000Y-78414000D01*
X160471000Y-79190000D01*
X160571000Y-79398000D01*
X160629579Y-79256579D01*
X160564525Y-79321633D01*
G37*
%TD.AperFunction*%
%TD*%
%TA.AperFunction,Conductor*%
%TO.N,/System overview/Block diagram/OUTa*%
G36*
X154513740Y-43716021D02*
G01*
X154538984Y-43723434D01*
X154591730Y-43754730D01*
X155007073Y-44170073D01*
X155028223Y-44198325D01*
X155040831Y-44221414D01*
X155056000Y-44280843D01*
X155056000Y-46251000D01*
X156785073Y-47980073D01*
X156806223Y-48008325D01*
X156818831Y-48031414D01*
X156834000Y-48090843D01*
X156834000Y-57103808D01*
X156828976Y-57138745D01*
X156821564Y-57163986D01*
X156790269Y-57216730D01*
X156560686Y-57446312D01*
X156532433Y-57467462D01*
X156503339Y-57483349D01*
X156468103Y-57496135D01*
X156302773Y-57529021D01*
X156302746Y-57529027D01*
X156129776Y-57600672D01*
X156129766Y-57600677D01*
X155974092Y-57704696D01*
X155974082Y-57704705D01*
X155914744Y-57764041D01*
X155877116Y-57789808D01*
X155703419Y-57866437D01*
X155571919Y-57924450D01*
X155521871Y-57935000D01*
X152549298Y-57935000D01*
X152537142Y-57934403D01*
X152525072Y-57933214D01*
X152513035Y-57931428D01*
X152503600Y-57929551D01*
X152489771Y-57926800D01*
X152489770Y-57926799D01*
X152453072Y-57919500D01*
X152453070Y-57919500D01*
X152453069Y-57919500D01*
X152324931Y-57919500D01*
X152324930Y-57919500D01*
X152288228Y-57926800D01*
X152288225Y-57926800D01*
X152264962Y-57931428D01*
X152252927Y-57933214D01*
X152246892Y-57933808D01*
X152240856Y-57934403D01*
X152228701Y-57935000D01*
X146997192Y-57935000D01*
X146962256Y-57929977D01*
X146937014Y-57922565D01*
X146884269Y-57891269D01*
X146214926Y-57221926D01*
X146193774Y-57193670D01*
X146181167Y-57170581D01*
X146166000Y-57111156D01*
X146166000Y-53160360D01*
X147434500Y-53160360D01*
X147434500Y-56359639D01*
X147435963Y-56386934D01*
X147435967Y-56386988D01*
X147438797Y-56413310D01*
X147438798Y-56413312D01*
X147468586Y-56508441D01*
X147468590Y-56508451D01*
X147502068Y-56569761D01*
X147502073Y-56569769D01*
X147545649Y-56627980D01*
X147545665Y-56627998D01*
X147727000Y-56809332D01*
X147727015Y-56809347D01*
X147747365Y-56827626D01*
X147747371Y-56827631D01*
X147747379Y-56827638D01*
X147768000Y-56844255D01*
X147768002Y-56844256D01*
X147768007Y-56844260D01*
X147856338Y-56890465D01*
X147923377Y-56910150D01*
X147923381Y-56910150D01*
X147923383Y-56910151D01*
X147935014Y-56911823D01*
X147995362Y-56920500D01*
X147995363Y-56920500D01*
X155004638Y-56920500D01*
X155004639Y-56920500D01*
X155006075Y-56920422D01*
X155031952Y-56919036D01*
X155058310Y-56916202D01*
X155153444Y-56886413D01*
X155214767Y-56852928D01*
X155272985Y-56809347D01*
X155454347Y-56627985D01*
X155472626Y-56607635D01*
X155489260Y-56586993D01*
X155535465Y-56498662D01*
X155555150Y-56431623D01*
X155565500Y-56359638D01*
X155565500Y-53160362D01*
X155564036Y-53133048D01*
X155561202Y-53106690D01*
X155531413Y-53011556D01*
X155497928Y-52950233D01*
X155454347Y-52892015D01*
X155454342Y-52892010D01*
X155454334Y-52892001D01*
X154764998Y-52202666D01*
X154764997Y-52202665D01*
X154764985Y-52202653D01*
X154744635Y-52184374D01*
X154744629Y-52184369D01*
X154744620Y-52184361D01*
X154723999Y-52167744D01*
X154723996Y-52167742D01*
X154723993Y-52167740D01*
X154635662Y-52121535D01*
X154635659Y-52121534D01*
X154568624Y-52101850D01*
X154568616Y-52101848D01*
X154496639Y-52091500D01*
X154496638Y-52091500D01*
X148503362Y-52091500D01*
X148503361Y-52091500D01*
X148476065Y-52092963D01*
X148476060Y-52092963D01*
X148476048Y-52092964D01*
X148476040Y-52092964D01*
X148476011Y-52092967D01*
X148449689Y-52095797D01*
X148449687Y-52095798D01*
X148354558Y-52125586D01*
X148354548Y-52125590D01*
X148293238Y-52159068D01*
X148293230Y-52159073D01*
X148235019Y-52202649D01*
X148235001Y-52202665D01*
X147545666Y-52892001D01*
X147545638Y-52892031D01*
X147527361Y-52912379D01*
X147510744Y-52933000D01*
X147510740Y-52933005D01*
X147510740Y-52933007D01*
X147501727Y-52950238D01*
X147464534Y-53021340D01*
X147444850Y-53088375D01*
X147444848Y-53088383D01*
X147434500Y-53160360D01*
X146166000Y-53160360D01*
X146166000Y-51908191D01*
X146171022Y-51873258D01*
X146178434Y-51848013D01*
X146209728Y-51795271D01*
X151451076Y-46553923D01*
X151479326Y-46532775D01*
X151502418Y-46520167D01*
X151561843Y-46505000D01*
X152008000Y-46505000D01*
X152516000Y-45997000D01*
X152516000Y-44288191D01*
X152521022Y-44253258D01*
X152528434Y-44228013D01*
X152559728Y-44175271D01*
X152975076Y-43759923D01*
X153003326Y-43738775D01*
X153026418Y-43726167D01*
X153085843Y-43711000D01*
X154478808Y-43711000D01*
X154513740Y-43716021D01*
G37*
%TD.AperFunction*%
%TD*%
%TA.AperFunction,Conductor*%
%TO.N,/System overview/Block diagram/GND*%
G36*
X145204000Y-52190000D02*
G01*
X145604000Y-52190000D01*
X145860921Y-51568387D01*
X145404000Y-51176500D01*
X144947079Y-51568387D01*
X145204000Y-52190000D01*
G37*
%TD.AperFunction*%
%TD*%
%TA.AperFunction,Conductor*%
%TO.N,/System overview/Block diagram/PWM'*%
G36*
X153300000Y-62180000D02*
G01*
X153300000Y-62580000D01*
X153725314Y-62692630D01*
X154363500Y-62380000D01*
X153725314Y-62067370D01*
X153300000Y-62180000D01*
G37*
%TD.AperFunction*%
%TD*%
%TA.AperFunction,Conductor*%
%TO.N,/System overview/Block diagram/GND*%
G36*
X132250000Y-51166433D02*
G01*
X132650000Y-51166433D01*
X132747433Y-50608158D01*
X132450000Y-50565433D01*
X132152567Y-50608158D01*
X132250000Y-51166433D01*
G37*
%TD.AperFunction*%
%TD*%
%TA.AperFunction,Conductor*%
%TO.N,/System overview/Block diagram/GND*%
G36*
X136671000Y-43257000D02*
G01*
X136671000Y-43657000D01*
X137292613Y-43913921D01*
X137684500Y-43457000D01*
X137292613Y-43000079D01*
X136671000Y-43257000D01*
G37*
%TD.AperFunction*%
%TD*%
%TA.AperFunction,Conductor*%
%TO.N,/System overview/Block diagram/GND*%
G36*
X133815000Y-63209000D02*
G01*
X133815000Y-62809000D01*
X133440000Y-62759000D01*
X132814000Y-63009000D01*
X133440000Y-63259000D01*
X133815000Y-63209000D01*
G37*
%TD.AperFunction*%
%TD*%
%TA.AperFunction,Conductor*%
%TO.N,Net-(J3-Pin_9)*%
G36*
X107969000Y-61799000D02*
G01*
X107969000Y-62199000D01*
X108590613Y-62455921D01*
X108932500Y-61999000D01*
X108590613Y-61542079D01*
X107969000Y-61799000D01*
G37*
%TD.AperFunction*%
%TD*%
%TA.AperFunction,Conductor*%
%TO.N,/System overview/Block diagram/BOOT0*%
G36*
X137984000Y-60241278D02*
G01*
X137584000Y-60241278D01*
X137322060Y-61045658D01*
X137784000Y-61242278D01*
X138245940Y-61045658D01*
X137984000Y-60241278D01*
G37*
%TD.AperFunction*%
%TD*%
%TA.AperFunction,Conductor*%
%TO.N,/System overview/Block diagram/S19V5*%
G36*
X167032500Y-69954300D02*
G01*
X167032500Y-69154300D01*
X166215671Y-68937030D01*
X165469000Y-69554300D01*
X166226402Y-70216800D01*
X167032500Y-69954300D01*
G37*
%TD.AperFunction*%
%TD*%
%TA.AperFunction,Conductor*%
%TO.N,/System overview/Block diagram/PWM'*%
G36*
X145966000Y-64827578D02*
G01*
X146366000Y-64827578D01*
X146562578Y-64083210D01*
X146166000Y-64026578D01*
X145769422Y-64083210D01*
X145966000Y-64827578D01*
G37*
%TD.AperFunction*%
%TD*%
%TA.AperFunction,Conductor*%
%TO.N,/System overview/Block diagram/GND*%
G36*
X136857433Y-47213000D02*
G01*
X136857433Y-46813000D01*
X136299158Y-46715567D01*
X136256433Y-47013000D01*
X136299158Y-47310433D01*
X136857433Y-47213000D01*
G37*
%TD.AperFunction*%
%TD*%
%TA.AperFunction,Conductor*%
%TO.N,/System overview/Block diagram/GND*%
G36*
X124377870Y-69591973D02*
G01*
X124095027Y-69309130D01*
X123631372Y-69634994D01*
X123811478Y-69875522D01*
X124052006Y-70055628D01*
X124377870Y-69591973D01*
G37*
%TD.AperFunction*%
%TD*%
%TA.AperFunction,Conductor*%
%TO.N,/System overview/Block diagram/TOP_filt*%
G36*
X123372000Y-79682500D02*
G01*
X123372000Y-80082500D01*
X123993613Y-80351921D01*
X124323000Y-79882500D01*
X123993613Y-79413079D01*
X123372000Y-79682500D01*
G37*
%TD.AperFunction*%
%TD*%
%TA.AperFunction,Conductor*%
%TO.N,/System overview/Block diagram/S3V3*%
G36*
X148252000Y-82997937D02*
G01*
X148652000Y-82997937D01*
X148987014Y-82121162D01*
X148452000Y-81906937D01*
X147979986Y-82121162D01*
X148252000Y-82997937D01*
G37*
%TD.AperFunction*%
%TD*%
%TA.AperFunction,Conductor*%
%TO.N,/System overview/Block diagram/CS'*%
G36*
X152810844Y-59274687D02*
G01*
X153093687Y-58991844D01*
X152706341Y-58326495D01*
X152385873Y-58566873D01*
X152145495Y-58887341D01*
X152810844Y-59274687D01*
G37*
%TD.AperFunction*%
%TD*%
%TA.AperFunction,Conductor*%
%TO.N,/System overview/Block diagram/BOOT0*%
G36*
X136076454Y-57526297D02*
G01*
X136359297Y-57243454D01*
X136227000Y-56722248D01*
X135545417Y-56712417D01*
X135346562Y-56979438D01*
X136076454Y-57526297D01*
G37*
%TD.AperFunction*%
%TD*%
%TA.AperFunction,Conductor*%
%TO.N,Net-(J3-Pin_4)*%
G36*
X107316223Y-74645000D02*
G01*
X107316223Y-74245000D01*
X105630000Y-73727000D01*
X105615223Y-74445000D01*
X106245714Y-75163000D01*
X107316223Y-74645000D01*
G37*
%TD.AperFunction*%
%TD*%
%TA.AperFunction,Conductor*%
%TO.N,Net-(J5-VBUS-PadA4)*%
G36*
X134235636Y-86647000D02*
G01*
X134235636Y-87047000D01*
X134919360Y-87239649D01*
X135158000Y-86847000D01*
X134919360Y-86454351D01*
X134235636Y-86647000D01*
G37*
%TD.AperFunction*%
%TD*%
%TA.AperFunction,Conductor*%
%TO.N,/System overview/Block diagram/MOT_CS*%
G36*
X119054000Y-51131000D02*
G01*
X119054000Y-51531000D01*
X119675613Y-51696921D01*
X120005000Y-51331000D01*
X119567534Y-50856000D01*
X119054000Y-51131000D01*
G37*
%TD.AperFunction*%
%TD*%
%TA.AperFunction,Conductor*%
%TO.N,/System overview/Block diagram/TCH_IRQ*%
G36*
X126840000Y-60634000D02*
G01*
X126440000Y-60634000D01*
X126390000Y-61009000D01*
X126640000Y-61635000D01*
X126890000Y-61009000D01*
X126840000Y-60634000D01*
G37*
%TD.AperFunction*%
%TD*%
%TA.AperFunction,Conductor*%
%TO.N,/System overview/Block diagram/DISP_RST*%
G36*
X123465000Y-66009000D02*
G01*
X123465000Y-66409000D01*
X123840000Y-66459000D01*
X124466000Y-66209000D01*
X123840000Y-65959000D01*
X123465000Y-66009000D01*
G37*
%TD.AperFunction*%
%TD*%
%TA.AperFunction,Conductor*%
%TO.N,/System overview/Block diagram/TOP_filt*%
G36*
X128040000Y-70984000D02*
G01*
X128440000Y-70984000D01*
X128490000Y-70609000D01*
X128240000Y-69983000D01*
X127990000Y-70609000D01*
X128040000Y-70984000D01*
G37*
%TD.AperFunction*%
%TD*%
%TA.AperFunction,Conductor*%
%TO.N,/System overview/Block diagram/GND*%
G36*
X106596000Y-86063000D02*
G01*
X106996000Y-86063000D01*
X107161921Y-85441387D01*
X106796000Y-85112000D01*
X106321000Y-85583723D01*
X106596000Y-86063000D01*
G37*
%TD.AperFunction*%
%TD*%
%TA.AperFunction,Conductor*%
%TO.N,Net-(J3-Pin_7)*%
G36*
X107325907Y-67157000D02*
G01*
X107325907Y-66757000D01*
X106030687Y-66207367D01*
X105624907Y-66957000D01*
X106030687Y-67706633D01*
X107325907Y-67157000D01*
G37*
%TD.AperFunction*%
%TD*%
%TA.AperFunction,Conductor*%
%TO.N,/System overview/Block diagram/SWDCLK*%
G36*
X143770424Y-82942582D02*
G01*
X143487582Y-83225424D01*
X143586179Y-83324021D01*
X143727600Y-83382600D01*
X144464938Y-83686114D01*
X144679163Y-83182600D01*
X144464938Y-82679086D01*
X143727600Y-82982600D01*
X143869021Y-83041179D01*
X143770424Y-82942582D01*
G37*
%TD.AperFunction*%
%TD*%
%TA.AperFunction,Conductor*%
%TO.N,/System overview/Block diagram/S3V3_A*%
G36*
X122905669Y-68586574D02*
G01*
X122622826Y-68303731D01*
X121863648Y-68674000D01*
X121997193Y-69212207D01*
X122472900Y-69408251D01*
X122905669Y-68586574D01*
G37*
%TD.AperFunction*%
%TD*%
%TA.AperFunction,Conductor*%
%TO.N,/System overview/Block diagram/BOT_EOT*%
G36*
X117410000Y-84681904D02*
G01*
X117010000Y-84681904D01*
X117182000Y-86382904D01*
X117210000Y-86382904D01*
X118060000Y-85391000D01*
X117410000Y-84681904D01*
G37*
%TD.AperFunction*%
%TD*%
%TA.AperFunction,Conductor*%
%TO.N,/System overview/Block diagram/3V3_REG*%
G36*
X160031093Y-85544936D02*
G01*
X160313936Y-85262093D01*
X159849000Y-84408248D01*
X159423543Y-84654543D01*
X159340249Y-85243000D01*
X160031093Y-85544936D01*
G37*
%TD.AperFunction*%
%TD*%
%TA.AperFunction,Conductor*%
%TO.N,/System overview/Block diagram/S3V3*%
G36*
X103934093Y-64017000D02*
G01*
X103934093Y-64817000D01*
X105383258Y-65230399D01*
X105635093Y-64417000D01*
X105383258Y-63603601D01*
X103934093Y-64017000D01*
G37*
%TD.AperFunction*%
%TD*%
%TA.AperFunction,Conductor*%
%TO.N,/System overview/Block diagram/GND*%
G36*
X120966000Y-82483567D02*
G01*
X120566000Y-82483567D01*
X120468567Y-83041842D01*
X120766000Y-83084567D01*
X121063433Y-83041842D01*
X120966000Y-82483567D01*
G37*
%TD.AperFunction*%
%TD*%
%TA.AperFunction,Conductor*%
%TO.N,/System overview/Block diagram/GND*%
G36*
X175122000Y-78401000D02*
G01*
X175122000Y-77601000D01*
X174652500Y-77601000D01*
X174369657Y-77718157D01*
X174184042Y-77532542D01*
X173889793Y-78763707D01*
X174553000Y-79037416D01*
X174935343Y-78283843D01*
X175122000Y-78401000D01*
G37*
%TD.AperFunction*%
%TD*%
%TA.AperFunction,Conductor*%
%TO.N,/System overview/Block diagram/ENCa*%
G36*
X144576000Y-49652500D02*
G01*
X144576000Y-49252500D01*
X144020869Y-48977500D01*
X143625000Y-49452500D01*
X143954387Y-49871921D01*
X144576000Y-49652500D01*
G37*
%TD.AperFunction*%
%TD*%
%TA.AperFunction,Conductor*%
%TO.N,/System overview/Block diagram/ENCa_filt*%
G36*
X142676000Y-51027500D02*
G01*
X142676000Y-51427500D01*
X143297613Y-51696921D01*
X143627000Y-51227500D01*
X143297613Y-50758079D01*
X142676000Y-51027500D01*
G37*
%TD.AperFunction*%
%TD*%
%TA.AperFunction,Conductor*%
%TO.N,/System overview/Block diagram/S3V3*%
G36*
X126040000Y-68984000D02*
G01*
X125640000Y-68984000D01*
X125590000Y-69359000D01*
X125840000Y-69985000D01*
X126090000Y-69359000D01*
X126040000Y-68984000D01*
G37*
%TD.AperFunction*%
%TD*%
%TA.AperFunction,Conductor*%
%TO.N,/System overview/Block diagram/CS'*%
G36*
X153536612Y-59434769D02*
G01*
X153253769Y-59717612D01*
X153672595Y-60117405D01*
X153983293Y-60164293D01*
X153793620Y-59515000D01*
X153536612Y-59434769D01*
G37*
%TD.AperFunction*%
%TD*%
%TA.AperFunction,Conductor*%
%TO.N,/System overview/Block diagram/GND*%
G36*
X125900000Y-79174433D02*
G01*
X126300000Y-79174433D01*
X126397433Y-78616158D01*
X126100000Y-78573433D01*
X125802567Y-78616158D01*
X125900000Y-79174433D01*
G37*
%TD.AperFunction*%
%TD*%
%TA.AperFunction,Conductor*%
%TO.N,/System overview/Block diagram/GND*%
G36*
X135044000Y-58786433D02*
G01*
X135444000Y-58786433D01*
X135541433Y-58228158D01*
X135244000Y-58185433D01*
X134946567Y-58228158D01*
X135044000Y-58786433D01*
G37*
%TD.AperFunction*%
%TD*%
%TA.AperFunction,Conductor*%
%TO.N,/System overview/Block diagram/BOOT0*%
G36*
X133815000Y-64009000D02*
G01*
X133815000Y-63609000D01*
X133440000Y-63559000D01*
X132814000Y-63809000D01*
X133440000Y-64059000D01*
X133815000Y-64009000D01*
G37*
%TD.AperFunction*%
%TD*%
%TA.AperFunction,Conductor*%
%TO.N,/System overview/Block diagram/ENCb_filt*%
G36*
X139108000Y-47963000D02*
G01*
X139508000Y-47963000D01*
X139783000Y-47473180D01*
X139308000Y-47012000D01*
X138889079Y-47341387D01*
X139108000Y-47963000D01*
G37*
%TD.AperFunction*%
%TD*%
%TA.AperFunction,Conductor*%
%TO.N,/System overview/Block diagram/TOP_EOT*%
G36*
X125900000Y-82670000D02*
G01*
X126300000Y-82670000D01*
X126556921Y-82048387D01*
X126100000Y-81656500D01*
X125643079Y-82048387D01*
X125900000Y-82670000D01*
G37*
%TD.AperFunction*%
%TD*%
%TA.AperFunction,Conductor*%
%TO.N,/System overview/Block diagram/S3V3*%
G36*
X131879111Y-61437000D02*
G01*
X131879111Y-61037000D01*
X131837000Y-61037000D01*
X131695579Y-61095579D01*
X131660223Y-61060223D01*
X131439293Y-61634707D01*
X131690000Y-61737553D01*
X131978421Y-61378421D01*
X131837000Y-61437000D01*
X131879111Y-61437000D01*
G37*
%TD.AperFunction*%
%TD*%
%TA.AperFunction,Conductor*%
%TO.N,/System overview/Block diagram/SEL0*%
G36*
X156380000Y-67459629D02*
G01*
X156780000Y-67459629D01*
X157249858Y-66266199D01*
X156580000Y-66058629D01*
X155910142Y-66266199D01*
X156380000Y-67459629D01*
G37*
%TD.AperFunction*%
%TD*%
%TA.AperFunction,Conductor*%
%TO.N,/System overview/Block diagram/GND*%
G36*
X122344000Y-82670000D02*
G01*
X122744000Y-82670000D01*
X122976921Y-82048387D01*
X122544000Y-81656500D01*
X122069000Y-82057248D01*
X122344000Y-82670000D01*
G37*
%TD.AperFunction*%
%TD*%
%TA.AperFunction,Conductor*%
%TO.N,/System overview/Block diagram/GND*%
G36*
X123465000Y-66809000D02*
G01*
X123465000Y-67209000D01*
X123840000Y-67259000D01*
X124466000Y-67009000D01*
X123840000Y-66759000D01*
X123465000Y-66809000D01*
G37*
%TD.AperFunction*%
%TD*%
%TA.AperFunction,Conductor*%
%TO.N,/System overview/Block diagram/3V3_REG*%
G36*
X158424000Y-84555500D02*
G01*
X158424000Y-84955500D01*
X159045613Y-85224921D01*
X159375000Y-84755500D01*
X158939872Y-84280500D01*
X158424000Y-84555500D01*
G37*
%TD.AperFunction*%
%TD*%
%TA.AperFunction,Conductor*%
%TO.N,/System overview/Block diagram/GND*%
G36*
X154563677Y-52366685D02*
G01*
X154584319Y-52383319D01*
X155273681Y-53072681D01*
X155307166Y-53134004D01*
X155310000Y-53160362D01*
X155310000Y-56359638D01*
X155290315Y-56426677D01*
X155273681Y-56447319D01*
X155092319Y-56628681D01*
X155030996Y-56662166D01*
X155004638Y-56665000D01*
X147995362Y-56665000D01*
X147928323Y-56645315D01*
X147907681Y-56628681D01*
X147726319Y-56447319D01*
X147692834Y-56385996D01*
X147690000Y-56359638D01*
X147690000Y-53160362D01*
X147709685Y-53093323D01*
X147726319Y-53072681D01*
X148415681Y-52383319D01*
X148477004Y-52349834D01*
X148503362Y-52347000D01*
X154496638Y-52347000D01*
X154563677Y-52366685D01*
G37*
%TD.AperFunction*%
%TD*%
%TA.AperFunction,Conductor*%
%TO.N,/System overview/Block diagram/FB*%
G36*
X158546000Y-83180500D02*
G01*
X158546000Y-82780500D01*
X157990869Y-82505500D01*
X157595000Y-82980500D01*
X157924387Y-83399921D01*
X158546000Y-83180500D01*
G37*
%TD.AperFunction*%
%TD*%
%TA.AperFunction,Conductor*%
%TO.N,/System overview/Block diagram/S19V5*%
G36*
X166447500Y-69154300D02*
G01*
X166447500Y-69954300D01*
X167264329Y-70197770D01*
X168011000Y-69554300D01*
X167264329Y-68910830D01*
X166447500Y-69154300D01*
G37*
%TD.AperFunction*%
%TD*%
%TA.AperFunction,Conductor*%
%TO.N,/System overview/Block diagram/GND*%
G36*
X121248000Y-54862500D02*
G01*
X121248000Y-55262500D01*
X121548000Y-55362500D01*
X121849000Y-55062500D01*
X121548000Y-54762500D01*
X121248000Y-54862500D01*
G37*
%TD.AperFunction*%
%TD*%
%TA.AperFunction,Conductor*%
%TO.N,/System overview/Block diagram/GND*%
G36*
X106996000Y-85785567D02*
G01*
X106596000Y-85785567D01*
X106498567Y-86343842D01*
X106796000Y-86386567D01*
X107093433Y-86343842D01*
X106996000Y-85785567D01*
G37*
%TD.AperFunction*%
%TD*%
%TA.AperFunction,Conductor*%
%TO.N,Net-(U1-BOOT)*%
G36*
X162241000Y-79481233D02*
G01*
X161841000Y-79481233D01*
X161566000Y-79903000D01*
X162041000Y-80441500D01*
X162135000Y-80441500D01*
X162241000Y-79481233D01*
G37*
%TD.AperFunction*%
%TD*%
%TA.AperFunction,Conductor*%
%TO.N,/System overview/Block diagram/SEL0'*%
G36*
X155194985Y-58370000D02*
G01*
X155194985Y-58770000D01*
X156580000Y-59143000D01*
X156595985Y-58570000D01*
X156040478Y-57997000D01*
X155194985Y-58370000D01*
G37*
%TD.AperFunction*%
%TD*%
%TA.AperFunction,Conductor*%
%TO.N,/System overview/Block diagram/S19V5*%
G36*
X147533000Y-60875000D02*
G01*
X147533000Y-60075000D01*
X146820500Y-60000000D01*
X146519500Y-60475000D01*
X146820500Y-60950000D01*
X147533000Y-60875000D01*
G37*
%TD.AperFunction*%
%TD*%
%TA.AperFunction,Conductor*%
%TO.N,Net-(J3-Pin_11)*%
G36*
X107325907Y-56997000D02*
G01*
X107325907Y-56597000D01*
X106030687Y-56047367D01*
X105624907Y-56797000D01*
X106030687Y-57546633D01*
X107325907Y-56997000D01*
G37*
%TD.AperFunction*%
%TD*%
%TA.AperFunction,Conductor*%
%TO.N,/System overview/Block diagram/S3V3*%
G36*
X105117500Y-84163000D02*
G01*
X104717500Y-84163000D01*
X104442500Y-84718131D01*
X104917500Y-85114000D01*
X105392500Y-84718131D01*
X105117500Y-84163000D01*
G37*
%TD.AperFunction*%
%TD*%
%TA.AperFunction,Conductor*%
%TO.N,/System overview/Block diagram/S3V3*%
G36*
X130726000Y-78831000D02*
G01*
X131126000Y-78831000D01*
X131214582Y-78438403D01*
X130926000Y-77867500D01*
X130637418Y-78438403D01*
X130726000Y-78831000D01*
G37*
%TD.AperFunction*%
%TD*%
%TA.AperFunction,Conductor*%
%TO.N,/System overview/Block diagram/SWO'*%
G36*
X144442000Y-73485000D02*
G01*
X144842000Y-73485000D01*
X145292000Y-72830027D01*
X144642000Y-72184000D01*
X143992000Y-72830027D01*
X144442000Y-73485000D01*
G37*
%TD.AperFunction*%
%TD*%
%TA.AperFunction,Conductor*%
%TO.N,/System overview/Block diagram/GND*%
G36*
X131622000Y-87241500D02*
G01*
X131622000Y-86841500D01*
X131000387Y-86572079D01*
X130671000Y-87041500D01*
X131000387Y-87510921D01*
X131622000Y-87241500D01*
G37*
%TD.AperFunction*%
%TD*%
%TA.AperFunction,Conductor*%
%TO.N,/System overview/Block diagram/XOUT*%
G36*
X129336000Y-53208500D02*
G01*
X129336000Y-52808500D01*
X128780869Y-52533500D01*
X128385000Y-53008500D01*
X128780869Y-53483500D01*
X129336000Y-53208500D01*
G37*
%TD.AperFunction*%
%TD*%
%TA.AperFunction,Conductor*%
%TO.N,/System overview/Block diagram/INb*%
G36*
X133815000Y-67209000D02*
G01*
X133815000Y-66809000D01*
X133440000Y-66759000D01*
X132814000Y-67009000D01*
X133440000Y-67259000D01*
X133815000Y-67209000D01*
G37*
%TD.AperFunction*%
%TD*%
%TA.AperFunction,Conductor*%
%TO.N,Net-(J3-Pin_12)*%
G36*
X107067941Y-54679784D02*
G01*
X107350784Y-54396941D01*
X107069421Y-54115579D01*
X106928000Y-54057000D01*
X106030687Y-53507367D01*
X105624907Y-54257000D01*
X106030687Y-55006633D01*
X106928000Y-54457000D01*
X107067941Y-54679784D01*
G37*
%TD.AperFunction*%
%TD*%
%TA.AperFunction,Conductor*%
%TO.N,/System overview/Block diagram/DISP_SCK*%
G36*
X123465000Y-63609000D02*
G01*
X123465000Y-64009000D01*
X123840000Y-64059000D01*
X124466000Y-63809000D01*
X123840000Y-63559000D01*
X123465000Y-63609000D01*
G37*
%TD.AperFunction*%
%TD*%
%TA.AperFunction,Conductor*%
%TO.N,/System overview/Block diagram/D-*%
G36*
X130606000Y-82107500D02*
G01*
X130606000Y-81307500D01*
X129956340Y-81232500D01*
X129655000Y-81707500D01*
X129956340Y-82182500D01*
X130606000Y-82107500D01*
G37*
%TD.AperFunction*%
%TD*%
%TA.AperFunction,Conductor*%
%TO.N,/System overview/Block diagram/GND*%
G36*
X117010000Y-79174433D02*
G01*
X117410000Y-79174433D01*
X117507433Y-78616158D01*
X117210000Y-78573433D01*
X116912567Y-78616158D01*
X117010000Y-79174433D01*
G37*
%TD.AperFunction*%
%TD*%
%TA.AperFunction,Conductor*%
%TO.N,/System overview/Block diagram/CC2*%
G36*
X135750802Y-83108644D02*
G01*
X136033644Y-82825802D01*
X135569175Y-82188276D01*
X135263793Y-82338793D01*
X135195959Y-82872000D01*
X135750802Y-83108644D01*
G37*
%TD.AperFunction*%
%TD*%
%TA.AperFunction,Conductor*%
%TO.N,/System overview/Block diagram/BOT_filt*%
G36*
X120712000Y-76751278D02*
G01*
X120312000Y-76751278D01*
X120050060Y-77555658D01*
X120512000Y-77752278D01*
X120973940Y-77555658D01*
X120712000Y-76751278D01*
G37*
%TD.AperFunction*%
%TD*%
%TA.AperFunction,Conductor*%
%TO.N,/System overview/Block diagram/CS'*%
G36*
X142630278Y-54433000D02*
G01*
X142630278Y-54833000D01*
X143434658Y-55094940D01*
X143631278Y-54633000D01*
X143434658Y-54171060D01*
X142630278Y-54433000D01*
G37*
%TD.AperFunction*%
%TD*%
%TA.AperFunction,Conductor*%
%TO.N,/System overview/Block diagram/OUTb'*%
G36*
X152113842Y-63015595D02*
G01*
X152125935Y-63016786D01*
X152137963Y-63018571D01*
X152161226Y-63023199D01*
X152161227Y-63023199D01*
X152197928Y-63030500D01*
X152326070Y-63030500D01*
X152326073Y-63030500D01*
X152351264Y-63025487D01*
X152362771Y-63023199D01*
X152362772Y-63023204D01*
X152379337Y-63021046D01*
X152385918Y-63020638D01*
X152392158Y-63020252D01*
X152396475Y-63019112D01*
X152428141Y-63015000D01*
X159558808Y-63015000D01*
X159593740Y-63020021D01*
X159618984Y-63027434D01*
X159671730Y-63058730D01*
X160087073Y-63474073D01*
X160108223Y-63502325D01*
X160120831Y-63525414D01*
X160136000Y-63584843D01*
X160136000Y-64977808D01*
X160130976Y-65012745D01*
X160123564Y-65037986D01*
X160092269Y-65090730D01*
X159676926Y-65506073D01*
X159648675Y-65527222D01*
X159625587Y-65539830D01*
X159566157Y-65555000D01*
X157467832Y-65555000D01*
X157432896Y-65549977D01*
X157412762Y-65544065D01*
X157360796Y-65513541D01*
X157356006Y-65508835D01*
X157339807Y-65489275D01*
X157330131Y-65474796D01*
X157318302Y-65457092D01*
X157318299Y-65457088D01*
X157318298Y-65457087D01*
X157318294Y-65457082D01*
X157185916Y-65324704D01*
X157185910Y-65324699D01*
X157185909Y-65324698D01*
X157030231Y-65220677D01*
X157030232Y-65220677D01*
X157030222Y-65220672D01*
X156857252Y-65149027D01*
X156857225Y-65149021D01*
X156673622Y-65112500D01*
X156673620Y-65112500D01*
X156673616Y-65112500D01*
X156486384Y-65112500D01*
X156486379Y-65112500D01*
X156486374Y-65112500D01*
X156302758Y-65149023D01*
X156302753Y-65149025D01*
X156302751Y-65149025D01*
X156300125Y-65149978D01*
X156300031Y-65149719D01*
X156299553Y-65149841D01*
X156299480Y-65149558D01*
X156270540Y-65156928D01*
X156255000Y-65158598D01*
X156186242Y-65146190D01*
X156174064Y-65140093D01*
X156141893Y-65116893D01*
X155579872Y-64554872D01*
X155547404Y-64497855D01*
X155542394Y-64478225D01*
X155519076Y-64418964D01*
X155519076Y-64418963D01*
X155506468Y-64395874D01*
X155486758Y-64365206D01*
X155474087Y-64348280D01*
X155465613Y-64336960D01*
X155441751Y-64309421D01*
X155441739Y-64309407D01*
X155280396Y-64148064D01*
X155256344Y-64129380D01*
X155230111Y-64109001D01*
X155230097Y-64108992D01*
X155177363Y-64077703D01*
X155177360Y-64077701D01*
X155177359Y-64077701D01*
X155118973Y-64052285D01*
X155118971Y-64052284D01*
X155118968Y-64052283D01*
X155093727Y-64044871D01*
X155093711Y-64044867D01*
X155063036Y-64038195D01*
X155058091Y-64037120D01*
X155058088Y-64037119D01*
X155058081Y-64037118D01*
X155023169Y-64032100D01*
X155023141Y-64032097D01*
X154986813Y-64029500D01*
X154986808Y-64029500D01*
X148005843Y-64029500D01*
X147966351Y-64034460D01*
X147942654Y-64037436D01*
X147883230Y-64052603D01*
X147883225Y-64052605D01*
X147823982Y-64075913D01*
X147823974Y-64075917D01*
X147800907Y-64088512D01*
X147800887Y-64088523D01*
X147800877Y-64088529D01*
X147800876Y-64088530D01*
X147770200Y-64108243D01*
X147770197Y-64108245D01*
X147741965Y-64129380D01*
X147717997Y-64150149D01*
X147654440Y-64179172D01*
X147585282Y-64169227D01*
X147549115Y-64144115D01*
X147484926Y-64079926D01*
X147463774Y-64051670D01*
X147451167Y-64028581D01*
X147436000Y-63969156D01*
X147436000Y-63338191D01*
X147441022Y-63303258D01*
X147448434Y-63278013D01*
X147479728Y-63225271D01*
X147641076Y-63063923D01*
X147669326Y-63042775D01*
X147692418Y-63030167D01*
X147751843Y-63015000D01*
X152101709Y-63015000D01*
X152113842Y-63015595D01*
G37*
%TD.AperFunction*%
%TD*%
%TA.AperFunction,Conductor*%
%TO.N,/System overview/Block diagram/GND*%
G36*
X128586000Y-55305567D02*
G01*
X128186000Y-55305567D01*
X128088567Y-55863842D01*
X128386000Y-55906567D01*
X128683433Y-55863842D01*
X128586000Y-55305567D01*
G37*
%TD.AperFunction*%
%TD*%
%TA.AperFunction,Conductor*%
%TO.N,/System overview/Block diagram/NRST*%
G36*
X144873500Y-80822600D02*
G01*
X144473500Y-80822600D01*
X144128500Y-81367600D01*
X144673500Y-81913600D01*
X145218500Y-81367600D01*
X144873500Y-80822600D01*
G37*
%TD.AperFunction*%
%TD*%
%TA.AperFunction,Conductor*%
%TO.N,/System overview/Block diagram/XOUT*%
G36*
X127379079Y-53071078D02*
G01*
X127661922Y-53353921D01*
X127724500Y-53208500D01*
X127980562Y-53476438D01*
X128387000Y-53008500D01*
X127980562Y-52540562D01*
X127724500Y-52808500D01*
X127583079Y-52867079D01*
X127379079Y-53071078D01*
G37*
%TD.AperFunction*%
%TD*%
%TA.AperFunction,Conductor*%
%TO.N,/System overview/Block diagram/GND*%
G36*
X126300000Y-78920000D02*
G01*
X125900000Y-78920000D01*
X125643079Y-79541613D01*
X126100000Y-79933500D01*
X126556921Y-79541613D01*
X126300000Y-78920000D01*
G37*
%TD.AperFunction*%
%TD*%
%TA.AperFunction,Conductor*%
%TO.N,/System overview/Block diagram/SW*%
G36*
X163657740Y-77498021D02*
G01*
X163682984Y-77505434D01*
X163735730Y-77536730D01*
X164151073Y-77952073D01*
X164172223Y-77980325D01*
X164184831Y-78003414D01*
X164200000Y-78062843D01*
X164200000Y-80541000D01*
X164913073Y-81254073D01*
X164934223Y-81282325D01*
X164946831Y-81305414D01*
X164962000Y-81364843D01*
X164962000Y-85551808D01*
X164956976Y-85586745D01*
X164949564Y-85611986D01*
X164918269Y-85664730D01*
X164756926Y-85826073D01*
X164728675Y-85847222D01*
X164705587Y-85859830D01*
X164646157Y-85875000D01*
X162745192Y-85875000D01*
X162710256Y-85869977D01*
X162685014Y-85862565D01*
X162632269Y-85831269D01*
X162470926Y-85669926D01*
X162449774Y-85641670D01*
X162437167Y-85618581D01*
X162422000Y-85559156D01*
X162422000Y-82388191D01*
X162427022Y-82353258D01*
X162434434Y-82328013D01*
X162465728Y-82275271D01*
X162676000Y-82065000D01*
X162676000Y-77816191D01*
X162681022Y-77781258D01*
X162688434Y-77756013D01*
X162719728Y-77703271D01*
X162881076Y-77541923D01*
X162909326Y-77520775D01*
X162932418Y-77508167D01*
X162991843Y-77493000D01*
X163622808Y-77493000D01*
X163657740Y-77498021D01*
G37*
%TD.AperFunction*%
%TD*%
%TA.AperFunction,Conductor*%
%TO.N,/System overview/Block diagram/XIN*%
G36*
X130840000Y-60634000D02*
G01*
X130440000Y-60634000D01*
X130390000Y-61009000D01*
X130640000Y-61635000D01*
X130890000Y-61009000D01*
X130840000Y-60634000D01*
G37*
%TD.AperFunction*%
%TD*%
%TA.AperFunction,Conductor*%
%TO.N,Net-(J3-Pin_10)*%
G36*
X107142337Y-59580178D02*
G01*
X107425178Y-59297337D01*
X107323421Y-59195579D01*
X107182000Y-59137000D01*
X106030687Y-58587367D01*
X105624907Y-59337000D01*
X106030687Y-60086633D01*
X107182000Y-59537000D01*
X107040579Y-59478421D01*
X107142337Y-59580178D01*
G37*
%TD.AperFunction*%
%TD*%
%TA.AperFunction,Conductor*%
%TO.N,/System overview/Block diagram/GND*%
G36*
X119804000Y-56000000D02*
G01*
X120204000Y-56000000D01*
X120460921Y-55378387D01*
X120004000Y-54986500D01*
X119547079Y-55378387D01*
X119804000Y-56000000D01*
G37*
%TD.AperFunction*%
%TD*%
%TA.AperFunction,Conductor*%
%TO.N,/System overview/Block diagram/GND*%
G36*
X137342000Y-80952500D02*
G01*
X137342000Y-81352500D01*
X137963613Y-81621921D01*
X138293000Y-81152500D01*
X137963613Y-80683079D01*
X137342000Y-80952500D01*
G37*
%TD.AperFunction*%
%TD*%
%TA.AperFunction,Conductor*%
%TO.N,/System overview/Block diagram/GND*%
G36*
X123614000Y-70470433D02*
G01*
X124014000Y-70470433D01*
X124111433Y-69912158D01*
X123814000Y-69869433D01*
X123516567Y-69912158D01*
X123614000Y-70470433D01*
G37*
%TD.AperFunction*%
%TD*%
%TA.AperFunction,Conductor*%
%TO.N,/System overview/Block diagram/S3V3*%
G36*
X125640000Y-70984000D02*
G01*
X126040000Y-70984000D01*
X126090000Y-70609000D01*
X125840000Y-69983000D01*
X125590000Y-70609000D01*
X125640000Y-70984000D01*
G37*
%TD.AperFunction*%
%TD*%
%TA.AperFunction,Conductor*%
%TO.N,/System overview/Block diagram/XOUT*%
G36*
X130040000Y-60634000D02*
G01*
X129640000Y-60634000D01*
X129590000Y-61009000D01*
X129840000Y-61635000D01*
X130090000Y-61009000D01*
X130040000Y-60634000D01*
G37*
%TD.AperFunction*%
%TD*%
%TA.AperFunction,Conductor*%
%TO.N,/System overview/Block diagram/SW*%
G36*
X162610000Y-82365500D02*
G01*
X162610000Y-81965500D01*
X162054869Y-81690500D01*
X161659000Y-82165500D01*
X162054869Y-82640500D01*
X162610000Y-82365500D01*
G37*
%TD.AperFunction*%
%TD*%
%TA.AperFunction,Conductor*%
%TO.N,/System overview/Block diagram/S19V5*%
G36*
X168410000Y-68229300D02*
G01*
X167610000Y-68229300D01*
X167347500Y-68894286D01*
X168010000Y-69555300D01*
X168672500Y-68894286D01*
X168410000Y-68229300D01*
G37*
%TD.AperFunction*%
%TD*%
%TA.AperFunction,Conductor*%
%TO.N,/System overview/Block diagram/GND*%
G36*
X128186000Y-55746000D02*
G01*
X128586000Y-55746000D01*
X128842921Y-55124387D01*
X128386000Y-54732500D01*
X127929079Y-55124387D01*
X128186000Y-55746000D01*
G37*
%TD.AperFunction*%
%TD*%
%TA.AperFunction,Conductor*%
%TO.N,/System overview/Block diagram/GND*%
G36*
X158546000Y-74795500D02*
G01*
X158546000Y-74395500D01*
X157924387Y-74126079D01*
X157595000Y-74595500D01*
X157924387Y-75064921D01*
X158546000Y-74795500D01*
G37*
%TD.AperFunction*%
%TD*%
%TA.AperFunction,Conductor*%
%TO.N,/System overview/Block diagram/GND*%
G36*
X168737740Y-71910021D02*
G01*
X168762984Y-71917434D01*
X168815730Y-71948730D01*
X168977073Y-72110073D01*
X168998223Y-72138325D01*
X169010831Y-72161414D01*
X169026000Y-72220843D01*
X169026000Y-73105808D01*
X169020976Y-73140745D01*
X169013564Y-73165986D01*
X168982269Y-73218730D01*
X168820926Y-73380073D01*
X168792675Y-73401222D01*
X168769587Y-73413830D01*
X168710157Y-73429000D01*
X167501998Y-73429000D01*
X166740000Y-74190998D01*
X166740000Y-79709808D01*
X166734976Y-79744745D01*
X166727564Y-79769986D01*
X166696269Y-79822730D01*
X166280926Y-80238073D01*
X166252675Y-80259222D01*
X166229587Y-80271830D01*
X166170157Y-80287000D01*
X165031192Y-80287000D01*
X164996256Y-80281977D01*
X164971014Y-80274565D01*
X164918269Y-80243269D01*
X164756926Y-80081926D01*
X164735774Y-80053670D01*
X164723167Y-80030581D01*
X164708000Y-79971156D01*
X164708000Y-78001000D01*
X163946000Y-77239000D01*
X163648212Y-77239000D01*
X163639368Y-77238684D01*
X163622813Y-77237500D01*
X163622808Y-77237500D01*
X162991843Y-77237500D01*
X162991838Y-77237500D01*
X162987599Y-77238033D01*
X162972146Y-77239000D01*
X158935192Y-77239000D01*
X158900256Y-77233977D01*
X158875014Y-77226565D01*
X158822269Y-77195269D01*
X158660926Y-77033926D01*
X158639774Y-77005670D01*
X158627167Y-76982581D01*
X158612000Y-76923156D01*
X158612000Y-74514191D01*
X158617022Y-74479258D01*
X158624434Y-74454013D01*
X158655728Y-74401271D01*
X158817076Y-74239923D01*
X158845326Y-74218775D01*
X158868418Y-74206167D01*
X158927843Y-74191000D01*
X162676000Y-74191000D01*
X162930000Y-73937000D01*
X162930000Y-72482191D01*
X162935022Y-72447258D01*
X162942434Y-72422013D01*
X162973728Y-72369271D01*
X163389076Y-71953923D01*
X163417326Y-71932775D01*
X163440418Y-71920167D01*
X163499843Y-71905000D01*
X168702808Y-71905000D01*
X168737740Y-71910021D01*
G37*
%TD.AperFunction*%
%TD*%
%TA.AperFunction,Conductor*%
%TO.N,/System overview/Block diagram/GND*%
G36*
X155021740Y-64290021D02*
G01*
X155046984Y-64297434D01*
X155099730Y-64328730D01*
X155261073Y-64490073D01*
X155282223Y-64518325D01*
X155294831Y-64541414D01*
X155310000Y-64600843D01*
X155310000Y-67771808D01*
X155304976Y-67806745D01*
X155297564Y-67831986D01*
X155266269Y-67884730D01*
X154596926Y-68554073D01*
X154568675Y-68575222D01*
X154545587Y-68587830D01*
X154486157Y-68603000D01*
X148521192Y-68603000D01*
X148486256Y-68597977D01*
X148461014Y-68590565D01*
X148408269Y-68559269D01*
X147738926Y-67889926D01*
X147717774Y-67861670D01*
X147705167Y-67838581D01*
X147690000Y-67779156D01*
X147690000Y-64608191D01*
X147695022Y-64573258D01*
X147702434Y-64548013D01*
X147733728Y-64495271D01*
X147895076Y-64333923D01*
X147923326Y-64312775D01*
X147946418Y-64300167D01*
X148005843Y-64285000D01*
X154986808Y-64285000D01*
X155021740Y-64290021D01*
G37*
%TD.AperFunction*%
%TD*%
%TA.AperFunction,Conductor*%
%TO.N,/System overview/Block diagram/S19V5*%
G36*
X160905500Y-71839000D02*
G01*
X161705500Y-71839000D01*
X161780500Y-71283868D01*
X161305500Y-70888000D01*
X160830500Y-71283868D01*
X160905500Y-71839000D01*
G37*
%TD.AperFunction*%
%TD*%
%TA.AperFunction,Conductor*%
%TO.N,/System overview/Block diagram/SW*%
G36*
X162401722Y-84297000D02*
G01*
X162401722Y-83897000D01*
X161597342Y-83635060D01*
X161400722Y-84097000D01*
X161597342Y-84558940D01*
X162401722Y-84297000D01*
G37*
%TD.AperFunction*%
%TD*%
%TA.AperFunction,Conductor*%
%TO.N,/System overview/Block diagram/GND*%
G36*
X135544500Y-60287000D02*
G01*
X135144500Y-60287000D01*
X134869500Y-60842131D01*
X135344500Y-61238000D01*
X135819500Y-60842131D01*
X135544500Y-60287000D01*
G37*
%TD.AperFunction*%
%TD*%
%TA.AperFunction,Conductor*%
%TO.N,/System overview/Block diagram/SEL0*%
G36*
X127640000Y-62985189D02*
G01*
X127240000Y-62985189D01*
X127110000Y-63473026D01*
X127440000Y-63786189D01*
X127770000Y-63777000D01*
X127640000Y-62985189D01*
G37*
%TD.AperFunction*%
%TD*%
%TA.AperFunction,Conductor*%
%TO.N,/System overview/Block diagram/TOP_filt*%
G36*
X122720000Y-78920000D02*
G01*
X122320000Y-78920000D01*
X122063079Y-79541613D01*
X122520000Y-79933500D01*
X122976921Y-79541613D01*
X122720000Y-78920000D01*
G37*
%TD.AperFunction*%
%TD*%
%TA.AperFunction,Conductor*%
%TO.N,/System overview/Block diagram/PWM*%
G36*
X133815000Y-68809000D02*
G01*
X133815000Y-68409000D01*
X133440000Y-68359000D01*
X132814000Y-68609000D01*
X133440000Y-68859000D01*
X133815000Y-68809000D01*
G37*
%TD.AperFunction*%
%TD*%
%TA.AperFunction,Conductor*%
%TO.N,/System overview/Block diagram/GND*%
G36*
X122883892Y-67209000D02*
G01*
X122883892Y-66809000D01*
X122475400Y-66809000D01*
X122333979Y-66867579D01*
X121863648Y-66949000D01*
X121997193Y-67487207D01*
X122472900Y-67683252D01*
X122616821Y-67150421D01*
X122883892Y-67209000D01*
G37*
%TD.AperFunction*%
%TD*%
%TA.AperFunction,Conductor*%
%TO.N,/System overview/Block diagram/GND*%
G36*
X120566000Y-82670000D02*
G01*
X120966000Y-82670000D01*
X121222921Y-82048387D01*
X120766000Y-81656500D01*
X120309079Y-82048387D01*
X120566000Y-82670000D01*
G37*
%TD.AperFunction*%
%TD*%
%TA.AperFunction,Conductor*%
%TO.N,/System overview/Block diagram/D+*%
G36*
X136039338Y-84027500D02*
G01*
X136039338Y-83427500D01*
X135577387Y-83302500D01*
X135156000Y-83727500D01*
X135156000Y-83972000D01*
X136039338Y-84027500D01*
G37*
%TD.AperFunction*%
%TD*%
%TA.AperFunction,Conductor*%
%TO.N,/System overview/Block diagram/TOP_EOT*%
G36*
X127007769Y-81032574D02*
G01*
X126724926Y-80749731D01*
X125965748Y-81120000D01*
X126099293Y-81658207D01*
X126575000Y-81854251D01*
X127007769Y-81032574D01*
G37*
%TD.AperFunction*%
%TD*%
%TA.AperFunction,Conductor*%
%TO.N,/System overview/Block diagram/SEL0*%
G36*
X134715722Y-71089000D02*
G01*
X134715722Y-70689000D01*
X133911342Y-70427060D01*
X133714722Y-70889000D01*
X133911342Y-71350940D01*
X134715722Y-71089000D01*
G37*
%TD.AperFunction*%
%TD*%
%TA.AperFunction,Conductor*%
%TO.N,/System overview/Block diagram/DISP_SCK*%
G36*
X112356000Y-64792000D02*
G01*
X111956000Y-64792000D01*
X111525030Y-65596329D01*
X112156000Y-66318000D01*
X112786970Y-65596329D01*
X112356000Y-64792000D01*
G37*
%TD.AperFunction*%
%TD*%
%TA.AperFunction,Conductor*%
%TO.N,/System overview/Block diagram/GND*%
G36*
X135952000Y-53774000D02*
G01*
X135552000Y-53774000D01*
X135295079Y-54395613D01*
X135752000Y-54737500D01*
X136208921Y-54395613D01*
X135952000Y-53774000D01*
G37*
%TD.AperFunction*%
%TD*%
%TA.AperFunction,Conductor*%
%TO.N,/System overview/Block diagram/TOP_filt*%
G36*
X122320000Y-78658908D02*
G01*
X122720000Y-78658908D01*
X122742000Y-78243854D01*
X122520000Y-77657908D01*
X122298000Y-77747000D01*
X122320000Y-78658908D01*
G37*
%TD.AperFunction*%
%TD*%
%TA.AperFunction,Conductor*%
%TO.N,/System overview/Block diagram/GND*%
G36*
X122744000Y-82483567D02*
G01*
X122344000Y-82483567D01*
X122246567Y-83041842D01*
X122544000Y-83084567D01*
X122841433Y-83041842D01*
X122744000Y-82483567D01*
G37*
%TD.AperFunction*%
%TD*%
%TA.AperFunction,Conductor*%
%TO.N,/System overview/Block diagram/FB*%
G36*
X157396000Y-81790722D02*
G01*
X157796000Y-81790722D01*
X158057940Y-80986342D01*
X157596000Y-80789722D01*
X157134060Y-80986342D01*
X157396000Y-81790722D01*
G37*
%TD.AperFunction*%
%TD*%
%TA.AperFunction,Conductor*%
%TO.N,/System overview/Block diagram/BOT_EOT*%
G36*
X117010000Y-82670000D02*
G01*
X117410000Y-82670000D01*
X117666921Y-82048387D01*
X117210000Y-81656500D01*
X116753079Y-82048387D01*
X117010000Y-82670000D01*
G37*
%TD.AperFunction*%
%TD*%
%TA.AperFunction,Conductor*%
%TO.N,Net-(JP19-Pad1)*%
G36*
X122732000Y-49602500D02*
G01*
X122732000Y-49202500D01*
X122110387Y-48933079D01*
X121781000Y-49402500D01*
X122110387Y-49871921D01*
X122732000Y-49602500D01*
G37*
%TD.AperFunction*%
%TD*%
%TA.AperFunction,Conductor*%
%TO.N,/System overview/Block diagram/S3V3_A*%
G36*
X123465000Y-67609000D02*
G01*
X123465000Y-68009000D01*
X123840000Y-68059000D01*
X124466000Y-67809000D01*
X123840000Y-67559000D01*
X123465000Y-67609000D01*
G37*
%TD.AperFunction*%
%TD*%
%TA.AperFunction,Conductor*%
%TO.N,/System overview/Block diagram/S19V5*%
G36*
X165449722Y-63669000D02*
G01*
X165449722Y-62869000D01*
X164519263Y-62773278D01*
X164448722Y-63269000D01*
X164519263Y-63764722D01*
X165449722Y-63669000D01*
G37*
%TD.AperFunction*%
%TD*%
%TA.AperFunction,Conductor*%
%TO.N,Net-(J3-Pin_14)*%
G36*
X107023860Y-49706203D02*
G01*
X107306703Y-49423360D01*
X106918921Y-49035579D01*
X106777500Y-48977000D01*
X106169234Y-48519941D01*
X105624907Y-49177000D01*
X106169234Y-49834059D01*
X106777500Y-49377000D01*
X107023860Y-49706203D01*
G37*
%TD.AperFunction*%
%TD*%
M02*
