%TF.GenerationSoftware,KiCad,Pcbnew,10.0.5-unknown-202607221313~667fa36054~ubuntu25.10.1*%
%TF.CreationDate,2026-10-07T20:49:49+00:00*%
%TF.ProjectId,ktest,6b746573-742e-46b6-9963-61645f706362,0.0.2*%
%TF.SameCoordinates,Original*%
%TF.FileFunction,Copper,L3,Inr*%
%TF.FilePolarity,Positive*%
%FSLAX46Y46*%
G04 Gerber Fmt 4.6, Leading zero omitted, Abs format (unit mm)*
G04 Created by KiCad (PCBNEW 10.0.5-unknown-202607221313~667fa36054~ubuntu25.10.1) date 2026-10-07 20:49:49*
%MOMM*%
%LPD*%
G01*
G04 APERTURE LIST*
G04 Aperture macros list*
%AMRoundRect*
0 Rectangle with rounded corners*
0 $1 Rounding radius*
0 $2 $3 $4 $5 $6 $7 $8 $9 X,Y pos of 4 corners*
0 Add a 4 corners polygon primitive as box body*
4,1,4,$2,$3,$4,$5,$6,$7,$8,$9,$2,$3,0*
0 Add four circle primitives for the rounded corners*
1,1,$1+$1,$2,$3*
1,1,$1+$1,$4,$5*
1,1,$1+$1,$6,$7*
1,1,$1+$1,$8,$9*
0 Add four rect primitives between the rounded corners*
20,1,$1+$1,$2,$3,$4,$5,0*
20,1,$1+$1,$4,$5,$6,$7,0*
20,1,$1+$1,$6,$7,$8,$9,0*
20,1,$1+$1,$8,$9,$2,$3,0*%
G04 Aperture macros list end*
%TA.AperFunction,ComponentPad*%
%ADD10C,1.000000*%
%TD*%
%TA.AperFunction,ComponentPad*%
%ADD11C,1.400000*%
%TD*%
%TA.AperFunction,ComponentPad*%
%ADD12C,0.600000*%
%TD*%
%TA.AperFunction,ComponentPad*%
%ADD13RoundRect,0.250000X0.725000X-0.600000X0.725000X0.600000X-0.725000X0.600000X-0.725000X-0.600000X0*%
%TD*%
%TA.AperFunction,ComponentPad*%
%ADD14O,1.950000X1.700000*%
%TD*%
%TA.AperFunction,ComponentPad*%
%ADD15O,2.600000X1.600000*%
%TD*%
%TA.AperFunction,ComponentPad*%
%ADD16C,1.600000*%
%TD*%
%TA.AperFunction,ComponentPad*%
%ADD17R,1.600000X2.600000*%
%TD*%
%TA.AperFunction,ComponentPad*%
%ADD18O,1.000000X0.850000*%
%TD*%
%TA.AperFunction,ComponentPad*%
%ADD19O,1.000000X1.800000*%
%TD*%
%TA.AperFunction,ComponentPad*%
%ADD20RoundRect,0.250000X-0.600000X-0.725000X0.600000X-0.725000X0.600000X0.725000X-0.600000X0.725000X0*%
%TD*%
%TA.AperFunction,ComponentPad*%
%ADD21O,1.700000X1.950000*%
%TD*%
%TA.AperFunction,ComponentPad*%
%ADD22RoundRect,0.250000X0.600000X0.725000X-0.600000X0.725000X-0.600000X-0.725000X0.600000X-0.725000X0*%
%TD*%
%TA.AperFunction,ComponentPad*%
%ADD23R,1.090000X1.090000*%
%TD*%
%TA.AperFunction,ComponentPad*%
%ADD24C,1.090000*%
%TD*%
%TA.AperFunction,ComponentPad*%
%ADD25R,1.700000X1.700000*%
%TD*%
%TA.AperFunction,ComponentPad*%
%ADD26C,1.700000*%
%TD*%
%TA.AperFunction,WasherPad*%
%ADD27C,5.000000*%
%TD*%
%TA.AperFunction,ViaPad*%
%ADD28C,1.000000*%
%TD*%
%TA.AperFunction,ViaPad*%
%ADD29C,0.600000*%
%TD*%
%TA.AperFunction,ViaPad*%
%ADD30C,0.800000*%
%TD*%
%TA.AperFunction,Conductor*%
%ADD31C,0.400000*%
%TD*%
%TA.AperFunction,Conductor*%
%ADD32C,0.200000*%
%TD*%
G04 APERTURE END LIST*
D10*
%TO.N,/ENCb_filt*%
%TO.C,TP13*%
X115046000Y-82698000D03*
%TD*%
%TO.N,/GND*%
%TO.C,TP18*%
X155686000Y-105304000D03*
%TD*%
D11*
%TO.N,/DISP_DC*%
%TO.C,JP9*%
X93270000Y-87812000D03*
%TO.N,Net-(J3-Pin_5)*%
X93270000Y-92892000D03*
%TD*%
D10*
%TO.N,/3V3_REG*%
%TO.C,TP7*%
X149590000Y-97430000D03*
%TD*%
D12*
%TO.N,/GND*%
%TO.C,U1*%
X139856000Y-100590000D03*
X138556000Y-100590000D03*
X137256000Y-100590000D03*
X135956000Y-100590000D03*
X139856000Y-101890000D03*
X138556000Y-101890000D03*
X137256000Y-101890000D03*
X135956000Y-101890000D03*
%TD*%
D10*
%TO.N,/S3V3*%
%TO.C,TP10*%
X155686000Y-103018000D03*
%TD*%
D13*
%TO.N,Net-(J10-Pin_1)*%
%TO.C,J9*%
X169656000Y-85238000D03*
D14*
%TO.N,Net-(J10-Pin_2)*%
X169656000Y-82738000D03*
%TO.N,Net-(J10-Pin_3)*%
X169656000Y-80238000D03*
%TO.N,Net-(J10-Pin_4)*%
X169656000Y-77738000D03*
%TO.N,Net-(J10-Pin_5)*%
X169656000Y-75238000D03*
%TO.N,Net-(J10-Pin_6)*%
X169656000Y-72738000D03*
%TD*%
D10*
%TO.N,/GND*%
%TO.C,TP21*%
X120126000Y-82444000D03*
%TD*%
%TO.N,/SW*%
%TO.C,TP6*%
X137906000Y-109622000D03*
%TD*%
%TO.N,/NRST*%
%TO.C,TP8*%
X112506000Y-98192000D03*
%TD*%
D15*
%TO.N,/S19V5_2*%
%TO.C,J6*%
X163833000Y-103976000D03*
X169383000Y-103976000D03*
D16*
%TO.N,unconnected-(J6-ID-Pad2)*%
X166608000Y-103976000D03*
D15*
%TO.N,/GND_2*%
X166608000Y-107376000D03*
X166608000Y-111176000D03*
D17*
X161833000Y-107076000D03*
X161833000Y-113476000D03*
X171383000Y-107076000D03*
X171383000Y-113476000D03*
%TD*%
D10*
%TO.N,/MOT_CS*%
%TO.C,TP14*%
X94472000Y-76856000D03*
%TD*%
%TO.N,/BOOT0*%
%TO.C,TP9*%
X114284000Y-86762000D03*
%TD*%
%TO.N,/FB*%
%TO.C,TP5*%
X134096000Y-106320000D03*
%TD*%
D18*
%TO.N,/GND*%
%TO.C,J5*%
X110307000Y-113472000D03*
%TO.N,Net-(J5-VBUS-PadA4)*%
X110307000Y-112372000D03*
%TO.N,/CC1*%
X110307000Y-111272000D03*
%TO.N,/D+*%
X110307000Y-110172000D03*
%TO.N,/D-*%
X110307000Y-109072000D03*
%TO.N,unconnected-(J5-SBU1-PadA8)*%
X110307000Y-107972000D03*
%TO.N,Net-(J5-VBUS-PadA4)*%
X110307000Y-106872000D03*
%TO.N,/GND*%
X110307000Y-105772000D03*
X111657000Y-105772000D03*
%TO.N,Net-(J5-VBUS-PadA4)*%
X111657000Y-106872000D03*
%TO.N,/CC2*%
X111657000Y-107972000D03*
%TO.N,/D+*%
X111657000Y-109072000D03*
%TO.N,/D-*%
X111657000Y-110172000D03*
%TO.N,unconnected-(J5-SBU2-PadB8)*%
X111657000Y-111272000D03*
%TO.N,Net-(J5-VBUS-PadA4)*%
X111657000Y-112372000D03*
%TO.N,/GND*%
X111657000Y-113472000D03*
D19*
X108832000Y-112122000D03*
X113132000Y-112122000D03*
X108832000Y-107122000D03*
X113132000Y-107122000D03*
%TD*%
D10*
%TO.N,/CS'*%
%TO.C,TP15*%
X120126000Y-80158000D03*
%TD*%
%TO.N,/SEL0*%
%TO.C,TP11*%
X110220000Y-96414000D03*
%TD*%
%TO.N,/TOP_filt*%
%TO.C,TP3*%
X99298000Y-103272000D03*
%TD*%
%TO.N,Net-(J5-VBUS-PadA4)*%
%TO.C,TP16*%
X115046000Y-113686000D03*
%TD*%
%TO.N,/GND*%
%TO.C,TP20*%
X137652000Y-113432000D03*
%TD*%
%TO.N,/GND*%
%TO.C,TP19*%
X94472000Y-79396000D03*
%TD*%
%TO.N,/BOT_filt*%
%TO.C,TP4*%
X97012000Y-103272000D03*
%TD*%
%TO.N,/ENCa_filt*%
%TO.C,TP12*%
X117586000Y-82698000D03*
%TD*%
%TO.N,/RT*%
%TO.C,TP2*%
X135620000Y-96414000D03*
%TD*%
D20*
%TO.N,/BOT_EOT*%
%TO.C,J1*%
X94532000Y-111891000D03*
D21*
%TO.N,/GND*%
X97032000Y-111891000D03*
X99532000Y-111891000D03*
%TO.N,/TOP_EOT*%
X102032000Y-111891000D03*
%TD*%
D11*
%TO.N,/SEL0'*%
%TO.C,JP18*%
X133080000Y-83968000D03*
%TO.N,/SEL0*%
X133080000Y-91588000D03*
%TD*%
D22*
%TO.N,/OUTb*%
%TO.C,J7*%
X132831300Y-70603000D03*
D21*
%TO.N,/OUTa*%
X130331300Y-70603000D03*
%TO.N,/S3V3*%
X127831300Y-70603000D03*
%TO.N,/GND*%
X125331300Y-70603000D03*
%TO.N,/ENCa*%
X122831300Y-70603000D03*
%TO.N,/ENCb*%
X120331300Y-70603000D03*
%TD*%
D10*
%TO.N,/PG*%
%TO.C,TP1*%
X136382000Y-106320000D03*
%TD*%
D11*
%TO.N,/OUTb*%
%TO.C,JP22*%
X135278000Y-82190000D03*
%TO.N,/OUTb'*%
X135278000Y-89810000D03*
%TD*%
D10*
%TO.N,/GND*%
%TO.C,TP17*%
X93710000Y-102002000D03*
%TD*%
D23*
%TO.N,/NRST*%
%TO.C,J4*%
X121173500Y-107437600D03*
D24*
%TO.N,/SWDCLK*%
X121173500Y-108707600D03*
%TO.N,/SWO'*%
X122443500Y-107437600D03*
%TO.N,/SWDIO*%
X122443500Y-108707600D03*
%TO.N,/GND*%
X123713500Y-107437600D03*
X123713500Y-108707600D03*
%TO.N,/S3V3*%
X124983500Y-107437600D03*
X124983500Y-108707600D03*
%TO.N,unconnected-(J4-Pin_9-Pad9)*%
X126253500Y-107437600D03*
%TO.N,unconnected-(J4-Pin_10-Pad10)*%
X126253500Y-108707600D03*
%TD*%
D25*
%TO.N,unconnected-(J2-Pin_1-Pad1)*%
%TO.C,J2*%
X155310000Y-95022000D03*
D26*
%TO.N,unconnected-(J2-Pin_2-Pad2)*%
X155310000Y-92482000D03*
%TO.N,unconnected-(J2-Pin_3-Pad3)*%
X155310000Y-89942000D03*
%TO.N,unconnected-(J2-Pin_4-Pad4)*%
X155310000Y-87402000D03*
%TD*%
D13*
%TO.N,Net-(J10-Pin_1)*%
%TO.C,J10*%
X163560000Y-85238000D03*
D14*
%TO.N,Net-(J10-Pin_2)*%
X163560000Y-82738000D03*
%TO.N,Net-(J10-Pin_3)*%
X163560000Y-80238000D03*
%TO.N,Net-(J10-Pin_4)*%
X163560000Y-77738000D03*
%TO.N,Net-(J10-Pin_5)*%
X163560000Y-75238000D03*
%TO.N,Net-(J10-Pin_6)*%
X163560000Y-72738000D03*
%TD*%
D25*
%TO.N,/S3V3*%
%TO.C,J3*%
X82130000Y-107722000D03*
D26*
%TO.N,/GND*%
X82130000Y-105182000D03*
%TO.N,Net-(J3-Pin_3)*%
X82130000Y-102642000D03*
%TO.N,Net-(J3-Pin_4)*%
X82130000Y-100102000D03*
%TO.N,Net-(J3-Pin_5)*%
X82130000Y-97562000D03*
%TO.N,Net-(J3-Pin_6)*%
X82130000Y-95022000D03*
%TO.N,Net-(J3-Pin_7)*%
X82130000Y-92482000D03*
%TO.N,/S3V3*%
X82130000Y-89942000D03*
%TO.N,Net-(J3-Pin_9)*%
X82130000Y-87402000D03*
%TO.N,Net-(J3-Pin_10)*%
X82130000Y-84862000D03*
%TO.N,Net-(J3-Pin_11)*%
X82130000Y-82322000D03*
%TO.N,Net-(J3-Pin_12)*%
X82130000Y-79782000D03*
%TO.N,Net-(J3-Pin_13)*%
X82130000Y-77242000D03*
%TO.N,Net-(J3-Pin_14)*%
X82130000Y-74702000D03*
%TD*%
D27*
%TO.N,*%
%TO.C,TFT1*%
X87050000Y-109572000D03*
X154310000Y-109572000D03*
X87050000Y-72852000D03*
X154310000Y-72852000D03*
%TD*%
D28*
%TO.N,/GND*%
X129270000Y-90445000D03*
D29*
X100314000Y-95398000D03*
X102600000Y-104102000D03*
D28*
X126730000Y-79015000D03*
X124825000Y-80285000D03*
D29*
X83296000Y-111908000D03*
D28*
X149082000Y-88794000D03*
X126095000Y-80285000D03*
X151368000Y-75840000D03*
X149082000Y-83714000D03*
X126730000Y-90445000D03*
D29*
X104886000Y-81428000D03*
D28*
X129270000Y-79015000D03*
D29*
X121904000Y-78126000D03*
X112770000Y-68982000D03*
X97266000Y-93112000D03*
X96504000Y-81682000D03*
D28*
X128000000Y-79015000D03*
D29*
X93710000Y-104102000D03*
X120126000Y-86000000D03*
X99552000Y-76856000D03*
D28*
X126730000Y-81555000D03*
X130540000Y-79015000D03*
X138160000Y-72792000D03*
D29*
X112760000Y-72538000D03*
D28*
X128635000Y-91715000D03*
X125460000Y-92985000D03*
X127365000Y-91715000D03*
D29*
X117078000Y-74824000D03*
D28*
X128635000Y-80285000D03*
D29*
X151622000Y-103526000D03*
D28*
X147050000Y-88794000D03*
X128000000Y-81555000D03*
D29*
X151622000Y-105050000D03*
D28*
X129270000Y-81555000D03*
X129905000Y-91715000D03*
X131175000Y-80285000D03*
X149844000Y-74062000D03*
X147050000Y-83714000D03*
D29*
X107426000Y-99716000D03*
X97266000Y-108606000D03*
X142986000Y-101748000D03*
X108950000Y-76094000D03*
X105902000Y-82952000D03*
X99044000Y-108606000D03*
D28*
X138160000Y-74062000D03*
X125460000Y-79015000D03*
D29*
X111744000Y-83714000D03*
D28*
X130540000Y-92985000D03*
X126095000Y-91715000D03*
X124825000Y-91715000D03*
D29*
X112252000Y-78888000D03*
D28*
X128000000Y-90445000D03*
X127365000Y-80285000D03*
X129270000Y-92985000D03*
D29*
X142986000Y-105050000D03*
D28*
X128000000Y-92985000D03*
X126730000Y-92985000D03*
X129905000Y-80285000D03*
X131175000Y-91715000D03*
D29*
X142986000Y-100224000D03*
X142986000Y-103526000D03*
D28*
%TO.N,/S19V5*%
X140954000Y-88794000D03*
X138922000Y-88794000D03*
X138922000Y-83714000D03*
X140954000Y-83714000D03*
D30*
%TO.N,/NRST*%
X105648000Y-89302000D03*
%TO.N,/CS'*%
X128889000Y-84095000D03*
%TO.N,/SEL0*%
X103870000Y-89302000D03*
%TO.N,/PWM'*%
X128762000Y-87905000D03*
X122666000Y-89556000D03*
%TD*%
%TO.N,/NRST*%
D31*
X105648000Y-89302000D02*
X112506000Y-96160000D01*
X112506000Y-96160000D02*
X112506000Y-98192000D01*
%TO.N,Net-(J5-VBUS-PadA4)*%
D32*
X113982000Y-112874082D02*
X113484082Y-113372000D01*
X111779918Y-112372000D02*
X111657000Y-112372000D01*
X111779918Y-106872000D02*
X112779918Y-105872000D01*
X112779918Y-105872000D02*
X113484082Y-105872000D01*
X113982000Y-106369918D02*
X113982000Y-112874082D01*
X113484082Y-113372000D02*
X112779918Y-113372000D01*
X112779918Y-113372000D02*
X111779918Y-112372000D01*
X113484082Y-105872000D02*
X113982000Y-106369918D01*
X111657000Y-106872000D02*
X111779918Y-106872000D01*
%TO.N,/CS'*%
D31*
X128889000Y-84095000D02*
X124063000Y-84095000D01*
X124063000Y-84095000D02*
X120126000Y-80158000D01*
%TO.N,/SEL0*%
X103870000Y-90064000D02*
X103870000Y-89302000D01*
X110220000Y-96414000D02*
X103870000Y-90064000D01*
%TO.N,/PWM'*%
X124317000Y-87905000D02*
X128762000Y-87905000D01*
X122666000Y-89556000D02*
X124317000Y-87905000D01*
%TD*%
%TA.AperFunction,Conductor*%
%TO.N,/NRST*%
G36*
X106069844Y-90006687D02*
G01*
X106352687Y-89723844D01*
X105965341Y-89058495D01*
X105644873Y-89298873D01*
X105404495Y-89619341D01*
X106069844Y-90006687D01*
G37*
%TD.AperFunction*%
%TD*%
%TA.AperFunction,Conductor*%
%TO.N,Net-(J5-VBUS-PadA4)*%
G36*
X112425140Y-106368200D02*
G01*
X112283718Y-106226778D01*
X111603877Y-106447000D01*
X111717752Y-106934166D01*
X112124649Y-107034640D01*
X112425140Y-106368200D01*
G37*
%TD.AperFunction*%
%TD*%
%TA.AperFunction,Conductor*%
%TO.N,/PWM'*%
G36*
X127965422Y-87705000D02*
G01*
X127965422Y-88105000D01*
X128709790Y-88301578D01*
X128766422Y-87905000D01*
X128709790Y-87508422D01*
X127965422Y-87705000D01*
G37*
%TD.AperFunction*%
%TD*%
%TA.AperFunction,Conductor*%
%TO.N,/CS'*%
G36*
X120688661Y-81003503D02*
G01*
X120971503Y-80720661D01*
X120587940Y-79966658D01*
X120122269Y-80154269D01*
X119934658Y-80619940D01*
X120688661Y-81003503D01*
G37*
%TD.AperFunction*%
%TD*%
%TA.AperFunction,Conductor*%
%TO.N,Net-(J5-VBUS-PadA4)*%
G36*
X112283718Y-113017222D02*
G01*
X112425140Y-112875800D01*
X112124649Y-112209360D01*
X111717752Y-112309834D01*
X111603877Y-112797000D01*
X112283718Y-113017222D01*
G37*
%TD.AperFunction*%
%TD*%
%TA.AperFunction,Conductor*%
%TO.N,/SEL0*%
G36*
X103753029Y-90229871D02*
G01*
X104035871Y-89947029D01*
X104011421Y-89922579D01*
X104070000Y-90064000D01*
X104239552Y-89455073D01*
X103870000Y-89297578D01*
X103500448Y-89455073D01*
X103670000Y-90064000D01*
X103728579Y-90205421D01*
X103753029Y-90229871D01*
G37*
%TD.AperFunction*%
%TD*%
%TA.AperFunction,Conductor*%
%TO.N,/SEL0*%
G36*
X109657339Y-95568497D02*
G01*
X109374497Y-95851339D01*
X109758060Y-96605342D01*
X110223731Y-96417731D01*
X110411342Y-95952060D01*
X109657339Y-95568497D01*
G37*
%TD.AperFunction*%
%TD*%
%TA.AperFunction,Conductor*%
%TO.N,/CS'*%
G36*
X128092422Y-83895000D02*
G01*
X128092422Y-84295000D01*
X128836790Y-84491578D01*
X128893422Y-84095000D01*
X128836790Y-83698422D01*
X128092422Y-83895000D01*
G37*
%TD.AperFunction*%
%TD*%
%TA.AperFunction,Conductor*%
%TO.N,/NRST*%
G36*
X112706000Y-97196278D02*
G01*
X112306000Y-97196278D01*
X112044060Y-98000658D01*
X112506000Y-98197278D01*
X112967940Y-98000658D01*
X112706000Y-97196278D01*
G37*
%TD.AperFunction*%
%TD*%
%TA.AperFunction,Conductor*%
%TO.N,/PWM'*%
G36*
X123370687Y-89134156D02*
G01*
X123087844Y-88851313D01*
X122422495Y-89238659D01*
X122662873Y-89559127D01*
X122983341Y-89799505D01*
X123370687Y-89134156D01*
G37*
%TD.AperFunction*%
%TD*%
M02*
