%TF.GenerationSoftware,KiCad,Pcbnew,10.0.5-unknown-202607221313~667fa36054~ubuntu25.10.1*%
%TF.CreationDate,2026-10-10T19:38:00+00:00*%
%TF.ProjectId,ktest,6b746573-742e-46b6-9963-61645f706362,1.0.1*%
%TF.SameCoordinates,Original*%
%TF.FileFunction,Copper,L4,Bot*%
%TF.FilePolarity,Positive*%
%FSLAX46Y46*%
G04 Gerber Fmt 4.6, Leading zero omitted, Abs format (unit mm)*
G04 Created by KiCad (PCBNEW 10.0.5-unknown-202607221313~667fa36054~ubuntu25.10.1) date 2026-10-10 19:38:00*
%MOMM*%
%LPD*%
G01*
G04 APERTURE LIST*
G04 Aperture macros list*
%AMRoundRect*
0 Rectangle with rounded corners*
0 $1 Rounding radius*
0 $2 $3 $4 $5 $6 $7 $8 $9 X,Y pos of 4 corners*
0 Add a 4 corners polygon primitive as box body*
4,1,4,$2,$3,$4,$5,$6,$7,$8,$9,$2,$3,0*
0 Add four circle primitives for the rounded corners*
1,1,$1+$1,$2,$3*
1,1,$1+$1,$4,$5*
1,1,$1+$1,$6,$7*
1,1,$1+$1,$8,$9*
0 Add four rect primitives between the rounded corners*
20,1,$1+$1,$2,$3,$4,$5,0*
20,1,$1+$1,$4,$5,$6,$7,0*
20,1,$1+$1,$6,$7,$8,$9,0*
20,1,$1+$1,$8,$9,$2,$3,0*%
G04 Aperture macros list end*
%TA.AperFunction,ComponentPad*%
%ADD10C,1.000000*%
%TD*%
%TA.AperFunction,ComponentPad*%
%ADD11C,1.400000*%
%TD*%
%TA.AperFunction,ComponentPad*%
%ADD12C,0.600000*%
%TD*%
%TA.AperFunction,SMDPad,CuDef*%
%ADD13R,4.900000X2.950000*%
%TD*%
%TA.AperFunction,ComponentPad*%
%ADD14O,2.600000X1.600000*%
%TD*%
%TA.AperFunction,ComponentPad*%
%ADD15C,1.600000*%
%TD*%
%TA.AperFunction,ComponentPad*%
%ADD16R,1.600000X2.600000*%
%TD*%
%TA.AperFunction,SMDPad,CuDef*%
%ADD17RoundRect,0.251867X6.225133X0.827633X-6.225133X0.827633X-6.225133X-0.827633X6.225133X-0.827633X0*%
%TD*%
%TA.AperFunction,ComponentPad*%
%ADD18O,1.000000X0.850000*%
%TD*%
%TA.AperFunction,ComponentPad*%
%ADD19O,1.000000X1.800000*%
%TD*%
%TA.AperFunction,ComponentPad*%
%ADD20RoundRect,0.250000X-0.600000X-0.725000X0.600000X-0.725000X0.600000X0.725000X-0.600000X0.725000X0*%
%TD*%
%TA.AperFunction,ComponentPad*%
%ADD21O,1.700000X1.950000*%
%TD*%
%TA.AperFunction,ComponentPad*%
%ADD22RoundRect,0.250000X0.600000X0.725000X-0.600000X0.725000X-0.600000X-0.725000X0.600000X-0.725000X0*%
%TD*%
%TA.AperFunction,ComponentPad*%
%ADD23R,1.090000X1.090000*%
%TD*%
%TA.AperFunction,ComponentPad*%
%ADD24C,1.090000*%
%TD*%
%TA.AperFunction,ComponentPad*%
%ADD25R,1.700000X1.700000*%
%TD*%
%TA.AperFunction,ComponentPad*%
%ADD26C,1.700000*%
%TD*%
%TA.AperFunction,WasherPad*%
%ADD27C,5.000000*%
%TD*%
%TA.AperFunction,ViaPad*%
%ADD28C,1.000000*%
%TD*%
%TA.AperFunction,ViaPad*%
%ADD29C,0.600000*%
%TD*%
%TA.AperFunction,ViaPad*%
%ADD30C,0.800000*%
%TD*%
%TA.AperFunction,Conductor*%
%ADD31C,0.250000*%
%TD*%
G04 APERTURE END LIST*
D10*
%TO.P,TP13,1,1_1*%
%TO.N,/System overview/Block diagram/Microcontroller/ENCb_filt*%
X140613000Y-57173000D03*
%TD*%
%TO.P,TP18,1,1_1*%
%TO.N,/System overview/Block diagram/GND*%
X181253000Y-79779000D03*
%TD*%
D11*
%TO.P,JP9,1*%
%TO.N,/System overview/Block diagram/Display/DISP_DC*%
X118837000Y-62287000D03*
%TO.P,JP9,2*%
%TO.N,Net-(J3-Pin_5)*%
X118837000Y-67367000D03*
%TD*%
D10*
%TO.P,TP10,1,1_1*%
%TO.N,/System overview/Block diagram/DCDC converter 3V3/3V3_REG*%
X175157000Y-71899722D03*
%TD*%
%TO.P,TP7,1,1_1*%
%TO.N,/System overview/Block diagram/GND*%
X119288000Y-76454000D03*
%TD*%
D12*
%TO.P,U1,9,EP_9*%
%TO.N,/System overview/Block diagram/GND*%
X165423000Y-75065000D03*
X164123000Y-75065000D03*
X162823000Y-75065000D03*
X161523000Y-75065000D03*
D13*
X163473000Y-75715000D03*
D12*
X165423000Y-76365000D03*
X164123000Y-76365000D03*
X162823000Y-76365000D03*
X161523000Y-76365000D03*
%TD*%
D10*
%TO.P,TP17,1,1_1*%
%TO.N,/System overview/Block diagram/S3V3*%
X181253000Y-77493000D03*
%TD*%
%TO.P,TP21,1,1_1*%
%TO.N,/System overview/Block diagram/GND*%
X145693000Y-56919000D03*
%TD*%
%TO.P,TP6,1,1_1*%
%TO.N,/System overview/Block diagram/DCDC converter 3V3/SW*%
X163473000Y-84097000D03*
%TD*%
%TO.P,TP8,1,1_1*%
%TO.N,/System overview/Block diagram/Microcontroller/NRST*%
X138073000Y-72667000D03*
%TD*%
D14*
%TO.P,J6,1,+_1*%
%TO.N,/System overview/Block diagram/DCDC converter 3V3/S19V5_2*%
X189400000Y-78451000D03*
X194950000Y-78451000D03*
D15*
%TO.P,J6,2,ID_2*%
%TO.N,unconnected-(J6-ID-Pad2)*%
X192175000Y-78451000D03*
D14*
%TO.P,J6,3,-_3*%
%TO.N,/System overview/Block diagram/DCDC converter 3V3/GND_2*%
X192175000Y-81851000D03*
X192175000Y-85651000D03*
D16*
%TO.P,J6,SH,SH_SH*%
X187400000Y-81551000D03*
X187400000Y-87951000D03*
X196950000Y-81551000D03*
X196950000Y-87951000D03*
%TD*%
D10*
%TO.P,TP14,1,1_1*%
%TO.N,/System overview/Block diagram/Microcontroller/MOT_CS*%
X120039000Y-51331000D03*
%TD*%
%TO.P,TP9,1,1_1*%
%TO.N,/System overview/Block diagram/Microcontroller/BOOT0*%
X139851000Y-61237000D03*
%TD*%
%TO.P,TP5,1,1_1*%
%TO.N,/System overview/Block diagram/DCDC converter 3V3/FB*%
X159663000Y-80795000D03*
%TD*%
D17*
%TO.P,J8,1,+_1*%
%TO.N,/System overview/Block diagram/S19V5*%
X169569000Y-53807500D03*
%TO.P,J8,2,-_2*%
%TO.N,/System overview/Block diagram/GND*%
X169569000Y-50378500D03*
%TD*%
D18*
%TO.P,J5,A1,GND_A1*%
%TO.N,/System overview/Block diagram/GND*%
X135874000Y-87947000D03*
%TO.P,J5,A4,VBUS_A4*%
%TO.N,Net-(J5-VBUS-PadA4)*%
X135874000Y-86847000D03*
%TO.P,J5,A5,CC1_A5*%
%TO.N,/System overview/Block diagram/Microcontroller/CC1*%
X135874000Y-85747000D03*
%TO.P,J5,A6,D+_A6*%
%TO.N,/System overview/Block diagram/Microcontroller/D+*%
X135874000Y-84647000D03*
%TO.P,J5,A7,D-_A7*%
%TO.N,/System overview/Block diagram/Microcontroller/D-*%
X135874000Y-83547000D03*
%TO.P,J5,A8,SBU1_A8*%
%TO.N,unconnected-(J5-SBU1-PadA8)*%
X135874000Y-82447000D03*
%TO.P,J5,A9,VBUS_A9*%
%TO.N,Net-(J5-VBUS-PadA4)*%
X135874000Y-81347000D03*
%TO.P,J5,A12,GND_A12*%
%TO.N,/System overview/Block diagram/GND*%
X135874000Y-80247000D03*
%TO.P,J5,B1,GND_B1*%
X137224000Y-80247000D03*
%TO.P,J5,B4,VBUS_B4*%
%TO.N,Net-(J5-VBUS-PadA4)*%
X137224000Y-81347000D03*
%TO.P,J5,B5,CC2_B5*%
%TO.N,/System overview/Block diagram/Microcontroller/CC2*%
X137224000Y-82447000D03*
%TO.P,J5,B6,D+_B6*%
%TO.N,/System overview/Block diagram/Microcontroller/D+*%
X137224000Y-83547000D03*
%TO.P,J5,B7,D-_B7*%
%TO.N,/System overview/Block diagram/Microcontroller/D-*%
X137224000Y-84647000D03*
%TO.P,J5,B8,SBU2_B8*%
%TO.N,unconnected-(J5-SBU2-PadB8)*%
X137224000Y-85747000D03*
%TO.P,J5,B9,VBUS_B9*%
%TO.N,Net-(J5-VBUS-PadA4)*%
X137224000Y-86847000D03*
%TO.P,J5,B12,GND_B12*%
%TO.N,/System overview/Block diagram/GND*%
X137224000Y-87947000D03*
D19*
%TO.P,J5,SH,SHIELD_SH*%
X134399000Y-86597000D03*
X138699000Y-86597000D03*
X134399000Y-81597000D03*
X138699000Y-81597000D03*
%TD*%
D10*
%TO.P,TP15,1,1_1*%
%TO.N,/System overview/Block diagram/Servomotor interface/CS'*%
X145693000Y-54633000D03*
%TD*%
%TO.P,TP11,1,1_1*%
%TO.N,/System overview/Block diagram/Microcontroller/SEL0*%
X135787000Y-70889000D03*
%TD*%
%TO.P,TP3,1,1_1*%
%TO.N,/System overview/Block diagram/Limit switch interface/TOP_filt*%
X124865000Y-77747000D03*
%TD*%
%TO.P,TP16,1,1_1*%
%TO.N,Net-(J5-VBUS-PadA4)*%
X140613000Y-88161000D03*
%TD*%
%TO.P,TP20,1,1_1*%
%TO.N,/System overview/Block diagram/GND*%
X163219000Y-87907000D03*
%TD*%
%TO.P,TP19,1,1_1*%
%TO.N,/System overview/Block diagram/GND*%
X120039000Y-53871000D03*
%TD*%
%TO.P,TP4,1,1_1*%
%TO.N,/System overview/Block diagram/Limit switch interface/BOT_filt*%
X122579000Y-77747000D03*
%TD*%
%TO.P,TP12,1,1_1*%
%TO.N,/System overview/Block diagram/Microcontroller/ENCa_filt*%
X143153000Y-57173000D03*
%TD*%
%TO.P,TP2,1,1_1*%
%TO.N,/System overview/Block diagram/DCDC converter 3V3/RT*%
X161187000Y-70889000D03*
%TD*%
D20*
%TO.P,J1,1,Pin_1_1*%
%TO.N,/System overview/Block diagram/Limit switch interface/BOT_EOT*%
X120099000Y-86366000D03*
D21*
%TO.P,J1,2,Pin_2_2*%
%TO.N,/System overview/Block diagram/GND*%
X122599000Y-86366000D03*
%TO.P,J1,3,Pin_3_3*%
X125099000Y-86366000D03*
%TO.P,J1,4,Pin_4_4*%
%TO.N,/System overview/Block diagram/Limit switch interface/TOP_EOT*%
X127599000Y-86366000D03*
%TD*%
D11*
%TO.P,JP18,1*%
%TO.N,/System overview/Block diagram/Servomotor interface/SEL0'*%
X158647000Y-58443000D03*
%TO.P,JP18,2*%
%TO.N,/System overview/Block diagram/Microcontroller/SEL0*%
X158647000Y-66063000D03*
%TD*%
D22*
%TO.P,J7,1,Pin_1_1*%
%TO.N,/System overview/Block diagram/Servomotor interface/OUTb*%
X158398300Y-45078000D03*
D21*
%TO.P,J7,2,Pin_2_2*%
%TO.N,/System overview/Block diagram/Servomotor interface/OUTa*%
X155898300Y-45078000D03*
%TO.P,J7,3,Pin_3_3*%
%TO.N,/System overview/Block diagram/S3V3*%
X153398300Y-45078000D03*
%TO.P,J7,4,Pin_4_4*%
%TO.N,/System overview/Block diagram/GND*%
X150898300Y-45078000D03*
%TO.P,J7,5,Pin_5_5*%
%TO.N,/System overview/Block diagram/Servomotor interface/ENCa*%
X148398300Y-45078000D03*
%TO.P,J7,6,Pin_6_6*%
%TO.N,/System overview/Block diagram/Servomotor interface/ENCb*%
X145898300Y-45078000D03*
%TD*%
D10*
%TO.P,TP1,1,1_1*%
%TO.N,/System overview/Block diagram/DCDC converter 3V3/PG*%
X161949000Y-80795000D03*
%TD*%
D11*
%TO.P,JP22,1*%
%TO.N,/System overview/Block diagram/Servomotor interface/OUTb*%
X160845000Y-56665000D03*
%TO.P,JP22,2*%
%TO.N,/System overview/Block diagram/Servomotor interface/OUTb'*%
X160845000Y-64285000D03*
%TD*%
D23*
%TO.P,J4,1,Pin_1_1*%
%TO.N,/System overview/Block diagram/Microcontroller/NRST*%
X146740500Y-81912600D03*
D24*
%TO.P,J4,2,Pin_2_2*%
%TO.N,/System overview/Block diagram/Microcontroller/SWDCLK*%
X146740500Y-83182600D03*
%TO.P,J4,3,Pin_3_3*%
%TO.N,/System overview/Block diagram/Microcontroller/SWO'*%
X148010500Y-81912600D03*
%TO.P,J4,4,Pin_4_4*%
%TO.N,/System overview/Block diagram/Microcontroller/SWDIO*%
X148010500Y-83182600D03*
%TO.P,J4,5,Pin_5_5*%
%TO.N,/System overview/Block diagram/GND*%
X149280500Y-81912600D03*
%TO.P,J4,6,Pin_6_6*%
X149280500Y-83182600D03*
%TO.P,J4,7,Pin_7_7*%
%TO.N,/System overview/Block diagram/S3V3*%
X150550500Y-81912600D03*
%TO.P,J4,8,Pin_8_8*%
X150550500Y-83182600D03*
%TO.P,J4,9,Pin_9_9*%
%TO.N,unconnected-(J4-Pin_9-Pad9)*%
X151820500Y-81912600D03*
%TO.P,J4,10,Pin_10_10*%
%TO.N,unconnected-(J4-Pin_10-Pad10)*%
X151820500Y-83182600D03*
%TD*%
D25*
%TO.P,J2,1,Pin_1_1*%
%TO.N,unconnected-(J2-Pin_1-Pad1)*%
X180877000Y-69497000D03*
D26*
%TO.P,J2,2,Pin_2_2*%
%TO.N,unconnected-(J2-Pin_2-Pad2)*%
X180877000Y-66957000D03*
%TO.P,J2,3,Pin_3_3*%
%TO.N,unconnected-(J2-Pin_3-Pad3)*%
X180877000Y-64417000D03*
%TO.P,J2,4,Pin_4_4*%
%TO.N,unconnected-(J2-Pin_4-Pad4)*%
X180877000Y-61877000D03*
%TD*%
D25*
%TO.P,J3,1,Pin_1_1*%
%TO.N,/System overview/Block diagram/S3V3*%
X107697000Y-82197000D03*
D26*
%TO.P,J3,2,Pin_2_2*%
%TO.N,/System overview/Block diagram/GND*%
X107697000Y-79657000D03*
%TO.P,J3,3,Pin_3_3*%
%TO.N,Net-(J3-Pin_3)*%
X107697000Y-77117000D03*
%TO.P,J3,4,Pin_4_4*%
%TO.N,Net-(J3-Pin_4)*%
X107697000Y-74577000D03*
%TO.P,J3,5,Pin_5_5*%
%TO.N,Net-(J3-Pin_5)*%
X107697000Y-72037000D03*
%TO.P,J3,6,Pin_6_6*%
%TO.N,Net-(J3-Pin_6)*%
X107697000Y-69497000D03*
%TO.P,J3,7,Pin_7_7*%
%TO.N,Net-(J3-Pin_7)*%
X107697000Y-66957000D03*
%TO.P,J3,8,Pin_8_8*%
%TO.N,/System overview/Block diagram/S3V3*%
X107697000Y-64417000D03*
%TO.P,J3,9,Pin_9_9*%
%TO.N,Net-(J3-Pin_9)*%
X107697000Y-61877000D03*
%TO.P,J3,10,Pin_10_10*%
%TO.N,Net-(J3-Pin_10)*%
X107697000Y-59337000D03*
%TO.P,J3,11,Pin_11_11*%
%TO.N,Net-(J3-Pin_11)*%
X107697000Y-56797000D03*
%TO.P,J3,12,Pin_12_12*%
%TO.N,Net-(J3-Pin_12)*%
X107697000Y-54257000D03*
%TO.P,J3,13,Pin_13_13*%
%TO.N,Net-(J3-Pin_13)*%
X107697000Y-51717000D03*
%TO.P,J3,14,Pin_14_14*%
%TO.N,Net-(J3-Pin_14)*%
X107697000Y-49177000D03*
%TD*%
D27*
%TO.P,TFT1,*%
%TO.N,*%
X112617000Y-84047000D03*
X179877000Y-84047000D03*
X112617000Y-47327000D03*
X179877000Y-47327000D03*
%TD*%
D28*
%TO.N,/System overview/Block diagram/GND*%
X154837000Y-64920000D03*
D29*
X125881000Y-69873000D03*
X128167000Y-78577000D03*
D28*
X152297000Y-53490000D03*
X150392000Y-54760000D03*
D29*
X108863000Y-86383000D03*
D28*
X174649000Y-63269000D03*
X151662000Y-54760000D03*
X176935000Y-50315000D03*
X174649000Y-58189000D03*
X152297000Y-64920000D03*
D29*
X130453000Y-55903000D03*
D28*
X154837000Y-53490000D03*
D29*
X147471000Y-52601000D03*
X138337000Y-43457000D03*
X122833000Y-67587000D03*
X122071000Y-56157000D03*
D28*
X153567000Y-53490000D03*
D29*
X119277000Y-78577000D03*
X145693000Y-60475000D03*
X125119000Y-51331000D03*
D28*
X152297000Y-56030000D03*
X156107000Y-53490000D03*
X163727000Y-47267000D03*
D29*
X138327000Y-47013000D03*
D28*
X154202000Y-66190000D03*
X151027000Y-67460000D03*
X152932000Y-66190000D03*
D29*
X142645000Y-49299000D03*
D28*
X154202000Y-54760000D03*
D29*
X177189000Y-78001000D03*
D28*
X172617000Y-63269000D03*
X153567000Y-56030000D03*
D29*
X177189000Y-79525000D03*
D28*
X154837000Y-56030000D03*
X155472000Y-66190000D03*
X156742000Y-54760000D03*
X175411000Y-48537000D03*
X172617000Y-58189000D03*
D29*
X132993000Y-74191000D03*
X122833000Y-83081000D03*
X168553000Y-76223000D03*
X134517000Y-50569000D03*
X131469000Y-57427000D03*
X124611000Y-83081000D03*
D28*
X163727000Y-48537000D03*
X151027000Y-53490000D03*
D29*
X137311000Y-58189000D03*
D28*
X156107000Y-67460000D03*
X151662000Y-66190000D03*
X150392000Y-66190000D03*
D29*
X137819000Y-53363000D03*
D28*
X153567000Y-64920000D03*
X152932000Y-54760000D03*
X154837000Y-67460000D03*
D29*
X168553000Y-79525000D03*
D28*
X153567000Y-67460000D03*
X152297000Y-67460000D03*
X155472000Y-54760000D03*
X156742000Y-66190000D03*
D29*
X168553000Y-74699000D03*
X168553000Y-78001000D03*
D28*
%TO.N,/System overview/Block diagram/S19V5*%
X166521000Y-63269000D03*
X164489000Y-63269000D03*
X164489000Y-58189000D03*
X166521000Y-58189000D03*
D30*
%TO.N,/System overview/Block diagram/Microcontroller/NRST*%
X131215000Y-63777000D03*
%TO.N,/System overview/Block diagram/Servomotor interface/CS'*%
X154456000Y-58570000D03*
%TO.N,/System overview/Block diagram/Microcontroller/SEL0*%
X129437000Y-63777000D03*
%TO.N,/System overview/Block diagram/Servomotor interface/PWM'*%
X154329000Y-62380000D03*
X148233000Y-64031000D03*
%TD*%
%TO.N,/System overview/Block diagram/Microcontroller/D+*%
D31*
X137117629Y-83547000D02*
X137224000Y-83547000D01*
X136017629Y-84647000D02*
X137117629Y-83547000D01*
X135874000Y-84647000D02*
X136017629Y-84647000D01*
%TD*%
%TA.AperFunction,Conductor*%
%TO.N,/System overview/Block diagram/GND*%
G36*
X183697106Y-40668023D02*
G01*
X183712104Y-40672427D01*
X183770855Y-40710172D01*
X183772042Y-40711541D01*
X183799518Y-40766402D01*
X183801163Y-40773960D01*
X183804000Y-40800331D01*
X183804000Y-43062000D01*
X183803576Y-43072240D01*
X183802731Y-43082437D01*
X183801464Y-43092604D01*
X183800500Y-43098381D01*
X183800500Y-64897616D01*
X183800499Y-64897616D01*
X183801464Y-64903396D01*
X183802730Y-64913547D01*
X183803576Y-64923748D01*
X183804000Y-64933997D01*
X183804000Y-90559170D01*
X183798975Y-90594114D01*
X183794570Y-90609112D01*
X183756827Y-90667855D01*
X183755458Y-90669042D01*
X183700597Y-90696518D01*
X183693039Y-90698163D01*
X183666668Y-90701000D01*
X104432830Y-90701000D01*
X104397889Y-90695975D01*
X104382890Y-90691570D01*
X104324144Y-90653827D01*
X104322957Y-90652458D01*
X104295477Y-90597583D01*
X104293832Y-90590021D01*
X104291000Y-90563668D01*
X104291000Y-88208471D01*
X139857237Y-88208471D01*
X139891338Y-88379899D01*
X139891344Y-88379919D01*
X139947908Y-88516481D01*
X139947913Y-88516490D01*
X139947923Y-88516507D01*
X140030049Y-88639417D01*
X140030050Y-88639418D01*
X140030055Y-88639424D01*
X140134574Y-88743943D01*
X140134580Y-88743948D01*
X140134584Y-88743951D01*
X140257498Y-88826080D01*
X140257511Y-88826087D01*
X140388487Y-88880338D01*
X140392910Y-88882430D01*
X140393638Y-88882571D01*
X140394382Y-88882717D01*
X140539077Y-88911500D01*
X140539079Y-88911500D01*
X140539082Y-88911500D01*
X140686920Y-88911500D01*
X140784462Y-88892096D01*
X140831913Y-88882658D01*
X140968495Y-88826084D01*
X141091416Y-88743951D01*
X141195951Y-88639416D01*
X141278084Y-88516495D01*
X141334658Y-88379913D01*
X141363500Y-88234918D01*
X141363500Y-88087082D01*
X141363500Y-88087079D01*
X141363500Y-88087076D01*
X141334717Y-87942382D01*
X141334571Y-87941638D01*
X141334430Y-87940910D01*
X141332338Y-87936487D01*
X141278087Y-87805511D01*
X141278080Y-87805498D01*
X141195951Y-87682584D01*
X141195948Y-87682580D01*
X141195943Y-87682574D01*
X141091424Y-87578055D01*
X141091418Y-87578050D01*
X141091417Y-87578049D01*
X140968507Y-87495923D01*
X140968506Y-87495922D01*
X140968501Y-87495919D01*
X140968488Y-87495912D01*
X140968481Y-87495908D01*
X140847054Y-87445613D01*
X140831917Y-87439343D01*
X140831907Y-87439340D01*
X140831905Y-87439339D01*
X140831900Y-87439338D01*
X140686922Y-87410500D01*
X140686920Y-87410500D01*
X140686918Y-87410500D01*
X140539082Y-87410500D01*
X140539080Y-87410500D01*
X140539078Y-87410500D01*
X140394096Y-87439338D01*
X140394079Y-87439344D01*
X140257517Y-87495908D01*
X140257508Y-87495913D01*
X140257491Y-87495923D01*
X140134581Y-87578049D01*
X140134580Y-87578050D01*
X140134574Y-87578055D01*
X140030055Y-87682574D01*
X140030050Y-87682580D01*
X140030049Y-87682581D01*
X139947923Y-87805491D01*
X139947913Y-87805508D01*
X139947908Y-87805517D01*
X139891344Y-87942079D01*
X139891338Y-87942098D01*
X139862500Y-88087076D01*
X139862500Y-88190551D01*
X139857237Y-88208471D01*
X104291000Y-88208471D01*
X104291000Y-83892521D01*
X109866500Y-83892521D01*
X109866500Y-84201477D01*
X109901083Y-84508422D01*
X109901089Y-84508457D01*
X109969831Y-84809634D01*
X109969835Y-84809650D01*
X109969842Y-84809671D01*
X110071859Y-85101216D01*
X110071862Y-85101222D01*
X110071868Y-85101236D01*
X110123646Y-85208754D01*
X110205902Y-85379560D01*
X110206106Y-85379918D01*
X110206792Y-85380977D01*
X110235734Y-85427038D01*
X110370265Y-85641143D01*
X110562880Y-85882674D01*
X110781326Y-86101120D01*
X111022857Y-86293735D01*
X111284435Y-86458095D01*
X111562771Y-86592135D01*
X111562775Y-86592136D01*
X111562877Y-86592178D01*
X111563639Y-86592438D01*
X111651686Y-86623247D01*
X111854327Y-86694156D01*
X111854348Y-86694163D01*
X111854352Y-86694164D01*
X111854364Y-86694168D01*
X112079889Y-86745642D01*
X112154381Y-86762645D01*
X112155443Y-86762899D01*
X112155546Y-86762910D01*
X112155548Y-86762911D01*
X112155550Y-86762911D01*
X112155557Y-86762911D01*
X112155562Y-86762913D01*
X112360206Y-86785970D01*
X112442691Y-86795263D01*
X112459511Y-86797159D01*
X112461994Y-86797500D01*
X112771468Y-86797500D01*
X112781263Y-86797500D01*
X112788862Y-86795539D01*
X112928356Y-86779822D01*
X113077749Y-86762990D01*
X113078390Y-86762922D01*
X113078437Y-86762914D01*
X113078448Y-86762911D01*
X113078452Y-86762911D01*
X113379636Y-86694168D01*
X113671229Y-86592135D01*
X113949565Y-86458095D01*
X114211143Y-86293735D01*
X114452674Y-86101120D01*
X114671120Y-85882674D01*
X114863735Y-85641143D01*
X114893907Y-85593125D01*
X118998500Y-85593125D01*
X118998500Y-87138876D01*
X118998659Y-87140806D01*
X118998885Y-87142454D01*
X119004907Y-87198482D01*
X119028405Y-87261482D01*
X119055202Y-87333328D01*
X119055203Y-87333330D01*
X119055204Y-87333332D01*
X119141450Y-87448542D01*
X119141452Y-87448544D01*
X119141455Y-87448547D01*
X119256664Y-87534793D01*
X119256671Y-87534797D01*
X119306155Y-87553253D01*
X119341513Y-87579721D01*
X119398444Y-87585835D01*
X119398443Y-87585839D01*
X119398458Y-87585836D01*
X119451127Y-87591500D01*
X120746872Y-87591499D01*
X120806483Y-87585091D01*
X120941331Y-87534796D01*
X121056546Y-87448546D01*
X121142796Y-87333331D01*
X121193091Y-87198483D01*
X121199500Y-87138873D01*
X121199499Y-86154389D01*
X126498500Y-86154389D01*
X126498500Y-86158814D01*
X126498500Y-86577610D01*
X126516960Y-86694167D01*
X126525598Y-86748701D01*
X126579127Y-86913445D01*
X126657768Y-87067788D01*
X126759586Y-87207928D01*
X126882072Y-87330414D01*
X127022212Y-87432232D01*
X127176555Y-87510873D01*
X127341299Y-87564402D01*
X127512389Y-87591500D01*
X127512390Y-87591500D01*
X127685610Y-87591500D01*
X127685611Y-87591500D01*
X127856701Y-87564402D01*
X128021445Y-87510873D01*
X128175788Y-87432232D01*
X128315928Y-87330414D01*
X128438414Y-87207928D01*
X128540232Y-87067788D01*
X128618873Y-86913445D01*
X128672402Y-86748701D01*
X128699500Y-86577611D01*
X128699500Y-86154389D01*
X128672402Y-85983299D01*
X128618873Y-85818555D01*
X128540232Y-85664212D01*
X128438414Y-85524072D01*
X128315928Y-85401586D01*
X128175788Y-85299768D01*
X128143762Y-85283450D01*
X128021449Y-85221128D01*
X127865532Y-85170467D01*
X127861010Y-85168614D01*
X127851820Y-85166444D01*
X127847057Y-85166070D01*
X127768741Y-85153666D01*
X127725271Y-85146781D01*
X127709407Y-85144268D01*
X127685614Y-85140500D01*
X127685611Y-85140500D01*
X127512389Y-85140500D01*
X127512388Y-85140500D01*
X127472726Y-85146781D01*
X127472725Y-85146780D01*
X127341304Y-85167596D01*
X127176549Y-85221129D01*
X127022210Y-85299768D01*
X126942256Y-85357859D01*
X126942255Y-85357859D01*
X126893941Y-85392961D01*
X126886564Y-85397092D01*
X126755094Y-85528562D01*
X126750965Y-85535936D01*
X126740775Y-85549963D01*
X126740774Y-85549965D01*
X126740771Y-85549969D01*
X126657768Y-85664211D01*
X126657765Y-85664215D01*
X126657764Y-85664218D01*
X126579129Y-85818549D01*
X126525596Y-85983305D01*
X126525595Y-85983306D01*
X126512432Y-86066422D01*
X126512347Y-86066961D01*
X126498500Y-86154389D01*
X121199499Y-86154389D01*
X121199499Y-85593128D01*
X121193091Y-85533517D01*
X121189568Y-85524072D01*
X121153374Y-85427031D01*
X121142798Y-85398673D01*
X121142797Y-85398671D01*
X121142795Y-85398668D01*
X121142793Y-85398664D01*
X121056547Y-85283455D01*
X121056544Y-85283452D01*
X121056542Y-85283450D01*
X120976269Y-85223358D01*
X120941335Y-85197206D01*
X120941332Y-85197204D01*
X120941330Y-85197203D01*
X120941328Y-85197202D01*
X120891844Y-85178746D01*
X120856497Y-85152284D01*
X120754583Y-85141328D01*
X120749742Y-85140500D01*
X120746881Y-85140500D01*
X120746873Y-85140500D01*
X120746864Y-85140500D01*
X119451129Y-85140500D01*
X119451123Y-85140500D01*
X119449192Y-85140659D01*
X119447545Y-85140885D01*
X119391516Y-85146908D01*
X119288730Y-85185245D01*
X119256666Y-85197204D01*
X119256665Y-85197205D01*
X119141456Y-85283450D01*
X119141450Y-85283456D01*
X119055205Y-85398665D01*
X119055203Y-85398668D01*
X119004908Y-85533516D01*
X118998500Y-85593125D01*
X114893907Y-85593125D01*
X115028095Y-85379565D01*
X115162135Y-85101229D01*
X115264168Y-84809636D01*
X115264169Y-84809634D01*
X115296908Y-84666189D01*
X115332911Y-84508452D01*
X115332915Y-84508422D01*
X115339501Y-84449970D01*
X115354605Y-84315913D01*
X115354605Y-84315912D01*
X115354606Y-84315906D01*
X115367500Y-84201465D01*
X115367500Y-83892535D01*
X115344647Y-83689705D01*
X115332913Y-83585562D01*
X115332910Y-83585544D01*
X115308927Y-83480469D01*
X115308926Y-83480466D01*
X115279143Y-83349976D01*
X115264168Y-83284364D01*
X115244305Y-83227600D01*
X115162417Y-82993578D01*
X115162177Y-82992876D01*
X115162133Y-82992767D01*
X115121946Y-82909319D01*
X115028095Y-82714435D01*
X114863735Y-82452857D01*
X114671120Y-82211326D01*
X114586814Y-82127020D01*
X114452683Y-81992888D01*
X114452672Y-81992878D01*
X114450257Y-81990953D01*
X114450248Y-81990946D01*
X114428320Y-81973459D01*
X114364176Y-81922305D01*
X114211143Y-81800265D01*
X113999003Y-81666969D01*
X113949562Y-81635903D01*
X113949563Y-81635903D01*
X113949556Y-81635899D01*
X113671233Y-81501866D01*
X113671231Y-81501865D01*
X113671224Y-81501863D01*
X113671225Y-81501863D01*
X113671222Y-81501862D01*
X113658029Y-81497245D01*
X113379676Y-81399844D01*
X113379654Y-81399836D01*
X113379625Y-81399828D01*
X113376696Y-81399160D01*
X113376696Y-81399159D01*
X113323796Y-81387085D01*
X135118237Y-81387085D01*
X135147822Y-81535808D01*
X135149458Y-81544030D01*
X135149461Y-81544040D01*
X135200376Y-81666961D01*
X135200378Y-81666964D01*
X135200379Y-81666967D01*
X135200382Y-81666973D01*
X135200385Y-81666978D01*
X135200386Y-81666979D01*
X135209442Y-81680533D01*
X135274302Y-81777602D01*
X135274305Y-81777607D01*
X135293408Y-81796710D01*
X135314563Y-81824970D01*
X135322054Y-81838690D01*
X135336905Y-81906948D01*
X135336776Y-81908754D01*
X135317408Y-81966956D01*
X135313229Y-81973459D01*
X135296593Y-81994103D01*
X135274314Y-82016381D01*
X135274307Y-82016389D01*
X135274305Y-82016392D01*
X135274302Y-82016396D01*
X135200382Y-82127025D01*
X135200379Y-82127031D01*
X135200376Y-82127037D01*
X135200376Y-82127038D01*
X135149958Y-82248761D01*
X135149459Y-82249965D01*
X135149456Y-82249976D01*
X135123500Y-82380463D01*
X135123500Y-82469165D01*
X135118237Y-82487085D01*
X135149456Y-82644022D01*
X135149458Y-82644030D01*
X135149461Y-82644040D01*
X135200376Y-82766961D01*
X135200378Y-82766964D01*
X135200379Y-82766967D01*
X135200382Y-82766973D01*
X135200385Y-82766978D01*
X135200386Y-82766979D01*
X135224190Y-82802605D01*
X135274302Y-82877602D01*
X135274305Y-82877607D01*
X135293408Y-82896710D01*
X135314563Y-82924970D01*
X135322054Y-82938690D01*
X135336905Y-83006948D01*
X135336776Y-83008754D01*
X135317408Y-83066956D01*
X135313229Y-83073459D01*
X135296593Y-83094103D01*
X135274314Y-83116381D01*
X135274307Y-83116389D01*
X135274305Y-83116392D01*
X135274302Y-83116396D01*
X135200382Y-83227025D01*
X135200379Y-83227031D01*
X135200376Y-83227037D01*
X135200376Y-83227038D01*
X135149959Y-83348759D01*
X135149459Y-83349965D01*
X135149456Y-83349976D01*
X135123500Y-83480463D01*
X135123500Y-83569165D01*
X135118237Y-83587085D01*
X135148958Y-83741517D01*
X135149458Y-83744030D01*
X135149461Y-83744040D01*
X135200376Y-83866961D01*
X135200378Y-83866965D01*
X135200377Y-83866965D01*
X135200380Y-83866970D01*
X135200385Y-83866978D01*
X135200386Y-83866979D01*
X135260891Y-83957532D01*
X135274302Y-83977602D01*
X135274305Y-83977607D01*
X135293408Y-83996710D01*
X135314563Y-84024970D01*
X135322054Y-84038690D01*
X135336905Y-84106948D01*
X135336776Y-84108754D01*
X135317408Y-84166956D01*
X135313229Y-84173459D01*
X135296593Y-84194103D01*
X135274314Y-84216381D01*
X135274307Y-84216389D01*
X135274307Y-84216390D01*
X135274301Y-84216398D01*
X135229993Y-84282709D01*
X135200382Y-84327025D01*
X135200379Y-84327031D01*
X135200377Y-84327036D01*
X135200376Y-84327038D01*
X135149469Y-84449942D01*
X135149459Y-84449965D01*
X135149456Y-84449976D01*
X135123500Y-84580463D01*
X135123500Y-84669165D01*
X135118237Y-84687085D01*
X135144411Y-84818659D01*
X135149458Y-84844030D01*
X135149461Y-84844040D01*
X135200376Y-84966961D01*
X135200378Y-84966964D01*
X135200379Y-84966967D01*
X135200382Y-84966973D01*
X135274302Y-85077602D01*
X135274305Y-85077607D01*
X135293408Y-85096710D01*
X135314563Y-85124970D01*
X135322054Y-85138690D01*
X135336905Y-85206948D01*
X135336776Y-85208754D01*
X135317408Y-85266956D01*
X135313229Y-85273459D01*
X135296593Y-85294103D01*
X135274314Y-85316381D01*
X135274307Y-85316389D01*
X135274305Y-85316392D01*
X135274302Y-85316396D01*
X135200382Y-85427025D01*
X135200379Y-85427031D01*
X135200376Y-85427037D01*
X135200376Y-85427038D01*
X135149650Y-85549504D01*
X135149459Y-85549965D01*
X135149458Y-85549969D01*
X135123500Y-85680463D01*
X135123500Y-85769165D01*
X135118237Y-85787085D01*
X135149456Y-85944022D01*
X135149458Y-85944030D01*
X135149461Y-85944040D01*
X135200376Y-86066961D01*
X135200378Y-86066964D01*
X135200379Y-86066967D01*
X135200382Y-86066973D01*
X135200385Y-86066978D01*
X135200386Y-86066979D01*
X135258791Y-86154389D01*
X135274302Y-86177602D01*
X135274305Y-86177607D01*
X135293408Y-86196710D01*
X135314563Y-86224970D01*
X135322054Y-86238690D01*
X135336905Y-86306948D01*
X135336776Y-86308754D01*
X135317408Y-86366956D01*
X135313229Y-86373459D01*
X135296593Y-86394103D01*
X135274314Y-86416381D01*
X135274307Y-86416389D01*
X135274305Y-86416392D01*
X135274302Y-86416396D01*
X135200382Y-86527025D01*
X135200379Y-86527031D01*
X135200376Y-86527037D01*
X135200376Y-86527038D01*
X135149959Y-86648759D01*
X135149459Y-86649965D01*
X135149456Y-86649976D01*
X135123500Y-86780463D01*
X135123500Y-86869165D01*
X135118237Y-86887085D01*
X135149456Y-87044022D01*
X135149458Y-87044030D01*
X135149461Y-87044040D01*
X135200376Y-87166961D01*
X135200378Y-87166964D01*
X135200379Y-87166967D01*
X135200382Y-87166973D01*
X135200385Y-87166978D01*
X135200386Y-87166979D01*
X135262021Y-87259223D01*
X135274302Y-87277602D01*
X135274305Y-87277607D01*
X135274310Y-87277613D01*
X135368385Y-87371688D01*
X135368389Y-87371691D01*
X135368390Y-87371692D01*
X135368398Y-87371698D01*
X135458994Y-87432232D01*
X135476232Y-87443750D01*
X135479190Y-87445845D01*
X135483071Y-87447293D01*
X135596369Y-87494222D01*
X135600764Y-87496301D01*
X135601962Y-87496539D01*
X135601964Y-87496540D01*
X135601965Y-87496540D01*
X135601968Y-87496540D01*
X135601969Y-87496541D01*
X135644669Y-87505035D01*
X135732464Y-87522500D01*
X136015533Y-87522500D01*
X136015535Y-87522500D01*
X136103320Y-87505036D01*
X136103323Y-87505036D01*
X136121653Y-87501389D01*
X136146036Y-87496540D01*
X136268969Y-87445620D01*
X136379606Y-87371695D01*
X136417973Y-87333328D01*
X136448713Y-87302587D01*
X136476964Y-87281439D01*
X136490688Y-87273945D01*
X136558946Y-87259094D01*
X136560756Y-87259223D01*
X136618953Y-87278589D01*
X136625471Y-87282778D01*
X136646101Y-87299403D01*
X136718390Y-87371692D01*
X136718398Y-87371698D01*
X136808994Y-87432232D01*
X136826232Y-87443750D01*
X136829190Y-87445845D01*
X136833071Y-87447293D01*
X136946369Y-87494222D01*
X136950764Y-87496301D01*
X136951962Y-87496539D01*
X136951964Y-87496540D01*
X136951965Y-87496540D01*
X136951968Y-87496540D01*
X136951969Y-87496541D01*
X136994669Y-87505035D01*
X137082464Y-87522500D01*
X137365533Y-87522500D01*
X137365535Y-87522500D01*
X137453320Y-87505036D01*
X137453323Y-87505036D01*
X137471653Y-87501389D01*
X137496036Y-87496540D01*
X137618969Y-87445620D01*
X137729606Y-87371695D01*
X137823695Y-87277606D01*
X137897620Y-87166969D01*
X137948540Y-87044036D01*
X137974500Y-86913531D01*
X137974500Y-86780469D01*
X137974500Y-86780466D01*
X137974500Y-86780463D01*
X137948300Y-86648759D01*
X137946215Y-86644349D01*
X137897623Y-86527037D01*
X137897621Y-86527033D01*
X137897620Y-86527031D01*
X137851559Y-86458096D01*
X137823698Y-86416398D01*
X137823692Y-86416390D01*
X137823691Y-86416389D01*
X137823688Y-86416385D01*
X137804591Y-86397289D01*
X137783436Y-86369029D01*
X137775945Y-86355309D01*
X137761094Y-86287051D01*
X137761223Y-86285242D01*
X137780593Y-86227041D01*
X137784777Y-86220530D01*
X137801407Y-86199895D01*
X137823694Y-86177608D01*
X137823695Y-86177604D01*
X137897620Y-86066969D01*
X137948540Y-85944036D01*
X137973501Y-85818555D01*
X137974500Y-85813533D01*
X137974500Y-85680466D01*
X137974500Y-85680463D01*
X137948597Y-85550250D01*
X137948451Y-85549504D01*
X137948313Y-85548788D01*
X137946220Y-85544364D01*
X137899300Y-85431086D01*
X137897997Y-85427597D01*
X137897621Y-85427034D01*
X137897620Y-85427031D01*
X137880618Y-85401586D01*
X137823698Y-85316398D01*
X137823692Y-85316390D01*
X137823690Y-85316388D01*
X137823688Y-85316385D01*
X137804591Y-85297289D01*
X137783436Y-85269029D01*
X137775945Y-85255309D01*
X137761094Y-85187051D01*
X137761223Y-85185242D01*
X137780593Y-85127041D01*
X137784777Y-85120530D01*
X137801407Y-85099895D01*
X137823694Y-85077608D01*
X137823695Y-85077604D01*
X137897620Y-84966969D01*
X137948540Y-84844036D01*
X137974500Y-84713531D01*
X137974500Y-84580469D01*
X137974500Y-84580466D01*
X137974500Y-84580463D01*
X137949046Y-84452507D01*
X137948541Y-84449969D01*
X137948540Y-84449968D01*
X137948300Y-84448759D01*
X137946215Y-84444349D01*
X137897622Y-84327036D01*
X137897620Y-84327031D01*
X137890191Y-84315913D01*
X137823698Y-84216398D01*
X137823692Y-84216390D01*
X137804591Y-84197289D01*
X137783436Y-84169029D01*
X137775945Y-84155309D01*
X137773587Y-84144471D01*
X162717237Y-84144471D01*
X162751338Y-84315899D01*
X162751340Y-84315907D01*
X162751343Y-84315917D01*
X162755950Y-84327039D01*
X162807908Y-84452481D01*
X162807912Y-84452488D01*
X162807916Y-84452496D01*
X162807923Y-84452507D01*
X162890049Y-84575417D01*
X162890050Y-84575418D01*
X162890055Y-84575424D01*
X162994574Y-84679943D01*
X162994580Y-84679948D01*
X162994584Y-84679951D01*
X163117498Y-84762080D01*
X163117511Y-84762087D01*
X163232306Y-84809636D01*
X163248474Y-84816333D01*
X163252885Y-84818419D01*
X163399076Y-84847500D01*
X163399079Y-84847500D01*
X163399082Y-84847500D01*
X163546920Y-84847500D01*
X163644462Y-84828096D01*
X163691913Y-84818658D01*
X163828495Y-84762084D01*
X163951416Y-84679951D01*
X164055951Y-84575416D01*
X164138084Y-84452495D01*
X164139135Y-84449959D01*
X164190050Y-84327038D01*
X164194658Y-84315913D01*
X164214455Y-84216390D01*
X164223500Y-84170920D01*
X164223500Y-84023079D01*
X164223500Y-84023076D01*
X164201652Y-83913248D01*
X164201647Y-83913223D01*
X164197531Y-83892530D01*
X164197529Y-83892521D01*
X177126500Y-83892521D01*
X177126500Y-84201477D01*
X177161083Y-84508422D01*
X177161089Y-84508457D01*
X177229831Y-84809634D01*
X177229835Y-84809650D01*
X177229842Y-84809671D01*
X177331859Y-85101216D01*
X177331862Y-85101222D01*
X177331868Y-85101236D01*
X177383646Y-85208754D01*
X177465902Y-85379560D01*
X177466106Y-85379918D01*
X177466792Y-85380977D01*
X177495734Y-85427038D01*
X177630265Y-85641143D01*
X177822880Y-85882674D01*
X178041326Y-86101120D01*
X178282857Y-86293735D01*
X178544435Y-86458095D01*
X178822771Y-86592135D01*
X178822775Y-86592136D01*
X178822877Y-86592178D01*
X178823639Y-86592438D01*
X178911686Y-86623247D01*
X179114327Y-86694156D01*
X179114348Y-86694163D01*
X179114352Y-86694164D01*
X179114364Y-86694168D01*
X179339889Y-86745642D01*
X179414381Y-86762645D01*
X179415443Y-86762899D01*
X179415546Y-86762910D01*
X179415548Y-86762911D01*
X179415550Y-86762911D01*
X179415557Y-86762911D01*
X179415562Y-86762913D01*
X179620206Y-86785970D01*
X179702691Y-86795263D01*
X179719511Y-86797159D01*
X179721994Y-86797500D01*
X180031468Y-86797500D01*
X180041263Y-86797500D01*
X180048862Y-86795539D01*
X180188356Y-86779822D01*
X180337749Y-86762990D01*
X180338390Y-86762922D01*
X180338437Y-86762914D01*
X180338448Y-86762911D01*
X180338452Y-86762911D01*
X180639636Y-86694168D01*
X180931229Y-86592135D01*
X181209565Y-86458095D01*
X181471143Y-86293735D01*
X181712674Y-86101120D01*
X181931120Y-85882674D01*
X182123735Y-85641143D01*
X182288095Y-85379565D01*
X182422135Y-85101229D01*
X182524168Y-84809636D01*
X182524169Y-84809634D01*
X182556908Y-84666189D01*
X182592911Y-84508452D01*
X182592915Y-84508422D01*
X182599501Y-84449970D01*
X182614605Y-84315913D01*
X182614605Y-84315912D01*
X182614606Y-84315906D01*
X182627500Y-84201465D01*
X182627500Y-83892535D01*
X182604647Y-83689705D01*
X182592913Y-83585562D01*
X182592910Y-83585544D01*
X182568927Y-83480469D01*
X182568926Y-83480466D01*
X182539143Y-83349976D01*
X182524168Y-83284364D01*
X182504305Y-83227600D01*
X182422417Y-82993578D01*
X182422177Y-82992876D01*
X182422133Y-82992767D01*
X182381946Y-82909319D01*
X182288095Y-82714435D01*
X182123735Y-82452857D01*
X181931120Y-82211326D01*
X181846814Y-82127020D01*
X181712683Y-81992888D01*
X181712672Y-81992878D01*
X181710257Y-81990953D01*
X181710248Y-81990946D01*
X181688320Y-81973459D01*
X181624176Y-81922305D01*
X181471143Y-81800265D01*
X181259003Y-81666969D01*
X181209562Y-81635903D01*
X181209563Y-81635903D01*
X181209556Y-81635899D01*
X180931233Y-81501866D01*
X180931231Y-81501865D01*
X180931216Y-81501859D01*
X180639671Y-81399842D01*
X180639650Y-81399835D01*
X180639638Y-81399832D01*
X180639635Y-81399831D01*
X180501909Y-81368396D01*
X180338457Y-81331089D01*
X180338422Y-81331083D01*
X180031477Y-81296500D01*
X180031471Y-81296500D01*
X180031465Y-81296500D01*
X179722535Y-81296500D01*
X179722528Y-81296500D01*
X179722521Y-81296500D01*
X179415576Y-81331083D01*
X179415541Y-81331089D01*
X179170208Y-81387085D01*
X179114378Y-81399828D01*
X179114360Y-81399832D01*
X179114348Y-81399835D01*
X179114327Y-81399842D01*
X178822782Y-81501859D01*
X178822767Y-81501865D01*
X178822765Y-81501866D01*
X178544442Y-81635899D01*
X178282859Y-81800263D01*
X178041326Y-81992878D01*
X177822878Y-82211326D01*
X177630263Y-82452859D01*
X177465899Y-82714442D01*
X177331866Y-82992765D01*
X177331865Y-82992767D01*
X177331859Y-82992782D01*
X177229842Y-83284327D01*
X177229835Y-83284348D01*
X177229835Y-83284350D01*
X177229835Y-83284352D01*
X177229831Y-83284364D01*
X177209066Y-83375343D01*
X177161089Y-83585541D01*
X177161083Y-83585576D01*
X177126500Y-83892521D01*
X164197529Y-83892521D01*
X164194658Y-83878087D01*
X164192909Y-83873865D01*
X164190054Y-83866970D01*
X164142878Y-83753078D01*
X164138087Y-83741511D01*
X164138080Y-83741498D01*
X164055951Y-83618584D01*
X164055948Y-83618580D01*
X164055943Y-83618574D01*
X163951424Y-83514055D01*
X163951418Y-83514050D01*
X163951417Y-83514049D01*
X163828507Y-83431923D01*
X163828506Y-83431922D01*
X163828501Y-83431919D01*
X163828488Y-83431912D01*
X163828481Y-83431908D01*
X163691919Y-83375344D01*
X163691920Y-83375344D01*
X163691917Y-83375343D01*
X163691907Y-83375340D01*
X163691905Y-83375339D01*
X163691900Y-83375338D01*
X163546922Y-83346500D01*
X163546920Y-83346500D01*
X163546918Y-83346500D01*
X163399082Y-83346500D01*
X163399080Y-83346500D01*
X163399078Y-83346500D01*
X163254096Y-83375338D01*
X163254079Y-83375344D01*
X163117517Y-83431908D01*
X163117508Y-83431913D01*
X163117491Y-83431923D01*
X162994581Y-83514049D01*
X162994580Y-83514050D01*
X162994574Y-83514055D01*
X162890055Y-83618574D01*
X162890050Y-83618580D01*
X162890049Y-83618581D01*
X162807923Y-83741491D01*
X162807913Y-83741508D01*
X162807908Y-83741517D01*
X162751344Y-83878079D01*
X162751338Y-83878098D01*
X162722500Y-84023076D01*
X162722500Y-84126551D01*
X162717237Y-84144471D01*
X137773587Y-84144471D01*
X137761094Y-84087051D01*
X137761223Y-84085242D01*
X137780593Y-84027041D01*
X137784777Y-84020530D01*
X137801407Y-83999895D01*
X137823694Y-83977608D01*
X137823695Y-83977604D01*
X137897620Y-83866969D01*
X137948540Y-83744036D01*
X137953389Y-83719653D01*
X137957036Y-83701323D01*
X137957036Y-83701319D01*
X137964482Y-83663889D01*
X137974500Y-83613537D01*
X137974500Y-83480463D01*
X137953589Y-83375344D01*
X137948541Y-83349969D01*
X137948540Y-83349968D01*
X137948300Y-83348759D01*
X137946215Y-83344349D01*
X137917521Y-83275075D01*
X137900715Y-83234503D01*
X145939737Y-83234503D01*
X145975567Y-83414625D01*
X145975569Y-83414633D01*
X145975572Y-83414643D01*
X145975575Y-83414651D01*
X145975580Y-83414665D01*
X146035527Y-83559390D01*
X146035535Y-83559408D01*
X146035544Y-83559423D01*
X146122595Y-83689703D01*
X146122596Y-83689704D01*
X146122601Y-83689710D01*
X146233388Y-83800497D01*
X146233394Y-83800502D01*
X146233395Y-83800503D01*
X146233398Y-83800505D01*
X146363682Y-83887559D01*
X146363695Y-83887566D01*
X146502869Y-83945213D01*
X146507283Y-83947301D01*
X146508015Y-83947442D01*
X146508763Y-83947589D01*
X146662145Y-83978100D01*
X146662147Y-83978100D01*
X146662150Y-83978100D01*
X146818852Y-83978100D01*
X146922246Y-83957532D01*
X146972539Y-83947529D01*
X147084504Y-83901151D01*
X147110761Y-83890275D01*
X147113554Y-83889302D01*
X147114989Y-83888638D01*
X147119653Y-83886593D01*
X147128919Y-83882755D01*
X147137804Y-83873869D01*
X147247602Y-83800505D01*
X147247605Y-83800502D01*
X147275213Y-83772893D01*
X147303464Y-83751745D01*
X147317188Y-83744251D01*
X147385446Y-83729400D01*
X147387256Y-83729529D01*
X147445453Y-83748895D01*
X147451971Y-83753084D01*
X147472602Y-83769710D01*
X147503389Y-83800497D01*
X147503395Y-83800503D01*
X147503398Y-83800505D01*
X147633682Y-83887559D01*
X147633695Y-83887566D01*
X147772869Y-83945213D01*
X147777283Y-83947301D01*
X147778015Y-83947442D01*
X147778763Y-83947589D01*
X147932145Y-83978100D01*
X147932147Y-83978100D01*
X147932150Y-83978100D01*
X148088852Y-83978100D01*
X148192246Y-83957532D01*
X148242539Y-83947529D01*
X148354504Y-83901151D01*
X148380761Y-83890275D01*
X148383554Y-83889302D01*
X148384989Y-83888638D01*
X148389653Y-83886593D01*
X148398919Y-83882755D01*
X148407804Y-83873869D01*
X148517602Y-83800505D01*
X148569210Y-83748897D01*
X148628404Y-83689704D01*
X148628405Y-83689702D01*
X148715463Y-83559411D01*
X148775429Y-83414639D01*
X148798730Y-83297499D01*
X148801345Y-83284354D01*
X148801345Y-83284350D01*
X148801346Y-83284348D01*
X148806000Y-83260952D01*
X148806000Y-83104247D01*
X148806000Y-83104244D01*
X148775190Y-82949359D01*
X148773108Y-82944959D01*
X148745212Y-82877609D01*
X148715466Y-82805795D01*
X148715459Y-82805782D01*
X148628405Y-82675498D01*
X148628402Y-82675494D01*
X148600793Y-82647885D01*
X148579642Y-82619629D01*
X148572151Y-82605909D01*
X148557300Y-82537651D01*
X148557429Y-82535842D01*
X148576798Y-82477642D01*
X148580988Y-82471123D01*
X148597611Y-82450495D01*
X148628402Y-82419705D01*
X148628405Y-82419702D01*
X148715463Y-82289411D01*
X148775429Y-82144639D01*
X148778932Y-82127031D01*
X148785742Y-82092789D01*
X148805616Y-81992880D01*
X148806000Y-81990952D01*
X148806000Y-81964503D01*
X149749737Y-81964503D01*
X149782069Y-82127038D01*
X149785569Y-82144633D01*
X149785572Y-82144643D01*
X149785575Y-82144651D01*
X149785580Y-82144665D01*
X149845527Y-82289390D01*
X149845535Y-82289408D01*
X149845544Y-82289423D01*
X149932590Y-82419695D01*
X149932594Y-82419702D01*
X149932597Y-82419705D01*
X149960205Y-82447313D01*
X149981357Y-82475570D01*
X149988848Y-82489290D01*
X150003699Y-82557548D01*
X150003570Y-82559354D01*
X149984202Y-82617557D01*
X149980021Y-82624063D01*
X149963385Y-82644706D01*
X149932602Y-82675488D01*
X149932594Y-82675497D01*
X149932591Y-82675502D01*
X149845544Y-82805775D01*
X149845535Y-82805790D01*
X149845527Y-82805808D01*
X149785580Y-82950533D01*
X149785567Y-82950572D01*
X149755000Y-83104243D01*
X149755000Y-83216583D01*
X149749737Y-83234503D01*
X149785567Y-83414625D01*
X149785569Y-83414633D01*
X149785572Y-83414643D01*
X149785575Y-83414651D01*
X149785580Y-83414665D01*
X149845527Y-83559390D01*
X149845535Y-83559408D01*
X149845544Y-83559423D01*
X149932595Y-83689703D01*
X149932596Y-83689704D01*
X149932601Y-83689710D01*
X150043388Y-83800497D01*
X150043394Y-83800502D01*
X150043395Y-83800503D01*
X150043398Y-83800505D01*
X150173682Y-83887559D01*
X150173695Y-83887566D01*
X150312869Y-83945213D01*
X150317283Y-83947301D01*
X150318015Y-83947442D01*
X150318763Y-83947589D01*
X150472145Y-83978100D01*
X150472147Y-83978100D01*
X150472150Y-83978100D01*
X150628852Y-83978100D01*
X150732246Y-83957532D01*
X150782539Y-83947529D01*
X150894504Y-83901151D01*
X150920761Y-83890275D01*
X150923554Y-83889302D01*
X150924989Y-83888638D01*
X150929653Y-83886593D01*
X150938919Y-83882755D01*
X150947804Y-83873869D01*
X151057602Y-83800505D01*
X151057605Y-83800502D01*
X151085213Y-83772893D01*
X151113464Y-83751745D01*
X151127188Y-83744251D01*
X151195446Y-83729400D01*
X151197256Y-83729529D01*
X151255453Y-83748895D01*
X151261971Y-83753084D01*
X151282602Y-83769710D01*
X151313389Y-83800497D01*
X151313395Y-83800503D01*
X151313398Y-83800505D01*
X151443682Y-83887559D01*
X151443695Y-83887566D01*
X151582869Y-83945213D01*
X151587283Y-83947301D01*
X151588015Y-83947442D01*
X151588763Y-83947589D01*
X151742145Y-83978100D01*
X151742147Y-83978100D01*
X151742150Y-83978100D01*
X151898852Y-83978100D01*
X152002246Y-83957532D01*
X152052539Y-83947529D01*
X152101508Y-83927244D01*
X152101511Y-83927244D01*
X152101511Y-83927243D01*
X152101512Y-83927243D01*
X152161422Y-83902429D01*
X152190757Y-83890277D01*
X152193550Y-83889304D01*
X152194995Y-83888635D01*
X152199663Y-83886588D01*
X152208924Y-83882752D01*
X152217810Y-83873866D01*
X152327605Y-83800503D01*
X152327605Y-83800502D01*
X152438404Y-83689704D01*
X152438405Y-83689702D01*
X152525463Y-83559411D01*
X152585429Y-83414639D01*
X152608730Y-83297499D01*
X152611345Y-83284354D01*
X152611345Y-83284350D01*
X152611346Y-83284348D01*
X152616000Y-83260952D01*
X152616000Y-83104247D01*
X152616000Y-83104244D01*
X152585190Y-82949359D01*
X152583108Y-82944959D01*
X152555212Y-82877609D01*
X152525466Y-82805795D01*
X152525459Y-82805782D01*
X152438405Y-82675498D01*
X152438402Y-82675494D01*
X152410793Y-82647885D01*
X152389642Y-82619629D01*
X152382151Y-82605909D01*
X152367300Y-82537651D01*
X152367429Y-82535842D01*
X152386798Y-82477642D01*
X152390988Y-82471123D01*
X152407611Y-82450495D01*
X152438402Y-82419705D01*
X152438405Y-82419702D01*
X152525463Y-82289411D01*
X152585429Y-82144639D01*
X152588932Y-82127031D01*
X152615616Y-81992880D01*
X152615626Y-81992882D01*
X152615626Y-81992829D01*
X152616000Y-81990952D01*
X152616000Y-81834247D01*
X152616000Y-81834244D01*
X152585190Y-81679360D01*
X152583104Y-81674949D01*
X152579800Y-81666973D01*
X152566931Y-81635903D01*
X152566930Y-81635902D01*
X152566930Y-81635899D01*
X152528877Y-81544030D01*
X152525466Y-81535795D01*
X152525459Y-81535782D01*
X152438405Y-81405498D01*
X152438402Y-81405494D01*
X152438397Y-81405488D01*
X152327610Y-81294701D01*
X152327604Y-81294696D01*
X152327603Y-81294695D01*
X152197323Y-81207644D01*
X152197322Y-81207643D01*
X152197317Y-81207640D01*
X152197304Y-81207633D01*
X152189149Y-81204255D01*
X152052565Y-81147680D01*
X152052551Y-81147675D01*
X152052543Y-81147672D01*
X152052533Y-81147669D01*
X152052530Y-81147668D01*
X152052526Y-81147667D01*
X151898855Y-81117100D01*
X151898852Y-81117100D01*
X151898850Y-81117100D01*
X151742150Y-81117100D01*
X151742148Y-81117100D01*
X151742144Y-81117100D01*
X151588472Y-81147667D01*
X151588466Y-81147669D01*
X151588456Y-81147672D01*
X151588451Y-81147673D01*
X151588433Y-81147680D01*
X151443708Y-81207627D01*
X151443690Y-81207635D01*
X151443675Y-81207644D01*
X151313402Y-81294691D01*
X151313397Y-81294694D01*
X151313388Y-81294702D01*
X151285787Y-81322304D01*
X151257529Y-81343457D01*
X151243809Y-81350948D01*
X151175551Y-81365799D01*
X151173745Y-81365670D01*
X151115544Y-81346302D01*
X151109029Y-81342115D01*
X151088396Y-81325488D01*
X151057605Y-81294697D01*
X151057604Y-81294696D01*
X151057603Y-81294695D01*
X150927323Y-81207644D01*
X150927322Y-81207643D01*
X150927317Y-81207640D01*
X150927304Y-81207633D01*
X150919149Y-81204255D01*
X150782565Y-81147680D01*
X150782551Y-81147675D01*
X150782543Y-81147672D01*
X150782533Y-81147669D01*
X150782530Y-81147668D01*
X150782526Y-81147667D01*
X150628855Y-81117100D01*
X150628852Y-81117100D01*
X150628850Y-81117100D01*
X150472150Y-81117100D01*
X150472148Y-81117100D01*
X150472144Y-81117100D01*
X150318472Y-81147667D01*
X150318466Y-81147669D01*
X150318456Y-81147672D01*
X150318451Y-81147673D01*
X150318433Y-81147680D01*
X150173708Y-81207627D01*
X150173690Y-81207635D01*
X150173675Y-81207644D01*
X150043395Y-81294695D01*
X150043394Y-81294696D01*
X150043388Y-81294701D01*
X149932601Y-81405488D01*
X149932596Y-81405494D01*
X149932595Y-81405495D01*
X149845544Y-81535775D01*
X149845535Y-81535790D01*
X149845527Y-81535808D01*
X149785580Y-81680533D01*
X149785567Y-81680572D01*
X149755000Y-81834243D01*
X149755000Y-81946583D01*
X149749737Y-81964503D01*
X148806000Y-81964503D01*
X148806000Y-81834247D01*
X148806000Y-81834244D01*
X148775190Y-81679360D01*
X148773104Y-81674949D01*
X148769800Y-81666973D01*
X148756931Y-81635903D01*
X148756930Y-81635902D01*
X148756930Y-81635899D01*
X148718877Y-81544030D01*
X148715466Y-81535795D01*
X148715459Y-81535782D01*
X148628405Y-81405498D01*
X148628402Y-81405494D01*
X148628397Y-81405488D01*
X148517610Y-81294701D01*
X148517604Y-81294696D01*
X148517603Y-81294695D01*
X148387323Y-81207644D01*
X148387322Y-81207643D01*
X148387317Y-81207640D01*
X148387304Y-81207633D01*
X148379149Y-81204255D01*
X148242565Y-81147680D01*
X148242551Y-81147675D01*
X148242543Y-81147672D01*
X148242533Y-81147669D01*
X148242530Y-81147668D01*
X148242526Y-81147667D01*
X148088855Y-81117100D01*
X148088852Y-81117100D01*
X148088850Y-81117100D01*
X147932150Y-81117100D01*
X147932148Y-81117100D01*
X147932144Y-81117100D01*
X147778472Y-81147667D01*
X147778453Y-81147673D01*
X147633690Y-81207634D01*
X147633232Y-81207849D01*
X147632281Y-81208218D01*
X147631123Y-81208698D01*
X147631112Y-81208672D01*
X147617734Y-81213868D01*
X147598267Y-81219961D01*
X147528601Y-81221253D01*
X147528414Y-81221202D01*
X147494538Y-81200346D01*
X147491927Y-81204255D01*
X147467912Y-81188209D01*
X147464294Y-81185698D01*
X147462053Y-81184083D01*
X147459636Y-81182678D01*
X147407244Y-81147672D01*
X147407242Y-81147671D01*
X147383240Y-81131633D01*
X147383237Y-81131632D01*
X147383235Y-81131632D01*
X147383225Y-81131630D01*
X147383209Y-81131626D01*
X147310180Y-81117100D01*
X147310177Y-81117100D01*
X147310174Y-81117100D01*
X146170826Y-81117100D01*
X146170823Y-81117100D01*
X146170819Y-81117100D01*
X146097785Y-81131627D01*
X146097762Y-81131632D01*
X146097758Y-81131633D01*
X146014899Y-81186999D01*
X145959533Y-81269858D01*
X145959532Y-81269866D01*
X145959528Y-81269881D01*
X145945000Y-81342918D01*
X145945000Y-81342921D01*
X145945000Y-82482278D01*
X145945000Y-82482280D01*
X145944999Y-82482280D01*
X145952750Y-82521242D01*
X145959532Y-82555335D01*
X145959533Y-82555339D01*
X145971973Y-82573957D01*
X145971974Y-82573959D01*
X146010578Y-82631736D01*
X146011988Y-82634162D01*
X146013603Y-82636403D01*
X146016108Y-82640011D01*
X146030549Y-82661623D01*
X146036285Y-82671099D01*
X146038479Y-82675118D01*
X146053326Y-82743371D01*
X146052780Y-82751013D01*
X146036622Y-82802605D01*
X146037079Y-82802845D01*
X146035756Y-82805370D01*
X146035726Y-82805467D01*
X146035552Y-82805759D01*
X146035534Y-82805793D01*
X146035523Y-82805816D01*
X145975573Y-82950553D01*
X145975567Y-82950572D01*
X145945000Y-83104243D01*
X145945000Y-83216583D01*
X145939737Y-83234503D01*
X137900715Y-83234503D01*
X137897621Y-83227033D01*
X137897619Y-83227030D01*
X137897616Y-83227025D01*
X137842634Y-83144739D01*
X137842631Y-83144735D01*
X137823699Y-83116399D01*
X137823696Y-83116396D01*
X137823693Y-83116392D01*
X137823692Y-83116390D01*
X137823690Y-83116388D01*
X137823688Y-83116385D01*
X137804591Y-83097289D01*
X137783436Y-83069029D01*
X137775945Y-83055309D01*
X137761094Y-82987051D01*
X137761223Y-82985242D01*
X137780593Y-82927041D01*
X137784777Y-82920530D01*
X137801407Y-82899895D01*
X137823694Y-82877608D01*
X137823695Y-82877604D01*
X137897620Y-82766969D01*
X137948540Y-82644036D01*
X137962480Y-82573958D01*
X137970062Y-82535845D01*
X137974500Y-82513534D01*
X137974500Y-82380463D01*
X137948301Y-82248761D01*
X137946214Y-82244349D01*
X137897623Y-82127038D01*
X137897622Y-82127037D01*
X137897620Y-82127031D01*
X137823695Y-82016394D01*
X137823692Y-82016390D01*
X137823691Y-82016389D01*
X137823690Y-82016387D01*
X137823688Y-82016385D01*
X137804591Y-81997289D01*
X137783436Y-81969029D01*
X137775945Y-81955309D01*
X137761094Y-81887051D01*
X137761223Y-81885242D01*
X137780593Y-81827041D01*
X137784777Y-81820530D01*
X137801407Y-81799895D01*
X137823694Y-81777608D01*
X137823695Y-81777604D01*
X137897620Y-81666969D01*
X137948540Y-81544036D01*
X137965240Y-81460084D01*
X137974500Y-81413533D01*
X137974500Y-81280466D01*
X137974500Y-81280463D01*
X137948301Y-81148761D01*
X137946213Y-81144347D01*
X137940945Y-81131627D01*
X137940945Y-81131626D01*
X137903660Y-81041613D01*
X137897623Y-81027038D01*
X137897622Y-81027037D01*
X137897620Y-81027031D01*
X137823695Y-80916394D01*
X137823692Y-80916390D01*
X137749773Y-80842471D01*
X158907237Y-80842471D01*
X158941338Y-81013899D01*
X158941340Y-81013907D01*
X158941343Y-81013917D01*
X158946775Y-81027031D01*
X158997908Y-81150481D01*
X158997913Y-81150490D01*
X158997923Y-81150507D01*
X159080049Y-81273417D01*
X159080050Y-81273418D01*
X159080055Y-81273424D01*
X159184574Y-81377943D01*
X159184580Y-81377948D01*
X159184584Y-81377951D01*
X159307498Y-81460080D01*
X159307511Y-81460087D01*
X159438487Y-81514338D01*
X159442910Y-81516430D01*
X159443638Y-81516571D01*
X159444382Y-81516717D01*
X159589077Y-81545500D01*
X159589079Y-81545500D01*
X159589082Y-81545500D01*
X159736920Y-81545500D01*
X159834462Y-81526096D01*
X159881913Y-81516658D01*
X160018495Y-81460084D01*
X160141416Y-81377951D01*
X160245951Y-81273416D01*
X160328084Y-81150495D01*
X160335897Y-81131634D01*
X160335898Y-81131632D01*
X160350448Y-81096503D01*
X160350449Y-81096500D01*
X160384658Y-81013913D01*
X160389012Y-80992019D01*
X160393409Y-80969919D01*
X160393410Y-80969908D01*
X160394096Y-80966462D01*
X160413500Y-80868920D01*
X160413500Y-80842471D01*
X161193237Y-80842471D01*
X161227338Y-81013899D01*
X161227340Y-81013907D01*
X161227343Y-81013917D01*
X161232775Y-81027031D01*
X161283908Y-81150481D01*
X161283913Y-81150490D01*
X161283923Y-81150507D01*
X161366049Y-81273417D01*
X161366050Y-81273418D01*
X161366055Y-81273424D01*
X161470574Y-81377943D01*
X161470580Y-81377948D01*
X161470584Y-81377951D01*
X161593498Y-81460080D01*
X161593511Y-81460087D01*
X161724487Y-81514338D01*
X161728910Y-81516430D01*
X161729638Y-81516571D01*
X161730382Y-81516717D01*
X161875077Y-81545500D01*
X161875079Y-81545500D01*
X161875082Y-81545500D01*
X162022920Y-81545500D01*
X162120462Y-81526096D01*
X162167913Y-81516658D01*
X162304495Y-81460084D01*
X162427416Y-81377951D01*
X162531951Y-81273416D01*
X162614084Y-81150495D01*
X162621897Y-81131634D01*
X162621898Y-81131632D01*
X162636448Y-81096503D01*
X162636449Y-81096500D01*
X162670658Y-81013913D01*
X162675355Y-80990294D01*
X162680096Y-80966465D01*
X162680096Y-80966462D01*
X162699500Y-80868920D01*
X162699500Y-80721079D01*
X162699500Y-80721076D01*
X162670717Y-80576382D01*
X162670571Y-80575638D01*
X162670430Y-80574910D01*
X162668338Y-80570487D01*
X162614087Y-80439511D01*
X162614080Y-80439498D01*
X162531951Y-80316584D01*
X162531948Y-80316580D01*
X162531943Y-80316574D01*
X162427424Y-80212055D01*
X162427418Y-80212050D01*
X162427417Y-80212049D01*
X162304507Y-80129923D01*
X162304506Y-80129922D01*
X162304501Y-80129919D01*
X162304488Y-80129912D01*
X162304481Y-80129908D01*
X162167919Y-80073344D01*
X162167920Y-80073344D01*
X162167917Y-80073343D01*
X162167907Y-80073340D01*
X162167905Y-80073339D01*
X162167900Y-80073338D01*
X162022922Y-80044500D01*
X162022920Y-80044500D01*
X162022918Y-80044500D01*
X161875082Y-80044500D01*
X161875080Y-80044500D01*
X161875078Y-80044500D01*
X161730096Y-80073338D01*
X161730079Y-80073344D01*
X161593517Y-80129908D01*
X161593508Y-80129913D01*
X161593491Y-80129923D01*
X161470581Y-80212049D01*
X161470580Y-80212050D01*
X161470574Y-80212055D01*
X161366055Y-80316574D01*
X161366050Y-80316580D01*
X161366049Y-80316581D01*
X161283923Y-80439491D01*
X161283913Y-80439508D01*
X161283908Y-80439517D01*
X161227344Y-80576079D01*
X161227338Y-80576098D01*
X161198500Y-80721076D01*
X161198500Y-80824551D01*
X161193237Y-80842471D01*
X160413500Y-80842471D01*
X160413500Y-80721079D01*
X160413500Y-80721076D01*
X160384717Y-80576382D01*
X160384571Y-80575638D01*
X160384430Y-80574910D01*
X160382338Y-80570487D01*
X160328087Y-80439511D01*
X160328080Y-80439498D01*
X160245951Y-80316584D01*
X160245948Y-80316580D01*
X160245943Y-80316574D01*
X160141424Y-80212055D01*
X160141418Y-80212050D01*
X160141417Y-80212049D01*
X160018507Y-80129923D01*
X160018506Y-80129922D01*
X160018501Y-80129919D01*
X160018488Y-80129912D01*
X160018481Y-80129908D01*
X159881919Y-80073344D01*
X159881920Y-80073344D01*
X159881917Y-80073343D01*
X159881907Y-80073340D01*
X159881905Y-80073339D01*
X159881900Y-80073338D01*
X159736922Y-80044500D01*
X159736920Y-80044500D01*
X159736918Y-80044500D01*
X159589082Y-80044500D01*
X159589080Y-80044500D01*
X159589078Y-80044500D01*
X159444096Y-80073338D01*
X159444079Y-80073344D01*
X159307517Y-80129908D01*
X159307508Y-80129913D01*
X159307491Y-80129923D01*
X159184581Y-80212049D01*
X159184580Y-80212050D01*
X159184574Y-80212055D01*
X159080055Y-80316574D01*
X159080050Y-80316580D01*
X159080049Y-80316581D01*
X158997923Y-80439491D01*
X158997913Y-80439508D01*
X158997908Y-80439517D01*
X158941344Y-80576079D01*
X158941338Y-80576098D01*
X158912500Y-80721076D01*
X158912500Y-80824551D01*
X158907237Y-80842471D01*
X137749773Y-80842471D01*
X137729608Y-80822306D01*
X137729604Y-80822303D01*
X137729603Y-80822302D01*
X137729597Y-80822297D01*
X137618978Y-80748384D01*
X137618965Y-80748378D01*
X137618960Y-80748375D01*
X137618957Y-80748374D01*
X137496042Y-80697462D01*
X137496043Y-80697462D01*
X137496040Y-80697461D01*
X137496030Y-80697458D01*
X137496026Y-80697457D01*
X137496022Y-80697456D01*
X137365535Y-80671500D01*
X137365533Y-80671500D01*
X137365531Y-80671500D01*
X137082469Y-80671500D01*
X137082467Y-80671500D01*
X137082465Y-80671500D01*
X136951975Y-80697456D01*
X136951965Y-80697459D01*
X136951963Y-80697459D01*
X136951959Y-80697461D01*
X136829038Y-80748376D01*
X136829031Y-80748379D01*
X136829025Y-80748382D01*
X136718396Y-80822302D01*
X136718392Y-80822305D01*
X136718389Y-80822307D01*
X136718380Y-80822315D01*
X136649285Y-80891411D01*
X136621027Y-80912564D01*
X136607309Y-80920054D01*
X136539051Y-80934905D01*
X136537245Y-80934776D01*
X136479044Y-80915408D01*
X136472529Y-80911221D01*
X136451897Y-80894595D01*
X136379609Y-80822307D01*
X136379608Y-80822306D01*
X136379607Y-80822305D01*
X136379602Y-80822302D01*
X136373298Y-80818090D01*
X136268979Y-80748386D01*
X136268972Y-80748381D01*
X136268965Y-80748378D01*
X136268960Y-80748375D01*
X136268957Y-80748374D01*
X136146042Y-80697462D01*
X136146043Y-80697462D01*
X136146040Y-80697461D01*
X136146030Y-80697458D01*
X136146026Y-80697457D01*
X136146022Y-80697456D01*
X136015535Y-80671500D01*
X136015533Y-80671500D01*
X136015531Y-80671500D01*
X135732469Y-80671500D01*
X135732467Y-80671500D01*
X135732465Y-80671500D01*
X135601975Y-80697456D01*
X135601965Y-80697459D01*
X135601963Y-80697459D01*
X135601959Y-80697461D01*
X135479038Y-80748376D01*
X135479031Y-80748379D01*
X135479025Y-80748382D01*
X135368396Y-80822302D01*
X135368391Y-80822305D01*
X135368385Y-80822310D01*
X135274310Y-80916385D01*
X135274305Y-80916391D01*
X135274302Y-80916396D01*
X135200382Y-81027025D01*
X135200379Y-81027031D01*
X135200376Y-81027037D01*
X135200376Y-81027038D01*
X135149958Y-81148761D01*
X135149459Y-81149965D01*
X135149456Y-81149976D01*
X135123500Y-81280463D01*
X135123500Y-81369165D01*
X135118237Y-81387085D01*
X113323796Y-81387085D01*
X113078460Y-81331089D01*
X113078422Y-81331083D01*
X112771477Y-81296500D01*
X112771471Y-81296500D01*
X112771465Y-81296500D01*
X112462535Y-81296500D01*
X112462528Y-81296500D01*
X112462521Y-81296500D01*
X112155576Y-81331083D01*
X112155541Y-81331089D01*
X111910208Y-81387085D01*
X111854378Y-81399828D01*
X111854360Y-81399832D01*
X111854348Y-81399835D01*
X111854327Y-81399842D01*
X111562782Y-81501859D01*
X111562767Y-81501865D01*
X111562765Y-81501866D01*
X111284442Y-81635899D01*
X111022859Y-81800263D01*
X110781326Y-81992878D01*
X110562878Y-82211326D01*
X110370263Y-82452859D01*
X110205899Y-82714442D01*
X110071866Y-82992765D01*
X110071865Y-82992767D01*
X110071859Y-82992782D01*
X109969842Y-83284327D01*
X109969835Y-83284348D01*
X109969835Y-83284350D01*
X109969835Y-83284352D01*
X109969831Y-83284364D01*
X109949066Y-83375343D01*
X109901089Y-83585541D01*
X109901083Y-83585576D01*
X109866500Y-83892521D01*
X104291000Y-83892521D01*
X104291000Y-83071680D01*
X106596499Y-83071680D01*
X106611028Y-83144717D01*
X106611032Y-83144735D01*
X106611033Y-83144739D01*
X106614480Y-83150826D01*
X106617816Y-83154891D01*
X106666399Y-83227601D01*
X106749256Y-83282964D01*
X106749258Y-83282965D01*
X106749259Y-83282965D01*
X106749260Y-83282966D01*
X106749264Y-83282967D01*
X106749279Y-83282970D01*
X106749288Y-83282972D01*
X106794021Y-83291869D01*
X106814681Y-83295979D01*
X106817415Y-83296703D01*
X106822323Y-83297500D01*
X108571676Y-83297500D01*
X108575796Y-83297500D01*
X108583648Y-83295117D01*
X108644740Y-83282966D01*
X108727601Y-83227601D01*
X108782966Y-83144740D01*
X108797500Y-83071674D01*
X108797500Y-81322326D01*
X108797500Y-81322323D01*
X108797500Y-81322139D01*
X108797064Y-81320134D01*
X108782972Y-81249289D01*
X108782967Y-81249266D01*
X108782967Y-81249264D01*
X108782966Y-81249260D01*
X108756711Y-81209966D01*
X108756711Y-81209965D01*
X108742174Y-81188209D01*
X108727601Y-81166399D01*
X108675559Y-81131626D01*
X108654891Y-81117816D01*
X108650826Y-81114480D01*
X108644739Y-81111033D01*
X108644735Y-81111032D01*
X108644709Y-81111026D01*
X108571680Y-81096500D01*
X108571677Y-81096500D01*
X108571674Y-81096500D01*
X106822326Y-81096500D01*
X106822323Y-81096500D01*
X106822319Y-81096500D01*
X106749285Y-81111027D01*
X106749262Y-81111032D01*
X106749258Y-81111033D01*
X106666399Y-81166399D01*
X106611033Y-81249258D01*
X106611032Y-81249266D01*
X106611028Y-81249281D01*
X106596500Y-81322318D01*
X106596500Y-81322321D01*
X106596500Y-83071678D01*
X106596500Y-83071680D01*
X106596499Y-83071680D01*
X104291000Y-83071680D01*
X104291000Y-77030383D01*
X106596500Y-77030383D01*
X106596500Y-77203614D01*
X106606789Y-77268574D01*
X106607661Y-77274082D01*
X106623598Y-77374701D01*
X106677127Y-77539445D01*
X106755768Y-77693788D01*
X106857586Y-77833928D01*
X106980072Y-77956414D01*
X107120212Y-78058232D01*
X107274555Y-78136873D01*
X107439299Y-78190402D01*
X107610389Y-78217500D01*
X107610390Y-78217500D01*
X107783610Y-78217500D01*
X107783611Y-78217500D01*
X107954701Y-78190402D01*
X108119445Y-78136873D01*
X108273788Y-78058232D01*
X108413928Y-77956414D01*
X108536414Y-77833928D01*
X108565081Y-77794471D01*
X121823237Y-77794471D01*
X121857338Y-77965899D01*
X121857339Y-77965904D01*
X121857344Y-77965919D01*
X121913908Y-78102481D01*
X121913913Y-78102490D01*
X121913923Y-78102507D01*
X121996049Y-78225417D01*
X121996050Y-78225418D01*
X121996055Y-78225424D01*
X122100574Y-78329943D01*
X122100580Y-78329948D01*
X122100584Y-78329951D01*
X122223498Y-78412080D01*
X122223511Y-78412087D01*
X122354487Y-78466338D01*
X122358910Y-78468430D01*
X122359638Y-78468571D01*
X122360382Y-78468717D01*
X122505077Y-78497500D01*
X122505079Y-78497500D01*
X122505082Y-78497500D01*
X122652920Y-78497500D01*
X122750462Y-78478096D01*
X122797913Y-78468658D01*
X122934495Y-78412084D01*
X123057416Y-78329951D01*
X123161951Y-78225416D01*
X123244084Y-78102495D01*
X123300658Y-77965913D01*
X123310096Y-77918462D01*
X123329500Y-77820920D01*
X123329500Y-77794471D01*
X124109237Y-77794471D01*
X124143338Y-77965899D01*
X124143339Y-77965904D01*
X124143344Y-77965919D01*
X124199908Y-78102481D01*
X124199913Y-78102490D01*
X124199923Y-78102507D01*
X124282049Y-78225417D01*
X124282050Y-78225418D01*
X124282055Y-78225424D01*
X124386574Y-78329943D01*
X124386580Y-78329948D01*
X124386584Y-78329951D01*
X124509498Y-78412080D01*
X124509511Y-78412087D01*
X124640487Y-78466338D01*
X124644910Y-78468430D01*
X124645638Y-78468571D01*
X124646382Y-78468717D01*
X124791077Y-78497500D01*
X124791079Y-78497500D01*
X124791082Y-78497500D01*
X124938920Y-78497500D01*
X125036462Y-78478096D01*
X125083913Y-78468658D01*
X125220495Y-78412084D01*
X125343416Y-78329951D01*
X125447951Y-78225416D01*
X125530084Y-78102495D01*
X125586658Y-77965913D01*
X125592035Y-77938876D01*
X125596096Y-77918465D01*
X125596096Y-77918462D01*
X125615500Y-77820920D01*
X125615500Y-77673079D01*
X125615500Y-77673076D01*
X125593280Y-77561372D01*
X125593276Y-77561357D01*
X125589121Y-77540471D01*
X180497237Y-77540471D01*
X180531338Y-77711899D01*
X180531344Y-77711919D01*
X180587908Y-77848481D01*
X180587913Y-77848490D01*
X180587923Y-77848507D01*
X180670049Y-77971417D01*
X180670050Y-77971418D01*
X180670055Y-77971424D01*
X180774574Y-78075943D01*
X180774580Y-78075948D01*
X180774584Y-78075951D01*
X180897498Y-78158080D01*
X180897511Y-78158087D01*
X181028487Y-78212338D01*
X181032910Y-78214430D01*
X181033638Y-78214571D01*
X181034382Y-78214717D01*
X181179077Y-78243500D01*
X181179079Y-78243500D01*
X181179082Y-78243500D01*
X181326920Y-78243500D01*
X181424462Y-78224096D01*
X181471913Y-78214658D01*
X181608495Y-78158084D01*
X181731416Y-78075951D01*
X181835951Y-77971416D01*
X181918084Y-77848495D01*
X181974658Y-77711913D01*
X181994792Y-77610695D01*
X182003500Y-77566920D01*
X182003500Y-77419079D01*
X182003500Y-77419078D01*
X182003500Y-77419076D01*
X181974419Y-77272884D01*
X181972332Y-77268472D01*
X181929079Y-77164048D01*
X181918092Y-77137524D01*
X181918089Y-77137517D01*
X181918087Y-77137511D01*
X181918080Y-77137498D01*
X181835951Y-77014584D01*
X181835948Y-77014580D01*
X181835943Y-77014574D01*
X181731424Y-76910055D01*
X181731418Y-76910050D01*
X181731417Y-76910049D01*
X181608507Y-76827923D01*
X181608506Y-76827922D01*
X181608501Y-76827919D01*
X181608488Y-76827912D01*
X181608481Y-76827908D01*
X181471919Y-76771344D01*
X181471920Y-76771344D01*
X181471917Y-76771343D01*
X181471907Y-76771340D01*
X181471905Y-76771339D01*
X181471900Y-76771338D01*
X181326922Y-76742500D01*
X181326920Y-76742500D01*
X181326918Y-76742500D01*
X181179082Y-76742500D01*
X181179080Y-76742500D01*
X181179078Y-76742500D01*
X181034096Y-76771338D01*
X181034079Y-76771344D01*
X180897517Y-76827908D01*
X180897508Y-76827913D01*
X180897491Y-76827923D01*
X180774581Y-76910049D01*
X180774580Y-76910050D01*
X180774574Y-76910055D01*
X180670055Y-77014574D01*
X180670050Y-77014580D01*
X180670049Y-77014581D01*
X180587923Y-77137491D01*
X180587913Y-77137508D01*
X180587908Y-77137517D01*
X180531344Y-77274079D01*
X180531338Y-77274098D01*
X180502500Y-77419076D01*
X180502500Y-77522551D01*
X180497237Y-77540471D01*
X125589121Y-77540471D01*
X125586659Y-77528092D01*
X125586658Y-77528091D01*
X125586658Y-77528087D01*
X125541506Y-77419079D01*
X125530087Y-77391511D01*
X125530080Y-77391498D01*
X125447951Y-77268584D01*
X125447948Y-77268580D01*
X125447943Y-77268574D01*
X125343424Y-77164055D01*
X125343418Y-77164050D01*
X125343415Y-77164048D01*
X125220507Y-77081923D01*
X125220506Y-77081922D01*
X125220501Y-77081919D01*
X125220488Y-77081912D01*
X125220481Y-77081908D01*
X125083919Y-77025344D01*
X125083920Y-77025344D01*
X125083917Y-77025343D01*
X125083907Y-77025340D01*
X125083905Y-77025339D01*
X125083900Y-77025338D01*
X124938922Y-76996500D01*
X124938920Y-76996500D01*
X124938918Y-76996500D01*
X124791082Y-76996500D01*
X124791080Y-76996500D01*
X124791078Y-76996500D01*
X124646096Y-77025338D01*
X124646079Y-77025344D01*
X124509517Y-77081908D01*
X124509508Y-77081913D01*
X124509491Y-77081923D01*
X124386584Y-77164048D01*
X124386580Y-77164050D01*
X124386574Y-77164055D01*
X124282055Y-77268574D01*
X124282050Y-77268580D01*
X124282049Y-77268581D01*
X124199923Y-77391491D01*
X124199913Y-77391508D01*
X124199908Y-77391517D01*
X124143344Y-77528079D01*
X124143338Y-77528098D01*
X124114500Y-77673076D01*
X124114500Y-77776551D01*
X124109237Y-77794471D01*
X123329500Y-77794471D01*
X123329500Y-77673079D01*
X123329500Y-77673076D01*
X123300419Y-77526884D01*
X123298332Y-77522472D01*
X123255506Y-77419079D01*
X123244087Y-77391511D01*
X123244080Y-77391498D01*
X123161951Y-77268584D01*
X123161948Y-77268580D01*
X123161943Y-77268574D01*
X123057424Y-77164055D01*
X123057418Y-77164050D01*
X123057415Y-77164048D01*
X122934507Y-77081923D01*
X122934506Y-77081922D01*
X122934501Y-77081919D01*
X122934488Y-77081912D01*
X122934481Y-77081908D01*
X122797919Y-77025344D01*
X122797920Y-77025344D01*
X122797917Y-77025343D01*
X122797907Y-77025340D01*
X122797905Y-77025339D01*
X122797900Y-77025338D01*
X122652922Y-76996500D01*
X122652920Y-76996500D01*
X122652918Y-76996500D01*
X122505082Y-76996500D01*
X122505080Y-76996500D01*
X122505078Y-76996500D01*
X122360096Y-77025338D01*
X122360079Y-77025344D01*
X122223517Y-77081908D01*
X122223508Y-77081913D01*
X122223491Y-77081923D01*
X122100584Y-77164048D01*
X122100580Y-77164050D01*
X122100574Y-77164055D01*
X121996055Y-77268574D01*
X121996050Y-77268580D01*
X121996049Y-77268581D01*
X121913923Y-77391491D01*
X121913913Y-77391508D01*
X121913908Y-77391517D01*
X121857344Y-77528079D01*
X121857338Y-77528098D01*
X121828500Y-77673076D01*
X121828500Y-77776551D01*
X121823237Y-77794471D01*
X108565081Y-77794471D01*
X108638232Y-77693788D01*
X108716873Y-77539445D01*
X108770402Y-77374701D01*
X108797500Y-77203611D01*
X108797500Y-77030389D01*
X108770402Y-76859299D01*
X108716873Y-76694555D01*
X108638232Y-76540212D01*
X108536414Y-76400072D01*
X108413928Y-76277586D01*
X108273788Y-76175768D01*
X108119449Y-76097128D01*
X107963532Y-76046467D01*
X107959010Y-76044614D01*
X107949820Y-76042444D01*
X107945057Y-76042070D01*
X107934513Y-76040400D01*
X107823271Y-76022781D01*
X107807407Y-76020268D01*
X107783614Y-76016500D01*
X107783611Y-76016500D01*
X107610389Y-76016500D01*
X107610388Y-76016500D01*
X107570726Y-76022781D01*
X107570725Y-76022780D01*
X107439304Y-76043596D01*
X107274549Y-76097129D01*
X107120210Y-76175768D01*
X107040256Y-76233859D01*
X107040255Y-76233859D01*
X106991941Y-76268961D01*
X106984564Y-76273092D01*
X106853092Y-76404564D01*
X106848961Y-76411941D01*
X106813859Y-76460255D01*
X106813859Y-76460256D01*
X106755768Y-76540210D01*
X106677129Y-76694549D01*
X106623596Y-76859305D01*
X106596500Y-77030383D01*
X104291000Y-77030383D01*
X104291000Y-74490383D01*
X106596500Y-74490383D01*
X106596500Y-74490389D01*
X106596500Y-74663611D01*
X106623598Y-74834701D01*
X106677127Y-74999445D01*
X106755768Y-75153788D01*
X106857586Y-75293928D01*
X106980072Y-75416414D01*
X107120212Y-75518232D01*
X107274555Y-75596873D01*
X107439299Y-75650402D01*
X107610389Y-75677500D01*
X107610390Y-75677500D01*
X107783610Y-75677500D01*
X107783611Y-75677500D01*
X107954701Y-75650402D01*
X108119445Y-75596873D01*
X108273788Y-75518232D01*
X108413928Y-75416414D01*
X108536414Y-75293928D01*
X108638232Y-75153788D01*
X108716873Y-74999445D01*
X108770402Y-74834701D01*
X108797500Y-74663611D01*
X108797500Y-74490389D01*
X108770402Y-74319299D01*
X108716873Y-74154555D01*
X108638232Y-74000212D01*
X108536414Y-73860072D01*
X108413928Y-73737586D01*
X108273788Y-73635768D01*
X108119449Y-73557128D01*
X107963532Y-73506467D01*
X107959010Y-73504614D01*
X107949820Y-73502444D01*
X107945057Y-73502070D01*
X107934513Y-73500400D01*
X107823271Y-73482781D01*
X107807407Y-73480268D01*
X107783614Y-73476500D01*
X107783611Y-73476500D01*
X107610389Y-73476500D01*
X107610388Y-73476500D01*
X107570726Y-73482781D01*
X107570725Y-73482780D01*
X107439304Y-73503596D01*
X107274549Y-73557129D01*
X107120210Y-73635768D01*
X107040256Y-73693859D01*
X107040255Y-73693859D01*
X106991941Y-73728961D01*
X106984564Y-73733092D01*
X106853092Y-73864564D01*
X106848961Y-73871941D01*
X106813859Y-73920255D01*
X106813859Y-73920256D01*
X106755768Y-74000210D01*
X106677129Y-74154549D01*
X106623596Y-74319305D01*
X106596500Y-74490383D01*
X104291000Y-74490383D01*
X104291000Y-71950389D01*
X106596500Y-71950389D01*
X106596500Y-71954937D01*
X106596500Y-72123610D01*
X106617343Y-72255212D01*
X106623598Y-72294701D01*
X106677127Y-72459445D01*
X106755768Y-72613788D01*
X106857586Y-72753928D01*
X106980072Y-72876414D01*
X107120212Y-72978232D01*
X107274555Y-73056873D01*
X107439299Y-73110402D01*
X107610389Y-73137500D01*
X107610390Y-73137500D01*
X107783610Y-73137500D01*
X107783611Y-73137500D01*
X107954701Y-73110402D01*
X108119445Y-73056873D01*
X108273788Y-72978232D01*
X108413928Y-72876414D01*
X108536414Y-72753928D01*
X108565081Y-72714471D01*
X137317237Y-72714471D01*
X137351338Y-72885899D01*
X137351344Y-72885919D01*
X137407908Y-73022481D01*
X137407913Y-73022490D01*
X137407923Y-73022507D01*
X137490049Y-73145417D01*
X137490050Y-73145418D01*
X137490055Y-73145424D01*
X137594574Y-73249943D01*
X137594580Y-73249948D01*
X137594584Y-73249951D01*
X137717498Y-73332080D01*
X137717511Y-73332087D01*
X137848487Y-73386338D01*
X137852910Y-73388430D01*
X137853638Y-73388571D01*
X137854382Y-73388717D01*
X137999077Y-73417500D01*
X137999079Y-73417500D01*
X137999082Y-73417500D01*
X138146920Y-73417500D01*
X138244462Y-73398096D01*
X138291913Y-73388658D01*
X138428495Y-73332084D01*
X138551416Y-73249951D01*
X138655951Y-73145416D01*
X138738084Y-73022495D01*
X138794658Y-72885913D01*
X138823500Y-72740918D01*
X138823500Y-72593082D01*
X138823500Y-72593079D01*
X138823500Y-72593076D01*
X138794717Y-72448382D01*
X138794571Y-72447638D01*
X138794430Y-72446910D01*
X138792338Y-72442487D01*
X138738087Y-72311511D01*
X138738080Y-72311498D01*
X138655951Y-72188584D01*
X138655948Y-72188580D01*
X138655943Y-72188574D01*
X138551424Y-72084055D01*
X138551418Y-72084050D01*
X138551417Y-72084049D01*
X138490604Y-72043415D01*
X138490602Y-72043413D01*
X138428517Y-72001929D01*
X138428502Y-72001920D01*
X138428501Y-72001919D01*
X138428488Y-72001912D01*
X138428481Y-72001908D01*
X138296385Y-71947193D01*
X174401237Y-71947193D01*
X174428462Y-72084055D01*
X174435340Y-72118629D01*
X174435343Y-72118639D01*
X174442973Y-72137060D01*
X174491908Y-72255203D01*
X174491913Y-72255212D01*
X174491923Y-72255229D01*
X174574049Y-72378139D01*
X174574050Y-72378140D01*
X174574055Y-72378146D01*
X174678574Y-72482665D01*
X174678580Y-72482670D01*
X174678584Y-72482673D01*
X174801498Y-72564802D01*
X174801511Y-72564809D01*
X174869769Y-72593082D01*
X174932475Y-72619055D01*
X174936885Y-72621141D01*
X175083076Y-72650222D01*
X175083079Y-72650222D01*
X175083082Y-72650222D01*
X175230920Y-72650222D01*
X175328462Y-72630818D01*
X175375913Y-72621380D01*
X175512495Y-72564806D01*
X175635416Y-72482673D01*
X175739951Y-72378138D01*
X175822084Y-72255217D01*
X175878658Y-72118635D01*
X175901875Y-72001919D01*
X175907500Y-71973642D01*
X175907500Y-71825801D01*
X175907500Y-71825798D01*
X175878419Y-71679607D01*
X175876332Y-71675194D01*
X175851215Y-71614555D01*
X175849600Y-71610656D01*
X175822087Y-71544233D01*
X175822080Y-71544220D01*
X175739951Y-71421306D01*
X175739948Y-71421302D01*
X175739943Y-71421296D01*
X175635424Y-71316777D01*
X175635418Y-71316772D01*
X175635417Y-71316771D01*
X175512507Y-71234645D01*
X175512506Y-71234644D01*
X175512501Y-71234641D01*
X175512488Y-71234634D01*
X175512481Y-71234630D01*
X175375919Y-71178066D01*
X175375920Y-71178066D01*
X175375917Y-71178065D01*
X175375907Y-71178062D01*
X175375905Y-71178061D01*
X175375900Y-71178060D01*
X175230922Y-71149222D01*
X175230920Y-71149222D01*
X175230918Y-71149222D01*
X175083082Y-71149222D01*
X175083080Y-71149222D01*
X175083078Y-71149222D01*
X174938096Y-71178060D01*
X174938079Y-71178066D01*
X174801517Y-71234630D01*
X174801508Y-71234635D01*
X174801491Y-71234645D01*
X174678581Y-71316771D01*
X174678580Y-71316772D01*
X174678574Y-71316777D01*
X174574055Y-71421296D01*
X174574050Y-71421302D01*
X174574049Y-71421303D01*
X174491923Y-71544213D01*
X174491913Y-71544230D01*
X174491908Y-71544239D01*
X174435344Y-71680801D01*
X174435338Y-71680820D01*
X174406500Y-71825798D01*
X174406500Y-71929273D01*
X174401237Y-71947193D01*
X138296385Y-71947193D01*
X138291916Y-71945342D01*
X138291910Y-71945341D01*
X138291907Y-71945340D01*
X138278522Y-71942677D01*
X138271737Y-71941328D01*
X138271737Y-71941327D01*
X138146922Y-71916500D01*
X138146920Y-71916500D01*
X138146918Y-71916500D01*
X137999082Y-71916500D01*
X137999080Y-71916500D01*
X137999078Y-71916500D01*
X137854096Y-71945338D01*
X137854079Y-71945344D01*
X137717517Y-72001908D01*
X137717508Y-72001913D01*
X137717491Y-72001923D01*
X137594581Y-72084049D01*
X137594580Y-72084050D01*
X137594574Y-72084055D01*
X137490055Y-72188574D01*
X137490050Y-72188580D01*
X137490049Y-72188581D01*
X137407923Y-72311491D01*
X137407913Y-72311508D01*
X137407908Y-72311517D01*
X137351344Y-72448079D01*
X137351338Y-72448098D01*
X137322500Y-72593076D01*
X137322500Y-72696551D01*
X137317237Y-72714471D01*
X108565081Y-72714471D01*
X108638232Y-72613788D01*
X108716873Y-72459445D01*
X108770402Y-72294701D01*
X108797500Y-72123611D01*
X108797500Y-71950389D01*
X108770402Y-71779299D01*
X108716873Y-71614555D01*
X108638232Y-71460212D01*
X108536414Y-71320072D01*
X108413928Y-71197586D01*
X108290510Y-71107917D01*
X108273786Y-71095766D01*
X108170938Y-71043363D01*
X108170932Y-71043360D01*
X108119445Y-71017127D01*
X107961164Y-70965698D01*
X107958798Y-70964822D01*
X107958291Y-70964444D01*
X107949820Y-70962444D01*
X107945057Y-70962070D01*
X107934513Y-70960400D01*
X107823271Y-70942781D01*
X107807407Y-70940268D01*
X107783614Y-70936500D01*
X107783611Y-70936500D01*
X107610389Y-70936500D01*
X107610388Y-70936500D01*
X107570726Y-70942781D01*
X107570725Y-70942780D01*
X107439304Y-70963596D01*
X107274549Y-71017129D01*
X107120211Y-71095767D01*
X107103490Y-71107917D01*
X106991943Y-71188961D01*
X106984562Y-71193094D01*
X106853093Y-71324563D01*
X106848962Y-71331940D01*
X106823187Y-71367417D01*
X106823186Y-71367419D01*
X106755768Y-71460210D01*
X106677129Y-71614547D01*
X106623596Y-71779301D01*
X106616299Y-71825375D01*
X106616273Y-71825544D01*
X106616232Y-71825804D01*
X106596500Y-71950389D01*
X104291000Y-71950389D01*
X104291000Y-70936471D01*
X135031237Y-70936471D01*
X135065338Y-71107899D01*
X135065343Y-71107917D01*
X135121908Y-71244481D01*
X135121913Y-71244490D01*
X135121923Y-71244507D01*
X135204049Y-71367417D01*
X135204055Y-71367424D01*
X135308574Y-71471943D01*
X135308580Y-71471948D01*
X135308584Y-71471951D01*
X135431498Y-71554080D01*
X135431511Y-71554087D01*
X135562487Y-71608338D01*
X135566910Y-71610430D01*
X135567638Y-71610571D01*
X135568382Y-71610717D01*
X135713077Y-71639500D01*
X135713079Y-71639500D01*
X135713082Y-71639500D01*
X135860920Y-71639500D01*
X135958462Y-71620096D01*
X136005913Y-71610658D01*
X136142495Y-71554084D01*
X136265416Y-71471951D01*
X136369951Y-71367416D01*
X136452084Y-71244495D01*
X136508658Y-71107913D01*
X136521498Y-71043363D01*
X136537500Y-70962920D01*
X136537500Y-70936471D01*
X160431237Y-70936471D01*
X160465338Y-71107899D01*
X160465343Y-71107917D01*
X160521908Y-71244481D01*
X160521913Y-71244490D01*
X160521923Y-71244507D01*
X160604049Y-71367417D01*
X160604055Y-71367424D01*
X160708574Y-71471943D01*
X160708580Y-71471948D01*
X160708584Y-71471951D01*
X160831498Y-71554080D01*
X160831511Y-71554087D01*
X160962487Y-71608338D01*
X160966910Y-71610430D01*
X160967638Y-71610571D01*
X160968382Y-71610717D01*
X161113077Y-71639500D01*
X161113079Y-71639500D01*
X161113082Y-71639500D01*
X161260920Y-71639500D01*
X161358462Y-71620096D01*
X161405913Y-71610658D01*
X161542495Y-71554084D01*
X161665416Y-71471951D01*
X161769951Y-71367416D01*
X161852084Y-71244495D01*
X161908658Y-71107913D01*
X161921498Y-71043363D01*
X161937500Y-70962920D01*
X161937500Y-70815076D01*
X161908419Y-70668885D01*
X161906332Y-70664472D01*
X161872572Y-70582967D01*
X161852087Y-70533511D01*
X161852080Y-70533498D01*
X161769951Y-70410584D01*
X161769948Y-70410580D01*
X161769943Y-70410574D01*
X161731049Y-70371680D01*
X179776499Y-70371680D01*
X179791028Y-70444717D01*
X179791032Y-70444735D01*
X179791033Y-70444739D01*
X179794480Y-70450826D01*
X179797816Y-70454891D01*
X179846399Y-70527601D01*
X179929256Y-70582964D01*
X179929258Y-70582965D01*
X179929259Y-70582965D01*
X179929260Y-70582966D01*
X179929264Y-70582967D01*
X179929279Y-70582970D01*
X179929288Y-70582972D01*
X179974021Y-70591869D01*
X179994681Y-70595979D01*
X179997415Y-70596703D01*
X180002323Y-70597500D01*
X181751676Y-70597500D01*
X181755796Y-70597500D01*
X181763648Y-70595117D01*
X181824740Y-70582966D01*
X181907601Y-70527601D01*
X181962966Y-70444740D01*
X181977500Y-70371674D01*
X181977500Y-68622326D01*
X181977500Y-68622323D01*
X181977500Y-68622139D01*
X181977064Y-68620134D01*
X181962972Y-68549289D01*
X181962967Y-68549266D01*
X181962967Y-68549264D01*
X181962966Y-68549260D01*
X181962965Y-68549258D01*
X181962964Y-68549256D01*
X181907601Y-68466399D01*
X181834891Y-68417816D01*
X181830826Y-68414480D01*
X181824739Y-68411033D01*
X181824735Y-68411032D01*
X181824709Y-68411026D01*
X181751680Y-68396500D01*
X181751677Y-68396500D01*
X181751674Y-68396500D01*
X180002326Y-68396500D01*
X180002323Y-68396500D01*
X180002319Y-68396500D01*
X179929285Y-68411027D01*
X179929262Y-68411032D01*
X179929258Y-68411033D01*
X179846399Y-68466399D01*
X179791033Y-68549258D01*
X179791032Y-68549266D01*
X179791028Y-68549281D01*
X179776500Y-68622318D01*
X179776500Y-68622321D01*
X179776500Y-70371678D01*
X179776500Y-70371680D01*
X179776499Y-70371680D01*
X161731049Y-70371680D01*
X161665424Y-70306055D01*
X161665418Y-70306050D01*
X161665417Y-70306049D01*
X161542507Y-70223923D01*
X161542506Y-70223922D01*
X161542501Y-70223919D01*
X161542488Y-70223912D01*
X161542481Y-70223908D01*
X161405919Y-70167344D01*
X161405920Y-70167344D01*
X161405917Y-70167343D01*
X161405907Y-70167340D01*
X161405905Y-70167339D01*
X161405900Y-70167338D01*
X161260922Y-70138500D01*
X161260920Y-70138500D01*
X161260918Y-70138500D01*
X161113082Y-70138500D01*
X161113080Y-70138500D01*
X161113078Y-70138500D01*
X160968096Y-70167338D01*
X160968079Y-70167344D01*
X160831517Y-70223908D01*
X160831508Y-70223913D01*
X160831491Y-70223923D01*
X160708581Y-70306049D01*
X160708580Y-70306050D01*
X160708574Y-70306055D01*
X160604055Y-70410574D01*
X160604050Y-70410580D01*
X160604049Y-70410581D01*
X160521923Y-70533491D01*
X160521913Y-70533508D01*
X160521908Y-70533517D01*
X160465344Y-70670079D01*
X160465338Y-70670098D01*
X160436500Y-70815076D01*
X160436500Y-70918551D01*
X160431237Y-70936471D01*
X136537500Y-70936471D01*
X136537500Y-70815076D01*
X136508419Y-70668885D01*
X136506332Y-70664472D01*
X136472572Y-70582967D01*
X136452087Y-70533511D01*
X136452080Y-70533498D01*
X136369951Y-70410584D01*
X136369948Y-70410580D01*
X136369943Y-70410574D01*
X136265424Y-70306055D01*
X136265418Y-70306050D01*
X136265417Y-70306049D01*
X136142507Y-70223923D01*
X136142506Y-70223922D01*
X136142501Y-70223919D01*
X136142488Y-70223912D01*
X136142481Y-70223908D01*
X136005919Y-70167344D01*
X136005920Y-70167344D01*
X136005917Y-70167343D01*
X136005907Y-70167340D01*
X136005905Y-70167339D01*
X136005900Y-70167338D01*
X135860922Y-70138500D01*
X135860920Y-70138500D01*
X135860918Y-70138500D01*
X135713082Y-70138500D01*
X135713080Y-70138500D01*
X135713078Y-70138500D01*
X135568096Y-70167338D01*
X135568079Y-70167344D01*
X135431517Y-70223908D01*
X135431508Y-70223913D01*
X135431491Y-70223923D01*
X135308581Y-70306049D01*
X135308580Y-70306050D01*
X135308574Y-70306055D01*
X135204055Y-70410574D01*
X135204050Y-70410580D01*
X135204049Y-70410581D01*
X135121923Y-70533491D01*
X135121913Y-70533508D01*
X135121908Y-70533517D01*
X135065344Y-70670079D01*
X135065338Y-70670098D01*
X135036500Y-70815076D01*
X135036500Y-70918551D01*
X135031237Y-70936471D01*
X104291000Y-70936471D01*
X104291000Y-69410383D01*
X106596500Y-69410383D01*
X106596500Y-69410389D01*
X106596500Y-69583611D01*
X106623598Y-69754701D01*
X106677127Y-69919445D01*
X106755768Y-70073788D01*
X106857586Y-70213928D01*
X106980072Y-70336414D01*
X107120212Y-70438232D01*
X107274555Y-70516873D01*
X107439299Y-70570402D01*
X107610389Y-70597500D01*
X107610390Y-70597500D01*
X107783610Y-70597500D01*
X107783611Y-70597500D01*
X107954701Y-70570402D01*
X108119445Y-70516873D01*
X108273788Y-70438232D01*
X108413928Y-70336414D01*
X108536414Y-70213928D01*
X108638232Y-70073788D01*
X108716873Y-69919445D01*
X108770402Y-69754701D01*
X108797500Y-69583611D01*
X108797500Y-69410389D01*
X108770402Y-69239299D01*
X108716873Y-69074555D01*
X108638232Y-68920212D01*
X108536414Y-68780072D01*
X108413928Y-68657586D01*
X108273788Y-68555768D01*
X108261072Y-68549289D01*
X108119449Y-68477128D01*
X107963532Y-68426467D01*
X107959010Y-68424614D01*
X107949820Y-68422444D01*
X107945057Y-68422070D01*
X107918198Y-68417816D01*
X107823271Y-68402781D01*
X107807407Y-68400268D01*
X107783614Y-68396500D01*
X107783611Y-68396500D01*
X107610389Y-68396500D01*
X107610388Y-68396500D01*
X107570726Y-68402781D01*
X107570725Y-68402780D01*
X107439304Y-68423596D01*
X107274549Y-68477129D01*
X107120210Y-68555768D01*
X107040256Y-68613859D01*
X107040255Y-68613859D01*
X106991941Y-68648961D01*
X106984564Y-68653092D01*
X106853092Y-68784564D01*
X106848961Y-68791941D01*
X106813859Y-68840255D01*
X106813859Y-68840256D01*
X106755768Y-68920210D01*
X106677129Y-69074549D01*
X106623596Y-69239305D01*
X106596500Y-69410383D01*
X104291000Y-69410383D01*
X104291000Y-66870389D01*
X106596500Y-66870389D01*
X106596500Y-67043611D01*
X106623598Y-67214701D01*
X106677127Y-67379445D01*
X106755768Y-67533788D01*
X106857586Y-67673928D01*
X106980072Y-67796414D01*
X107120212Y-67898232D01*
X107274555Y-67976873D01*
X107439299Y-68030402D01*
X107610389Y-68057500D01*
X107610390Y-68057500D01*
X107783610Y-68057500D01*
X107783611Y-68057500D01*
X107954701Y-68030402D01*
X108119445Y-67976873D01*
X108273788Y-67898232D01*
X108413928Y-67796414D01*
X108536414Y-67673928D01*
X108638232Y-67533788D01*
X108675512Y-67460622D01*
X117886499Y-67460622D01*
X117923021Y-67644225D01*
X117923027Y-67644252D01*
X117994672Y-67817222D01*
X117994677Y-67817232D01*
X118098698Y-67972909D01*
X118098699Y-67972910D01*
X118098704Y-67972916D01*
X118231082Y-68105294D01*
X118231088Y-68105299D01*
X118231089Y-68105300D01*
X118386761Y-68209318D01*
X118386766Y-68209320D01*
X118386768Y-68209321D01*
X118386769Y-68209322D01*
X118559749Y-68280973D01*
X118731389Y-68315114D01*
X118740408Y-68316908D01*
X118742643Y-68317409D01*
X118743381Y-68317500D01*
X118930617Y-68317500D01*
X118934737Y-68317500D01*
X118942586Y-68315118D01*
X119114251Y-68280973D01*
X119287231Y-68209322D01*
X119442908Y-68105302D01*
X119575302Y-67972908D01*
X119679322Y-67817231D01*
X119750973Y-67644251D01*
X119787500Y-67460616D01*
X119787500Y-67273384D01*
X119750973Y-67089749D01*
X119679322Y-66916769D01*
X119679321Y-66916768D01*
X119679318Y-66916762D01*
X119679318Y-66916761D01*
X119575300Y-66761089D01*
X119575299Y-66761088D01*
X119575294Y-66761082D01*
X119442916Y-66628704D01*
X119442910Y-66628699D01*
X119442909Y-66628698D01*
X119287231Y-66524677D01*
X119287232Y-66524677D01*
X119287222Y-66524672D01*
X119114252Y-66453027D01*
X119114225Y-66453021D01*
X118930622Y-66416500D01*
X118930620Y-66416500D01*
X118930616Y-66416500D01*
X118743384Y-66416500D01*
X118743379Y-66416500D01*
X118743377Y-66416500D01*
X118559773Y-66453021D01*
X118559746Y-66453027D01*
X118386776Y-66524672D01*
X118386766Y-66524677D01*
X118231089Y-66628698D01*
X118231088Y-66628699D01*
X118231082Y-66628704D01*
X118098704Y-66761082D01*
X118098699Y-66761088D01*
X118098698Y-66761089D01*
X117994677Y-66916766D01*
X117994672Y-66916776D01*
X117923027Y-67089746D01*
X117923021Y-67089773D01*
X117886500Y-67273376D01*
X117886500Y-67273379D01*
X117886500Y-67460620D01*
X117886500Y-67460622D01*
X117886499Y-67460622D01*
X108675512Y-67460622D01*
X108716873Y-67379445D01*
X108770402Y-67214701D01*
X108797500Y-67043611D01*
X108797500Y-66870389D01*
X108770402Y-66699299D01*
X108716873Y-66534555D01*
X108638232Y-66380212D01*
X108536414Y-66240072D01*
X108452964Y-66156622D01*
X157696499Y-66156622D01*
X157733021Y-66340225D01*
X157733027Y-66340252D01*
X157804672Y-66513222D01*
X157804677Y-66513232D01*
X157908698Y-66668909D01*
X157908699Y-66668910D01*
X157908704Y-66668916D01*
X158041085Y-66801297D01*
X158041089Y-66801300D01*
X158196761Y-66905318D01*
X158196766Y-66905320D01*
X158196768Y-66905321D01*
X158196769Y-66905322D01*
X158369749Y-66976973D01*
X158541389Y-67011114D01*
X158550408Y-67012908D01*
X158552643Y-67013409D01*
X158553381Y-67013500D01*
X158740617Y-67013500D01*
X158744737Y-67013500D01*
X158752586Y-67011118D01*
X158924251Y-66976973D01*
X159097231Y-66905322D01*
X159149512Y-66870389D01*
X179776500Y-66870389D01*
X179776500Y-67043611D01*
X179803598Y-67214701D01*
X179857127Y-67379445D01*
X179935768Y-67533788D01*
X180037586Y-67673928D01*
X180160072Y-67796414D01*
X180300212Y-67898232D01*
X180454555Y-67976873D01*
X180619299Y-68030402D01*
X180790389Y-68057500D01*
X180790390Y-68057500D01*
X180963610Y-68057500D01*
X180963611Y-68057500D01*
X181134701Y-68030402D01*
X181299445Y-67976873D01*
X181453788Y-67898232D01*
X181593928Y-67796414D01*
X181716414Y-67673928D01*
X181818232Y-67533788D01*
X181896873Y-67379445D01*
X181950402Y-67214701D01*
X181977500Y-67043611D01*
X181977500Y-66870389D01*
X181950402Y-66699299D01*
X181896873Y-66534555D01*
X181818232Y-66380212D01*
X181716414Y-66240072D01*
X181593928Y-66117586D01*
X181453788Y-66015768D01*
X181405545Y-65991187D01*
X181405545Y-65991186D01*
X181316945Y-65946043D01*
X181311606Y-65942164D01*
X181287287Y-65932090D01*
X181280767Y-65931058D01*
X181230648Y-65914773D01*
X181143532Y-65886467D01*
X181139010Y-65884614D01*
X181129820Y-65882444D01*
X181125057Y-65882070D01*
X181114513Y-65880400D01*
X181003271Y-65862781D01*
X180987407Y-65860268D01*
X180963614Y-65856500D01*
X180963611Y-65856500D01*
X180790389Y-65856500D01*
X180790388Y-65856500D01*
X180750726Y-65862781D01*
X180750725Y-65862780D01*
X180619304Y-65883596D01*
X180454549Y-65937129D01*
X180300211Y-66015767D01*
X180263351Y-66042549D01*
X180171943Y-66108961D01*
X180164562Y-66113094D01*
X180033092Y-66244564D01*
X180028961Y-66251941D01*
X179993859Y-66300255D01*
X179993859Y-66300256D01*
X179935768Y-66380210D01*
X179857129Y-66534547D01*
X179803598Y-66699297D01*
X179803596Y-66699303D01*
X179793810Y-66761091D01*
X179793811Y-66761092D01*
X179776500Y-66870389D01*
X159149512Y-66870389D01*
X159252908Y-66801302D01*
X159252911Y-66801299D01*
X159276375Y-66777836D01*
X159385299Y-66668911D01*
X159385302Y-66668908D01*
X159489322Y-66513231D01*
X159560973Y-66340251D01*
X159597500Y-66156616D01*
X159597500Y-65969384D01*
X159560973Y-65785749D01*
X159489322Y-65612769D01*
X159489321Y-65612768D01*
X159489318Y-65612762D01*
X159489318Y-65612761D01*
X159385300Y-65457089D01*
X159385299Y-65457088D01*
X159385294Y-65457082D01*
X159252916Y-65324704D01*
X159252910Y-65324699D01*
X159252909Y-65324698D01*
X159097231Y-65220677D01*
X159097232Y-65220677D01*
X159097222Y-65220672D01*
X158924252Y-65149027D01*
X158924225Y-65149021D01*
X158740622Y-65112500D01*
X158740620Y-65112500D01*
X158740616Y-65112500D01*
X158553384Y-65112500D01*
X158553379Y-65112500D01*
X158553377Y-65112500D01*
X158369773Y-65149021D01*
X158369746Y-65149027D01*
X158196776Y-65220672D01*
X158196766Y-65220677D01*
X158041089Y-65324698D01*
X158041088Y-65324699D01*
X158041082Y-65324704D01*
X157908704Y-65457082D01*
X157908699Y-65457088D01*
X157908698Y-65457089D01*
X157804677Y-65612766D01*
X157804672Y-65612776D01*
X157733027Y-65785746D01*
X157733021Y-65785773D01*
X157696500Y-65969376D01*
X157696500Y-65969379D01*
X157696500Y-66156620D01*
X157696500Y-66156622D01*
X157696499Y-66156622D01*
X108452964Y-66156622D01*
X108413928Y-66117586D01*
X108273788Y-66015768D01*
X108225545Y-65991187D01*
X108225545Y-65991186D01*
X108136945Y-65946043D01*
X108131606Y-65942164D01*
X108107287Y-65932090D01*
X108100767Y-65931058D01*
X108050648Y-65914773D01*
X107963532Y-65886467D01*
X107959010Y-65884614D01*
X107949820Y-65882444D01*
X107945057Y-65882070D01*
X107934513Y-65880400D01*
X107823271Y-65862781D01*
X107807407Y-65860268D01*
X107783614Y-65856500D01*
X107783611Y-65856500D01*
X107610389Y-65856500D01*
X107610388Y-65856500D01*
X107570726Y-65862781D01*
X107570725Y-65862780D01*
X107439304Y-65883596D01*
X107274549Y-65937129D01*
X107120211Y-66015767D01*
X107083351Y-66042549D01*
X106991943Y-66108961D01*
X106984562Y-66113094D01*
X106853092Y-66244564D01*
X106848961Y-66251941D01*
X106813859Y-66300255D01*
X106813859Y-66300256D01*
X106755768Y-66380210D01*
X106677129Y-66534547D01*
X106623598Y-66699297D01*
X106623596Y-66699303D01*
X106613810Y-66761091D01*
X106613811Y-66761092D01*
X106596500Y-66870389D01*
X104291000Y-66870389D01*
X104291000Y-64330383D01*
X106596500Y-64330383D01*
X106596500Y-64503614D01*
X106620715Y-64656503D01*
X106623595Y-64674692D01*
X106623597Y-64674697D01*
X106623598Y-64674701D01*
X106677127Y-64839445D01*
X106755768Y-64993788D01*
X106857586Y-65133928D01*
X106980072Y-65256414D01*
X107120212Y-65358232D01*
X107274555Y-65436873D01*
X107439299Y-65490402D01*
X107610389Y-65517500D01*
X107610390Y-65517500D01*
X107783610Y-65517500D01*
X107783611Y-65517500D01*
X107954701Y-65490402D01*
X108119445Y-65436873D01*
X108273788Y-65358232D01*
X108413928Y-65256414D01*
X108536414Y-65133928D01*
X108638232Y-64993788D01*
X108716873Y-64839445D01*
X108770402Y-64674701D01*
X108797500Y-64503611D01*
X108797500Y-64330389D01*
X108770402Y-64159299D01*
X108716873Y-63994555D01*
X108638769Y-63841265D01*
X108638233Y-63840213D01*
X108619640Y-63814622D01*
X128781237Y-63814622D01*
X128811494Y-63966726D01*
X128811495Y-63966732D01*
X128811502Y-63966753D01*
X128860529Y-64085118D01*
X128860534Y-64085128D01*
X128931724Y-64191670D01*
X128931725Y-64191671D01*
X128931730Y-64191677D01*
X129022321Y-64282268D01*
X129022327Y-64282273D01*
X129022328Y-64282274D01*
X129128869Y-64353463D01*
X129128872Y-64353464D01*
X129128873Y-64353465D01*
X129241651Y-64400179D01*
X129246053Y-64402261D01*
X129247252Y-64402499D01*
X129247256Y-64402501D01*
X129247259Y-64402501D01*
X129247260Y-64402501D01*
X129247261Y-64402502D01*
X129344899Y-64421924D01*
X129372927Y-64427500D01*
X129501071Y-64427500D01*
X129501073Y-64427500D01*
X129585615Y-64410682D01*
X129626744Y-64402501D01*
X129745127Y-64353465D01*
X129851669Y-64282276D01*
X129942276Y-64191669D01*
X130013465Y-64085127D01*
X130062501Y-63966744D01*
X130070682Y-63925615D01*
X130087500Y-63841071D01*
X130087500Y-63814622D01*
X130559237Y-63814622D01*
X130589494Y-63966726D01*
X130589495Y-63966732D01*
X130589502Y-63966753D01*
X130638529Y-64085118D01*
X130638534Y-64085128D01*
X130709724Y-64191670D01*
X130709725Y-64191671D01*
X130709730Y-64191677D01*
X130800321Y-64282268D01*
X130800327Y-64282273D01*
X130800328Y-64282274D01*
X130906869Y-64353463D01*
X130906872Y-64353464D01*
X130906873Y-64353465D01*
X131019651Y-64400179D01*
X131024053Y-64402261D01*
X131025252Y-64402499D01*
X131025256Y-64402501D01*
X131025259Y-64402501D01*
X131025260Y-64402501D01*
X131025261Y-64402502D01*
X131122899Y-64421924D01*
X131150927Y-64427500D01*
X131279071Y-64427500D01*
X131279073Y-64427500D01*
X131363615Y-64410682D01*
X131404744Y-64402501D01*
X131523127Y-64353465D01*
X131629669Y-64282276D01*
X131720276Y-64191669D01*
X131791465Y-64085127D01*
X131798302Y-64068622D01*
X147577237Y-64068622D01*
X147607494Y-64220726D01*
X147607495Y-64220732D01*
X147607502Y-64220753D01*
X147656529Y-64339118D01*
X147656534Y-64339128D01*
X147727724Y-64445670D01*
X147727725Y-64445671D01*
X147727730Y-64445677D01*
X147818321Y-64536268D01*
X147818327Y-64536273D01*
X147818328Y-64536274D01*
X147924869Y-64607463D01*
X147924872Y-64607464D01*
X147924873Y-64607465D01*
X148037651Y-64654179D01*
X148042053Y-64656261D01*
X148043252Y-64656499D01*
X148043256Y-64656501D01*
X148043259Y-64656501D01*
X148043260Y-64656501D01*
X148043261Y-64656502D01*
X148134704Y-64674692D01*
X148168927Y-64681500D01*
X148297071Y-64681500D01*
X148297073Y-64681500D01*
X148381615Y-64664682D01*
X148422744Y-64656501D01*
X148541127Y-64607465D01*
X148647669Y-64536276D01*
X148738276Y-64445669D01*
X148783075Y-64378622D01*
X159894499Y-64378622D01*
X159931021Y-64562225D01*
X159931027Y-64562252D01*
X160002672Y-64735222D01*
X160002677Y-64735232D01*
X160106698Y-64890909D01*
X160106699Y-64890910D01*
X160106704Y-64890916D01*
X160239082Y-65023294D01*
X160239088Y-65023299D01*
X160239092Y-65023302D01*
X160394762Y-65127318D01*
X160394767Y-65127321D01*
X160394766Y-65127321D01*
X160394769Y-65127322D01*
X160394771Y-65127323D01*
X160410716Y-65133927D01*
X160410721Y-65133931D01*
X160410722Y-65133930D01*
X160567749Y-65198973D01*
X160739389Y-65233114D01*
X160748408Y-65234908D01*
X160750643Y-65235409D01*
X160751381Y-65235500D01*
X160938617Y-65235500D01*
X160942737Y-65235500D01*
X160950586Y-65233118D01*
X161122251Y-65198973D01*
X161295231Y-65127322D01*
X161450908Y-65023302D01*
X161583302Y-64890908D01*
X161687322Y-64735231D01*
X161758973Y-64562251D01*
X161795500Y-64378616D01*
X161795500Y-64330383D01*
X179776500Y-64330383D01*
X179776500Y-64503614D01*
X179800715Y-64656503D01*
X179803595Y-64674692D01*
X179803597Y-64674697D01*
X179803598Y-64674701D01*
X179857127Y-64839445D01*
X179935768Y-64993788D01*
X180037586Y-65133928D01*
X180160072Y-65256414D01*
X180300212Y-65358232D01*
X180454555Y-65436873D01*
X180619299Y-65490402D01*
X180790389Y-65517500D01*
X180790390Y-65517500D01*
X180963610Y-65517500D01*
X180963611Y-65517500D01*
X181134701Y-65490402D01*
X181299445Y-65436873D01*
X181453788Y-65358232D01*
X181593928Y-65256414D01*
X181716414Y-65133928D01*
X181818232Y-64993788D01*
X181896873Y-64839445D01*
X181950402Y-64674701D01*
X181977500Y-64503611D01*
X181977500Y-64330389D01*
X181950402Y-64159299D01*
X181896873Y-63994555D01*
X181818232Y-63840212D01*
X181716414Y-63700072D01*
X181593928Y-63577586D01*
X181453788Y-63475768D01*
X181453786Y-63475767D01*
X181299449Y-63397128D01*
X181143532Y-63346467D01*
X181139010Y-63344614D01*
X181129820Y-63342444D01*
X181125057Y-63342070D01*
X181114513Y-63340400D01*
X181003271Y-63322781D01*
X180987407Y-63320268D01*
X180963614Y-63316500D01*
X180963611Y-63316500D01*
X180790389Y-63316500D01*
X180790388Y-63316500D01*
X180750726Y-63322781D01*
X180750725Y-63322780D01*
X180619304Y-63343596D01*
X180454549Y-63397129D01*
X180300211Y-63475767D01*
X180283490Y-63487917D01*
X180171943Y-63568961D01*
X180164562Y-63573094D01*
X180033093Y-63704563D01*
X180028962Y-63711940D01*
X180003187Y-63747417D01*
X180003186Y-63747419D01*
X179935768Y-63840210D01*
X179857129Y-63994549D01*
X179803596Y-64159305D01*
X179776500Y-64330383D01*
X161795500Y-64330383D01*
X161795500Y-64191384D01*
X161758973Y-64007749D01*
X161690009Y-63841255D01*
X161689577Y-63840213D01*
X161687323Y-63834771D01*
X161687320Y-63834765D01*
X161583300Y-63679089D01*
X161583299Y-63679088D01*
X161583294Y-63679082D01*
X161450916Y-63546704D01*
X161450910Y-63546699D01*
X161450909Y-63546698D01*
X161295231Y-63442677D01*
X161295232Y-63442677D01*
X161295222Y-63442672D01*
X161122252Y-63371027D01*
X161122225Y-63371021D01*
X160938622Y-63334500D01*
X160938620Y-63334500D01*
X160938616Y-63334500D01*
X160751384Y-63334500D01*
X160751379Y-63334500D01*
X160751377Y-63334500D01*
X160567773Y-63371021D01*
X160567746Y-63371027D01*
X160394776Y-63442672D01*
X160394766Y-63442677D01*
X160239089Y-63546698D01*
X160239088Y-63546699D01*
X160239082Y-63546704D01*
X160106704Y-63679082D01*
X160106699Y-63679088D01*
X160106698Y-63679089D01*
X160002677Y-63834766D01*
X160002672Y-63834776D01*
X159931027Y-64007746D01*
X159931021Y-64007773D01*
X159894500Y-64191376D01*
X159894500Y-64191379D01*
X159894500Y-64378620D01*
X159894500Y-64378622D01*
X159894499Y-64378622D01*
X148783075Y-64378622D01*
X148809465Y-64339127D01*
X148858501Y-64220744D01*
X148862332Y-64201480D01*
X148866163Y-64182225D01*
X148866164Y-64182218D01*
X148870368Y-64161089D01*
X148870368Y-64161087D01*
X148870369Y-64161086D01*
X148871551Y-64155143D01*
X148871555Y-64155118D01*
X148883064Y-64097259D01*
X148883500Y-64095252D01*
X148883500Y-63966925D01*
X148858262Y-63840055D01*
X148856176Y-63835644D01*
X148855816Y-63834776D01*
X148809465Y-63722873D01*
X148809464Y-63722872D01*
X148809463Y-63722870D01*
X148809463Y-63722869D01*
X148738274Y-63616328D01*
X148738273Y-63616327D01*
X148738268Y-63616321D01*
X148647677Y-63525730D01*
X148647671Y-63525725D01*
X148647670Y-63525724D01*
X148541127Y-63454534D01*
X148541128Y-63454534D01*
X148541118Y-63454529D01*
X148422753Y-63405502D01*
X148422733Y-63405495D01*
X148422725Y-63405493D01*
X148297074Y-63380500D01*
X148297071Y-63380500D01*
X148297069Y-63380500D01*
X148168931Y-63380500D01*
X148168929Y-63380500D01*
X148168926Y-63380500D01*
X148043273Y-63405493D01*
X148043265Y-63405495D01*
X148043245Y-63405502D01*
X147924880Y-63454529D01*
X147924870Y-63454534D01*
X147818328Y-63525724D01*
X147818327Y-63525725D01*
X147818321Y-63525730D01*
X147727730Y-63616321D01*
X147727725Y-63616327D01*
X147727724Y-63616328D01*
X147656534Y-63722870D01*
X147656529Y-63722880D01*
X147607502Y-63841245D01*
X147607495Y-63841265D01*
X147607493Y-63841273D01*
X147582500Y-63966923D01*
X147582500Y-64050702D01*
X147577237Y-64068622D01*
X131798302Y-64068622D01*
X131840501Y-63966744D01*
X131846998Y-63934084D01*
X131865460Y-63841273D01*
X131865500Y-63841073D01*
X131865500Y-63712925D01*
X131840262Y-63586055D01*
X131838176Y-63581644D01*
X131836495Y-63577586D01*
X131791465Y-63468873D01*
X131791464Y-63468872D01*
X131791463Y-63468870D01*
X131791463Y-63468869D01*
X131720274Y-63362328D01*
X131720273Y-63362327D01*
X131720268Y-63362321D01*
X131629677Y-63271730D01*
X131629671Y-63271725D01*
X131629670Y-63271724D01*
X131523127Y-63200534D01*
X131523128Y-63200534D01*
X131523118Y-63200529D01*
X131404753Y-63151502D01*
X131404733Y-63151495D01*
X131404725Y-63151493D01*
X131279074Y-63126500D01*
X131279071Y-63126500D01*
X131279069Y-63126500D01*
X131150931Y-63126500D01*
X131150929Y-63126500D01*
X131150926Y-63126500D01*
X131025273Y-63151493D01*
X131025265Y-63151495D01*
X131025245Y-63151502D01*
X130906880Y-63200529D01*
X130906870Y-63200534D01*
X130800328Y-63271724D01*
X130800327Y-63271725D01*
X130800321Y-63271730D01*
X130709730Y-63362321D01*
X130709725Y-63362327D01*
X130709724Y-63362328D01*
X130638534Y-63468870D01*
X130638529Y-63468880D01*
X130589502Y-63587245D01*
X130589495Y-63587265D01*
X130589493Y-63587273D01*
X130564500Y-63712923D01*
X130564500Y-63796702D01*
X130559237Y-63814622D01*
X130087500Y-63814622D01*
X130087500Y-63712928D01*
X130087500Y-63712925D01*
X130062262Y-63586055D01*
X130060176Y-63581644D01*
X130058495Y-63577586D01*
X130013465Y-63468873D01*
X130013464Y-63468872D01*
X130013463Y-63468870D01*
X130013463Y-63468869D01*
X129942274Y-63362328D01*
X129942273Y-63362327D01*
X129942268Y-63362321D01*
X129851677Y-63271730D01*
X129851671Y-63271725D01*
X129851670Y-63271724D01*
X129745127Y-63200534D01*
X129745128Y-63200534D01*
X129745118Y-63200529D01*
X129626753Y-63151502D01*
X129626733Y-63151495D01*
X129626725Y-63151493D01*
X129501074Y-63126500D01*
X129501071Y-63126500D01*
X129501069Y-63126500D01*
X129372931Y-63126500D01*
X129372929Y-63126500D01*
X129372926Y-63126500D01*
X129247273Y-63151493D01*
X129247265Y-63151495D01*
X129247245Y-63151502D01*
X129128880Y-63200529D01*
X129128870Y-63200534D01*
X129022328Y-63271724D01*
X129022327Y-63271725D01*
X129022321Y-63271730D01*
X128931730Y-63362321D01*
X128931725Y-63362327D01*
X128931724Y-63362328D01*
X128860534Y-63468870D01*
X128860529Y-63468880D01*
X128811502Y-63587245D01*
X128811495Y-63587265D01*
X128811493Y-63587273D01*
X128786500Y-63712923D01*
X128786500Y-63796702D01*
X128781237Y-63814622D01*
X108619640Y-63814622D01*
X108606620Y-63796702D01*
X108536414Y-63700072D01*
X108413928Y-63577586D01*
X108273788Y-63475768D01*
X108273786Y-63475767D01*
X108119449Y-63397128D01*
X107963532Y-63346467D01*
X107959010Y-63344614D01*
X107949820Y-63342444D01*
X107945057Y-63342070D01*
X107934513Y-63340400D01*
X107823271Y-63322781D01*
X107807407Y-63320268D01*
X107783614Y-63316500D01*
X107783611Y-63316500D01*
X107610389Y-63316500D01*
X107610388Y-63316500D01*
X107570726Y-63322781D01*
X107570725Y-63322780D01*
X107439304Y-63343596D01*
X107274549Y-63397129D01*
X107120211Y-63475767D01*
X107103490Y-63487917D01*
X106991943Y-63568961D01*
X106984562Y-63573094D01*
X106853093Y-63704563D01*
X106848962Y-63711940D01*
X106823187Y-63747417D01*
X106823186Y-63747419D01*
X106755768Y-63840210D01*
X106677129Y-63994549D01*
X106623596Y-64159305D01*
X106596500Y-64330383D01*
X104291000Y-64330383D01*
X104291000Y-61790389D01*
X106596500Y-61790389D01*
X106596500Y-61963611D01*
X106603808Y-62009749D01*
X106613646Y-62071870D01*
X106623598Y-62134701D01*
X106677127Y-62299445D01*
X106755768Y-62453788D01*
X106857586Y-62593928D01*
X106980072Y-62716414D01*
X107120212Y-62818232D01*
X107274555Y-62896873D01*
X107439299Y-62950402D01*
X107610389Y-62977500D01*
X107610390Y-62977500D01*
X107783610Y-62977500D01*
X107783611Y-62977500D01*
X107954701Y-62950402D01*
X108119445Y-62896873D01*
X108273788Y-62818232D01*
X108413928Y-62716414D01*
X108536414Y-62593928D01*
X108638232Y-62453788D01*
X108675512Y-62380622D01*
X117886499Y-62380622D01*
X117923021Y-62564225D01*
X117923027Y-62564252D01*
X117994672Y-62737222D01*
X117994677Y-62737232D01*
X118098698Y-62892909D01*
X118098699Y-62892910D01*
X118098704Y-62892916D01*
X118231082Y-63025294D01*
X118231088Y-63025299D01*
X118231089Y-63025300D01*
X118386761Y-63129318D01*
X118386766Y-63129320D01*
X118386768Y-63129321D01*
X118386769Y-63129322D01*
X118559749Y-63200973D01*
X118731389Y-63235114D01*
X118740408Y-63236908D01*
X118742643Y-63237409D01*
X118743381Y-63237500D01*
X118930617Y-63237500D01*
X118934737Y-63237500D01*
X118942586Y-63235118D01*
X119114251Y-63200973D01*
X119287231Y-63129322D01*
X119442908Y-63025302D01*
X119575302Y-62892908D01*
X119679322Y-62737231D01*
X119750973Y-62564251D01*
X119780139Y-62417622D01*
X153673237Y-62417622D01*
X153703494Y-62569726D01*
X153703495Y-62569732D01*
X153703502Y-62569753D01*
X153752529Y-62688118D01*
X153752534Y-62688128D01*
X153823724Y-62794670D01*
X153823725Y-62794671D01*
X153823730Y-62794677D01*
X153914321Y-62885268D01*
X153914327Y-62885273D01*
X153914328Y-62885274D01*
X154020869Y-62956463D01*
X154020872Y-62956464D01*
X154020873Y-62956465D01*
X154133651Y-63003179D01*
X154138055Y-63005262D01*
X154264926Y-63030500D01*
X154393071Y-63030500D01*
X154393073Y-63030500D01*
X154477615Y-63013682D01*
X154518744Y-63005501D01*
X154637127Y-62956465D01*
X154743669Y-62885276D01*
X154834276Y-62794669D01*
X154905465Y-62688127D01*
X154954501Y-62569744D01*
X154979500Y-62444069D01*
X154979500Y-62315931D01*
X154979500Y-62315928D01*
X154979500Y-62315925D01*
X154954262Y-62189055D01*
X154952176Y-62184644D01*
X154937398Y-62148968D01*
X154905465Y-62071873D01*
X154905464Y-62071872D01*
X154905463Y-62071870D01*
X154905463Y-62071869D01*
X154834274Y-61965328D01*
X154834273Y-61965327D01*
X154834268Y-61965321D01*
X154743677Y-61874730D01*
X154743671Y-61874725D01*
X154743670Y-61874724D01*
X154637127Y-61803534D01*
X154637128Y-61803534D01*
X154637118Y-61803529D01*
X154518753Y-61754502D01*
X154518733Y-61754495D01*
X154518725Y-61754493D01*
X154393074Y-61729500D01*
X154393071Y-61729500D01*
X154393069Y-61729500D01*
X154264931Y-61729500D01*
X154264929Y-61729500D01*
X154264926Y-61729500D01*
X154139273Y-61754493D01*
X154139265Y-61754495D01*
X154139245Y-61754502D01*
X154020880Y-61803529D01*
X154020870Y-61803534D01*
X153914328Y-61874724D01*
X153914327Y-61874725D01*
X153914321Y-61874730D01*
X153823730Y-61965321D01*
X153823725Y-61965327D01*
X153823724Y-61965328D01*
X153752534Y-62071870D01*
X153752529Y-62071880D01*
X153703502Y-62190245D01*
X153703495Y-62190265D01*
X153703493Y-62190273D01*
X153678500Y-62315923D01*
X153678500Y-62399702D01*
X153673237Y-62417622D01*
X119780139Y-62417622D01*
X119783704Y-62399702D01*
X119786320Y-62386551D01*
X119787499Y-62380620D01*
X119787500Y-62380617D01*
X119787500Y-62193383D01*
X119787499Y-62193379D01*
X119786639Y-62189055D01*
X119750973Y-62009749D01*
X119679322Y-61836769D01*
X119679321Y-61836768D01*
X119679318Y-61836762D01*
X119679318Y-61836761D01*
X119575300Y-61681089D01*
X119575299Y-61681088D01*
X119575294Y-61681082D01*
X119442916Y-61548704D01*
X119442910Y-61548699D01*
X119442909Y-61548698D01*
X119287231Y-61444677D01*
X119287232Y-61444677D01*
X119287222Y-61444672D01*
X119160424Y-61392152D01*
X119114252Y-61373027D01*
X119114225Y-61373021D01*
X118930622Y-61336500D01*
X118930620Y-61336500D01*
X118930616Y-61336500D01*
X118743384Y-61336500D01*
X118743379Y-61336500D01*
X118743377Y-61336500D01*
X118559773Y-61373021D01*
X118559746Y-61373027D01*
X118386776Y-61444672D01*
X118386766Y-61444677D01*
X118231089Y-61548698D01*
X118231088Y-61548699D01*
X118231082Y-61548704D01*
X118098704Y-61681082D01*
X118098699Y-61681088D01*
X118098698Y-61681089D01*
X117994677Y-61836766D01*
X117994672Y-61836776D01*
X117923027Y-62009746D01*
X117923021Y-62009773D01*
X117886500Y-62193376D01*
X117886500Y-62193379D01*
X117886500Y-62380620D01*
X117886500Y-62380622D01*
X117886499Y-62380622D01*
X108675512Y-62380622D01*
X108716873Y-62299445D01*
X108770402Y-62134701D01*
X108797500Y-61963611D01*
X108797500Y-61790389D01*
X108770402Y-61619299D01*
X108716873Y-61454555D01*
X108638232Y-61300212D01*
X108626795Y-61284471D01*
X139095237Y-61284471D01*
X139129069Y-61454547D01*
X139129339Y-61455904D01*
X139129344Y-61455919D01*
X139185908Y-61592481D01*
X139185913Y-61592490D01*
X139185923Y-61592507D01*
X139268049Y-61715417D01*
X139268050Y-61715418D01*
X139268055Y-61715424D01*
X139372574Y-61819943D01*
X139372580Y-61819948D01*
X139372584Y-61819951D01*
X139495498Y-61902080D01*
X139495511Y-61902087D01*
X139626487Y-61956338D01*
X139630910Y-61958430D01*
X139631638Y-61958571D01*
X139632382Y-61958717D01*
X139777077Y-61987500D01*
X139924920Y-61987500D01*
X139924921Y-61987500D01*
X139984969Y-61975555D01*
X140045018Y-61963610D01*
X140069913Y-61958658D01*
X140206495Y-61902084D01*
X140329416Y-61819951D01*
X140358978Y-61790389D01*
X140433950Y-61715418D01*
X140433951Y-61715416D01*
X140516084Y-61592495D01*
X140572658Y-61455913D01*
X140578035Y-61428876D01*
X140582096Y-61408465D01*
X140582096Y-61408462D01*
X140601500Y-61310920D01*
X140601500Y-61163079D01*
X140601500Y-61163076D01*
X140572717Y-61018382D01*
X140572571Y-61017638D01*
X140572430Y-61016910D01*
X140570338Y-61012487D01*
X140516087Y-60881511D01*
X140516080Y-60881498D01*
X140433951Y-60758584D01*
X140433948Y-60758580D01*
X140433943Y-60758574D01*
X140329424Y-60654055D01*
X140329418Y-60654050D01*
X140329417Y-60654049D01*
X140206507Y-60571923D01*
X140206506Y-60571922D01*
X140206501Y-60571919D01*
X140206488Y-60571912D01*
X140206481Y-60571908D01*
X140069919Y-60515344D01*
X140069920Y-60515344D01*
X140069917Y-60515343D01*
X140069907Y-60515340D01*
X140069905Y-60515339D01*
X140069900Y-60515338D01*
X139924922Y-60486500D01*
X139924920Y-60486500D01*
X139924918Y-60486500D01*
X139777082Y-60486500D01*
X139777080Y-60486500D01*
X139777078Y-60486500D01*
X139632096Y-60515338D01*
X139632079Y-60515344D01*
X139495517Y-60571908D01*
X139495508Y-60571913D01*
X139495491Y-60571923D01*
X139372581Y-60654049D01*
X139372580Y-60654050D01*
X139372574Y-60654055D01*
X139268055Y-60758574D01*
X139268050Y-60758580D01*
X139268049Y-60758581D01*
X139185923Y-60881491D01*
X139185913Y-60881508D01*
X139185908Y-60881517D01*
X139129344Y-61018079D01*
X139129338Y-61018098D01*
X139100500Y-61163076D01*
X139100500Y-61266551D01*
X139095237Y-61284471D01*
X108626795Y-61284471D01*
X108536414Y-61160072D01*
X108413928Y-61037586D01*
X108273788Y-60935768D01*
X108119449Y-60857128D01*
X107963532Y-60806467D01*
X107959010Y-60804614D01*
X107949820Y-60802444D01*
X107945057Y-60802070D01*
X107934513Y-60800400D01*
X107823271Y-60782781D01*
X107807407Y-60780268D01*
X107783614Y-60776500D01*
X107783611Y-60776500D01*
X107610389Y-60776500D01*
X107610388Y-60776500D01*
X107570726Y-60782781D01*
X107570725Y-60782780D01*
X107439304Y-60803596D01*
X107274549Y-60857129D01*
X107120210Y-60935768D01*
X107040256Y-60993859D01*
X107040255Y-60993859D01*
X106991941Y-61028961D01*
X106984564Y-61033092D01*
X106853092Y-61164564D01*
X106848961Y-61171941D01*
X106813859Y-61220255D01*
X106813859Y-61220256D01*
X106755768Y-61300210D01*
X106677129Y-61454547D01*
X106623596Y-61619301D01*
X106608468Y-61714819D01*
X106608450Y-61714937D01*
X106608374Y-61715419D01*
X106596500Y-61790389D01*
X104291000Y-61790389D01*
X104291000Y-59250389D01*
X106596500Y-59250389D01*
X106596500Y-59423611D01*
X106623598Y-59594701D01*
X106677127Y-59759445D01*
X106755768Y-59913788D01*
X106857586Y-60053928D01*
X106980072Y-60176414D01*
X107120212Y-60278232D01*
X107274555Y-60356873D01*
X107439299Y-60410402D01*
X107610389Y-60437500D01*
X107610390Y-60437500D01*
X107783610Y-60437500D01*
X107783611Y-60437500D01*
X107954701Y-60410402D01*
X108119445Y-60356873D01*
X108273788Y-60278232D01*
X108413928Y-60176414D01*
X108536414Y-60053928D01*
X108638232Y-59913788D01*
X108716873Y-59759445D01*
X108770402Y-59594701D01*
X108797500Y-59423611D01*
X108797500Y-59250389D01*
X108770402Y-59079299D01*
X108716873Y-58914555D01*
X108638232Y-58760212D01*
X108536414Y-58620072D01*
X108523964Y-58607622D01*
X153800237Y-58607622D01*
X153830494Y-58759726D01*
X153830495Y-58759732D01*
X153830502Y-58759753D01*
X153879529Y-58878118D01*
X153879534Y-58878128D01*
X153950724Y-58984670D01*
X153950725Y-58984671D01*
X153950730Y-58984677D01*
X154041321Y-59075268D01*
X154041327Y-59075273D01*
X154041328Y-59075274D01*
X154147869Y-59146463D01*
X154147872Y-59146464D01*
X154147873Y-59146465D01*
X154260651Y-59193179D01*
X154265053Y-59195261D01*
X154266252Y-59195499D01*
X154266256Y-59195501D01*
X154266259Y-59195501D01*
X154266260Y-59195501D01*
X154266261Y-59195502D01*
X154363899Y-59214924D01*
X154391927Y-59220500D01*
X154520071Y-59220500D01*
X154520073Y-59220500D01*
X154604615Y-59203682D01*
X154645744Y-59195501D01*
X154764127Y-59146465D01*
X154870669Y-59075276D01*
X154961276Y-58984669D01*
X155032465Y-58878127D01*
X155081501Y-58759744D01*
X155098631Y-58673628D01*
X155106500Y-58634071D01*
X155106500Y-58536622D01*
X157696499Y-58536622D01*
X157733021Y-58720225D01*
X157733027Y-58720252D01*
X157804672Y-58893222D01*
X157804677Y-58893232D01*
X157908698Y-59048909D01*
X157908699Y-59048910D01*
X157908704Y-59048916D01*
X158041082Y-59181294D01*
X158041088Y-59181299D01*
X158041089Y-59181300D01*
X158196761Y-59285318D01*
X158196766Y-59285320D01*
X158196768Y-59285321D01*
X158196769Y-59285322D01*
X158369749Y-59356973D01*
X158541389Y-59391114D01*
X158550408Y-59392908D01*
X158552643Y-59393409D01*
X158553381Y-59393500D01*
X158740617Y-59393500D01*
X158744737Y-59393500D01*
X158752586Y-59391118D01*
X158924251Y-59356973D01*
X159097231Y-59285322D01*
X159252908Y-59181302D01*
X159385302Y-59048908D01*
X159489322Y-58893231D01*
X159560973Y-58720251D01*
X159597500Y-58536616D01*
X159597500Y-58349384D01*
X159560973Y-58165749D01*
X159489639Y-57993535D01*
X159489323Y-57992771D01*
X159489318Y-57992762D01*
X159385302Y-57837092D01*
X159385299Y-57837088D01*
X159385294Y-57837082D01*
X159252916Y-57704704D01*
X159252910Y-57704699D01*
X159252909Y-57704698D01*
X159097231Y-57600677D01*
X159097232Y-57600677D01*
X159097222Y-57600672D01*
X158924252Y-57529027D01*
X158924225Y-57529021D01*
X158740622Y-57492500D01*
X158740620Y-57492500D01*
X158740616Y-57492500D01*
X158553384Y-57492500D01*
X158553379Y-57492500D01*
X158553377Y-57492500D01*
X158369773Y-57529021D01*
X158369746Y-57529027D01*
X158196776Y-57600672D01*
X158196766Y-57600677D01*
X158041089Y-57704698D01*
X158041088Y-57704699D01*
X158041082Y-57704704D01*
X157908704Y-57837082D01*
X157908699Y-57837088D01*
X157908698Y-57837089D01*
X157804677Y-57992766D01*
X157804672Y-57992776D01*
X157733027Y-58165746D01*
X157733021Y-58165773D01*
X157696500Y-58349376D01*
X157696500Y-58349379D01*
X157696500Y-58536620D01*
X157696500Y-58536622D01*
X157696499Y-58536622D01*
X155106500Y-58536622D01*
X155106500Y-58505926D01*
X155087210Y-58408960D01*
X155087001Y-58407907D01*
X155081501Y-58380256D01*
X155032465Y-58261873D01*
X155032464Y-58261872D01*
X155032463Y-58261870D01*
X155032463Y-58261869D01*
X154961274Y-58155328D01*
X154961273Y-58155327D01*
X154961268Y-58155321D01*
X154870677Y-58064730D01*
X154870671Y-58064725D01*
X154870670Y-58064724D01*
X154764127Y-57993534D01*
X154764128Y-57993534D01*
X154764118Y-57993529D01*
X154645753Y-57944502D01*
X154645733Y-57944495D01*
X154645725Y-57944493D01*
X154520074Y-57919500D01*
X154520071Y-57919500D01*
X154520069Y-57919500D01*
X154391931Y-57919500D01*
X154391929Y-57919500D01*
X154391926Y-57919500D01*
X154266273Y-57944493D01*
X154266265Y-57944495D01*
X154266245Y-57944502D01*
X154147880Y-57993529D01*
X154147870Y-57993534D01*
X154041328Y-58064724D01*
X154041327Y-58064725D01*
X154041321Y-58064730D01*
X153950730Y-58155321D01*
X153950725Y-58155327D01*
X153950724Y-58155328D01*
X153879534Y-58261870D01*
X153879529Y-58261880D01*
X153830502Y-58380245D01*
X153830499Y-58380255D01*
X153830493Y-58380273D01*
X153805500Y-58505923D01*
X153805500Y-58589702D01*
X153800237Y-58607622D01*
X108523964Y-58607622D01*
X108413928Y-58497586D01*
X108273788Y-58395768D01*
X108243342Y-58380255D01*
X108243342Y-58380254D01*
X108136946Y-58326044D01*
X108131605Y-58322163D01*
X108107287Y-58312090D01*
X108100767Y-58311058D01*
X108050648Y-58294773D01*
X107963532Y-58266467D01*
X107959010Y-58264614D01*
X107949820Y-58262444D01*
X107945057Y-58262070D01*
X107934513Y-58260400D01*
X107823271Y-58242781D01*
X107807407Y-58240268D01*
X107783614Y-58236500D01*
X107783611Y-58236500D01*
X107610389Y-58236500D01*
X107610388Y-58236500D01*
X107570726Y-58242781D01*
X107570725Y-58242780D01*
X107439304Y-58263596D01*
X107274549Y-58317129D01*
X107120211Y-58395767D01*
X107103490Y-58407917D01*
X106991943Y-58488961D01*
X106984562Y-58493094D01*
X106853093Y-58624563D01*
X106848962Y-58631940D01*
X106823187Y-58667417D01*
X106823186Y-58667419D01*
X106755768Y-58760210D01*
X106677129Y-58914549D01*
X106623596Y-59079305D01*
X106623595Y-59079306D01*
X106605298Y-59194833D01*
X106605287Y-59194904D01*
X106605193Y-59195501D01*
X106596500Y-59250389D01*
X104291000Y-59250389D01*
X104291000Y-56883613D01*
X106596499Y-56883613D01*
X106607472Y-56952887D01*
X106607661Y-56954082D01*
X106623598Y-57054701D01*
X106677127Y-57219445D01*
X106755768Y-57373788D01*
X106857586Y-57513928D01*
X106980072Y-57636414D01*
X107120212Y-57738232D01*
X107274555Y-57816873D01*
X107439299Y-57870402D01*
X107610389Y-57897500D01*
X107610390Y-57897500D01*
X107783610Y-57897500D01*
X107783611Y-57897500D01*
X107954701Y-57870402D01*
X108119445Y-57816873D01*
X108273788Y-57738232D01*
X108413928Y-57636414D01*
X108536414Y-57513928D01*
X108638232Y-57373788D01*
X108716350Y-57220471D01*
X139857237Y-57220471D01*
X139891338Y-57391899D01*
X139891340Y-57391907D01*
X139891343Y-57391917D01*
X139896058Y-57403299D01*
X139947908Y-57528481D01*
X139947913Y-57528490D01*
X139947923Y-57528507D01*
X140030049Y-57651417D01*
X140030050Y-57651418D01*
X140030055Y-57651424D01*
X140134574Y-57755943D01*
X140134580Y-57755948D01*
X140134584Y-57755951D01*
X140257498Y-57838080D01*
X140257511Y-57838087D01*
X140388487Y-57892338D01*
X140392910Y-57894430D01*
X140393638Y-57894571D01*
X140394382Y-57894717D01*
X140539077Y-57923500D01*
X140539079Y-57923500D01*
X140539082Y-57923500D01*
X140686920Y-57923500D01*
X140784462Y-57904096D01*
X140831913Y-57894658D01*
X140968495Y-57838084D01*
X141091416Y-57755951D01*
X141195951Y-57651416D01*
X141278084Y-57528495D01*
X141279980Y-57523919D01*
X141315361Y-57438500D01*
X141334658Y-57391913D01*
X141344096Y-57344462D01*
X141363500Y-57246920D01*
X141363500Y-57220471D01*
X142397237Y-57220471D01*
X142431338Y-57391899D01*
X142431340Y-57391907D01*
X142431343Y-57391917D01*
X142436058Y-57403299D01*
X142487908Y-57528481D01*
X142487913Y-57528490D01*
X142487923Y-57528507D01*
X142570049Y-57651417D01*
X142570050Y-57651418D01*
X142570055Y-57651424D01*
X142674574Y-57755943D01*
X142674580Y-57755948D01*
X142674584Y-57755951D01*
X142797498Y-57838080D01*
X142797511Y-57838087D01*
X142928487Y-57892338D01*
X142932910Y-57894430D01*
X142933638Y-57894571D01*
X142934382Y-57894717D01*
X143079077Y-57923500D01*
X143079079Y-57923500D01*
X143079082Y-57923500D01*
X143226920Y-57923500D01*
X143324462Y-57904096D01*
X143371913Y-57894658D01*
X143508495Y-57838084D01*
X143631416Y-57755951D01*
X143735951Y-57651416D01*
X143818084Y-57528495D01*
X143819980Y-57523919D01*
X143855361Y-57438500D01*
X143874658Y-57391913D01*
X143880035Y-57364876D01*
X143884096Y-57344465D01*
X143884096Y-57344462D01*
X143903500Y-57246920D01*
X143903500Y-57099079D01*
X143903500Y-57099076D01*
X143874419Y-56952887D01*
X143872340Y-56948492D01*
X143845466Y-56883610D01*
X143830893Y-56848429D01*
X143818090Y-56817517D01*
X143818085Y-56817508D01*
X143818080Y-56817498D01*
X143778740Y-56758622D01*
X159894499Y-56758622D01*
X159931021Y-56942225D01*
X159931027Y-56942252D01*
X160002672Y-57115222D01*
X160002677Y-57115232D01*
X160106698Y-57270909D01*
X160106699Y-57270910D01*
X160106704Y-57270916D01*
X160239082Y-57403294D01*
X160239088Y-57403299D01*
X160239092Y-57403302D01*
X160394762Y-57507318D01*
X160394767Y-57507321D01*
X160394766Y-57507321D01*
X160394769Y-57507322D01*
X160394771Y-57507323D01*
X160410716Y-57513927D01*
X160410721Y-57513931D01*
X160410722Y-57513930D01*
X160567749Y-57578973D01*
X160739389Y-57613114D01*
X160748408Y-57614908D01*
X160750643Y-57615409D01*
X160751381Y-57615500D01*
X160938617Y-57615500D01*
X160942737Y-57615500D01*
X160950586Y-57613118D01*
X161122251Y-57578973D01*
X161295231Y-57507322D01*
X161450908Y-57403302D01*
X161583302Y-57270908D01*
X161687322Y-57115231D01*
X161758973Y-56942251D01*
X161795500Y-56758616D01*
X161795500Y-56571384D01*
X161758973Y-56387749D01*
X161687322Y-56214769D01*
X161687321Y-56214768D01*
X161687318Y-56214762D01*
X161687318Y-56214761D01*
X161583300Y-56059089D01*
X161583299Y-56059088D01*
X161583294Y-56059082D01*
X161450916Y-55926704D01*
X161450910Y-55926699D01*
X161450909Y-55926698D01*
X161295231Y-55822677D01*
X161295232Y-55822677D01*
X161295222Y-55822672D01*
X161122252Y-55751027D01*
X161122225Y-55751021D01*
X160938622Y-55714500D01*
X160938620Y-55714500D01*
X160938616Y-55714500D01*
X160751384Y-55714500D01*
X160751379Y-55714500D01*
X160751377Y-55714500D01*
X160567773Y-55751021D01*
X160567746Y-55751027D01*
X160394776Y-55822672D01*
X160394766Y-55822677D01*
X160239089Y-55926698D01*
X160239088Y-55926699D01*
X160239082Y-55926704D01*
X160106704Y-56059082D01*
X160106699Y-56059088D01*
X160106698Y-56059089D01*
X160002677Y-56214766D01*
X160002672Y-56214776D01*
X159931027Y-56387746D01*
X159931021Y-56387773D01*
X159894500Y-56571376D01*
X159894500Y-56571379D01*
X159894500Y-56758620D01*
X159894500Y-56758622D01*
X159894499Y-56758622D01*
X143778740Y-56758622D01*
X143735951Y-56694584D01*
X143735948Y-56694580D01*
X143735943Y-56694574D01*
X143631424Y-56590055D01*
X143631418Y-56590050D01*
X143631417Y-56590049D01*
X143508507Y-56507923D01*
X143508506Y-56507922D01*
X143508501Y-56507919D01*
X143508488Y-56507912D01*
X143508481Y-56507908D01*
X143371919Y-56451344D01*
X143371920Y-56451344D01*
X143371917Y-56451343D01*
X143371907Y-56451340D01*
X143371905Y-56451339D01*
X143371900Y-56451338D01*
X143226922Y-56422500D01*
X143226920Y-56422500D01*
X143226918Y-56422500D01*
X143079082Y-56422500D01*
X143079080Y-56422500D01*
X143079078Y-56422500D01*
X142934096Y-56451338D01*
X142934079Y-56451344D01*
X142797517Y-56507908D01*
X142797508Y-56507913D01*
X142797491Y-56507923D01*
X142674581Y-56590049D01*
X142674580Y-56590050D01*
X142674574Y-56590055D01*
X142570055Y-56694574D01*
X142570050Y-56694580D01*
X142570049Y-56694581D01*
X142487923Y-56817491D01*
X142487913Y-56817508D01*
X142487908Y-56817517D01*
X142431344Y-56954079D01*
X142431338Y-56954098D01*
X142402500Y-57099076D01*
X142402500Y-57202551D01*
X142397237Y-57220471D01*
X141363500Y-57220471D01*
X141363500Y-57099079D01*
X141363500Y-57099076D01*
X141334419Y-56952887D01*
X141332340Y-56948492D01*
X141305466Y-56883610D01*
X141290893Y-56848429D01*
X141278090Y-56817517D01*
X141278085Y-56817508D01*
X141278080Y-56817498D01*
X141195951Y-56694584D01*
X141195948Y-56694580D01*
X141195943Y-56694574D01*
X141091424Y-56590055D01*
X141091418Y-56590050D01*
X141091417Y-56590049D01*
X140968507Y-56507923D01*
X140968506Y-56507922D01*
X140968501Y-56507919D01*
X140968488Y-56507912D01*
X140968481Y-56507908D01*
X140831919Y-56451344D01*
X140831920Y-56451344D01*
X140831917Y-56451343D01*
X140831907Y-56451340D01*
X140831905Y-56451339D01*
X140831900Y-56451338D01*
X140686922Y-56422500D01*
X140686920Y-56422500D01*
X140686918Y-56422500D01*
X140539082Y-56422500D01*
X140539080Y-56422500D01*
X140539078Y-56422500D01*
X140394096Y-56451338D01*
X140394079Y-56451344D01*
X140257517Y-56507908D01*
X140257508Y-56507913D01*
X140257491Y-56507923D01*
X140134581Y-56590049D01*
X140134580Y-56590050D01*
X140134574Y-56590055D01*
X140030055Y-56694574D01*
X140030050Y-56694580D01*
X140030049Y-56694581D01*
X139947923Y-56817491D01*
X139947913Y-56817508D01*
X139947908Y-56817517D01*
X139891344Y-56954079D01*
X139891338Y-56954098D01*
X139862500Y-57099076D01*
X139862500Y-57202551D01*
X139857237Y-57220471D01*
X108716350Y-57220471D01*
X108716873Y-57219445D01*
X108770402Y-57054701D01*
X108797500Y-56883611D01*
X108797500Y-56710389D01*
X108770402Y-56539299D01*
X108716873Y-56374555D01*
X108638232Y-56220212D01*
X108536414Y-56080072D01*
X108413928Y-55957586D01*
X108273788Y-55855768D01*
X108236818Y-55836931D01*
X108119449Y-55777128D01*
X107963532Y-55726467D01*
X107959010Y-55724614D01*
X107949820Y-55722444D01*
X107945057Y-55722070D01*
X107934513Y-55720400D01*
X107823271Y-55702781D01*
X107807407Y-55700268D01*
X107783614Y-55696500D01*
X107783611Y-55696500D01*
X107610389Y-55696500D01*
X107610388Y-55696500D01*
X107570726Y-55702781D01*
X107570725Y-55702780D01*
X107439304Y-55723596D01*
X107274549Y-55777129D01*
X107120210Y-55855768D01*
X107040256Y-55913859D01*
X107040255Y-55913859D01*
X106991941Y-55948961D01*
X106984564Y-55953092D01*
X106853092Y-56084564D01*
X106848961Y-56091941D01*
X106813859Y-56140255D01*
X106813859Y-56140256D01*
X106755768Y-56220210D01*
X106677129Y-56374549D01*
X106623596Y-56539305D01*
X106596500Y-56710383D01*
X106596500Y-56883610D01*
X106596499Y-56883613D01*
X104291000Y-56883613D01*
X104291000Y-54343613D01*
X106596499Y-54343613D01*
X106607472Y-54412887D01*
X106607661Y-54414082D01*
X106623598Y-54514701D01*
X106677127Y-54679445D01*
X106755768Y-54833788D01*
X106857586Y-54973928D01*
X106980072Y-55096414D01*
X107120212Y-55198232D01*
X107274555Y-55276873D01*
X107439299Y-55330402D01*
X107610389Y-55357500D01*
X107610390Y-55357500D01*
X107783610Y-55357500D01*
X107783611Y-55357500D01*
X107954701Y-55330402D01*
X108119445Y-55276873D01*
X108273788Y-55198232D01*
X108413928Y-55096414D01*
X108536414Y-54973928D01*
X108638232Y-54833788D01*
X108716350Y-54680471D01*
X144937237Y-54680471D01*
X144971338Y-54851899D01*
X144971339Y-54851904D01*
X144971344Y-54851919D01*
X145027908Y-54988481D01*
X145027913Y-54988490D01*
X145027923Y-54988507D01*
X145110049Y-55111417D01*
X145110050Y-55111418D01*
X145110055Y-55111424D01*
X145214574Y-55215943D01*
X145214580Y-55215948D01*
X145214584Y-55215951D01*
X145337498Y-55298080D01*
X145337511Y-55298087D01*
X145468487Y-55352338D01*
X145472910Y-55354430D01*
X145473638Y-55354571D01*
X145474382Y-55354717D01*
X145619077Y-55383500D01*
X145619079Y-55383500D01*
X145619082Y-55383500D01*
X145766920Y-55383500D01*
X145864462Y-55364096D01*
X145911913Y-55354658D01*
X146048495Y-55298084D01*
X146171416Y-55215951D01*
X146275951Y-55111416D01*
X146358084Y-54988495D01*
X146414658Y-54851913D01*
X146420035Y-54824876D01*
X146424096Y-54804465D01*
X146424096Y-54804462D01*
X146443500Y-54706920D01*
X146443500Y-54559079D01*
X146443500Y-54559076D01*
X146414419Y-54412887D01*
X146412340Y-54408492D01*
X146385466Y-54343610D01*
X146370893Y-54308429D01*
X146358090Y-54277517D01*
X146358085Y-54277508D01*
X146358080Y-54277498D01*
X146275951Y-54154584D01*
X146275948Y-54154580D01*
X146275943Y-54154574D01*
X146171424Y-54050055D01*
X146171418Y-54050050D01*
X146171417Y-54050049D01*
X146048507Y-53967923D01*
X146048506Y-53967922D01*
X146048501Y-53967919D01*
X146048488Y-53967912D01*
X146048481Y-53967908D01*
X145911919Y-53911344D01*
X145911920Y-53911344D01*
X145911917Y-53911343D01*
X145911907Y-53911340D01*
X145911905Y-53911339D01*
X145911900Y-53911338D01*
X145766922Y-53882500D01*
X145766920Y-53882500D01*
X145766918Y-53882500D01*
X145619082Y-53882500D01*
X145619080Y-53882500D01*
X145619078Y-53882500D01*
X145474096Y-53911338D01*
X145474079Y-53911344D01*
X145337517Y-53967908D01*
X145337508Y-53967913D01*
X145337491Y-53967923D01*
X145214581Y-54050049D01*
X145214580Y-54050050D01*
X145214574Y-54050055D01*
X145110055Y-54154574D01*
X145110050Y-54154580D01*
X145110049Y-54154581D01*
X145027923Y-54277491D01*
X145027913Y-54277508D01*
X145027908Y-54277517D01*
X144971344Y-54414079D01*
X144971338Y-54414098D01*
X144942500Y-54559076D01*
X144942500Y-54662551D01*
X144937237Y-54680471D01*
X108716350Y-54680471D01*
X108716873Y-54679445D01*
X108770402Y-54514701D01*
X108797500Y-54343611D01*
X108797500Y-54170389D01*
X108770402Y-53999299D01*
X108716873Y-53834555D01*
X108638232Y-53680212D01*
X108629621Y-53668360D01*
X162201500Y-53668360D01*
X162201500Y-62963639D01*
X162202963Y-62990934D01*
X162202967Y-62990988D01*
X162205797Y-63017310D01*
X162205798Y-63017312D01*
X162235586Y-63112441D01*
X162235590Y-63112451D01*
X162269068Y-63173761D01*
X162269073Y-63173769D01*
X162312649Y-63231980D01*
X162312665Y-63231998D01*
X162785231Y-63704563D01*
X163256015Y-64175347D01*
X163276365Y-64193626D01*
X163276371Y-64193631D01*
X163276379Y-64193638D01*
X163297000Y-64210255D01*
X163297002Y-64210256D01*
X163297007Y-64210260D01*
X163385338Y-64256465D01*
X163452377Y-64276150D01*
X163452381Y-64276150D01*
X163452383Y-64276151D01*
X163464014Y-64277823D01*
X163524362Y-64286500D01*
X163524363Y-64286500D01*
X167485638Y-64286500D01*
X167485639Y-64286500D01*
X167487075Y-64286422D01*
X167512952Y-64285036D01*
X167539310Y-64282202D01*
X167634444Y-64252413D01*
X167695767Y-64218928D01*
X167753985Y-64175347D01*
X168697347Y-63231985D01*
X168715626Y-63211635D01*
X168732260Y-63190993D01*
X168778465Y-63102662D01*
X168798150Y-63035623D01*
X168808500Y-62963638D01*
X168808500Y-61790389D01*
X179776500Y-61790389D01*
X179776500Y-61963611D01*
X179783808Y-62009749D01*
X179793646Y-62071870D01*
X179803598Y-62134701D01*
X179857127Y-62299445D01*
X179935768Y-62453788D01*
X180037586Y-62593928D01*
X180160072Y-62716414D01*
X180300212Y-62818232D01*
X180454555Y-62896873D01*
X180619299Y-62950402D01*
X180790389Y-62977500D01*
X180790390Y-62977500D01*
X180963610Y-62977500D01*
X180963611Y-62977500D01*
X181134701Y-62950402D01*
X181299445Y-62896873D01*
X181453788Y-62818232D01*
X181593928Y-62716414D01*
X181716414Y-62593928D01*
X181818232Y-62453788D01*
X181896873Y-62299445D01*
X181950402Y-62134701D01*
X181977500Y-61963611D01*
X181977500Y-61790389D01*
X181950402Y-61619299D01*
X181896873Y-61454555D01*
X181818232Y-61300212D01*
X181716414Y-61160072D01*
X181593928Y-61037586D01*
X181453788Y-60935768D01*
X181299449Y-60857128D01*
X181143532Y-60806467D01*
X181139010Y-60804614D01*
X181129820Y-60802444D01*
X181125057Y-60802070D01*
X181114513Y-60800400D01*
X181003271Y-60782781D01*
X180987407Y-60780268D01*
X180963614Y-60776500D01*
X180963611Y-60776500D01*
X180790389Y-60776500D01*
X180790388Y-60776500D01*
X180750726Y-60782781D01*
X180750725Y-60782780D01*
X180619304Y-60803596D01*
X180454549Y-60857129D01*
X180300210Y-60935768D01*
X180220256Y-60993859D01*
X180220255Y-60993859D01*
X180171941Y-61028961D01*
X180164564Y-61033092D01*
X180033092Y-61164564D01*
X180028961Y-61171941D01*
X179993859Y-61220255D01*
X179993859Y-61220256D01*
X179935768Y-61300210D01*
X179857129Y-61454547D01*
X179803596Y-61619301D01*
X179788468Y-61714819D01*
X179788450Y-61714937D01*
X179788374Y-61715419D01*
X179776500Y-61790389D01*
X168808500Y-61790389D01*
X168808500Y-56568193D01*
X168828185Y-56501154D01*
X168844819Y-56480512D01*
X169384512Y-55940819D01*
X169445835Y-55907334D01*
X169472193Y-55904500D01*
X175867639Y-55904500D01*
X175869075Y-55904422D01*
X175894952Y-55903036D01*
X175921310Y-55900202D01*
X176016444Y-55870413D01*
X176077767Y-55836928D01*
X176135985Y-55793347D01*
X176317347Y-55611985D01*
X176335626Y-55591635D01*
X176352260Y-55570993D01*
X176398465Y-55482662D01*
X176418150Y-55415623D01*
X176428500Y-55343638D01*
X176428500Y-53414362D01*
X176427036Y-53387048D01*
X176424202Y-53360690D01*
X176394413Y-53265556D01*
X176360928Y-53204233D01*
X176345479Y-53183596D01*
X176321232Y-53151205D01*
X176296815Y-53085741D01*
X176296499Y-53076895D01*
X176296499Y-52931819D01*
X176296498Y-52931813D01*
X176295343Y-52921072D01*
X176290067Y-52871983D01*
X176265465Y-52806023D01*
X176240359Y-52738709D01*
X176239470Y-52736192D01*
X176237181Y-52732895D01*
X176237177Y-52732889D01*
X176234275Y-52729540D01*
X176180894Y-52658232D01*
X176153013Y-52620987D01*
X176139472Y-52610851D01*
X176139468Y-52610845D01*
X176139467Y-52610847D01*
X176084318Y-52569561D01*
X176059365Y-52544608D01*
X176049996Y-52532093D01*
X176025579Y-52466633D01*
X176024648Y-52453620D01*
X176028558Y-52412685D01*
X176046499Y-52345729D01*
X176046500Y-52345726D01*
X176046500Y-51840275D01*
X176046500Y-51840273D01*
X176019207Y-51738413D01*
X175966480Y-51647087D01*
X175934006Y-51614613D01*
X175933698Y-51614293D01*
X175924919Y-51605508D01*
X175924410Y-51605017D01*
X175891914Y-51572521D01*
X175891913Y-51572520D01*
X175825059Y-51533922D01*
X175800589Y-51519794D01*
X175800588Y-51519793D01*
X175800587Y-51519793D01*
X175698727Y-51492500D01*
X175698726Y-51492500D01*
X163439273Y-51492500D01*
X163337416Y-51519791D01*
X163337408Y-51519795D01*
X163246099Y-51572512D01*
X163246081Y-51572523D01*
X163213296Y-51605308D01*
X163212804Y-51605784D01*
X163204784Y-51613804D01*
X163204308Y-51614296D01*
X163171523Y-51647081D01*
X163171512Y-51647099D01*
X163118795Y-51738408D01*
X163118791Y-51738416D01*
X163091500Y-51840273D01*
X163091500Y-52345727D01*
X163108801Y-52410298D01*
X163112991Y-52445341D01*
X163112619Y-52460968D01*
X163091346Y-52527518D01*
X163084038Y-52538316D01*
X163055658Y-52568081D01*
X162984987Y-52620985D01*
X162984981Y-52620991D01*
X162903730Y-52729532D01*
X162900818Y-52732892D01*
X162898414Y-52736632D01*
X162851406Y-52862667D01*
X162809535Y-52918600D01*
X162806233Y-52921072D01*
X162748015Y-52964653D01*
X162748013Y-52964655D01*
X162748001Y-52964665D01*
X162312666Y-53400001D01*
X162312638Y-53400031D01*
X162294361Y-53420379D01*
X162277744Y-53441000D01*
X162231534Y-53529340D01*
X162211850Y-53596375D01*
X162211848Y-53596383D01*
X162201500Y-53668360D01*
X108629621Y-53668360D01*
X108536414Y-53540072D01*
X108413928Y-53417586D01*
X108273788Y-53315768D01*
X108119449Y-53237128D01*
X107963532Y-53186467D01*
X107959010Y-53184614D01*
X107949820Y-53182444D01*
X107945057Y-53182070D01*
X107934513Y-53180400D01*
X107823271Y-53162781D01*
X107807407Y-53160268D01*
X107783614Y-53156500D01*
X107783611Y-53156500D01*
X107610389Y-53156500D01*
X107610388Y-53156500D01*
X107570726Y-53162781D01*
X107570725Y-53162780D01*
X107439304Y-53183596D01*
X107274549Y-53237129D01*
X107120210Y-53315768D01*
X107040256Y-53373859D01*
X107040255Y-53373859D01*
X106991941Y-53408961D01*
X106984564Y-53413092D01*
X106853092Y-53544564D01*
X106848961Y-53551941D01*
X106813859Y-53600255D01*
X106813859Y-53600256D01*
X106755768Y-53680210D01*
X106677129Y-53834549D01*
X106623596Y-53999305D01*
X106596500Y-54170383D01*
X106596500Y-54343610D01*
X106596499Y-54343613D01*
X104291000Y-54343613D01*
X104291000Y-51630389D01*
X106596500Y-51630389D01*
X106596500Y-51803611D01*
X106597420Y-51809419D01*
X106597421Y-51809423D01*
X106597420Y-51809423D01*
X106610625Y-51892793D01*
X106613975Y-51913948D01*
X106623598Y-51974701D01*
X106677127Y-52139445D01*
X106755768Y-52293788D01*
X106857586Y-52433928D01*
X106980072Y-52556414D01*
X107120212Y-52658232D01*
X107274555Y-52736873D01*
X107439299Y-52790402D01*
X107610389Y-52817500D01*
X107610390Y-52817500D01*
X107783610Y-52817500D01*
X107783611Y-52817500D01*
X107954701Y-52790402D01*
X108119445Y-52736873D01*
X108273788Y-52658232D01*
X108413928Y-52556414D01*
X108536414Y-52433928D01*
X108638232Y-52293788D01*
X108716873Y-52139445D01*
X108770402Y-51974701D01*
X108797500Y-51803611D01*
X108797500Y-51630389D01*
X108770402Y-51459299D01*
X108744139Y-51378471D01*
X119283237Y-51378471D01*
X119317338Y-51549899D01*
X119317344Y-51549919D01*
X119373908Y-51686481D01*
X119373913Y-51686490D01*
X119373923Y-51686507D01*
X119456049Y-51809417D01*
X119456050Y-51809418D01*
X119456053Y-51809422D01*
X119560578Y-51913947D01*
X119560581Y-51913949D01*
X119560584Y-51913951D01*
X119683498Y-51996080D01*
X119683511Y-51996087D01*
X119814487Y-52050338D01*
X119818910Y-52052430D01*
X119819638Y-52052571D01*
X119820382Y-52052717D01*
X119965077Y-52081500D01*
X119965079Y-52081500D01*
X119965082Y-52081500D01*
X120112920Y-52081500D01*
X120210462Y-52062096D01*
X120257913Y-52052658D01*
X120394495Y-51996084D01*
X120517416Y-51913951D01*
X120517415Y-51913951D01*
X120517419Y-51913949D01*
X120517421Y-51913947D01*
X120621948Y-51809419D01*
X120621950Y-51809417D01*
X120621951Y-51809416D01*
X120704084Y-51686495D01*
X120760658Y-51549913D01*
X120772078Y-51492500D01*
X120789500Y-51404920D01*
X120789500Y-51257076D01*
X120760419Y-51110884D01*
X120758332Y-51106472D01*
X120714260Y-51000071D01*
X120704087Y-50975511D01*
X120704080Y-50975498D01*
X120621951Y-50852584D01*
X120621948Y-50852580D01*
X120621943Y-50852574D01*
X120517424Y-50748055D01*
X120517418Y-50748050D01*
X120517417Y-50748049D01*
X120394507Y-50665923D01*
X120394506Y-50665922D01*
X120394501Y-50665919D01*
X120394488Y-50665912D01*
X120394481Y-50665908D01*
X120257919Y-50609344D01*
X120257920Y-50609344D01*
X120257917Y-50609343D01*
X120257907Y-50609340D01*
X120257905Y-50609339D01*
X120257900Y-50609338D01*
X120112922Y-50580500D01*
X120112920Y-50580500D01*
X120112918Y-50580500D01*
X119965082Y-50580500D01*
X119965080Y-50580500D01*
X119965078Y-50580500D01*
X119820096Y-50609338D01*
X119820079Y-50609344D01*
X119683517Y-50665908D01*
X119683508Y-50665913D01*
X119683491Y-50665923D01*
X119560581Y-50748049D01*
X119560580Y-50748050D01*
X119560574Y-50748055D01*
X119456055Y-50852574D01*
X119456050Y-50852580D01*
X119456049Y-50852581D01*
X119373923Y-50975491D01*
X119373913Y-50975508D01*
X119373908Y-50975517D01*
X119317344Y-51112079D01*
X119317338Y-51112098D01*
X119288500Y-51257076D01*
X119288500Y-51360551D01*
X119283237Y-51378471D01*
X108744139Y-51378471D01*
X108716873Y-51294555D01*
X108638232Y-51140212D01*
X108536414Y-51000072D01*
X108413928Y-50877586D01*
X108273788Y-50775768D01*
X108219398Y-50748055D01*
X108119449Y-50697128D01*
X107963532Y-50646467D01*
X107959010Y-50644614D01*
X107949820Y-50642444D01*
X107945057Y-50642070D01*
X107934513Y-50640400D01*
X107823271Y-50622781D01*
X107807407Y-50620268D01*
X107783614Y-50616500D01*
X107783611Y-50616500D01*
X107610389Y-50616500D01*
X107610388Y-50616500D01*
X107570726Y-50622781D01*
X107570725Y-50622780D01*
X107439304Y-50643596D01*
X107274549Y-50697129D01*
X107120210Y-50775768D01*
X107040256Y-50833859D01*
X107040255Y-50833859D01*
X106991941Y-50868961D01*
X106984564Y-50873092D01*
X106853092Y-51004564D01*
X106848961Y-51011941D01*
X106813859Y-51060255D01*
X106813859Y-51060256D01*
X106755768Y-51140210D01*
X106677129Y-51294547D01*
X106623598Y-51459297D01*
X106623596Y-51459305D01*
X106605665Y-51572522D01*
X106600234Y-51606816D01*
X106596500Y-51630389D01*
X104291000Y-51630389D01*
X104291000Y-49090383D01*
X106596500Y-49090383D01*
X106596500Y-49263614D01*
X106615111Y-49381120D01*
X106623598Y-49434701D01*
X106677127Y-49599445D01*
X106755768Y-49753788D01*
X106857586Y-49893928D01*
X106980072Y-50016414D01*
X107120212Y-50118232D01*
X107274555Y-50196873D01*
X107439299Y-50250402D01*
X107610389Y-50277500D01*
X107610390Y-50277500D01*
X107783610Y-50277500D01*
X107783611Y-50277500D01*
X107954701Y-50250402D01*
X108119445Y-50196873D01*
X108273788Y-50118232D01*
X108413928Y-50016414D01*
X108536414Y-49893928D01*
X108638232Y-49753788D01*
X108716873Y-49599445D01*
X108770402Y-49434701D01*
X108797500Y-49263611D01*
X108797500Y-49090389D01*
X108770402Y-48919299D01*
X108716873Y-48754555D01*
X108638232Y-48600212D01*
X108536414Y-48460072D01*
X108413928Y-48337586D01*
X108273788Y-48235768D01*
X108119449Y-48157128D01*
X107963532Y-48106467D01*
X107959010Y-48104614D01*
X107949820Y-48102444D01*
X107945057Y-48102070D01*
X107934513Y-48100400D01*
X107823271Y-48082781D01*
X107807407Y-48080268D01*
X107783614Y-48076500D01*
X107783611Y-48076500D01*
X107610389Y-48076500D01*
X107610388Y-48076500D01*
X107570726Y-48082781D01*
X107570725Y-48082780D01*
X107439304Y-48103596D01*
X107274549Y-48157129D01*
X107120210Y-48235768D01*
X107040256Y-48293859D01*
X107040255Y-48293859D01*
X106991941Y-48328961D01*
X106984564Y-48333092D01*
X106853092Y-48464564D01*
X106848961Y-48471941D01*
X106813859Y-48520255D01*
X106813859Y-48520256D01*
X106755768Y-48600210D01*
X106677129Y-48754549D01*
X106623596Y-48919305D01*
X106596500Y-49090383D01*
X104291000Y-49090383D01*
X104291000Y-47172521D01*
X109866500Y-47172521D01*
X109866500Y-47481477D01*
X109901083Y-47788422D01*
X109901089Y-47788455D01*
X109969831Y-48089635D01*
X109969832Y-48089638D01*
X109969835Y-48089650D01*
X109969842Y-48089671D01*
X110071859Y-48381216D01*
X110071862Y-48381222D01*
X110071868Y-48381236D01*
X110192589Y-48631917D01*
X110205902Y-48659560D01*
X110206106Y-48659918D01*
X110206792Y-48660977D01*
X110370265Y-48921143D01*
X110562880Y-49162674D01*
X110781326Y-49381120D01*
X111022857Y-49573735D01*
X111284435Y-49738095D01*
X111562771Y-49872135D01*
X111562777Y-49872137D01*
X111659968Y-49906146D01*
X111854327Y-49974156D01*
X111854348Y-49974163D01*
X111854352Y-49974164D01*
X111854364Y-49974168D01*
X112039457Y-50016414D01*
X112154381Y-50042645D01*
X112155443Y-50042899D01*
X112155546Y-50042910D01*
X112155548Y-50042911D01*
X112155550Y-50042911D01*
X112155557Y-50042911D01*
X112155562Y-50042913D01*
X112360206Y-50065970D01*
X112442691Y-50075263D01*
X112459511Y-50077159D01*
X112461994Y-50077500D01*
X112771468Y-50077500D01*
X112781263Y-50077500D01*
X112788862Y-50075539D01*
X112928356Y-50059822D01*
X113077749Y-50042990D01*
X113078390Y-50042922D01*
X113078437Y-50042914D01*
X113078448Y-50042911D01*
X113078452Y-50042911D01*
X113379636Y-49974168D01*
X113671229Y-49872135D01*
X113949565Y-49738095D01*
X114211143Y-49573735D01*
X114452674Y-49381120D01*
X114671120Y-49162674D01*
X114863735Y-48921143D01*
X115028095Y-48659565D01*
X115162135Y-48381229D01*
X115264168Y-48089636D01*
X115332911Y-47788452D01*
X115332915Y-47788422D01*
X115349822Y-47638356D01*
X115367500Y-47481465D01*
X115367500Y-47172535D01*
X115367499Y-47172525D01*
X115367499Y-47172521D01*
X177126500Y-47172521D01*
X177126500Y-47481477D01*
X177161083Y-47788422D01*
X177161089Y-47788455D01*
X177229831Y-48089635D01*
X177229832Y-48089638D01*
X177229835Y-48089650D01*
X177229842Y-48089671D01*
X177331859Y-48381216D01*
X177331862Y-48381222D01*
X177331868Y-48381236D01*
X177452589Y-48631917D01*
X177465902Y-48659560D01*
X177466106Y-48659918D01*
X177466792Y-48660977D01*
X177630265Y-48921143D01*
X177822880Y-49162674D01*
X178041326Y-49381120D01*
X178282857Y-49573735D01*
X178544435Y-49738095D01*
X178822771Y-49872135D01*
X178822777Y-49872137D01*
X178919968Y-49906146D01*
X179114327Y-49974156D01*
X179114348Y-49974163D01*
X179114352Y-49974164D01*
X179114364Y-49974168D01*
X179299457Y-50016414D01*
X179414381Y-50042645D01*
X179415443Y-50042899D01*
X179415546Y-50042910D01*
X179415548Y-50042911D01*
X179415550Y-50042911D01*
X179415557Y-50042911D01*
X179415562Y-50042913D01*
X179620206Y-50065970D01*
X179702691Y-50075263D01*
X179719511Y-50077159D01*
X179721994Y-50077500D01*
X180031468Y-50077500D01*
X180041263Y-50077500D01*
X180048862Y-50075539D01*
X180188356Y-50059822D01*
X180337749Y-50042990D01*
X180338390Y-50042922D01*
X180338437Y-50042914D01*
X180338448Y-50042911D01*
X180338452Y-50042911D01*
X180639636Y-49974168D01*
X180931229Y-49872135D01*
X181209565Y-49738095D01*
X181471143Y-49573735D01*
X181712674Y-49381120D01*
X181931120Y-49162674D01*
X182123735Y-48921143D01*
X182288095Y-48659565D01*
X182422135Y-48381229D01*
X182524168Y-48089636D01*
X182592911Y-47788452D01*
X182592915Y-47788422D01*
X182609822Y-47638356D01*
X182627500Y-47481465D01*
X182627500Y-47172535D01*
X182615970Y-47070206D01*
X182592913Y-46865562D01*
X182592910Y-46865544D01*
X182524168Y-46564364D01*
X182524164Y-46564352D01*
X182456146Y-46369968D01*
X182422135Y-46272771D01*
X182288095Y-45994435D01*
X182123735Y-45732857D01*
X181931120Y-45491326D01*
X181712674Y-45272880D01*
X181712671Y-45272878D01*
X181651334Y-45223963D01*
X181471143Y-45080265D01*
X181210977Y-44916792D01*
X181209918Y-44916106D01*
X181209560Y-44915902D01*
X181181917Y-44902589D01*
X180931236Y-44781868D01*
X180931227Y-44781864D01*
X180931216Y-44781859D01*
X180639671Y-44679842D01*
X180639650Y-44679835D01*
X180639638Y-44679832D01*
X180639635Y-44679831D01*
X180516601Y-44651749D01*
X180338457Y-44611089D01*
X180338422Y-44611083D01*
X180031477Y-44576500D01*
X180031471Y-44576500D01*
X180031465Y-44576500D01*
X179722535Y-44576500D01*
X179722528Y-44576500D01*
X179722521Y-44576500D01*
X179415576Y-44611083D01*
X179415541Y-44611089D01*
X179114360Y-44679832D01*
X179114348Y-44679835D01*
X179114327Y-44679842D01*
X178822782Y-44781859D01*
X178822767Y-44781865D01*
X178822765Y-44781866D01*
X178544442Y-44915899D01*
X178282859Y-45080263D01*
X178041326Y-45272878D01*
X177822878Y-45491326D01*
X177630263Y-45732859D01*
X177465899Y-45994442D01*
X177331866Y-46272765D01*
X177331865Y-46272767D01*
X177331859Y-46272782D01*
X177229842Y-46564327D01*
X177229835Y-46564348D01*
X177229832Y-46564360D01*
X177161089Y-46865541D01*
X177161083Y-46865576D01*
X177126500Y-47172521D01*
X115367499Y-47172521D01*
X115332913Y-46865562D01*
X115332910Y-46865544D01*
X115264168Y-46564364D01*
X115264164Y-46564352D01*
X115196146Y-46369968D01*
X115162135Y-46272771D01*
X115028095Y-45994435D01*
X114863735Y-45732857D01*
X114671120Y-45491326D01*
X114452674Y-45272880D01*
X114452671Y-45272878D01*
X114391334Y-45223963D01*
X114211143Y-45080265D01*
X113950977Y-44916792D01*
X113949918Y-44916106D01*
X113949560Y-44915902D01*
X113921917Y-44902589D01*
X113846747Y-44866389D01*
X144797800Y-44866389D01*
X144797800Y-45289611D01*
X144824898Y-45460701D01*
X144878427Y-45625445D01*
X144957068Y-45779788D01*
X145058886Y-45919928D01*
X145181372Y-46042414D01*
X145321512Y-46144232D01*
X145475855Y-46222873D01*
X145640599Y-46276402D01*
X145811689Y-46303500D01*
X145811690Y-46303500D01*
X145984910Y-46303500D01*
X145984911Y-46303500D01*
X146156001Y-46276402D01*
X146320745Y-46222873D01*
X146475088Y-46144232D01*
X146615228Y-46042414D01*
X146737714Y-45919928D01*
X146839532Y-45779788D01*
X146918173Y-45625445D01*
X146971702Y-45460701D01*
X146998800Y-45289611D01*
X146998800Y-44866389D01*
X147297800Y-44866389D01*
X147297800Y-45289611D01*
X147324898Y-45460701D01*
X147378427Y-45625445D01*
X147457068Y-45779788D01*
X147558886Y-45919928D01*
X147681372Y-46042414D01*
X147821512Y-46144232D01*
X147975855Y-46222873D01*
X148140599Y-46276402D01*
X148311689Y-46303500D01*
X148311690Y-46303500D01*
X148484910Y-46303500D01*
X148484911Y-46303500D01*
X148656001Y-46276402D01*
X148820745Y-46222873D01*
X148975088Y-46144232D01*
X149115228Y-46042414D01*
X149237714Y-45919928D01*
X149339532Y-45779788D01*
X149418173Y-45625445D01*
X149471702Y-45460701D01*
X149498800Y-45289611D01*
X149498800Y-44866389D01*
X152297800Y-44866389D01*
X152297800Y-45289611D01*
X152324898Y-45460701D01*
X152378427Y-45625445D01*
X152457068Y-45779788D01*
X152558886Y-45919928D01*
X152681372Y-46042414D01*
X152821512Y-46144232D01*
X152975855Y-46222873D01*
X153140599Y-46276402D01*
X153311689Y-46303500D01*
X153311690Y-46303500D01*
X153484910Y-46303500D01*
X153484911Y-46303500D01*
X153656001Y-46276402D01*
X153820745Y-46222873D01*
X153975088Y-46144232D01*
X154115228Y-46042414D01*
X154237714Y-45919928D01*
X154339532Y-45779788D01*
X154418173Y-45625445D01*
X154471702Y-45460701D01*
X154498800Y-45289611D01*
X154498800Y-44866389D01*
X154797800Y-44866389D01*
X154797800Y-45289611D01*
X154824898Y-45460701D01*
X154878427Y-45625445D01*
X154957068Y-45779788D01*
X155058886Y-45919928D01*
X155181372Y-46042414D01*
X155321512Y-46144232D01*
X155475855Y-46222873D01*
X155640599Y-46276402D01*
X155811689Y-46303500D01*
X155811690Y-46303500D01*
X155984910Y-46303500D01*
X155984911Y-46303500D01*
X156156001Y-46276402D01*
X156320745Y-46222873D01*
X156475088Y-46144232D01*
X156615228Y-46042414D01*
X156737714Y-45919928D01*
X156839532Y-45779788D01*
X156918173Y-45625445D01*
X156971702Y-45460701D01*
X156998800Y-45289611D01*
X156998800Y-44866389D01*
X156971702Y-44695299D01*
X156918173Y-44530555D01*
X156839532Y-44376212D01*
X156839530Y-44376209D01*
X156839529Y-44376207D01*
X156838430Y-44374693D01*
X156838428Y-44374692D01*
X156836185Y-44371605D01*
X156836168Y-44371577D01*
X156829711Y-44362681D01*
X156829668Y-44362634D01*
X156787887Y-44305129D01*
X156787887Y-44305128D01*
X156787885Y-44305126D01*
X156787884Y-44305125D01*
X157297800Y-44305125D01*
X157297800Y-45850876D01*
X157297959Y-45852806D01*
X157298185Y-45854454D01*
X157304207Y-45910482D01*
X157331990Y-45984971D01*
X157354502Y-46045328D01*
X157354503Y-46045330D01*
X157354504Y-46045332D01*
X157354505Y-46045333D01*
X157440750Y-46160542D01*
X157440752Y-46160544D01*
X157440755Y-46160547D01*
X157555964Y-46246793D01*
X157555971Y-46246797D01*
X157605455Y-46265253D01*
X157640813Y-46291721D01*
X157697744Y-46297835D01*
X157697743Y-46297839D01*
X157697758Y-46297836D01*
X157750427Y-46303500D01*
X159046172Y-46303499D01*
X159105783Y-46297091D01*
X159240631Y-46246796D01*
X159355846Y-46160546D01*
X159442096Y-46045331D01*
X159492391Y-45910483D01*
X159498800Y-45850873D01*
X159498799Y-44305128D01*
X159492391Y-44245517D01*
X159488868Y-44236072D01*
X159442097Y-44110671D01*
X159442093Y-44110664D01*
X159355847Y-43995455D01*
X159355844Y-43995452D01*
X159355842Y-43995450D01*
X159297916Y-43952086D01*
X159240635Y-43909206D01*
X159240632Y-43909204D01*
X159240630Y-43909203D01*
X159240628Y-43909202D01*
X159191144Y-43890746D01*
X159155797Y-43864284D01*
X159053883Y-43853328D01*
X159049042Y-43852500D01*
X159046181Y-43852500D01*
X159046173Y-43852500D01*
X159046164Y-43852500D01*
X157750429Y-43852500D01*
X157750423Y-43852500D01*
X157748492Y-43852659D01*
X157746845Y-43852885D01*
X157690816Y-43858908D01*
X157605452Y-43890747D01*
X157555966Y-43909204D01*
X157555965Y-43909205D01*
X157440756Y-43995450D01*
X157440750Y-43995456D01*
X157354505Y-44110665D01*
X157354503Y-44110668D01*
X157304208Y-44245516D01*
X157297800Y-44305125D01*
X156787884Y-44305125D01*
X156744578Y-44245519D01*
X156737716Y-44236074D01*
X156615230Y-44113588D01*
X156615228Y-44113586D01*
X156475088Y-44011768D01*
X156443062Y-43995450D01*
X156320749Y-43933128D01*
X156164832Y-43882467D01*
X156160310Y-43880614D01*
X156151120Y-43878444D01*
X156146357Y-43878070D01*
X156135813Y-43876400D01*
X156024571Y-43858781D01*
X156008707Y-43856268D01*
X155984914Y-43852500D01*
X155984911Y-43852500D01*
X155811689Y-43852500D01*
X155811688Y-43852500D01*
X155772026Y-43858781D01*
X155772025Y-43858780D01*
X155640604Y-43879596D01*
X155475849Y-43933129D01*
X155321510Y-44011768D01*
X155241556Y-44069859D01*
X155241555Y-44069859D01*
X155193241Y-44104961D01*
X155185864Y-44109092D01*
X155054393Y-44240563D01*
X155050261Y-44247942D01*
X154958171Y-44374693D01*
X154957068Y-44376211D01*
X154957066Y-44376213D01*
X154957064Y-44376218D01*
X154878429Y-44530547D01*
X154824898Y-44695297D01*
X154824896Y-44695303D01*
X154811187Y-44781861D01*
X154811188Y-44781862D01*
X154797800Y-44866389D01*
X154498800Y-44866389D01*
X154471702Y-44695299D01*
X154418173Y-44530555D01*
X154339532Y-44376212D01*
X154237714Y-44236072D01*
X154115228Y-44113586D01*
X153975088Y-44011768D01*
X153943062Y-43995450D01*
X153820749Y-43933128D01*
X153664832Y-43882467D01*
X153660310Y-43880614D01*
X153651120Y-43878444D01*
X153646357Y-43878070D01*
X153635813Y-43876400D01*
X153524571Y-43858781D01*
X153508707Y-43856268D01*
X153484914Y-43852500D01*
X153484911Y-43852500D01*
X153311689Y-43852500D01*
X153311688Y-43852500D01*
X153272026Y-43858781D01*
X153272025Y-43858780D01*
X153140604Y-43879596D01*
X152975849Y-43933129D01*
X152821510Y-44011768D01*
X152741556Y-44069859D01*
X152741555Y-44069859D01*
X152693241Y-44104961D01*
X152685864Y-44109092D01*
X152554393Y-44240563D01*
X152550261Y-44247942D01*
X152458171Y-44374693D01*
X152457068Y-44376211D01*
X152457066Y-44376213D01*
X152457064Y-44376218D01*
X152378429Y-44530547D01*
X152324898Y-44695297D01*
X152324896Y-44695303D01*
X152311187Y-44781861D01*
X152311188Y-44781862D01*
X152297800Y-44866389D01*
X149498800Y-44866389D01*
X149471702Y-44695299D01*
X149418173Y-44530555D01*
X149339532Y-44376212D01*
X149237714Y-44236072D01*
X149115228Y-44113586D01*
X148975088Y-44011768D01*
X148943062Y-43995450D01*
X148820749Y-43933128D01*
X148664832Y-43882467D01*
X148660310Y-43880614D01*
X148651120Y-43878444D01*
X148646357Y-43878070D01*
X148635813Y-43876400D01*
X148524571Y-43858781D01*
X148508707Y-43856268D01*
X148484914Y-43852500D01*
X148484911Y-43852500D01*
X148311689Y-43852500D01*
X148311688Y-43852500D01*
X148272026Y-43858781D01*
X148272025Y-43858780D01*
X148140604Y-43879596D01*
X147975849Y-43933129D01*
X147821510Y-44011768D01*
X147741556Y-44069859D01*
X147741555Y-44069859D01*
X147693241Y-44104961D01*
X147685864Y-44109092D01*
X147554393Y-44240563D01*
X147550261Y-44247942D01*
X147458171Y-44374693D01*
X147457068Y-44376211D01*
X147457066Y-44376213D01*
X147457064Y-44376218D01*
X147378429Y-44530547D01*
X147324898Y-44695297D01*
X147324896Y-44695303D01*
X147311187Y-44781861D01*
X147311188Y-44781862D01*
X147297800Y-44866389D01*
X146998800Y-44866389D01*
X146971702Y-44695299D01*
X146918173Y-44530555D01*
X146839532Y-44376212D01*
X146737714Y-44236072D01*
X146615228Y-44113586D01*
X146475088Y-44011768D01*
X146443062Y-43995450D01*
X146320749Y-43933128D01*
X146164832Y-43882467D01*
X146160310Y-43880614D01*
X146151120Y-43878444D01*
X146146357Y-43878070D01*
X146135813Y-43876400D01*
X146024571Y-43858781D01*
X146008707Y-43856268D01*
X145984914Y-43852500D01*
X145984911Y-43852500D01*
X145811689Y-43852500D01*
X145811688Y-43852500D01*
X145772026Y-43858781D01*
X145772025Y-43858780D01*
X145640604Y-43879596D01*
X145475849Y-43933129D01*
X145321510Y-44011768D01*
X145241556Y-44069859D01*
X145241555Y-44069859D01*
X145193241Y-44104961D01*
X145185864Y-44109092D01*
X145054393Y-44240563D01*
X145050261Y-44247942D01*
X144958171Y-44374693D01*
X144957068Y-44376211D01*
X144957066Y-44376213D01*
X144957064Y-44376218D01*
X144878429Y-44530547D01*
X144824898Y-44695297D01*
X144824896Y-44695303D01*
X144811187Y-44781861D01*
X144811188Y-44781862D01*
X144797800Y-44866389D01*
X113846747Y-44866389D01*
X113671236Y-44781868D01*
X113671227Y-44781864D01*
X113671216Y-44781859D01*
X113379671Y-44679842D01*
X113379650Y-44679835D01*
X113379638Y-44679832D01*
X113379635Y-44679831D01*
X113256601Y-44651749D01*
X113078457Y-44611089D01*
X113078422Y-44611083D01*
X112771477Y-44576500D01*
X112771471Y-44576500D01*
X112771465Y-44576500D01*
X112462535Y-44576500D01*
X112462528Y-44576500D01*
X112462521Y-44576500D01*
X112155576Y-44611083D01*
X112155541Y-44611089D01*
X111854360Y-44679832D01*
X111854348Y-44679835D01*
X111854327Y-44679842D01*
X111562782Y-44781859D01*
X111562767Y-44781865D01*
X111562765Y-44781866D01*
X111284442Y-44915899D01*
X111022859Y-45080263D01*
X110781326Y-45272878D01*
X110562878Y-45491326D01*
X110370263Y-45732859D01*
X110205899Y-45994442D01*
X110071866Y-46272765D01*
X110071865Y-46272767D01*
X110071859Y-46272782D01*
X109969842Y-46564327D01*
X109969835Y-46564348D01*
X109969832Y-46564360D01*
X109901089Y-46865541D01*
X109901083Y-46865576D01*
X109866500Y-47172521D01*
X104291000Y-47172521D01*
X104291000Y-40804829D01*
X104296023Y-40769893D01*
X104300427Y-40754895D01*
X104338172Y-40696144D01*
X104339541Y-40694957D01*
X104394420Y-40667477D01*
X104401979Y-40665833D01*
X104428332Y-40663000D01*
X183662170Y-40663000D01*
X183697106Y-40668023D01*
G37*
%TD.AperFunction*%
%TD*%
%TA.AperFunction,Conductor*%
%TO.N,/System overview/Block diagram/S19V5*%
G36*
X175934677Y-53128685D02*
G01*
X175955319Y-53145319D01*
X176136681Y-53326681D01*
X176170166Y-53388004D01*
X176173000Y-53414362D01*
X176173000Y-55343638D01*
X176153315Y-55410677D01*
X176136681Y-55431319D01*
X175955319Y-55612681D01*
X175893996Y-55646166D01*
X175867638Y-55649000D01*
X169314999Y-55649000D01*
X168553000Y-56410999D01*
X168553000Y-62963638D01*
X168533315Y-63030677D01*
X168516681Y-63051319D01*
X167573319Y-63994681D01*
X167511996Y-64028166D01*
X167485638Y-64031000D01*
X163524362Y-64031000D01*
X163457323Y-64011315D01*
X163436681Y-63994681D01*
X162493319Y-63051319D01*
X162459834Y-62989996D01*
X162457000Y-62963638D01*
X162457000Y-53668362D01*
X162476685Y-53601323D01*
X162493319Y-53580681D01*
X162928681Y-53145319D01*
X162990004Y-53111834D01*
X163016362Y-53109000D01*
X175867638Y-53109000D01*
X175934677Y-53128685D01*
G37*
%TD.AperFunction*%
%TD*%
%TA.AperFunction,Conductor*%
%TO.N,/System overview/Block diagram/DCDC converter 3V3/S19V5_2*%
G36*
X187814706Y-74700690D02*
G01*
X187963381Y-74725500D01*
X196388619Y-74725500D01*
X196537293Y-74700691D01*
X196557702Y-74699000D01*
X197875500Y-74699000D01*
X197942539Y-74718685D01*
X197988294Y-74771489D01*
X197999500Y-74823000D01*
X197999500Y-79655000D01*
X197979815Y-79722039D01*
X197927011Y-79767794D01*
X197875500Y-79779000D01*
X186451772Y-79779000D01*
X186384733Y-79759315D01*
X186338978Y-79706511D01*
X186327772Y-79655024D01*
X186327735Y-79461131D01*
X186327523Y-78347530D01*
X191124500Y-78347530D01*
X191124500Y-78554469D01*
X191164868Y-78757412D01*
X191164870Y-78757420D01*
X191244058Y-78948596D01*
X191359024Y-79120657D01*
X191505342Y-79266975D01*
X191505345Y-79266977D01*
X191677402Y-79381941D01*
X191868580Y-79461130D01*
X192071530Y-79501499D01*
X192071534Y-79501500D01*
X192071535Y-79501500D01*
X192278466Y-79501500D01*
X192278467Y-79501499D01*
X192481420Y-79461130D01*
X192672598Y-79381941D01*
X192844655Y-79266977D01*
X192990977Y-79120655D01*
X193105941Y-78948598D01*
X193185130Y-78757420D01*
X193225500Y-78554465D01*
X193225500Y-78347535D01*
X193185130Y-78144580D01*
X193105941Y-77953402D01*
X192990977Y-77781345D01*
X192990975Y-77781342D01*
X192844657Y-77635024D01*
X192758626Y-77577541D01*
X192672598Y-77520059D01*
X192481420Y-77440870D01*
X192481412Y-77440868D01*
X192278469Y-77400500D01*
X192278465Y-77400500D01*
X192071535Y-77400500D01*
X192071530Y-77400500D01*
X191868587Y-77440868D01*
X191868579Y-77440870D01*
X191677403Y-77520058D01*
X191505342Y-77635024D01*
X191359024Y-77781342D01*
X191244058Y-77953403D01*
X191164870Y-78144579D01*
X191164868Y-78144587D01*
X191124500Y-78347530D01*
X186327523Y-78347530D01*
X186326852Y-74823024D01*
X186346524Y-74755980D01*
X186399319Y-74710215D01*
X186450852Y-74699000D01*
X187794298Y-74699000D01*
X187814706Y-74700690D01*
G37*
%TD.AperFunction*%
%TD*%
M02*
