%TF.GenerationSoftware,KiCad,Pcbnew,10.0.5-unknown-202607221313~667fa36054~ubuntu25.10.1*%
%TF.CreationDate,2026-10-08T19:49:46+00:00*%
%TF.ProjectId,ktest,6b746573-742e-46b6-9963-61645f706362,0.0.2*%
%TF.SameCoordinates,Original*%
%TF.FileFunction,Legend,Bot*%
%TF.FilePolarity,Positive*%
%FSLAX46Y46*%
G04 Gerber Fmt 4.6, Leading zero omitted, Abs format (unit mm)*
G04 Created by KiCad (PCBNEW 10.0.5-unknown-202607221313~667fa36054~ubuntu25.10.1) date 2026-10-08 19:49:46*
%MOMM*%
%LPD*%
G01*
G04 APERTURE LIST*
%ADD10C,0.100000*%
%ADD11C,0.150000*%
%ADD12C,0.200000*%
%ADD13C,0.120000*%
%ADD14C,0.050000*%
G04 APERTURE END LIST*
D10*
X115550919Y-111422266D02*
X116265204Y-111422266D01*
X116265204Y-111422266D02*
X116408061Y-111374647D01*
X116408061Y-111374647D02*
X116503300Y-111279409D01*
X116503300Y-111279409D02*
X116550919Y-111136552D01*
X116550919Y-111136552D02*
X116550919Y-111041314D01*
X115884252Y-112327028D02*
X116550919Y-112327028D01*
X115503300Y-112088933D02*
X116217585Y-111850838D01*
X116217585Y-111850838D02*
X116217585Y-112469885D01*
D11*
X155643333Y-97246819D02*
X155643333Y-97961104D01*
X155643333Y-97961104D02*
X155690952Y-98103961D01*
X155690952Y-98103961D02*
X155786190Y-98199200D01*
X155786190Y-98199200D02*
X155929047Y-98246819D01*
X155929047Y-98246819D02*
X156024285Y-98246819D01*
X155214761Y-97342057D02*
X155167142Y-97294438D01*
X155167142Y-97294438D02*
X155071904Y-97246819D01*
X155071904Y-97246819D02*
X154833809Y-97246819D01*
X154833809Y-97246819D02*
X154738571Y-97294438D01*
X154738571Y-97294438D02*
X154690952Y-97342057D01*
X154690952Y-97342057D02*
X154643333Y-97437295D01*
X154643333Y-97437295D02*
X154643333Y-97532533D01*
X154643333Y-97532533D02*
X154690952Y-97675390D01*
X154690952Y-97675390D02*
X155262380Y-98246819D01*
X155262380Y-98246819D02*
X154643333Y-98246819D01*
X82463333Y-109946819D02*
X82463333Y-110661104D01*
X82463333Y-110661104D02*
X82510952Y-110803961D01*
X82510952Y-110803961D02*
X82606190Y-110899200D01*
X82606190Y-110899200D02*
X82749047Y-110946819D01*
X82749047Y-110946819D02*
X82844285Y-110946819D01*
X82082380Y-109946819D02*
X81463333Y-109946819D01*
X81463333Y-109946819D02*
X81796666Y-110327771D01*
X81796666Y-110327771D02*
X81653809Y-110327771D01*
X81653809Y-110327771D02*
X81558571Y-110375390D01*
X81558571Y-110375390D02*
X81510952Y-110423009D01*
X81510952Y-110423009D02*
X81463333Y-110518247D01*
X81463333Y-110518247D02*
X81463333Y-110756342D01*
X81463333Y-110756342D02*
X81510952Y-110851580D01*
X81510952Y-110851580D02*
X81558571Y-110899200D01*
X81558571Y-110899200D02*
X81653809Y-110946819D01*
X81653809Y-110946819D02*
X81939523Y-110946819D01*
X81939523Y-110946819D02*
X82034761Y-110899200D01*
X82034761Y-110899200D02*
X82082380Y-110851580D01*
D10*
X120278580Y-92783428D02*
X120278580Y-92212000D01*
X119278580Y-92497714D02*
X120278580Y-92497714D01*
X119802390Y-91545333D02*
X119802390Y-91878666D01*
X119278580Y-91878666D02*
X120278580Y-91878666D01*
X120278580Y-91878666D02*
X120278580Y-91402476D01*
X120278580Y-91164380D02*
X120278580Y-90592952D01*
X119278580Y-90878666D02*
X120278580Y-90878666D01*
X119278580Y-89735809D02*
X119278580Y-90307237D01*
X119278580Y-90021523D02*
X120278580Y-90021523D01*
X120278580Y-90021523D02*
X120135723Y-90116761D01*
X120135723Y-90116761D02*
X120040485Y-90211999D01*
X120040485Y-90211999D02*
X119992866Y-90307237D01*
%TO.C,J8*%
X137271000Y-78253000D02*
X137271000Y-76983000D01*
X150733000Y-78253000D02*
X150733000Y-76983000D01*
%TO.C,J4*%
D12*
X117363500Y-109977600D02*
X117363500Y-114877600D01*
X130063500Y-109977600D02*
X117363500Y-109977600D01*
X130063500Y-114877600D02*
X117363500Y-114877600D01*
X130063500Y-114877600D02*
X130063500Y-109977600D01*
X116813500Y-107437600D02*
G75*
G02*
X116613500Y-107437600I-100000J0D01*
G01*
X116613500Y-107437600D02*
G75*
G02*
X116813500Y-107437600I100000J0D01*
G01*
%TO.C,J2*%
D13*
X153980000Y-86072000D02*
X156640000Y-86072000D01*
X153980000Y-93752000D02*
X153980000Y-86072000D01*
X153980000Y-93752000D02*
X156640000Y-93752000D01*
X155310000Y-96352000D02*
X156640000Y-96352000D01*
X156640000Y-93752000D02*
X156640000Y-86072000D01*
X156640000Y-96352000D02*
X156640000Y-95022000D01*
%TO.C,J3*%
X80800000Y-73372000D02*
X83460000Y-73372000D01*
X80800000Y-106452000D02*
X80800000Y-73372000D01*
X80800000Y-106452000D02*
X83460000Y-106452000D01*
X82130000Y-109052000D02*
X83460000Y-109052000D01*
X83460000Y-106452000D02*
X83460000Y-73372000D01*
X83460000Y-109052000D02*
X83460000Y-107722000D01*
%TO.C,TFT1*%
D14*
X80380000Y-72922000D02*
X83920000Y-72922000D01*
X80380000Y-109502000D02*
X80380000Y-72922000D01*
X83920000Y-72922000D02*
X83920000Y-109502000D01*
X83920000Y-109502000D02*
X80380000Y-109502000D01*
X153550000Y-85622000D02*
X157090000Y-85622000D01*
X153550000Y-96802000D02*
X153550000Y-85622000D01*
X157090000Y-85624000D02*
X157090000Y-96802000D01*
X157090000Y-96802000D02*
X153550000Y-96802000D01*
%TD*%
M02*
