%TF.GenerationSoftware,KiCad,Pcbnew,10.0.5-unknown-202607221313~667fa36054~ubuntu25.10.1*%
%TF.CreationDate,2026-10-10T16:46:04+00:00*%
%TF.ProjectId,ktest,6b746573-742e-46b6-9963-61645f706362,0.0.2*%
%TF.SameCoordinates,Original*%
%TF.FileFunction,Soldermask,Top*%
%TF.FilePolarity,Negative*%
%FSLAX46Y46*%
G04 Gerber Fmt 4.6, Leading zero omitted, Abs format (unit mm)*
G04 Created by KiCad (PCBNEW 10.0.5-unknown-202607221313~667fa36054~ubuntu25.10.1) date 2026-10-10 16:46:04*
%MOMM*%
%LPD*%
G01*
G04 APERTURE LIST*
G04 Aperture macros list*
%AMRoundRect*
0 Rectangle with rounded corners*
0 $1 Rounding radius*
0 $2 $3 $4 $5 $6 $7 $8 $9 X,Y pos of 4 corners*
0 Add a 4 corners polygon primitive as box body*
4,1,4,$2,$3,$4,$5,$6,$7,$8,$9,$2,$3,0*
0 Add four circle primitives for the rounded corners*
1,1,$1+$1,$2,$3*
1,1,$1+$1,$4,$5*
1,1,$1+$1,$6,$7*
1,1,$1+$1,$8,$9*
0 Add four rect primitives between the rounded corners*
20,1,$1+$1,$2,$3,$4,$5,0*
20,1,$1+$1,$4,$5,$6,$7,0*
20,1,$1+$1,$6,$7,$8,$9,0*
20,1,$1+$1,$8,$9,$2,$3,0*%
%AMFreePoly0*
4,1,33,0.340887,0.456921,0.417938,0.405438,0.469421,0.328387,0.487500,0.237500,0.487500,0.150000,1.000000,0.150000,1.029264,0.147118,1.083336,0.124720,1.124720,0.083336,1.147118,0.029264,1.147118,-0.029264,1.124720,-0.083336,1.083336,-0.124720,1.029264,-0.147118,1.000000,-0.150000,0.487500,-0.150000,0.487500,-0.237500,0.469421,-0.328387,0.417938,-0.405438,0.340887,-0.456921,
0.250000,-0.475000,-0.250000,-0.475000,-0.340887,-0.456921,-0.417938,-0.405438,-0.469421,-0.328387,-0.487500,-0.237500,-0.487500,0.237500,-0.469421,0.328387,-0.417938,0.405438,-0.340887,0.456921,-0.250000,0.475000,0.250000,0.475000,0.340887,0.456921,0.340887,0.456921,$1*%
G04 Aperture macros list end*
%ADD10C,0.010000*%
%ADD11RoundRect,0.237500X-0.237500X0.300000X-0.237500X-0.300000X0.237500X-0.300000X0.237500X0.300000X0*%
%ADD12RoundRect,0.237500X0.237500X-0.250000X0.237500X0.250000X-0.237500X0.250000X-0.237500X-0.250000X0*%
%ADD13FreePoly0,90.000000*%
%ADD14FreePoly0,270.000000*%
%ADD15RoundRect,0.237500X-0.300000X-0.237500X0.300000X-0.237500X0.300000X0.237500X-0.300000X0.237500X0*%
%ADD16RoundRect,0.250000X0.412500X1.100000X-0.412500X1.100000X-0.412500X-1.100000X0.412500X-1.100000X0*%
%ADD17RoundRect,0.298387X-0.626613X-1.401613X0.626613X-1.401613X0.626613X1.401613X-0.626613X1.401613X0*%
%ADD18C,1.000000*%
%ADD19RoundRect,0.237500X0.237500X-0.300000X0.237500X0.300000X-0.237500X0.300000X-0.237500X-0.300000X0*%
%ADD20RoundRect,0.237500X0.300000X0.237500X-0.300000X0.237500X-0.300000X-0.237500X0.300000X-0.237500X0*%
%ADD21C,1.400000*%
%ADD22FreePoly0,180.000000*%
%ADD23FreePoly0,0.000000*%
%ADD24RoundRect,0.237500X-0.237500X0.250000X-0.237500X-0.250000X0.237500X-0.250000X0.237500X0.250000X0*%
%ADD25R,3.100000X2.600000*%
%ADD26R,0.600000X1.550000*%
%ADD27C,1.200000*%
%ADD28O,2.600000X1.600000*%
%ADD29C,1.600000*%
%ADD30R,1.600000X2.600000*%
%ADD31RoundRect,0.237500X0.250000X0.237500X-0.250000X0.237500X-0.250000X-0.237500X0.250000X-0.237500X0*%
%ADD32RoundRect,0.250000X-0.625000X0.400000X-0.625000X-0.400000X0.625000X-0.400000X0.625000X0.400000X0*%
%ADD33RoundRect,0.250000X0.400000X0.625000X-0.400000X0.625000X-0.400000X-0.625000X0.400000X-0.625000X0*%
%ADD34RoundRect,0.250000X6.227000X0.829500X-6.227000X0.829500X-6.227000X-0.829500X6.227000X-0.829500X0*%
%ADD35RoundRect,0.250000X0.512000X0.829500X-0.512000X0.829500X-0.512000X-0.829500X0.512000X-0.829500X0*%
%ADD36RoundRect,0.250000X-0.650000X0.412500X-0.650000X-0.412500X0.650000X-0.412500X0.650000X0.412500X0*%
%ADD37O,1.000000X0.850000*%
%ADD38O,1.000000X1.800000*%
%ADD39RoundRect,0.250000X0.650000X-0.800000X0.650000X0.800000X-0.650000X0.800000X-0.650000X-0.800000X0*%
%ADD40RoundRect,0.162500X-0.575000X-0.162500X0.575000X-0.162500X0.575000X0.162500X-0.575000X0.162500X0*%
%ADD41RoundRect,0.250000X-0.400000X-0.625000X0.400000X-0.625000X0.400000X0.625000X-0.400000X0.625000X0*%
%ADD42RoundRect,0.150000X-0.150000X0.512500X-0.150000X-0.512500X0.150000X-0.512500X0.150000X0.512500X0*%
%ADD43RoundRect,0.125000X-0.125000X0.625000X-0.125000X-0.625000X0.125000X-0.625000X0.125000X0.625000X0*%
%ADD44RoundRect,0.125000X-0.625000X0.125000X-0.625000X-0.125000X0.625000X-0.125000X0.625000X0.125000X0*%
%ADD45RoundRect,0.250000X-0.600000X-0.725000X0.600000X-0.725000X0.600000X0.725000X-0.600000X0.725000X0*%
%ADD46O,1.700000X1.950000*%
%ADD47RoundRect,0.250000X-1.750000X-1.000000X1.750000X-1.000000X1.750000X1.000000X-1.750000X1.000000X0*%
%ADD48RoundRect,0.250000X0.600000X0.725000X-0.600000X0.725000X-0.600000X-0.725000X0.600000X-0.725000X0*%
%ADD49RoundRect,0.250000X-0.412500X-1.100000X0.412500X-1.100000X0.412500X1.100000X-0.412500X1.100000X0*%
%ADD50RoundRect,0.150000X0.150000X-0.587500X0.150000X0.587500X-0.150000X0.587500X-0.150000X-0.587500X0*%
%ADD51RoundRect,0.080000X-0.545000X0.545000X-0.545000X-0.545000X0.545000X-0.545000X0.545000X0.545000X0*%
%ADD52C,1.250000*%
%ADD53R,1.700000X1.700000*%
%ADD54C,1.700000*%
%ADD55C,5.000000*%
G04 APERTURE END LIST*
D10*
X184012000Y-74699000D02*
X196204000Y-74699000D01*
X196204000Y-77349000D01*
X184012000Y-77349000D01*
X184012000Y-74699000D01*
G36*
X184012000Y-74699000D02*
G01*
X196204000Y-74699000D01*
X196204000Y-77349000D01*
X184012000Y-77349000D01*
X184012000Y-74699000D01*
G37*
X184012000Y-77239000D02*
X185790000Y-77239000D01*
X185790000Y-79779000D01*
X184012000Y-79779000D01*
X184012000Y-77239000D01*
G36*
X184012000Y-77239000D02*
G01*
X185790000Y-77239000D01*
X185790000Y-79779000D01*
X184012000Y-79779000D01*
X184012000Y-77239000D01*
G37*
X194426000Y-77239000D02*
X196204000Y-77239000D01*
X196204000Y-79779000D01*
X194426000Y-79779000D01*
X194426000Y-77239000D01*
G36*
X194426000Y-77239000D02*
G01*
X196204000Y-77239000D01*
X196204000Y-79779000D01*
X194426000Y-79779000D01*
X194426000Y-77239000D01*
G37*
D11*
%TO.C,C27*%
X145404000Y-49452500D03*
X145404000Y-51177500D03*
%TD*%
D12*
%TO.C,R10*%
X120004000Y-51227500D03*
X120004000Y-49402500D03*
%TD*%
D13*
%TO.C,JP13*%
X120258000Y-72817500D03*
D14*
X120258000Y-70992500D03*
%TD*%
D11*
%TO.C,C14*%
X128386000Y-53008500D03*
X128386000Y-54733500D03*
%TD*%
D15*
%TO.C,C6*%
X161305500Y-70889000D03*
X163030500Y-70889000D03*
%TD*%
D16*
%TO.C,C18*%
X168556500Y-75461000D03*
X165431500Y-75461000D03*
%TD*%
D12*
%TO.C,R9*%
X135752000Y-56561500D03*
X135752000Y-54736500D03*
%TD*%
D17*
%TO.C,L1*%
X163711000Y-84097000D03*
X169261000Y-84097000D03*
%TD*%
D18*
%TO.C,TP13*%
X138546000Y-57173000D03*
%TD*%
D19*
%TO.C,C23*%
X141848000Y-51177500D03*
X141848000Y-49452500D03*
%TD*%
D20*
%TO.C,C10*%
X132296500Y-57427000D03*
X130571500Y-57427000D03*
%TD*%
D18*
%TO.C,TP18*%
X179186000Y-79779000D03*
%TD*%
D19*
%TO.C,C12*%
X159374000Y-84705500D03*
X159374000Y-82980500D03*
%TD*%
D11*
%TO.C,C9*%
X161660000Y-80440500D03*
X161660000Y-82165500D03*
%TD*%
D21*
%TO.C,JP9*%
X116770000Y-62287000D03*
X116770000Y-67367000D03*
%TD*%
D18*
%TO.C,TP10*%
X173090000Y-71899722D03*
%TD*%
%TO.C,TP7*%
X117221000Y-76454000D03*
%TD*%
D12*
%TO.C,JP20*%
X129656000Y-81707500D03*
X129656000Y-79882500D03*
%TD*%
D22*
%TO.C,JP8*%
X110756500Y-69365000D03*
D23*
X108931500Y-69365000D03*
%TD*%
D24*
%TO.C,R14*%
X130672000Y-85216500D03*
X130672000Y-87041500D03*
%TD*%
D22*
%TO.C,JP2*%
X110756500Y-53109000D03*
D23*
X108931500Y-53109000D03*
%TD*%
D25*
%TO.C,U1*%
X161406000Y-75715000D03*
D26*
X163311000Y-73015000D03*
X162041000Y-73015000D03*
X160771000Y-73015000D03*
X159501000Y-73015000D03*
X159501000Y-78415000D03*
X160771000Y-78415000D03*
X162041000Y-78415000D03*
X163311000Y-78415000D03*
%TD*%
D18*
%TO.C,TP17*%
X179186000Y-77493000D03*
%TD*%
D12*
%TO.C,R12*%
X143626000Y-51227500D03*
X143626000Y-49402500D03*
%TD*%
D18*
%TO.C,TP21*%
X143626000Y-56919000D03*
%TD*%
%TO.C,TP6*%
X161406000Y-84097000D03*
%TD*%
%TO.C,TP8*%
X136006000Y-72667000D03*
%TD*%
D27*
%TO.C,J6*%
X188383000Y-88001000D03*
X191833000Y-88001000D03*
D28*
X187333000Y-78451000D03*
X192883000Y-78451000D03*
D29*
X190108000Y-78451000D03*
D28*
X190108000Y-81851000D03*
X190108000Y-85651000D03*
D30*
X185333000Y-81551000D03*
X185333000Y-87951000D03*
X194883000Y-81551000D03*
X194883000Y-87951000D03*
%TD*%
D23*
%TO.C,JP15*%
X139919500Y-65555000D03*
D22*
X141744500Y-65555000D03*
%TD*%
D18*
%TO.C,TP14*%
X117972000Y-51331000D03*
%TD*%
D31*
%TO.C,R13*%
X139458500Y-45235000D03*
X137633500Y-45235000D03*
%TD*%
D18*
%TO.C,TP9*%
X137784000Y-61237000D03*
%TD*%
D19*
%TO.C,C3*%
X117210000Y-81657500D03*
X117210000Y-79932500D03*
%TD*%
D32*
%TO.C,JP14*%
X144642000Y-69085000D03*
X144642000Y-72185000D03*
%TD*%
D23*
%TO.C,JP16*%
X139919500Y-67587000D03*
D22*
X141744500Y-67587000D03*
%TD*%
D18*
%TO.C,TP5*%
X157596000Y-80795000D03*
%TD*%
D12*
%TO.C,R7*%
X157596000Y-78659500D03*
X157596000Y-76834500D03*
%TD*%
D33*
%TO.C,JP5*%
X112156000Y-59713000D03*
X109056000Y-59713000D03*
%TD*%
D22*
%TO.C,JP10*%
X110756500Y-74445000D03*
D23*
X108931500Y-74445000D03*
%TD*%
D22*
%TO.C,JP21*%
X135394500Y-78001000D03*
D23*
X133569500Y-78001000D03*
%TD*%
D19*
%TO.C,C16*%
X122036000Y-72767500D03*
X122036000Y-71042500D03*
%TD*%
D34*
%TO.C,J8*%
X167502000Y-53807500D03*
D35*
X173217000Y-50378500D03*
X161787000Y-50378500D03*
%TD*%
D36*
%TO.C,C4*%
X165470000Y-69580500D03*
X165470000Y-72705500D03*
%TD*%
D20*
%TO.C,C26*%
X139408500Y-43457000D03*
X137683500Y-43457000D03*
%TD*%
D37*
%TO.C,J5*%
X133807000Y-87947000D03*
X133807000Y-86847000D03*
X133807000Y-85747000D03*
X133807000Y-84647000D03*
X133807000Y-83547000D03*
X133807000Y-82447000D03*
X133807000Y-81347000D03*
X133807000Y-80247000D03*
X135157000Y-80247000D03*
X135157000Y-81347000D03*
X135157000Y-82447000D03*
X135157000Y-83547000D03*
X135157000Y-84647000D03*
X135157000Y-85747000D03*
X135157000Y-86847000D03*
X135157000Y-87947000D03*
D38*
X132332000Y-86597000D03*
X136632000Y-86597000D03*
X132332000Y-81597000D03*
X136632000Y-81597000D03*
%TD*%
D18*
%TO.C,TP15*%
X143626000Y-54633000D03*
%TD*%
D12*
%TO.C,R2*%
X127878000Y-81707500D03*
X127878000Y-79882500D03*
%TD*%
D15*
%TO.C,C1*%
X104917500Y-85113000D03*
X106642500Y-85113000D03*
%TD*%
D12*
%TO.C,R5*%
X118988000Y-81707500D03*
X118988000Y-79882500D03*
%TD*%
D18*
%TO.C,TP11*%
X133720000Y-70889000D03*
%TD*%
%TO.C,TP3*%
X122798000Y-77747000D03*
%TD*%
%TO.C,TP16*%
X138546000Y-88161000D03*
%TD*%
D39*
%TO.C,Y1*%
X132584000Y-55321000D03*
X132584000Y-52421000D03*
X130284000Y-52421000D03*
X130284000Y-55321000D03*
%TD*%
D20*
%TO.C,C25*%
X146520500Y-60475000D03*
X144795500Y-60475000D03*
%TD*%
D12*
%TO.C,R15*%
X138292000Y-82977500D03*
X138292000Y-81152500D03*
%TD*%
D31*
%TO.C,JP6*%
X110756500Y-61999000D03*
X108931500Y-61999000D03*
%TD*%
D40*
%TO.C,U3*%
X148637500Y-56030000D03*
X148637500Y-57300000D03*
X148637500Y-58570000D03*
X148637500Y-59840000D03*
X148637500Y-61110000D03*
X148637500Y-62380000D03*
X148637500Y-63650000D03*
X148637500Y-64920000D03*
X154362500Y-64920000D03*
X154362500Y-63650000D03*
X154362500Y-62380000D03*
X154362500Y-61110000D03*
X154362500Y-59840000D03*
X154362500Y-58570000D03*
X154362500Y-57300000D03*
X154362500Y-56030000D03*
%TD*%
D41*
%TO.C,JP19*%
X138266000Y-54633000D03*
X141366000Y-54633000D03*
%TD*%
D15*
%TO.C,C13*%
X133619500Y-61237000D03*
X135344500Y-61237000D03*
%TD*%
D12*
%TO.C,R6*%
X157596000Y-84755500D03*
X157596000Y-82930500D03*
%TD*%
D18*
%TO.C,TP20*%
X161152000Y-87907000D03*
%TD*%
%TO.C,TP19*%
X117972000Y-53871000D03*
%TD*%
D15*
%TO.C,C11*%
X133619500Y-59459000D03*
X135344500Y-59459000D03*
%TD*%
D33*
%TO.C,JP7*%
X112156000Y-66317000D03*
X109056000Y-66317000D03*
%TD*%
D16*
%TO.C,C17*%
X168556500Y-78763000D03*
X165431500Y-78763000D03*
%TD*%
D18*
%TO.C,TP4*%
X120512000Y-77747000D03*
%TD*%
D24*
%TO.C,R3*%
X157596000Y-72770500D03*
X157596000Y-74595500D03*
%TD*%
D19*
%TO.C,C5*%
X126100000Y-81657500D03*
X126100000Y-79932500D03*
%TD*%
D42*
%TO.C,U4*%
X131876000Y-75593500D03*
X130926000Y-75593500D03*
X129976000Y-75593500D03*
X129976000Y-77868500D03*
X130926000Y-77868500D03*
X131876000Y-77868500D03*
%TD*%
D19*
%TO.C,C19*%
X123814000Y-72767500D03*
X123814000Y-71042500D03*
%TD*%
D18*
%TO.C,TP12*%
X141086000Y-57173000D03*
%TD*%
D23*
%TO.C,JP17*%
X139919500Y-69619000D03*
D22*
X141744500Y-69619000D03*
%TD*%
D19*
%TO.C,C20*%
X121997900Y-69211500D03*
X121997900Y-67486500D03*
%TD*%
D18*
%TO.C,TP2*%
X159120000Y-70889000D03*
%TD*%
D43*
%TO.C,U2*%
X131440000Y-61634000D03*
X130640000Y-61634000D03*
X129840000Y-61634000D03*
X129040000Y-61634000D03*
X128240000Y-61634000D03*
X127440000Y-61634000D03*
X126640000Y-61634000D03*
X125840000Y-61634000D03*
D44*
X124465000Y-63009000D03*
X124465000Y-63809000D03*
X124465000Y-64609000D03*
X124465000Y-65409000D03*
X124465000Y-66209000D03*
X124465000Y-67009000D03*
X124465000Y-67809000D03*
X124465000Y-68609000D03*
D43*
X125840000Y-69984000D03*
X126640000Y-69984000D03*
X127440000Y-69984000D03*
X128240000Y-69984000D03*
X129040000Y-69984000D03*
X129840000Y-69984000D03*
X130640000Y-69984000D03*
X131440000Y-69984000D03*
D44*
X132815000Y-68609000D03*
X132815000Y-67809000D03*
X132815000Y-67009000D03*
X132815000Y-66209000D03*
X132815000Y-65409000D03*
X132815000Y-64609000D03*
X132815000Y-63809000D03*
X132815000Y-63009000D03*
%TD*%
D45*
%TO.C,J1*%
X118032000Y-86366000D03*
D46*
X120532000Y-86366000D03*
X123032000Y-86366000D03*
X125532000Y-86366000D03*
%TD*%
D47*
%TO.C,C24*%
X163502000Y-60729000D03*
X171502000Y-60729000D03*
%TD*%
D22*
%TO.C,JP11*%
X110756500Y-76985000D03*
D23*
X108931500Y-76985000D03*
%TD*%
D21*
%TO.C,JP18*%
X156580000Y-58443000D03*
X156580000Y-66063000D03*
%TD*%
D48*
%TO.C,J7*%
X156331300Y-45078000D03*
D46*
X153831300Y-45078000D03*
X151331300Y-45078000D03*
X148831300Y-45078000D03*
X146331300Y-45078000D03*
X143831300Y-45078000D03*
%TD*%
D33*
%TO.C,JP4*%
X112156000Y-57173000D03*
X109056000Y-57173000D03*
%TD*%
D24*
%TO.C,R8*%
X125846000Y-53466500D03*
X125846000Y-55291500D03*
%TD*%
%TO.C,R11*%
X121782000Y-49402500D03*
X121782000Y-51227500D03*
%TD*%
D49*
%TO.C,C15*%
X170765500Y-78763000D03*
X173890500Y-78763000D03*
%TD*%
D18*
%TO.C,TP1*%
X159882000Y-80795000D03*
%TD*%
D22*
%TO.C,JP1*%
X110756500Y-51331000D03*
D23*
X108931500Y-51331000D03*
%TD*%
D11*
%TO.C,C7*%
X120766000Y-79932500D03*
X120766000Y-81657500D03*
%TD*%
D12*
%TO.C,R1*%
X115432000Y-81707500D03*
X115432000Y-79882500D03*
%TD*%
D36*
%TO.C,C2*%
X168010000Y-69554300D03*
X168010000Y-72679300D03*
%TD*%
D21*
%TO.C,JP22*%
X158778000Y-56665000D03*
X158778000Y-64285000D03*
%TD*%
D12*
%TO.C,R4*%
X124322000Y-81707500D03*
X124322000Y-79882500D03*
%TD*%
D20*
%TO.C,C22*%
X139408500Y-47013000D03*
X137683500Y-47013000D03*
%TD*%
D22*
%TO.C,JP3*%
X110756500Y-54887000D03*
D23*
X108931500Y-54887000D03*
%TD*%
D50*
%TO.C,D1*%
X121848000Y-55062500D03*
X123748000Y-55062500D03*
X122798000Y-53187500D03*
%TD*%
D11*
%TO.C,C8*%
X122520000Y-79932500D03*
X122520000Y-81657500D03*
%TD*%
D23*
%TO.C,JP12*%
X175479500Y-74191000D03*
D22*
X177304500Y-74191000D03*
%TD*%
D11*
%TO.C,C21*%
X120004000Y-53262500D03*
X120004000Y-54987500D03*
%TD*%
D51*
%TO.C,J4*%
X144673500Y-81912600D03*
D52*
X144673500Y-83182600D03*
X145943500Y-81912600D03*
X145943500Y-83182600D03*
X147213500Y-81912600D03*
X147213500Y-83182600D03*
X148483500Y-81912600D03*
X148483500Y-83182600D03*
X149753500Y-81912600D03*
X149753500Y-83182600D03*
%TD*%
D53*
%TO.C,J2*%
X178810000Y-69497000D03*
D54*
X178810000Y-66957000D03*
X178810000Y-64417000D03*
X178810000Y-61877000D03*
%TD*%
D53*
%TO.C,J3*%
X105630000Y-82197000D03*
D54*
X105630000Y-79657000D03*
X105630000Y-77117000D03*
X105630000Y-74577000D03*
X105630000Y-72037000D03*
X105630000Y-69497000D03*
X105630000Y-66957000D03*
X105630000Y-64417000D03*
X105630000Y-61877000D03*
X105630000Y-59337000D03*
X105630000Y-56797000D03*
X105630000Y-54257000D03*
X105630000Y-51717000D03*
X105630000Y-49177000D03*
%TD*%
D55*
%TO.C,TFT1*%
X110550000Y-84047000D03*
X177810000Y-84047000D03*
X110550000Y-47327000D03*
X177810000Y-47327000D03*
%TD*%
M02*
