%TF.GenerationSoftware,KiCad,Pcbnew,10.0.5-unknown-202607221313~667fa36054~ubuntu25.10.1*%
%TF.CreationDate,2026-10-10T19:18:28+00:00*%
%TF.ProjectId,ktest,6b746573-742e-46b6-9963-61645f706362,1.0.1*%
%TF.SameCoordinates,Original*%
%TF.FileFunction,Copper,L2,Inr*%
%TF.FilePolarity,Positive*%
%FSLAX46Y46*%
G04 Gerber Fmt 4.6, Leading zero omitted, Abs format (unit mm)*
G04 Created by KiCad (PCBNEW 10.0.5-unknown-202607221313~667fa36054~ubuntu25.10.1) date 2026-10-10 19:18:28*
%MOMM*%
%LPD*%
G01*
G04 APERTURE LIST*
G04 Aperture macros list*
%AMRoundRect*
0 Rectangle with rounded corners*
0 $1 Rounding radius*
0 $2 $3 $4 $5 $6 $7 $8 $9 X,Y pos of 4 corners*
0 Add a 4 corners polygon primitive as box body*
4,1,4,$2,$3,$4,$5,$6,$7,$8,$9,$2,$3,0*
0 Add four circle primitives for the rounded corners*
1,1,$1+$1,$2,$3*
1,1,$1+$1,$4,$5*
1,1,$1+$1,$6,$7*
1,1,$1+$1,$8,$9*
0 Add four rect primitives between the rounded corners*
20,1,$1+$1,$2,$3,$4,$5,0*
20,1,$1+$1,$4,$5,$6,$7,0*
20,1,$1+$1,$6,$7,$8,$9,0*
20,1,$1+$1,$8,$9,$2,$3,0*%
G04 Aperture macros list end*
%TA.AperFunction,ComponentPad*%
%ADD10C,1.000000*%
%TD*%
%TA.AperFunction,ComponentPad*%
%ADD11C,1.400000*%
%TD*%
%TA.AperFunction,ComponentPad*%
%ADD12C,0.600000*%
%TD*%
%TA.AperFunction,ComponentPad*%
%ADD13O,2.600000X1.600000*%
%TD*%
%TA.AperFunction,ComponentPad*%
%ADD14C,1.600000*%
%TD*%
%TA.AperFunction,ComponentPad*%
%ADD15R,1.600000X2.600000*%
%TD*%
%TA.AperFunction,ComponentPad*%
%ADD16O,1.000000X0.850000*%
%TD*%
%TA.AperFunction,ComponentPad*%
%ADD17O,1.000000X1.800000*%
%TD*%
%TA.AperFunction,ComponentPad*%
%ADD18RoundRect,0.250000X-0.600000X-0.725000X0.600000X-0.725000X0.600000X0.725000X-0.600000X0.725000X0*%
%TD*%
%TA.AperFunction,ComponentPad*%
%ADD19O,1.700000X1.950000*%
%TD*%
%TA.AperFunction,ComponentPad*%
%ADD20RoundRect,0.250000X0.600000X0.725000X-0.600000X0.725000X-0.600000X-0.725000X0.600000X-0.725000X0*%
%TD*%
%TA.AperFunction,ComponentPad*%
%ADD21R,1.090000X1.090000*%
%TD*%
%TA.AperFunction,ComponentPad*%
%ADD22C,1.090000*%
%TD*%
%TA.AperFunction,ComponentPad*%
%ADD23R,1.700000X1.700000*%
%TD*%
%TA.AperFunction,ComponentPad*%
%ADD24C,1.700000*%
%TD*%
%TA.AperFunction,WasherPad*%
%ADD25C,5.000000*%
%TD*%
%TA.AperFunction,ViaPad*%
%ADD26C,1.000000*%
%TD*%
%TA.AperFunction,ViaPad*%
%ADD27C,0.600000*%
%TD*%
%TA.AperFunction,ViaPad*%
%ADD28C,0.800000*%
%TD*%
G04 APERTURE END LIST*
D10*
%TO.N,/System overview/Block diagram/Microcontroller/ENCb_filt*%
%TO.C,TP13*%
X140613000Y-57173000D03*
%TD*%
%TO.N,/System overview/Block diagram/GND*%
%TO.C,TP18*%
X181253000Y-79779000D03*
%TD*%
D11*
%TO.N,/System overview/Block diagram/Display/DISP_DC*%
%TO.C,JP9*%
X118837000Y-62287000D03*
%TO.N,Net-(J3-Pin_5)*%
X118837000Y-67367000D03*
%TD*%
D10*
%TO.N,/System overview/Block diagram/DCDC converter 3V3/3V3_REG*%
%TO.C,TP10*%
X175157000Y-71899722D03*
%TD*%
%TO.N,/System overview/Block diagram/GND*%
%TO.C,TP7*%
X119288000Y-76454000D03*
%TD*%
D12*
%TO.N,/System overview/Block diagram/GND*%
%TO.C,U1*%
X165423000Y-75065000D03*
X164123000Y-75065000D03*
X162823000Y-75065000D03*
X161523000Y-75065000D03*
X165423000Y-76365000D03*
X164123000Y-76365000D03*
X162823000Y-76365000D03*
X161523000Y-76365000D03*
%TD*%
D10*
%TO.N,/System overview/Block diagram/S3V3*%
%TO.C,TP17*%
X181253000Y-77493000D03*
%TD*%
%TO.N,/System overview/Block diagram/GND*%
%TO.C,TP21*%
X145693000Y-56919000D03*
%TD*%
%TO.N,/System overview/Block diagram/DCDC converter 3V3/SW*%
%TO.C,TP6*%
X163473000Y-84097000D03*
%TD*%
%TO.N,/System overview/Block diagram/Microcontroller/NRST*%
%TO.C,TP8*%
X138073000Y-72667000D03*
%TD*%
D13*
%TO.N,/System overview/Block diagram/DCDC converter 3V3/S19V5_2*%
%TO.C,J6*%
X189400000Y-78451000D03*
X194950000Y-78451000D03*
D14*
%TO.N,unconnected-(J6-ID-Pad2)*%
X192175000Y-78451000D03*
D13*
%TO.N,/System overview/Block diagram/DCDC converter 3V3/GND_2*%
X192175000Y-81851000D03*
X192175000Y-85651000D03*
D15*
X187400000Y-81551000D03*
X187400000Y-87951000D03*
X196950000Y-81551000D03*
X196950000Y-87951000D03*
%TD*%
D10*
%TO.N,/System overview/Block diagram/Microcontroller/MOT_CS*%
%TO.C,TP14*%
X120039000Y-51331000D03*
%TD*%
%TO.N,/System overview/Block diagram/Microcontroller/BOOT0*%
%TO.C,TP9*%
X139851000Y-61237000D03*
%TD*%
%TO.N,/System overview/Block diagram/DCDC converter 3V3/FB*%
%TO.C,TP5*%
X159663000Y-80795000D03*
%TD*%
D16*
%TO.N,/System overview/Block diagram/GND*%
%TO.C,J5*%
X135874000Y-87947000D03*
%TO.N,Net-(J5-VBUS-PadA4)*%
X135874000Y-86847000D03*
%TO.N,/System overview/Block diagram/Microcontroller/CC1*%
X135874000Y-85747000D03*
%TO.N,/System overview/Block diagram/Microcontroller/D+*%
X135874000Y-84647000D03*
%TO.N,/System overview/Block diagram/Microcontroller/D-*%
X135874000Y-83547000D03*
%TO.N,unconnected-(J5-SBU1-PadA8)*%
X135874000Y-82447000D03*
%TO.N,Net-(J5-VBUS-PadA4)*%
X135874000Y-81347000D03*
%TO.N,/System overview/Block diagram/GND*%
X135874000Y-80247000D03*
X137224000Y-80247000D03*
%TO.N,Net-(J5-VBUS-PadA4)*%
X137224000Y-81347000D03*
%TO.N,/System overview/Block diagram/Microcontroller/CC2*%
X137224000Y-82447000D03*
%TO.N,/System overview/Block diagram/Microcontroller/D+*%
X137224000Y-83547000D03*
%TO.N,/System overview/Block diagram/Microcontroller/D-*%
X137224000Y-84647000D03*
%TO.N,unconnected-(J5-SBU2-PadB8)*%
X137224000Y-85747000D03*
%TO.N,Net-(J5-VBUS-PadA4)*%
X137224000Y-86847000D03*
%TO.N,/System overview/Block diagram/GND*%
X137224000Y-87947000D03*
D17*
X134399000Y-86597000D03*
X138699000Y-86597000D03*
X134399000Y-81597000D03*
X138699000Y-81597000D03*
%TD*%
D10*
%TO.N,/System overview/Block diagram/Servomotor interface/CS'*%
%TO.C,TP15*%
X145693000Y-54633000D03*
%TD*%
%TO.N,/System overview/Block diagram/Microcontroller/SEL0*%
%TO.C,TP11*%
X135787000Y-70889000D03*
%TD*%
%TO.N,/System overview/Block diagram/Limit switch interface/TOP_filt*%
%TO.C,TP3*%
X124865000Y-77747000D03*
%TD*%
%TO.N,Net-(J5-VBUS-PadA4)*%
%TO.C,TP16*%
X140613000Y-88161000D03*
%TD*%
%TO.N,/System overview/Block diagram/GND*%
%TO.C,TP20*%
X163219000Y-87907000D03*
%TD*%
%TO.N,/System overview/Block diagram/GND*%
%TO.C,TP19*%
X120039000Y-53871000D03*
%TD*%
%TO.N,/System overview/Block diagram/Limit switch interface/BOT_filt*%
%TO.C,TP4*%
X122579000Y-77747000D03*
%TD*%
%TO.N,/System overview/Block diagram/Microcontroller/ENCa_filt*%
%TO.C,TP12*%
X143153000Y-57173000D03*
%TD*%
%TO.N,/System overview/Block diagram/DCDC converter 3V3/RT*%
%TO.C,TP2*%
X161187000Y-70889000D03*
%TD*%
D18*
%TO.N,/System overview/Block diagram/Limit switch interface/BOT_EOT*%
%TO.C,J1*%
X120099000Y-86366000D03*
D19*
%TO.N,/System overview/Block diagram/GND*%
X122599000Y-86366000D03*
X125099000Y-86366000D03*
%TO.N,/System overview/Block diagram/Limit switch interface/TOP_EOT*%
X127599000Y-86366000D03*
%TD*%
D11*
%TO.N,/System overview/Block diagram/Servomotor interface/SEL0'*%
%TO.C,JP18*%
X158647000Y-58443000D03*
%TO.N,/System overview/Block diagram/Microcontroller/SEL0*%
X158647000Y-66063000D03*
%TD*%
D20*
%TO.N,/System overview/Block diagram/Servomotor interface/OUTb*%
%TO.C,J7*%
X158398300Y-45078000D03*
D19*
%TO.N,/System overview/Block diagram/Servomotor interface/OUTa*%
X155898300Y-45078000D03*
%TO.N,/System overview/Block diagram/S3V3*%
X153398300Y-45078000D03*
%TO.N,/System overview/Block diagram/GND*%
X150898300Y-45078000D03*
%TO.N,/System overview/Block diagram/Servomotor interface/ENCa*%
X148398300Y-45078000D03*
%TO.N,/System overview/Block diagram/Servomotor interface/ENCb*%
X145898300Y-45078000D03*
%TD*%
D10*
%TO.N,/System overview/Block diagram/DCDC converter 3V3/PG*%
%TO.C,TP1*%
X161949000Y-80795000D03*
%TD*%
D11*
%TO.N,/System overview/Block diagram/Servomotor interface/OUTb*%
%TO.C,JP22*%
X160845000Y-56665000D03*
%TO.N,/System overview/Block diagram/Servomotor interface/OUTb'*%
X160845000Y-64285000D03*
%TD*%
D21*
%TO.N,/System overview/Block diagram/Microcontroller/NRST*%
%TO.C,J4*%
X146740500Y-81912600D03*
D22*
%TO.N,/System overview/Block diagram/Microcontroller/SWDCLK*%
X146740500Y-83182600D03*
%TO.N,/System overview/Block diagram/Microcontroller/SWO'*%
X148010500Y-81912600D03*
%TO.N,/System overview/Block diagram/Microcontroller/SWDIO*%
X148010500Y-83182600D03*
%TO.N,/System overview/Block diagram/GND*%
X149280500Y-81912600D03*
X149280500Y-83182600D03*
%TO.N,/System overview/Block diagram/S3V3*%
X150550500Y-81912600D03*
X150550500Y-83182600D03*
%TO.N,unconnected-(J4-Pin_9-Pad9)*%
X151820500Y-81912600D03*
%TO.N,unconnected-(J4-Pin_10-Pad10)*%
X151820500Y-83182600D03*
%TD*%
D23*
%TO.N,unconnected-(J2-Pin_1-Pad1)*%
%TO.C,J2*%
X180877000Y-69497000D03*
D24*
%TO.N,unconnected-(J2-Pin_2-Pad2)*%
X180877000Y-66957000D03*
%TO.N,unconnected-(J2-Pin_3-Pad3)*%
X180877000Y-64417000D03*
%TO.N,unconnected-(J2-Pin_4-Pad4)*%
X180877000Y-61877000D03*
%TD*%
D23*
%TO.N,/System overview/Block diagram/S3V3*%
%TO.C,J3*%
X107697000Y-82197000D03*
D24*
%TO.N,/System overview/Block diagram/GND*%
X107697000Y-79657000D03*
%TO.N,Net-(J3-Pin_3)*%
X107697000Y-77117000D03*
%TO.N,Net-(J3-Pin_4)*%
X107697000Y-74577000D03*
%TO.N,Net-(J3-Pin_5)*%
X107697000Y-72037000D03*
%TO.N,Net-(J3-Pin_6)*%
X107697000Y-69497000D03*
%TO.N,Net-(J3-Pin_7)*%
X107697000Y-66957000D03*
%TO.N,/System overview/Block diagram/S3V3*%
X107697000Y-64417000D03*
%TO.N,Net-(J3-Pin_9)*%
X107697000Y-61877000D03*
%TO.N,Net-(J3-Pin_10)*%
X107697000Y-59337000D03*
%TO.N,Net-(J3-Pin_11)*%
X107697000Y-56797000D03*
%TO.N,Net-(J3-Pin_12)*%
X107697000Y-54257000D03*
%TO.N,Net-(J3-Pin_13)*%
X107697000Y-51717000D03*
%TO.N,Net-(J3-Pin_14)*%
X107697000Y-49177000D03*
%TD*%
D25*
%TO.N,*%
%TO.C,TFT1*%
X112617000Y-84047000D03*
X179877000Y-84047000D03*
X112617000Y-47327000D03*
X179877000Y-47327000D03*
%TD*%
D26*
%TO.N,/System overview/Block diagram/GND*%
X154837000Y-64920000D03*
D27*
X125881000Y-69873000D03*
X128167000Y-78577000D03*
D26*
X152297000Y-53490000D03*
X150392000Y-54760000D03*
D27*
X108863000Y-86383000D03*
D26*
X174649000Y-63269000D03*
X151662000Y-54760000D03*
X176935000Y-50315000D03*
X174649000Y-58189000D03*
X152297000Y-64920000D03*
D27*
X130453000Y-55903000D03*
D26*
X154837000Y-53490000D03*
D27*
X147471000Y-52601000D03*
X138337000Y-43457000D03*
X122833000Y-67587000D03*
X122071000Y-56157000D03*
D26*
X153567000Y-53490000D03*
D27*
X119277000Y-78577000D03*
X145693000Y-60475000D03*
X125119000Y-51331000D03*
D26*
X152297000Y-56030000D03*
X156107000Y-53490000D03*
X163727000Y-47267000D03*
D27*
X138327000Y-47013000D03*
D26*
X154202000Y-66190000D03*
X151027000Y-67460000D03*
X152932000Y-66190000D03*
D27*
X142645000Y-49299000D03*
D26*
X154202000Y-54760000D03*
D27*
X177189000Y-78001000D03*
D26*
X172617000Y-63269000D03*
X153567000Y-56030000D03*
D27*
X177189000Y-79525000D03*
D26*
X154837000Y-56030000D03*
X155472000Y-66190000D03*
X156742000Y-54760000D03*
X175411000Y-48537000D03*
X172617000Y-58189000D03*
D27*
X132993000Y-74191000D03*
X122833000Y-83081000D03*
X168553000Y-76223000D03*
X134517000Y-50569000D03*
X131469000Y-57427000D03*
X124611000Y-83081000D03*
D26*
X163727000Y-48537000D03*
X151027000Y-53490000D03*
D27*
X137311000Y-58189000D03*
D26*
X156107000Y-67460000D03*
X151662000Y-66190000D03*
X150392000Y-66190000D03*
D27*
X137819000Y-53363000D03*
D26*
X153567000Y-64920000D03*
X152932000Y-54760000D03*
X154837000Y-67460000D03*
D27*
X168553000Y-79525000D03*
D26*
X153567000Y-67460000D03*
X152297000Y-67460000D03*
X155472000Y-54760000D03*
X156742000Y-66190000D03*
D27*
X168553000Y-74699000D03*
X168553000Y-78001000D03*
D26*
%TO.N,/System overview/Block diagram/S19V5*%
X166521000Y-63269000D03*
X164489000Y-63269000D03*
X164489000Y-58189000D03*
X166521000Y-58189000D03*
D28*
%TO.N,/System overview/Block diagram/Microcontroller/NRST*%
X131215000Y-63777000D03*
%TO.N,/System overview/Block diagram/Servomotor interface/CS'*%
X154456000Y-58570000D03*
%TO.N,/System overview/Block diagram/Microcontroller/SEL0*%
X129437000Y-63777000D03*
%TO.N,/System overview/Block diagram/Servomotor interface/PWM'*%
X154329000Y-62380000D03*
X148233000Y-64031000D03*
%TD*%
M02*
