%TF.GenerationSoftware,KiCad,Pcbnew,10.0.5-unknown-202607221313~667fa36054~ubuntu25.10.1*%
%TF.CreationDate,2026-10-08T20:09:06+00:00*%
%TF.ProjectId,ktest,6b746573-742e-46b6-9963-61645f706362,0.0.2*%
%TF.SameCoordinates,Original*%
%TF.FileFunction,Copper,L4,Bot*%
%TF.FilePolarity,Positive*%
%FSLAX46Y46*%
G04 Gerber Fmt 4.6, Leading zero omitted, Abs format (unit mm)*
G04 Created by KiCad (PCBNEW 10.0.5-unknown-202607221313~667fa36054~ubuntu25.10.1) date 2026-10-08 20:09:06*
%MOMM*%
%LPD*%
G01*
G04 APERTURE LIST*
G04 Aperture macros list*
%AMRoundRect*
0 Rectangle with rounded corners*
0 $1 Rounding radius*
0 $2 $3 $4 $5 $6 $7 $8 $9 X,Y pos of 4 corners*
0 Add a 4 corners polygon primitive as box body*
4,1,4,$2,$3,$4,$5,$6,$7,$8,$9,$2,$3,0*
0 Add four circle primitives for the rounded corners*
1,1,$1+$1,$2,$3*
1,1,$1+$1,$4,$5*
1,1,$1+$1,$6,$7*
1,1,$1+$1,$8,$9*
0 Add four rect primitives between the rounded corners*
20,1,$1+$1,$2,$3,$4,$5,0*
20,1,$1+$1,$4,$5,$6,$7,0*
20,1,$1+$1,$6,$7,$8,$9,0*
20,1,$1+$1,$8,$9,$2,$3,0*%
G04 Aperture macros list end*
%TA.AperFunction,ComponentPad*%
%ADD10C,1.000000*%
%TD*%
%TA.AperFunction,ComponentPad*%
%ADD11C,1.400000*%
%TD*%
%TA.AperFunction,ComponentPad*%
%ADD12C,0.600000*%
%TD*%
%TA.AperFunction,SMDPad,CuDef*%
%ADD13R,4.900000X2.950000*%
%TD*%
%TA.AperFunction,ComponentPad*%
%ADD14O,2.600000X1.600000*%
%TD*%
%TA.AperFunction,ComponentPad*%
%ADD15C,1.600000*%
%TD*%
%TA.AperFunction,ComponentPad*%
%ADD16R,1.600000X2.600000*%
%TD*%
%TA.AperFunction,SMDPad,CuDef*%
%ADD17RoundRect,0.251867X6.225133X0.827633X-6.225133X0.827633X-6.225133X-0.827633X6.225133X-0.827633X0*%
%TD*%
%TA.AperFunction,ComponentPad*%
%ADD18O,1.000000X0.850000*%
%TD*%
%TA.AperFunction,ComponentPad*%
%ADD19O,1.000000X1.800000*%
%TD*%
%TA.AperFunction,ComponentPad*%
%ADD20RoundRect,0.250000X-0.600000X-0.725000X0.600000X-0.725000X0.600000X0.725000X-0.600000X0.725000X0*%
%TD*%
%TA.AperFunction,ComponentPad*%
%ADD21O,1.700000X1.950000*%
%TD*%
%TA.AperFunction,ComponentPad*%
%ADD22RoundRect,0.250000X0.600000X0.725000X-0.600000X0.725000X-0.600000X-0.725000X0.600000X-0.725000X0*%
%TD*%
%TA.AperFunction,ComponentPad*%
%ADD23R,1.090000X1.090000*%
%TD*%
%TA.AperFunction,ComponentPad*%
%ADD24C,1.090000*%
%TD*%
%TA.AperFunction,ComponentPad*%
%ADD25R,1.700000X1.700000*%
%TD*%
%TA.AperFunction,ComponentPad*%
%ADD26C,1.700000*%
%TD*%
%TA.AperFunction,WasherPad*%
%ADD27C,5.000000*%
%TD*%
%TA.AperFunction,ViaPad*%
%ADD28C,1.000000*%
%TD*%
%TA.AperFunction,ViaPad*%
%ADD29C,0.600000*%
%TD*%
%TA.AperFunction,ViaPad*%
%ADD30C,0.800000*%
%TD*%
%TA.AperFunction,Conductor*%
%ADD31C,0.250000*%
%TD*%
G04 APERTURE END LIST*
D10*
%TO.P,TP13,1,1_1*%
%TO.N,/System overview/Block diagram/ENCb_filt*%
X115046000Y-82698000D03*
%TD*%
%TO.P,TP18,1,1_1*%
%TO.N,/System overview/Block diagram/GND*%
X155686000Y-105304000D03*
%TD*%
D11*
%TO.P,JP9,1*%
%TO.N,/System overview/Block diagram/DISP_DC*%
X93270000Y-87812000D03*
%TO.P,JP9,2*%
%TO.N,Net-(J3-Pin_5)*%
X93270000Y-92892000D03*
%TD*%
D10*
%TO.P,TP7,1,1_1*%
%TO.N,/System overview/Block diagram/3V3_REG*%
X149590000Y-97430000D03*
%TD*%
D12*
%TO.P,U1,9,EP_9*%
%TO.N,/System overview/Block diagram/GND*%
X139856000Y-100590000D03*
X138556000Y-100590000D03*
X137256000Y-100590000D03*
X135956000Y-100590000D03*
D13*
X137906000Y-101240000D03*
D12*
X139856000Y-101890000D03*
X138556000Y-101890000D03*
X137256000Y-101890000D03*
X135956000Y-101890000D03*
%TD*%
D10*
%TO.P,TP10,1,1_1*%
%TO.N,/System overview/Block diagram/S3V3*%
X155686000Y-103018000D03*
%TD*%
%TO.P,TP21,1,1_1*%
%TO.N,/System overview/Block diagram/GND*%
X120126000Y-82444000D03*
%TD*%
%TO.P,TP6,1,1_1*%
%TO.N,/System overview/Block diagram/SW*%
X137906000Y-109622000D03*
%TD*%
%TO.P,TP8,1,1_1*%
%TO.N,/System overview/Block diagram/NRST*%
X112506000Y-98192000D03*
%TD*%
D14*
%TO.P,J6,1,+_1*%
%TO.N,/System overview/Block diagram/S19V5_2*%
X163833000Y-103976000D03*
X169383000Y-103976000D03*
D15*
%TO.P,J6,2,ID_2*%
%TO.N,unconnected-(J6-ID-Pad2)*%
X166608000Y-103976000D03*
D14*
%TO.P,J6,3,-_3*%
%TO.N,/System overview/Block diagram/GND_2*%
X166608000Y-107376000D03*
X166608000Y-111176000D03*
D16*
%TO.P,J6,SH,SH_SH*%
X161833000Y-107076000D03*
X161833000Y-113476000D03*
X171383000Y-107076000D03*
X171383000Y-113476000D03*
%TD*%
D10*
%TO.P,TP14,1,1_1*%
%TO.N,/System overview/Block diagram/MOT_CS*%
X94472000Y-76856000D03*
%TD*%
%TO.P,TP9,1,1_1*%
%TO.N,/System overview/Block diagram/BOOT0*%
X114284000Y-86762000D03*
%TD*%
%TO.P,TP5,1,1_1*%
%TO.N,/System overview/Block diagram/FB*%
X134096000Y-106320000D03*
%TD*%
D17*
%TO.P,J8,1,+_1*%
%TO.N,/System overview/Block diagram/S19V5*%
X144002000Y-79332500D03*
%TO.P,J8,2,-_2*%
%TO.N,/System overview/Block diagram/GND*%
X144002000Y-75903500D03*
%TD*%
D18*
%TO.P,J5,A1,GND_A1*%
%TO.N,/System overview/Block diagram/GND*%
X110307000Y-113472000D03*
%TO.P,J5,A4,VBUS_A4*%
%TO.N,Net-(J5-VBUS-PadA4)*%
X110307000Y-112372000D03*
%TO.P,J5,A5,CC1_A5*%
%TO.N,/System overview/Block diagram/CC1*%
X110307000Y-111272000D03*
%TO.P,J5,A6,D+_A6*%
%TO.N,/System overview/Block diagram/D+*%
X110307000Y-110172000D03*
%TO.P,J5,A7,D-_A7*%
%TO.N,/System overview/Block diagram/D-*%
X110307000Y-109072000D03*
%TO.P,J5,A8,SBU1_A8*%
%TO.N,unconnected-(J5-SBU1-PadA8)*%
X110307000Y-107972000D03*
%TO.P,J5,A9,VBUS_A9*%
%TO.N,Net-(J5-VBUS-PadA4)*%
X110307000Y-106872000D03*
%TO.P,J5,A12,GND_A12*%
%TO.N,/System overview/Block diagram/GND*%
X110307000Y-105772000D03*
%TO.P,J5,B1,GND_B1*%
X111657000Y-105772000D03*
%TO.P,J5,B4,VBUS_B4*%
%TO.N,Net-(J5-VBUS-PadA4)*%
X111657000Y-106872000D03*
%TO.P,J5,B5,CC2_B5*%
%TO.N,/System overview/Block diagram/CC2*%
X111657000Y-107972000D03*
%TO.P,J5,B6,D+_B6*%
%TO.N,/System overview/Block diagram/D+*%
X111657000Y-109072000D03*
%TO.P,J5,B7,D-_B7*%
%TO.N,/System overview/Block diagram/D-*%
X111657000Y-110172000D03*
%TO.P,J5,B8,SBU2_B8*%
%TO.N,unconnected-(J5-SBU2-PadB8)*%
X111657000Y-111272000D03*
%TO.P,J5,B9,VBUS_B9*%
%TO.N,Net-(J5-VBUS-PadA4)*%
X111657000Y-112372000D03*
%TO.P,J5,B12,GND_B12*%
%TO.N,/System overview/Block diagram/GND*%
X111657000Y-113472000D03*
D19*
%TO.P,J5,SH,SHIELD_SH*%
X108832000Y-112122000D03*
X113132000Y-112122000D03*
X108832000Y-107122000D03*
X113132000Y-107122000D03*
%TD*%
D10*
%TO.P,TP15,1,1_1*%
%TO.N,/System overview/Block diagram/CS'*%
X120126000Y-80158000D03*
%TD*%
%TO.P,TP11,1,1_1*%
%TO.N,/System overview/Block diagram/SEL0*%
X110220000Y-96414000D03*
%TD*%
%TO.P,TP3,1,1_1*%
%TO.N,/System overview/Block diagram/TOP_filt*%
X99298000Y-103272000D03*
%TD*%
%TO.P,TP16,1,1_1*%
%TO.N,Net-(J5-VBUS-PadA4)*%
X115046000Y-113686000D03*
%TD*%
%TO.P,TP20,1,1_1*%
%TO.N,/System overview/Block diagram/GND*%
X137652000Y-113432000D03*
%TD*%
%TO.P,TP19,1,1_1*%
%TO.N,/System overview/Block diagram/GND*%
X94472000Y-79396000D03*
%TD*%
%TO.P,TP4,1,1_1*%
%TO.N,/System overview/Block diagram/BOT_filt*%
X97012000Y-103272000D03*
%TD*%
%TO.P,TP12,1,1_1*%
%TO.N,/System overview/Block diagram/ENCa_filt*%
X117586000Y-82698000D03*
%TD*%
%TO.P,TP2,1,1_1*%
%TO.N,/System overview/Block diagram/RT*%
X135620000Y-96414000D03*
%TD*%
D20*
%TO.P,J1,1,Pin_1_1*%
%TO.N,/System overview/Block diagram/BOT_EOT*%
X94532000Y-111891000D03*
D21*
%TO.P,J1,2,Pin_2_2*%
%TO.N,/System overview/Block diagram/GND*%
X97032000Y-111891000D03*
%TO.P,J1,3,Pin_3_3*%
X99532000Y-111891000D03*
%TO.P,J1,4,Pin_4_4*%
%TO.N,/System overview/Block diagram/TOP_EOT*%
X102032000Y-111891000D03*
%TD*%
D11*
%TO.P,JP18,1*%
%TO.N,/System overview/Block diagram/SEL0'*%
X133080000Y-83968000D03*
%TO.P,JP18,2*%
%TO.N,/System overview/Block diagram/SEL0*%
X133080000Y-91588000D03*
%TD*%
D22*
%TO.P,J7,1,Pin_1_1*%
%TO.N,/System overview/Block diagram/OUTb*%
X132831300Y-70603000D03*
D21*
%TO.P,J7,2,Pin_2_2*%
%TO.N,/System overview/Block diagram/OUTa*%
X130331300Y-70603000D03*
%TO.P,J7,3,Pin_3_3*%
%TO.N,/System overview/Block diagram/S3V3*%
X127831300Y-70603000D03*
%TO.P,J7,4,Pin_4_4*%
%TO.N,/System overview/Block diagram/GND*%
X125331300Y-70603000D03*
%TO.P,J7,5,Pin_5_5*%
%TO.N,/System overview/Block diagram/ENCa*%
X122831300Y-70603000D03*
%TO.P,J7,6,Pin_6_6*%
%TO.N,/System overview/Block diagram/ENCb*%
X120331300Y-70603000D03*
%TD*%
D10*
%TO.P,TP1,1,1_1*%
%TO.N,/System overview/Block diagram/PG*%
X136382000Y-106320000D03*
%TD*%
D11*
%TO.P,JP22,1*%
%TO.N,/System overview/Block diagram/OUTb*%
X135278000Y-82190000D03*
%TO.P,JP22,2*%
%TO.N,/System overview/Block diagram/OUTb'*%
X135278000Y-89810000D03*
%TD*%
D10*
%TO.P,TP17,1,1_1*%
%TO.N,/System overview/Block diagram/GND*%
X93710000Y-102002000D03*
%TD*%
D23*
%TO.P,J4,1,Pin_1_1*%
%TO.N,/System overview/Block diagram/NRST*%
X121173500Y-107437600D03*
D24*
%TO.P,J4,2,Pin_2_2*%
%TO.N,/System overview/Block diagram/SWDCLK*%
X121173500Y-108707600D03*
%TO.P,J4,3,Pin_3_3*%
%TO.N,/System overview/Block diagram/SWO'*%
X122443500Y-107437600D03*
%TO.P,J4,4,Pin_4_4*%
%TO.N,/System overview/Block diagram/SWDIO*%
X122443500Y-108707600D03*
%TO.P,J4,5,Pin_5_5*%
%TO.N,/System overview/Block diagram/GND*%
X123713500Y-107437600D03*
%TO.P,J4,6,Pin_6_6*%
X123713500Y-108707600D03*
%TO.P,J4,7,Pin_7_7*%
%TO.N,/System overview/Block diagram/S3V3*%
X124983500Y-107437600D03*
%TO.P,J4,8,Pin_8_8*%
X124983500Y-108707600D03*
%TO.P,J4,9,Pin_9_9*%
%TO.N,unconnected-(J4-Pin_9-Pad9)*%
X126253500Y-107437600D03*
%TO.P,J4,10,Pin_10_10*%
%TO.N,unconnected-(J4-Pin_10-Pad10)*%
X126253500Y-108707600D03*
%TD*%
D25*
%TO.P,J2,1,Pin_1_1*%
%TO.N,unconnected-(J2-Pin_1-Pad1)*%
X155310000Y-95022000D03*
D26*
%TO.P,J2,2,Pin_2_2*%
%TO.N,unconnected-(J2-Pin_2-Pad2)*%
X155310000Y-92482000D03*
%TO.P,J2,3,Pin_3_3*%
%TO.N,unconnected-(J2-Pin_3-Pad3)*%
X155310000Y-89942000D03*
%TO.P,J2,4,Pin_4_4*%
%TO.N,unconnected-(J2-Pin_4-Pad4)*%
X155310000Y-87402000D03*
%TD*%
D25*
%TO.P,J3,1,Pin_1_1*%
%TO.N,/System overview/Block diagram/S3V3*%
X82130000Y-107722000D03*
D26*
%TO.P,J3,2,Pin_2_2*%
%TO.N,/System overview/Block diagram/GND*%
X82130000Y-105182000D03*
%TO.P,J3,3,Pin_3_3*%
%TO.N,Net-(J3-Pin_3)*%
X82130000Y-102642000D03*
%TO.P,J3,4,Pin_4_4*%
%TO.N,Net-(J3-Pin_4)*%
X82130000Y-100102000D03*
%TO.P,J3,5,Pin_5_5*%
%TO.N,Net-(J3-Pin_5)*%
X82130000Y-97562000D03*
%TO.P,J3,6,Pin_6_6*%
%TO.N,Net-(J3-Pin_6)*%
X82130000Y-95022000D03*
%TO.P,J3,7,Pin_7_7*%
%TO.N,Net-(J3-Pin_7)*%
X82130000Y-92482000D03*
%TO.P,J3,8,Pin_8_8*%
%TO.N,/System overview/Block diagram/S3V3*%
X82130000Y-89942000D03*
%TO.P,J3,9,Pin_9_9*%
%TO.N,Net-(J3-Pin_9)*%
X82130000Y-87402000D03*
%TO.P,J3,10,Pin_10_10*%
%TO.N,Net-(J3-Pin_10)*%
X82130000Y-84862000D03*
%TO.P,J3,11,Pin_11_11*%
%TO.N,Net-(J3-Pin_11)*%
X82130000Y-82322000D03*
%TO.P,J3,12,Pin_12_12*%
%TO.N,Net-(J3-Pin_12)*%
X82130000Y-79782000D03*
%TO.P,J3,13,Pin_13_13*%
%TO.N,Net-(J3-Pin_13)*%
X82130000Y-77242000D03*
%TO.P,J3,14,Pin_14_14*%
%TO.N,Net-(J3-Pin_14)*%
X82130000Y-74702000D03*
%TD*%
D27*
%TO.P,TFT1,*%
%TO.N,*%
X87050000Y-109572000D03*
X154310000Y-109572000D03*
X87050000Y-72852000D03*
X154310000Y-72852000D03*
%TD*%
D28*
%TO.N,/System overview/Block diagram/GND*%
X129270000Y-90445000D03*
D29*
X100314000Y-95398000D03*
X102600000Y-104102000D03*
D28*
X126730000Y-79015000D03*
X124825000Y-80285000D03*
D29*
X83296000Y-111908000D03*
D28*
X149082000Y-88794000D03*
X126095000Y-80285000D03*
X151368000Y-75840000D03*
X149082000Y-83714000D03*
X126730000Y-90445000D03*
D29*
X104886000Y-81428000D03*
D28*
X129270000Y-79015000D03*
D29*
X121904000Y-78126000D03*
X112770000Y-68982000D03*
X97266000Y-93112000D03*
X96504000Y-81682000D03*
D28*
X128000000Y-79015000D03*
D29*
X93710000Y-104102000D03*
X120126000Y-86000000D03*
X99552000Y-76856000D03*
D28*
X126730000Y-81555000D03*
X130540000Y-79015000D03*
X138160000Y-72792000D03*
D29*
X112760000Y-72538000D03*
D28*
X128635000Y-91715000D03*
X125460000Y-92985000D03*
X127365000Y-91715000D03*
D29*
X117078000Y-74824000D03*
D28*
X128635000Y-80285000D03*
D29*
X151622000Y-103526000D03*
D28*
X147050000Y-88794000D03*
X128000000Y-81555000D03*
D29*
X151622000Y-105050000D03*
D28*
X129270000Y-81555000D03*
X129905000Y-91715000D03*
X131175000Y-80285000D03*
X149844000Y-74062000D03*
X147050000Y-83714000D03*
D29*
X107426000Y-99716000D03*
X97266000Y-108606000D03*
X142986000Y-101748000D03*
X108950000Y-76094000D03*
X105902000Y-82952000D03*
X99044000Y-108606000D03*
D28*
X138160000Y-74062000D03*
X125460000Y-79015000D03*
D29*
X111744000Y-83714000D03*
D28*
X130540000Y-92985000D03*
X126095000Y-91715000D03*
X124825000Y-91715000D03*
D29*
X112252000Y-78888000D03*
D28*
X128000000Y-90445000D03*
X127365000Y-80285000D03*
X129270000Y-92985000D03*
D29*
X142986000Y-105050000D03*
D28*
X128000000Y-92985000D03*
X126730000Y-92985000D03*
X129905000Y-80285000D03*
X131175000Y-91715000D03*
D29*
X142986000Y-100224000D03*
X142986000Y-103526000D03*
D28*
%TO.N,/System overview/Block diagram/S19V5*%
X140954000Y-88794000D03*
X138922000Y-88794000D03*
X138922000Y-83714000D03*
X140954000Y-83714000D03*
D30*
%TO.N,/System overview/Block diagram/NRST*%
X105648000Y-89302000D03*
%TO.N,/System overview/Block diagram/CS'*%
X128889000Y-84095000D03*
%TO.N,/System overview/Block diagram/SEL0*%
X103870000Y-89302000D03*
%TO.N,/System overview/Block diagram/PWM'*%
X128762000Y-87905000D03*
X122666000Y-89556000D03*
%TD*%
%TO.N,/System overview/Block diagram/D+*%
D31*
X111550629Y-109072000D02*
X111657000Y-109072000D01*
X110450629Y-110172000D02*
X111550629Y-109072000D01*
X110307000Y-110172000D02*
X110450629Y-110172000D01*
%TD*%
%TA.AperFunction,Conductor*%
%TO.N,/System overview/Block diagram/D+*%
G36*
X110928400Y-109522385D02*
G01*
X110931589Y-109524650D01*
X111097135Y-109690196D01*
X111100562Y-109698469D01*
X111099265Y-109703823D01*
X110778799Y-110326574D01*
X110771967Y-110332362D01*
X110765803Y-110332629D01*
X110385437Y-110246187D01*
X110378129Y-110241012D01*
X110376575Y-110237161D01*
X110276678Y-109757046D01*
X110278348Y-109748249D01*
X110284275Y-109743618D01*
X110919463Y-109521877D01*
X110928400Y-109522385D01*
G37*
%TD.AperFunction*%
%TD*%
%TA.AperFunction,Conductor*%
%TO.N,/System overview/Block diagram/GND*%
G36*
X158627106Y-66193023D02*
G01*
X158642104Y-66197427D01*
X158700855Y-66235172D01*
X158702042Y-66236541D01*
X158729518Y-66291402D01*
X158731163Y-66298960D01*
X158734000Y-66325331D01*
X158734000Y-67641251D01*
X158728976Y-67676188D01*
X158721801Y-67700622D01*
X158686808Y-67756915D01*
X158563961Y-67870003D01*
X158563880Y-67870093D01*
X158563284Y-67870874D01*
X158435459Y-68035103D01*
X158435453Y-68035111D01*
X158435449Y-68035117D01*
X158335877Y-68219112D01*
X158335877Y-68219113D01*
X158335869Y-68219133D01*
X158267938Y-68417006D01*
X158233500Y-68623387D01*
X158233500Y-90422611D01*
X158267938Y-90628992D01*
X158320264Y-90781411D01*
X158335872Y-90826874D01*
X158335877Y-90826885D01*
X158335877Y-90826886D01*
X158435449Y-91010881D01*
X158435453Y-91010887D01*
X158435456Y-91010890D01*
X158435460Y-91010897D01*
X158563959Y-91175992D01*
X158563963Y-91175997D01*
X158680867Y-91283614D01*
X158703165Y-91310967D01*
X158716283Y-91332796D01*
X158734000Y-91396668D01*
X158734000Y-92166933D01*
X158728976Y-92201872D01*
X158721801Y-92226305D01*
X158686809Y-92282595D01*
X158567967Y-92391998D01*
X158567956Y-92392009D01*
X158439468Y-92557090D01*
X158439453Y-92557111D01*
X158439449Y-92557117D01*
X158339877Y-92741112D01*
X158339877Y-92741113D01*
X158339869Y-92741133D01*
X158271938Y-92939006D01*
X158264160Y-92985620D01*
X158251951Y-93058788D01*
X158237500Y-93145386D01*
X158237500Y-93184108D01*
X158237500Y-114184108D01*
X158237500Y-114250000D01*
X158237500Y-114354614D01*
X158254719Y-114457801D01*
X158254719Y-114457802D01*
X158271938Y-114560992D01*
X158332018Y-114735996D01*
X158339872Y-114758874D01*
X158339877Y-114758885D01*
X158339877Y-114758886D01*
X158439449Y-114942881D01*
X158439453Y-114942887D01*
X158439456Y-114942890D01*
X158439460Y-114942897D01*
X158567959Y-115107992D01*
X158567961Y-115107994D01*
X158567966Y-115108000D01*
X158680866Y-115211933D01*
X158703165Y-115239286D01*
X158716282Y-115261111D01*
X158734000Y-115324987D01*
X158734000Y-116084170D01*
X158728975Y-116119114D01*
X158724570Y-116134112D01*
X158686827Y-116192855D01*
X158685458Y-116194042D01*
X158630597Y-116221518D01*
X158623039Y-116223163D01*
X158596668Y-116226000D01*
X78865830Y-116226000D01*
X78830889Y-116220975D01*
X78815890Y-116216570D01*
X78757144Y-116178827D01*
X78755957Y-116177458D01*
X78728477Y-116122583D01*
X78726832Y-116115021D01*
X78724000Y-116088668D01*
X78724000Y-113733471D01*
X114290237Y-113733471D01*
X114324338Y-113904899D01*
X114324344Y-113904919D01*
X114380908Y-114041481D01*
X114380913Y-114041490D01*
X114380923Y-114041507D01*
X114463049Y-114164417D01*
X114463050Y-114164418D01*
X114463055Y-114164424D01*
X114567574Y-114268943D01*
X114567580Y-114268948D01*
X114567584Y-114268951D01*
X114690498Y-114351080D01*
X114690511Y-114351087D01*
X114821487Y-114405338D01*
X114825910Y-114407430D01*
X114826638Y-114407571D01*
X114827382Y-114407717D01*
X114972077Y-114436500D01*
X114972079Y-114436500D01*
X114972082Y-114436500D01*
X115119920Y-114436500D01*
X115217462Y-114417096D01*
X115264913Y-114407658D01*
X115401495Y-114351084D01*
X115524416Y-114268951D01*
X115628951Y-114164416D01*
X115711084Y-114041495D01*
X115767658Y-113904913D01*
X115796500Y-113759918D01*
X115796500Y-113612082D01*
X115796500Y-113612079D01*
X115796500Y-113612076D01*
X115767717Y-113467382D01*
X115767571Y-113466638D01*
X115767430Y-113465910D01*
X115765338Y-113461487D01*
X115711087Y-113330511D01*
X115711080Y-113330498D01*
X115628951Y-113207584D01*
X115628948Y-113207580D01*
X115628943Y-113207574D01*
X115524424Y-113103055D01*
X115524418Y-113103050D01*
X115524417Y-113103049D01*
X115401507Y-113020923D01*
X115401506Y-113020922D01*
X115401501Y-113020919D01*
X115401488Y-113020912D01*
X115401481Y-113020908D01*
X115280054Y-112970613D01*
X115264917Y-112964343D01*
X115264907Y-112964340D01*
X115264905Y-112964339D01*
X115264900Y-112964338D01*
X115119922Y-112935500D01*
X115119920Y-112935500D01*
X115119918Y-112935500D01*
X114972082Y-112935500D01*
X114972080Y-112935500D01*
X114972078Y-112935500D01*
X114827096Y-112964338D01*
X114827079Y-112964344D01*
X114690517Y-113020908D01*
X114690508Y-113020913D01*
X114690491Y-113020923D01*
X114567581Y-113103049D01*
X114567580Y-113103050D01*
X114567574Y-113103055D01*
X114463055Y-113207574D01*
X114463050Y-113207580D01*
X114463049Y-113207581D01*
X114380923Y-113330491D01*
X114380913Y-113330508D01*
X114380908Y-113330517D01*
X114324344Y-113467079D01*
X114324338Y-113467098D01*
X114295500Y-113612076D01*
X114295500Y-113715551D01*
X114290237Y-113733471D01*
X78724000Y-113733471D01*
X78724000Y-109417521D01*
X84299500Y-109417521D01*
X84299500Y-109726477D01*
X84334083Y-110033422D01*
X84334089Y-110033457D01*
X84402831Y-110334634D01*
X84402835Y-110334650D01*
X84402842Y-110334671D01*
X84504859Y-110626216D01*
X84504862Y-110626222D01*
X84504868Y-110626236D01*
X84556646Y-110733754D01*
X84638902Y-110904560D01*
X84639106Y-110904918D01*
X84639792Y-110905977D01*
X84668734Y-110952038D01*
X84803265Y-111166143D01*
X84995880Y-111407674D01*
X85214326Y-111626120D01*
X85455857Y-111818735D01*
X85717435Y-111983095D01*
X85995771Y-112117135D01*
X85995775Y-112117136D01*
X85995877Y-112117178D01*
X85996639Y-112117438D01*
X86084686Y-112148247D01*
X86287327Y-112219156D01*
X86287348Y-112219163D01*
X86287352Y-112219164D01*
X86287364Y-112219168D01*
X86512889Y-112270642D01*
X86587381Y-112287645D01*
X86588443Y-112287899D01*
X86588546Y-112287910D01*
X86588548Y-112287911D01*
X86588550Y-112287911D01*
X86588557Y-112287911D01*
X86588562Y-112287913D01*
X86793206Y-112310970D01*
X86875691Y-112320263D01*
X86892511Y-112322159D01*
X86894994Y-112322500D01*
X87204468Y-112322500D01*
X87214263Y-112322500D01*
X87221862Y-112320539D01*
X87361356Y-112304822D01*
X87510749Y-112287990D01*
X87511390Y-112287922D01*
X87511437Y-112287914D01*
X87511448Y-112287911D01*
X87511452Y-112287911D01*
X87812636Y-112219168D01*
X88104229Y-112117135D01*
X88382565Y-111983095D01*
X88644143Y-111818735D01*
X88885674Y-111626120D01*
X89104120Y-111407674D01*
X89296735Y-111166143D01*
X89326907Y-111118125D01*
X93431500Y-111118125D01*
X93431500Y-112663876D01*
X93431659Y-112665806D01*
X93431885Y-112667454D01*
X93437907Y-112723482D01*
X93461405Y-112786482D01*
X93488202Y-112858328D01*
X93488203Y-112858330D01*
X93488204Y-112858332D01*
X93574450Y-112973542D01*
X93574452Y-112973544D01*
X93574455Y-112973547D01*
X93689664Y-113059793D01*
X93689671Y-113059797D01*
X93739155Y-113078253D01*
X93774513Y-113104721D01*
X93831444Y-113110835D01*
X93831443Y-113110839D01*
X93831458Y-113110836D01*
X93884127Y-113116500D01*
X95179872Y-113116499D01*
X95239483Y-113110091D01*
X95374331Y-113059796D01*
X95489546Y-112973546D01*
X95575796Y-112858331D01*
X95626091Y-112723483D01*
X95632500Y-112663873D01*
X95632499Y-111679389D01*
X100931500Y-111679389D01*
X100931500Y-111683814D01*
X100931500Y-112102610D01*
X100949960Y-112219167D01*
X100958598Y-112273701D01*
X101012127Y-112438445D01*
X101090768Y-112592788D01*
X101192586Y-112732928D01*
X101315072Y-112855414D01*
X101455212Y-112957232D01*
X101609555Y-113035873D01*
X101774299Y-113089402D01*
X101945389Y-113116500D01*
X101945390Y-113116500D01*
X102118610Y-113116500D01*
X102118611Y-113116500D01*
X102289701Y-113089402D01*
X102454445Y-113035873D01*
X102608788Y-112957232D01*
X102748928Y-112855414D01*
X102871414Y-112732928D01*
X102973232Y-112592788D01*
X103051873Y-112438445D01*
X103105402Y-112273701D01*
X103132500Y-112102611D01*
X103132500Y-111679389D01*
X103105402Y-111508299D01*
X103051873Y-111343555D01*
X102973232Y-111189212D01*
X102871414Y-111049072D01*
X102748928Y-110926586D01*
X102608788Y-110824768D01*
X102576762Y-110808450D01*
X102454449Y-110746128D01*
X102298532Y-110695467D01*
X102294010Y-110693614D01*
X102284820Y-110691444D01*
X102280057Y-110691070D01*
X102201741Y-110678666D01*
X102158271Y-110671781D01*
X102142407Y-110669268D01*
X102118614Y-110665500D01*
X102118611Y-110665500D01*
X101945389Y-110665500D01*
X101945388Y-110665500D01*
X101905726Y-110671781D01*
X101905725Y-110671780D01*
X101774304Y-110692596D01*
X101609549Y-110746129D01*
X101455210Y-110824768D01*
X101375256Y-110882859D01*
X101375255Y-110882859D01*
X101326941Y-110917961D01*
X101319564Y-110922092D01*
X101188094Y-111053562D01*
X101183965Y-111060936D01*
X101173775Y-111074963D01*
X101173774Y-111074965D01*
X101173771Y-111074969D01*
X101090768Y-111189211D01*
X101090765Y-111189215D01*
X101090764Y-111189218D01*
X101012129Y-111343549D01*
X100958596Y-111508305D01*
X100958595Y-111508306D01*
X100945432Y-111591422D01*
X100945347Y-111591961D01*
X100931500Y-111679389D01*
X95632499Y-111679389D01*
X95632499Y-111118128D01*
X95626091Y-111058517D01*
X95622568Y-111049072D01*
X95586374Y-110952031D01*
X95575798Y-110923673D01*
X95575797Y-110923671D01*
X95575795Y-110923668D01*
X95575793Y-110923664D01*
X95489547Y-110808455D01*
X95489544Y-110808452D01*
X95489542Y-110808450D01*
X95409269Y-110748358D01*
X95374335Y-110722206D01*
X95374332Y-110722204D01*
X95374330Y-110722203D01*
X95374328Y-110722202D01*
X95324844Y-110703746D01*
X95289497Y-110677284D01*
X95187583Y-110666328D01*
X95182742Y-110665500D01*
X95179881Y-110665500D01*
X95179873Y-110665500D01*
X95179864Y-110665500D01*
X93884129Y-110665500D01*
X93884123Y-110665500D01*
X93882192Y-110665659D01*
X93880545Y-110665885D01*
X93824516Y-110671908D01*
X93721730Y-110710245D01*
X93689666Y-110722204D01*
X93689665Y-110722205D01*
X93574456Y-110808450D01*
X93574450Y-110808456D01*
X93488205Y-110923665D01*
X93488203Y-110923668D01*
X93437908Y-111058516D01*
X93431500Y-111118125D01*
X89326907Y-111118125D01*
X89461095Y-110904565D01*
X89595135Y-110626229D01*
X89697168Y-110334636D01*
X89697169Y-110334634D01*
X89729908Y-110191189D01*
X89765911Y-110033452D01*
X89765915Y-110033422D01*
X89772501Y-109974970D01*
X89787605Y-109840913D01*
X89787605Y-109840912D01*
X89787606Y-109840906D01*
X89800500Y-109726465D01*
X89800500Y-109417535D01*
X89777647Y-109214705D01*
X89765913Y-109110562D01*
X89765910Y-109110544D01*
X89741927Y-109005469D01*
X89741926Y-109005466D01*
X89712143Y-108874976D01*
X89697168Y-108809364D01*
X89677305Y-108752600D01*
X89595417Y-108518578D01*
X89595177Y-108517876D01*
X89595133Y-108517767D01*
X89554946Y-108434319D01*
X89461095Y-108239435D01*
X89296735Y-107977857D01*
X89104120Y-107736326D01*
X89019814Y-107652020D01*
X88885683Y-107517888D01*
X88885672Y-107517878D01*
X88883257Y-107515953D01*
X88883248Y-107515946D01*
X88861320Y-107498459D01*
X88797176Y-107447305D01*
X88644143Y-107325265D01*
X88432003Y-107191969D01*
X88382562Y-107160903D01*
X88382563Y-107160903D01*
X88382556Y-107160899D01*
X88104233Y-107026866D01*
X88104231Y-107026865D01*
X88104224Y-107026863D01*
X88104225Y-107026863D01*
X88104222Y-107026862D01*
X88091029Y-107022245D01*
X87812676Y-106924844D01*
X87812654Y-106924836D01*
X87812625Y-106924828D01*
X87809696Y-106924160D01*
X87809696Y-106924159D01*
X87756796Y-106912085D01*
X109551237Y-106912085D01*
X109580822Y-107060808D01*
X109582458Y-107069030D01*
X109582461Y-107069040D01*
X109633376Y-107191961D01*
X109633378Y-107191964D01*
X109633379Y-107191967D01*
X109633382Y-107191973D01*
X109633385Y-107191978D01*
X109633386Y-107191979D01*
X109642442Y-107205533D01*
X109707302Y-107302602D01*
X109707305Y-107302607D01*
X109726408Y-107321710D01*
X109747563Y-107349970D01*
X109755054Y-107363690D01*
X109769905Y-107431948D01*
X109769776Y-107433754D01*
X109750408Y-107491956D01*
X109746229Y-107498459D01*
X109729593Y-107519103D01*
X109707314Y-107541381D01*
X109707307Y-107541389D01*
X109707305Y-107541392D01*
X109707302Y-107541396D01*
X109633382Y-107652025D01*
X109633379Y-107652031D01*
X109633376Y-107652037D01*
X109633376Y-107652038D01*
X109582958Y-107773761D01*
X109582459Y-107774965D01*
X109582456Y-107774976D01*
X109556500Y-107905463D01*
X109556500Y-107994165D01*
X109551237Y-108012085D01*
X109582456Y-108169022D01*
X109582458Y-108169030D01*
X109582461Y-108169040D01*
X109633376Y-108291961D01*
X109633378Y-108291964D01*
X109633379Y-108291967D01*
X109633382Y-108291973D01*
X109633385Y-108291978D01*
X109633386Y-108291979D01*
X109657190Y-108327605D01*
X109707302Y-108402602D01*
X109707305Y-108402607D01*
X109726408Y-108421710D01*
X109747563Y-108449970D01*
X109755054Y-108463690D01*
X109769905Y-108531948D01*
X109769776Y-108533754D01*
X109750408Y-108591956D01*
X109746229Y-108598459D01*
X109729593Y-108619103D01*
X109707314Y-108641381D01*
X109707307Y-108641389D01*
X109707305Y-108641392D01*
X109707302Y-108641396D01*
X109633382Y-108752025D01*
X109633379Y-108752031D01*
X109633376Y-108752037D01*
X109633376Y-108752038D01*
X109582959Y-108873759D01*
X109582459Y-108874965D01*
X109582456Y-108874976D01*
X109556500Y-109005463D01*
X109556500Y-109094165D01*
X109551237Y-109112085D01*
X109581958Y-109266517D01*
X109582458Y-109269030D01*
X109582461Y-109269040D01*
X109633376Y-109391961D01*
X109633378Y-109391965D01*
X109633377Y-109391965D01*
X109633380Y-109391970D01*
X109633385Y-109391978D01*
X109633386Y-109391979D01*
X109693891Y-109482532D01*
X109707302Y-109502602D01*
X109707305Y-109502607D01*
X109726408Y-109521710D01*
X109747563Y-109549970D01*
X109755054Y-109563690D01*
X109769905Y-109631948D01*
X109769776Y-109633754D01*
X109750408Y-109691956D01*
X109746229Y-109698459D01*
X109729593Y-109719103D01*
X109707314Y-109741381D01*
X109707307Y-109741389D01*
X109707307Y-109741390D01*
X109707301Y-109741398D01*
X109662993Y-109807709D01*
X109633382Y-109852025D01*
X109633379Y-109852031D01*
X109633377Y-109852036D01*
X109633376Y-109852038D01*
X109582469Y-109974942D01*
X109582459Y-109974965D01*
X109582456Y-109974976D01*
X109556500Y-110105463D01*
X109556500Y-110194165D01*
X109551237Y-110212085D01*
X109577411Y-110343659D01*
X109582458Y-110369030D01*
X109582461Y-110369040D01*
X109633376Y-110491961D01*
X109633378Y-110491964D01*
X109633379Y-110491967D01*
X109633382Y-110491973D01*
X109707302Y-110602602D01*
X109707305Y-110602607D01*
X109726408Y-110621710D01*
X109747563Y-110649970D01*
X109755054Y-110663690D01*
X109769905Y-110731948D01*
X109769776Y-110733754D01*
X109750408Y-110791956D01*
X109746229Y-110798459D01*
X109729593Y-110819103D01*
X109707314Y-110841381D01*
X109707307Y-110841389D01*
X109707305Y-110841392D01*
X109707302Y-110841396D01*
X109633382Y-110952025D01*
X109633379Y-110952031D01*
X109633376Y-110952037D01*
X109633376Y-110952038D01*
X109582650Y-111074504D01*
X109582459Y-111074965D01*
X109582458Y-111074969D01*
X109556500Y-111205463D01*
X109556500Y-111294165D01*
X109551237Y-111312085D01*
X109582456Y-111469022D01*
X109582458Y-111469030D01*
X109582461Y-111469040D01*
X109633376Y-111591961D01*
X109633378Y-111591964D01*
X109633379Y-111591967D01*
X109633382Y-111591973D01*
X109633385Y-111591978D01*
X109633386Y-111591979D01*
X109691791Y-111679389D01*
X109707302Y-111702602D01*
X109707305Y-111702607D01*
X109726408Y-111721710D01*
X109747563Y-111749970D01*
X109755054Y-111763690D01*
X109769905Y-111831948D01*
X109769776Y-111833754D01*
X109750408Y-111891956D01*
X109746229Y-111898459D01*
X109729593Y-111919103D01*
X109707314Y-111941381D01*
X109707307Y-111941389D01*
X109707305Y-111941392D01*
X109707302Y-111941396D01*
X109633382Y-112052025D01*
X109633379Y-112052031D01*
X109633376Y-112052037D01*
X109633376Y-112052038D01*
X109582959Y-112173759D01*
X109582459Y-112174965D01*
X109582456Y-112174976D01*
X109556500Y-112305463D01*
X109556500Y-112394165D01*
X109551237Y-112412085D01*
X109582456Y-112569022D01*
X109582458Y-112569030D01*
X109582461Y-112569040D01*
X109633376Y-112691961D01*
X109633378Y-112691964D01*
X109633379Y-112691967D01*
X109633382Y-112691973D01*
X109633385Y-112691978D01*
X109633386Y-112691979D01*
X109695021Y-112784223D01*
X109707302Y-112802602D01*
X109707305Y-112802607D01*
X109707310Y-112802613D01*
X109801385Y-112896688D01*
X109801389Y-112896691D01*
X109801390Y-112896692D01*
X109801398Y-112896698D01*
X109891994Y-112957232D01*
X109909232Y-112968750D01*
X109912190Y-112970845D01*
X109916071Y-112972293D01*
X110029369Y-113019222D01*
X110033764Y-113021301D01*
X110034962Y-113021539D01*
X110034964Y-113021540D01*
X110034965Y-113021540D01*
X110034968Y-113021540D01*
X110034969Y-113021541D01*
X110077669Y-113030035D01*
X110165464Y-113047500D01*
X110448533Y-113047500D01*
X110448535Y-113047500D01*
X110536320Y-113030036D01*
X110536323Y-113030036D01*
X110554653Y-113026389D01*
X110579036Y-113021540D01*
X110701969Y-112970620D01*
X110812606Y-112896695D01*
X110850973Y-112858328D01*
X110881713Y-112827587D01*
X110909964Y-112806439D01*
X110923688Y-112798945D01*
X110991946Y-112784094D01*
X110993756Y-112784223D01*
X111051953Y-112803589D01*
X111058471Y-112807778D01*
X111079101Y-112824403D01*
X111151390Y-112896692D01*
X111151398Y-112896698D01*
X111241994Y-112957232D01*
X111259232Y-112968750D01*
X111262190Y-112970845D01*
X111266071Y-112972293D01*
X111379369Y-113019222D01*
X111383764Y-113021301D01*
X111384962Y-113021539D01*
X111384964Y-113021540D01*
X111384965Y-113021540D01*
X111384968Y-113021540D01*
X111384969Y-113021541D01*
X111427669Y-113030035D01*
X111515464Y-113047500D01*
X111798533Y-113047500D01*
X111798535Y-113047500D01*
X111886320Y-113030036D01*
X111886323Y-113030036D01*
X111904653Y-113026389D01*
X111929036Y-113021540D01*
X112051969Y-112970620D01*
X112162606Y-112896695D01*
X112256695Y-112802606D01*
X112330620Y-112691969D01*
X112381540Y-112569036D01*
X112407500Y-112438531D01*
X112407500Y-112305469D01*
X112407500Y-112305466D01*
X112407500Y-112305463D01*
X112381300Y-112173759D01*
X112379215Y-112169349D01*
X112330623Y-112052037D01*
X112330621Y-112052033D01*
X112330620Y-112052031D01*
X112284559Y-111983096D01*
X112256698Y-111941398D01*
X112256692Y-111941390D01*
X112256691Y-111941389D01*
X112256688Y-111941385D01*
X112237591Y-111922289D01*
X112216436Y-111894029D01*
X112208945Y-111880309D01*
X112194094Y-111812051D01*
X112194223Y-111810242D01*
X112213593Y-111752041D01*
X112217777Y-111745530D01*
X112234407Y-111724895D01*
X112256694Y-111702608D01*
X112256695Y-111702604D01*
X112330620Y-111591969D01*
X112381540Y-111469036D01*
X112406501Y-111343555D01*
X112407500Y-111338533D01*
X112407500Y-111205466D01*
X112407500Y-111205463D01*
X112381597Y-111075250D01*
X112381451Y-111074504D01*
X112381313Y-111073788D01*
X112379220Y-111069364D01*
X112332300Y-110956086D01*
X112330997Y-110952597D01*
X112330621Y-110952034D01*
X112330620Y-110952031D01*
X112313618Y-110926586D01*
X112256698Y-110841398D01*
X112256692Y-110841390D01*
X112256690Y-110841388D01*
X112256688Y-110841385D01*
X112237591Y-110822289D01*
X112216436Y-110794029D01*
X112208945Y-110780309D01*
X112194094Y-110712051D01*
X112194223Y-110710242D01*
X112213593Y-110652041D01*
X112217777Y-110645530D01*
X112234407Y-110624895D01*
X112256694Y-110602608D01*
X112256695Y-110602604D01*
X112330620Y-110491969D01*
X112381540Y-110369036D01*
X112407500Y-110238531D01*
X112407500Y-110105469D01*
X112407500Y-110105466D01*
X112407500Y-110105463D01*
X112382046Y-109977507D01*
X112381541Y-109974969D01*
X112381540Y-109974968D01*
X112381300Y-109973759D01*
X112379215Y-109969349D01*
X112330622Y-109852036D01*
X112330620Y-109852031D01*
X112323191Y-109840913D01*
X112256698Y-109741398D01*
X112256692Y-109741390D01*
X112237591Y-109722289D01*
X112216436Y-109694029D01*
X112208945Y-109680309D01*
X112206587Y-109669471D01*
X137150237Y-109669471D01*
X137184338Y-109840899D01*
X137184340Y-109840907D01*
X137184343Y-109840917D01*
X137188950Y-109852039D01*
X137240908Y-109977481D01*
X137240912Y-109977488D01*
X137240916Y-109977496D01*
X137240923Y-109977507D01*
X137323049Y-110100417D01*
X137323050Y-110100418D01*
X137323055Y-110100424D01*
X137427574Y-110204943D01*
X137427580Y-110204948D01*
X137427584Y-110204951D01*
X137550498Y-110287080D01*
X137550511Y-110287087D01*
X137665306Y-110334636D01*
X137681474Y-110341333D01*
X137685885Y-110343419D01*
X137832076Y-110372500D01*
X137832079Y-110372500D01*
X137832082Y-110372500D01*
X137979920Y-110372500D01*
X138077462Y-110353096D01*
X138124913Y-110343658D01*
X138261495Y-110287084D01*
X138384416Y-110204951D01*
X138488951Y-110100416D01*
X138571084Y-109977495D01*
X138572135Y-109974959D01*
X138623050Y-109852038D01*
X138627658Y-109840913D01*
X138647455Y-109741390D01*
X138656500Y-109695920D01*
X138656500Y-109548079D01*
X138656500Y-109548076D01*
X138634652Y-109438248D01*
X138634647Y-109438223D01*
X138630531Y-109417530D01*
X138630529Y-109417521D01*
X151559500Y-109417521D01*
X151559500Y-109726477D01*
X151594083Y-110033422D01*
X151594089Y-110033457D01*
X151662831Y-110334634D01*
X151662835Y-110334650D01*
X151662842Y-110334671D01*
X151764859Y-110626216D01*
X151764862Y-110626222D01*
X151764868Y-110626236D01*
X151816646Y-110733754D01*
X151898902Y-110904560D01*
X151899106Y-110904918D01*
X151899792Y-110905977D01*
X151928734Y-110952038D01*
X152063265Y-111166143D01*
X152255880Y-111407674D01*
X152474326Y-111626120D01*
X152715857Y-111818735D01*
X152977435Y-111983095D01*
X153255771Y-112117135D01*
X153255775Y-112117136D01*
X153255877Y-112117178D01*
X153256639Y-112117438D01*
X153344686Y-112148247D01*
X153547327Y-112219156D01*
X153547348Y-112219163D01*
X153547352Y-112219164D01*
X153547364Y-112219168D01*
X153772889Y-112270642D01*
X153847381Y-112287645D01*
X153848443Y-112287899D01*
X153848546Y-112287910D01*
X153848548Y-112287911D01*
X153848550Y-112287911D01*
X153848557Y-112287911D01*
X153848562Y-112287913D01*
X154053206Y-112310970D01*
X154135691Y-112320263D01*
X154152511Y-112322159D01*
X154154994Y-112322500D01*
X154464468Y-112322500D01*
X154474263Y-112322500D01*
X154481862Y-112320539D01*
X154621356Y-112304822D01*
X154770749Y-112287990D01*
X154771390Y-112287922D01*
X154771437Y-112287914D01*
X154771448Y-112287911D01*
X154771452Y-112287911D01*
X155072636Y-112219168D01*
X155364229Y-112117135D01*
X155642565Y-111983095D01*
X155904143Y-111818735D01*
X156145674Y-111626120D01*
X156364120Y-111407674D01*
X156556735Y-111166143D01*
X156721095Y-110904565D01*
X156855135Y-110626229D01*
X156957168Y-110334636D01*
X156957169Y-110334634D01*
X156989908Y-110191189D01*
X157025911Y-110033452D01*
X157025915Y-110033422D01*
X157032501Y-109974970D01*
X157047605Y-109840913D01*
X157047605Y-109840912D01*
X157047606Y-109840906D01*
X157060500Y-109726465D01*
X157060500Y-109417535D01*
X157037647Y-109214705D01*
X157025913Y-109110562D01*
X157025910Y-109110544D01*
X157001927Y-109005469D01*
X157001926Y-109005466D01*
X156972143Y-108874976D01*
X156957168Y-108809364D01*
X156937305Y-108752600D01*
X156855417Y-108518578D01*
X156855177Y-108517876D01*
X156855133Y-108517767D01*
X156814946Y-108434319D01*
X156721095Y-108239435D01*
X156556735Y-107977857D01*
X156364120Y-107736326D01*
X156279814Y-107652020D01*
X156145683Y-107517888D01*
X156145672Y-107517878D01*
X156143257Y-107515953D01*
X156143248Y-107515946D01*
X156121320Y-107498459D01*
X156057176Y-107447305D01*
X155904143Y-107325265D01*
X155692003Y-107191969D01*
X155642562Y-107160903D01*
X155642563Y-107160903D01*
X155642556Y-107160899D01*
X155364233Y-107026866D01*
X155364231Y-107026865D01*
X155364216Y-107026859D01*
X155072671Y-106924842D01*
X155072650Y-106924835D01*
X155072638Y-106924832D01*
X155072635Y-106924831D01*
X154934909Y-106893396D01*
X154771457Y-106856089D01*
X154771422Y-106856083D01*
X154464477Y-106821500D01*
X154464471Y-106821500D01*
X154464465Y-106821500D01*
X154155535Y-106821500D01*
X154155528Y-106821500D01*
X154155521Y-106821500D01*
X153848576Y-106856083D01*
X153848541Y-106856089D01*
X153603208Y-106912085D01*
X153547378Y-106924828D01*
X153547360Y-106924832D01*
X153547348Y-106924835D01*
X153547327Y-106924842D01*
X153255782Y-107026859D01*
X153255767Y-107026865D01*
X153255765Y-107026866D01*
X152977442Y-107160899D01*
X152715859Y-107325263D01*
X152474326Y-107517878D01*
X152255878Y-107736326D01*
X152063263Y-107977859D01*
X151898899Y-108239442D01*
X151764866Y-108517765D01*
X151764865Y-108517767D01*
X151764859Y-108517782D01*
X151662842Y-108809327D01*
X151662835Y-108809348D01*
X151662835Y-108809350D01*
X151662835Y-108809352D01*
X151662831Y-108809364D01*
X151642066Y-108900343D01*
X151594089Y-109110541D01*
X151594083Y-109110576D01*
X151559500Y-109417521D01*
X138630529Y-109417521D01*
X138627658Y-109403087D01*
X138625909Y-109398865D01*
X138623054Y-109391970D01*
X138575878Y-109278078D01*
X138571087Y-109266511D01*
X138571080Y-109266498D01*
X138488951Y-109143584D01*
X138488948Y-109143580D01*
X138488943Y-109143574D01*
X138384424Y-109039055D01*
X138384418Y-109039050D01*
X138384417Y-109039049D01*
X138261507Y-108956923D01*
X138261506Y-108956922D01*
X138261501Y-108956919D01*
X138261488Y-108956912D01*
X138261481Y-108956908D01*
X138124919Y-108900344D01*
X138124920Y-108900344D01*
X138124917Y-108900343D01*
X138124907Y-108900340D01*
X138124905Y-108900339D01*
X138124900Y-108900338D01*
X137979922Y-108871500D01*
X137979920Y-108871500D01*
X137979918Y-108871500D01*
X137832082Y-108871500D01*
X137832080Y-108871500D01*
X137832078Y-108871500D01*
X137687096Y-108900338D01*
X137687079Y-108900344D01*
X137550517Y-108956908D01*
X137550508Y-108956913D01*
X137550491Y-108956923D01*
X137427581Y-109039049D01*
X137427580Y-109039050D01*
X137427574Y-109039055D01*
X137323055Y-109143574D01*
X137323050Y-109143580D01*
X137323049Y-109143581D01*
X137240923Y-109266491D01*
X137240913Y-109266508D01*
X137240908Y-109266517D01*
X137184344Y-109403079D01*
X137184338Y-109403098D01*
X137155500Y-109548076D01*
X137155500Y-109651551D01*
X137150237Y-109669471D01*
X112206587Y-109669471D01*
X112194094Y-109612051D01*
X112194223Y-109610242D01*
X112213593Y-109552041D01*
X112217777Y-109545530D01*
X112234407Y-109524895D01*
X112256694Y-109502608D01*
X112256695Y-109502604D01*
X112330620Y-109391969D01*
X112381540Y-109269036D01*
X112386389Y-109244653D01*
X112390036Y-109226323D01*
X112390036Y-109226319D01*
X112397482Y-109188889D01*
X112407500Y-109138537D01*
X112407500Y-109005463D01*
X112386589Y-108900344D01*
X112381541Y-108874969D01*
X112381540Y-108874968D01*
X112381300Y-108873759D01*
X112379215Y-108869349D01*
X112350521Y-108800075D01*
X112333715Y-108759503D01*
X120372737Y-108759503D01*
X120408567Y-108939625D01*
X120408569Y-108939633D01*
X120408572Y-108939643D01*
X120408575Y-108939651D01*
X120408580Y-108939665D01*
X120468527Y-109084390D01*
X120468535Y-109084408D01*
X120468544Y-109084423D01*
X120555595Y-109214703D01*
X120555596Y-109214704D01*
X120555601Y-109214710D01*
X120666388Y-109325497D01*
X120666394Y-109325502D01*
X120666395Y-109325503D01*
X120666398Y-109325505D01*
X120796682Y-109412559D01*
X120796695Y-109412566D01*
X120935869Y-109470213D01*
X120940283Y-109472301D01*
X120941015Y-109472442D01*
X120941763Y-109472589D01*
X121095145Y-109503100D01*
X121095147Y-109503100D01*
X121095150Y-109503100D01*
X121251852Y-109503100D01*
X121355246Y-109482532D01*
X121405539Y-109472529D01*
X121517504Y-109426151D01*
X121543761Y-109415275D01*
X121546554Y-109414302D01*
X121547989Y-109413638D01*
X121552653Y-109411593D01*
X121561919Y-109407755D01*
X121570804Y-109398869D01*
X121680602Y-109325505D01*
X121680605Y-109325502D01*
X121708213Y-109297893D01*
X121736464Y-109276745D01*
X121750188Y-109269251D01*
X121818446Y-109254400D01*
X121820256Y-109254529D01*
X121878453Y-109273895D01*
X121884971Y-109278084D01*
X121905602Y-109294710D01*
X121936389Y-109325497D01*
X121936395Y-109325503D01*
X121936398Y-109325505D01*
X122066682Y-109412559D01*
X122066695Y-109412566D01*
X122205869Y-109470213D01*
X122210283Y-109472301D01*
X122211015Y-109472442D01*
X122211763Y-109472589D01*
X122365145Y-109503100D01*
X122365147Y-109503100D01*
X122365150Y-109503100D01*
X122521852Y-109503100D01*
X122625246Y-109482532D01*
X122675539Y-109472529D01*
X122787504Y-109426151D01*
X122813761Y-109415275D01*
X122816554Y-109414302D01*
X122817989Y-109413638D01*
X122822653Y-109411593D01*
X122831919Y-109407755D01*
X122840804Y-109398869D01*
X122950602Y-109325505D01*
X123002210Y-109273897D01*
X123061404Y-109214704D01*
X123061405Y-109214702D01*
X123148463Y-109084411D01*
X123208429Y-108939639D01*
X123231730Y-108822499D01*
X123234345Y-108809354D01*
X123234345Y-108809350D01*
X123234346Y-108809348D01*
X123239000Y-108785952D01*
X123239000Y-108629247D01*
X123239000Y-108629244D01*
X123208190Y-108474359D01*
X123206108Y-108469959D01*
X123178212Y-108402609D01*
X123148466Y-108330795D01*
X123148459Y-108330782D01*
X123061405Y-108200498D01*
X123061402Y-108200494D01*
X123033793Y-108172885D01*
X123012642Y-108144629D01*
X123005151Y-108130909D01*
X122990300Y-108062651D01*
X122990429Y-108060842D01*
X123009798Y-108002642D01*
X123013988Y-107996123D01*
X123030611Y-107975495D01*
X123061402Y-107944705D01*
X123061405Y-107944702D01*
X123148463Y-107814411D01*
X123208429Y-107669639D01*
X123211932Y-107652031D01*
X123218742Y-107617789D01*
X123238616Y-107517880D01*
X123239000Y-107515952D01*
X123239000Y-107489503D01*
X124182737Y-107489503D01*
X124215069Y-107652038D01*
X124218569Y-107669633D01*
X124218572Y-107669643D01*
X124218575Y-107669651D01*
X124218580Y-107669665D01*
X124278527Y-107814390D01*
X124278535Y-107814408D01*
X124278544Y-107814423D01*
X124365590Y-107944695D01*
X124365594Y-107944702D01*
X124365597Y-107944705D01*
X124393205Y-107972313D01*
X124414357Y-108000570D01*
X124421848Y-108014290D01*
X124436699Y-108082548D01*
X124436570Y-108084354D01*
X124417202Y-108142557D01*
X124413021Y-108149063D01*
X124396385Y-108169706D01*
X124365602Y-108200488D01*
X124365594Y-108200497D01*
X124365591Y-108200502D01*
X124278544Y-108330775D01*
X124278535Y-108330790D01*
X124278527Y-108330808D01*
X124218580Y-108475533D01*
X124218567Y-108475572D01*
X124188000Y-108629243D01*
X124188000Y-108741583D01*
X124182737Y-108759503D01*
X124218567Y-108939625D01*
X124218569Y-108939633D01*
X124218572Y-108939643D01*
X124218575Y-108939651D01*
X124218580Y-108939665D01*
X124278527Y-109084390D01*
X124278535Y-109084408D01*
X124278544Y-109084423D01*
X124365595Y-109214703D01*
X124365596Y-109214704D01*
X124365601Y-109214710D01*
X124476388Y-109325497D01*
X124476394Y-109325502D01*
X124476395Y-109325503D01*
X124476398Y-109325505D01*
X124606682Y-109412559D01*
X124606695Y-109412566D01*
X124745869Y-109470213D01*
X124750283Y-109472301D01*
X124751015Y-109472442D01*
X124751763Y-109472589D01*
X124905145Y-109503100D01*
X124905147Y-109503100D01*
X124905150Y-109503100D01*
X125061852Y-109503100D01*
X125165246Y-109482532D01*
X125215539Y-109472529D01*
X125327504Y-109426151D01*
X125353761Y-109415275D01*
X125356554Y-109414302D01*
X125357989Y-109413638D01*
X125362653Y-109411593D01*
X125371919Y-109407755D01*
X125380804Y-109398869D01*
X125490602Y-109325505D01*
X125490605Y-109325502D01*
X125518213Y-109297893D01*
X125546464Y-109276745D01*
X125560188Y-109269251D01*
X125628446Y-109254400D01*
X125630256Y-109254529D01*
X125688453Y-109273895D01*
X125694971Y-109278084D01*
X125715602Y-109294710D01*
X125746389Y-109325497D01*
X125746395Y-109325503D01*
X125746398Y-109325505D01*
X125876682Y-109412559D01*
X125876695Y-109412566D01*
X126015869Y-109470213D01*
X126020283Y-109472301D01*
X126021015Y-109472442D01*
X126021763Y-109472589D01*
X126175145Y-109503100D01*
X126175147Y-109503100D01*
X126175150Y-109503100D01*
X126331852Y-109503100D01*
X126435246Y-109482532D01*
X126485539Y-109472529D01*
X126534508Y-109452244D01*
X126534511Y-109452244D01*
X126534511Y-109452243D01*
X126534512Y-109452243D01*
X126594422Y-109427429D01*
X126623757Y-109415277D01*
X126626550Y-109414304D01*
X126627995Y-109413635D01*
X126632663Y-109411588D01*
X126641924Y-109407752D01*
X126650810Y-109398866D01*
X126760605Y-109325503D01*
X126760605Y-109325502D01*
X126871404Y-109214704D01*
X126871405Y-109214702D01*
X126958463Y-109084411D01*
X127018429Y-108939639D01*
X127041730Y-108822499D01*
X127044345Y-108809354D01*
X127044345Y-108809350D01*
X127044346Y-108809348D01*
X127049000Y-108785952D01*
X127049000Y-108629247D01*
X127049000Y-108629244D01*
X127018190Y-108474359D01*
X127016108Y-108469959D01*
X126988212Y-108402609D01*
X126958466Y-108330795D01*
X126958459Y-108330782D01*
X126871405Y-108200498D01*
X126871402Y-108200494D01*
X126843793Y-108172885D01*
X126822642Y-108144629D01*
X126815151Y-108130909D01*
X126800300Y-108062651D01*
X126800429Y-108060842D01*
X126819798Y-108002642D01*
X126823988Y-107996123D01*
X126840611Y-107975495D01*
X126871402Y-107944705D01*
X126871405Y-107944702D01*
X126958463Y-107814411D01*
X127018429Y-107669639D01*
X127021932Y-107652031D01*
X127048616Y-107517880D01*
X127048626Y-107517882D01*
X127048626Y-107517829D01*
X127049000Y-107515952D01*
X127049000Y-107359247D01*
X127049000Y-107359244D01*
X127018190Y-107204360D01*
X127016104Y-107199949D01*
X127012800Y-107191973D01*
X126999931Y-107160903D01*
X126999930Y-107160902D01*
X126999930Y-107160899D01*
X126961877Y-107069030D01*
X126958466Y-107060795D01*
X126958459Y-107060782D01*
X126871405Y-106930498D01*
X126871402Y-106930494D01*
X126871397Y-106930488D01*
X126760610Y-106819701D01*
X126760604Y-106819696D01*
X126760603Y-106819695D01*
X126630323Y-106732644D01*
X126630322Y-106732643D01*
X126630317Y-106732640D01*
X126630304Y-106732633D01*
X126622149Y-106729255D01*
X126485565Y-106672680D01*
X126485551Y-106672675D01*
X126485543Y-106672672D01*
X126485533Y-106672669D01*
X126485530Y-106672668D01*
X126485526Y-106672667D01*
X126331855Y-106642100D01*
X126331852Y-106642100D01*
X126331850Y-106642100D01*
X126175150Y-106642100D01*
X126175148Y-106642100D01*
X126175144Y-106642100D01*
X126021472Y-106672667D01*
X126021466Y-106672669D01*
X126021456Y-106672672D01*
X126021451Y-106672673D01*
X126021433Y-106672680D01*
X125876708Y-106732627D01*
X125876690Y-106732635D01*
X125876675Y-106732644D01*
X125746402Y-106819691D01*
X125746397Y-106819694D01*
X125746388Y-106819702D01*
X125718787Y-106847304D01*
X125690529Y-106868457D01*
X125676809Y-106875948D01*
X125608551Y-106890799D01*
X125606745Y-106890670D01*
X125548544Y-106871302D01*
X125542029Y-106867115D01*
X125521396Y-106850488D01*
X125490605Y-106819697D01*
X125490604Y-106819696D01*
X125490603Y-106819695D01*
X125360323Y-106732644D01*
X125360322Y-106732643D01*
X125360317Y-106732640D01*
X125360304Y-106732633D01*
X125352149Y-106729255D01*
X125215565Y-106672680D01*
X125215551Y-106672675D01*
X125215543Y-106672672D01*
X125215533Y-106672669D01*
X125215530Y-106672668D01*
X125215526Y-106672667D01*
X125061855Y-106642100D01*
X125061852Y-106642100D01*
X125061850Y-106642100D01*
X124905150Y-106642100D01*
X124905148Y-106642100D01*
X124905144Y-106642100D01*
X124751472Y-106672667D01*
X124751466Y-106672669D01*
X124751456Y-106672672D01*
X124751451Y-106672673D01*
X124751433Y-106672680D01*
X124606708Y-106732627D01*
X124606690Y-106732635D01*
X124606675Y-106732644D01*
X124476395Y-106819695D01*
X124476394Y-106819696D01*
X124476388Y-106819701D01*
X124365601Y-106930488D01*
X124365596Y-106930494D01*
X124365595Y-106930495D01*
X124278544Y-107060775D01*
X124278535Y-107060790D01*
X124278527Y-107060808D01*
X124218580Y-107205533D01*
X124218567Y-107205572D01*
X124188000Y-107359243D01*
X124188000Y-107471583D01*
X124182737Y-107489503D01*
X123239000Y-107489503D01*
X123239000Y-107359247D01*
X123239000Y-107359244D01*
X123208190Y-107204360D01*
X123206104Y-107199949D01*
X123202800Y-107191973D01*
X123189931Y-107160903D01*
X123189930Y-107160902D01*
X123189930Y-107160899D01*
X123151877Y-107069030D01*
X123148466Y-107060795D01*
X123148459Y-107060782D01*
X123061405Y-106930498D01*
X123061402Y-106930494D01*
X123061397Y-106930488D01*
X122950610Y-106819701D01*
X122950604Y-106819696D01*
X122950603Y-106819695D01*
X122820323Y-106732644D01*
X122820322Y-106732643D01*
X122820317Y-106732640D01*
X122820304Y-106732633D01*
X122812149Y-106729255D01*
X122675565Y-106672680D01*
X122675551Y-106672675D01*
X122675543Y-106672672D01*
X122675533Y-106672669D01*
X122675530Y-106672668D01*
X122675526Y-106672667D01*
X122521855Y-106642100D01*
X122521852Y-106642100D01*
X122521850Y-106642100D01*
X122365150Y-106642100D01*
X122365148Y-106642100D01*
X122365144Y-106642100D01*
X122211472Y-106672667D01*
X122211453Y-106672673D01*
X122066690Y-106732634D01*
X122066232Y-106732849D01*
X122065281Y-106733218D01*
X122064123Y-106733698D01*
X122064112Y-106733672D01*
X122050734Y-106738868D01*
X122031267Y-106744961D01*
X121961601Y-106746253D01*
X121961414Y-106746202D01*
X121927538Y-106725346D01*
X121924927Y-106729255D01*
X121900912Y-106713209D01*
X121897294Y-106710698D01*
X121895053Y-106709083D01*
X121892636Y-106707678D01*
X121840244Y-106672672D01*
X121840242Y-106672671D01*
X121816240Y-106656633D01*
X121816237Y-106656632D01*
X121816235Y-106656632D01*
X121816225Y-106656630D01*
X121816209Y-106656626D01*
X121743180Y-106642100D01*
X121743177Y-106642100D01*
X121743174Y-106642100D01*
X120603826Y-106642100D01*
X120603823Y-106642100D01*
X120603819Y-106642100D01*
X120530785Y-106656627D01*
X120530762Y-106656632D01*
X120530758Y-106656633D01*
X120447899Y-106711999D01*
X120392533Y-106794858D01*
X120392532Y-106794866D01*
X120392528Y-106794881D01*
X120378000Y-106867918D01*
X120378000Y-106867921D01*
X120378000Y-108007278D01*
X120378000Y-108007280D01*
X120377999Y-108007280D01*
X120385750Y-108046242D01*
X120392532Y-108080335D01*
X120392533Y-108080339D01*
X120404973Y-108098957D01*
X120404974Y-108098959D01*
X120443578Y-108156736D01*
X120444988Y-108159162D01*
X120446603Y-108161403D01*
X120449108Y-108165011D01*
X120463549Y-108186623D01*
X120469285Y-108196099D01*
X120471479Y-108200118D01*
X120486326Y-108268371D01*
X120485780Y-108276013D01*
X120469622Y-108327605D01*
X120470079Y-108327845D01*
X120468756Y-108330370D01*
X120468726Y-108330467D01*
X120468552Y-108330759D01*
X120468534Y-108330793D01*
X120468523Y-108330816D01*
X120408573Y-108475553D01*
X120408567Y-108475572D01*
X120378000Y-108629243D01*
X120378000Y-108741583D01*
X120372737Y-108759503D01*
X112333715Y-108759503D01*
X112330621Y-108752033D01*
X112330619Y-108752030D01*
X112330616Y-108752025D01*
X112275634Y-108669739D01*
X112275631Y-108669735D01*
X112256699Y-108641399D01*
X112256696Y-108641396D01*
X112256693Y-108641392D01*
X112256692Y-108641390D01*
X112256690Y-108641388D01*
X112256688Y-108641385D01*
X112237591Y-108622289D01*
X112216436Y-108594029D01*
X112208945Y-108580309D01*
X112194094Y-108512051D01*
X112194223Y-108510242D01*
X112213593Y-108452041D01*
X112217777Y-108445530D01*
X112234407Y-108424895D01*
X112256694Y-108402608D01*
X112256695Y-108402604D01*
X112330620Y-108291969D01*
X112381540Y-108169036D01*
X112395480Y-108098958D01*
X112403062Y-108060845D01*
X112407500Y-108038534D01*
X112407500Y-107905463D01*
X112381301Y-107773761D01*
X112379214Y-107769349D01*
X112330623Y-107652038D01*
X112330622Y-107652037D01*
X112330620Y-107652031D01*
X112256695Y-107541394D01*
X112256692Y-107541390D01*
X112256691Y-107541389D01*
X112256690Y-107541387D01*
X112256688Y-107541385D01*
X112237591Y-107522289D01*
X112216436Y-107494029D01*
X112208945Y-107480309D01*
X112194094Y-107412051D01*
X112194223Y-107410242D01*
X112213593Y-107352041D01*
X112217777Y-107345530D01*
X112234407Y-107324895D01*
X112256694Y-107302608D01*
X112256695Y-107302604D01*
X112330620Y-107191969D01*
X112381540Y-107069036D01*
X112398240Y-106985084D01*
X112407500Y-106938533D01*
X112407500Y-106805466D01*
X112407500Y-106805463D01*
X112381301Y-106673761D01*
X112379213Y-106669347D01*
X112373945Y-106656627D01*
X112373945Y-106656626D01*
X112336660Y-106566613D01*
X112330623Y-106552038D01*
X112330622Y-106552037D01*
X112330620Y-106552031D01*
X112256695Y-106441394D01*
X112256692Y-106441390D01*
X112182773Y-106367471D01*
X133340237Y-106367471D01*
X133374338Y-106538899D01*
X133374340Y-106538907D01*
X133374343Y-106538917D01*
X133379775Y-106552031D01*
X133430908Y-106675481D01*
X133430913Y-106675490D01*
X133430923Y-106675507D01*
X133513049Y-106798417D01*
X133513050Y-106798418D01*
X133513055Y-106798424D01*
X133617574Y-106902943D01*
X133617580Y-106902948D01*
X133617584Y-106902951D01*
X133740498Y-106985080D01*
X133740511Y-106985087D01*
X133871487Y-107039338D01*
X133875910Y-107041430D01*
X133876638Y-107041571D01*
X133877382Y-107041717D01*
X134022077Y-107070500D01*
X134022079Y-107070500D01*
X134022082Y-107070500D01*
X134169920Y-107070500D01*
X134267462Y-107051096D01*
X134314913Y-107041658D01*
X134451495Y-106985084D01*
X134574416Y-106902951D01*
X134678951Y-106798416D01*
X134761084Y-106675495D01*
X134768897Y-106656634D01*
X134768898Y-106656632D01*
X134783448Y-106621503D01*
X134783449Y-106621500D01*
X134817658Y-106538913D01*
X134822012Y-106517019D01*
X134826409Y-106494919D01*
X134826410Y-106494908D01*
X134827096Y-106491462D01*
X134846500Y-106393920D01*
X134846500Y-106367471D01*
X135626237Y-106367471D01*
X135660338Y-106538899D01*
X135660340Y-106538907D01*
X135660343Y-106538917D01*
X135665775Y-106552031D01*
X135716908Y-106675481D01*
X135716913Y-106675490D01*
X135716923Y-106675507D01*
X135799049Y-106798417D01*
X135799050Y-106798418D01*
X135799055Y-106798424D01*
X135903574Y-106902943D01*
X135903580Y-106902948D01*
X135903584Y-106902951D01*
X136026498Y-106985080D01*
X136026511Y-106985087D01*
X136157487Y-107039338D01*
X136161910Y-107041430D01*
X136162638Y-107041571D01*
X136163382Y-107041717D01*
X136308077Y-107070500D01*
X136308079Y-107070500D01*
X136308082Y-107070500D01*
X136455920Y-107070500D01*
X136553462Y-107051096D01*
X136600913Y-107041658D01*
X136737495Y-106985084D01*
X136860416Y-106902951D01*
X136964951Y-106798416D01*
X137047084Y-106675495D01*
X137054897Y-106656634D01*
X137054898Y-106656632D01*
X137069448Y-106621503D01*
X137069449Y-106621500D01*
X137103658Y-106538913D01*
X137108355Y-106515294D01*
X137113096Y-106491465D01*
X137113096Y-106491462D01*
X137132500Y-106393920D01*
X137132500Y-106246079D01*
X137132500Y-106246076D01*
X137103717Y-106101382D01*
X137103571Y-106100638D01*
X137103430Y-106099910D01*
X137101338Y-106095487D01*
X137047087Y-105964511D01*
X137047080Y-105964498D01*
X136964951Y-105841584D01*
X136964948Y-105841580D01*
X136964943Y-105841574D01*
X136860424Y-105737055D01*
X136860418Y-105737050D01*
X136860417Y-105737049D01*
X136737507Y-105654923D01*
X136737506Y-105654922D01*
X136737501Y-105654919D01*
X136737488Y-105654912D01*
X136737481Y-105654908D01*
X136600919Y-105598344D01*
X136600920Y-105598344D01*
X136600917Y-105598343D01*
X136600907Y-105598340D01*
X136600905Y-105598339D01*
X136600900Y-105598338D01*
X136455922Y-105569500D01*
X136455920Y-105569500D01*
X136455918Y-105569500D01*
X136308082Y-105569500D01*
X136308080Y-105569500D01*
X136308078Y-105569500D01*
X136163096Y-105598338D01*
X136163079Y-105598344D01*
X136026517Y-105654908D01*
X136026508Y-105654913D01*
X136026491Y-105654923D01*
X135903581Y-105737049D01*
X135903580Y-105737050D01*
X135903574Y-105737055D01*
X135799055Y-105841574D01*
X135799050Y-105841580D01*
X135799049Y-105841581D01*
X135716923Y-105964491D01*
X135716913Y-105964508D01*
X135716908Y-105964517D01*
X135660344Y-106101079D01*
X135660338Y-106101098D01*
X135631500Y-106246076D01*
X135631500Y-106349551D01*
X135626237Y-106367471D01*
X134846500Y-106367471D01*
X134846500Y-106246079D01*
X134846500Y-106246076D01*
X134817717Y-106101382D01*
X134817571Y-106100638D01*
X134817430Y-106099910D01*
X134815338Y-106095487D01*
X134761087Y-105964511D01*
X134761080Y-105964498D01*
X134678951Y-105841584D01*
X134678948Y-105841580D01*
X134678943Y-105841574D01*
X134574424Y-105737055D01*
X134574418Y-105737050D01*
X134574417Y-105737049D01*
X134451507Y-105654923D01*
X134451506Y-105654922D01*
X134451501Y-105654919D01*
X134451488Y-105654912D01*
X134451481Y-105654908D01*
X134314919Y-105598344D01*
X134314920Y-105598344D01*
X134314917Y-105598343D01*
X134314907Y-105598340D01*
X134314905Y-105598339D01*
X134314900Y-105598338D01*
X134169922Y-105569500D01*
X134169920Y-105569500D01*
X134169918Y-105569500D01*
X134022082Y-105569500D01*
X134022080Y-105569500D01*
X134022078Y-105569500D01*
X133877096Y-105598338D01*
X133877079Y-105598344D01*
X133740517Y-105654908D01*
X133740508Y-105654913D01*
X133740491Y-105654923D01*
X133617581Y-105737049D01*
X133617580Y-105737050D01*
X133617574Y-105737055D01*
X133513055Y-105841574D01*
X133513050Y-105841580D01*
X133513049Y-105841581D01*
X133430923Y-105964491D01*
X133430913Y-105964508D01*
X133430908Y-105964517D01*
X133374344Y-106101079D01*
X133374338Y-106101098D01*
X133345500Y-106246076D01*
X133345500Y-106349551D01*
X133340237Y-106367471D01*
X112182773Y-106367471D01*
X112162608Y-106347306D01*
X112162604Y-106347303D01*
X112162603Y-106347302D01*
X112162597Y-106347297D01*
X112051978Y-106273384D01*
X112051965Y-106273378D01*
X112051960Y-106273375D01*
X112051957Y-106273374D01*
X111929042Y-106222462D01*
X111929043Y-106222462D01*
X111929040Y-106222461D01*
X111929030Y-106222458D01*
X111929026Y-106222457D01*
X111929022Y-106222456D01*
X111798535Y-106196500D01*
X111798533Y-106196500D01*
X111798531Y-106196500D01*
X111515469Y-106196500D01*
X111515467Y-106196500D01*
X111515465Y-106196500D01*
X111384975Y-106222456D01*
X111384965Y-106222459D01*
X111384963Y-106222459D01*
X111384959Y-106222461D01*
X111262038Y-106273376D01*
X111262031Y-106273379D01*
X111262025Y-106273382D01*
X111151396Y-106347302D01*
X111151392Y-106347305D01*
X111151389Y-106347307D01*
X111151380Y-106347315D01*
X111082285Y-106416411D01*
X111054027Y-106437564D01*
X111040309Y-106445054D01*
X110972051Y-106459905D01*
X110970245Y-106459776D01*
X110912044Y-106440408D01*
X110905529Y-106436221D01*
X110884897Y-106419595D01*
X110812609Y-106347307D01*
X110812608Y-106347306D01*
X110812607Y-106347305D01*
X110812602Y-106347302D01*
X110806298Y-106343090D01*
X110701979Y-106273386D01*
X110701972Y-106273381D01*
X110701965Y-106273378D01*
X110701960Y-106273375D01*
X110701957Y-106273374D01*
X110579042Y-106222462D01*
X110579043Y-106222462D01*
X110579040Y-106222461D01*
X110579030Y-106222458D01*
X110579026Y-106222457D01*
X110579022Y-106222456D01*
X110448535Y-106196500D01*
X110448533Y-106196500D01*
X110448531Y-106196500D01*
X110165469Y-106196500D01*
X110165467Y-106196500D01*
X110165465Y-106196500D01*
X110034975Y-106222456D01*
X110034965Y-106222459D01*
X110034963Y-106222459D01*
X110034959Y-106222461D01*
X109912038Y-106273376D01*
X109912031Y-106273379D01*
X109912025Y-106273382D01*
X109801396Y-106347302D01*
X109801391Y-106347305D01*
X109801385Y-106347310D01*
X109707310Y-106441385D01*
X109707305Y-106441391D01*
X109707302Y-106441396D01*
X109633382Y-106552025D01*
X109633379Y-106552031D01*
X109633376Y-106552037D01*
X109633376Y-106552038D01*
X109582958Y-106673761D01*
X109582459Y-106674965D01*
X109582456Y-106674976D01*
X109556500Y-106805463D01*
X109556500Y-106894165D01*
X109551237Y-106912085D01*
X87756796Y-106912085D01*
X87511460Y-106856089D01*
X87511422Y-106856083D01*
X87204477Y-106821500D01*
X87204471Y-106821500D01*
X87204465Y-106821500D01*
X86895535Y-106821500D01*
X86895528Y-106821500D01*
X86895521Y-106821500D01*
X86588576Y-106856083D01*
X86588541Y-106856089D01*
X86343208Y-106912085D01*
X86287378Y-106924828D01*
X86287360Y-106924832D01*
X86287348Y-106924835D01*
X86287327Y-106924842D01*
X85995782Y-107026859D01*
X85995767Y-107026865D01*
X85995765Y-107026866D01*
X85717442Y-107160899D01*
X85455859Y-107325263D01*
X85214326Y-107517878D01*
X84995878Y-107736326D01*
X84803263Y-107977859D01*
X84638899Y-108239442D01*
X84504866Y-108517765D01*
X84504865Y-108517767D01*
X84504859Y-108517782D01*
X84402842Y-108809327D01*
X84402835Y-108809348D01*
X84402835Y-108809350D01*
X84402835Y-108809352D01*
X84402831Y-108809364D01*
X84382066Y-108900343D01*
X84334089Y-109110541D01*
X84334083Y-109110576D01*
X84299500Y-109417521D01*
X78724000Y-109417521D01*
X78724000Y-108596680D01*
X81029499Y-108596680D01*
X81044028Y-108669717D01*
X81044032Y-108669735D01*
X81044033Y-108669739D01*
X81047480Y-108675826D01*
X81050816Y-108679891D01*
X81099399Y-108752601D01*
X81182256Y-108807964D01*
X81182258Y-108807965D01*
X81182259Y-108807965D01*
X81182260Y-108807966D01*
X81182264Y-108807967D01*
X81182279Y-108807970D01*
X81182288Y-108807972D01*
X81227021Y-108816869D01*
X81247681Y-108820979D01*
X81250415Y-108821703D01*
X81255323Y-108822500D01*
X83004676Y-108822500D01*
X83008796Y-108822500D01*
X83016648Y-108820117D01*
X83077740Y-108807966D01*
X83160601Y-108752601D01*
X83215966Y-108669740D01*
X83230500Y-108596674D01*
X83230500Y-106847326D01*
X83230500Y-106847323D01*
X83230500Y-106847139D01*
X83230064Y-106845134D01*
X83215972Y-106774289D01*
X83215967Y-106774266D01*
X83215967Y-106774264D01*
X83215966Y-106774260D01*
X83189711Y-106734966D01*
X83189711Y-106734965D01*
X83175174Y-106713209D01*
X83160601Y-106691399D01*
X83108559Y-106656626D01*
X83087891Y-106642816D01*
X83083826Y-106639480D01*
X83077739Y-106636033D01*
X83077735Y-106636032D01*
X83077709Y-106636026D01*
X83004680Y-106621500D01*
X83004677Y-106621500D01*
X83004674Y-106621500D01*
X81255326Y-106621500D01*
X81255323Y-106621500D01*
X81255319Y-106621500D01*
X81182285Y-106636027D01*
X81182262Y-106636032D01*
X81182258Y-106636033D01*
X81099399Y-106691399D01*
X81044033Y-106774258D01*
X81044032Y-106774266D01*
X81044028Y-106774281D01*
X81029500Y-106847318D01*
X81029500Y-106847321D01*
X81029500Y-108596678D01*
X81029500Y-108596680D01*
X81029499Y-108596680D01*
X78724000Y-108596680D01*
X78724000Y-102555383D01*
X81029500Y-102555383D01*
X81029500Y-102728614D01*
X81039789Y-102793574D01*
X81040661Y-102799082D01*
X81056598Y-102899701D01*
X81110127Y-103064445D01*
X81188768Y-103218788D01*
X81290586Y-103358928D01*
X81413072Y-103481414D01*
X81553212Y-103583232D01*
X81707555Y-103661873D01*
X81872299Y-103715402D01*
X82043389Y-103742500D01*
X82043390Y-103742500D01*
X82216610Y-103742500D01*
X82216611Y-103742500D01*
X82387701Y-103715402D01*
X82552445Y-103661873D01*
X82706788Y-103583232D01*
X82846928Y-103481414D01*
X82969414Y-103358928D01*
X82998081Y-103319471D01*
X96256237Y-103319471D01*
X96290338Y-103490899D01*
X96290339Y-103490904D01*
X96290344Y-103490919D01*
X96346908Y-103627481D01*
X96346913Y-103627490D01*
X96346923Y-103627507D01*
X96429049Y-103750417D01*
X96429050Y-103750418D01*
X96429055Y-103750424D01*
X96533574Y-103854943D01*
X96533580Y-103854948D01*
X96533584Y-103854951D01*
X96656498Y-103937080D01*
X96656511Y-103937087D01*
X96787487Y-103991338D01*
X96791910Y-103993430D01*
X96792638Y-103993571D01*
X96793382Y-103993717D01*
X96938077Y-104022500D01*
X96938079Y-104022500D01*
X96938082Y-104022500D01*
X97085920Y-104022500D01*
X97183462Y-104003096D01*
X97230913Y-103993658D01*
X97367495Y-103937084D01*
X97490416Y-103854951D01*
X97594951Y-103750416D01*
X97677084Y-103627495D01*
X97733658Y-103490913D01*
X97743096Y-103443462D01*
X97762500Y-103345920D01*
X97762500Y-103319471D01*
X98542237Y-103319471D01*
X98576338Y-103490899D01*
X98576339Y-103490904D01*
X98576344Y-103490919D01*
X98632908Y-103627481D01*
X98632913Y-103627490D01*
X98632923Y-103627507D01*
X98715049Y-103750417D01*
X98715050Y-103750418D01*
X98715055Y-103750424D01*
X98819574Y-103854943D01*
X98819580Y-103854948D01*
X98819584Y-103854951D01*
X98942498Y-103937080D01*
X98942511Y-103937087D01*
X99073487Y-103991338D01*
X99077910Y-103993430D01*
X99078638Y-103993571D01*
X99079382Y-103993717D01*
X99224077Y-104022500D01*
X99224079Y-104022500D01*
X99224082Y-104022500D01*
X99371920Y-104022500D01*
X99469462Y-104003096D01*
X99516913Y-103993658D01*
X99653495Y-103937084D01*
X99776416Y-103854951D01*
X99880951Y-103750416D01*
X99963084Y-103627495D01*
X100019658Y-103490913D01*
X100025035Y-103463876D01*
X100029096Y-103443465D01*
X100029096Y-103443462D01*
X100048500Y-103345920D01*
X100048500Y-103198079D01*
X100048500Y-103198076D01*
X100026280Y-103086372D01*
X100026276Y-103086357D01*
X100022121Y-103065471D01*
X154930237Y-103065471D01*
X154964338Y-103236899D01*
X154964344Y-103236919D01*
X155020908Y-103373481D01*
X155020913Y-103373490D01*
X155020923Y-103373507D01*
X155103049Y-103496417D01*
X155103050Y-103496418D01*
X155103055Y-103496424D01*
X155207574Y-103600943D01*
X155207580Y-103600948D01*
X155207584Y-103600951D01*
X155330498Y-103683080D01*
X155330511Y-103683087D01*
X155461487Y-103737338D01*
X155465910Y-103739430D01*
X155466638Y-103739571D01*
X155467382Y-103739717D01*
X155612077Y-103768500D01*
X155612079Y-103768500D01*
X155612082Y-103768500D01*
X155759920Y-103768500D01*
X155857462Y-103749096D01*
X155904913Y-103739658D01*
X156041495Y-103683084D01*
X156164416Y-103600951D01*
X156268951Y-103496416D01*
X156351084Y-103373495D01*
X156407658Y-103236913D01*
X156427792Y-103135695D01*
X156436500Y-103091920D01*
X156436500Y-102944079D01*
X156436500Y-102944078D01*
X156436500Y-102944076D01*
X156407419Y-102797884D01*
X156405332Y-102793472D01*
X156362079Y-102689048D01*
X156351092Y-102662524D01*
X156351089Y-102662517D01*
X156351087Y-102662511D01*
X156351080Y-102662498D01*
X156268951Y-102539584D01*
X156268948Y-102539580D01*
X156268943Y-102539574D01*
X156164424Y-102435055D01*
X156164418Y-102435050D01*
X156164417Y-102435049D01*
X156041507Y-102352923D01*
X156041506Y-102352922D01*
X156041501Y-102352919D01*
X156041488Y-102352912D01*
X156041481Y-102352908D01*
X155904919Y-102296344D01*
X155904920Y-102296344D01*
X155904917Y-102296343D01*
X155904907Y-102296340D01*
X155904905Y-102296339D01*
X155904900Y-102296338D01*
X155759922Y-102267500D01*
X155759920Y-102267500D01*
X155759918Y-102267500D01*
X155612082Y-102267500D01*
X155612080Y-102267500D01*
X155612078Y-102267500D01*
X155467096Y-102296338D01*
X155467079Y-102296344D01*
X155330517Y-102352908D01*
X155330508Y-102352913D01*
X155330491Y-102352923D01*
X155207581Y-102435049D01*
X155207580Y-102435050D01*
X155207574Y-102435055D01*
X155103055Y-102539574D01*
X155103050Y-102539580D01*
X155103049Y-102539581D01*
X155020923Y-102662491D01*
X155020913Y-102662508D01*
X155020908Y-102662517D01*
X154964344Y-102799079D01*
X154964338Y-102799098D01*
X154935500Y-102944076D01*
X154935500Y-103047551D01*
X154930237Y-103065471D01*
X100022121Y-103065471D01*
X100019659Y-103053092D01*
X100019658Y-103053091D01*
X100019658Y-103053087D01*
X99974506Y-102944079D01*
X99963087Y-102916511D01*
X99963080Y-102916498D01*
X99880951Y-102793584D01*
X99880948Y-102793580D01*
X99880943Y-102793574D01*
X99776424Y-102689055D01*
X99776418Y-102689050D01*
X99776415Y-102689048D01*
X99653507Y-102606923D01*
X99653506Y-102606922D01*
X99653501Y-102606919D01*
X99653488Y-102606912D01*
X99653481Y-102606908D01*
X99516919Y-102550344D01*
X99516920Y-102550344D01*
X99516917Y-102550343D01*
X99516907Y-102550340D01*
X99516905Y-102550339D01*
X99516900Y-102550338D01*
X99371922Y-102521500D01*
X99371920Y-102521500D01*
X99371918Y-102521500D01*
X99224082Y-102521500D01*
X99224080Y-102521500D01*
X99224078Y-102521500D01*
X99079096Y-102550338D01*
X99079079Y-102550344D01*
X98942517Y-102606908D01*
X98942508Y-102606913D01*
X98942491Y-102606923D01*
X98819584Y-102689048D01*
X98819580Y-102689050D01*
X98819574Y-102689055D01*
X98715055Y-102793574D01*
X98715050Y-102793580D01*
X98715049Y-102793581D01*
X98632923Y-102916491D01*
X98632913Y-102916508D01*
X98632908Y-102916517D01*
X98576344Y-103053079D01*
X98576338Y-103053098D01*
X98547500Y-103198076D01*
X98547500Y-103301551D01*
X98542237Y-103319471D01*
X97762500Y-103319471D01*
X97762500Y-103198079D01*
X97762500Y-103198076D01*
X97733419Y-103051884D01*
X97731332Y-103047472D01*
X97688506Y-102944079D01*
X97677087Y-102916511D01*
X97677080Y-102916498D01*
X97594951Y-102793584D01*
X97594948Y-102793580D01*
X97594943Y-102793574D01*
X97490424Y-102689055D01*
X97490418Y-102689050D01*
X97490415Y-102689048D01*
X97367507Y-102606923D01*
X97367506Y-102606922D01*
X97367501Y-102606919D01*
X97367488Y-102606912D01*
X97367481Y-102606908D01*
X97230919Y-102550344D01*
X97230920Y-102550344D01*
X97230917Y-102550343D01*
X97230907Y-102550340D01*
X97230905Y-102550339D01*
X97230900Y-102550338D01*
X97085922Y-102521500D01*
X97085920Y-102521500D01*
X97085918Y-102521500D01*
X96938082Y-102521500D01*
X96938080Y-102521500D01*
X96938078Y-102521500D01*
X96793096Y-102550338D01*
X96793079Y-102550344D01*
X96656517Y-102606908D01*
X96656508Y-102606913D01*
X96656491Y-102606923D01*
X96533584Y-102689048D01*
X96533580Y-102689050D01*
X96533574Y-102689055D01*
X96429055Y-102793574D01*
X96429050Y-102793580D01*
X96429049Y-102793581D01*
X96346923Y-102916491D01*
X96346913Y-102916508D01*
X96346908Y-102916517D01*
X96290344Y-103053079D01*
X96290338Y-103053098D01*
X96261500Y-103198076D01*
X96261500Y-103301551D01*
X96256237Y-103319471D01*
X82998081Y-103319471D01*
X83071232Y-103218788D01*
X83149873Y-103064445D01*
X83203402Y-102899701D01*
X83230500Y-102728611D01*
X83230500Y-102555389D01*
X83203402Y-102384299D01*
X83149873Y-102219555D01*
X83071232Y-102065212D01*
X82969414Y-101925072D01*
X82846928Y-101802586D01*
X82706788Y-101700768D01*
X82552449Y-101622128D01*
X82396532Y-101571467D01*
X82392010Y-101569614D01*
X82382820Y-101567444D01*
X82378057Y-101567070D01*
X82367513Y-101565400D01*
X82256271Y-101547781D01*
X82240407Y-101545268D01*
X82216614Y-101541500D01*
X82216611Y-101541500D01*
X82043389Y-101541500D01*
X82043388Y-101541500D01*
X82003726Y-101547781D01*
X82003725Y-101547780D01*
X81872304Y-101568596D01*
X81707549Y-101622129D01*
X81553210Y-101700768D01*
X81473256Y-101758859D01*
X81473255Y-101758859D01*
X81424941Y-101793961D01*
X81417564Y-101798092D01*
X81286092Y-101929564D01*
X81281961Y-101936941D01*
X81246859Y-101985255D01*
X81246859Y-101985256D01*
X81188768Y-102065210D01*
X81110129Y-102219549D01*
X81056596Y-102384305D01*
X81029500Y-102555383D01*
X78724000Y-102555383D01*
X78724000Y-100015383D01*
X81029500Y-100015383D01*
X81029500Y-100015389D01*
X81029500Y-100188611D01*
X81056598Y-100359701D01*
X81110127Y-100524445D01*
X81188768Y-100678788D01*
X81290586Y-100818928D01*
X81413072Y-100941414D01*
X81553212Y-101043232D01*
X81707555Y-101121873D01*
X81872299Y-101175402D01*
X82043389Y-101202500D01*
X82043390Y-101202500D01*
X82216610Y-101202500D01*
X82216611Y-101202500D01*
X82387701Y-101175402D01*
X82552445Y-101121873D01*
X82706788Y-101043232D01*
X82846928Y-100941414D01*
X82969414Y-100818928D01*
X83071232Y-100678788D01*
X83149873Y-100524445D01*
X83203402Y-100359701D01*
X83230500Y-100188611D01*
X83230500Y-100015389D01*
X83203402Y-99844299D01*
X83149873Y-99679555D01*
X83071232Y-99525212D01*
X82969414Y-99385072D01*
X82846928Y-99262586D01*
X82706788Y-99160768D01*
X82552449Y-99082128D01*
X82396532Y-99031467D01*
X82392010Y-99029614D01*
X82382820Y-99027444D01*
X82378057Y-99027070D01*
X82367513Y-99025400D01*
X82256271Y-99007781D01*
X82240407Y-99005268D01*
X82216614Y-99001500D01*
X82216611Y-99001500D01*
X82043389Y-99001500D01*
X82043388Y-99001500D01*
X82003726Y-99007781D01*
X82003725Y-99007780D01*
X81872304Y-99028596D01*
X81707549Y-99082129D01*
X81553210Y-99160768D01*
X81473256Y-99218859D01*
X81473255Y-99218859D01*
X81424941Y-99253961D01*
X81417564Y-99258092D01*
X81286092Y-99389564D01*
X81281961Y-99396941D01*
X81246859Y-99445255D01*
X81246859Y-99445256D01*
X81188768Y-99525210D01*
X81110129Y-99679549D01*
X81056596Y-99844305D01*
X81029500Y-100015383D01*
X78724000Y-100015383D01*
X78724000Y-97475389D01*
X81029500Y-97475389D01*
X81029500Y-97648611D01*
X81029549Y-97648919D01*
X81051179Y-97785490D01*
X81056598Y-97819701D01*
X81110127Y-97984445D01*
X81188768Y-98138788D01*
X81290586Y-98278928D01*
X81413072Y-98401414D01*
X81553212Y-98503232D01*
X81707555Y-98581873D01*
X81872299Y-98635402D01*
X82043389Y-98662500D01*
X82043390Y-98662500D01*
X82216610Y-98662500D01*
X82216611Y-98662500D01*
X82387701Y-98635402D01*
X82552445Y-98581873D01*
X82706788Y-98503232D01*
X82846928Y-98401414D01*
X82969414Y-98278928D01*
X82998081Y-98239471D01*
X111750237Y-98239471D01*
X111784338Y-98410899D01*
X111784344Y-98410919D01*
X111840908Y-98547481D01*
X111840913Y-98547490D01*
X111840923Y-98547507D01*
X111923049Y-98670417D01*
X111923050Y-98670418D01*
X111923055Y-98670424D01*
X112027574Y-98774943D01*
X112027580Y-98774948D01*
X112027584Y-98774951D01*
X112150498Y-98857080D01*
X112150511Y-98857087D01*
X112281487Y-98911338D01*
X112285910Y-98913430D01*
X112286638Y-98913571D01*
X112287382Y-98913717D01*
X112432077Y-98942500D01*
X112432079Y-98942500D01*
X112432082Y-98942500D01*
X112579920Y-98942500D01*
X112677462Y-98923096D01*
X112724913Y-98913658D01*
X112861495Y-98857084D01*
X112984416Y-98774951D01*
X113088951Y-98670416D01*
X113171084Y-98547495D01*
X113227658Y-98410913D01*
X113256500Y-98265918D01*
X113256500Y-98118082D01*
X113256500Y-98118079D01*
X113256500Y-98118076D01*
X113227419Y-97971885D01*
X113225332Y-97967472D01*
X113200872Y-97908420D01*
X113200872Y-97908419D01*
X113171087Y-97836511D01*
X113171080Y-97836498D01*
X113088951Y-97713584D01*
X113088948Y-97713580D01*
X113088943Y-97713574D01*
X112984424Y-97609055D01*
X112984418Y-97609050D01*
X112984417Y-97609049D01*
X112931503Y-97573693D01*
X112931501Y-97573691D01*
X112861517Y-97526929D01*
X112861507Y-97526923D01*
X112861501Y-97526919D01*
X112861488Y-97526912D01*
X112861481Y-97526908D01*
X112742126Y-97477471D01*
X148834237Y-97477471D01*
X148868338Y-97648899D01*
X148868344Y-97648919D01*
X148924908Y-97785481D01*
X148924913Y-97785490D01*
X148924923Y-97785507D01*
X149007049Y-97908417D01*
X149007050Y-97908418D01*
X149007055Y-97908424D01*
X149111574Y-98012943D01*
X149111580Y-98012948D01*
X149111584Y-98012951D01*
X149234498Y-98095080D01*
X149234511Y-98095087D01*
X149340016Y-98138788D01*
X149365476Y-98149333D01*
X149369885Y-98151419D01*
X149516076Y-98180500D01*
X149516079Y-98180500D01*
X149516082Y-98180500D01*
X149663920Y-98180500D01*
X149761462Y-98161096D01*
X149808913Y-98151658D01*
X149945495Y-98095084D01*
X150068416Y-98012951D01*
X150172951Y-97908416D01*
X150255084Y-97785495D01*
X150311658Y-97648913D01*
X150335925Y-97526919D01*
X150340500Y-97503920D01*
X150340500Y-97356079D01*
X150340500Y-97356076D01*
X150311419Y-97209887D01*
X150309340Y-97205492D01*
X150282029Y-97139555D01*
X150255087Y-97074511D01*
X150255080Y-97074498D01*
X150172951Y-96951584D01*
X150172948Y-96951580D01*
X150172943Y-96951574D01*
X150068424Y-96847055D01*
X150068418Y-96847050D01*
X150068417Y-96847049D01*
X149945507Y-96764923D01*
X149945506Y-96764922D01*
X149945501Y-96764919D01*
X149945488Y-96764912D01*
X149945481Y-96764908D01*
X149808919Y-96708344D01*
X149808920Y-96708344D01*
X149808917Y-96708343D01*
X149808907Y-96708340D01*
X149808905Y-96708339D01*
X149808900Y-96708338D01*
X149663922Y-96679500D01*
X149663920Y-96679500D01*
X149663918Y-96679500D01*
X149516082Y-96679500D01*
X149516080Y-96679500D01*
X149516078Y-96679500D01*
X149371096Y-96708338D01*
X149371079Y-96708344D01*
X149234517Y-96764908D01*
X149234508Y-96764913D01*
X149234491Y-96764923D01*
X149111581Y-96847049D01*
X149111580Y-96847050D01*
X149111574Y-96847055D01*
X149007055Y-96951574D01*
X149007050Y-96951580D01*
X149007049Y-96951581D01*
X148924923Y-97074491D01*
X148924913Y-97074508D01*
X148924908Y-97074517D01*
X148868344Y-97211079D01*
X148868338Y-97211098D01*
X148839500Y-97356076D01*
X148839500Y-97459551D01*
X148834237Y-97477471D01*
X112742126Y-97477471D01*
X112724919Y-97470344D01*
X112724920Y-97470344D01*
X112724917Y-97470343D01*
X112724907Y-97470340D01*
X112724905Y-97470339D01*
X112724900Y-97470338D01*
X112579922Y-97441500D01*
X112579920Y-97441500D01*
X112579918Y-97441500D01*
X112432082Y-97441500D01*
X112432080Y-97441500D01*
X112432078Y-97441500D01*
X112287096Y-97470338D01*
X112287079Y-97470344D01*
X112150517Y-97526908D01*
X112150508Y-97526913D01*
X112150503Y-97526916D01*
X112150498Y-97526919D01*
X112101398Y-97559726D01*
X112027581Y-97609049D01*
X112027580Y-97609050D01*
X112027574Y-97609055D01*
X111923055Y-97713574D01*
X111923050Y-97713580D01*
X111923049Y-97713581D01*
X111840923Y-97836491D01*
X111840913Y-97836508D01*
X111840908Y-97836517D01*
X111784344Y-97973079D01*
X111784338Y-97973098D01*
X111755500Y-98118076D01*
X111755500Y-98221551D01*
X111750237Y-98239471D01*
X82998081Y-98239471D01*
X83071232Y-98138788D01*
X83149873Y-97984445D01*
X83203402Y-97819701D01*
X83230500Y-97648611D01*
X83230500Y-97475389D01*
X83203402Y-97304299D01*
X83149873Y-97139555D01*
X83071232Y-96985212D01*
X82969414Y-96845072D01*
X82846928Y-96722586D01*
X82776858Y-96671677D01*
X82706786Y-96620766D01*
X82603938Y-96568363D01*
X82603932Y-96568360D01*
X82552445Y-96542127D01*
X82394164Y-96490698D01*
X82391798Y-96489822D01*
X82391291Y-96489444D01*
X82382820Y-96487444D01*
X82378057Y-96487070D01*
X82367513Y-96485400D01*
X82256271Y-96467781D01*
X82240407Y-96465268D01*
X82216614Y-96461500D01*
X82216611Y-96461500D01*
X82043389Y-96461500D01*
X82043388Y-96461500D01*
X82003726Y-96467781D01*
X82003725Y-96467780D01*
X81872304Y-96488596D01*
X81707549Y-96542129D01*
X81553211Y-96620767D01*
X81536490Y-96632917D01*
X81424943Y-96713961D01*
X81417562Y-96718094D01*
X81286093Y-96849563D01*
X81281962Y-96856940D01*
X81256187Y-96892417D01*
X81256186Y-96892419D01*
X81188768Y-96985210D01*
X81110129Y-97139549D01*
X81056596Y-97304305D01*
X81056595Y-97304306D01*
X81048465Y-97355639D01*
X81048434Y-97355839D01*
X81048396Y-97356082D01*
X81029500Y-97475389D01*
X78724000Y-97475389D01*
X78724000Y-96461471D01*
X109464237Y-96461471D01*
X109498338Y-96632899D01*
X109498343Y-96632917D01*
X109554908Y-96769481D01*
X109554913Y-96769490D01*
X109554923Y-96769507D01*
X109637049Y-96892417D01*
X109637055Y-96892424D01*
X109741574Y-96996943D01*
X109741580Y-96996948D01*
X109741584Y-96996951D01*
X109864498Y-97079080D01*
X109864511Y-97079087D01*
X109995487Y-97133338D01*
X109999910Y-97135430D01*
X110000638Y-97135571D01*
X110001382Y-97135717D01*
X110146077Y-97164500D01*
X110146079Y-97164500D01*
X110146082Y-97164500D01*
X110293920Y-97164500D01*
X110391462Y-97145096D01*
X110438913Y-97135658D01*
X110575495Y-97079084D01*
X110698416Y-96996951D01*
X110802951Y-96892416D01*
X110885084Y-96769495D01*
X110886980Y-96764919D01*
X110941656Y-96632917D01*
X110941658Y-96632913D01*
X110970500Y-96487918D01*
X110970500Y-96461471D01*
X134864237Y-96461471D01*
X134898338Y-96632899D01*
X134898343Y-96632917D01*
X134954908Y-96769481D01*
X134954913Y-96769490D01*
X134954923Y-96769507D01*
X135037049Y-96892417D01*
X135037055Y-96892424D01*
X135141574Y-96996943D01*
X135141580Y-96996948D01*
X135141584Y-96996951D01*
X135264498Y-97079080D01*
X135264511Y-97079087D01*
X135395487Y-97133338D01*
X135399910Y-97135430D01*
X135400638Y-97135571D01*
X135401382Y-97135717D01*
X135546077Y-97164500D01*
X135546079Y-97164500D01*
X135546082Y-97164500D01*
X135693920Y-97164500D01*
X135791462Y-97145096D01*
X135838913Y-97135658D01*
X135975495Y-97079084D01*
X136098416Y-96996951D01*
X136202951Y-96892416D01*
X136285084Y-96769495D01*
X136286980Y-96764919D01*
X136339980Y-96636960D01*
X136341145Y-96634409D01*
X136341656Y-96632917D01*
X136341658Y-96632913D01*
X136360929Y-96536033D01*
X136370500Y-96487920D01*
X136370500Y-96340076D01*
X136341419Y-96193885D01*
X136339332Y-96189472D01*
X136305572Y-96107967D01*
X136285087Y-96058511D01*
X136285080Y-96058498D01*
X136202951Y-95935584D01*
X136202948Y-95935580D01*
X136202943Y-95935574D01*
X136164049Y-95896680D01*
X154209499Y-95896680D01*
X154224028Y-95969717D01*
X154224032Y-95969735D01*
X154224033Y-95969739D01*
X154227480Y-95975826D01*
X154230816Y-95979891D01*
X154279399Y-96052601D01*
X154362256Y-96107964D01*
X154362258Y-96107965D01*
X154362259Y-96107965D01*
X154362260Y-96107966D01*
X154362264Y-96107967D01*
X154362279Y-96107970D01*
X154362288Y-96107972D01*
X154407021Y-96116869D01*
X154427681Y-96120979D01*
X154430415Y-96121703D01*
X154435323Y-96122500D01*
X156184676Y-96122500D01*
X156188796Y-96122500D01*
X156196648Y-96120117D01*
X156257740Y-96107966D01*
X156340601Y-96052601D01*
X156395966Y-95969740D01*
X156410500Y-95896674D01*
X156410500Y-94147326D01*
X156410500Y-94147323D01*
X156410500Y-94147139D01*
X156410064Y-94145134D01*
X156395972Y-94074289D01*
X156395967Y-94074266D01*
X156395967Y-94074264D01*
X156395966Y-94074260D01*
X156395965Y-94074258D01*
X156395964Y-94074256D01*
X156340601Y-93991399D01*
X156267891Y-93942816D01*
X156263826Y-93939480D01*
X156257739Y-93936033D01*
X156257735Y-93936032D01*
X156257709Y-93936026D01*
X156184680Y-93921500D01*
X156184677Y-93921500D01*
X156184674Y-93921500D01*
X154435326Y-93921500D01*
X154435323Y-93921500D01*
X154435319Y-93921500D01*
X154362285Y-93936027D01*
X154362262Y-93936032D01*
X154362258Y-93936033D01*
X154279399Y-93991399D01*
X154224033Y-94074258D01*
X154224032Y-94074266D01*
X154224028Y-94074281D01*
X154209500Y-94147318D01*
X154209500Y-94147321D01*
X154209500Y-95896678D01*
X154209500Y-95896680D01*
X154209499Y-95896680D01*
X136164049Y-95896680D01*
X136098424Y-95831055D01*
X136098418Y-95831050D01*
X136098417Y-95831049D01*
X135975507Y-95748923D01*
X135975506Y-95748922D01*
X135975501Y-95748919D01*
X135975488Y-95748912D01*
X135975481Y-95748908D01*
X135838919Y-95692344D01*
X135838920Y-95692344D01*
X135838917Y-95692343D01*
X135838907Y-95692340D01*
X135838905Y-95692339D01*
X135838900Y-95692338D01*
X135693922Y-95663500D01*
X135693920Y-95663500D01*
X135693918Y-95663500D01*
X135546082Y-95663500D01*
X135546080Y-95663500D01*
X135546078Y-95663500D01*
X135401096Y-95692338D01*
X135401079Y-95692344D01*
X135264517Y-95748908D01*
X135264508Y-95748913D01*
X135264491Y-95748923D01*
X135141581Y-95831049D01*
X135141580Y-95831050D01*
X135141574Y-95831055D01*
X135037055Y-95935574D01*
X135037050Y-95935580D01*
X135037049Y-95935581D01*
X134954923Y-96058491D01*
X134954913Y-96058508D01*
X134954908Y-96058517D01*
X134898344Y-96195079D01*
X134898338Y-96195098D01*
X134869500Y-96340076D01*
X134869500Y-96443551D01*
X134864237Y-96461471D01*
X110970500Y-96461471D01*
X110970500Y-96340082D01*
X110970500Y-96340079D01*
X110970500Y-96340076D01*
X110941419Y-96193885D01*
X110939332Y-96189472D01*
X110905572Y-96107967D01*
X110885087Y-96058511D01*
X110885080Y-96058498D01*
X110802951Y-95935584D01*
X110802948Y-95935580D01*
X110802943Y-95935574D01*
X110698424Y-95831055D01*
X110698418Y-95831050D01*
X110698417Y-95831049D01*
X110575507Y-95748923D01*
X110575506Y-95748922D01*
X110575501Y-95748919D01*
X110575488Y-95748912D01*
X110575481Y-95748908D01*
X110438919Y-95692344D01*
X110438920Y-95692344D01*
X110438917Y-95692343D01*
X110438907Y-95692340D01*
X110438905Y-95692339D01*
X110438900Y-95692338D01*
X110293922Y-95663500D01*
X110293920Y-95663500D01*
X110293918Y-95663500D01*
X110146082Y-95663500D01*
X110146080Y-95663500D01*
X110146078Y-95663500D01*
X110001096Y-95692338D01*
X110001079Y-95692344D01*
X109864517Y-95748908D01*
X109864508Y-95748913D01*
X109864491Y-95748923D01*
X109741581Y-95831049D01*
X109741580Y-95831050D01*
X109741574Y-95831055D01*
X109637055Y-95935574D01*
X109637050Y-95935580D01*
X109637049Y-95935581D01*
X109554923Y-96058491D01*
X109554913Y-96058508D01*
X109554908Y-96058517D01*
X109498344Y-96195079D01*
X109498338Y-96195098D01*
X109469500Y-96340076D01*
X109469500Y-96443551D01*
X109464237Y-96461471D01*
X78724000Y-96461471D01*
X78724000Y-94935383D01*
X81029500Y-94935383D01*
X81029500Y-94935389D01*
X81029500Y-95108611D01*
X81056598Y-95279701D01*
X81110127Y-95444445D01*
X81188768Y-95598788D01*
X81290586Y-95738928D01*
X81413072Y-95861414D01*
X81553212Y-95963232D01*
X81707555Y-96041873D01*
X81872299Y-96095402D01*
X82043389Y-96122500D01*
X82043390Y-96122500D01*
X82216610Y-96122500D01*
X82216611Y-96122500D01*
X82387701Y-96095402D01*
X82552445Y-96041873D01*
X82706788Y-95963232D01*
X82846928Y-95861414D01*
X82969414Y-95738928D01*
X83071232Y-95598788D01*
X83149873Y-95444445D01*
X83203402Y-95279701D01*
X83230500Y-95108611D01*
X83230500Y-94935389D01*
X83203402Y-94764299D01*
X83149873Y-94599555D01*
X83071232Y-94445212D01*
X82969414Y-94305072D01*
X82846928Y-94182586D01*
X82706788Y-94080768D01*
X82694072Y-94074289D01*
X82552449Y-94002128D01*
X82396532Y-93951467D01*
X82392010Y-93949614D01*
X82382820Y-93947444D01*
X82378057Y-93947070D01*
X82351198Y-93942816D01*
X82256271Y-93927781D01*
X82240407Y-93925268D01*
X82216614Y-93921500D01*
X82216611Y-93921500D01*
X82043389Y-93921500D01*
X82043388Y-93921500D01*
X82003726Y-93927781D01*
X82003725Y-93927780D01*
X81872304Y-93948596D01*
X81707549Y-94002129D01*
X81553210Y-94080768D01*
X81473256Y-94138859D01*
X81473255Y-94138859D01*
X81424941Y-94173961D01*
X81417564Y-94178092D01*
X81286092Y-94309564D01*
X81281961Y-94316941D01*
X81246859Y-94365255D01*
X81246859Y-94365256D01*
X81188768Y-94445210D01*
X81110129Y-94599549D01*
X81056596Y-94764305D01*
X81029500Y-94935383D01*
X78724000Y-94935383D01*
X78724000Y-92395389D01*
X81029500Y-92395389D01*
X81029500Y-92568611D01*
X81056598Y-92739701D01*
X81110127Y-92904445D01*
X81188768Y-93058788D01*
X81290586Y-93198928D01*
X81413072Y-93321414D01*
X81553212Y-93423232D01*
X81707555Y-93501873D01*
X81872299Y-93555402D01*
X82043389Y-93582500D01*
X82043390Y-93582500D01*
X82216610Y-93582500D01*
X82216611Y-93582500D01*
X82387701Y-93555402D01*
X82552445Y-93501873D01*
X82706788Y-93423232D01*
X82846928Y-93321414D01*
X82969414Y-93198928D01*
X83071232Y-93058788D01*
X83108512Y-92985622D01*
X92319499Y-92985622D01*
X92356021Y-93169225D01*
X92356027Y-93169252D01*
X92427672Y-93342222D01*
X92427677Y-93342232D01*
X92531698Y-93497909D01*
X92531699Y-93497910D01*
X92531704Y-93497916D01*
X92664082Y-93630294D01*
X92664088Y-93630299D01*
X92664089Y-93630300D01*
X92819761Y-93734318D01*
X92819766Y-93734320D01*
X92819768Y-93734321D01*
X92819769Y-93734322D01*
X92992749Y-93805973D01*
X93164389Y-93840114D01*
X93173408Y-93841908D01*
X93175643Y-93842409D01*
X93176381Y-93842500D01*
X93363617Y-93842500D01*
X93367737Y-93842500D01*
X93375586Y-93840118D01*
X93547251Y-93805973D01*
X93720231Y-93734322D01*
X93875908Y-93630302D01*
X94008302Y-93497908D01*
X94112322Y-93342231D01*
X94183973Y-93169251D01*
X94220500Y-92985616D01*
X94220500Y-92798384D01*
X94183973Y-92614749D01*
X94112322Y-92441769D01*
X94112321Y-92441768D01*
X94112318Y-92441762D01*
X94112318Y-92441761D01*
X94008300Y-92286089D01*
X94008299Y-92286088D01*
X94008294Y-92286082D01*
X93875916Y-92153704D01*
X93875910Y-92153699D01*
X93875909Y-92153698D01*
X93720231Y-92049677D01*
X93720232Y-92049677D01*
X93720222Y-92049672D01*
X93547252Y-91978027D01*
X93547225Y-91978021D01*
X93363622Y-91941500D01*
X93363620Y-91941500D01*
X93363616Y-91941500D01*
X93176384Y-91941500D01*
X93176379Y-91941500D01*
X93176377Y-91941500D01*
X92992773Y-91978021D01*
X92992746Y-91978027D01*
X92819776Y-92049672D01*
X92819766Y-92049677D01*
X92664089Y-92153698D01*
X92664088Y-92153699D01*
X92664082Y-92153704D01*
X92531704Y-92286082D01*
X92531699Y-92286088D01*
X92531698Y-92286089D01*
X92427677Y-92441766D01*
X92427672Y-92441776D01*
X92356027Y-92614746D01*
X92356021Y-92614773D01*
X92319500Y-92798376D01*
X92319500Y-92798379D01*
X92319500Y-92985620D01*
X92319500Y-92985622D01*
X92319499Y-92985622D01*
X83108512Y-92985622D01*
X83149873Y-92904445D01*
X83203402Y-92739701D01*
X83230500Y-92568611D01*
X83230500Y-92395389D01*
X83203402Y-92224299D01*
X83149873Y-92059555D01*
X83071232Y-91905212D01*
X82969414Y-91765072D01*
X82885964Y-91681622D01*
X132129499Y-91681622D01*
X132166021Y-91865225D01*
X132166027Y-91865252D01*
X132237672Y-92038222D01*
X132237677Y-92038232D01*
X132341698Y-92193909D01*
X132341699Y-92193910D01*
X132341704Y-92193916D01*
X132474085Y-92326297D01*
X132474089Y-92326300D01*
X132629761Y-92430318D01*
X132629766Y-92430320D01*
X132629768Y-92430321D01*
X132629769Y-92430322D01*
X132802749Y-92501973D01*
X132974389Y-92536114D01*
X132983408Y-92537908D01*
X132985643Y-92538409D01*
X132986381Y-92538500D01*
X133173617Y-92538500D01*
X133177737Y-92538500D01*
X133185586Y-92536118D01*
X133357251Y-92501973D01*
X133530231Y-92430322D01*
X133582512Y-92395389D01*
X154209500Y-92395389D01*
X154209500Y-92568611D01*
X154236598Y-92739701D01*
X154290127Y-92904445D01*
X154368768Y-93058788D01*
X154470586Y-93198928D01*
X154593072Y-93321414D01*
X154733212Y-93423232D01*
X154887555Y-93501873D01*
X155052299Y-93555402D01*
X155223389Y-93582500D01*
X155223390Y-93582500D01*
X155396610Y-93582500D01*
X155396611Y-93582500D01*
X155567701Y-93555402D01*
X155732445Y-93501873D01*
X155886788Y-93423232D01*
X156026928Y-93321414D01*
X156149414Y-93198928D01*
X156251232Y-93058788D01*
X156329873Y-92904445D01*
X156383402Y-92739701D01*
X156410500Y-92568611D01*
X156410500Y-92395389D01*
X156383402Y-92224299D01*
X156329873Y-92059555D01*
X156251232Y-91905212D01*
X156149414Y-91765072D01*
X156026928Y-91642586D01*
X155886788Y-91540768D01*
X155838545Y-91516187D01*
X155838545Y-91516186D01*
X155749945Y-91471043D01*
X155744606Y-91467164D01*
X155720287Y-91457090D01*
X155713767Y-91456058D01*
X155663648Y-91439773D01*
X155576532Y-91411467D01*
X155572010Y-91409614D01*
X155562820Y-91407444D01*
X155558057Y-91407070D01*
X155430819Y-91386918D01*
X155430817Y-91386917D01*
X155417135Y-91384750D01*
X155396614Y-91381500D01*
X155396611Y-91381500D01*
X155223389Y-91381500D01*
X155223386Y-91381500D01*
X155202864Y-91384750D01*
X155189181Y-91386918D01*
X155189180Y-91386918D01*
X155052302Y-91408596D01*
X155052301Y-91408596D01*
X154887547Y-91462129D01*
X154733211Y-91540767D01*
X154696351Y-91567549D01*
X154604943Y-91633961D01*
X154597562Y-91638094D01*
X154466092Y-91769564D01*
X154461961Y-91776941D01*
X154426859Y-91825255D01*
X154426859Y-91825256D01*
X154368768Y-91905210D01*
X154290129Y-92059547D01*
X154236598Y-92224297D01*
X154236596Y-92224303D01*
X154226810Y-92286091D01*
X154226811Y-92286092D01*
X154209500Y-92395389D01*
X133582512Y-92395389D01*
X133685908Y-92326302D01*
X133685911Y-92326299D01*
X133709375Y-92302836D01*
X133818299Y-92193911D01*
X133818302Y-92193908D01*
X133922322Y-92038231D01*
X133993973Y-91865251D01*
X134030500Y-91681616D01*
X134030500Y-91494384D01*
X133993973Y-91310749D01*
X133922322Y-91137769D01*
X133922321Y-91137768D01*
X133922318Y-91137762D01*
X133922318Y-91137761D01*
X133818300Y-90982089D01*
X133818299Y-90982088D01*
X133818294Y-90982082D01*
X133685916Y-90849704D01*
X133685910Y-90849699D01*
X133685909Y-90849698D01*
X133530231Y-90745677D01*
X133530232Y-90745677D01*
X133530222Y-90745672D01*
X133357252Y-90674027D01*
X133357225Y-90674021D01*
X133173622Y-90637500D01*
X133173620Y-90637500D01*
X133173616Y-90637500D01*
X132986384Y-90637500D01*
X132986379Y-90637500D01*
X132986377Y-90637500D01*
X132802773Y-90674021D01*
X132802746Y-90674027D01*
X132629776Y-90745672D01*
X132629766Y-90745677D01*
X132474089Y-90849698D01*
X132474088Y-90849699D01*
X132474082Y-90849704D01*
X132341704Y-90982082D01*
X132341699Y-90982088D01*
X132341698Y-90982089D01*
X132237677Y-91137766D01*
X132237672Y-91137776D01*
X132166027Y-91310746D01*
X132166021Y-91310773D01*
X132129500Y-91494376D01*
X132129500Y-91494379D01*
X132129500Y-91681620D01*
X132129500Y-91681622D01*
X132129499Y-91681622D01*
X82885964Y-91681622D01*
X82846928Y-91642586D01*
X82706788Y-91540768D01*
X82658545Y-91516187D01*
X82658545Y-91516186D01*
X82569945Y-91471043D01*
X82564606Y-91467164D01*
X82540287Y-91457090D01*
X82533767Y-91456058D01*
X82483648Y-91439773D01*
X82396532Y-91411467D01*
X82392010Y-91409614D01*
X82382820Y-91407444D01*
X82378057Y-91407070D01*
X82250819Y-91386918D01*
X82250817Y-91386917D01*
X82237135Y-91384750D01*
X82216614Y-91381500D01*
X82216611Y-91381500D01*
X82043389Y-91381500D01*
X82043386Y-91381500D01*
X82022864Y-91384750D01*
X82009181Y-91386918D01*
X82009180Y-91386918D01*
X81872302Y-91408596D01*
X81872301Y-91408596D01*
X81707547Y-91462129D01*
X81553211Y-91540767D01*
X81516351Y-91567549D01*
X81424943Y-91633961D01*
X81417562Y-91638094D01*
X81286092Y-91769564D01*
X81281961Y-91776941D01*
X81246859Y-91825255D01*
X81246859Y-91825256D01*
X81188768Y-91905210D01*
X81110129Y-92059547D01*
X81056598Y-92224297D01*
X81056596Y-92224303D01*
X81046810Y-92286091D01*
X81046811Y-92286092D01*
X81029500Y-92395389D01*
X78724000Y-92395389D01*
X78724000Y-89855383D01*
X81029500Y-89855383D01*
X81029500Y-90028614D01*
X81053715Y-90181503D01*
X81056595Y-90199692D01*
X81056597Y-90199697D01*
X81056598Y-90199701D01*
X81110127Y-90364445D01*
X81188768Y-90518788D01*
X81290586Y-90658928D01*
X81413072Y-90781414D01*
X81553212Y-90883232D01*
X81707555Y-90961873D01*
X81872299Y-91015402D01*
X82043389Y-91042500D01*
X82043390Y-91042500D01*
X82216610Y-91042500D01*
X82216611Y-91042500D01*
X82387701Y-91015402D01*
X82552445Y-90961873D01*
X82706788Y-90883232D01*
X82846928Y-90781414D01*
X82969414Y-90658928D01*
X83071232Y-90518788D01*
X83149873Y-90364445D01*
X83203402Y-90199701D01*
X83230500Y-90028611D01*
X83230500Y-89855389D01*
X83203402Y-89684299D01*
X83149873Y-89519555D01*
X83071769Y-89366265D01*
X83071233Y-89365213D01*
X83052640Y-89339622D01*
X103214237Y-89339622D01*
X103244494Y-89491726D01*
X103244495Y-89491732D01*
X103244502Y-89491753D01*
X103293529Y-89610118D01*
X103293534Y-89610128D01*
X103364724Y-89716670D01*
X103364725Y-89716671D01*
X103364730Y-89716677D01*
X103455321Y-89807268D01*
X103455327Y-89807273D01*
X103455328Y-89807274D01*
X103561869Y-89878463D01*
X103561872Y-89878464D01*
X103561873Y-89878465D01*
X103674651Y-89925179D01*
X103679053Y-89927261D01*
X103680252Y-89927499D01*
X103680256Y-89927501D01*
X103680259Y-89927501D01*
X103680260Y-89927501D01*
X103680261Y-89927502D01*
X103777899Y-89946924D01*
X103805927Y-89952500D01*
X103934071Y-89952500D01*
X103934073Y-89952500D01*
X104018615Y-89935682D01*
X104059744Y-89927501D01*
X104178127Y-89878465D01*
X104284669Y-89807276D01*
X104375276Y-89716669D01*
X104446465Y-89610127D01*
X104495501Y-89491744D01*
X104503682Y-89450615D01*
X104520500Y-89366071D01*
X104520500Y-89339622D01*
X104992237Y-89339622D01*
X105022494Y-89491726D01*
X105022495Y-89491732D01*
X105022502Y-89491753D01*
X105071529Y-89610118D01*
X105071534Y-89610128D01*
X105142724Y-89716670D01*
X105142725Y-89716671D01*
X105142730Y-89716677D01*
X105233321Y-89807268D01*
X105233327Y-89807273D01*
X105233328Y-89807274D01*
X105339869Y-89878463D01*
X105339872Y-89878464D01*
X105339873Y-89878465D01*
X105452651Y-89925179D01*
X105457053Y-89927261D01*
X105458252Y-89927499D01*
X105458256Y-89927501D01*
X105458259Y-89927501D01*
X105458260Y-89927501D01*
X105458261Y-89927502D01*
X105555899Y-89946924D01*
X105583927Y-89952500D01*
X105712071Y-89952500D01*
X105712073Y-89952500D01*
X105796615Y-89935682D01*
X105837744Y-89927501D01*
X105956127Y-89878465D01*
X106062669Y-89807276D01*
X106153276Y-89716669D01*
X106224465Y-89610127D01*
X106231302Y-89593622D01*
X122010237Y-89593622D01*
X122040494Y-89745726D01*
X122040495Y-89745732D01*
X122040502Y-89745753D01*
X122089529Y-89864118D01*
X122089534Y-89864128D01*
X122160724Y-89970670D01*
X122160725Y-89970671D01*
X122160730Y-89970677D01*
X122251321Y-90061268D01*
X122251327Y-90061273D01*
X122251328Y-90061274D01*
X122357869Y-90132463D01*
X122357872Y-90132464D01*
X122357873Y-90132465D01*
X122470651Y-90179179D01*
X122475053Y-90181261D01*
X122476252Y-90181499D01*
X122476256Y-90181501D01*
X122476259Y-90181501D01*
X122476260Y-90181501D01*
X122476261Y-90181502D01*
X122567704Y-90199692D01*
X122601927Y-90206500D01*
X122730071Y-90206500D01*
X122730073Y-90206500D01*
X122814615Y-90189682D01*
X122855744Y-90181501D01*
X122974127Y-90132465D01*
X123080669Y-90061276D01*
X123171276Y-89970669D01*
X123216075Y-89903622D01*
X134327499Y-89903622D01*
X134364021Y-90087225D01*
X134364027Y-90087252D01*
X134435672Y-90260222D01*
X134435677Y-90260232D01*
X134539698Y-90415909D01*
X134539699Y-90415910D01*
X134539704Y-90415916D01*
X134672082Y-90548294D01*
X134672088Y-90548299D01*
X134672092Y-90548302D01*
X134827762Y-90652318D01*
X134827767Y-90652321D01*
X134827766Y-90652321D01*
X134827769Y-90652322D01*
X134827771Y-90652323D01*
X134843716Y-90658927D01*
X134843721Y-90658931D01*
X134843722Y-90658930D01*
X135000749Y-90723973D01*
X135172389Y-90758114D01*
X135181408Y-90759908D01*
X135183643Y-90760409D01*
X135184381Y-90760500D01*
X135371617Y-90760500D01*
X135375737Y-90760500D01*
X135383586Y-90758118D01*
X135555251Y-90723973D01*
X135728231Y-90652322D01*
X135883908Y-90548302D01*
X136016302Y-90415908D01*
X136120322Y-90260231D01*
X136191973Y-90087251D01*
X136228500Y-89903616D01*
X136228500Y-89855383D01*
X154209500Y-89855383D01*
X154209500Y-90028614D01*
X154233715Y-90181503D01*
X154236595Y-90199692D01*
X154236597Y-90199697D01*
X154236598Y-90199701D01*
X154290127Y-90364445D01*
X154368768Y-90518788D01*
X154470586Y-90658928D01*
X154593072Y-90781414D01*
X154733212Y-90883232D01*
X154887555Y-90961873D01*
X155052299Y-91015402D01*
X155223389Y-91042500D01*
X155223390Y-91042500D01*
X155396610Y-91042500D01*
X155396611Y-91042500D01*
X155567701Y-91015402D01*
X155732445Y-90961873D01*
X155886788Y-90883232D01*
X156026928Y-90781414D01*
X156149414Y-90658928D01*
X156251232Y-90518788D01*
X156329873Y-90364445D01*
X156383402Y-90199701D01*
X156410500Y-90028611D01*
X156410500Y-89855389D01*
X156383402Y-89684299D01*
X156329873Y-89519555D01*
X156251232Y-89365212D01*
X156149414Y-89225072D01*
X156026928Y-89102586D01*
X155886788Y-89000768D01*
X155886786Y-89000767D01*
X155732449Y-88922128D01*
X155576532Y-88871467D01*
X155572010Y-88869614D01*
X155562820Y-88867444D01*
X155558057Y-88867070D01*
X155547513Y-88865400D01*
X155436271Y-88847781D01*
X155420407Y-88845268D01*
X155396614Y-88841500D01*
X155396611Y-88841500D01*
X155223389Y-88841500D01*
X155223388Y-88841500D01*
X155183726Y-88847781D01*
X155183725Y-88847780D01*
X155052304Y-88868596D01*
X154887549Y-88922129D01*
X154733211Y-89000767D01*
X154716490Y-89012917D01*
X154604943Y-89093961D01*
X154597562Y-89098094D01*
X154466093Y-89229563D01*
X154461962Y-89236940D01*
X154436187Y-89272417D01*
X154436186Y-89272419D01*
X154368768Y-89365210D01*
X154290129Y-89519549D01*
X154236596Y-89684305D01*
X154209500Y-89855383D01*
X136228500Y-89855383D01*
X136228500Y-89716384D01*
X136191973Y-89532749D01*
X136123009Y-89366255D01*
X136122577Y-89365213D01*
X136120323Y-89359771D01*
X136120320Y-89359765D01*
X136016300Y-89204089D01*
X136016299Y-89204088D01*
X136016294Y-89204082D01*
X135883916Y-89071704D01*
X135883910Y-89071699D01*
X135883909Y-89071698D01*
X135728231Y-88967677D01*
X135728232Y-88967677D01*
X135728222Y-88967672D01*
X135555252Y-88896027D01*
X135555225Y-88896021D01*
X135371622Y-88859500D01*
X135371620Y-88859500D01*
X135371616Y-88859500D01*
X135184384Y-88859500D01*
X135184379Y-88859500D01*
X135184377Y-88859500D01*
X135000773Y-88896021D01*
X135000746Y-88896027D01*
X134827776Y-88967672D01*
X134827766Y-88967677D01*
X134672089Y-89071698D01*
X134672088Y-89071699D01*
X134672082Y-89071704D01*
X134539704Y-89204082D01*
X134539699Y-89204088D01*
X134539698Y-89204089D01*
X134435677Y-89359766D01*
X134435672Y-89359776D01*
X134364027Y-89532746D01*
X134364021Y-89532773D01*
X134327500Y-89716376D01*
X134327500Y-89716379D01*
X134327500Y-89903620D01*
X134327500Y-89903622D01*
X134327499Y-89903622D01*
X123216075Y-89903622D01*
X123242465Y-89864127D01*
X123291501Y-89745744D01*
X123295332Y-89726480D01*
X123299163Y-89707225D01*
X123299164Y-89707218D01*
X123303368Y-89686089D01*
X123303368Y-89686087D01*
X123303369Y-89686086D01*
X123304551Y-89680143D01*
X123304555Y-89680118D01*
X123316064Y-89622259D01*
X123316500Y-89620252D01*
X123316500Y-89491925D01*
X123291262Y-89365055D01*
X123289176Y-89360644D01*
X123288816Y-89359776D01*
X123242465Y-89247873D01*
X123242464Y-89247872D01*
X123242463Y-89247870D01*
X123242463Y-89247869D01*
X123171274Y-89141328D01*
X123171273Y-89141327D01*
X123171268Y-89141321D01*
X123080677Y-89050730D01*
X123080671Y-89050725D01*
X123080670Y-89050724D01*
X122974127Y-88979534D01*
X122974128Y-88979534D01*
X122974118Y-88979529D01*
X122855753Y-88930502D01*
X122855733Y-88930495D01*
X122855725Y-88930493D01*
X122730074Y-88905500D01*
X122730071Y-88905500D01*
X122730069Y-88905500D01*
X122601931Y-88905500D01*
X122601929Y-88905500D01*
X122601926Y-88905500D01*
X122476273Y-88930493D01*
X122476265Y-88930495D01*
X122476245Y-88930502D01*
X122357880Y-88979529D01*
X122357870Y-88979534D01*
X122251328Y-89050724D01*
X122251327Y-89050725D01*
X122251321Y-89050730D01*
X122160730Y-89141321D01*
X122160725Y-89141327D01*
X122160724Y-89141328D01*
X122089534Y-89247870D01*
X122089529Y-89247880D01*
X122040502Y-89366245D01*
X122040495Y-89366265D01*
X122040493Y-89366273D01*
X122015500Y-89491923D01*
X122015500Y-89575702D01*
X122010237Y-89593622D01*
X106231302Y-89593622D01*
X106273501Y-89491744D01*
X106279998Y-89459084D01*
X106298460Y-89366273D01*
X106298500Y-89366073D01*
X106298500Y-89237925D01*
X106273262Y-89111055D01*
X106271176Y-89106644D01*
X106269495Y-89102586D01*
X106224465Y-88993873D01*
X106224464Y-88993872D01*
X106224463Y-88993870D01*
X106224463Y-88993869D01*
X106153274Y-88887328D01*
X106153273Y-88887327D01*
X106153268Y-88887321D01*
X106062677Y-88796730D01*
X106062671Y-88796725D01*
X106062670Y-88796724D01*
X105956127Y-88725534D01*
X105956128Y-88725534D01*
X105956118Y-88725529D01*
X105837753Y-88676502D01*
X105837733Y-88676495D01*
X105837725Y-88676493D01*
X105712074Y-88651500D01*
X105712071Y-88651500D01*
X105712069Y-88651500D01*
X105583931Y-88651500D01*
X105583929Y-88651500D01*
X105583926Y-88651500D01*
X105458273Y-88676493D01*
X105458265Y-88676495D01*
X105458245Y-88676502D01*
X105339880Y-88725529D01*
X105339870Y-88725534D01*
X105233328Y-88796724D01*
X105233327Y-88796725D01*
X105233321Y-88796730D01*
X105142730Y-88887321D01*
X105142725Y-88887327D01*
X105142724Y-88887328D01*
X105071534Y-88993870D01*
X105071529Y-88993880D01*
X105022502Y-89112245D01*
X105022495Y-89112265D01*
X105022493Y-89112273D01*
X104997500Y-89237923D01*
X104997500Y-89321702D01*
X104992237Y-89339622D01*
X104520500Y-89339622D01*
X104520500Y-89237928D01*
X104520500Y-89237925D01*
X104495262Y-89111055D01*
X104493176Y-89106644D01*
X104491495Y-89102586D01*
X104446465Y-88993873D01*
X104446464Y-88993872D01*
X104446463Y-88993870D01*
X104446463Y-88993869D01*
X104375274Y-88887328D01*
X104375273Y-88887327D01*
X104375268Y-88887321D01*
X104284677Y-88796730D01*
X104284671Y-88796725D01*
X104284670Y-88796724D01*
X104178127Y-88725534D01*
X104178128Y-88725534D01*
X104178118Y-88725529D01*
X104059753Y-88676502D01*
X104059733Y-88676495D01*
X104059725Y-88676493D01*
X103934074Y-88651500D01*
X103934071Y-88651500D01*
X103934069Y-88651500D01*
X103805931Y-88651500D01*
X103805929Y-88651500D01*
X103805926Y-88651500D01*
X103680273Y-88676493D01*
X103680265Y-88676495D01*
X103680245Y-88676502D01*
X103561880Y-88725529D01*
X103561870Y-88725534D01*
X103455328Y-88796724D01*
X103455327Y-88796725D01*
X103455321Y-88796730D01*
X103364730Y-88887321D01*
X103364725Y-88887327D01*
X103364724Y-88887328D01*
X103293534Y-88993870D01*
X103293529Y-88993880D01*
X103244502Y-89112245D01*
X103244495Y-89112265D01*
X103244493Y-89112273D01*
X103219500Y-89237923D01*
X103219500Y-89321702D01*
X103214237Y-89339622D01*
X83052640Y-89339622D01*
X83039620Y-89321702D01*
X82969414Y-89225072D01*
X82846928Y-89102586D01*
X82706788Y-89000768D01*
X82706786Y-89000767D01*
X82552449Y-88922128D01*
X82396532Y-88871467D01*
X82392010Y-88869614D01*
X82382820Y-88867444D01*
X82378057Y-88867070D01*
X82367513Y-88865400D01*
X82256271Y-88847781D01*
X82240407Y-88845268D01*
X82216614Y-88841500D01*
X82216611Y-88841500D01*
X82043389Y-88841500D01*
X82043388Y-88841500D01*
X82003726Y-88847781D01*
X82003725Y-88847780D01*
X81872304Y-88868596D01*
X81707549Y-88922129D01*
X81553211Y-89000767D01*
X81536490Y-89012917D01*
X81424943Y-89093961D01*
X81417562Y-89098094D01*
X81286093Y-89229563D01*
X81281962Y-89236940D01*
X81256187Y-89272417D01*
X81256186Y-89272419D01*
X81188768Y-89365210D01*
X81110129Y-89519549D01*
X81056596Y-89684305D01*
X81029500Y-89855383D01*
X78724000Y-89855383D01*
X78724000Y-87315389D01*
X81029500Y-87315389D01*
X81029500Y-87488611D01*
X81036808Y-87534749D01*
X81046646Y-87596870D01*
X81056598Y-87659701D01*
X81110127Y-87824445D01*
X81188768Y-87978788D01*
X81290586Y-88118928D01*
X81413072Y-88241414D01*
X81553212Y-88343232D01*
X81707555Y-88421873D01*
X81872299Y-88475402D01*
X82043389Y-88502500D01*
X82043390Y-88502500D01*
X82216610Y-88502500D01*
X82216611Y-88502500D01*
X82387701Y-88475402D01*
X82552445Y-88421873D01*
X82706788Y-88343232D01*
X82846928Y-88241414D01*
X82969414Y-88118928D01*
X83071232Y-87978788D01*
X83108512Y-87905622D01*
X92319499Y-87905622D01*
X92356021Y-88089225D01*
X92356027Y-88089252D01*
X92427672Y-88262222D01*
X92427677Y-88262232D01*
X92531698Y-88417909D01*
X92531699Y-88417910D01*
X92531704Y-88417916D01*
X92664082Y-88550294D01*
X92664088Y-88550299D01*
X92664089Y-88550300D01*
X92819761Y-88654318D01*
X92819766Y-88654320D01*
X92819768Y-88654321D01*
X92819769Y-88654322D01*
X92992749Y-88725973D01*
X93164389Y-88760114D01*
X93173408Y-88761908D01*
X93175643Y-88762409D01*
X93176381Y-88762500D01*
X93363617Y-88762500D01*
X93367737Y-88762500D01*
X93375586Y-88760118D01*
X93547251Y-88725973D01*
X93720231Y-88654322D01*
X93875908Y-88550302D01*
X94008302Y-88417908D01*
X94112322Y-88262231D01*
X94183973Y-88089251D01*
X94213139Y-87942622D01*
X128106237Y-87942622D01*
X128136494Y-88094726D01*
X128136495Y-88094732D01*
X128136502Y-88094753D01*
X128185529Y-88213118D01*
X128185534Y-88213128D01*
X128256724Y-88319670D01*
X128256725Y-88319671D01*
X128256730Y-88319677D01*
X128347321Y-88410268D01*
X128347327Y-88410273D01*
X128347328Y-88410274D01*
X128453869Y-88481463D01*
X128453872Y-88481464D01*
X128453873Y-88481465D01*
X128566651Y-88528179D01*
X128571055Y-88530262D01*
X128697926Y-88555500D01*
X128826071Y-88555500D01*
X128826073Y-88555500D01*
X128910615Y-88538682D01*
X128951744Y-88530501D01*
X129070127Y-88481465D01*
X129176669Y-88410276D01*
X129267276Y-88319669D01*
X129338465Y-88213127D01*
X129387501Y-88094744D01*
X129412500Y-87969069D01*
X129412500Y-87840931D01*
X129412500Y-87840928D01*
X129412500Y-87840925D01*
X129387262Y-87714055D01*
X129385176Y-87709644D01*
X129370398Y-87673968D01*
X129338465Y-87596873D01*
X129338464Y-87596872D01*
X129338463Y-87596870D01*
X129338463Y-87596869D01*
X129267274Y-87490328D01*
X129267273Y-87490327D01*
X129267268Y-87490321D01*
X129176677Y-87399730D01*
X129176671Y-87399725D01*
X129176670Y-87399724D01*
X129070127Y-87328534D01*
X129070128Y-87328534D01*
X129070118Y-87328529D01*
X128951753Y-87279502D01*
X128951733Y-87279495D01*
X128951725Y-87279493D01*
X128826074Y-87254500D01*
X128826071Y-87254500D01*
X128826069Y-87254500D01*
X128697931Y-87254500D01*
X128697929Y-87254500D01*
X128697926Y-87254500D01*
X128572273Y-87279493D01*
X128572265Y-87279495D01*
X128572245Y-87279502D01*
X128453880Y-87328529D01*
X128453870Y-87328534D01*
X128347328Y-87399724D01*
X128347327Y-87399725D01*
X128347321Y-87399730D01*
X128256730Y-87490321D01*
X128256725Y-87490327D01*
X128256724Y-87490328D01*
X128185534Y-87596870D01*
X128185529Y-87596880D01*
X128136502Y-87715245D01*
X128136495Y-87715265D01*
X128136493Y-87715273D01*
X128111500Y-87840923D01*
X128111500Y-87924702D01*
X128106237Y-87942622D01*
X94213139Y-87942622D01*
X94216704Y-87924702D01*
X94219320Y-87911551D01*
X94220499Y-87905620D01*
X94220500Y-87905617D01*
X94220500Y-87718383D01*
X94220499Y-87718379D01*
X94219639Y-87714055D01*
X94183973Y-87534749D01*
X94112322Y-87361769D01*
X94112321Y-87361768D01*
X94112318Y-87361762D01*
X94112318Y-87361761D01*
X94008300Y-87206089D01*
X94008299Y-87206088D01*
X94008294Y-87206082D01*
X93875916Y-87073704D01*
X93875910Y-87073699D01*
X93875909Y-87073698D01*
X93720231Y-86969677D01*
X93720232Y-86969677D01*
X93720222Y-86969672D01*
X93593424Y-86917152D01*
X93547252Y-86898027D01*
X93547225Y-86898021D01*
X93363622Y-86861500D01*
X93363620Y-86861500D01*
X93363616Y-86861500D01*
X93176384Y-86861500D01*
X93176379Y-86861500D01*
X93176377Y-86861500D01*
X92992773Y-86898021D01*
X92992746Y-86898027D01*
X92819776Y-86969672D01*
X92819766Y-86969677D01*
X92664089Y-87073698D01*
X92664088Y-87073699D01*
X92664082Y-87073704D01*
X92531704Y-87206082D01*
X92531699Y-87206088D01*
X92531698Y-87206089D01*
X92427677Y-87361766D01*
X92427672Y-87361776D01*
X92356027Y-87534746D01*
X92356021Y-87534773D01*
X92319500Y-87718376D01*
X92319500Y-87718379D01*
X92319500Y-87905620D01*
X92319500Y-87905622D01*
X92319499Y-87905622D01*
X83108512Y-87905622D01*
X83149873Y-87824445D01*
X83203402Y-87659701D01*
X83230500Y-87488611D01*
X83230500Y-87315389D01*
X83203402Y-87144299D01*
X83149873Y-86979555D01*
X83071232Y-86825212D01*
X83059795Y-86809471D01*
X113528237Y-86809471D01*
X113562069Y-86979547D01*
X113562339Y-86980904D01*
X113562344Y-86980919D01*
X113618908Y-87117481D01*
X113618913Y-87117490D01*
X113618923Y-87117507D01*
X113701049Y-87240417D01*
X113701050Y-87240418D01*
X113701055Y-87240424D01*
X113805574Y-87344943D01*
X113805580Y-87344948D01*
X113805584Y-87344951D01*
X113928498Y-87427080D01*
X113928511Y-87427087D01*
X114059487Y-87481338D01*
X114063910Y-87483430D01*
X114064638Y-87483571D01*
X114065382Y-87483717D01*
X114210077Y-87512500D01*
X114357920Y-87512500D01*
X114357921Y-87512500D01*
X114417969Y-87500555D01*
X114478018Y-87488610D01*
X114502913Y-87483658D01*
X114639495Y-87427084D01*
X114762416Y-87344951D01*
X114791978Y-87315389D01*
X114866950Y-87240418D01*
X114866951Y-87240416D01*
X114949084Y-87117495D01*
X115005658Y-86980913D01*
X115011035Y-86953876D01*
X115015096Y-86933465D01*
X115015096Y-86933462D01*
X115034500Y-86835920D01*
X115034500Y-86688079D01*
X115034500Y-86688076D01*
X115005717Y-86543382D01*
X115005571Y-86542638D01*
X115005430Y-86541910D01*
X115003338Y-86537487D01*
X114949087Y-86406511D01*
X114949080Y-86406498D01*
X114866951Y-86283584D01*
X114866948Y-86283580D01*
X114866943Y-86283574D01*
X114762424Y-86179055D01*
X114762418Y-86179050D01*
X114762417Y-86179049D01*
X114639507Y-86096923D01*
X114639506Y-86096922D01*
X114639501Y-86096919D01*
X114639488Y-86096912D01*
X114639481Y-86096908D01*
X114502919Y-86040344D01*
X114502920Y-86040344D01*
X114502917Y-86040343D01*
X114502907Y-86040340D01*
X114502905Y-86040339D01*
X114502900Y-86040338D01*
X114357922Y-86011500D01*
X114357920Y-86011500D01*
X114357918Y-86011500D01*
X114210082Y-86011500D01*
X114210080Y-86011500D01*
X114210078Y-86011500D01*
X114065096Y-86040338D01*
X114065079Y-86040344D01*
X113928517Y-86096908D01*
X113928508Y-86096913D01*
X113928491Y-86096923D01*
X113805581Y-86179049D01*
X113805580Y-86179050D01*
X113805574Y-86179055D01*
X113701055Y-86283574D01*
X113701050Y-86283580D01*
X113701049Y-86283581D01*
X113618923Y-86406491D01*
X113618913Y-86406508D01*
X113618908Y-86406517D01*
X113562344Y-86543079D01*
X113562338Y-86543098D01*
X113533500Y-86688076D01*
X113533500Y-86791551D01*
X113528237Y-86809471D01*
X83059795Y-86809471D01*
X82969414Y-86685072D01*
X82846928Y-86562586D01*
X82706788Y-86460768D01*
X82552449Y-86382128D01*
X82396532Y-86331467D01*
X82392010Y-86329614D01*
X82382820Y-86327444D01*
X82378057Y-86327070D01*
X82367513Y-86325400D01*
X82256271Y-86307781D01*
X82240407Y-86305268D01*
X82216614Y-86301500D01*
X82216611Y-86301500D01*
X82043389Y-86301500D01*
X82043388Y-86301500D01*
X82003726Y-86307781D01*
X82003725Y-86307780D01*
X81872304Y-86328596D01*
X81707549Y-86382129D01*
X81553210Y-86460768D01*
X81473256Y-86518859D01*
X81473255Y-86518859D01*
X81424941Y-86553961D01*
X81417564Y-86558092D01*
X81286092Y-86689564D01*
X81281961Y-86696941D01*
X81246859Y-86745255D01*
X81246859Y-86745256D01*
X81188768Y-86825210D01*
X81110129Y-86979547D01*
X81056596Y-87144301D01*
X81041468Y-87239819D01*
X81041450Y-87239937D01*
X81041374Y-87240419D01*
X81029500Y-87315389D01*
X78724000Y-87315389D01*
X78724000Y-84775389D01*
X81029500Y-84775389D01*
X81029500Y-84948611D01*
X81056598Y-85119701D01*
X81110127Y-85284445D01*
X81188768Y-85438788D01*
X81290586Y-85578928D01*
X81413072Y-85701414D01*
X81553212Y-85803232D01*
X81707555Y-85881873D01*
X81872299Y-85935402D01*
X82043389Y-85962500D01*
X82043390Y-85962500D01*
X82216610Y-85962500D01*
X82216611Y-85962500D01*
X82387701Y-85935402D01*
X82552445Y-85881873D01*
X82706788Y-85803232D01*
X82846928Y-85701414D01*
X82969414Y-85578928D01*
X83071232Y-85438788D01*
X83149873Y-85284445D01*
X83203402Y-85119701D01*
X83230500Y-84948611D01*
X83230500Y-84775389D01*
X83203402Y-84604299D01*
X83149873Y-84439555D01*
X83071232Y-84285212D01*
X82969414Y-84145072D01*
X82956964Y-84132622D01*
X128233237Y-84132622D01*
X128263494Y-84284726D01*
X128263495Y-84284732D01*
X128263502Y-84284753D01*
X128312529Y-84403118D01*
X128312534Y-84403128D01*
X128383724Y-84509670D01*
X128383725Y-84509671D01*
X128383730Y-84509677D01*
X128474321Y-84600268D01*
X128474327Y-84600273D01*
X128474328Y-84600274D01*
X128580869Y-84671463D01*
X128580872Y-84671464D01*
X128580873Y-84671465D01*
X128693651Y-84718179D01*
X128698053Y-84720261D01*
X128699252Y-84720499D01*
X128699256Y-84720501D01*
X128699259Y-84720501D01*
X128699260Y-84720501D01*
X128699261Y-84720502D01*
X128796899Y-84739924D01*
X128824927Y-84745500D01*
X128953071Y-84745500D01*
X128953073Y-84745500D01*
X129037615Y-84728682D01*
X129078744Y-84720501D01*
X129197127Y-84671465D01*
X129303669Y-84600276D01*
X129394276Y-84509669D01*
X129465465Y-84403127D01*
X129514501Y-84284744D01*
X129531631Y-84198628D01*
X129539500Y-84159071D01*
X129539500Y-84061622D01*
X132129499Y-84061622D01*
X132166021Y-84245225D01*
X132166027Y-84245252D01*
X132237672Y-84418222D01*
X132237677Y-84418232D01*
X132341698Y-84573909D01*
X132341699Y-84573910D01*
X132341704Y-84573916D01*
X132474082Y-84706294D01*
X132474088Y-84706299D01*
X132474089Y-84706300D01*
X132629761Y-84810318D01*
X132629766Y-84810320D01*
X132629768Y-84810321D01*
X132629769Y-84810322D01*
X132802749Y-84881973D01*
X132974389Y-84916114D01*
X132983408Y-84917908D01*
X132985643Y-84918409D01*
X132986381Y-84918500D01*
X133173617Y-84918500D01*
X133177737Y-84918500D01*
X133185586Y-84916118D01*
X133357251Y-84881973D01*
X133530231Y-84810322D01*
X133685908Y-84706302D01*
X133818302Y-84573908D01*
X133922322Y-84418231D01*
X133993973Y-84245251D01*
X134030500Y-84061616D01*
X134030500Y-83874384D01*
X133993973Y-83690749D01*
X133922639Y-83518535D01*
X133922323Y-83517771D01*
X133922318Y-83517762D01*
X133818302Y-83362092D01*
X133818299Y-83362088D01*
X133818294Y-83362082D01*
X133685916Y-83229704D01*
X133685910Y-83229699D01*
X133685909Y-83229698D01*
X133530231Y-83125677D01*
X133530232Y-83125677D01*
X133530222Y-83125672D01*
X133357252Y-83054027D01*
X133357225Y-83054021D01*
X133173622Y-83017500D01*
X133173620Y-83017500D01*
X133173616Y-83017500D01*
X132986384Y-83017500D01*
X132986379Y-83017500D01*
X132986377Y-83017500D01*
X132802773Y-83054021D01*
X132802746Y-83054027D01*
X132629776Y-83125672D01*
X132629766Y-83125677D01*
X132474089Y-83229698D01*
X132474088Y-83229699D01*
X132474082Y-83229704D01*
X132341704Y-83362082D01*
X132341699Y-83362088D01*
X132341698Y-83362089D01*
X132237677Y-83517766D01*
X132237672Y-83517776D01*
X132166027Y-83690746D01*
X132166021Y-83690773D01*
X132129500Y-83874376D01*
X132129500Y-83874379D01*
X132129500Y-84061620D01*
X132129500Y-84061622D01*
X132129499Y-84061622D01*
X129539500Y-84061622D01*
X129539500Y-84030926D01*
X129520210Y-83933960D01*
X129520001Y-83932907D01*
X129514501Y-83905256D01*
X129465465Y-83786873D01*
X129465464Y-83786872D01*
X129465463Y-83786870D01*
X129465463Y-83786869D01*
X129394274Y-83680328D01*
X129394273Y-83680327D01*
X129394268Y-83680321D01*
X129303677Y-83589730D01*
X129303671Y-83589725D01*
X129303670Y-83589724D01*
X129197127Y-83518534D01*
X129197128Y-83518534D01*
X129197118Y-83518529D01*
X129078753Y-83469502D01*
X129078733Y-83469495D01*
X129078725Y-83469493D01*
X128953074Y-83444500D01*
X128953071Y-83444500D01*
X128953069Y-83444500D01*
X128824931Y-83444500D01*
X128824929Y-83444500D01*
X128824926Y-83444500D01*
X128699273Y-83469493D01*
X128699265Y-83469495D01*
X128699245Y-83469502D01*
X128580880Y-83518529D01*
X128580870Y-83518534D01*
X128474328Y-83589724D01*
X128474327Y-83589725D01*
X128474321Y-83589730D01*
X128383730Y-83680321D01*
X128383725Y-83680327D01*
X128383724Y-83680328D01*
X128312534Y-83786870D01*
X128312529Y-83786880D01*
X128263502Y-83905245D01*
X128263499Y-83905255D01*
X128263493Y-83905273D01*
X128238500Y-84030923D01*
X128238500Y-84114702D01*
X128233237Y-84132622D01*
X82956964Y-84132622D01*
X82846928Y-84022586D01*
X82706788Y-83920768D01*
X82676342Y-83905255D01*
X82676342Y-83905254D01*
X82569946Y-83851044D01*
X82564605Y-83847163D01*
X82540287Y-83837090D01*
X82533767Y-83836058D01*
X82483648Y-83819773D01*
X82396532Y-83791467D01*
X82392010Y-83789614D01*
X82382820Y-83787444D01*
X82378057Y-83787070D01*
X82367513Y-83785400D01*
X82256271Y-83767781D01*
X82240407Y-83765268D01*
X82216614Y-83761500D01*
X82216611Y-83761500D01*
X82043389Y-83761500D01*
X82043388Y-83761500D01*
X82003726Y-83767781D01*
X82003725Y-83767780D01*
X81872304Y-83788596D01*
X81707549Y-83842129D01*
X81553211Y-83920767D01*
X81536490Y-83932917D01*
X81424943Y-84013961D01*
X81417562Y-84018094D01*
X81286093Y-84149563D01*
X81281962Y-84156940D01*
X81256187Y-84192417D01*
X81256186Y-84192419D01*
X81188768Y-84285210D01*
X81110129Y-84439549D01*
X81056596Y-84604305D01*
X81056595Y-84604306D01*
X81038298Y-84719833D01*
X81038287Y-84719904D01*
X81038193Y-84720501D01*
X81029500Y-84775389D01*
X78724000Y-84775389D01*
X78724000Y-82408613D01*
X81029499Y-82408613D01*
X81040472Y-82477887D01*
X81040661Y-82479082D01*
X81056598Y-82579701D01*
X81110127Y-82744445D01*
X81188768Y-82898788D01*
X81290586Y-83038928D01*
X81413072Y-83161414D01*
X81553212Y-83263232D01*
X81707555Y-83341873D01*
X81872299Y-83395402D01*
X82043389Y-83422500D01*
X82043390Y-83422500D01*
X82216610Y-83422500D01*
X82216611Y-83422500D01*
X82387701Y-83395402D01*
X82552445Y-83341873D01*
X82706788Y-83263232D01*
X82846928Y-83161414D01*
X82969414Y-83038928D01*
X83071232Y-82898788D01*
X83149350Y-82745471D01*
X114290237Y-82745471D01*
X114324338Y-82916899D01*
X114324340Y-82916907D01*
X114324343Y-82916917D01*
X114329058Y-82928299D01*
X114380908Y-83053481D01*
X114380913Y-83053490D01*
X114380923Y-83053507D01*
X114463049Y-83176417D01*
X114463050Y-83176418D01*
X114463055Y-83176424D01*
X114567574Y-83280943D01*
X114567580Y-83280948D01*
X114567584Y-83280951D01*
X114690498Y-83363080D01*
X114690511Y-83363087D01*
X114821487Y-83417338D01*
X114825910Y-83419430D01*
X114826638Y-83419571D01*
X114827382Y-83419717D01*
X114972077Y-83448500D01*
X114972079Y-83448500D01*
X114972082Y-83448500D01*
X115119920Y-83448500D01*
X115217462Y-83429096D01*
X115264913Y-83419658D01*
X115401495Y-83363084D01*
X115524416Y-83280951D01*
X115628951Y-83176416D01*
X115711084Y-83053495D01*
X115712980Y-83048919D01*
X115748361Y-82963500D01*
X115767658Y-82916913D01*
X115777096Y-82869462D01*
X115796500Y-82771920D01*
X115796500Y-82745471D01*
X116830237Y-82745471D01*
X116864338Y-82916899D01*
X116864340Y-82916907D01*
X116864343Y-82916917D01*
X116869058Y-82928299D01*
X116920908Y-83053481D01*
X116920913Y-83053490D01*
X116920923Y-83053507D01*
X117003049Y-83176417D01*
X117003050Y-83176418D01*
X117003055Y-83176424D01*
X117107574Y-83280943D01*
X117107580Y-83280948D01*
X117107584Y-83280951D01*
X117230498Y-83363080D01*
X117230511Y-83363087D01*
X117361487Y-83417338D01*
X117365910Y-83419430D01*
X117366638Y-83419571D01*
X117367382Y-83419717D01*
X117512077Y-83448500D01*
X117512079Y-83448500D01*
X117512082Y-83448500D01*
X117659920Y-83448500D01*
X117757462Y-83429096D01*
X117804913Y-83419658D01*
X117941495Y-83363084D01*
X118064416Y-83280951D01*
X118168951Y-83176416D01*
X118251084Y-83053495D01*
X118252980Y-83048919D01*
X118288361Y-82963500D01*
X118307658Y-82916913D01*
X118313035Y-82889876D01*
X118317096Y-82869465D01*
X118317096Y-82869462D01*
X118336500Y-82771920D01*
X118336500Y-82624079D01*
X118336500Y-82624076D01*
X118307419Y-82477887D01*
X118305340Y-82473492D01*
X118278466Y-82408610D01*
X118263893Y-82373429D01*
X118251090Y-82342517D01*
X118251085Y-82342508D01*
X118251080Y-82342498D01*
X118211740Y-82283622D01*
X134327499Y-82283622D01*
X134364021Y-82467225D01*
X134364027Y-82467252D01*
X134435672Y-82640222D01*
X134435677Y-82640232D01*
X134539698Y-82795909D01*
X134539699Y-82795910D01*
X134539704Y-82795916D01*
X134672082Y-82928294D01*
X134672088Y-82928299D01*
X134672092Y-82928302D01*
X134827762Y-83032318D01*
X134827767Y-83032321D01*
X134827766Y-83032321D01*
X134827769Y-83032322D01*
X134827771Y-83032323D01*
X134843716Y-83038927D01*
X134843721Y-83038931D01*
X134843722Y-83038930D01*
X135000749Y-83103973D01*
X135172389Y-83138114D01*
X135181408Y-83139908D01*
X135183643Y-83140409D01*
X135184381Y-83140500D01*
X135371617Y-83140500D01*
X135375737Y-83140500D01*
X135383586Y-83138118D01*
X135555251Y-83103973D01*
X135728231Y-83032322D01*
X135883908Y-82928302D01*
X136016302Y-82795908D01*
X136120322Y-82640231D01*
X136191973Y-82467251D01*
X136228500Y-82283616D01*
X136228500Y-82096384D01*
X136191973Y-81912749D01*
X136120322Y-81739769D01*
X136120321Y-81739768D01*
X136120318Y-81739762D01*
X136120318Y-81739761D01*
X136016300Y-81584089D01*
X136016299Y-81584088D01*
X136016294Y-81584082D01*
X135883916Y-81451704D01*
X135883910Y-81451699D01*
X135883909Y-81451698D01*
X135728231Y-81347677D01*
X135728232Y-81347677D01*
X135728222Y-81347672D01*
X135555252Y-81276027D01*
X135555225Y-81276021D01*
X135371622Y-81239500D01*
X135371620Y-81239500D01*
X135371616Y-81239500D01*
X135184384Y-81239500D01*
X135184379Y-81239500D01*
X135184377Y-81239500D01*
X135000773Y-81276021D01*
X135000746Y-81276027D01*
X134827776Y-81347672D01*
X134827766Y-81347677D01*
X134672089Y-81451698D01*
X134672088Y-81451699D01*
X134672082Y-81451704D01*
X134539704Y-81584082D01*
X134539699Y-81584088D01*
X134539698Y-81584089D01*
X134435677Y-81739766D01*
X134435672Y-81739776D01*
X134364027Y-81912746D01*
X134364021Y-81912773D01*
X134327500Y-82096376D01*
X134327500Y-82096379D01*
X134327500Y-82283620D01*
X134327500Y-82283622D01*
X134327499Y-82283622D01*
X118211740Y-82283622D01*
X118168951Y-82219584D01*
X118168948Y-82219580D01*
X118168943Y-82219574D01*
X118064424Y-82115055D01*
X118064418Y-82115050D01*
X118064417Y-82115049D01*
X117941507Y-82032923D01*
X117941506Y-82032922D01*
X117941501Y-82032919D01*
X117941488Y-82032912D01*
X117941481Y-82032908D01*
X117804919Y-81976344D01*
X117804920Y-81976344D01*
X117804917Y-81976343D01*
X117804907Y-81976340D01*
X117804905Y-81976339D01*
X117804900Y-81976338D01*
X117659922Y-81947500D01*
X117659920Y-81947500D01*
X117659918Y-81947500D01*
X117512082Y-81947500D01*
X117512080Y-81947500D01*
X117512078Y-81947500D01*
X117367096Y-81976338D01*
X117367079Y-81976344D01*
X117230517Y-82032908D01*
X117230508Y-82032913D01*
X117230491Y-82032923D01*
X117107581Y-82115049D01*
X117107580Y-82115050D01*
X117107574Y-82115055D01*
X117003055Y-82219574D01*
X117003050Y-82219580D01*
X117003049Y-82219581D01*
X116920923Y-82342491D01*
X116920913Y-82342508D01*
X116920908Y-82342517D01*
X116864344Y-82479079D01*
X116864338Y-82479098D01*
X116835500Y-82624076D01*
X116835500Y-82727551D01*
X116830237Y-82745471D01*
X115796500Y-82745471D01*
X115796500Y-82624079D01*
X115796500Y-82624076D01*
X115767419Y-82477887D01*
X115765340Y-82473492D01*
X115738466Y-82408610D01*
X115723893Y-82373429D01*
X115711090Y-82342517D01*
X115711085Y-82342508D01*
X115711080Y-82342498D01*
X115628951Y-82219584D01*
X115628948Y-82219580D01*
X115628943Y-82219574D01*
X115524424Y-82115055D01*
X115524418Y-82115050D01*
X115524417Y-82115049D01*
X115401507Y-82032923D01*
X115401506Y-82032922D01*
X115401501Y-82032919D01*
X115401488Y-82032912D01*
X115401481Y-82032908D01*
X115264919Y-81976344D01*
X115264920Y-81976344D01*
X115264917Y-81976343D01*
X115264907Y-81976340D01*
X115264905Y-81976339D01*
X115264900Y-81976338D01*
X115119922Y-81947500D01*
X115119920Y-81947500D01*
X115119918Y-81947500D01*
X114972082Y-81947500D01*
X114972080Y-81947500D01*
X114972078Y-81947500D01*
X114827096Y-81976338D01*
X114827079Y-81976344D01*
X114690517Y-82032908D01*
X114690508Y-82032913D01*
X114690491Y-82032923D01*
X114567581Y-82115049D01*
X114567580Y-82115050D01*
X114567574Y-82115055D01*
X114463055Y-82219574D01*
X114463050Y-82219580D01*
X114463049Y-82219581D01*
X114380923Y-82342491D01*
X114380913Y-82342508D01*
X114380908Y-82342517D01*
X114324344Y-82479079D01*
X114324338Y-82479098D01*
X114295500Y-82624076D01*
X114295500Y-82727551D01*
X114290237Y-82745471D01*
X83149350Y-82745471D01*
X83149873Y-82744445D01*
X83203402Y-82579701D01*
X83230500Y-82408611D01*
X83230500Y-82235389D01*
X83203402Y-82064299D01*
X83149873Y-81899555D01*
X83071232Y-81745212D01*
X82969414Y-81605072D01*
X82846928Y-81482586D01*
X82706788Y-81380768D01*
X82669818Y-81361931D01*
X82552449Y-81302128D01*
X82396532Y-81251467D01*
X82392010Y-81249614D01*
X82382820Y-81247444D01*
X82378057Y-81247070D01*
X82367513Y-81245400D01*
X82256271Y-81227781D01*
X82240407Y-81225268D01*
X82216614Y-81221500D01*
X82216611Y-81221500D01*
X82043389Y-81221500D01*
X82043388Y-81221500D01*
X82003726Y-81227781D01*
X82003725Y-81227780D01*
X81872304Y-81248596D01*
X81707549Y-81302129D01*
X81553210Y-81380768D01*
X81473256Y-81438859D01*
X81473255Y-81438859D01*
X81424941Y-81473961D01*
X81417564Y-81478092D01*
X81286092Y-81609564D01*
X81281961Y-81616941D01*
X81246859Y-81665255D01*
X81246859Y-81665256D01*
X81188768Y-81745210D01*
X81110129Y-81899549D01*
X81056596Y-82064305D01*
X81029500Y-82235383D01*
X81029500Y-82408610D01*
X81029499Y-82408613D01*
X78724000Y-82408613D01*
X78724000Y-79868613D01*
X81029499Y-79868613D01*
X81040472Y-79937887D01*
X81040661Y-79939082D01*
X81056598Y-80039701D01*
X81110127Y-80204445D01*
X81188768Y-80358788D01*
X81290586Y-80498928D01*
X81413072Y-80621414D01*
X81553212Y-80723232D01*
X81707555Y-80801873D01*
X81872299Y-80855402D01*
X82043389Y-80882500D01*
X82043390Y-80882500D01*
X82216610Y-80882500D01*
X82216611Y-80882500D01*
X82387701Y-80855402D01*
X82552445Y-80801873D01*
X82706788Y-80723232D01*
X82846928Y-80621414D01*
X82969414Y-80498928D01*
X83071232Y-80358788D01*
X83149350Y-80205471D01*
X119370237Y-80205471D01*
X119404338Y-80376899D01*
X119404339Y-80376904D01*
X119404344Y-80376919D01*
X119460908Y-80513481D01*
X119460913Y-80513490D01*
X119460923Y-80513507D01*
X119543049Y-80636417D01*
X119543050Y-80636418D01*
X119543055Y-80636424D01*
X119647574Y-80740943D01*
X119647580Y-80740948D01*
X119647584Y-80740951D01*
X119770498Y-80823080D01*
X119770511Y-80823087D01*
X119901487Y-80877338D01*
X119905910Y-80879430D01*
X119906638Y-80879571D01*
X119907382Y-80879717D01*
X120052077Y-80908500D01*
X120052079Y-80908500D01*
X120052082Y-80908500D01*
X120199920Y-80908500D01*
X120297462Y-80889096D01*
X120344913Y-80879658D01*
X120481495Y-80823084D01*
X120604416Y-80740951D01*
X120708951Y-80636416D01*
X120791084Y-80513495D01*
X120847658Y-80376913D01*
X120853035Y-80349876D01*
X120857096Y-80329465D01*
X120857096Y-80329462D01*
X120876500Y-80231920D01*
X120876500Y-80084079D01*
X120876500Y-80084076D01*
X120847419Y-79937887D01*
X120845340Y-79933492D01*
X120818466Y-79868610D01*
X120803893Y-79833429D01*
X120791090Y-79802517D01*
X120791085Y-79802508D01*
X120791080Y-79802498D01*
X120708951Y-79679584D01*
X120708948Y-79679580D01*
X120708943Y-79679574D01*
X120604424Y-79575055D01*
X120604418Y-79575050D01*
X120604417Y-79575049D01*
X120481507Y-79492923D01*
X120481506Y-79492922D01*
X120481501Y-79492919D01*
X120481488Y-79492912D01*
X120481481Y-79492908D01*
X120344919Y-79436344D01*
X120344920Y-79436344D01*
X120344917Y-79436343D01*
X120344907Y-79436340D01*
X120344905Y-79436339D01*
X120344900Y-79436338D01*
X120199922Y-79407500D01*
X120199920Y-79407500D01*
X120199918Y-79407500D01*
X120052082Y-79407500D01*
X120052080Y-79407500D01*
X120052078Y-79407500D01*
X119907096Y-79436338D01*
X119907079Y-79436344D01*
X119770517Y-79492908D01*
X119770508Y-79492913D01*
X119770491Y-79492923D01*
X119647581Y-79575049D01*
X119647580Y-79575050D01*
X119647574Y-79575055D01*
X119543055Y-79679574D01*
X119543050Y-79679580D01*
X119543049Y-79679581D01*
X119460923Y-79802491D01*
X119460913Y-79802508D01*
X119460908Y-79802517D01*
X119404344Y-79939079D01*
X119404338Y-79939098D01*
X119375500Y-80084076D01*
X119375500Y-80187551D01*
X119370237Y-80205471D01*
X83149350Y-80205471D01*
X83149873Y-80204445D01*
X83203402Y-80039701D01*
X83230500Y-79868611D01*
X83230500Y-79695389D01*
X83203402Y-79524299D01*
X83149873Y-79359555D01*
X83071232Y-79205212D01*
X83062621Y-79193360D01*
X136634500Y-79193360D01*
X136634500Y-88488639D01*
X136635963Y-88515934D01*
X136635967Y-88515988D01*
X136638797Y-88542310D01*
X136638798Y-88542312D01*
X136668586Y-88637441D01*
X136668590Y-88637451D01*
X136702068Y-88698761D01*
X136702073Y-88698769D01*
X136745649Y-88756980D01*
X136745665Y-88756998D01*
X137218231Y-89229563D01*
X137689015Y-89700347D01*
X137709365Y-89718626D01*
X137709371Y-89718631D01*
X137709379Y-89718638D01*
X137730000Y-89735255D01*
X137730002Y-89735256D01*
X137730007Y-89735260D01*
X137818338Y-89781465D01*
X137885377Y-89801150D01*
X137885381Y-89801150D01*
X137885383Y-89801151D01*
X137897014Y-89802823D01*
X137957362Y-89811500D01*
X137957363Y-89811500D01*
X141918638Y-89811500D01*
X141918639Y-89811500D01*
X141920075Y-89811422D01*
X141945952Y-89810036D01*
X141972310Y-89807202D01*
X142067444Y-89777413D01*
X142128767Y-89743928D01*
X142186985Y-89700347D01*
X143130347Y-88756985D01*
X143148626Y-88736635D01*
X143165260Y-88715993D01*
X143211465Y-88627662D01*
X143231150Y-88560623D01*
X143241500Y-88488638D01*
X143241500Y-87315389D01*
X154209500Y-87315389D01*
X154209500Y-87488611D01*
X154216808Y-87534749D01*
X154226646Y-87596870D01*
X154236598Y-87659701D01*
X154290127Y-87824445D01*
X154368768Y-87978788D01*
X154470586Y-88118928D01*
X154593072Y-88241414D01*
X154733212Y-88343232D01*
X154887555Y-88421873D01*
X155052299Y-88475402D01*
X155223389Y-88502500D01*
X155223390Y-88502500D01*
X155396610Y-88502500D01*
X155396611Y-88502500D01*
X155567701Y-88475402D01*
X155732445Y-88421873D01*
X155886788Y-88343232D01*
X156026928Y-88241414D01*
X156149414Y-88118928D01*
X156251232Y-87978788D01*
X156329873Y-87824445D01*
X156383402Y-87659701D01*
X156410500Y-87488611D01*
X156410500Y-87315389D01*
X156383402Y-87144299D01*
X156329873Y-86979555D01*
X156251232Y-86825212D01*
X156149414Y-86685072D01*
X156026928Y-86562586D01*
X155886788Y-86460768D01*
X155732449Y-86382128D01*
X155576532Y-86331467D01*
X155572010Y-86329614D01*
X155562820Y-86327444D01*
X155558057Y-86327070D01*
X155547513Y-86325400D01*
X155436271Y-86307781D01*
X155420407Y-86305268D01*
X155396614Y-86301500D01*
X155396611Y-86301500D01*
X155223389Y-86301500D01*
X155223388Y-86301500D01*
X155183726Y-86307781D01*
X155183725Y-86307780D01*
X155052304Y-86328596D01*
X154887549Y-86382129D01*
X154733210Y-86460768D01*
X154653256Y-86518859D01*
X154653255Y-86518859D01*
X154604941Y-86553961D01*
X154597564Y-86558092D01*
X154466092Y-86689564D01*
X154461961Y-86696941D01*
X154426859Y-86745255D01*
X154426859Y-86745256D01*
X154368768Y-86825210D01*
X154290129Y-86979547D01*
X154236596Y-87144301D01*
X154221468Y-87239819D01*
X154221450Y-87239937D01*
X154221374Y-87240419D01*
X154209500Y-87315389D01*
X143241500Y-87315389D01*
X143241500Y-82093193D01*
X143261185Y-82026154D01*
X143277819Y-82005512D01*
X143817512Y-81465819D01*
X143878835Y-81432334D01*
X143905193Y-81429500D01*
X150300639Y-81429500D01*
X150302075Y-81429422D01*
X150327952Y-81428036D01*
X150354310Y-81425202D01*
X150449444Y-81395413D01*
X150510767Y-81361928D01*
X150568985Y-81318347D01*
X150750347Y-81136985D01*
X150768626Y-81116635D01*
X150785260Y-81095993D01*
X150831465Y-81007662D01*
X150851150Y-80940623D01*
X150861500Y-80868638D01*
X150861500Y-78939362D01*
X150860036Y-78912048D01*
X150857202Y-78885690D01*
X150827413Y-78790556D01*
X150793928Y-78729233D01*
X150778479Y-78708596D01*
X150754232Y-78676205D01*
X150729815Y-78610741D01*
X150729499Y-78601895D01*
X150729499Y-78456819D01*
X150729498Y-78456813D01*
X150728343Y-78446072D01*
X150723067Y-78396983D01*
X150698465Y-78331023D01*
X150673359Y-78263709D01*
X150672470Y-78261192D01*
X150670181Y-78257895D01*
X150670177Y-78257889D01*
X150667275Y-78254540D01*
X150613894Y-78183232D01*
X150586013Y-78145987D01*
X150572472Y-78135851D01*
X150572468Y-78135845D01*
X150572467Y-78135847D01*
X150517318Y-78094561D01*
X150492365Y-78069608D01*
X150482996Y-78057093D01*
X150458579Y-77991633D01*
X150457648Y-77978620D01*
X150461558Y-77937685D01*
X150479499Y-77870729D01*
X150479500Y-77870726D01*
X150479500Y-77365275D01*
X150479500Y-77365273D01*
X150452207Y-77263413D01*
X150399480Y-77172087D01*
X150367006Y-77139613D01*
X150366698Y-77139293D01*
X150357919Y-77130508D01*
X150357410Y-77130017D01*
X150324914Y-77097521D01*
X150324913Y-77097520D01*
X150258059Y-77058922D01*
X150233589Y-77044794D01*
X150233588Y-77044793D01*
X150233587Y-77044793D01*
X150131727Y-77017500D01*
X150131726Y-77017500D01*
X137872273Y-77017500D01*
X137770416Y-77044791D01*
X137770408Y-77044795D01*
X137679099Y-77097512D01*
X137679081Y-77097523D01*
X137646296Y-77130308D01*
X137645804Y-77130784D01*
X137637784Y-77138804D01*
X137637308Y-77139296D01*
X137604523Y-77172081D01*
X137604512Y-77172099D01*
X137551795Y-77263408D01*
X137551791Y-77263416D01*
X137524500Y-77365273D01*
X137524500Y-77870727D01*
X137541801Y-77935298D01*
X137545991Y-77970341D01*
X137545619Y-77985968D01*
X137524346Y-78052518D01*
X137517038Y-78063316D01*
X137488658Y-78093081D01*
X137417987Y-78145985D01*
X137417981Y-78145991D01*
X137336730Y-78254532D01*
X137333818Y-78257892D01*
X137331414Y-78261632D01*
X137284406Y-78387667D01*
X137242535Y-78443600D01*
X137239233Y-78446072D01*
X137181015Y-78489653D01*
X137181013Y-78489655D01*
X137181001Y-78489665D01*
X136745666Y-78925001D01*
X136745638Y-78925031D01*
X136727361Y-78945379D01*
X136710744Y-78966000D01*
X136664534Y-79054340D01*
X136644850Y-79121375D01*
X136644848Y-79121383D01*
X136634500Y-79193360D01*
X83062621Y-79193360D01*
X82969414Y-79065072D01*
X82846928Y-78942586D01*
X82706788Y-78840768D01*
X82552449Y-78762128D01*
X82396532Y-78711467D01*
X82392010Y-78709614D01*
X82382820Y-78707444D01*
X82378057Y-78707070D01*
X82367513Y-78705400D01*
X82256271Y-78687781D01*
X82240407Y-78685268D01*
X82216614Y-78681500D01*
X82216611Y-78681500D01*
X82043389Y-78681500D01*
X82043388Y-78681500D01*
X82003726Y-78687781D01*
X82003725Y-78687780D01*
X81872304Y-78708596D01*
X81707549Y-78762129D01*
X81553210Y-78840768D01*
X81473256Y-78898859D01*
X81473255Y-78898859D01*
X81424941Y-78933961D01*
X81417564Y-78938092D01*
X81286092Y-79069564D01*
X81281961Y-79076941D01*
X81246859Y-79125255D01*
X81246859Y-79125256D01*
X81188768Y-79205210D01*
X81110129Y-79359549D01*
X81056596Y-79524305D01*
X81029500Y-79695383D01*
X81029500Y-79868610D01*
X81029499Y-79868613D01*
X78724000Y-79868613D01*
X78724000Y-77155389D01*
X81029500Y-77155389D01*
X81029500Y-77328611D01*
X81030420Y-77334419D01*
X81030421Y-77334423D01*
X81030420Y-77334423D01*
X81043625Y-77417793D01*
X81046975Y-77438948D01*
X81056598Y-77499701D01*
X81110127Y-77664445D01*
X81188768Y-77818788D01*
X81290586Y-77958928D01*
X81413072Y-78081414D01*
X81553212Y-78183232D01*
X81707555Y-78261873D01*
X81872299Y-78315402D01*
X82043389Y-78342500D01*
X82043390Y-78342500D01*
X82216610Y-78342500D01*
X82216611Y-78342500D01*
X82387701Y-78315402D01*
X82552445Y-78261873D01*
X82706788Y-78183232D01*
X82846928Y-78081414D01*
X82969414Y-77958928D01*
X83071232Y-77818788D01*
X83149873Y-77664445D01*
X83203402Y-77499701D01*
X83230500Y-77328611D01*
X83230500Y-77155389D01*
X83203402Y-76984299D01*
X83177139Y-76903471D01*
X93716237Y-76903471D01*
X93750338Y-77074899D01*
X93750344Y-77074919D01*
X93806908Y-77211481D01*
X93806913Y-77211490D01*
X93806923Y-77211507D01*
X93889049Y-77334417D01*
X93889050Y-77334418D01*
X93889053Y-77334422D01*
X93993578Y-77438947D01*
X93993581Y-77438949D01*
X93993584Y-77438951D01*
X94116498Y-77521080D01*
X94116511Y-77521087D01*
X94247487Y-77575338D01*
X94251910Y-77577430D01*
X94252638Y-77577571D01*
X94253382Y-77577717D01*
X94398077Y-77606500D01*
X94398079Y-77606500D01*
X94398082Y-77606500D01*
X94545920Y-77606500D01*
X94643462Y-77587096D01*
X94690913Y-77577658D01*
X94827495Y-77521084D01*
X94950416Y-77438951D01*
X94950415Y-77438951D01*
X94950419Y-77438949D01*
X94950421Y-77438947D01*
X95054948Y-77334419D01*
X95054950Y-77334417D01*
X95054951Y-77334416D01*
X95137084Y-77211495D01*
X95193658Y-77074913D01*
X95205078Y-77017500D01*
X95222500Y-76929920D01*
X95222500Y-76782076D01*
X95193419Y-76635884D01*
X95191332Y-76631472D01*
X95147260Y-76525071D01*
X95137087Y-76500511D01*
X95137080Y-76500498D01*
X95054951Y-76377584D01*
X95054948Y-76377580D01*
X95054943Y-76377574D01*
X94950424Y-76273055D01*
X94950418Y-76273050D01*
X94950417Y-76273049D01*
X94827507Y-76190923D01*
X94827506Y-76190922D01*
X94827501Y-76190919D01*
X94827488Y-76190912D01*
X94827481Y-76190908D01*
X94690919Y-76134344D01*
X94690920Y-76134344D01*
X94690917Y-76134343D01*
X94690907Y-76134340D01*
X94690905Y-76134339D01*
X94690900Y-76134338D01*
X94545922Y-76105500D01*
X94545920Y-76105500D01*
X94545918Y-76105500D01*
X94398082Y-76105500D01*
X94398080Y-76105500D01*
X94398078Y-76105500D01*
X94253096Y-76134338D01*
X94253079Y-76134344D01*
X94116517Y-76190908D01*
X94116508Y-76190913D01*
X94116491Y-76190923D01*
X93993581Y-76273049D01*
X93993580Y-76273050D01*
X93993574Y-76273055D01*
X93889055Y-76377574D01*
X93889050Y-76377580D01*
X93889049Y-76377581D01*
X93806923Y-76500491D01*
X93806913Y-76500508D01*
X93806908Y-76500517D01*
X93750344Y-76637079D01*
X93750338Y-76637098D01*
X93721500Y-76782076D01*
X93721500Y-76885551D01*
X93716237Y-76903471D01*
X83177139Y-76903471D01*
X83149873Y-76819555D01*
X83071232Y-76665212D01*
X82969414Y-76525072D01*
X82846928Y-76402586D01*
X82706788Y-76300768D01*
X82652398Y-76273055D01*
X82552449Y-76222128D01*
X82396532Y-76171467D01*
X82392010Y-76169614D01*
X82382820Y-76167444D01*
X82378057Y-76167070D01*
X82367513Y-76165400D01*
X82256271Y-76147781D01*
X82240407Y-76145268D01*
X82216614Y-76141500D01*
X82216611Y-76141500D01*
X82043389Y-76141500D01*
X82043388Y-76141500D01*
X82003726Y-76147781D01*
X82003725Y-76147780D01*
X81872304Y-76168596D01*
X81707549Y-76222129D01*
X81553210Y-76300768D01*
X81473256Y-76358859D01*
X81473255Y-76358859D01*
X81424941Y-76393961D01*
X81417564Y-76398092D01*
X81286092Y-76529564D01*
X81281961Y-76536941D01*
X81246859Y-76585255D01*
X81246859Y-76585256D01*
X81188768Y-76665210D01*
X81110129Y-76819547D01*
X81056598Y-76984297D01*
X81056596Y-76984305D01*
X81038665Y-77097522D01*
X81033234Y-77131816D01*
X81029500Y-77155389D01*
X78724000Y-77155389D01*
X78724000Y-74615383D01*
X81029500Y-74615383D01*
X81029500Y-74788614D01*
X81048111Y-74906120D01*
X81056598Y-74959701D01*
X81110127Y-75124445D01*
X81188768Y-75278788D01*
X81290586Y-75418928D01*
X81413072Y-75541414D01*
X81553212Y-75643232D01*
X81707555Y-75721873D01*
X81872299Y-75775402D01*
X82043389Y-75802500D01*
X82043390Y-75802500D01*
X82216610Y-75802500D01*
X82216611Y-75802500D01*
X82387701Y-75775402D01*
X82552445Y-75721873D01*
X82706788Y-75643232D01*
X82846928Y-75541414D01*
X82969414Y-75418928D01*
X83071232Y-75278788D01*
X83149873Y-75124445D01*
X83203402Y-74959701D01*
X83230500Y-74788611D01*
X83230500Y-74615389D01*
X83203402Y-74444299D01*
X83149873Y-74279555D01*
X83071232Y-74125212D01*
X82969414Y-73985072D01*
X82846928Y-73862586D01*
X82706788Y-73760768D01*
X82552449Y-73682128D01*
X82396532Y-73631467D01*
X82392010Y-73629614D01*
X82382820Y-73627444D01*
X82378057Y-73627070D01*
X82367513Y-73625400D01*
X82256271Y-73607781D01*
X82240407Y-73605268D01*
X82216614Y-73601500D01*
X82216611Y-73601500D01*
X82043389Y-73601500D01*
X82043388Y-73601500D01*
X82003726Y-73607781D01*
X82003725Y-73607780D01*
X81872304Y-73628596D01*
X81707549Y-73682129D01*
X81553210Y-73760768D01*
X81473256Y-73818859D01*
X81473255Y-73818859D01*
X81424941Y-73853961D01*
X81417564Y-73858092D01*
X81286092Y-73989564D01*
X81281961Y-73996941D01*
X81246859Y-74045255D01*
X81246859Y-74045256D01*
X81188768Y-74125210D01*
X81110129Y-74279549D01*
X81056596Y-74444305D01*
X81029500Y-74615383D01*
X78724000Y-74615383D01*
X78724000Y-72697521D01*
X84299500Y-72697521D01*
X84299500Y-73006477D01*
X84334083Y-73313422D01*
X84334089Y-73313455D01*
X84402831Y-73614635D01*
X84402832Y-73614638D01*
X84402835Y-73614650D01*
X84402842Y-73614671D01*
X84504859Y-73906216D01*
X84504862Y-73906222D01*
X84504868Y-73906236D01*
X84625589Y-74156917D01*
X84638902Y-74184560D01*
X84639106Y-74184918D01*
X84639792Y-74185977D01*
X84803265Y-74446143D01*
X84995880Y-74687674D01*
X85214326Y-74906120D01*
X85455857Y-75098735D01*
X85717435Y-75263095D01*
X85995771Y-75397135D01*
X85995777Y-75397137D01*
X86092968Y-75431146D01*
X86287327Y-75499156D01*
X86287348Y-75499163D01*
X86287352Y-75499164D01*
X86287364Y-75499168D01*
X86472457Y-75541414D01*
X86587381Y-75567645D01*
X86588443Y-75567899D01*
X86588546Y-75567910D01*
X86588548Y-75567911D01*
X86588550Y-75567911D01*
X86588557Y-75567911D01*
X86588562Y-75567913D01*
X86793206Y-75590970D01*
X86875691Y-75600263D01*
X86892511Y-75602159D01*
X86894994Y-75602500D01*
X87204468Y-75602500D01*
X87214263Y-75602500D01*
X87221862Y-75600539D01*
X87361356Y-75584822D01*
X87510749Y-75567990D01*
X87511390Y-75567922D01*
X87511437Y-75567914D01*
X87511448Y-75567911D01*
X87511452Y-75567911D01*
X87812636Y-75499168D01*
X88104229Y-75397135D01*
X88382565Y-75263095D01*
X88644143Y-75098735D01*
X88885674Y-74906120D01*
X89104120Y-74687674D01*
X89296735Y-74446143D01*
X89461095Y-74184565D01*
X89595135Y-73906229D01*
X89697168Y-73614636D01*
X89765911Y-73313452D01*
X89765915Y-73313422D01*
X89782822Y-73163356D01*
X89800500Y-73006465D01*
X89800500Y-72697535D01*
X89800499Y-72697525D01*
X89800499Y-72697521D01*
X151559500Y-72697521D01*
X151559500Y-73006477D01*
X151594083Y-73313422D01*
X151594089Y-73313455D01*
X151662831Y-73614635D01*
X151662832Y-73614638D01*
X151662835Y-73614650D01*
X151662842Y-73614671D01*
X151764859Y-73906216D01*
X151764862Y-73906222D01*
X151764868Y-73906236D01*
X151885589Y-74156917D01*
X151898902Y-74184560D01*
X151899106Y-74184918D01*
X151899792Y-74185977D01*
X152063265Y-74446143D01*
X152255880Y-74687674D01*
X152474326Y-74906120D01*
X152715857Y-75098735D01*
X152977435Y-75263095D01*
X153255771Y-75397135D01*
X153255777Y-75397137D01*
X153352968Y-75431146D01*
X153547327Y-75499156D01*
X153547348Y-75499163D01*
X153547352Y-75499164D01*
X153547364Y-75499168D01*
X153732457Y-75541414D01*
X153847381Y-75567645D01*
X153848443Y-75567899D01*
X153848546Y-75567910D01*
X153848548Y-75567911D01*
X153848550Y-75567911D01*
X153848557Y-75567911D01*
X153848562Y-75567913D01*
X154053206Y-75590970D01*
X154135691Y-75600263D01*
X154152511Y-75602159D01*
X154154994Y-75602500D01*
X154464468Y-75602500D01*
X154474263Y-75602500D01*
X154481862Y-75600539D01*
X154621356Y-75584822D01*
X154770749Y-75567990D01*
X154771390Y-75567922D01*
X154771437Y-75567914D01*
X154771448Y-75567911D01*
X154771452Y-75567911D01*
X155072636Y-75499168D01*
X155364229Y-75397135D01*
X155642565Y-75263095D01*
X155904143Y-75098735D01*
X156145674Y-74906120D01*
X156364120Y-74687674D01*
X156556735Y-74446143D01*
X156721095Y-74184565D01*
X156855135Y-73906229D01*
X156957168Y-73614636D01*
X157025911Y-73313452D01*
X157025915Y-73313422D01*
X157042822Y-73163356D01*
X157060500Y-73006465D01*
X157060500Y-72697535D01*
X157048970Y-72595206D01*
X157025913Y-72390562D01*
X157025910Y-72390544D01*
X156957168Y-72089364D01*
X156957164Y-72089352D01*
X156889146Y-71894968D01*
X156855135Y-71797771D01*
X156721095Y-71519435D01*
X156556735Y-71257857D01*
X156364120Y-71016326D01*
X156145674Y-70797880D01*
X156145671Y-70797878D01*
X156084334Y-70748963D01*
X155904143Y-70605265D01*
X155643977Y-70441792D01*
X155642918Y-70441106D01*
X155642560Y-70440902D01*
X155614917Y-70427589D01*
X155364236Y-70306868D01*
X155364227Y-70306864D01*
X155364216Y-70306859D01*
X155072671Y-70204842D01*
X155072650Y-70204835D01*
X155072638Y-70204832D01*
X155072635Y-70204831D01*
X154949601Y-70176749D01*
X154771457Y-70136089D01*
X154771422Y-70136083D01*
X154464477Y-70101500D01*
X154464471Y-70101500D01*
X154464465Y-70101500D01*
X154155535Y-70101500D01*
X154155528Y-70101500D01*
X154155521Y-70101500D01*
X153848576Y-70136083D01*
X153848541Y-70136089D01*
X153547360Y-70204832D01*
X153547348Y-70204835D01*
X153547327Y-70204842D01*
X153255782Y-70306859D01*
X153255767Y-70306865D01*
X153255765Y-70306866D01*
X152977442Y-70440899D01*
X152715859Y-70605263D01*
X152474326Y-70797878D01*
X152255878Y-71016326D01*
X152063263Y-71257859D01*
X151898899Y-71519442D01*
X151764866Y-71797765D01*
X151764865Y-71797767D01*
X151764859Y-71797782D01*
X151662842Y-72089327D01*
X151662835Y-72089348D01*
X151662832Y-72089360D01*
X151594089Y-72390541D01*
X151594083Y-72390576D01*
X151559500Y-72697521D01*
X89800499Y-72697521D01*
X89765913Y-72390562D01*
X89765910Y-72390544D01*
X89697168Y-72089364D01*
X89697164Y-72089352D01*
X89629146Y-71894968D01*
X89595135Y-71797771D01*
X89461095Y-71519435D01*
X89296735Y-71257857D01*
X89104120Y-71016326D01*
X88885674Y-70797880D01*
X88885671Y-70797878D01*
X88824334Y-70748963D01*
X88644143Y-70605265D01*
X88383977Y-70441792D01*
X88382918Y-70441106D01*
X88382560Y-70440902D01*
X88354917Y-70427589D01*
X88279747Y-70391389D01*
X119230800Y-70391389D01*
X119230800Y-70814611D01*
X119257898Y-70985701D01*
X119311427Y-71150445D01*
X119390068Y-71304788D01*
X119491886Y-71444928D01*
X119614372Y-71567414D01*
X119754512Y-71669232D01*
X119908855Y-71747873D01*
X120073599Y-71801402D01*
X120244689Y-71828500D01*
X120244690Y-71828500D01*
X120417910Y-71828500D01*
X120417911Y-71828500D01*
X120589001Y-71801402D01*
X120753745Y-71747873D01*
X120908088Y-71669232D01*
X121048228Y-71567414D01*
X121170714Y-71444928D01*
X121272532Y-71304788D01*
X121351173Y-71150445D01*
X121404702Y-70985701D01*
X121431800Y-70814611D01*
X121431800Y-70391389D01*
X121730800Y-70391389D01*
X121730800Y-70814611D01*
X121757898Y-70985701D01*
X121811427Y-71150445D01*
X121890068Y-71304788D01*
X121991886Y-71444928D01*
X122114372Y-71567414D01*
X122254512Y-71669232D01*
X122408855Y-71747873D01*
X122573599Y-71801402D01*
X122744689Y-71828500D01*
X122744690Y-71828500D01*
X122917910Y-71828500D01*
X122917911Y-71828500D01*
X123089001Y-71801402D01*
X123253745Y-71747873D01*
X123408088Y-71669232D01*
X123548228Y-71567414D01*
X123670714Y-71444928D01*
X123772532Y-71304788D01*
X123851173Y-71150445D01*
X123904702Y-70985701D01*
X123931800Y-70814611D01*
X123931800Y-70391389D01*
X126730800Y-70391389D01*
X126730800Y-70814611D01*
X126757898Y-70985701D01*
X126811427Y-71150445D01*
X126890068Y-71304788D01*
X126991886Y-71444928D01*
X127114372Y-71567414D01*
X127254512Y-71669232D01*
X127408855Y-71747873D01*
X127573599Y-71801402D01*
X127744689Y-71828500D01*
X127744690Y-71828500D01*
X127917910Y-71828500D01*
X127917911Y-71828500D01*
X128089001Y-71801402D01*
X128253745Y-71747873D01*
X128408088Y-71669232D01*
X128548228Y-71567414D01*
X128670714Y-71444928D01*
X128772532Y-71304788D01*
X128851173Y-71150445D01*
X128904702Y-70985701D01*
X128931800Y-70814611D01*
X128931800Y-70391389D01*
X129230800Y-70391389D01*
X129230800Y-70814611D01*
X129257898Y-70985701D01*
X129311427Y-71150445D01*
X129390068Y-71304788D01*
X129491886Y-71444928D01*
X129614372Y-71567414D01*
X129754512Y-71669232D01*
X129908855Y-71747873D01*
X130073599Y-71801402D01*
X130244689Y-71828500D01*
X130244690Y-71828500D01*
X130417910Y-71828500D01*
X130417911Y-71828500D01*
X130589001Y-71801402D01*
X130753745Y-71747873D01*
X130908088Y-71669232D01*
X131048228Y-71567414D01*
X131170714Y-71444928D01*
X131272532Y-71304788D01*
X131351173Y-71150445D01*
X131404702Y-70985701D01*
X131431800Y-70814611D01*
X131431800Y-70391389D01*
X131404702Y-70220299D01*
X131351173Y-70055555D01*
X131272532Y-69901212D01*
X131272530Y-69901209D01*
X131272529Y-69901207D01*
X131271430Y-69899693D01*
X131271428Y-69899692D01*
X131269185Y-69896605D01*
X131269168Y-69896577D01*
X131262711Y-69887681D01*
X131262668Y-69887634D01*
X131220887Y-69830129D01*
X131220887Y-69830128D01*
X131220885Y-69830126D01*
X131220884Y-69830125D01*
X131730800Y-69830125D01*
X131730800Y-71375876D01*
X131730959Y-71377806D01*
X131731185Y-71379454D01*
X131737207Y-71435482D01*
X131764990Y-71509971D01*
X131787502Y-71570328D01*
X131787503Y-71570330D01*
X131787504Y-71570332D01*
X131787505Y-71570333D01*
X131873750Y-71685542D01*
X131873752Y-71685544D01*
X131873755Y-71685547D01*
X131988964Y-71771793D01*
X131988971Y-71771797D01*
X132038455Y-71790253D01*
X132073813Y-71816721D01*
X132130744Y-71822835D01*
X132130743Y-71822839D01*
X132130758Y-71822836D01*
X132183427Y-71828500D01*
X133479172Y-71828499D01*
X133538783Y-71822091D01*
X133673631Y-71771796D01*
X133788846Y-71685546D01*
X133875096Y-71570331D01*
X133925391Y-71435483D01*
X133931800Y-71375873D01*
X133931799Y-69830128D01*
X133925391Y-69770517D01*
X133921868Y-69761072D01*
X133875097Y-69635671D01*
X133875093Y-69635664D01*
X133788847Y-69520455D01*
X133788844Y-69520452D01*
X133788842Y-69520450D01*
X133730916Y-69477086D01*
X133673635Y-69434206D01*
X133673632Y-69434204D01*
X133673630Y-69434203D01*
X133673628Y-69434202D01*
X133624144Y-69415746D01*
X133588797Y-69389284D01*
X133486883Y-69378328D01*
X133482042Y-69377500D01*
X133479181Y-69377500D01*
X133479173Y-69377500D01*
X133479164Y-69377500D01*
X132183429Y-69377500D01*
X132183423Y-69377500D01*
X132181492Y-69377659D01*
X132179845Y-69377885D01*
X132123816Y-69383908D01*
X132038452Y-69415747D01*
X131988966Y-69434204D01*
X131988965Y-69434205D01*
X131873756Y-69520450D01*
X131873750Y-69520456D01*
X131787505Y-69635665D01*
X131787503Y-69635668D01*
X131737208Y-69770516D01*
X131730800Y-69830125D01*
X131220884Y-69830125D01*
X131177578Y-69770519D01*
X131170716Y-69761074D01*
X131048230Y-69638588D01*
X131048228Y-69638586D01*
X130908088Y-69536768D01*
X130876062Y-69520450D01*
X130753749Y-69458128D01*
X130597832Y-69407467D01*
X130593310Y-69405614D01*
X130584120Y-69403444D01*
X130579357Y-69403070D01*
X130568813Y-69401400D01*
X130457571Y-69383781D01*
X130441707Y-69381268D01*
X130417914Y-69377500D01*
X130417911Y-69377500D01*
X130244689Y-69377500D01*
X130244688Y-69377500D01*
X130205026Y-69383781D01*
X130205025Y-69383780D01*
X130073604Y-69404596D01*
X129908849Y-69458129D01*
X129754510Y-69536768D01*
X129674556Y-69594859D01*
X129674555Y-69594859D01*
X129626241Y-69629961D01*
X129618864Y-69634092D01*
X129487393Y-69765563D01*
X129483261Y-69772942D01*
X129391171Y-69899693D01*
X129390068Y-69901211D01*
X129390066Y-69901213D01*
X129390064Y-69901218D01*
X129311429Y-70055547D01*
X129257898Y-70220297D01*
X129257896Y-70220303D01*
X129244187Y-70306861D01*
X129244188Y-70306862D01*
X129230800Y-70391389D01*
X128931800Y-70391389D01*
X128904702Y-70220299D01*
X128851173Y-70055555D01*
X128772532Y-69901212D01*
X128670714Y-69761072D01*
X128548228Y-69638586D01*
X128408088Y-69536768D01*
X128376062Y-69520450D01*
X128253749Y-69458128D01*
X128097832Y-69407467D01*
X128093310Y-69405614D01*
X128084120Y-69403444D01*
X128079357Y-69403070D01*
X128068813Y-69401400D01*
X127957571Y-69383781D01*
X127941707Y-69381268D01*
X127917914Y-69377500D01*
X127917911Y-69377500D01*
X127744689Y-69377500D01*
X127744688Y-69377500D01*
X127705026Y-69383781D01*
X127705025Y-69383780D01*
X127573604Y-69404596D01*
X127408849Y-69458129D01*
X127254510Y-69536768D01*
X127174556Y-69594859D01*
X127174555Y-69594859D01*
X127126241Y-69629961D01*
X127118864Y-69634092D01*
X126987393Y-69765563D01*
X126983261Y-69772942D01*
X126891171Y-69899693D01*
X126890068Y-69901211D01*
X126890066Y-69901213D01*
X126890064Y-69901218D01*
X126811429Y-70055547D01*
X126757898Y-70220297D01*
X126757896Y-70220303D01*
X126744187Y-70306861D01*
X126744188Y-70306862D01*
X126730800Y-70391389D01*
X123931800Y-70391389D01*
X123904702Y-70220299D01*
X123851173Y-70055555D01*
X123772532Y-69901212D01*
X123670714Y-69761072D01*
X123548228Y-69638586D01*
X123408088Y-69536768D01*
X123376062Y-69520450D01*
X123253749Y-69458128D01*
X123097832Y-69407467D01*
X123093310Y-69405614D01*
X123084120Y-69403444D01*
X123079357Y-69403070D01*
X123068813Y-69401400D01*
X122957571Y-69383781D01*
X122941707Y-69381268D01*
X122917914Y-69377500D01*
X122917911Y-69377500D01*
X122744689Y-69377500D01*
X122744688Y-69377500D01*
X122705026Y-69383781D01*
X122705025Y-69383780D01*
X122573604Y-69404596D01*
X122408849Y-69458129D01*
X122254510Y-69536768D01*
X122174556Y-69594859D01*
X122174555Y-69594859D01*
X122126241Y-69629961D01*
X122118864Y-69634092D01*
X121987393Y-69765563D01*
X121983261Y-69772942D01*
X121891171Y-69899693D01*
X121890068Y-69901211D01*
X121890066Y-69901213D01*
X121890064Y-69901218D01*
X121811429Y-70055547D01*
X121757898Y-70220297D01*
X121757896Y-70220303D01*
X121744187Y-70306861D01*
X121744188Y-70306862D01*
X121730800Y-70391389D01*
X121431800Y-70391389D01*
X121404702Y-70220299D01*
X121351173Y-70055555D01*
X121272532Y-69901212D01*
X121170714Y-69761072D01*
X121048228Y-69638586D01*
X120908088Y-69536768D01*
X120876062Y-69520450D01*
X120753749Y-69458128D01*
X120597832Y-69407467D01*
X120593310Y-69405614D01*
X120584120Y-69403444D01*
X120579357Y-69403070D01*
X120568813Y-69401400D01*
X120457571Y-69383781D01*
X120441707Y-69381268D01*
X120417914Y-69377500D01*
X120417911Y-69377500D01*
X120244689Y-69377500D01*
X120244688Y-69377500D01*
X120205026Y-69383781D01*
X120205025Y-69383780D01*
X120073604Y-69404596D01*
X119908849Y-69458129D01*
X119754510Y-69536768D01*
X119674556Y-69594859D01*
X119674555Y-69594859D01*
X119626241Y-69629961D01*
X119618864Y-69634092D01*
X119487393Y-69765563D01*
X119483261Y-69772942D01*
X119391171Y-69899693D01*
X119390068Y-69901211D01*
X119390066Y-69901213D01*
X119390064Y-69901218D01*
X119311429Y-70055547D01*
X119257898Y-70220297D01*
X119257896Y-70220303D01*
X119244187Y-70306861D01*
X119244188Y-70306862D01*
X119230800Y-70391389D01*
X88279747Y-70391389D01*
X88104236Y-70306868D01*
X88104227Y-70306864D01*
X88104216Y-70306859D01*
X87812671Y-70204842D01*
X87812650Y-70204835D01*
X87812638Y-70204832D01*
X87812635Y-70204831D01*
X87689601Y-70176749D01*
X87511457Y-70136089D01*
X87511422Y-70136083D01*
X87204477Y-70101500D01*
X87204471Y-70101500D01*
X87204465Y-70101500D01*
X86895535Y-70101500D01*
X86895528Y-70101500D01*
X86895521Y-70101500D01*
X86588576Y-70136083D01*
X86588541Y-70136089D01*
X86287360Y-70204832D01*
X86287348Y-70204835D01*
X86287327Y-70204842D01*
X85995782Y-70306859D01*
X85995767Y-70306865D01*
X85995765Y-70306866D01*
X85717442Y-70440899D01*
X85455859Y-70605263D01*
X85214326Y-70797878D01*
X84995878Y-71016326D01*
X84803263Y-71257859D01*
X84638899Y-71519442D01*
X84504866Y-71797765D01*
X84504865Y-71797767D01*
X84504859Y-71797782D01*
X84402842Y-72089327D01*
X84402835Y-72089348D01*
X84402832Y-72089360D01*
X84334089Y-72390541D01*
X84334083Y-72390576D01*
X84299500Y-72697521D01*
X78724000Y-72697521D01*
X78724000Y-66329829D01*
X78729023Y-66294893D01*
X78733427Y-66279895D01*
X78771172Y-66221144D01*
X78772541Y-66219957D01*
X78827420Y-66192477D01*
X78834979Y-66190833D01*
X78861332Y-66188000D01*
X158592170Y-66188000D01*
X158627106Y-66193023D01*
G37*
%TD.AperFunction*%
%TD*%
%TA.AperFunction,Conductor*%
%TO.N,/System overview/Block diagram/S19V5*%
G36*
X150367677Y-78653685D02*
G01*
X150388319Y-78670319D01*
X150569681Y-78851681D01*
X150603166Y-78913004D01*
X150606000Y-78939362D01*
X150606000Y-80868638D01*
X150586315Y-80935677D01*
X150569681Y-80956319D01*
X150388319Y-81137681D01*
X150326996Y-81171166D01*
X150300638Y-81174000D01*
X143747999Y-81174000D01*
X142986000Y-81935999D01*
X142986000Y-88488638D01*
X142966315Y-88555677D01*
X142949681Y-88576319D01*
X142006319Y-89519681D01*
X141944996Y-89553166D01*
X141918638Y-89556000D01*
X137957362Y-89556000D01*
X137890323Y-89536315D01*
X137869681Y-89519681D01*
X136926319Y-88576319D01*
X136892834Y-88514996D01*
X136890000Y-88488638D01*
X136890000Y-79193362D01*
X136909685Y-79126323D01*
X136926319Y-79105681D01*
X137361681Y-78670319D01*
X137423004Y-78636834D01*
X137449362Y-78634000D01*
X150300638Y-78634000D01*
X150367677Y-78653685D01*
G37*
%TD.AperFunction*%
%TD*%
%TA.AperFunction,Conductor*%
%TO.N,/System overview/Block diagram/D+*%
G36*
X111597853Y-109016360D02*
G01*
X111604987Y-109021771D01*
X111606225Y-109024786D01*
X111724059Y-109486765D01*
X111722783Y-109495629D01*
X111716755Y-109500640D01*
X111063251Y-109740594D01*
X111054303Y-109740229D01*
X111050945Y-109737884D01*
X110885276Y-109572215D01*
X110881849Y-109563942D01*
X110882965Y-109558956D01*
X111185206Y-108918148D01*
X111191834Y-108912128D01*
X111198750Y-108911822D01*
X111597853Y-109016360D01*
G37*
%TD.AperFunction*%
%TD*%
%TA.AperFunction,Conductor*%
%TO.N,/System overview/Block diagram/S19V5_2*%
G36*
X162247706Y-100225690D02*
G01*
X162396381Y-100250500D01*
X172580000Y-100250500D01*
X172647039Y-100270185D01*
X172692794Y-100322989D01*
X172704000Y-100374500D01*
X172704000Y-105180000D01*
X172684315Y-105247039D01*
X172631511Y-105292794D01*
X172580000Y-105304000D01*
X160884772Y-105304000D01*
X160817733Y-105284315D01*
X160771978Y-105231511D01*
X160760772Y-105180024D01*
X160760735Y-104986131D01*
X160760523Y-103872530D01*
X165557500Y-103872530D01*
X165557500Y-104079469D01*
X165597868Y-104282412D01*
X165597870Y-104282420D01*
X165677058Y-104473596D01*
X165792024Y-104645657D01*
X165938342Y-104791975D01*
X165938345Y-104791977D01*
X166110402Y-104906941D01*
X166301580Y-104986130D01*
X166504530Y-105026499D01*
X166504534Y-105026500D01*
X166504535Y-105026500D01*
X166711466Y-105026500D01*
X166711467Y-105026499D01*
X166914420Y-104986130D01*
X167105598Y-104906941D01*
X167277655Y-104791977D01*
X167423977Y-104645655D01*
X167538941Y-104473598D01*
X167618130Y-104282420D01*
X167658500Y-104079465D01*
X167658500Y-103872535D01*
X167618130Y-103669580D01*
X167538941Y-103478402D01*
X167423977Y-103306345D01*
X167423975Y-103306342D01*
X167277657Y-103160024D01*
X167191626Y-103102541D01*
X167105598Y-103045059D01*
X166914420Y-102965870D01*
X166914412Y-102965868D01*
X166711469Y-102925500D01*
X166711465Y-102925500D01*
X166504535Y-102925500D01*
X166504530Y-102925500D01*
X166301587Y-102965868D01*
X166301579Y-102965870D01*
X166110403Y-103045058D01*
X165938342Y-103160024D01*
X165792024Y-103306342D01*
X165677058Y-103478403D01*
X165597870Y-103669579D01*
X165597868Y-103669587D01*
X165557500Y-103872530D01*
X160760523Y-103872530D01*
X160759852Y-100348024D01*
X160779524Y-100280980D01*
X160832319Y-100235215D01*
X160883852Y-100224000D01*
X162227298Y-100224000D01*
X162247706Y-100225690D01*
G37*
%TD.AperFunction*%
%TD*%
M02*
