%TF.GenerationSoftware,KiCad,Pcbnew,10.0.5-unknown-202607221313~667fa36054~ubuntu25.10.1*%
%TF.CreationDate,2026-10-10T11:19:38+00:00*%
%TF.ProjectId,ktest,6b746573-742e-46b6-9963-61645f706362,0.0.2*%
%TF.SameCoordinates,Original*%
%TF.FileFunction,Soldermask,Bot*%
%TF.FilePolarity,Negative*%
%FSLAX46Y46*%
G04 Gerber Fmt 4.6, Leading zero omitted, Abs format (unit mm)*
G04 Created by KiCad (PCBNEW 10.0.5-unknown-202607221313~667fa36054~ubuntu25.10.1) date 2026-10-10 11:19:38*
%MOMM*%
%LPD*%
G01*
G04 APERTURE LIST*
G04 Aperture macros list*
%AMRoundRect*
0 Rectangle with rounded corners*
0 $1 Rounding radius*
0 $2 $3 $4 $5 $6 $7 $8 $9 X,Y pos of 4 corners*
0 Add a 4 corners polygon primitive as box body*
4,1,4,$2,$3,$4,$5,$6,$7,$8,$9,$2,$3,0*
0 Add four circle primitives for the rounded corners*
1,1,$1+$1,$2,$3*
1,1,$1+$1,$4,$5*
1,1,$1+$1,$6,$7*
1,1,$1+$1,$8,$9*
0 Add four rect primitives between the rounded corners*
20,1,$1+$1,$2,$3,$4,$5,0*
20,1,$1+$1,$4,$5,$6,$7,0*
20,1,$1+$1,$6,$7,$8,$9,0*
20,1,$1+$1,$8,$9,$2,$3,0*%
G04 Aperture macros list end*
%ADD10C,0.550000*%
%ADD11C,0.010000*%
%ADD12C,1.000000*%
%ADD13C,1.400000*%
%ADD14C,1.200000*%
%ADD15O,2.600000X1.600000*%
%ADD16C,1.600000*%
%ADD17R,1.600000X2.600000*%
%ADD18RoundRect,0.251867X6.225133X0.827633X-6.225133X0.827633X-6.225133X-0.827633X6.225133X-0.827633X0*%
%ADD19O,1.000000X0.850000*%
%ADD20O,1.000000X1.800000*%
%ADD21RoundRect,0.250000X-0.600000X-0.725000X0.600000X-0.725000X0.600000X0.725000X-0.600000X0.725000X0*%
%ADD22O,1.700000X1.950000*%
%ADD23RoundRect,0.250000X0.600000X0.725000X-0.600000X0.725000X-0.600000X-0.725000X0.600000X-0.725000X0*%
%ADD24RoundRect,0.080000X-0.545000X0.545000X-0.545000X-0.545000X0.545000X-0.545000X0.545000X0.545000X0*%
%ADD25C,1.250000*%
%ADD26R,1.700000X1.700000*%
%ADD27C,1.700000*%
%ADD28C,5.000000*%
G04 APERTURE END LIST*
D10*
X127645000Y-63777000D02*
G75*
G02*
X127095000Y-63777000I-275000J0D01*
G01*
X127095000Y-63777000D02*
G75*
G02*
X127645000Y-63777000I275000J0D01*
G01*
X129423000Y-63777000D02*
G75*
G02*
X128873000Y-63777000I-275000J0D01*
G01*
X128873000Y-63777000D02*
G75*
G02*
X129423000Y-63777000I275000J0D01*
G01*
X146441000Y-64031000D02*
G75*
G02*
X145891000Y-64031000I-275000J0D01*
G01*
X145891000Y-64031000D02*
G75*
G02*
X146441000Y-64031000I275000J0D01*
G01*
X152537000Y-62380000D02*
G75*
G02*
X151987000Y-62380000I-275000J0D01*
G01*
X151987000Y-62380000D02*
G75*
G02*
X152537000Y-62380000I275000J0D01*
G01*
X152664000Y-58570000D02*
G75*
G02*
X152114000Y-58570000I-275000J0D01*
G01*
X152114000Y-58570000D02*
G75*
G02*
X152664000Y-58570000I275000J0D01*
G01*
D11*
X184012000Y-74699000D02*
X196204000Y-74699000D01*
X196204000Y-77349000D01*
X184012000Y-77349000D01*
X184012000Y-74699000D01*
G36*
X184012000Y-74699000D02*
G01*
X196204000Y-74699000D01*
X196204000Y-77349000D01*
X184012000Y-77349000D01*
X184012000Y-74699000D01*
G37*
X184012000Y-77239000D02*
X185790000Y-77239000D01*
X185790000Y-79779000D01*
X184012000Y-79779000D01*
X184012000Y-77239000D01*
G36*
X184012000Y-77239000D02*
G01*
X185790000Y-77239000D01*
X185790000Y-79779000D01*
X184012000Y-79779000D01*
X184012000Y-77239000D01*
G37*
X194426000Y-77239000D02*
X196204000Y-77239000D01*
X196204000Y-79779000D01*
X194426000Y-79779000D01*
X194426000Y-77239000D01*
G36*
X194426000Y-77239000D02*
G01*
X196204000Y-77239000D01*
X196204000Y-79779000D01*
X194426000Y-79779000D01*
X194426000Y-77239000D01*
G37*
D12*
%TO.C,TP13*%
X138546000Y-57173000D03*
%TD*%
%TO.C,TP18*%
X179186000Y-79779000D03*
%TD*%
D13*
%TO.C,JP9*%
X116770000Y-62287000D03*
X116770000Y-67367000D03*
%TD*%
D12*
%TO.C,TP7*%
X173090000Y-71905000D03*
%TD*%
%TO.C,TP10*%
X179186000Y-77493000D03*
%TD*%
%TO.C,TP21*%
X143626000Y-56919000D03*
%TD*%
%TO.C,TP6*%
X161406000Y-84097000D03*
%TD*%
%TO.C,TP8*%
X136006000Y-72667000D03*
%TD*%
D14*
%TO.C,J6*%
X188383000Y-88001000D03*
X191833000Y-88001000D03*
D15*
X187333000Y-78451000D03*
X192883000Y-78451000D03*
D16*
X190108000Y-78451000D03*
D15*
X190108000Y-81851000D03*
X190108000Y-85651000D03*
D17*
X185333000Y-81551000D03*
X185333000Y-87951000D03*
X194883000Y-81551000D03*
X194883000Y-87951000D03*
%TD*%
D12*
%TO.C,TP14*%
X117972000Y-51331000D03*
%TD*%
%TO.C,TP9*%
X137784000Y-61237000D03*
%TD*%
%TO.C,TP5*%
X157596000Y-80795000D03*
%TD*%
D18*
%TO.C,J8*%
X167502000Y-53807500D03*
X167502000Y-50378500D03*
%TD*%
D19*
%TO.C,J5*%
X133807000Y-87947000D03*
X133807000Y-86847000D03*
X133807000Y-85747000D03*
X133807000Y-84647000D03*
X133807000Y-83547000D03*
X133807000Y-82447000D03*
X133807000Y-81347000D03*
X133807000Y-80247000D03*
X135157000Y-80247000D03*
X135157000Y-81347000D03*
X135157000Y-82447000D03*
X135157000Y-83547000D03*
X135157000Y-84647000D03*
X135157000Y-85747000D03*
X135157000Y-86847000D03*
X135157000Y-87947000D03*
D20*
X132332000Y-86597000D03*
X136632000Y-86597000D03*
X132332000Y-81597000D03*
X136632000Y-81597000D03*
%TD*%
D12*
%TO.C,TP15*%
X143626000Y-54633000D03*
%TD*%
%TO.C,TP11*%
X133720000Y-70889000D03*
%TD*%
%TO.C,TP3*%
X122798000Y-77747000D03*
%TD*%
%TO.C,TP16*%
X138546000Y-88161000D03*
%TD*%
%TO.C,TP20*%
X161152000Y-87907000D03*
%TD*%
%TO.C,TP19*%
X117972000Y-53871000D03*
%TD*%
%TO.C,TP4*%
X120512000Y-77747000D03*
%TD*%
%TO.C,TP12*%
X141086000Y-57173000D03*
%TD*%
%TO.C,TP2*%
X159120000Y-70889000D03*
%TD*%
D21*
%TO.C,J1*%
X118032000Y-86366000D03*
D22*
X120532000Y-86366000D03*
X123032000Y-86366000D03*
X125532000Y-86366000D03*
%TD*%
D13*
%TO.C,JP18*%
X156580000Y-58443000D03*
X156580000Y-66063000D03*
%TD*%
D23*
%TO.C,J7*%
X156331300Y-45078000D03*
D22*
X153831300Y-45078000D03*
X151331300Y-45078000D03*
X148831300Y-45078000D03*
X146331300Y-45078000D03*
X143831300Y-45078000D03*
%TD*%
D12*
%TO.C,TP1*%
X159882000Y-80795000D03*
%TD*%
D13*
%TO.C,JP22*%
X158778000Y-56665000D03*
X158778000Y-64285000D03*
%TD*%
D12*
%TO.C,TP17*%
X117210000Y-76477000D03*
%TD*%
D24*
%TO.C,J4*%
X144673500Y-81912600D03*
D25*
X144673500Y-83182600D03*
X145943500Y-81912600D03*
X145943500Y-83182600D03*
X147213500Y-81912600D03*
X147213500Y-83182600D03*
X148483500Y-81912600D03*
X148483500Y-83182600D03*
X149753500Y-81912600D03*
X149753500Y-83182600D03*
%TD*%
D26*
%TO.C,J2*%
X178810000Y-69497000D03*
D27*
X178810000Y-66957000D03*
X178810000Y-64417000D03*
X178810000Y-61877000D03*
%TD*%
D26*
%TO.C,J3*%
X105630000Y-82197000D03*
D27*
X105630000Y-79657000D03*
X105630000Y-77117000D03*
X105630000Y-74577000D03*
X105630000Y-72037000D03*
X105630000Y-69497000D03*
X105630000Y-66957000D03*
X105630000Y-64417000D03*
X105630000Y-61877000D03*
X105630000Y-59337000D03*
X105630000Y-56797000D03*
X105630000Y-54257000D03*
X105630000Y-51717000D03*
X105630000Y-49177000D03*
%TD*%
D28*
%TO.C,TFT1*%
X110550000Y-84047000D03*
X177810000Y-84047000D03*
X110550000Y-47327000D03*
X177810000Y-47327000D03*
%TD*%
M02*
