%TF.GenerationSoftware,KiCad,Pcbnew,10.0.5-unknown-202607221313~667fa36054~ubuntu25.10.1*%
%TF.CreationDate,2026-10-07T18:14:38+00:00*%
%TF.ProjectId,ktest,6b746573-742e-46b6-9963-61645f706362,0.0.2*%
%TF.SameCoordinates,Original*%
%TF.FileFunction,Legend,Top*%
%TF.FilePolarity,Positive*%
%FSLAX46Y46*%
G04 Gerber Fmt 4.6, Leading zero omitted, Abs format (unit mm)*
G04 Created by KiCad (PCBNEW 10.0.5-unknown-202607221313~667fa36054~ubuntu25.10.1) date 2026-10-07 18:14:38*
%MOMM*%
%LPD*%
G01*
G04 APERTURE LIST*
%ADD10C,0.200000*%
%ADD11C,0.150000*%
%ADD12C,0.120000*%
G04 APERTURE END LIST*
D10*
X88417292Y-134411504D02*
X88893482Y-135744838D01*
X89369673Y-134411504D02*
X88893482Y-135744838D01*
X88893482Y-135744838D02*
X88703006Y-136221028D01*
X88703006Y-136221028D02*
X88607768Y-136316266D01*
X88607768Y-136316266D02*
X88417292Y-136411504D01*
X90131578Y-135744838D02*
X90131578Y-134411504D01*
X90131578Y-134792457D02*
X90226816Y-134601980D01*
X90226816Y-134601980D02*
X90322054Y-134506742D01*
X90322054Y-134506742D02*
X90512530Y-134411504D01*
X90512530Y-134411504D02*
X90703007Y-134411504D01*
X93750626Y-134411504D02*
X93750626Y-135744838D01*
X92893483Y-134411504D02*
X92893483Y-135459123D01*
X92893483Y-135459123D02*
X92988721Y-135649600D01*
X92988721Y-135649600D02*
X93179197Y-135744838D01*
X93179197Y-135744838D02*
X93464912Y-135744838D01*
X93464912Y-135744838D02*
X93655388Y-135649600D01*
X93655388Y-135649600D02*
X93750626Y-135554361D01*
X94512531Y-134411504D02*
X94988721Y-135744838D01*
X95464912Y-134411504D02*
X94988721Y-135744838D01*
X94988721Y-135744838D02*
X94798245Y-136221028D01*
X94798245Y-136221028D02*
X94703007Y-136316266D01*
X94703007Y-136316266D02*
X94512531Y-136411504D01*
X96226817Y-135744838D02*
X96226817Y-134411504D01*
X96226817Y-134792457D02*
X96322055Y-134601980D01*
X96322055Y-134601980D02*
X96417293Y-134506742D01*
X96417293Y-134506742D02*
X96607769Y-134411504D01*
X96607769Y-134411504D02*
X96798246Y-134411504D01*
X97179198Y-134411504D02*
X97941102Y-134411504D01*
X97464912Y-133744838D02*
X97464912Y-135459123D01*
X97464912Y-135459123D02*
X97560150Y-135649600D01*
X97560150Y-135649600D02*
X97750626Y-135744838D01*
X97750626Y-135744838D02*
X97941102Y-135744838D01*
X98322055Y-134411504D02*
X99083959Y-134411504D01*
X98607769Y-135744838D02*
X98607769Y-134030552D01*
X98607769Y-134030552D02*
X98703007Y-133840076D01*
X98703007Y-133840076D02*
X98893483Y-133744838D01*
X98893483Y-133744838D02*
X99083959Y-133744838D01*
X101274436Y-135744838D02*
X101274436Y-134411504D01*
X101274436Y-133744838D02*
X101179198Y-133840076D01*
X101179198Y-133840076D02*
X101274436Y-133935314D01*
X101274436Y-133935314D02*
X101369674Y-133840076D01*
X101369674Y-133840076D02*
X101274436Y-133744838D01*
X101274436Y-133744838D02*
X101274436Y-133935314D01*
X102226817Y-135744838D02*
X102226817Y-133744838D01*
X102226817Y-134506742D02*
X102417293Y-134411504D01*
X102417293Y-134411504D02*
X102798246Y-134411504D01*
X102798246Y-134411504D02*
X102988722Y-134506742D01*
X102988722Y-134506742D02*
X103083960Y-134601980D01*
X103083960Y-134601980D02*
X103179198Y-134792457D01*
X103179198Y-134792457D02*
X103179198Y-135363885D01*
X103179198Y-135363885D02*
X103083960Y-135554361D01*
X103083960Y-135554361D02*
X102988722Y-135649600D01*
X102988722Y-135649600D02*
X102798246Y-135744838D01*
X102798246Y-135744838D02*
X102417293Y-135744838D01*
X102417293Y-135744838D02*
X102226817Y-135649600D01*
X104036341Y-135744838D02*
X104036341Y-133744838D01*
X104893484Y-135744838D02*
X104893484Y-134697219D01*
X104893484Y-134697219D02*
X104798246Y-134506742D01*
X104798246Y-134506742D02*
X104607770Y-134411504D01*
X104607770Y-134411504D02*
X104322055Y-134411504D01*
X104322055Y-134411504D02*
X104131579Y-134506742D01*
X104131579Y-134506742D02*
X104036341Y-134601980D01*
X107655389Y-135744838D02*
X107464913Y-135649600D01*
X107464913Y-135649600D02*
X107369675Y-135554361D01*
X107369675Y-135554361D02*
X107274437Y-135363885D01*
X107274437Y-135363885D02*
X107274437Y-134792457D01*
X107274437Y-134792457D02*
X107369675Y-134601980D01*
X107369675Y-134601980D02*
X107464913Y-134506742D01*
X107464913Y-134506742D02*
X107655389Y-134411504D01*
X107655389Y-134411504D02*
X107941104Y-134411504D01*
X107941104Y-134411504D02*
X108131580Y-134506742D01*
X108131580Y-134506742D02*
X108226818Y-134601980D01*
X108226818Y-134601980D02*
X108322056Y-134792457D01*
X108322056Y-134792457D02*
X108322056Y-135363885D01*
X108322056Y-135363885D02*
X108226818Y-135554361D01*
X108226818Y-135554361D02*
X108131580Y-135649600D01*
X108131580Y-135649600D02*
X107941104Y-135744838D01*
X107941104Y-135744838D02*
X107655389Y-135744838D01*
X109179199Y-135744838D02*
X109179199Y-134411504D01*
X109179199Y-133744838D02*
X109083961Y-133840076D01*
X109083961Y-133840076D02*
X109179199Y-133935314D01*
X109179199Y-133935314D02*
X109274437Y-133840076D01*
X109274437Y-133840076D02*
X109179199Y-133744838D01*
X109179199Y-133744838D02*
X109179199Y-133935314D01*
X110131580Y-135744838D02*
X110131580Y-133744838D01*
X110988723Y-135744838D02*
X110988723Y-134697219D01*
X110988723Y-134697219D02*
X110893485Y-134506742D01*
X110893485Y-134506742D02*
X110703009Y-134411504D01*
X110703009Y-134411504D02*
X110417294Y-134411504D01*
X110417294Y-134411504D02*
X110226818Y-134506742D01*
X110226818Y-134506742D02*
X110131580Y-134601980D01*
X111941104Y-135744838D02*
X111941104Y-133744838D01*
X111941104Y-134506742D02*
X112131580Y-134411504D01*
X112131580Y-134411504D02*
X112512533Y-134411504D01*
X112512533Y-134411504D02*
X112703009Y-134506742D01*
X112703009Y-134506742D02*
X112798247Y-134601980D01*
X112798247Y-134601980D02*
X112893485Y-134792457D01*
X112893485Y-134792457D02*
X112893485Y-135363885D01*
X112893485Y-135363885D02*
X112798247Y-135554361D01*
X112798247Y-135554361D02*
X112703009Y-135649600D01*
X112703009Y-135649600D02*
X112512533Y-135744838D01*
X112512533Y-135744838D02*
X112131580Y-135744838D01*
X112131580Y-135744838D02*
X111941104Y-135649600D01*
X113750628Y-134411504D02*
X113750628Y-135744838D01*
X113750628Y-134601980D02*
X113845866Y-134506742D01*
X113845866Y-134506742D02*
X114036342Y-134411504D01*
X114036342Y-134411504D02*
X114322057Y-134411504D01*
X114322057Y-134411504D02*
X114512533Y-134506742D01*
X114512533Y-134506742D02*
X114607771Y-134697219D01*
X114607771Y-134697219D02*
X114607771Y-135744838D01*
X117083962Y-134411504D02*
X117083962Y-136411504D01*
X117083962Y-134506742D02*
X117274438Y-134411504D01*
X117274438Y-134411504D02*
X117655391Y-134411504D01*
X117655391Y-134411504D02*
X117845867Y-134506742D01*
X117845867Y-134506742D02*
X117941105Y-134601980D01*
X117941105Y-134601980D02*
X118036343Y-134792457D01*
X118036343Y-134792457D02*
X118036343Y-135363885D01*
X118036343Y-135363885D02*
X117941105Y-135554361D01*
X117941105Y-135554361D02*
X117845867Y-135649600D01*
X117845867Y-135649600D02*
X117655391Y-135744838D01*
X117655391Y-135744838D02*
X117274438Y-135744838D01*
X117274438Y-135744838D02*
X117083962Y-135649600D01*
X119179200Y-135744838D02*
X118988724Y-135649600D01*
X118988724Y-135649600D02*
X118893486Y-135554361D01*
X118893486Y-135554361D02*
X118798248Y-135363885D01*
X118798248Y-135363885D02*
X118798248Y-134792457D01*
X118798248Y-134792457D02*
X118893486Y-134601980D01*
X118893486Y-134601980D02*
X118988724Y-134506742D01*
X118988724Y-134506742D02*
X119179200Y-134411504D01*
X119179200Y-134411504D02*
X119464915Y-134411504D01*
X119464915Y-134411504D02*
X119655391Y-134506742D01*
X119655391Y-134506742D02*
X119750629Y-134601980D01*
X119750629Y-134601980D02*
X119845867Y-134792457D01*
X119845867Y-134792457D02*
X119845867Y-135363885D01*
X119845867Y-135363885D02*
X119750629Y-135554361D01*
X119750629Y-135554361D02*
X119655391Y-135649600D01*
X119655391Y-135649600D02*
X119464915Y-135744838D01*
X119464915Y-135744838D02*
X119179200Y-135744838D01*
X120703010Y-135744838D02*
X120703010Y-134411504D01*
X120703010Y-133744838D02*
X120607772Y-133840076D01*
X120607772Y-133840076D02*
X120703010Y-133935314D01*
X120703010Y-133935314D02*
X120798248Y-133840076D01*
X120798248Y-133840076D02*
X120703010Y-133744838D01*
X120703010Y-133744838D02*
X120703010Y-133935314D01*
X122512534Y-134411504D02*
X122512534Y-135744838D01*
X121655391Y-134411504D02*
X121655391Y-135459123D01*
X121655391Y-135459123D02*
X121750629Y-135649600D01*
X121750629Y-135649600D02*
X121941105Y-135744838D01*
X121941105Y-135744838D02*
X122226820Y-135744838D01*
X122226820Y-135744838D02*
X122417296Y-135649600D01*
X122417296Y-135649600D02*
X122512534Y-135554361D01*
X123464915Y-135744838D02*
X123464915Y-133744838D01*
X124322058Y-135744838D02*
X124322058Y-134697219D01*
X124322058Y-134697219D02*
X124226820Y-134506742D01*
X124226820Y-134506742D02*
X124036344Y-134411504D01*
X124036344Y-134411504D02*
X123750629Y-134411504D01*
X123750629Y-134411504D02*
X123560153Y-134506742D01*
X123560153Y-134506742D02*
X123464915Y-134601980D01*
D11*
X159116905Y-64229819D02*
X159116905Y-63229819D01*
X159116905Y-63229819D02*
X159355000Y-63229819D01*
X159355000Y-63229819D02*
X159497857Y-63277438D01*
X159497857Y-63277438D02*
X159593095Y-63372676D01*
X159593095Y-63372676D02*
X159640714Y-63467914D01*
X159640714Y-63467914D02*
X159688333Y-63658390D01*
X159688333Y-63658390D02*
X159688333Y-63801247D01*
X159688333Y-63801247D02*
X159640714Y-63991723D01*
X159640714Y-63991723D02*
X159593095Y-64086961D01*
X159593095Y-64086961D02*
X159497857Y-64182200D01*
X159497857Y-64182200D02*
X159355000Y-64229819D01*
X159355000Y-64229819D02*
X159116905Y-64229819D01*
X160021667Y-63229819D02*
X160640714Y-63229819D01*
X160640714Y-63229819D02*
X160307381Y-63610771D01*
X160307381Y-63610771D02*
X160450238Y-63610771D01*
X160450238Y-63610771D02*
X160545476Y-63658390D01*
X160545476Y-63658390D02*
X160593095Y-63706009D01*
X160593095Y-63706009D02*
X160640714Y-63801247D01*
X160640714Y-63801247D02*
X160640714Y-64039342D01*
X160640714Y-64039342D02*
X160593095Y-64134580D01*
X160593095Y-64134580D02*
X160545476Y-64182200D01*
X160545476Y-64182200D02*
X160450238Y-64229819D01*
X160450238Y-64229819D02*
X160164524Y-64229819D01*
X160164524Y-64229819D02*
X160069286Y-64182200D01*
X160069286Y-64182200D02*
X160021667Y-64134580D01*
X141812142Y-73129819D02*
X141478809Y-72653628D01*
X141240714Y-73129819D02*
X141240714Y-72129819D01*
X141240714Y-72129819D02*
X141621666Y-72129819D01*
X141621666Y-72129819D02*
X141716904Y-72177438D01*
X141716904Y-72177438D02*
X141764523Y-72225057D01*
X141764523Y-72225057D02*
X141812142Y-72320295D01*
X141812142Y-72320295D02*
X141812142Y-72463152D01*
X141812142Y-72463152D02*
X141764523Y-72558390D01*
X141764523Y-72558390D02*
X141716904Y-72606009D01*
X141716904Y-72606009D02*
X141621666Y-72653628D01*
X141621666Y-72653628D02*
X141240714Y-72653628D01*
X142764523Y-73129819D02*
X142193095Y-73129819D01*
X142478809Y-73129819D02*
X142478809Y-72129819D01*
X142478809Y-72129819D02*
X142383571Y-72272676D01*
X142383571Y-72272676D02*
X142288333Y-72367914D01*
X142288333Y-72367914D02*
X142193095Y-72415533D01*
X143621666Y-72463152D02*
X143621666Y-73129819D01*
X143383571Y-72082200D02*
X143145476Y-72796485D01*
X143145476Y-72796485D02*
X143764523Y-72796485D01*
X140343095Y-91379819D02*
X140343095Y-92189342D01*
X140343095Y-92189342D02*
X140390714Y-92284580D01*
X140390714Y-92284580D02*
X140438333Y-92332200D01*
X140438333Y-92332200D02*
X140533571Y-92379819D01*
X140533571Y-92379819D02*
X140724047Y-92379819D01*
X140724047Y-92379819D02*
X140819285Y-92332200D01*
X140819285Y-92332200D02*
X140866904Y-92284580D01*
X140866904Y-92284580D02*
X140914523Y-92189342D01*
X140914523Y-92189342D02*
X140914523Y-91379819D01*
X141914523Y-92379819D02*
X141343095Y-92379819D01*
X141628809Y-92379819D02*
X141628809Y-91379819D01*
X141628809Y-91379819D02*
X141533571Y-91522676D01*
X141533571Y-91522676D02*
X141438333Y-91617914D01*
X141438333Y-91617914D02*
X141343095Y-91665533D01*
X113882142Y-69204580D02*
X113834523Y-69252200D01*
X113834523Y-69252200D02*
X113691666Y-69299819D01*
X113691666Y-69299819D02*
X113596428Y-69299819D01*
X113596428Y-69299819D02*
X113453571Y-69252200D01*
X113453571Y-69252200D02*
X113358333Y-69156961D01*
X113358333Y-69156961D02*
X113310714Y-69061723D01*
X113310714Y-69061723D02*
X113263095Y-68871247D01*
X113263095Y-68871247D02*
X113263095Y-68728390D01*
X113263095Y-68728390D02*
X113310714Y-68537914D01*
X113310714Y-68537914D02*
X113358333Y-68442676D01*
X113358333Y-68442676D02*
X113453571Y-68347438D01*
X113453571Y-68347438D02*
X113596428Y-68299819D01*
X113596428Y-68299819D02*
X113691666Y-68299819D01*
X113691666Y-68299819D02*
X113834523Y-68347438D01*
X113834523Y-68347438D02*
X113882142Y-68395057D01*
X114834523Y-69299819D02*
X114263095Y-69299819D01*
X114548809Y-69299819D02*
X114548809Y-68299819D01*
X114548809Y-68299819D02*
X114453571Y-68442676D01*
X114453571Y-68442676D02*
X114358333Y-68537914D01*
X114358333Y-68537914D02*
X114263095Y-68585533D01*
X115167857Y-68299819D02*
X115786904Y-68299819D01*
X115786904Y-68299819D02*
X115453571Y-68680771D01*
X115453571Y-68680771D02*
X115596428Y-68680771D01*
X115596428Y-68680771D02*
X115691666Y-68728390D01*
X115691666Y-68728390D02*
X115739285Y-68776009D01*
X115739285Y-68776009D02*
X115786904Y-68871247D01*
X115786904Y-68871247D02*
X115786904Y-69109342D01*
X115786904Y-69109342D02*
X115739285Y-69204580D01*
X115739285Y-69204580D02*
X115691666Y-69252200D01*
X115691666Y-69252200D02*
X115596428Y-69299819D01*
X115596428Y-69299819D02*
X115310714Y-69299819D01*
X115310714Y-69299819D02*
X115215476Y-69252200D01*
X115215476Y-69252200D02*
X115167857Y-69204580D01*
X141812142Y-81979819D02*
X141478809Y-81503628D01*
X141240714Y-81979819D02*
X141240714Y-80979819D01*
X141240714Y-80979819D02*
X141621666Y-80979819D01*
X141621666Y-80979819D02*
X141716904Y-81027438D01*
X141716904Y-81027438D02*
X141764523Y-81075057D01*
X141764523Y-81075057D02*
X141812142Y-81170295D01*
X141812142Y-81170295D02*
X141812142Y-81313152D01*
X141812142Y-81313152D02*
X141764523Y-81408390D01*
X141764523Y-81408390D02*
X141716904Y-81456009D01*
X141716904Y-81456009D02*
X141621666Y-81503628D01*
X141621666Y-81503628D02*
X141240714Y-81503628D01*
X142764523Y-81979819D02*
X142193095Y-81979819D01*
X142478809Y-81979819D02*
X142478809Y-80979819D01*
X142478809Y-80979819D02*
X142383571Y-81122676D01*
X142383571Y-81122676D02*
X142288333Y-81217914D01*
X142288333Y-81217914D02*
X142193095Y-81265533D01*
X143097857Y-80979819D02*
X143764523Y-80979819D01*
X143764523Y-80979819D02*
X143335952Y-81979819D01*
X156357142Y-113204819D02*
X156023809Y-112728628D01*
X155785714Y-113204819D02*
X155785714Y-112204819D01*
X155785714Y-112204819D02*
X156166666Y-112204819D01*
X156166666Y-112204819D02*
X156261904Y-112252438D01*
X156261904Y-112252438D02*
X156309523Y-112300057D01*
X156309523Y-112300057D02*
X156357142Y-112395295D01*
X156357142Y-112395295D02*
X156357142Y-112538152D01*
X156357142Y-112538152D02*
X156309523Y-112633390D01*
X156309523Y-112633390D02*
X156261904Y-112681009D01*
X156261904Y-112681009D02*
X156166666Y-112728628D01*
X156166666Y-112728628D02*
X155785714Y-112728628D01*
X157309523Y-113204819D02*
X156738095Y-113204819D01*
X157023809Y-113204819D02*
X157023809Y-112204819D01*
X157023809Y-112204819D02*
X156928571Y-112347676D01*
X156928571Y-112347676D02*
X156833333Y-112442914D01*
X156833333Y-112442914D02*
X156738095Y-112490533D01*
X157880952Y-112633390D02*
X157785714Y-112585771D01*
X157785714Y-112585771D02*
X157738095Y-112538152D01*
X157738095Y-112538152D02*
X157690476Y-112442914D01*
X157690476Y-112442914D02*
X157690476Y-112395295D01*
X157690476Y-112395295D02*
X157738095Y-112300057D01*
X157738095Y-112300057D02*
X157785714Y-112252438D01*
X157785714Y-112252438D02*
X157880952Y-112204819D01*
X157880952Y-112204819D02*
X158071428Y-112204819D01*
X158071428Y-112204819D02*
X158166666Y-112252438D01*
X158166666Y-112252438D02*
X158214285Y-112300057D01*
X158214285Y-112300057D02*
X158261904Y-112395295D01*
X158261904Y-112395295D02*
X158261904Y-112442914D01*
X158261904Y-112442914D02*
X158214285Y-112538152D01*
X158214285Y-112538152D02*
X158166666Y-112585771D01*
X158166666Y-112585771D02*
X158071428Y-112633390D01*
X158071428Y-112633390D02*
X157880952Y-112633390D01*
X157880952Y-112633390D02*
X157785714Y-112681009D01*
X157785714Y-112681009D02*
X157738095Y-112728628D01*
X157738095Y-112728628D02*
X157690476Y-112823866D01*
X157690476Y-112823866D02*
X157690476Y-113014342D01*
X157690476Y-113014342D02*
X157738095Y-113109580D01*
X157738095Y-113109580D02*
X157785714Y-113157200D01*
X157785714Y-113157200D02*
X157880952Y-113204819D01*
X157880952Y-113204819D02*
X158071428Y-113204819D01*
X158071428Y-113204819D02*
X158166666Y-113157200D01*
X158166666Y-113157200D02*
X158214285Y-113109580D01*
X158214285Y-113109580D02*
X158261904Y-113014342D01*
X158261904Y-113014342D02*
X158261904Y-112823866D01*
X158261904Y-112823866D02*
X158214285Y-112728628D01*
X158214285Y-112728628D02*
X158166666Y-112681009D01*
X158166666Y-112681009D02*
X158071428Y-112633390D01*
X146656905Y-86829819D02*
X146656905Y-85829819D01*
X146656905Y-85829819D02*
X146895000Y-85829819D01*
X146895000Y-85829819D02*
X147037857Y-85877438D01*
X147037857Y-85877438D02*
X147133095Y-85972676D01*
X147133095Y-85972676D02*
X147180714Y-86067914D01*
X147180714Y-86067914D02*
X147228333Y-86258390D01*
X147228333Y-86258390D02*
X147228333Y-86401247D01*
X147228333Y-86401247D02*
X147180714Y-86591723D01*
X147180714Y-86591723D02*
X147133095Y-86686961D01*
X147133095Y-86686961D02*
X147037857Y-86782200D01*
X147037857Y-86782200D02*
X146895000Y-86829819D01*
X146895000Y-86829819D02*
X146656905Y-86829819D01*
X147609286Y-85925057D02*
X147656905Y-85877438D01*
X147656905Y-85877438D02*
X147752143Y-85829819D01*
X147752143Y-85829819D02*
X147990238Y-85829819D01*
X147990238Y-85829819D02*
X148085476Y-85877438D01*
X148085476Y-85877438D02*
X148133095Y-85925057D01*
X148133095Y-85925057D02*
X148180714Y-86020295D01*
X148180714Y-86020295D02*
X148180714Y-86115533D01*
X148180714Y-86115533D02*
X148133095Y-86258390D01*
X148133095Y-86258390D02*
X147561667Y-86829819D01*
X147561667Y-86829819D02*
X148180714Y-86829819D01*
X110008333Y-71714580D02*
X109960714Y-71762200D01*
X109960714Y-71762200D02*
X109817857Y-71809819D01*
X109817857Y-71809819D02*
X109722619Y-71809819D01*
X109722619Y-71809819D02*
X109579762Y-71762200D01*
X109579762Y-71762200D02*
X109484524Y-71666961D01*
X109484524Y-71666961D02*
X109436905Y-71571723D01*
X109436905Y-71571723D02*
X109389286Y-71381247D01*
X109389286Y-71381247D02*
X109389286Y-71238390D01*
X109389286Y-71238390D02*
X109436905Y-71047914D01*
X109436905Y-71047914D02*
X109484524Y-70952676D01*
X109484524Y-70952676D02*
X109579762Y-70857438D01*
X109579762Y-70857438D02*
X109722619Y-70809819D01*
X109722619Y-70809819D02*
X109817857Y-70809819D01*
X109817857Y-70809819D02*
X109960714Y-70857438D01*
X109960714Y-70857438D02*
X110008333Y-70905057D01*
X110579762Y-71238390D02*
X110484524Y-71190771D01*
X110484524Y-71190771D02*
X110436905Y-71143152D01*
X110436905Y-71143152D02*
X110389286Y-71047914D01*
X110389286Y-71047914D02*
X110389286Y-71000295D01*
X110389286Y-71000295D02*
X110436905Y-70905057D01*
X110436905Y-70905057D02*
X110484524Y-70857438D01*
X110484524Y-70857438D02*
X110579762Y-70809819D01*
X110579762Y-70809819D02*
X110770238Y-70809819D01*
X110770238Y-70809819D02*
X110865476Y-70857438D01*
X110865476Y-70857438D02*
X110913095Y-70905057D01*
X110913095Y-70905057D02*
X110960714Y-71000295D01*
X110960714Y-71000295D02*
X110960714Y-71047914D01*
X110960714Y-71047914D02*
X110913095Y-71143152D01*
X110913095Y-71143152D02*
X110865476Y-71190771D01*
X110865476Y-71190771D02*
X110770238Y-71238390D01*
X110770238Y-71238390D02*
X110579762Y-71238390D01*
X110579762Y-71238390D02*
X110484524Y-71286009D01*
X110484524Y-71286009D02*
X110436905Y-71333628D01*
X110436905Y-71333628D02*
X110389286Y-71428866D01*
X110389286Y-71428866D02*
X110389286Y-71619342D01*
X110389286Y-71619342D02*
X110436905Y-71714580D01*
X110436905Y-71714580D02*
X110484524Y-71762200D01*
X110484524Y-71762200D02*
X110579762Y-71809819D01*
X110579762Y-71809819D02*
X110770238Y-71809819D01*
X110770238Y-71809819D02*
X110865476Y-71762200D01*
X110865476Y-71762200D02*
X110913095Y-71714580D01*
X110913095Y-71714580D02*
X110960714Y-71619342D01*
X110960714Y-71619342D02*
X110960714Y-71428866D01*
X110960714Y-71428866D02*
X110913095Y-71333628D01*
X110913095Y-71333628D02*
X110865476Y-71286009D01*
X110865476Y-71286009D02*
X110770238Y-71238390D01*
X140857142Y-116304819D02*
X140523809Y-115828628D01*
X140285714Y-116304819D02*
X140285714Y-115304819D01*
X140285714Y-115304819D02*
X140666666Y-115304819D01*
X140666666Y-115304819D02*
X140761904Y-115352438D01*
X140761904Y-115352438D02*
X140809523Y-115400057D01*
X140809523Y-115400057D02*
X140857142Y-115495295D01*
X140857142Y-115495295D02*
X140857142Y-115638152D01*
X140857142Y-115638152D02*
X140809523Y-115733390D01*
X140809523Y-115733390D02*
X140761904Y-115781009D01*
X140761904Y-115781009D02*
X140666666Y-115828628D01*
X140666666Y-115828628D02*
X140285714Y-115828628D01*
X141809523Y-116304819D02*
X141238095Y-116304819D01*
X141523809Y-116304819D02*
X141523809Y-115304819D01*
X141523809Y-115304819D02*
X141428571Y-115447676D01*
X141428571Y-115447676D02*
X141333333Y-115542914D01*
X141333333Y-115542914D02*
X141238095Y-115590533D01*
X142666666Y-115304819D02*
X142476190Y-115304819D01*
X142476190Y-115304819D02*
X142380952Y-115352438D01*
X142380952Y-115352438D02*
X142333333Y-115400057D01*
X142333333Y-115400057D02*
X142238095Y-115542914D01*
X142238095Y-115542914D02*
X142190476Y-115733390D01*
X142190476Y-115733390D02*
X142190476Y-116114342D01*
X142190476Y-116114342D02*
X142238095Y-116209580D01*
X142238095Y-116209580D02*
X142285714Y-116257200D01*
X142285714Y-116257200D02*
X142380952Y-116304819D01*
X142380952Y-116304819D02*
X142571428Y-116304819D01*
X142571428Y-116304819D02*
X142666666Y-116257200D01*
X142666666Y-116257200D02*
X142714285Y-116209580D01*
X142714285Y-116209580D02*
X142761904Y-116114342D01*
X142761904Y-116114342D02*
X142761904Y-115876247D01*
X142761904Y-115876247D02*
X142714285Y-115781009D01*
X142714285Y-115781009D02*
X142666666Y-115733390D01*
X142666666Y-115733390D02*
X142571428Y-115685771D01*
X142571428Y-115685771D02*
X142380952Y-115685771D01*
X142380952Y-115685771D02*
X142285714Y-115733390D01*
X142285714Y-115733390D02*
X142238095Y-115781009D01*
X142238095Y-115781009D02*
X142190476Y-115876247D01*
X85970833Y-93567080D02*
X85923214Y-93614700D01*
X85923214Y-93614700D02*
X85780357Y-93662319D01*
X85780357Y-93662319D02*
X85685119Y-93662319D01*
X85685119Y-93662319D02*
X85542262Y-93614700D01*
X85542262Y-93614700D02*
X85447024Y-93519461D01*
X85447024Y-93519461D02*
X85399405Y-93424223D01*
X85399405Y-93424223D02*
X85351786Y-93233747D01*
X85351786Y-93233747D02*
X85351786Y-93090890D01*
X85351786Y-93090890D02*
X85399405Y-92900414D01*
X85399405Y-92900414D02*
X85447024Y-92805176D01*
X85447024Y-92805176D02*
X85542262Y-92709938D01*
X85542262Y-92709938D02*
X85685119Y-92662319D01*
X85685119Y-92662319D02*
X85780357Y-92662319D01*
X85780357Y-92662319D02*
X85923214Y-92709938D01*
X85923214Y-92709938D02*
X85970833Y-92757557D01*
X86304167Y-92662319D02*
X86970833Y-92662319D01*
X86970833Y-92662319D02*
X86542262Y-93662319D01*
X85970833Y-85567080D02*
X85923214Y-85614700D01*
X85923214Y-85614700D02*
X85780357Y-85662319D01*
X85780357Y-85662319D02*
X85685119Y-85662319D01*
X85685119Y-85662319D02*
X85542262Y-85614700D01*
X85542262Y-85614700D02*
X85447024Y-85519461D01*
X85447024Y-85519461D02*
X85399405Y-85424223D01*
X85399405Y-85424223D02*
X85351786Y-85233747D01*
X85351786Y-85233747D02*
X85351786Y-85090890D01*
X85351786Y-85090890D02*
X85399405Y-84900414D01*
X85399405Y-84900414D02*
X85447024Y-84805176D01*
X85447024Y-84805176D02*
X85542262Y-84709938D01*
X85542262Y-84709938D02*
X85685119Y-84662319D01*
X85685119Y-84662319D02*
X85780357Y-84662319D01*
X85780357Y-84662319D02*
X85923214Y-84709938D01*
X85923214Y-84709938D02*
X85970833Y-84757557D01*
X86875595Y-84662319D02*
X86399405Y-84662319D01*
X86399405Y-84662319D02*
X86351786Y-85138509D01*
X86351786Y-85138509D02*
X86399405Y-85090890D01*
X86399405Y-85090890D02*
X86494643Y-85043271D01*
X86494643Y-85043271D02*
X86732738Y-85043271D01*
X86732738Y-85043271D02*
X86827976Y-85090890D01*
X86827976Y-85090890D02*
X86875595Y-85138509D01*
X86875595Y-85138509D02*
X86923214Y-85233747D01*
X86923214Y-85233747D02*
X86923214Y-85471842D01*
X86923214Y-85471842D02*
X86875595Y-85567080D01*
X86875595Y-85567080D02*
X86827976Y-85614700D01*
X86827976Y-85614700D02*
X86732738Y-85662319D01*
X86732738Y-85662319D02*
X86494643Y-85662319D01*
X86494643Y-85662319D02*
X86399405Y-85614700D01*
X86399405Y-85614700D02*
X86351786Y-85567080D01*
X127898333Y-90129819D02*
X127565000Y-89653628D01*
X127326905Y-90129819D02*
X127326905Y-89129819D01*
X127326905Y-89129819D02*
X127707857Y-89129819D01*
X127707857Y-89129819D02*
X127803095Y-89177438D01*
X127803095Y-89177438D02*
X127850714Y-89225057D01*
X127850714Y-89225057D02*
X127898333Y-89320295D01*
X127898333Y-89320295D02*
X127898333Y-89463152D01*
X127898333Y-89463152D02*
X127850714Y-89558390D01*
X127850714Y-89558390D02*
X127803095Y-89606009D01*
X127803095Y-89606009D02*
X127707857Y-89653628D01*
X127707857Y-89653628D02*
X127326905Y-89653628D01*
X128279286Y-89225057D02*
X128326905Y-89177438D01*
X128326905Y-89177438D02*
X128422143Y-89129819D01*
X128422143Y-89129819D02*
X128660238Y-89129819D01*
X128660238Y-89129819D02*
X128755476Y-89177438D01*
X128755476Y-89177438D02*
X128803095Y-89225057D01*
X128803095Y-89225057D02*
X128850714Y-89320295D01*
X128850714Y-89320295D02*
X128850714Y-89415533D01*
X128850714Y-89415533D02*
X128803095Y-89558390D01*
X128803095Y-89558390D02*
X128231667Y-90129819D01*
X128231667Y-90129819D02*
X128850714Y-90129819D01*
X113882142Y-74224580D02*
X113834523Y-74272200D01*
X113834523Y-74272200D02*
X113691666Y-74319819D01*
X113691666Y-74319819D02*
X113596428Y-74319819D01*
X113596428Y-74319819D02*
X113453571Y-74272200D01*
X113453571Y-74272200D02*
X113358333Y-74176961D01*
X113358333Y-74176961D02*
X113310714Y-74081723D01*
X113310714Y-74081723D02*
X113263095Y-73891247D01*
X113263095Y-73891247D02*
X113263095Y-73748390D01*
X113263095Y-73748390D02*
X113310714Y-73557914D01*
X113310714Y-73557914D02*
X113358333Y-73462676D01*
X113358333Y-73462676D02*
X113453571Y-73367438D01*
X113453571Y-73367438D02*
X113596428Y-73319819D01*
X113596428Y-73319819D02*
X113691666Y-73319819D01*
X113691666Y-73319819D02*
X113834523Y-73367438D01*
X113834523Y-73367438D02*
X113882142Y-73415057D01*
X114834523Y-74319819D02*
X114263095Y-74319819D01*
X114548809Y-74319819D02*
X114548809Y-73319819D01*
X114548809Y-73319819D02*
X114453571Y-73462676D01*
X114453571Y-73462676D02*
X114358333Y-73557914D01*
X114358333Y-73557914D02*
X114263095Y-73605533D01*
X115739285Y-73319819D02*
X115263095Y-73319819D01*
X115263095Y-73319819D02*
X115215476Y-73796009D01*
X115215476Y-73796009D02*
X115263095Y-73748390D01*
X115263095Y-73748390D02*
X115358333Y-73700771D01*
X115358333Y-73700771D02*
X115596428Y-73700771D01*
X115596428Y-73700771D02*
X115691666Y-73748390D01*
X115691666Y-73748390D02*
X115739285Y-73796009D01*
X115739285Y-73796009D02*
X115786904Y-73891247D01*
X115786904Y-73891247D02*
X115786904Y-74129342D01*
X115786904Y-74129342D02*
X115739285Y-74224580D01*
X115739285Y-74224580D02*
X115691666Y-74272200D01*
X115691666Y-74272200D02*
X115596428Y-74319819D01*
X115596428Y-74319819D02*
X115358333Y-74319819D01*
X115358333Y-74319819D02*
X115263095Y-74272200D01*
X115263095Y-74272200D02*
X115215476Y-74224580D01*
X123256905Y-88429819D02*
X123256905Y-87429819D01*
X123256905Y-87429819D02*
X123495000Y-87429819D01*
X123495000Y-87429819D02*
X123637857Y-87477438D01*
X123637857Y-87477438D02*
X123733095Y-87572676D01*
X123733095Y-87572676D02*
X123780714Y-87667914D01*
X123780714Y-87667914D02*
X123828333Y-87858390D01*
X123828333Y-87858390D02*
X123828333Y-88001247D01*
X123828333Y-88001247D02*
X123780714Y-88191723D01*
X123780714Y-88191723D02*
X123733095Y-88286961D01*
X123733095Y-88286961D02*
X123637857Y-88382200D01*
X123637857Y-88382200D02*
X123495000Y-88429819D01*
X123495000Y-88429819D02*
X123256905Y-88429819D01*
X124780714Y-88429819D02*
X124209286Y-88429819D01*
X124495000Y-88429819D02*
X124495000Y-87429819D01*
X124495000Y-87429819D02*
X124399762Y-87572676D01*
X124399762Y-87572676D02*
X124304524Y-87667914D01*
X124304524Y-87667914D02*
X124209286Y-87715533D01*
X85970833Y-97567080D02*
X85923214Y-97614700D01*
X85923214Y-97614700D02*
X85780357Y-97662319D01*
X85780357Y-97662319D02*
X85685119Y-97662319D01*
X85685119Y-97662319D02*
X85542262Y-97614700D01*
X85542262Y-97614700D02*
X85447024Y-97519461D01*
X85447024Y-97519461D02*
X85399405Y-97424223D01*
X85399405Y-97424223D02*
X85351786Y-97233747D01*
X85351786Y-97233747D02*
X85351786Y-97090890D01*
X85351786Y-97090890D02*
X85399405Y-96900414D01*
X85399405Y-96900414D02*
X85447024Y-96805176D01*
X85447024Y-96805176D02*
X85542262Y-96709938D01*
X85542262Y-96709938D02*
X85685119Y-96662319D01*
X85685119Y-96662319D02*
X85780357Y-96662319D01*
X85780357Y-96662319D02*
X85923214Y-96709938D01*
X85923214Y-96709938D02*
X85970833Y-96757557D01*
X86542262Y-97090890D02*
X86447024Y-97043271D01*
X86447024Y-97043271D02*
X86399405Y-96995652D01*
X86399405Y-96995652D02*
X86351786Y-96900414D01*
X86351786Y-96900414D02*
X86351786Y-96852795D01*
X86351786Y-96852795D02*
X86399405Y-96757557D01*
X86399405Y-96757557D02*
X86447024Y-96709938D01*
X86447024Y-96709938D02*
X86542262Y-96662319D01*
X86542262Y-96662319D02*
X86732738Y-96662319D01*
X86732738Y-96662319D02*
X86827976Y-96709938D01*
X86827976Y-96709938D02*
X86875595Y-96757557D01*
X86875595Y-96757557D02*
X86923214Y-96852795D01*
X86923214Y-96852795D02*
X86923214Y-96900414D01*
X86923214Y-96900414D02*
X86875595Y-96995652D01*
X86875595Y-96995652D02*
X86827976Y-97043271D01*
X86827976Y-97043271D02*
X86732738Y-97090890D01*
X86732738Y-97090890D02*
X86542262Y-97090890D01*
X86542262Y-97090890D02*
X86447024Y-97138509D01*
X86447024Y-97138509D02*
X86399405Y-97186128D01*
X86399405Y-97186128D02*
X86351786Y-97281366D01*
X86351786Y-97281366D02*
X86351786Y-97471842D01*
X86351786Y-97471842D02*
X86399405Y-97567080D01*
X86399405Y-97567080D02*
X86447024Y-97614700D01*
X86447024Y-97614700D02*
X86542262Y-97662319D01*
X86542262Y-97662319D02*
X86732738Y-97662319D01*
X86732738Y-97662319D02*
X86827976Y-97614700D01*
X86827976Y-97614700D02*
X86875595Y-97567080D01*
X86875595Y-97567080D02*
X86923214Y-97471842D01*
X86923214Y-97471842D02*
X86923214Y-97281366D01*
X86923214Y-97281366D02*
X86875595Y-97186128D01*
X86875595Y-97186128D02*
X86827976Y-97138509D01*
X86827976Y-97138509D02*
X86732738Y-97090890D01*
X91494642Y-97567080D02*
X91447023Y-97614700D01*
X91447023Y-97614700D02*
X91304166Y-97662319D01*
X91304166Y-97662319D02*
X91208928Y-97662319D01*
X91208928Y-97662319D02*
X91066071Y-97614700D01*
X91066071Y-97614700D02*
X90970833Y-97519461D01*
X90970833Y-97519461D02*
X90923214Y-97424223D01*
X90923214Y-97424223D02*
X90875595Y-97233747D01*
X90875595Y-97233747D02*
X90875595Y-97090890D01*
X90875595Y-97090890D02*
X90923214Y-96900414D01*
X90923214Y-96900414D02*
X90970833Y-96805176D01*
X90970833Y-96805176D02*
X91066071Y-96709938D01*
X91066071Y-96709938D02*
X91208928Y-96662319D01*
X91208928Y-96662319D02*
X91304166Y-96662319D01*
X91304166Y-96662319D02*
X91447023Y-96709938D01*
X91447023Y-96709938D02*
X91494642Y-96757557D01*
X92447023Y-97662319D02*
X91875595Y-97662319D01*
X92161309Y-97662319D02*
X92161309Y-96662319D01*
X92161309Y-96662319D02*
X92066071Y-96805176D01*
X92066071Y-96805176D02*
X91970833Y-96900414D01*
X91970833Y-96900414D02*
X91875595Y-96948033D01*
X93018452Y-97090890D02*
X92923214Y-97043271D01*
X92923214Y-97043271D02*
X92875595Y-96995652D01*
X92875595Y-96995652D02*
X92827976Y-96900414D01*
X92827976Y-96900414D02*
X92827976Y-96852795D01*
X92827976Y-96852795D02*
X92875595Y-96757557D01*
X92875595Y-96757557D02*
X92923214Y-96709938D01*
X92923214Y-96709938D02*
X93018452Y-96662319D01*
X93018452Y-96662319D02*
X93208928Y-96662319D01*
X93208928Y-96662319D02*
X93304166Y-96709938D01*
X93304166Y-96709938D02*
X93351785Y-96757557D01*
X93351785Y-96757557D02*
X93399404Y-96852795D01*
X93399404Y-96852795D02*
X93399404Y-96900414D01*
X93399404Y-96900414D02*
X93351785Y-96995652D01*
X93351785Y-96995652D02*
X93304166Y-97043271D01*
X93304166Y-97043271D02*
X93208928Y-97090890D01*
X93208928Y-97090890D02*
X93018452Y-97090890D01*
X93018452Y-97090890D02*
X92923214Y-97138509D01*
X92923214Y-97138509D02*
X92875595Y-97186128D01*
X92875595Y-97186128D02*
X92827976Y-97281366D01*
X92827976Y-97281366D02*
X92827976Y-97471842D01*
X92827976Y-97471842D02*
X92875595Y-97567080D01*
X92875595Y-97567080D02*
X92923214Y-97614700D01*
X92923214Y-97614700D02*
X93018452Y-97662319D01*
X93018452Y-97662319D02*
X93208928Y-97662319D01*
X93208928Y-97662319D02*
X93304166Y-97614700D01*
X93304166Y-97614700D02*
X93351785Y-97567080D01*
X93351785Y-97567080D02*
X93399404Y-97471842D01*
X93399404Y-97471842D02*
X93399404Y-97281366D01*
X93399404Y-97281366D02*
X93351785Y-97186128D01*
X93351785Y-97186128D02*
X93304166Y-97138509D01*
X93304166Y-97138509D02*
X93208928Y-97090890D01*
X85494642Y-113567080D02*
X85447023Y-113614700D01*
X85447023Y-113614700D02*
X85304166Y-113662319D01*
X85304166Y-113662319D02*
X85208928Y-113662319D01*
X85208928Y-113662319D02*
X85066071Y-113614700D01*
X85066071Y-113614700D02*
X84970833Y-113519461D01*
X84970833Y-113519461D02*
X84923214Y-113424223D01*
X84923214Y-113424223D02*
X84875595Y-113233747D01*
X84875595Y-113233747D02*
X84875595Y-113090890D01*
X84875595Y-113090890D02*
X84923214Y-112900414D01*
X84923214Y-112900414D02*
X84970833Y-112805176D01*
X84970833Y-112805176D02*
X85066071Y-112709938D01*
X85066071Y-112709938D02*
X85208928Y-112662319D01*
X85208928Y-112662319D02*
X85304166Y-112662319D01*
X85304166Y-112662319D02*
X85447023Y-112709938D01*
X85447023Y-112709938D02*
X85494642Y-112757557D01*
X86447023Y-113662319D02*
X85875595Y-113662319D01*
X86161309Y-113662319D02*
X86161309Y-112662319D01*
X86161309Y-112662319D02*
X86066071Y-112805176D01*
X86066071Y-112805176D02*
X85970833Y-112900414D01*
X85970833Y-112900414D02*
X85875595Y-112948033D01*
X87304166Y-112995652D02*
X87304166Y-113662319D01*
X87066071Y-112614700D02*
X86827976Y-113328985D01*
X86827976Y-113328985D02*
X87447023Y-113328985D01*
X91494642Y-89567080D02*
X91447023Y-89614700D01*
X91447023Y-89614700D02*
X91304166Y-89662319D01*
X91304166Y-89662319D02*
X91208928Y-89662319D01*
X91208928Y-89662319D02*
X91066071Y-89614700D01*
X91066071Y-89614700D02*
X90970833Y-89519461D01*
X90970833Y-89519461D02*
X90923214Y-89424223D01*
X90923214Y-89424223D02*
X90875595Y-89233747D01*
X90875595Y-89233747D02*
X90875595Y-89090890D01*
X90875595Y-89090890D02*
X90923214Y-88900414D01*
X90923214Y-88900414D02*
X90970833Y-88805176D01*
X90970833Y-88805176D02*
X91066071Y-88709938D01*
X91066071Y-88709938D02*
X91208928Y-88662319D01*
X91208928Y-88662319D02*
X91304166Y-88662319D01*
X91304166Y-88662319D02*
X91447023Y-88709938D01*
X91447023Y-88709938D02*
X91494642Y-88757557D01*
X92447023Y-89662319D02*
X91875595Y-89662319D01*
X92161309Y-89662319D02*
X92161309Y-88662319D01*
X92161309Y-88662319D02*
X92066071Y-88805176D01*
X92066071Y-88805176D02*
X91970833Y-88900414D01*
X91970833Y-88900414D02*
X91875595Y-88948033D01*
X92827976Y-88757557D02*
X92875595Y-88709938D01*
X92875595Y-88709938D02*
X92970833Y-88662319D01*
X92970833Y-88662319D02*
X93208928Y-88662319D01*
X93208928Y-88662319D02*
X93304166Y-88709938D01*
X93304166Y-88709938D02*
X93351785Y-88757557D01*
X93351785Y-88757557D02*
X93399404Y-88852795D01*
X93399404Y-88852795D02*
X93399404Y-88948033D01*
X93399404Y-88948033D02*
X93351785Y-89090890D01*
X93351785Y-89090890D02*
X92780357Y-89662319D01*
X92780357Y-89662319D02*
X93399404Y-89662319D01*
X127898333Y-95079819D02*
X127565000Y-94603628D01*
X127326905Y-95079819D02*
X127326905Y-94079819D01*
X127326905Y-94079819D02*
X127707857Y-94079819D01*
X127707857Y-94079819D02*
X127803095Y-94127438D01*
X127803095Y-94127438D02*
X127850714Y-94175057D01*
X127850714Y-94175057D02*
X127898333Y-94270295D01*
X127898333Y-94270295D02*
X127898333Y-94413152D01*
X127898333Y-94413152D02*
X127850714Y-94508390D01*
X127850714Y-94508390D02*
X127803095Y-94556009D01*
X127803095Y-94556009D02*
X127707857Y-94603628D01*
X127707857Y-94603628D02*
X127326905Y-94603628D01*
X128231667Y-94079819D02*
X128898333Y-94079819D01*
X128898333Y-94079819D02*
X128469762Y-95079819D01*
X97327333Y-47459580D02*
X97279714Y-47507200D01*
X97279714Y-47507200D02*
X97136857Y-47554819D01*
X97136857Y-47554819D02*
X97041619Y-47554819D01*
X97041619Y-47554819D02*
X96898762Y-47507200D01*
X96898762Y-47507200D02*
X96803524Y-47411961D01*
X96803524Y-47411961D02*
X96755905Y-47316723D01*
X96755905Y-47316723D02*
X96708286Y-47126247D01*
X96708286Y-47126247D02*
X96708286Y-46983390D01*
X96708286Y-46983390D02*
X96755905Y-46792914D01*
X96755905Y-46792914D02*
X96803524Y-46697676D01*
X96803524Y-46697676D02*
X96898762Y-46602438D01*
X96898762Y-46602438D02*
X97041619Y-46554819D01*
X97041619Y-46554819D02*
X97136857Y-46554819D01*
X97136857Y-46554819D02*
X97279714Y-46602438D01*
X97279714Y-46602438D02*
X97327333Y-46650057D01*
X97708286Y-46650057D02*
X97755905Y-46602438D01*
X97755905Y-46602438D02*
X97851143Y-46554819D01*
X97851143Y-46554819D02*
X98089238Y-46554819D01*
X98089238Y-46554819D02*
X98184476Y-46602438D01*
X98184476Y-46602438D02*
X98232095Y-46650057D01*
X98232095Y-46650057D02*
X98279714Y-46745295D01*
X98279714Y-46745295D02*
X98279714Y-46840533D01*
X98279714Y-46840533D02*
X98232095Y-46983390D01*
X98232095Y-46983390D02*
X97660667Y-47554819D01*
X97660667Y-47554819D02*
X98279714Y-47554819D01*
X113882142Y-71714580D02*
X113834523Y-71762200D01*
X113834523Y-71762200D02*
X113691666Y-71809819D01*
X113691666Y-71809819D02*
X113596428Y-71809819D01*
X113596428Y-71809819D02*
X113453571Y-71762200D01*
X113453571Y-71762200D02*
X113358333Y-71666961D01*
X113358333Y-71666961D02*
X113310714Y-71571723D01*
X113310714Y-71571723D02*
X113263095Y-71381247D01*
X113263095Y-71381247D02*
X113263095Y-71238390D01*
X113263095Y-71238390D02*
X113310714Y-71047914D01*
X113310714Y-71047914D02*
X113358333Y-70952676D01*
X113358333Y-70952676D02*
X113453571Y-70857438D01*
X113453571Y-70857438D02*
X113596428Y-70809819D01*
X113596428Y-70809819D02*
X113691666Y-70809819D01*
X113691666Y-70809819D02*
X113834523Y-70857438D01*
X113834523Y-70857438D02*
X113882142Y-70905057D01*
X114834523Y-71809819D02*
X114263095Y-71809819D01*
X114548809Y-71809819D02*
X114548809Y-70809819D01*
X114548809Y-70809819D02*
X114453571Y-70952676D01*
X114453571Y-70952676D02*
X114358333Y-71047914D01*
X114358333Y-71047914D02*
X114263095Y-71095533D01*
X115691666Y-71143152D02*
X115691666Y-71809819D01*
X115453571Y-70762200D02*
X115215476Y-71476485D01*
X115215476Y-71476485D02*
X115834523Y-71476485D01*
X132357142Y-113854819D02*
X132023809Y-113378628D01*
X131785714Y-113854819D02*
X131785714Y-112854819D01*
X131785714Y-112854819D02*
X132166666Y-112854819D01*
X132166666Y-112854819D02*
X132261904Y-112902438D01*
X132261904Y-112902438D02*
X132309523Y-112950057D01*
X132309523Y-112950057D02*
X132357142Y-113045295D01*
X132357142Y-113045295D02*
X132357142Y-113188152D01*
X132357142Y-113188152D02*
X132309523Y-113283390D01*
X132309523Y-113283390D02*
X132261904Y-113331009D01*
X132261904Y-113331009D02*
X132166666Y-113378628D01*
X132166666Y-113378628D02*
X131785714Y-113378628D01*
X133309523Y-113854819D02*
X132738095Y-113854819D01*
X133023809Y-113854819D02*
X133023809Y-112854819D01*
X133023809Y-112854819D02*
X132928571Y-112997676D01*
X132928571Y-112997676D02*
X132833333Y-113092914D01*
X132833333Y-113092914D02*
X132738095Y-113140533D01*
X133690476Y-112950057D02*
X133738095Y-112902438D01*
X133738095Y-112902438D02*
X133833333Y-112854819D01*
X133833333Y-112854819D02*
X134071428Y-112854819D01*
X134071428Y-112854819D02*
X134166666Y-112902438D01*
X134166666Y-112902438D02*
X134214285Y-112950057D01*
X134214285Y-112950057D02*
X134261904Y-113045295D01*
X134261904Y-113045295D02*
X134261904Y-113140533D01*
X134261904Y-113140533D02*
X134214285Y-113283390D01*
X134214285Y-113283390D02*
X133642857Y-113854819D01*
X133642857Y-113854819D02*
X134261904Y-113854819D01*
X86357142Y-117859580D02*
X86309523Y-117907200D01*
X86309523Y-117907200D02*
X86166666Y-117954819D01*
X86166666Y-117954819D02*
X86071428Y-117954819D01*
X86071428Y-117954819D02*
X85928571Y-117907200D01*
X85928571Y-117907200D02*
X85833333Y-117811961D01*
X85833333Y-117811961D02*
X85785714Y-117716723D01*
X85785714Y-117716723D02*
X85738095Y-117526247D01*
X85738095Y-117526247D02*
X85738095Y-117383390D01*
X85738095Y-117383390D02*
X85785714Y-117192914D01*
X85785714Y-117192914D02*
X85833333Y-117097676D01*
X85833333Y-117097676D02*
X85928571Y-117002438D01*
X85928571Y-117002438D02*
X86071428Y-116954819D01*
X86071428Y-116954819D02*
X86166666Y-116954819D01*
X86166666Y-116954819D02*
X86309523Y-117002438D01*
X86309523Y-117002438D02*
X86357142Y-117050057D01*
X87309523Y-117954819D02*
X86738095Y-117954819D01*
X87023809Y-117954819D02*
X87023809Y-116954819D01*
X87023809Y-116954819D02*
X86928571Y-117097676D01*
X86928571Y-117097676D02*
X86833333Y-117192914D01*
X86833333Y-117192914D02*
X86738095Y-117240533D01*
X88214285Y-116954819D02*
X87738095Y-116954819D01*
X87738095Y-116954819D02*
X87690476Y-117431009D01*
X87690476Y-117431009D02*
X87738095Y-117383390D01*
X87738095Y-117383390D02*
X87833333Y-117335771D01*
X87833333Y-117335771D02*
X88071428Y-117335771D01*
X88071428Y-117335771D02*
X88166666Y-117383390D01*
X88166666Y-117383390D02*
X88214285Y-117431009D01*
X88214285Y-117431009D02*
X88261904Y-117526247D01*
X88261904Y-117526247D02*
X88261904Y-117764342D01*
X88261904Y-117764342D02*
X88214285Y-117859580D01*
X88214285Y-117859580D02*
X88166666Y-117907200D01*
X88166666Y-117907200D02*
X88071428Y-117954819D01*
X88071428Y-117954819D02*
X87833333Y-117954819D01*
X87833333Y-117954819D02*
X87738095Y-117907200D01*
X87738095Y-117907200D02*
X87690476Y-117859580D01*
X97327333Y-56857580D02*
X97279714Y-56905200D01*
X97279714Y-56905200D02*
X97136857Y-56952819D01*
X97136857Y-56952819D02*
X97041619Y-56952819D01*
X97041619Y-56952819D02*
X96898762Y-56905200D01*
X96898762Y-56905200D02*
X96803524Y-56809961D01*
X96803524Y-56809961D02*
X96755905Y-56714723D01*
X96755905Y-56714723D02*
X96708286Y-56524247D01*
X96708286Y-56524247D02*
X96708286Y-56381390D01*
X96708286Y-56381390D02*
X96755905Y-56190914D01*
X96755905Y-56190914D02*
X96803524Y-56095676D01*
X96803524Y-56095676D02*
X96898762Y-56000438D01*
X96898762Y-56000438D02*
X97041619Y-55952819D01*
X97041619Y-55952819D02*
X97136857Y-55952819D01*
X97136857Y-55952819D02*
X97279714Y-56000438D01*
X97279714Y-56000438D02*
X97327333Y-56048057D01*
X97660667Y-55952819D02*
X98279714Y-55952819D01*
X98279714Y-55952819D02*
X97946381Y-56333771D01*
X97946381Y-56333771D02*
X98089238Y-56333771D01*
X98089238Y-56333771D02*
X98184476Y-56381390D01*
X98184476Y-56381390D02*
X98232095Y-56429009D01*
X98232095Y-56429009D02*
X98279714Y-56524247D01*
X98279714Y-56524247D02*
X98279714Y-56762342D01*
X98279714Y-56762342D02*
X98232095Y-56857580D01*
X98232095Y-56857580D02*
X98184476Y-56905200D01*
X98184476Y-56905200D02*
X98089238Y-56952819D01*
X98089238Y-56952819D02*
X97803524Y-56952819D01*
X97803524Y-56952819D02*
X97708286Y-56905200D01*
X97708286Y-56905200D02*
X97660667Y-56857580D01*
X151752142Y-70159819D02*
X151418809Y-69683628D01*
X151180714Y-70159819D02*
X151180714Y-69159819D01*
X151180714Y-69159819D02*
X151561666Y-69159819D01*
X151561666Y-69159819D02*
X151656904Y-69207438D01*
X151656904Y-69207438D02*
X151704523Y-69255057D01*
X151704523Y-69255057D02*
X151752142Y-69350295D01*
X151752142Y-69350295D02*
X151752142Y-69493152D01*
X151752142Y-69493152D02*
X151704523Y-69588390D01*
X151704523Y-69588390D02*
X151656904Y-69636009D01*
X151656904Y-69636009D02*
X151561666Y-69683628D01*
X151561666Y-69683628D02*
X151180714Y-69683628D01*
X152133095Y-69255057D02*
X152180714Y-69207438D01*
X152180714Y-69207438D02*
X152275952Y-69159819D01*
X152275952Y-69159819D02*
X152514047Y-69159819D01*
X152514047Y-69159819D02*
X152609285Y-69207438D01*
X152609285Y-69207438D02*
X152656904Y-69255057D01*
X152656904Y-69255057D02*
X152704523Y-69350295D01*
X152704523Y-69350295D02*
X152704523Y-69445533D01*
X152704523Y-69445533D02*
X152656904Y-69588390D01*
X152656904Y-69588390D02*
X152085476Y-70159819D01*
X152085476Y-70159819D02*
X152704523Y-70159819D01*
X153085476Y-69255057D02*
X153133095Y-69207438D01*
X153133095Y-69207438D02*
X153228333Y-69159819D01*
X153228333Y-69159819D02*
X153466428Y-69159819D01*
X153466428Y-69159819D02*
X153561666Y-69207438D01*
X153561666Y-69207438D02*
X153609285Y-69255057D01*
X153609285Y-69255057D02*
X153656904Y-69350295D01*
X153656904Y-69350295D02*
X153656904Y-69445533D01*
X153656904Y-69445533D02*
X153609285Y-69588390D01*
X153609285Y-69588390D02*
X153037857Y-70159819D01*
X153037857Y-70159819D02*
X153656904Y-70159819D01*
X91494642Y-85567080D02*
X91447023Y-85614700D01*
X91447023Y-85614700D02*
X91304166Y-85662319D01*
X91304166Y-85662319D02*
X91208928Y-85662319D01*
X91208928Y-85662319D02*
X91066071Y-85614700D01*
X91066071Y-85614700D02*
X90970833Y-85519461D01*
X90970833Y-85519461D02*
X90923214Y-85424223D01*
X90923214Y-85424223D02*
X90875595Y-85233747D01*
X90875595Y-85233747D02*
X90875595Y-85090890D01*
X90875595Y-85090890D02*
X90923214Y-84900414D01*
X90923214Y-84900414D02*
X90970833Y-84805176D01*
X90970833Y-84805176D02*
X91066071Y-84709938D01*
X91066071Y-84709938D02*
X91208928Y-84662319D01*
X91208928Y-84662319D02*
X91304166Y-84662319D01*
X91304166Y-84662319D02*
X91447023Y-84709938D01*
X91447023Y-84709938D02*
X91494642Y-84757557D01*
X92447023Y-85662319D02*
X91875595Y-85662319D01*
X92161309Y-85662319D02*
X92161309Y-84662319D01*
X92161309Y-84662319D02*
X92066071Y-84805176D01*
X92066071Y-84805176D02*
X91970833Y-84900414D01*
X91970833Y-84900414D02*
X91875595Y-84948033D01*
X93399404Y-85662319D02*
X92827976Y-85662319D01*
X93113690Y-85662319D02*
X93113690Y-84662319D01*
X93113690Y-84662319D02*
X93018452Y-84805176D01*
X93018452Y-84805176D02*
X92923214Y-84900414D01*
X92923214Y-84900414D02*
X92827976Y-84948033D01*
X117898333Y-105609819D02*
X117565000Y-105133628D01*
X117326905Y-105609819D02*
X117326905Y-104609819D01*
X117326905Y-104609819D02*
X117707857Y-104609819D01*
X117707857Y-104609819D02*
X117803095Y-104657438D01*
X117803095Y-104657438D02*
X117850714Y-104705057D01*
X117850714Y-104705057D02*
X117898333Y-104800295D01*
X117898333Y-104800295D02*
X117898333Y-104943152D01*
X117898333Y-104943152D02*
X117850714Y-105038390D01*
X117850714Y-105038390D02*
X117803095Y-105086009D01*
X117803095Y-105086009D02*
X117707857Y-105133628D01*
X117707857Y-105133628D02*
X117326905Y-105133628D01*
X118755476Y-104943152D02*
X118755476Y-105609819D01*
X118517381Y-104562200D02*
X118279286Y-105276485D01*
X118279286Y-105276485D02*
X118898333Y-105276485D01*
X118232142Y-69204580D02*
X118184523Y-69252200D01*
X118184523Y-69252200D02*
X118041666Y-69299819D01*
X118041666Y-69299819D02*
X117946428Y-69299819D01*
X117946428Y-69299819D02*
X117803571Y-69252200D01*
X117803571Y-69252200D02*
X117708333Y-69156961D01*
X117708333Y-69156961D02*
X117660714Y-69061723D01*
X117660714Y-69061723D02*
X117613095Y-68871247D01*
X117613095Y-68871247D02*
X117613095Y-68728390D01*
X117613095Y-68728390D02*
X117660714Y-68537914D01*
X117660714Y-68537914D02*
X117708333Y-68442676D01*
X117708333Y-68442676D02*
X117803571Y-68347438D01*
X117803571Y-68347438D02*
X117946428Y-68299819D01*
X117946428Y-68299819D02*
X118041666Y-68299819D01*
X118041666Y-68299819D02*
X118184523Y-68347438D01*
X118184523Y-68347438D02*
X118232142Y-68395057D01*
X119184523Y-69299819D02*
X118613095Y-69299819D01*
X118898809Y-69299819D02*
X118898809Y-68299819D01*
X118898809Y-68299819D02*
X118803571Y-68442676D01*
X118803571Y-68442676D02*
X118708333Y-68537914D01*
X118708333Y-68537914D02*
X118613095Y-68585533D01*
X119660714Y-69299819D02*
X119851190Y-69299819D01*
X119851190Y-69299819D02*
X119946428Y-69252200D01*
X119946428Y-69252200D02*
X119994047Y-69204580D01*
X119994047Y-69204580D02*
X120089285Y-69061723D01*
X120089285Y-69061723D02*
X120136904Y-68871247D01*
X120136904Y-68871247D02*
X120136904Y-68490295D01*
X120136904Y-68490295D02*
X120089285Y-68395057D01*
X120089285Y-68395057D02*
X120041666Y-68347438D01*
X120041666Y-68347438D02*
X119946428Y-68299819D01*
X119946428Y-68299819D02*
X119755952Y-68299819D01*
X119755952Y-68299819D02*
X119660714Y-68347438D01*
X119660714Y-68347438D02*
X119613095Y-68395057D01*
X119613095Y-68395057D02*
X119565476Y-68490295D01*
X119565476Y-68490295D02*
X119565476Y-68728390D01*
X119565476Y-68728390D02*
X119613095Y-68823628D01*
X119613095Y-68823628D02*
X119660714Y-68871247D01*
X119660714Y-68871247D02*
X119755952Y-68918866D01*
X119755952Y-68918866D02*
X119946428Y-68918866D01*
X119946428Y-68918866D02*
X120041666Y-68871247D01*
X120041666Y-68871247D02*
X120089285Y-68823628D01*
X120089285Y-68823628D02*
X120136904Y-68728390D01*
X91357142Y-112427080D02*
X91309523Y-112474700D01*
X91309523Y-112474700D02*
X91166666Y-112522319D01*
X91166666Y-112522319D02*
X91071428Y-112522319D01*
X91071428Y-112522319D02*
X90928571Y-112474700D01*
X90928571Y-112474700D02*
X90833333Y-112379461D01*
X90833333Y-112379461D02*
X90785714Y-112284223D01*
X90785714Y-112284223D02*
X90738095Y-112093747D01*
X90738095Y-112093747D02*
X90738095Y-111950890D01*
X90738095Y-111950890D02*
X90785714Y-111760414D01*
X90785714Y-111760414D02*
X90833333Y-111665176D01*
X90833333Y-111665176D02*
X90928571Y-111569938D01*
X90928571Y-111569938D02*
X91071428Y-111522319D01*
X91071428Y-111522319D02*
X91166666Y-111522319D01*
X91166666Y-111522319D02*
X91309523Y-111569938D01*
X91309523Y-111569938D02*
X91357142Y-111617557D01*
X92309523Y-112522319D02*
X91738095Y-112522319D01*
X92023809Y-112522319D02*
X92023809Y-111522319D01*
X92023809Y-111522319D02*
X91928571Y-111665176D01*
X91928571Y-111665176D02*
X91833333Y-111760414D01*
X91833333Y-111760414D02*
X91738095Y-111808033D01*
X93166666Y-111522319D02*
X92976190Y-111522319D01*
X92976190Y-111522319D02*
X92880952Y-111569938D01*
X92880952Y-111569938D02*
X92833333Y-111617557D01*
X92833333Y-111617557D02*
X92738095Y-111760414D01*
X92738095Y-111760414D02*
X92690476Y-111950890D01*
X92690476Y-111950890D02*
X92690476Y-112331842D01*
X92690476Y-112331842D02*
X92738095Y-112427080D01*
X92738095Y-112427080D02*
X92785714Y-112474700D01*
X92785714Y-112474700D02*
X92880952Y-112522319D01*
X92880952Y-112522319D02*
X93071428Y-112522319D01*
X93071428Y-112522319D02*
X93166666Y-112474700D01*
X93166666Y-112474700D02*
X93214285Y-112427080D01*
X93214285Y-112427080D02*
X93261904Y-112331842D01*
X93261904Y-112331842D02*
X93261904Y-112093747D01*
X93261904Y-112093747D02*
X93214285Y-111998509D01*
X93214285Y-111998509D02*
X93166666Y-111950890D01*
X93166666Y-111950890D02*
X93071428Y-111903271D01*
X93071428Y-111903271D02*
X92880952Y-111903271D01*
X92880952Y-111903271D02*
X92785714Y-111950890D01*
X92785714Y-111950890D02*
X92738095Y-111998509D01*
X92738095Y-111998509D02*
X92690476Y-112093747D01*
X110008333Y-69204580D02*
X109960714Y-69252200D01*
X109960714Y-69252200D02*
X109817857Y-69299819D01*
X109817857Y-69299819D02*
X109722619Y-69299819D01*
X109722619Y-69299819D02*
X109579762Y-69252200D01*
X109579762Y-69252200D02*
X109484524Y-69156961D01*
X109484524Y-69156961D02*
X109436905Y-69061723D01*
X109436905Y-69061723D02*
X109389286Y-68871247D01*
X109389286Y-68871247D02*
X109389286Y-68728390D01*
X109389286Y-68728390D02*
X109436905Y-68537914D01*
X109436905Y-68537914D02*
X109484524Y-68442676D01*
X109484524Y-68442676D02*
X109579762Y-68347438D01*
X109579762Y-68347438D02*
X109722619Y-68299819D01*
X109722619Y-68299819D02*
X109817857Y-68299819D01*
X109817857Y-68299819D02*
X109960714Y-68347438D01*
X109960714Y-68347438D02*
X110008333Y-68395057D01*
X110341667Y-68299819D02*
X111008333Y-68299819D01*
X111008333Y-68299819D02*
X110579762Y-69299819D01*
X135438333Y-84634580D02*
X135390714Y-84682200D01*
X135390714Y-84682200D02*
X135247857Y-84729819D01*
X135247857Y-84729819D02*
X135152619Y-84729819D01*
X135152619Y-84729819D02*
X135009762Y-84682200D01*
X135009762Y-84682200D02*
X134914524Y-84586961D01*
X134914524Y-84586961D02*
X134866905Y-84491723D01*
X134866905Y-84491723D02*
X134819286Y-84301247D01*
X134819286Y-84301247D02*
X134819286Y-84158390D01*
X134819286Y-84158390D02*
X134866905Y-83967914D01*
X134866905Y-83967914D02*
X134914524Y-83872676D01*
X134914524Y-83872676D02*
X135009762Y-83777438D01*
X135009762Y-83777438D02*
X135152619Y-83729819D01*
X135152619Y-83729819D02*
X135247857Y-83729819D01*
X135247857Y-83729819D02*
X135390714Y-83777438D01*
X135390714Y-83777438D02*
X135438333Y-83825057D01*
X136295476Y-84063152D02*
X136295476Y-84729819D01*
X136057381Y-83682200D02*
X135819286Y-84396485D01*
X135819286Y-84396485D02*
X136438333Y-84396485D01*
X126448333Y-64109819D02*
X126115000Y-63633628D01*
X125876905Y-64109819D02*
X125876905Y-63109819D01*
X125876905Y-63109819D02*
X126257857Y-63109819D01*
X126257857Y-63109819D02*
X126353095Y-63157438D01*
X126353095Y-63157438D02*
X126400714Y-63205057D01*
X126400714Y-63205057D02*
X126448333Y-63300295D01*
X126448333Y-63300295D02*
X126448333Y-63443152D01*
X126448333Y-63443152D02*
X126400714Y-63538390D01*
X126400714Y-63538390D02*
X126353095Y-63586009D01*
X126353095Y-63586009D02*
X126257857Y-63633628D01*
X126257857Y-63633628D02*
X125876905Y-63633628D01*
X127305476Y-63443152D02*
X127305476Y-64109819D01*
X127067381Y-63062200D02*
X126829286Y-63776485D01*
X126829286Y-63776485D02*
X127448333Y-63776485D01*
X135438333Y-77784580D02*
X135390714Y-77832200D01*
X135390714Y-77832200D02*
X135247857Y-77879819D01*
X135247857Y-77879819D02*
X135152619Y-77879819D01*
X135152619Y-77879819D02*
X135009762Y-77832200D01*
X135009762Y-77832200D02*
X134914524Y-77736961D01*
X134914524Y-77736961D02*
X134866905Y-77641723D01*
X134866905Y-77641723D02*
X134819286Y-77451247D01*
X134819286Y-77451247D02*
X134819286Y-77308390D01*
X134819286Y-77308390D02*
X134866905Y-77117914D01*
X134866905Y-77117914D02*
X134914524Y-77022676D01*
X134914524Y-77022676D02*
X135009762Y-76927438D01*
X135009762Y-76927438D02*
X135152619Y-76879819D01*
X135152619Y-76879819D02*
X135247857Y-76879819D01*
X135247857Y-76879819D02*
X135390714Y-76927438D01*
X135390714Y-76927438D02*
X135438333Y-76975057D01*
X135771667Y-76879819D02*
X136390714Y-76879819D01*
X136390714Y-76879819D02*
X136057381Y-77260771D01*
X136057381Y-77260771D02*
X136200238Y-77260771D01*
X136200238Y-77260771D02*
X136295476Y-77308390D01*
X136295476Y-77308390D02*
X136343095Y-77356009D01*
X136343095Y-77356009D02*
X136390714Y-77451247D01*
X136390714Y-77451247D02*
X136390714Y-77689342D01*
X136390714Y-77689342D02*
X136343095Y-77784580D01*
X136343095Y-77784580D02*
X136295476Y-77832200D01*
X136295476Y-77832200D02*
X136200238Y-77879819D01*
X136200238Y-77879819D02*
X135914524Y-77879819D01*
X135914524Y-77879819D02*
X135819286Y-77832200D01*
X135819286Y-77832200D02*
X135771667Y-77784580D01*
X127898333Y-91779819D02*
X127565000Y-91303628D01*
X127326905Y-91779819D02*
X127326905Y-90779819D01*
X127326905Y-90779819D02*
X127707857Y-90779819D01*
X127707857Y-90779819D02*
X127803095Y-90827438D01*
X127803095Y-90827438D02*
X127850714Y-90875057D01*
X127850714Y-90875057D02*
X127898333Y-90970295D01*
X127898333Y-90970295D02*
X127898333Y-91113152D01*
X127898333Y-91113152D02*
X127850714Y-91208390D01*
X127850714Y-91208390D02*
X127803095Y-91256009D01*
X127803095Y-91256009D02*
X127707857Y-91303628D01*
X127707857Y-91303628D02*
X127326905Y-91303628D01*
X128231667Y-90779819D02*
X128850714Y-90779819D01*
X128850714Y-90779819D02*
X128517381Y-91160771D01*
X128517381Y-91160771D02*
X128660238Y-91160771D01*
X128660238Y-91160771D02*
X128755476Y-91208390D01*
X128755476Y-91208390D02*
X128803095Y-91256009D01*
X128803095Y-91256009D02*
X128850714Y-91351247D01*
X128850714Y-91351247D02*
X128850714Y-91589342D01*
X128850714Y-91589342D02*
X128803095Y-91684580D01*
X128803095Y-91684580D02*
X128755476Y-91732200D01*
X128755476Y-91732200D02*
X128660238Y-91779819D01*
X128660238Y-91779819D02*
X128374524Y-91779819D01*
X128374524Y-91779819D02*
X128279286Y-91732200D01*
X128279286Y-91732200D02*
X128231667Y-91684580D01*
X123256905Y-92499819D02*
X123256905Y-91499819D01*
X123256905Y-91499819D02*
X123495000Y-91499819D01*
X123495000Y-91499819D02*
X123637857Y-91547438D01*
X123637857Y-91547438D02*
X123733095Y-91642676D01*
X123733095Y-91642676D02*
X123780714Y-91737914D01*
X123780714Y-91737914D02*
X123828333Y-91928390D01*
X123828333Y-91928390D02*
X123828333Y-92071247D01*
X123828333Y-92071247D02*
X123780714Y-92261723D01*
X123780714Y-92261723D02*
X123733095Y-92356961D01*
X123733095Y-92356961D02*
X123637857Y-92452200D01*
X123637857Y-92452200D02*
X123495000Y-92499819D01*
X123495000Y-92499819D02*
X123256905Y-92499819D01*
X124209286Y-91595057D02*
X124256905Y-91547438D01*
X124256905Y-91547438D02*
X124352143Y-91499819D01*
X124352143Y-91499819D02*
X124590238Y-91499819D01*
X124590238Y-91499819D02*
X124685476Y-91547438D01*
X124685476Y-91547438D02*
X124733095Y-91595057D01*
X124733095Y-91595057D02*
X124780714Y-91690295D01*
X124780714Y-91690295D02*
X124780714Y-91785533D01*
X124780714Y-91785533D02*
X124733095Y-91928390D01*
X124733095Y-91928390D02*
X124161667Y-92499819D01*
X124161667Y-92499819D02*
X124780714Y-92499819D01*
X151752142Y-64109819D02*
X151418809Y-63633628D01*
X151180714Y-64109819D02*
X151180714Y-63109819D01*
X151180714Y-63109819D02*
X151561666Y-63109819D01*
X151561666Y-63109819D02*
X151656904Y-63157438D01*
X151656904Y-63157438D02*
X151704523Y-63205057D01*
X151704523Y-63205057D02*
X151752142Y-63300295D01*
X151752142Y-63300295D02*
X151752142Y-63443152D01*
X151752142Y-63443152D02*
X151704523Y-63538390D01*
X151704523Y-63538390D02*
X151656904Y-63586009D01*
X151656904Y-63586009D02*
X151561666Y-63633628D01*
X151561666Y-63633628D02*
X151180714Y-63633628D01*
X152133095Y-63205057D02*
X152180714Y-63157438D01*
X152180714Y-63157438D02*
X152275952Y-63109819D01*
X152275952Y-63109819D02*
X152514047Y-63109819D01*
X152514047Y-63109819D02*
X152609285Y-63157438D01*
X152609285Y-63157438D02*
X152656904Y-63205057D01*
X152656904Y-63205057D02*
X152704523Y-63300295D01*
X152704523Y-63300295D02*
X152704523Y-63395533D01*
X152704523Y-63395533D02*
X152656904Y-63538390D01*
X152656904Y-63538390D02*
X152085476Y-64109819D01*
X152085476Y-64109819D02*
X152704523Y-64109819D01*
X153656904Y-64109819D02*
X153085476Y-64109819D01*
X153371190Y-64109819D02*
X153371190Y-63109819D01*
X153371190Y-63109819D02*
X153275952Y-63252676D01*
X153275952Y-63252676D02*
X153180714Y-63347914D01*
X153180714Y-63347914D02*
X153085476Y-63395533D01*
X113882142Y-66694580D02*
X113834523Y-66742200D01*
X113834523Y-66742200D02*
X113691666Y-66789819D01*
X113691666Y-66789819D02*
X113596428Y-66789819D01*
X113596428Y-66789819D02*
X113453571Y-66742200D01*
X113453571Y-66742200D02*
X113358333Y-66646961D01*
X113358333Y-66646961D02*
X113310714Y-66551723D01*
X113310714Y-66551723D02*
X113263095Y-66361247D01*
X113263095Y-66361247D02*
X113263095Y-66218390D01*
X113263095Y-66218390D02*
X113310714Y-66027914D01*
X113310714Y-66027914D02*
X113358333Y-65932676D01*
X113358333Y-65932676D02*
X113453571Y-65837438D01*
X113453571Y-65837438D02*
X113596428Y-65789819D01*
X113596428Y-65789819D02*
X113691666Y-65789819D01*
X113691666Y-65789819D02*
X113834523Y-65837438D01*
X113834523Y-65837438D02*
X113882142Y-65885057D01*
X114834523Y-66789819D02*
X114263095Y-66789819D01*
X114548809Y-66789819D02*
X114548809Y-65789819D01*
X114548809Y-65789819D02*
X114453571Y-65932676D01*
X114453571Y-65932676D02*
X114358333Y-66027914D01*
X114358333Y-66027914D02*
X114263095Y-66075533D01*
X115215476Y-65885057D02*
X115263095Y-65837438D01*
X115263095Y-65837438D02*
X115358333Y-65789819D01*
X115358333Y-65789819D02*
X115596428Y-65789819D01*
X115596428Y-65789819D02*
X115691666Y-65837438D01*
X115691666Y-65837438D02*
X115739285Y-65885057D01*
X115739285Y-65885057D02*
X115786904Y-65980295D01*
X115786904Y-65980295D02*
X115786904Y-66075533D01*
X115786904Y-66075533D02*
X115739285Y-66218390D01*
X115739285Y-66218390D02*
X115167857Y-66789819D01*
X115167857Y-66789819D02*
X115786904Y-66789819D01*
X91494642Y-105567080D02*
X91447023Y-105614700D01*
X91447023Y-105614700D02*
X91304166Y-105662319D01*
X91304166Y-105662319D02*
X91208928Y-105662319D01*
X91208928Y-105662319D02*
X91066071Y-105614700D01*
X91066071Y-105614700D02*
X90970833Y-105519461D01*
X90970833Y-105519461D02*
X90923214Y-105424223D01*
X90923214Y-105424223D02*
X90875595Y-105233747D01*
X90875595Y-105233747D02*
X90875595Y-105090890D01*
X90875595Y-105090890D02*
X90923214Y-104900414D01*
X90923214Y-104900414D02*
X90970833Y-104805176D01*
X90970833Y-104805176D02*
X91066071Y-104709938D01*
X91066071Y-104709938D02*
X91208928Y-104662319D01*
X91208928Y-104662319D02*
X91304166Y-104662319D01*
X91304166Y-104662319D02*
X91447023Y-104709938D01*
X91447023Y-104709938D02*
X91494642Y-104757557D01*
X91875595Y-104757557D02*
X91923214Y-104709938D01*
X91923214Y-104709938D02*
X92018452Y-104662319D01*
X92018452Y-104662319D02*
X92256547Y-104662319D01*
X92256547Y-104662319D02*
X92351785Y-104709938D01*
X92351785Y-104709938D02*
X92399404Y-104757557D01*
X92399404Y-104757557D02*
X92447023Y-104852795D01*
X92447023Y-104852795D02*
X92447023Y-104948033D01*
X92447023Y-104948033D02*
X92399404Y-105090890D01*
X92399404Y-105090890D02*
X91827976Y-105662319D01*
X91827976Y-105662319D02*
X92447023Y-105662319D01*
X93066071Y-104662319D02*
X93161309Y-104662319D01*
X93161309Y-104662319D02*
X93256547Y-104709938D01*
X93256547Y-104709938D02*
X93304166Y-104757557D01*
X93304166Y-104757557D02*
X93351785Y-104852795D01*
X93351785Y-104852795D02*
X93399404Y-105043271D01*
X93399404Y-105043271D02*
X93399404Y-105281366D01*
X93399404Y-105281366D02*
X93351785Y-105471842D01*
X93351785Y-105471842D02*
X93304166Y-105567080D01*
X93304166Y-105567080D02*
X93256547Y-105614700D01*
X93256547Y-105614700D02*
X93161309Y-105662319D01*
X93161309Y-105662319D02*
X93066071Y-105662319D01*
X93066071Y-105662319D02*
X92970833Y-105614700D01*
X92970833Y-105614700D02*
X92923214Y-105567080D01*
X92923214Y-105567080D02*
X92875595Y-105471842D01*
X92875595Y-105471842D02*
X92827976Y-105281366D01*
X92827976Y-105281366D02*
X92827976Y-105043271D01*
X92827976Y-105043271D02*
X92875595Y-104852795D01*
X92875595Y-104852795D02*
X92923214Y-104757557D01*
X92923214Y-104757557D02*
X92970833Y-104709938D01*
X92970833Y-104709938D02*
X93066071Y-104662319D01*
X107212333Y-63454819D02*
X106879000Y-62978628D01*
X106640905Y-63454819D02*
X106640905Y-62454819D01*
X106640905Y-62454819D02*
X107021857Y-62454819D01*
X107021857Y-62454819D02*
X107117095Y-62502438D01*
X107117095Y-62502438D02*
X107164714Y-62550057D01*
X107164714Y-62550057D02*
X107212333Y-62645295D01*
X107212333Y-62645295D02*
X107212333Y-62788152D01*
X107212333Y-62788152D02*
X107164714Y-62883390D01*
X107164714Y-62883390D02*
X107117095Y-62931009D01*
X107117095Y-62931009D02*
X107021857Y-62978628D01*
X107021857Y-62978628D02*
X106640905Y-62978628D01*
X107545667Y-62454819D02*
X108164714Y-62454819D01*
X108164714Y-62454819D02*
X107831381Y-62835771D01*
X107831381Y-62835771D02*
X107974238Y-62835771D01*
X107974238Y-62835771D02*
X108069476Y-62883390D01*
X108069476Y-62883390D02*
X108117095Y-62931009D01*
X108117095Y-62931009D02*
X108164714Y-63026247D01*
X108164714Y-63026247D02*
X108164714Y-63264342D01*
X108164714Y-63264342D02*
X108117095Y-63359580D01*
X108117095Y-63359580D02*
X108069476Y-63407200D01*
X108069476Y-63407200D02*
X107974238Y-63454819D01*
X107974238Y-63454819D02*
X107688524Y-63454819D01*
X107688524Y-63454819D02*
X107593286Y-63407200D01*
X107593286Y-63407200D02*
X107545667Y-63359580D01*
X110008333Y-74224580D02*
X109960714Y-74272200D01*
X109960714Y-74272200D02*
X109817857Y-74319819D01*
X109817857Y-74319819D02*
X109722619Y-74319819D01*
X109722619Y-74319819D02*
X109579762Y-74272200D01*
X109579762Y-74272200D02*
X109484524Y-74176961D01*
X109484524Y-74176961D02*
X109436905Y-74081723D01*
X109436905Y-74081723D02*
X109389286Y-73891247D01*
X109389286Y-73891247D02*
X109389286Y-73748390D01*
X109389286Y-73748390D02*
X109436905Y-73557914D01*
X109436905Y-73557914D02*
X109484524Y-73462676D01*
X109484524Y-73462676D02*
X109579762Y-73367438D01*
X109579762Y-73367438D02*
X109722619Y-73319819D01*
X109722619Y-73319819D02*
X109817857Y-73319819D01*
X109817857Y-73319819D02*
X109960714Y-73367438D01*
X109960714Y-73367438D02*
X110008333Y-73415057D01*
X110484524Y-74319819D02*
X110675000Y-74319819D01*
X110675000Y-74319819D02*
X110770238Y-74272200D01*
X110770238Y-74272200D02*
X110817857Y-74224580D01*
X110817857Y-74224580D02*
X110913095Y-74081723D01*
X110913095Y-74081723D02*
X110960714Y-73891247D01*
X110960714Y-73891247D02*
X110960714Y-73510295D01*
X110960714Y-73510295D02*
X110913095Y-73415057D01*
X110913095Y-73415057D02*
X110865476Y-73367438D01*
X110865476Y-73367438D02*
X110770238Y-73319819D01*
X110770238Y-73319819D02*
X110579762Y-73319819D01*
X110579762Y-73319819D02*
X110484524Y-73367438D01*
X110484524Y-73367438D02*
X110436905Y-73415057D01*
X110436905Y-73415057D02*
X110389286Y-73510295D01*
X110389286Y-73510295D02*
X110389286Y-73748390D01*
X110389286Y-73748390D02*
X110436905Y-73843628D01*
X110436905Y-73843628D02*
X110484524Y-73891247D01*
X110484524Y-73891247D02*
X110579762Y-73938866D01*
X110579762Y-73938866D02*
X110770238Y-73938866D01*
X110770238Y-73938866D02*
X110865476Y-73891247D01*
X110865476Y-73891247D02*
X110913095Y-73843628D01*
X110913095Y-73843628D02*
X110960714Y-73748390D01*
X78238095Y-41304819D02*
X78238095Y-40304819D01*
X78238095Y-40781009D02*
X78809523Y-40781009D01*
X78809523Y-41304819D02*
X78809523Y-40304819D01*
X79809523Y-41304819D02*
X79238095Y-41304819D01*
X79523809Y-41304819D02*
X79523809Y-40304819D01*
X79523809Y-40304819D02*
X79428571Y-40447676D01*
X79428571Y-40447676D02*
X79333333Y-40542914D01*
X79333333Y-40542914D02*
X79238095Y-40590533D01*
X133843095Y-91679819D02*
X133843095Y-90679819D01*
X133843095Y-91156009D02*
X134414523Y-91156009D01*
X134414523Y-91679819D02*
X134414523Y-90679819D01*
X134795476Y-90679819D02*
X135414523Y-90679819D01*
X135414523Y-90679819D02*
X135081190Y-91060771D01*
X135081190Y-91060771D02*
X135224047Y-91060771D01*
X135224047Y-91060771D02*
X135319285Y-91108390D01*
X135319285Y-91108390D02*
X135366904Y-91156009D01*
X135366904Y-91156009D02*
X135414523Y-91251247D01*
X135414523Y-91251247D02*
X135414523Y-91489342D01*
X135414523Y-91489342D02*
X135366904Y-91584580D01*
X135366904Y-91584580D02*
X135319285Y-91632200D01*
X135319285Y-91632200D02*
X135224047Y-91679819D01*
X135224047Y-91679819D02*
X134938333Y-91679819D01*
X134938333Y-91679819D02*
X134843095Y-91632200D01*
X134843095Y-91632200D02*
X134795476Y-91584580D01*
X91494642Y-93567080D02*
X91447023Y-93614700D01*
X91447023Y-93614700D02*
X91304166Y-93662319D01*
X91304166Y-93662319D02*
X91208928Y-93662319D01*
X91208928Y-93662319D02*
X91066071Y-93614700D01*
X91066071Y-93614700D02*
X90970833Y-93519461D01*
X90970833Y-93519461D02*
X90923214Y-93424223D01*
X90923214Y-93424223D02*
X90875595Y-93233747D01*
X90875595Y-93233747D02*
X90875595Y-93090890D01*
X90875595Y-93090890D02*
X90923214Y-92900414D01*
X90923214Y-92900414D02*
X90970833Y-92805176D01*
X90970833Y-92805176D02*
X91066071Y-92709938D01*
X91066071Y-92709938D02*
X91208928Y-92662319D01*
X91208928Y-92662319D02*
X91304166Y-92662319D01*
X91304166Y-92662319D02*
X91447023Y-92709938D01*
X91447023Y-92709938D02*
X91494642Y-92757557D01*
X92447023Y-93662319D02*
X91875595Y-93662319D01*
X92161309Y-93662319D02*
X92161309Y-92662319D01*
X92161309Y-92662319D02*
X92066071Y-92805176D01*
X92066071Y-92805176D02*
X91970833Y-92900414D01*
X91970833Y-92900414D02*
X91875595Y-92948033D01*
X92780357Y-92662319D02*
X93447023Y-92662319D01*
X93447023Y-92662319D02*
X93018452Y-93662319D01*
X126448333Y-76209819D02*
X126115000Y-75733628D01*
X125876905Y-76209819D02*
X125876905Y-75209819D01*
X125876905Y-75209819D02*
X126257857Y-75209819D01*
X126257857Y-75209819D02*
X126353095Y-75257438D01*
X126353095Y-75257438D02*
X126400714Y-75305057D01*
X126400714Y-75305057D02*
X126448333Y-75400295D01*
X126448333Y-75400295D02*
X126448333Y-75543152D01*
X126448333Y-75543152D02*
X126400714Y-75638390D01*
X126400714Y-75638390D02*
X126353095Y-75686009D01*
X126353095Y-75686009D02*
X126257857Y-75733628D01*
X126257857Y-75733628D02*
X125876905Y-75733628D01*
X126924524Y-76209819D02*
X127115000Y-76209819D01*
X127115000Y-76209819D02*
X127210238Y-76162200D01*
X127210238Y-76162200D02*
X127257857Y-76114580D01*
X127257857Y-76114580D02*
X127353095Y-75971723D01*
X127353095Y-75971723D02*
X127400714Y-75781247D01*
X127400714Y-75781247D02*
X127400714Y-75400295D01*
X127400714Y-75400295D02*
X127353095Y-75305057D01*
X127353095Y-75305057D02*
X127305476Y-75257438D01*
X127305476Y-75257438D02*
X127210238Y-75209819D01*
X127210238Y-75209819D02*
X127019762Y-75209819D01*
X127019762Y-75209819D02*
X126924524Y-75257438D01*
X126924524Y-75257438D02*
X126876905Y-75305057D01*
X126876905Y-75305057D02*
X126829286Y-75400295D01*
X126829286Y-75400295D02*
X126829286Y-75638390D01*
X126829286Y-75638390D02*
X126876905Y-75733628D01*
X126876905Y-75733628D02*
X126924524Y-75781247D01*
X126924524Y-75781247D02*
X127019762Y-75828866D01*
X127019762Y-75828866D02*
X127210238Y-75828866D01*
X127210238Y-75828866D02*
X127305476Y-75781247D01*
X127305476Y-75781247D02*
X127353095Y-75733628D01*
X127353095Y-75733628D02*
X127400714Y-75638390D01*
X85970833Y-89567080D02*
X85923214Y-89614700D01*
X85923214Y-89614700D02*
X85780357Y-89662319D01*
X85780357Y-89662319D02*
X85685119Y-89662319D01*
X85685119Y-89662319D02*
X85542262Y-89614700D01*
X85542262Y-89614700D02*
X85447024Y-89519461D01*
X85447024Y-89519461D02*
X85399405Y-89424223D01*
X85399405Y-89424223D02*
X85351786Y-89233747D01*
X85351786Y-89233747D02*
X85351786Y-89090890D01*
X85351786Y-89090890D02*
X85399405Y-88900414D01*
X85399405Y-88900414D02*
X85447024Y-88805176D01*
X85447024Y-88805176D02*
X85542262Y-88709938D01*
X85542262Y-88709938D02*
X85685119Y-88662319D01*
X85685119Y-88662319D02*
X85780357Y-88662319D01*
X85780357Y-88662319D02*
X85923214Y-88709938D01*
X85923214Y-88709938D02*
X85970833Y-88757557D01*
X86827976Y-88662319D02*
X86637500Y-88662319D01*
X86637500Y-88662319D02*
X86542262Y-88709938D01*
X86542262Y-88709938D02*
X86494643Y-88757557D01*
X86494643Y-88757557D02*
X86399405Y-88900414D01*
X86399405Y-88900414D02*
X86351786Y-89090890D01*
X86351786Y-89090890D02*
X86351786Y-89471842D01*
X86351786Y-89471842D02*
X86399405Y-89567080D01*
X86399405Y-89567080D02*
X86447024Y-89614700D01*
X86447024Y-89614700D02*
X86542262Y-89662319D01*
X86542262Y-89662319D02*
X86732738Y-89662319D01*
X86732738Y-89662319D02*
X86827976Y-89614700D01*
X86827976Y-89614700D02*
X86875595Y-89567080D01*
X86875595Y-89567080D02*
X86923214Y-89471842D01*
X86923214Y-89471842D02*
X86923214Y-89233747D01*
X86923214Y-89233747D02*
X86875595Y-89138509D01*
X86875595Y-89138509D02*
X86827976Y-89090890D01*
X86827976Y-89090890D02*
X86732738Y-89043271D01*
X86732738Y-89043271D02*
X86542262Y-89043271D01*
X86542262Y-89043271D02*
X86447024Y-89090890D01*
X86447024Y-89090890D02*
X86399405Y-89138509D01*
X86399405Y-89138509D02*
X86351786Y-89233747D01*
X127898333Y-93429819D02*
X127565000Y-92953628D01*
X127326905Y-93429819D02*
X127326905Y-92429819D01*
X127326905Y-92429819D02*
X127707857Y-92429819D01*
X127707857Y-92429819D02*
X127803095Y-92477438D01*
X127803095Y-92477438D02*
X127850714Y-92525057D01*
X127850714Y-92525057D02*
X127898333Y-92620295D01*
X127898333Y-92620295D02*
X127898333Y-92763152D01*
X127898333Y-92763152D02*
X127850714Y-92858390D01*
X127850714Y-92858390D02*
X127803095Y-92906009D01*
X127803095Y-92906009D02*
X127707857Y-92953628D01*
X127707857Y-92953628D02*
X127326905Y-92953628D01*
X128755476Y-92429819D02*
X128565000Y-92429819D01*
X128565000Y-92429819D02*
X128469762Y-92477438D01*
X128469762Y-92477438D02*
X128422143Y-92525057D01*
X128422143Y-92525057D02*
X128326905Y-92667914D01*
X128326905Y-92667914D02*
X128279286Y-92858390D01*
X128279286Y-92858390D02*
X128279286Y-93239342D01*
X128279286Y-93239342D02*
X128326905Y-93334580D01*
X128326905Y-93334580D02*
X128374524Y-93382200D01*
X128374524Y-93382200D02*
X128469762Y-93429819D01*
X128469762Y-93429819D02*
X128660238Y-93429819D01*
X128660238Y-93429819D02*
X128755476Y-93382200D01*
X128755476Y-93382200D02*
X128803095Y-93334580D01*
X128803095Y-93334580D02*
X128850714Y-93239342D01*
X128850714Y-93239342D02*
X128850714Y-93001247D01*
X128850714Y-93001247D02*
X128803095Y-92906009D01*
X128803095Y-92906009D02*
X128755476Y-92858390D01*
X128755476Y-92858390D02*
X128660238Y-92810771D01*
X128660238Y-92810771D02*
X128469762Y-92810771D01*
X128469762Y-92810771D02*
X128374524Y-92858390D01*
X128374524Y-92858390D02*
X128326905Y-92906009D01*
X128326905Y-92906009D02*
X128279286Y-93001247D01*
X110008333Y-66694580D02*
X109960714Y-66742200D01*
X109960714Y-66742200D02*
X109817857Y-66789819D01*
X109817857Y-66789819D02*
X109722619Y-66789819D01*
X109722619Y-66789819D02*
X109579762Y-66742200D01*
X109579762Y-66742200D02*
X109484524Y-66646961D01*
X109484524Y-66646961D02*
X109436905Y-66551723D01*
X109436905Y-66551723D02*
X109389286Y-66361247D01*
X109389286Y-66361247D02*
X109389286Y-66218390D01*
X109389286Y-66218390D02*
X109436905Y-66027914D01*
X109436905Y-66027914D02*
X109484524Y-65932676D01*
X109484524Y-65932676D02*
X109579762Y-65837438D01*
X109579762Y-65837438D02*
X109722619Y-65789819D01*
X109722619Y-65789819D02*
X109817857Y-65789819D01*
X109817857Y-65789819D02*
X109960714Y-65837438D01*
X109960714Y-65837438D02*
X110008333Y-65885057D01*
X110865476Y-65789819D02*
X110675000Y-65789819D01*
X110675000Y-65789819D02*
X110579762Y-65837438D01*
X110579762Y-65837438D02*
X110532143Y-65885057D01*
X110532143Y-65885057D02*
X110436905Y-66027914D01*
X110436905Y-66027914D02*
X110389286Y-66218390D01*
X110389286Y-66218390D02*
X110389286Y-66599342D01*
X110389286Y-66599342D02*
X110436905Y-66694580D01*
X110436905Y-66694580D02*
X110484524Y-66742200D01*
X110484524Y-66742200D02*
X110579762Y-66789819D01*
X110579762Y-66789819D02*
X110770238Y-66789819D01*
X110770238Y-66789819D02*
X110865476Y-66742200D01*
X110865476Y-66742200D02*
X110913095Y-66694580D01*
X110913095Y-66694580D02*
X110960714Y-66599342D01*
X110960714Y-66599342D02*
X110960714Y-66361247D01*
X110960714Y-66361247D02*
X110913095Y-66266009D01*
X110913095Y-66266009D02*
X110865476Y-66218390D01*
X110865476Y-66218390D02*
X110770238Y-66170771D01*
X110770238Y-66170771D02*
X110579762Y-66170771D01*
X110579762Y-66170771D02*
X110484524Y-66218390D01*
X110484524Y-66218390D02*
X110436905Y-66266009D01*
X110436905Y-66266009D02*
X110389286Y-66361247D01*
X167238095Y-130304819D02*
X167238095Y-129304819D01*
X167238095Y-129781009D02*
X167809523Y-129781009D01*
X167809523Y-130304819D02*
X167809523Y-129304819D01*
X168238095Y-129400057D02*
X168285714Y-129352438D01*
X168285714Y-129352438D02*
X168380952Y-129304819D01*
X168380952Y-129304819D02*
X168619047Y-129304819D01*
X168619047Y-129304819D02*
X168714285Y-129352438D01*
X168714285Y-129352438D02*
X168761904Y-129400057D01*
X168761904Y-129400057D02*
X168809523Y-129495295D01*
X168809523Y-129495295D02*
X168809523Y-129590533D01*
X168809523Y-129590533D02*
X168761904Y-129733390D01*
X168761904Y-129733390D02*
X168190476Y-130304819D01*
X168190476Y-130304819D02*
X168809523Y-130304819D01*
X118232142Y-64184580D02*
X118184523Y-64232200D01*
X118184523Y-64232200D02*
X118041666Y-64279819D01*
X118041666Y-64279819D02*
X117946428Y-64279819D01*
X117946428Y-64279819D02*
X117803571Y-64232200D01*
X117803571Y-64232200D02*
X117708333Y-64136961D01*
X117708333Y-64136961D02*
X117660714Y-64041723D01*
X117660714Y-64041723D02*
X117613095Y-63851247D01*
X117613095Y-63851247D02*
X117613095Y-63708390D01*
X117613095Y-63708390D02*
X117660714Y-63517914D01*
X117660714Y-63517914D02*
X117708333Y-63422676D01*
X117708333Y-63422676D02*
X117803571Y-63327438D01*
X117803571Y-63327438D02*
X117946428Y-63279819D01*
X117946428Y-63279819D02*
X118041666Y-63279819D01*
X118041666Y-63279819D02*
X118184523Y-63327438D01*
X118184523Y-63327438D02*
X118232142Y-63375057D01*
X119184523Y-64279819D02*
X118613095Y-64279819D01*
X118898809Y-64279819D02*
X118898809Y-63279819D01*
X118898809Y-63279819D02*
X118803571Y-63422676D01*
X118803571Y-63422676D02*
X118708333Y-63517914D01*
X118708333Y-63517914D02*
X118613095Y-63565533D01*
X119517857Y-63279819D02*
X120184523Y-63279819D01*
X120184523Y-63279819D02*
X119755952Y-64279819D01*
X113882142Y-76734580D02*
X113834523Y-76782200D01*
X113834523Y-76782200D02*
X113691666Y-76829819D01*
X113691666Y-76829819D02*
X113596428Y-76829819D01*
X113596428Y-76829819D02*
X113453571Y-76782200D01*
X113453571Y-76782200D02*
X113358333Y-76686961D01*
X113358333Y-76686961D02*
X113310714Y-76591723D01*
X113310714Y-76591723D02*
X113263095Y-76401247D01*
X113263095Y-76401247D02*
X113263095Y-76258390D01*
X113263095Y-76258390D02*
X113310714Y-76067914D01*
X113310714Y-76067914D02*
X113358333Y-75972676D01*
X113358333Y-75972676D02*
X113453571Y-75877438D01*
X113453571Y-75877438D02*
X113596428Y-75829819D01*
X113596428Y-75829819D02*
X113691666Y-75829819D01*
X113691666Y-75829819D02*
X113834523Y-75877438D01*
X113834523Y-75877438D02*
X113882142Y-75925057D01*
X114834523Y-76829819D02*
X114263095Y-76829819D01*
X114548809Y-76829819D02*
X114548809Y-75829819D01*
X114548809Y-75829819D02*
X114453571Y-75972676D01*
X114453571Y-75972676D02*
X114358333Y-76067914D01*
X114358333Y-76067914D02*
X114263095Y-76115533D01*
X115691666Y-75829819D02*
X115501190Y-75829819D01*
X115501190Y-75829819D02*
X115405952Y-75877438D01*
X115405952Y-75877438D02*
X115358333Y-75925057D01*
X115358333Y-75925057D02*
X115263095Y-76067914D01*
X115263095Y-76067914D02*
X115215476Y-76258390D01*
X115215476Y-76258390D02*
X115215476Y-76639342D01*
X115215476Y-76639342D02*
X115263095Y-76734580D01*
X115263095Y-76734580D02*
X115310714Y-76782200D01*
X115310714Y-76782200D02*
X115405952Y-76829819D01*
X115405952Y-76829819D02*
X115596428Y-76829819D01*
X115596428Y-76829819D02*
X115691666Y-76782200D01*
X115691666Y-76782200D02*
X115739285Y-76734580D01*
X115739285Y-76734580D02*
X115786904Y-76639342D01*
X115786904Y-76639342D02*
X115786904Y-76401247D01*
X115786904Y-76401247D02*
X115739285Y-76306009D01*
X115739285Y-76306009D02*
X115691666Y-76258390D01*
X115691666Y-76258390D02*
X115596428Y-76210771D01*
X115596428Y-76210771D02*
X115405952Y-76210771D01*
X115405952Y-76210771D02*
X115310714Y-76258390D01*
X115310714Y-76258390D02*
X115263095Y-76306009D01*
X115263095Y-76306009D02*
X115215476Y-76401247D01*
X141812142Y-67229819D02*
X141478809Y-66753628D01*
X141240714Y-67229819D02*
X141240714Y-66229819D01*
X141240714Y-66229819D02*
X141621666Y-66229819D01*
X141621666Y-66229819D02*
X141716904Y-66277438D01*
X141716904Y-66277438D02*
X141764523Y-66325057D01*
X141764523Y-66325057D02*
X141812142Y-66420295D01*
X141812142Y-66420295D02*
X141812142Y-66563152D01*
X141812142Y-66563152D02*
X141764523Y-66658390D01*
X141764523Y-66658390D02*
X141716904Y-66706009D01*
X141716904Y-66706009D02*
X141621666Y-66753628D01*
X141621666Y-66753628D02*
X141240714Y-66753628D01*
X142764523Y-67229819D02*
X142193095Y-67229819D01*
X142478809Y-67229819D02*
X142478809Y-66229819D01*
X142478809Y-66229819D02*
X142383571Y-66372676D01*
X142383571Y-66372676D02*
X142288333Y-66467914D01*
X142288333Y-66467914D02*
X142193095Y-66515533D01*
X143145476Y-66325057D02*
X143193095Y-66277438D01*
X143193095Y-66277438D02*
X143288333Y-66229819D01*
X143288333Y-66229819D02*
X143526428Y-66229819D01*
X143526428Y-66229819D02*
X143621666Y-66277438D01*
X143621666Y-66277438D02*
X143669285Y-66325057D01*
X143669285Y-66325057D02*
X143716904Y-66420295D01*
X143716904Y-66420295D02*
X143716904Y-66515533D01*
X143716904Y-66515533D02*
X143669285Y-66658390D01*
X143669285Y-66658390D02*
X143097857Y-67229819D01*
X143097857Y-67229819D02*
X143716904Y-67229819D01*
X85970833Y-108427080D02*
X85923214Y-108474700D01*
X85923214Y-108474700D02*
X85780357Y-108522319D01*
X85780357Y-108522319D02*
X85685119Y-108522319D01*
X85685119Y-108522319D02*
X85542262Y-108474700D01*
X85542262Y-108474700D02*
X85447024Y-108379461D01*
X85447024Y-108379461D02*
X85399405Y-108284223D01*
X85399405Y-108284223D02*
X85351786Y-108093747D01*
X85351786Y-108093747D02*
X85351786Y-107950890D01*
X85351786Y-107950890D02*
X85399405Y-107760414D01*
X85399405Y-107760414D02*
X85447024Y-107665176D01*
X85447024Y-107665176D02*
X85542262Y-107569938D01*
X85542262Y-107569938D02*
X85685119Y-107522319D01*
X85685119Y-107522319D02*
X85780357Y-107522319D01*
X85780357Y-107522319D02*
X85923214Y-107569938D01*
X85923214Y-107569938D02*
X85970833Y-107617557D01*
X86447024Y-108522319D02*
X86637500Y-108522319D01*
X86637500Y-108522319D02*
X86732738Y-108474700D01*
X86732738Y-108474700D02*
X86780357Y-108427080D01*
X86780357Y-108427080D02*
X86875595Y-108284223D01*
X86875595Y-108284223D02*
X86923214Y-108093747D01*
X86923214Y-108093747D02*
X86923214Y-107712795D01*
X86923214Y-107712795D02*
X86875595Y-107617557D01*
X86875595Y-107617557D02*
X86827976Y-107569938D01*
X86827976Y-107569938D02*
X86732738Y-107522319D01*
X86732738Y-107522319D02*
X86542262Y-107522319D01*
X86542262Y-107522319D02*
X86447024Y-107569938D01*
X86447024Y-107569938D02*
X86399405Y-107617557D01*
X86399405Y-107617557D02*
X86351786Y-107712795D01*
X86351786Y-107712795D02*
X86351786Y-107950890D01*
X86351786Y-107950890D02*
X86399405Y-108046128D01*
X86399405Y-108046128D02*
X86447024Y-108093747D01*
X86447024Y-108093747D02*
X86542262Y-108141366D01*
X86542262Y-108141366D02*
X86732738Y-108141366D01*
X86732738Y-108141366D02*
X86827976Y-108093747D01*
X86827976Y-108093747D02*
X86875595Y-108046128D01*
X86875595Y-108046128D02*
X86923214Y-107950890D01*
X127898333Y-96729819D02*
X127565000Y-96253628D01*
X127326905Y-96729819D02*
X127326905Y-95729819D01*
X127326905Y-95729819D02*
X127707857Y-95729819D01*
X127707857Y-95729819D02*
X127803095Y-95777438D01*
X127803095Y-95777438D02*
X127850714Y-95825057D01*
X127850714Y-95825057D02*
X127898333Y-95920295D01*
X127898333Y-95920295D02*
X127898333Y-96063152D01*
X127898333Y-96063152D02*
X127850714Y-96158390D01*
X127850714Y-96158390D02*
X127803095Y-96206009D01*
X127803095Y-96206009D02*
X127707857Y-96253628D01*
X127707857Y-96253628D02*
X127326905Y-96253628D01*
X128469762Y-96158390D02*
X128374524Y-96110771D01*
X128374524Y-96110771D02*
X128326905Y-96063152D01*
X128326905Y-96063152D02*
X128279286Y-95967914D01*
X128279286Y-95967914D02*
X128279286Y-95920295D01*
X128279286Y-95920295D02*
X128326905Y-95825057D01*
X128326905Y-95825057D02*
X128374524Y-95777438D01*
X128374524Y-95777438D02*
X128469762Y-95729819D01*
X128469762Y-95729819D02*
X128660238Y-95729819D01*
X128660238Y-95729819D02*
X128755476Y-95777438D01*
X128755476Y-95777438D02*
X128803095Y-95825057D01*
X128803095Y-95825057D02*
X128850714Y-95920295D01*
X128850714Y-95920295D02*
X128850714Y-95967914D01*
X128850714Y-95967914D02*
X128803095Y-96063152D01*
X128803095Y-96063152D02*
X128755476Y-96110771D01*
X128755476Y-96110771D02*
X128660238Y-96158390D01*
X128660238Y-96158390D02*
X128469762Y-96158390D01*
X128469762Y-96158390D02*
X128374524Y-96206009D01*
X128374524Y-96206009D02*
X128326905Y-96253628D01*
X128326905Y-96253628D02*
X128279286Y-96348866D01*
X128279286Y-96348866D02*
X128279286Y-96539342D01*
X128279286Y-96539342D02*
X128326905Y-96634580D01*
X128326905Y-96634580D02*
X128374524Y-96682200D01*
X128374524Y-96682200D02*
X128469762Y-96729819D01*
X128469762Y-96729819D02*
X128660238Y-96729819D01*
X128660238Y-96729819D02*
X128755476Y-96682200D01*
X128755476Y-96682200D02*
X128803095Y-96634580D01*
X128803095Y-96634580D02*
X128850714Y-96539342D01*
X128850714Y-96539342D02*
X128850714Y-96348866D01*
X128850714Y-96348866D02*
X128803095Y-96253628D01*
X128803095Y-96253628D02*
X128755476Y-96206009D01*
X128755476Y-96206009D02*
X128660238Y-96158390D01*
X118232142Y-71714580D02*
X118184523Y-71762200D01*
X118184523Y-71762200D02*
X118041666Y-71809819D01*
X118041666Y-71809819D02*
X117946428Y-71809819D01*
X117946428Y-71809819D02*
X117803571Y-71762200D01*
X117803571Y-71762200D02*
X117708333Y-71666961D01*
X117708333Y-71666961D02*
X117660714Y-71571723D01*
X117660714Y-71571723D02*
X117613095Y-71381247D01*
X117613095Y-71381247D02*
X117613095Y-71238390D01*
X117613095Y-71238390D02*
X117660714Y-71047914D01*
X117660714Y-71047914D02*
X117708333Y-70952676D01*
X117708333Y-70952676D02*
X117803571Y-70857438D01*
X117803571Y-70857438D02*
X117946428Y-70809819D01*
X117946428Y-70809819D02*
X118041666Y-70809819D01*
X118041666Y-70809819D02*
X118184523Y-70857438D01*
X118184523Y-70857438D02*
X118232142Y-70905057D01*
X118613095Y-70905057D02*
X118660714Y-70857438D01*
X118660714Y-70857438D02*
X118755952Y-70809819D01*
X118755952Y-70809819D02*
X118994047Y-70809819D01*
X118994047Y-70809819D02*
X119089285Y-70857438D01*
X119089285Y-70857438D02*
X119136904Y-70905057D01*
X119136904Y-70905057D02*
X119184523Y-71000295D01*
X119184523Y-71000295D02*
X119184523Y-71095533D01*
X119184523Y-71095533D02*
X119136904Y-71238390D01*
X119136904Y-71238390D02*
X118565476Y-71809819D01*
X118565476Y-71809819D02*
X119184523Y-71809819D01*
X119803571Y-70809819D02*
X119898809Y-70809819D01*
X119898809Y-70809819D02*
X119994047Y-70857438D01*
X119994047Y-70857438D02*
X120041666Y-70905057D01*
X120041666Y-70905057D02*
X120089285Y-71000295D01*
X120089285Y-71000295D02*
X120136904Y-71190771D01*
X120136904Y-71190771D02*
X120136904Y-71428866D01*
X120136904Y-71428866D02*
X120089285Y-71619342D01*
X120089285Y-71619342D02*
X120041666Y-71714580D01*
X120041666Y-71714580D02*
X119994047Y-71762200D01*
X119994047Y-71762200D02*
X119898809Y-71809819D01*
X119898809Y-71809819D02*
X119803571Y-71809819D01*
X119803571Y-71809819D02*
X119708333Y-71762200D01*
X119708333Y-71762200D02*
X119660714Y-71714580D01*
X119660714Y-71714580D02*
X119613095Y-71619342D01*
X119613095Y-71619342D02*
X119565476Y-71428866D01*
X119565476Y-71428866D02*
X119565476Y-71190771D01*
X119565476Y-71190771D02*
X119613095Y-71000295D01*
X119613095Y-71000295D02*
X119660714Y-70905057D01*
X119660714Y-70905057D02*
X119708333Y-70857438D01*
X119708333Y-70857438D02*
X119803571Y-70809819D01*
X118232142Y-66694580D02*
X118184523Y-66742200D01*
X118184523Y-66742200D02*
X118041666Y-66789819D01*
X118041666Y-66789819D02*
X117946428Y-66789819D01*
X117946428Y-66789819D02*
X117803571Y-66742200D01*
X117803571Y-66742200D02*
X117708333Y-66646961D01*
X117708333Y-66646961D02*
X117660714Y-66551723D01*
X117660714Y-66551723D02*
X117613095Y-66361247D01*
X117613095Y-66361247D02*
X117613095Y-66218390D01*
X117613095Y-66218390D02*
X117660714Y-66027914D01*
X117660714Y-66027914D02*
X117708333Y-65932676D01*
X117708333Y-65932676D02*
X117803571Y-65837438D01*
X117803571Y-65837438D02*
X117946428Y-65789819D01*
X117946428Y-65789819D02*
X118041666Y-65789819D01*
X118041666Y-65789819D02*
X118184523Y-65837438D01*
X118184523Y-65837438D02*
X118232142Y-65885057D01*
X119184523Y-66789819D02*
X118613095Y-66789819D01*
X118898809Y-66789819D02*
X118898809Y-65789819D01*
X118898809Y-65789819D02*
X118803571Y-65932676D01*
X118803571Y-65932676D02*
X118708333Y-66027914D01*
X118708333Y-66027914D02*
X118613095Y-66075533D01*
X119755952Y-66218390D02*
X119660714Y-66170771D01*
X119660714Y-66170771D02*
X119613095Y-66123152D01*
X119613095Y-66123152D02*
X119565476Y-66027914D01*
X119565476Y-66027914D02*
X119565476Y-65980295D01*
X119565476Y-65980295D02*
X119613095Y-65885057D01*
X119613095Y-65885057D02*
X119660714Y-65837438D01*
X119660714Y-65837438D02*
X119755952Y-65789819D01*
X119755952Y-65789819D02*
X119946428Y-65789819D01*
X119946428Y-65789819D02*
X120041666Y-65837438D01*
X120041666Y-65837438D02*
X120089285Y-65885057D01*
X120089285Y-65885057D02*
X120136904Y-65980295D01*
X120136904Y-65980295D02*
X120136904Y-66027914D01*
X120136904Y-66027914D02*
X120089285Y-66123152D01*
X120089285Y-66123152D02*
X120041666Y-66170771D01*
X120041666Y-66170771D02*
X119946428Y-66218390D01*
X119946428Y-66218390D02*
X119755952Y-66218390D01*
X119755952Y-66218390D02*
X119660714Y-66266009D01*
X119660714Y-66266009D02*
X119613095Y-66313628D01*
X119613095Y-66313628D02*
X119565476Y-66408866D01*
X119565476Y-66408866D02*
X119565476Y-66599342D01*
X119565476Y-66599342D02*
X119613095Y-66694580D01*
X119613095Y-66694580D02*
X119660714Y-66742200D01*
X119660714Y-66742200D02*
X119755952Y-66789819D01*
X119755952Y-66789819D02*
X119946428Y-66789819D01*
X119946428Y-66789819D02*
X120041666Y-66742200D01*
X120041666Y-66742200D02*
X120089285Y-66694580D01*
X120089285Y-66694580D02*
X120136904Y-66599342D01*
X120136904Y-66599342D02*
X120136904Y-66408866D01*
X120136904Y-66408866D02*
X120089285Y-66313628D01*
X120089285Y-66313628D02*
X120041666Y-66266009D01*
X120041666Y-66266009D02*
X119946428Y-66218390D01*
X112925666Y-51565819D02*
X112925666Y-52280104D01*
X112925666Y-52280104D02*
X112878047Y-52422961D01*
X112878047Y-52422961D02*
X112782809Y-52518200D01*
X112782809Y-52518200D02*
X112639952Y-52565819D01*
X112639952Y-52565819D02*
X112544714Y-52565819D01*
X113925666Y-52565819D02*
X113354238Y-52565819D01*
X113639952Y-52565819D02*
X113639952Y-51565819D01*
X113639952Y-51565819D02*
X113544714Y-51708676D01*
X113544714Y-51708676D02*
X113449476Y-51803914D01*
X113449476Y-51803914D02*
X113354238Y-51851533D01*
X132357142Y-116804819D02*
X132023809Y-116328628D01*
X131785714Y-116804819D02*
X131785714Y-115804819D01*
X131785714Y-115804819D02*
X132166666Y-115804819D01*
X132166666Y-115804819D02*
X132261904Y-115852438D01*
X132261904Y-115852438D02*
X132309523Y-115900057D01*
X132309523Y-115900057D02*
X132357142Y-115995295D01*
X132357142Y-115995295D02*
X132357142Y-116138152D01*
X132357142Y-116138152D02*
X132309523Y-116233390D01*
X132309523Y-116233390D02*
X132261904Y-116281009D01*
X132261904Y-116281009D02*
X132166666Y-116328628D01*
X132166666Y-116328628D02*
X131785714Y-116328628D01*
X133309523Y-116804819D02*
X132738095Y-116804819D01*
X133023809Y-116804819D02*
X133023809Y-115804819D01*
X133023809Y-115804819D02*
X132928571Y-115947676D01*
X132928571Y-115947676D02*
X132833333Y-116042914D01*
X132833333Y-116042914D02*
X132738095Y-116090533D01*
X133642857Y-115804819D02*
X134261904Y-115804819D01*
X134261904Y-115804819D02*
X133928571Y-116185771D01*
X133928571Y-116185771D02*
X134071428Y-116185771D01*
X134071428Y-116185771D02*
X134166666Y-116233390D01*
X134166666Y-116233390D02*
X134214285Y-116281009D01*
X134214285Y-116281009D02*
X134261904Y-116376247D01*
X134261904Y-116376247D02*
X134261904Y-116614342D01*
X134261904Y-116614342D02*
X134214285Y-116709580D01*
X134214285Y-116709580D02*
X134166666Y-116757200D01*
X134166666Y-116757200D02*
X134071428Y-116804819D01*
X134071428Y-116804819D02*
X133785714Y-116804819D01*
X133785714Y-116804819D02*
X133690476Y-116757200D01*
X133690476Y-116757200D02*
X133642857Y-116709580D01*
X157563095Y-99479819D02*
X157563095Y-100289342D01*
X157563095Y-100289342D02*
X157610714Y-100384580D01*
X157610714Y-100384580D02*
X157658333Y-100432200D01*
X157658333Y-100432200D02*
X157753571Y-100479819D01*
X157753571Y-100479819D02*
X157944047Y-100479819D01*
X157944047Y-100479819D02*
X158039285Y-100432200D01*
X158039285Y-100432200D02*
X158086904Y-100384580D01*
X158086904Y-100384580D02*
X158134523Y-100289342D01*
X158134523Y-100289342D02*
X158134523Y-99479819D01*
X159134523Y-100479819D02*
X158563095Y-100479819D01*
X158848809Y-100479819D02*
X158848809Y-99479819D01*
X158848809Y-99479819D02*
X158753571Y-99622676D01*
X158753571Y-99622676D02*
X158658333Y-99717914D01*
X158658333Y-99717914D02*
X158563095Y-99765533D01*
X156357142Y-110254819D02*
X156023809Y-109778628D01*
X155785714Y-110254819D02*
X155785714Y-109254819D01*
X155785714Y-109254819D02*
X156166666Y-109254819D01*
X156166666Y-109254819D02*
X156261904Y-109302438D01*
X156261904Y-109302438D02*
X156309523Y-109350057D01*
X156309523Y-109350057D02*
X156357142Y-109445295D01*
X156357142Y-109445295D02*
X156357142Y-109588152D01*
X156357142Y-109588152D02*
X156309523Y-109683390D01*
X156309523Y-109683390D02*
X156261904Y-109731009D01*
X156261904Y-109731009D02*
X156166666Y-109778628D01*
X156166666Y-109778628D02*
X155785714Y-109778628D01*
X157309523Y-110254819D02*
X156738095Y-110254819D01*
X157023809Y-110254819D02*
X157023809Y-109254819D01*
X157023809Y-109254819D02*
X156928571Y-109397676D01*
X156928571Y-109397676D02*
X156833333Y-109492914D01*
X156833333Y-109492914D02*
X156738095Y-109540533D01*
X157642857Y-109254819D02*
X158309523Y-109254819D01*
X158309523Y-109254819D02*
X157880952Y-110254819D01*
X110008333Y-64184580D02*
X109960714Y-64232200D01*
X109960714Y-64232200D02*
X109817857Y-64279819D01*
X109817857Y-64279819D02*
X109722619Y-64279819D01*
X109722619Y-64279819D02*
X109579762Y-64232200D01*
X109579762Y-64232200D02*
X109484524Y-64136961D01*
X109484524Y-64136961D02*
X109436905Y-64041723D01*
X109436905Y-64041723D02*
X109389286Y-63851247D01*
X109389286Y-63851247D02*
X109389286Y-63708390D01*
X109389286Y-63708390D02*
X109436905Y-63517914D01*
X109436905Y-63517914D02*
X109484524Y-63422676D01*
X109484524Y-63422676D02*
X109579762Y-63327438D01*
X109579762Y-63327438D02*
X109722619Y-63279819D01*
X109722619Y-63279819D02*
X109817857Y-63279819D01*
X109817857Y-63279819D02*
X109960714Y-63327438D01*
X109960714Y-63327438D02*
X110008333Y-63375057D01*
X110913095Y-63279819D02*
X110436905Y-63279819D01*
X110436905Y-63279819D02*
X110389286Y-63756009D01*
X110389286Y-63756009D02*
X110436905Y-63708390D01*
X110436905Y-63708390D02*
X110532143Y-63660771D01*
X110532143Y-63660771D02*
X110770238Y-63660771D01*
X110770238Y-63660771D02*
X110865476Y-63708390D01*
X110865476Y-63708390D02*
X110913095Y-63756009D01*
X110913095Y-63756009D02*
X110960714Y-63851247D01*
X110960714Y-63851247D02*
X110960714Y-64089342D01*
X110960714Y-64089342D02*
X110913095Y-64184580D01*
X110913095Y-64184580D02*
X110865476Y-64232200D01*
X110865476Y-64232200D02*
X110770238Y-64279819D01*
X110770238Y-64279819D02*
X110532143Y-64279819D01*
X110532143Y-64279819D02*
X110436905Y-64232200D01*
X110436905Y-64232200D02*
X110389286Y-64184580D01*
X109532142Y-76734580D02*
X109484523Y-76782200D01*
X109484523Y-76782200D02*
X109341666Y-76829819D01*
X109341666Y-76829819D02*
X109246428Y-76829819D01*
X109246428Y-76829819D02*
X109103571Y-76782200D01*
X109103571Y-76782200D02*
X109008333Y-76686961D01*
X109008333Y-76686961D02*
X108960714Y-76591723D01*
X108960714Y-76591723D02*
X108913095Y-76401247D01*
X108913095Y-76401247D02*
X108913095Y-76258390D01*
X108913095Y-76258390D02*
X108960714Y-76067914D01*
X108960714Y-76067914D02*
X109008333Y-75972676D01*
X109008333Y-75972676D02*
X109103571Y-75877438D01*
X109103571Y-75877438D02*
X109246428Y-75829819D01*
X109246428Y-75829819D02*
X109341666Y-75829819D01*
X109341666Y-75829819D02*
X109484523Y-75877438D01*
X109484523Y-75877438D02*
X109532142Y-75925057D01*
X110484523Y-76829819D02*
X109913095Y-76829819D01*
X110198809Y-76829819D02*
X110198809Y-75829819D01*
X110198809Y-75829819D02*
X110103571Y-75972676D01*
X110103571Y-75972676D02*
X110008333Y-76067914D01*
X110008333Y-76067914D02*
X109913095Y-76115533D01*
X111103571Y-75829819D02*
X111198809Y-75829819D01*
X111198809Y-75829819D02*
X111294047Y-75877438D01*
X111294047Y-75877438D02*
X111341666Y-75925057D01*
X111341666Y-75925057D02*
X111389285Y-76020295D01*
X111389285Y-76020295D02*
X111436904Y-76210771D01*
X111436904Y-76210771D02*
X111436904Y-76448866D01*
X111436904Y-76448866D02*
X111389285Y-76639342D01*
X111389285Y-76639342D02*
X111341666Y-76734580D01*
X111341666Y-76734580D02*
X111294047Y-76782200D01*
X111294047Y-76782200D02*
X111198809Y-76829819D01*
X111198809Y-76829819D02*
X111103571Y-76829819D01*
X111103571Y-76829819D02*
X111008333Y-76782200D01*
X111008333Y-76782200D02*
X110960714Y-76734580D01*
X110960714Y-76734580D02*
X110913095Y-76639342D01*
X110913095Y-76639342D02*
X110865476Y-76448866D01*
X110865476Y-76448866D02*
X110865476Y-76210771D01*
X110865476Y-76210771D02*
X110913095Y-76020295D01*
X110913095Y-76020295D02*
X110960714Y-75925057D01*
X110960714Y-75925057D02*
X111008333Y-75877438D01*
X111008333Y-75877438D02*
X111103571Y-75829819D01*
X113706905Y-78729819D02*
X113706905Y-77729819D01*
X113706905Y-77729819D02*
X113945000Y-77729819D01*
X113945000Y-77729819D02*
X114087857Y-77777438D01*
X114087857Y-77777438D02*
X114183095Y-77872676D01*
X114183095Y-77872676D02*
X114230714Y-77967914D01*
X114230714Y-77967914D02*
X114278333Y-78158390D01*
X114278333Y-78158390D02*
X114278333Y-78301247D01*
X114278333Y-78301247D02*
X114230714Y-78491723D01*
X114230714Y-78491723D02*
X114183095Y-78586961D01*
X114183095Y-78586961D02*
X114087857Y-78682200D01*
X114087857Y-78682200D02*
X113945000Y-78729819D01*
X113945000Y-78729819D02*
X113706905Y-78729819D01*
X115230714Y-78729819D02*
X114659286Y-78729819D01*
X114945000Y-78729819D02*
X114945000Y-77729819D01*
X114945000Y-77729819D02*
X114849762Y-77872676D01*
X114849762Y-77872676D02*
X114754524Y-77967914D01*
X114754524Y-77967914D02*
X114659286Y-78015533D01*
X141812142Y-70179819D02*
X141478809Y-69703628D01*
X141240714Y-70179819D02*
X141240714Y-69179819D01*
X141240714Y-69179819D02*
X141621666Y-69179819D01*
X141621666Y-69179819D02*
X141716904Y-69227438D01*
X141716904Y-69227438D02*
X141764523Y-69275057D01*
X141764523Y-69275057D02*
X141812142Y-69370295D01*
X141812142Y-69370295D02*
X141812142Y-69513152D01*
X141812142Y-69513152D02*
X141764523Y-69608390D01*
X141764523Y-69608390D02*
X141716904Y-69656009D01*
X141716904Y-69656009D02*
X141621666Y-69703628D01*
X141621666Y-69703628D02*
X141240714Y-69703628D01*
X142764523Y-70179819D02*
X142193095Y-70179819D01*
X142478809Y-70179819D02*
X142478809Y-69179819D01*
X142478809Y-69179819D02*
X142383571Y-69322676D01*
X142383571Y-69322676D02*
X142288333Y-69417914D01*
X142288333Y-69417914D02*
X142193095Y-69465533D01*
X143097857Y-69179819D02*
X143716904Y-69179819D01*
X143716904Y-69179819D02*
X143383571Y-69560771D01*
X143383571Y-69560771D02*
X143526428Y-69560771D01*
X143526428Y-69560771D02*
X143621666Y-69608390D01*
X143621666Y-69608390D02*
X143669285Y-69656009D01*
X143669285Y-69656009D02*
X143716904Y-69751247D01*
X143716904Y-69751247D02*
X143716904Y-69989342D01*
X143716904Y-69989342D02*
X143669285Y-70084580D01*
X143669285Y-70084580D02*
X143621666Y-70132200D01*
X143621666Y-70132200D02*
X143526428Y-70179819D01*
X143526428Y-70179819D02*
X143240714Y-70179819D01*
X143240714Y-70179819D02*
X143145476Y-70132200D01*
X143145476Y-70132200D02*
X143097857Y-70084580D01*
X141812142Y-76079819D02*
X141478809Y-75603628D01*
X141240714Y-76079819D02*
X141240714Y-75079819D01*
X141240714Y-75079819D02*
X141621666Y-75079819D01*
X141621666Y-75079819D02*
X141716904Y-75127438D01*
X141716904Y-75127438D02*
X141764523Y-75175057D01*
X141764523Y-75175057D02*
X141812142Y-75270295D01*
X141812142Y-75270295D02*
X141812142Y-75413152D01*
X141812142Y-75413152D02*
X141764523Y-75508390D01*
X141764523Y-75508390D02*
X141716904Y-75556009D01*
X141716904Y-75556009D02*
X141621666Y-75603628D01*
X141621666Y-75603628D02*
X141240714Y-75603628D01*
X142764523Y-76079819D02*
X142193095Y-76079819D01*
X142478809Y-76079819D02*
X142478809Y-75079819D01*
X142478809Y-75079819D02*
X142383571Y-75222676D01*
X142383571Y-75222676D02*
X142288333Y-75317914D01*
X142288333Y-75317914D02*
X142193095Y-75365533D01*
X143669285Y-75079819D02*
X143193095Y-75079819D01*
X143193095Y-75079819D02*
X143145476Y-75556009D01*
X143145476Y-75556009D02*
X143193095Y-75508390D01*
X143193095Y-75508390D02*
X143288333Y-75460771D01*
X143288333Y-75460771D02*
X143526428Y-75460771D01*
X143526428Y-75460771D02*
X143621666Y-75508390D01*
X143621666Y-75508390D02*
X143669285Y-75556009D01*
X143669285Y-75556009D02*
X143716904Y-75651247D01*
X143716904Y-75651247D02*
X143716904Y-75889342D01*
X143716904Y-75889342D02*
X143669285Y-75984580D01*
X143669285Y-75984580D02*
X143621666Y-76032200D01*
X143621666Y-76032200D02*
X143526428Y-76079819D01*
X143526428Y-76079819D02*
X143288333Y-76079819D01*
X143288333Y-76079819D02*
X143193095Y-76032200D01*
X143193095Y-76032200D02*
X143145476Y-75984580D01*
X111213095Y-79339819D02*
X111213095Y-78339819D01*
X111213095Y-78816009D02*
X111784523Y-78816009D01*
X111784523Y-79339819D02*
X111784523Y-78339819D01*
X112784523Y-79339819D02*
X112213095Y-79339819D01*
X112498809Y-79339819D02*
X112498809Y-78339819D01*
X112498809Y-78339819D02*
X112403571Y-78482676D01*
X112403571Y-78482676D02*
X112308333Y-78577914D01*
X112308333Y-78577914D02*
X112213095Y-78625533D01*
X141812142Y-84929819D02*
X141478809Y-84453628D01*
X141240714Y-84929819D02*
X141240714Y-83929819D01*
X141240714Y-83929819D02*
X141621666Y-83929819D01*
X141621666Y-83929819D02*
X141716904Y-83977438D01*
X141716904Y-83977438D02*
X141764523Y-84025057D01*
X141764523Y-84025057D02*
X141812142Y-84120295D01*
X141812142Y-84120295D02*
X141812142Y-84263152D01*
X141812142Y-84263152D02*
X141764523Y-84358390D01*
X141764523Y-84358390D02*
X141716904Y-84406009D01*
X141716904Y-84406009D02*
X141621666Y-84453628D01*
X141621666Y-84453628D02*
X141240714Y-84453628D01*
X142764523Y-84929819D02*
X142193095Y-84929819D01*
X142478809Y-84929819D02*
X142478809Y-83929819D01*
X142478809Y-83929819D02*
X142383571Y-84072676D01*
X142383571Y-84072676D02*
X142288333Y-84167914D01*
X142288333Y-84167914D02*
X142193095Y-84215533D01*
X143335952Y-84358390D02*
X143240714Y-84310771D01*
X143240714Y-84310771D02*
X143193095Y-84263152D01*
X143193095Y-84263152D02*
X143145476Y-84167914D01*
X143145476Y-84167914D02*
X143145476Y-84120295D01*
X143145476Y-84120295D02*
X143193095Y-84025057D01*
X143193095Y-84025057D02*
X143240714Y-83977438D01*
X143240714Y-83977438D02*
X143335952Y-83929819D01*
X143335952Y-83929819D02*
X143526428Y-83929819D01*
X143526428Y-83929819D02*
X143621666Y-83977438D01*
X143621666Y-83977438D02*
X143669285Y-84025057D01*
X143669285Y-84025057D02*
X143716904Y-84120295D01*
X143716904Y-84120295D02*
X143716904Y-84167914D01*
X143716904Y-84167914D02*
X143669285Y-84263152D01*
X143669285Y-84263152D02*
X143621666Y-84310771D01*
X143621666Y-84310771D02*
X143526428Y-84358390D01*
X143526428Y-84358390D02*
X143335952Y-84358390D01*
X143335952Y-84358390D02*
X143240714Y-84406009D01*
X143240714Y-84406009D02*
X143193095Y-84453628D01*
X143193095Y-84453628D02*
X143145476Y-84548866D01*
X143145476Y-84548866D02*
X143145476Y-84739342D01*
X143145476Y-84739342D02*
X143193095Y-84834580D01*
X143193095Y-84834580D02*
X143240714Y-84882200D01*
X143240714Y-84882200D02*
X143335952Y-84929819D01*
X143335952Y-84929819D02*
X143526428Y-84929819D01*
X143526428Y-84929819D02*
X143621666Y-84882200D01*
X143621666Y-84882200D02*
X143669285Y-84834580D01*
X143669285Y-84834580D02*
X143716904Y-84739342D01*
X143716904Y-84739342D02*
X143716904Y-84548866D01*
X143716904Y-84548866D02*
X143669285Y-84453628D01*
X143669285Y-84453628D02*
X143621666Y-84406009D01*
X143621666Y-84406009D02*
X143526428Y-84358390D01*
X105888333Y-47366580D02*
X105840714Y-47414200D01*
X105840714Y-47414200D02*
X105697857Y-47461819D01*
X105697857Y-47461819D02*
X105602619Y-47461819D01*
X105602619Y-47461819D02*
X105459762Y-47414200D01*
X105459762Y-47414200D02*
X105364524Y-47318961D01*
X105364524Y-47318961D02*
X105316905Y-47223723D01*
X105316905Y-47223723D02*
X105269286Y-47033247D01*
X105269286Y-47033247D02*
X105269286Y-46890390D01*
X105269286Y-46890390D02*
X105316905Y-46699914D01*
X105316905Y-46699914D02*
X105364524Y-46604676D01*
X105364524Y-46604676D02*
X105459762Y-46509438D01*
X105459762Y-46509438D02*
X105602619Y-46461819D01*
X105602619Y-46461819D02*
X105697857Y-46461819D01*
X105697857Y-46461819D02*
X105840714Y-46509438D01*
X105840714Y-46509438D02*
X105888333Y-46557057D01*
X106840714Y-47461819D02*
X106269286Y-47461819D01*
X106555000Y-47461819D02*
X106555000Y-46461819D01*
X106555000Y-46461819D02*
X106459762Y-46604676D01*
X106459762Y-46604676D02*
X106364524Y-46699914D01*
X106364524Y-46699914D02*
X106269286Y-46747533D01*
X91494642Y-101567080D02*
X91447023Y-101614700D01*
X91447023Y-101614700D02*
X91304166Y-101662319D01*
X91304166Y-101662319D02*
X91208928Y-101662319D01*
X91208928Y-101662319D02*
X91066071Y-101614700D01*
X91066071Y-101614700D02*
X90970833Y-101519461D01*
X90970833Y-101519461D02*
X90923214Y-101424223D01*
X90923214Y-101424223D02*
X90875595Y-101233747D01*
X90875595Y-101233747D02*
X90875595Y-101090890D01*
X90875595Y-101090890D02*
X90923214Y-100900414D01*
X90923214Y-100900414D02*
X90970833Y-100805176D01*
X90970833Y-100805176D02*
X91066071Y-100709938D01*
X91066071Y-100709938D02*
X91208928Y-100662319D01*
X91208928Y-100662319D02*
X91304166Y-100662319D01*
X91304166Y-100662319D02*
X91447023Y-100709938D01*
X91447023Y-100709938D02*
X91494642Y-100757557D01*
X92447023Y-101662319D02*
X91875595Y-101662319D01*
X92161309Y-101662319D02*
X92161309Y-100662319D01*
X92161309Y-100662319D02*
X92066071Y-100805176D01*
X92066071Y-100805176D02*
X91970833Y-100900414D01*
X91970833Y-100900414D02*
X91875595Y-100948033D01*
X92923214Y-101662319D02*
X93113690Y-101662319D01*
X93113690Y-101662319D02*
X93208928Y-101614700D01*
X93208928Y-101614700D02*
X93256547Y-101567080D01*
X93256547Y-101567080D02*
X93351785Y-101424223D01*
X93351785Y-101424223D02*
X93399404Y-101233747D01*
X93399404Y-101233747D02*
X93399404Y-100852795D01*
X93399404Y-100852795D02*
X93351785Y-100757557D01*
X93351785Y-100757557D02*
X93304166Y-100709938D01*
X93304166Y-100709938D02*
X93208928Y-100662319D01*
X93208928Y-100662319D02*
X93018452Y-100662319D01*
X93018452Y-100662319D02*
X92923214Y-100709938D01*
X92923214Y-100709938D02*
X92875595Y-100757557D01*
X92875595Y-100757557D02*
X92827976Y-100852795D01*
X92827976Y-100852795D02*
X92827976Y-101090890D01*
X92827976Y-101090890D02*
X92875595Y-101186128D01*
X92875595Y-101186128D02*
X92923214Y-101233747D01*
X92923214Y-101233747D02*
X93018452Y-101281366D01*
X93018452Y-101281366D02*
X93208928Y-101281366D01*
X93208928Y-101281366D02*
X93304166Y-101233747D01*
X93304166Y-101233747D02*
X93351785Y-101186128D01*
X93351785Y-101186128D02*
X93399404Y-101090890D01*
X140857142Y-113354819D02*
X140523809Y-112878628D01*
X140285714Y-113354819D02*
X140285714Y-112354819D01*
X140285714Y-112354819D02*
X140666666Y-112354819D01*
X140666666Y-112354819D02*
X140761904Y-112402438D01*
X140761904Y-112402438D02*
X140809523Y-112450057D01*
X140809523Y-112450057D02*
X140857142Y-112545295D01*
X140857142Y-112545295D02*
X140857142Y-112688152D01*
X140857142Y-112688152D02*
X140809523Y-112783390D01*
X140809523Y-112783390D02*
X140761904Y-112831009D01*
X140761904Y-112831009D02*
X140666666Y-112878628D01*
X140666666Y-112878628D02*
X140285714Y-112878628D01*
X141809523Y-113354819D02*
X141238095Y-113354819D01*
X141523809Y-113354819D02*
X141523809Y-112354819D01*
X141523809Y-112354819D02*
X141428571Y-112497676D01*
X141428571Y-112497676D02*
X141333333Y-112592914D01*
X141333333Y-112592914D02*
X141238095Y-112640533D01*
X142714285Y-112354819D02*
X142238095Y-112354819D01*
X142238095Y-112354819D02*
X142190476Y-112831009D01*
X142190476Y-112831009D02*
X142238095Y-112783390D01*
X142238095Y-112783390D02*
X142333333Y-112735771D01*
X142333333Y-112735771D02*
X142571428Y-112735771D01*
X142571428Y-112735771D02*
X142666666Y-112783390D01*
X142666666Y-112783390D02*
X142714285Y-112831009D01*
X142714285Y-112831009D02*
X142761904Y-112926247D01*
X142761904Y-112926247D02*
X142761904Y-113164342D01*
X142761904Y-113164342D02*
X142714285Y-113259580D01*
X142714285Y-113259580D02*
X142666666Y-113307200D01*
X142666666Y-113307200D02*
X142571428Y-113354819D01*
X142571428Y-113354819D02*
X142333333Y-113354819D01*
X142333333Y-113354819D02*
X142238095Y-113307200D01*
X142238095Y-113307200D02*
X142190476Y-113259580D01*
X150833333Y-73454819D02*
X150500000Y-72978628D01*
X150261905Y-73454819D02*
X150261905Y-72454819D01*
X150261905Y-72454819D02*
X150642857Y-72454819D01*
X150642857Y-72454819D02*
X150738095Y-72502438D01*
X150738095Y-72502438D02*
X150785714Y-72550057D01*
X150785714Y-72550057D02*
X150833333Y-72645295D01*
X150833333Y-72645295D02*
X150833333Y-72788152D01*
X150833333Y-72788152D02*
X150785714Y-72883390D01*
X150785714Y-72883390D02*
X150738095Y-72931009D01*
X150738095Y-72931009D02*
X150642857Y-72978628D01*
X150642857Y-72978628D02*
X150261905Y-72978628D01*
X151166667Y-72454819D02*
X151833333Y-72454819D01*
X151833333Y-72454819D02*
X151404762Y-73454819D01*
X140857142Y-110404819D02*
X140523809Y-109928628D01*
X140285714Y-110404819D02*
X140285714Y-109404819D01*
X140285714Y-109404819D02*
X140666666Y-109404819D01*
X140666666Y-109404819D02*
X140761904Y-109452438D01*
X140761904Y-109452438D02*
X140809523Y-109500057D01*
X140809523Y-109500057D02*
X140857142Y-109595295D01*
X140857142Y-109595295D02*
X140857142Y-109738152D01*
X140857142Y-109738152D02*
X140809523Y-109833390D01*
X140809523Y-109833390D02*
X140761904Y-109881009D01*
X140761904Y-109881009D02*
X140666666Y-109928628D01*
X140666666Y-109928628D02*
X140285714Y-109928628D01*
X141809523Y-110404819D02*
X141238095Y-110404819D01*
X141523809Y-110404819D02*
X141523809Y-109404819D01*
X141523809Y-109404819D02*
X141428571Y-109547676D01*
X141428571Y-109547676D02*
X141333333Y-109642914D01*
X141333333Y-109642914D02*
X141238095Y-109690533D01*
X142666666Y-109738152D02*
X142666666Y-110404819D01*
X142428571Y-109357200D02*
X142190476Y-110071485D01*
X142190476Y-110071485D02*
X142809523Y-110071485D01*
X141812142Y-64279819D02*
X141478809Y-63803628D01*
X141240714Y-64279819D02*
X141240714Y-63279819D01*
X141240714Y-63279819D02*
X141621666Y-63279819D01*
X141621666Y-63279819D02*
X141716904Y-63327438D01*
X141716904Y-63327438D02*
X141764523Y-63375057D01*
X141764523Y-63375057D02*
X141812142Y-63470295D01*
X141812142Y-63470295D02*
X141812142Y-63613152D01*
X141812142Y-63613152D02*
X141764523Y-63708390D01*
X141764523Y-63708390D02*
X141716904Y-63756009D01*
X141716904Y-63756009D02*
X141621666Y-63803628D01*
X141621666Y-63803628D02*
X141240714Y-63803628D01*
X142764523Y-64279819D02*
X142193095Y-64279819D01*
X142478809Y-64279819D02*
X142478809Y-63279819D01*
X142478809Y-63279819D02*
X142383571Y-63422676D01*
X142383571Y-63422676D02*
X142288333Y-63517914D01*
X142288333Y-63517914D02*
X142193095Y-63565533D01*
X143716904Y-64279819D02*
X143145476Y-64279819D01*
X143431190Y-64279819D02*
X143431190Y-63279819D01*
X143431190Y-63279819D02*
X143335952Y-63422676D01*
X143335952Y-63422676D02*
X143240714Y-63517914D01*
X143240714Y-63517914D02*
X143145476Y-63565533D01*
X126448333Y-70159819D02*
X126115000Y-69683628D01*
X125876905Y-70159819D02*
X125876905Y-69159819D01*
X125876905Y-69159819D02*
X126257857Y-69159819D01*
X126257857Y-69159819D02*
X126353095Y-69207438D01*
X126353095Y-69207438D02*
X126400714Y-69255057D01*
X126400714Y-69255057D02*
X126448333Y-69350295D01*
X126448333Y-69350295D02*
X126448333Y-69493152D01*
X126448333Y-69493152D02*
X126400714Y-69588390D01*
X126400714Y-69588390D02*
X126353095Y-69636009D01*
X126353095Y-69636009D02*
X126257857Y-69683628D01*
X126257857Y-69683628D02*
X125876905Y-69683628D01*
X127353095Y-69159819D02*
X126876905Y-69159819D01*
X126876905Y-69159819D02*
X126829286Y-69636009D01*
X126829286Y-69636009D02*
X126876905Y-69588390D01*
X126876905Y-69588390D02*
X126972143Y-69540771D01*
X126972143Y-69540771D02*
X127210238Y-69540771D01*
X127210238Y-69540771D02*
X127305476Y-69588390D01*
X127305476Y-69588390D02*
X127353095Y-69636009D01*
X127353095Y-69636009D02*
X127400714Y-69731247D01*
X127400714Y-69731247D02*
X127400714Y-69969342D01*
X127400714Y-69969342D02*
X127353095Y-70064580D01*
X127353095Y-70064580D02*
X127305476Y-70112200D01*
X127305476Y-70112200D02*
X127210238Y-70159819D01*
X127210238Y-70159819D02*
X126972143Y-70159819D01*
X126972143Y-70159819D02*
X126876905Y-70112200D01*
X126876905Y-70112200D02*
X126829286Y-70064580D01*
X127898333Y-88479819D02*
X127565000Y-88003628D01*
X127326905Y-88479819D02*
X127326905Y-87479819D01*
X127326905Y-87479819D02*
X127707857Y-87479819D01*
X127707857Y-87479819D02*
X127803095Y-87527438D01*
X127803095Y-87527438D02*
X127850714Y-87575057D01*
X127850714Y-87575057D02*
X127898333Y-87670295D01*
X127898333Y-87670295D02*
X127898333Y-87813152D01*
X127898333Y-87813152D02*
X127850714Y-87908390D01*
X127850714Y-87908390D02*
X127803095Y-87956009D01*
X127803095Y-87956009D02*
X127707857Y-88003628D01*
X127707857Y-88003628D02*
X127326905Y-88003628D01*
X128850714Y-88479819D02*
X128279286Y-88479819D01*
X128565000Y-88479819D02*
X128565000Y-87479819D01*
X128565000Y-87479819D02*
X128469762Y-87622676D01*
X128469762Y-87622676D02*
X128374524Y-87717914D01*
X128374524Y-87717914D02*
X128279286Y-87765533D01*
X111213095Y-87289819D02*
X111213095Y-86289819D01*
X111213095Y-86766009D02*
X111784523Y-86766009D01*
X111784523Y-87289819D02*
X111784523Y-86289819D01*
X112213095Y-86385057D02*
X112260714Y-86337438D01*
X112260714Y-86337438D02*
X112355952Y-86289819D01*
X112355952Y-86289819D02*
X112594047Y-86289819D01*
X112594047Y-86289819D02*
X112689285Y-86337438D01*
X112689285Y-86337438D02*
X112736904Y-86385057D01*
X112736904Y-86385057D02*
X112784523Y-86480295D01*
X112784523Y-86480295D02*
X112784523Y-86575533D01*
X112784523Y-86575533D02*
X112736904Y-86718390D01*
X112736904Y-86718390D02*
X112165476Y-87289819D01*
X112165476Y-87289819D02*
X112784523Y-87289819D01*
X140898333Y-74609819D02*
X140565000Y-74133628D01*
X140326905Y-74609819D02*
X140326905Y-73609819D01*
X140326905Y-73609819D02*
X140707857Y-73609819D01*
X140707857Y-73609819D02*
X140803095Y-73657438D01*
X140803095Y-73657438D02*
X140850714Y-73705057D01*
X140850714Y-73705057D02*
X140898333Y-73800295D01*
X140898333Y-73800295D02*
X140898333Y-73943152D01*
X140898333Y-73943152D02*
X140850714Y-74038390D01*
X140850714Y-74038390D02*
X140803095Y-74086009D01*
X140803095Y-74086009D02*
X140707857Y-74133628D01*
X140707857Y-74133628D02*
X140326905Y-74133628D01*
X141374524Y-74609819D02*
X141565000Y-74609819D01*
X141565000Y-74609819D02*
X141660238Y-74562200D01*
X141660238Y-74562200D02*
X141707857Y-74514580D01*
X141707857Y-74514580D02*
X141803095Y-74371723D01*
X141803095Y-74371723D02*
X141850714Y-74181247D01*
X141850714Y-74181247D02*
X141850714Y-73800295D01*
X141850714Y-73800295D02*
X141803095Y-73705057D01*
X141803095Y-73705057D02*
X141755476Y-73657438D01*
X141755476Y-73657438D02*
X141660238Y-73609819D01*
X141660238Y-73609819D02*
X141469762Y-73609819D01*
X141469762Y-73609819D02*
X141374524Y-73657438D01*
X141374524Y-73657438D02*
X141326905Y-73705057D01*
X141326905Y-73705057D02*
X141279286Y-73800295D01*
X141279286Y-73800295D02*
X141279286Y-74038390D01*
X141279286Y-74038390D02*
X141326905Y-74133628D01*
X141326905Y-74133628D02*
X141374524Y-74181247D01*
X141374524Y-74181247D02*
X141469762Y-74228866D01*
X141469762Y-74228866D02*
X141660238Y-74228866D01*
X141660238Y-74228866D02*
X141755476Y-74181247D01*
X141755476Y-74181247D02*
X141803095Y-74133628D01*
X141803095Y-74133628D02*
X141850714Y-74038390D01*
X150662142Y-76184580D02*
X150614523Y-76232200D01*
X150614523Y-76232200D02*
X150471666Y-76279819D01*
X150471666Y-76279819D02*
X150376428Y-76279819D01*
X150376428Y-76279819D02*
X150233571Y-76232200D01*
X150233571Y-76232200D02*
X150138333Y-76136961D01*
X150138333Y-76136961D02*
X150090714Y-76041723D01*
X150090714Y-76041723D02*
X150043095Y-75851247D01*
X150043095Y-75851247D02*
X150043095Y-75708390D01*
X150043095Y-75708390D02*
X150090714Y-75517914D01*
X150090714Y-75517914D02*
X150138333Y-75422676D01*
X150138333Y-75422676D02*
X150233571Y-75327438D01*
X150233571Y-75327438D02*
X150376428Y-75279819D01*
X150376428Y-75279819D02*
X150471666Y-75279819D01*
X150471666Y-75279819D02*
X150614523Y-75327438D01*
X150614523Y-75327438D02*
X150662142Y-75375057D01*
X151043095Y-75375057D02*
X151090714Y-75327438D01*
X151090714Y-75327438D02*
X151185952Y-75279819D01*
X151185952Y-75279819D02*
X151424047Y-75279819D01*
X151424047Y-75279819D02*
X151519285Y-75327438D01*
X151519285Y-75327438D02*
X151566904Y-75375057D01*
X151566904Y-75375057D02*
X151614523Y-75470295D01*
X151614523Y-75470295D02*
X151614523Y-75565533D01*
X151614523Y-75565533D02*
X151566904Y-75708390D01*
X151566904Y-75708390D02*
X150995476Y-76279819D01*
X150995476Y-76279819D02*
X151614523Y-76279819D01*
X152566904Y-76279819D02*
X151995476Y-76279819D01*
X152281190Y-76279819D02*
X152281190Y-75279819D01*
X152281190Y-75279819D02*
X152185952Y-75422676D01*
X152185952Y-75422676D02*
X152090714Y-75517914D01*
X152090714Y-75517914D02*
X151995476Y-75565533D01*
X117911666Y-78039819D02*
X117911666Y-78754104D01*
X117911666Y-78754104D02*
X117864047Y-78896961D01*
X117864047Y-78896961D02*
X117768809Y-78992200D01*
X117768809Y-78992200D02*
X117625952Y-79039819D01*
X117625952Y-79039819D02*
X117530714Y-79039819D01*
X118911666Y-79039819D02*
X118340238Y-79039819D01*
X118625952Y-79039819D02*
X118625952Y-78039819D01*
X118625952Y-78039819D02*
X118530714Y-78182676D01*
X118530714Y-78182676D02*
X118435476Y-78277914D01*
X118435476Y-78277914D02*
X118340238Y-78325533D01*
X125972142Y-82259819D02*
X125638809Y-81783628D01*
X125400714Y-82259819D02*
X125400714Y-81259819D01*
X125400714Y-81259819D02*
X125781666Y-81259819D01*
X125781666Y-81259819D02*
X125876904Y-81307438D01*
X125876904Y-81307438D02*
X125924523Y-81355057D01*
X125924523Y-81355057D02*
X125972142Y-81450295D01*
X125972142Y-81450295D02*
X125972142Y-81593152D01*
X125972142Y-81593152D02*
X125924523Y-81688390D01*
X125924523Y-81688390D02*
X125876904Y-81736009D01*
X125876904Y-81736009D02*
X125781666Y-81783628D01*
X125781666Y-81783628D02*
X125400714Y-81783628D01*
X126924523Y-82259819D02*
X126353095Y-82259819D01*
X126638809Y-82259819D02*
X126638809Y-81259819D01*
X126638809Y-81259819D02*
X126543571Y-81402676D01*
X126543571Y-81402676D02*
X126448333Y-81497914D01*
X126448333Y-81497914D02*
X126353095Y-81545533D01*
X127543571Y-81259819D02*
X127638809Y-81259819D01*
X127638809Y-81259819D02*
X127734047Y-81307438D01*
X127734047Y-81307438D02*
X127781666Y-81355057D01*
X127781666Y-81355057D02*
X127829285Y-81450295D01*
X127829285Y-81450295D02*
X127876904Y-81640771D01*
X127876904Y-81640771D02*
X127876904Y-81878866D01*
X127876904Y-81878866D02*
X127829285Y-82069342D01*
X127829285Y-82069342D02*
X127781666Y-82164580D01*
X127781666Y-82164580D02*
X127734047Y-82212200D01*
X127734047Y-82212200D02*
X127638809Y-82259819D01*
X127638809Y-82259819D02*
X127543571Y-82259819D01*
X127543571Y-82259819D02*
X127448333Y-82212200D01*
X127448333Y-82212200D02*
X127400714Y-82164580D01*
X127400714Y-82164580D02*
X127353095Y-82069342D01*
X127353095Y-82069342D02*
X127305476Y-81878866D01*
X127305476Y-81878866D02*
X127305476Y-81640771D01*
X127305476Y-81640771D02*
X127353095Y-81450295D01*
X127353095Y-81450295D02*
X127400714Y-81355057D01*
X127400714Y-81355057D02*
X127448333Y-81307438D01*
X127448333Y-81307438D02*
X127543571Y-81259819D01*
X158043095Y-76079819D02*
X158043095Y-76889342D01*
X158043095Y-76889342D02*
X158090714Y-76984580D01*
X158090714Y-76984580D02*
X158138333Y-77032200D01*
X158138333Y-77032200D02*
X158233571Y-77079819D01*
X158233571Y-77079819D02*
X158424047Y-77079819D01*
X158424047Y-77079819D02*
X158519285Y-77032200D01*
X158519285Y-77032200D02*
X158566904Y-76984580D01*
X158566904Y-76984580D02*
X158614523Y-76889342D01*
X158614523Y-76889342D02*
X158614523Y-76079819D01*
X159043095Y-76175057D02*
X159090714Y-76127438D01*
X159090714Y-76127438D02*
X159185952Y-76079819D01*
X159185952Y-76079819D02*
X159424047Y-76079819D01*
X159424047Y-76079819D02*
X159519285Y-76127438D01*
X159519285Y-76127438D02*
X159566904Y-76175057D01*
X159566904Y-76175057D02*
X159614523Y-76270295D01*
X159614523Y-76270295D02*
X159614523Y-76365533D01*
X159614523Y-76365533D02*
X159566904Y-76508390D01*
X159566904Y-76508390D02*
X158995476Y-77079819D01*
X158995476Y-77079819D02*
X159614523Y-77079819D01*
X135438333Y-70934580D02*
X135390714Y-70982200D01*
X135390714Y-70982200D02*
X135247857Y-71029819D01*
X135247857Y-71029819D02*
X135152619Y-71029819D01*
X135152619Y-71029819D02*
X135009762Y-70982200D01*
X135009762Y-70982200D02*
X134914524Y-70886961D01*
X134914524Y-70886961D02*
X134866905Y-70791723D01*
X134866905Y-70791723D02*
X134819286Y-70601247D01*
X134819286Y-70601247D02*
X134819286Y-70458390D01*
X134819286Y-70458390D02*
X134866905Y-70267914D01*
X134866905Y-70267914D02*
X134914524Y-70172676D01*
X134914524Y-70172676D02*
X135009762Y-70077438D01*
X135009762Y-70077438D02*
X135152619Y-70029819D01*
X135152619Y-70029819D02*
X135247857Y-70029819D01*
X135247857Y-70029819D02*
X135390714Y-70077438D01*
X135390714Y-70077438D02*
X135438333Y-70125057D01*
X135819286Y-70125057D02*
X135866905Y-70077438D01*
X135866905Y-70077438D02*
X135962143Y-70029819D01*
X135962143Y-70029819D02*
X136200238Y-70029819D01*
X136200238Y-70029819D02*
X136295476Y-70077438D01*
X136295476Y-70077438D02*
X136343095Y-70125057D01*
X136343095Y-70125057D02*
X136390714Y-70220295D01*
X136390714Y-70220295D02*
X136390714Y-70315533D01*
X136390714Y-70315533D02*
X136343095Y-70458390D01*
X136343095Y-70458390D02*
X135771667Y-71029819D01*
X135771667Y-71029819D02*
X136390714Y-71029819D01*
X113882142Y-64184580D02*
X113834523Y-64232200D01*
X113834523Y-64232200D02*
X113691666Y-64279819D01*
X113691666Y-64279819D02*
X113596428Y-64279819D01*
X113596428Y-64279819D02*
X113453571Y-64232200D01*
X113453571Y-64232200D02*
X113358333Y-64136961D01*
X113358333Y-64136961D02*
X113310714Y-64041723D01*
X113310714Y-64041723D02*
X113263095Y-63851247D01*
X113263095Y-63851247D02*
X113263095Y-63708390D01*
X113263095Y-63708390D02*
X113310714Y-63517914D01*
X113310714Y-63517914D02*
X113358333Y-63422676D01*
X113358333Y-63422676D02*
X113453571Y-63327438D01*
X113453571Y-63327438D02*
X113596428Y-63279819D01*
X113596428Y-63279819D02*
X113691666Y-63279819D01*
X113691666Y-63279819D02*
X113834523Y-63327438D01*
X113834523Y-63327438D02*
X113882142Y-63375057D01*
X114834523Y-64279819D02*
X114263095Y-64279819D01*
X114548809Y-64279819D02*
X114548809Y-63279819D01*
X114548809Y-63279819D02*
X114453571Y-63422676D01*
X114453571Y-63422676D02*
X114358333Y-63517914D01*
X114358333Y-63517914D02*
X114263095Y-63565533D01*
X115786904Y-64279819D02*
X115215476Y-64279819D01*
X115501190Y-64279819D02*
X115501190Y-63279819D01*
X115501190Y-63279819D02*
X115405952Y-63422676D01*
X115405952Y-63422676D02*
X115310714Y-63517914D01*
X115310714Y-63517914D02*
X115215476Y-63565533D01*
X141812142Y-79029819D02*
X141478809Y-78553628D01*
X141240714Y-79029819D02*
X141240714Y-78029819D01*
X141240714Y-78029819D02*
X141621666Y-78029819D01*
X141621666Y-78029819D02*
X141716904Y-78077438D01*
X141716904Y-78077438D02*
X141764523Y-78125057D01*
X141764523Y-78125057D02*
X141812142Y-78220295D01*
X141812142Y-78220295D02*
X141812142Y-78363152D01*
X141812142Y-78363152D02*
X141764523Y-78458390D01*
X141764523Y-78458390D02*
X141716904Y-78506009D01*
X141716904Y-78506009D02*
X141621666Y-78553628D01*
X141621666Y-78553628D02*
X141240714Y-78553628D01*
X142764523Y-79029819D02*
X142193095Y-79029819D01*
X142478809Y-79029819D02*
X142478809Y-78029819D01*
X142478809Y-78029819D02*
X142383571Y-78172676D01*
X142383571Y-78172676D02*
X142288333Y-78267914D01*
X142288333Y-78267914D02*
X142193095Y-78315533D01*
X143621666Y-78029819D02*
X143431190Y-78029819D01*
X143431190Y-78029819D02*
X143335952Y-78077438D01*
X143335952Y-78077438D02*
X143288333Y-78125057D01*
X143288333Y-78125057D02*
X143193095Y-78267914D01*
X143193095Y-78267914D02*
X143145476Y-78458390D01*
X143145476Y-78458390D02*
X143145476Y-78839342D01*
X143145476Y-78839342D02*
X143193095Y-78934580D01*
X143193095Y-78934580D02*
X143240714Y-78982200D01*
X143240714Y-78982200D02*
X143335952Y-79029819D01*
X143335952Y-79029819D02*
X143526428Y-79029819D01*
X143526428Y-79029819D02*
X143621666Y-78982200D01*
X143621666Y-78982200D02*
X143669285Y-78934580D01*
X143669285Y-78934580D02*
X143716904Y-78839342D01*
X143716904Y-78839342D02*
X143716904Y-78601247D01*
X143716904Y-78601247D02*
X143669285Y-78506009D01*
X143669285Y-78506009D02*
X143621666Y-78458390D01*
X143621666Y-78458390D02*
X143526428Y-78410771D01*
X143526428Y-78410771D02*
X143335952Y-78410771D01*
X143335952Y-78410771D02*
X143240714Y-78458390D01*
X143240714Y-78458390D02*
X143193095Y-78506009D01*
X143193095Y-78506009D02*
X143145476Y-78601247D01*
X156357142Y-116154819D02*
X156023809Y-115678628D01*
X155785714Y-116154819D02*
X155785714Y-115154819D01*
X155785714Y-115154819D02*
X156166666Y-115154819D01*
X156166666Y-115154819D02*
X156261904Y-115202438D01*
X156261904Y-115202438D02*
X156309523Y-115250057D01*
X156309523Y-115250057D02*
X156357142Y-115345295D01*
X156357142Y-115345295D02*
X156357142Y-115488152D01*
X156357142Y-115488152D02*
X156309523Y-115583390D01*
X156309523Y-115583390D02*
X156261904Y-115631009D01*
X156261904Y-115631009D02*
X156166666Y-115678628D01*
X156166666Y-115678628D02*
X155785714Y-115678628D01*
X157309523Y-116154819D02*
X156738095Y-116154819D01*
X157023809Y-116154819D02*
X157023809Y-115154819D01*
X157023809Y-115154819D02*
X156928571Y-115297676D01*
X156928571Y-115297676D02*
X156833333Y-115392914D01*
X156833333Y-115392914D02*
X156738095Y-115440533D01*
X157785714Y-116154819D02*
X157976190Y-116154819D01*
X157976190Y-116154819D02*
X158071428Y-116107200D01*
X158071428Y-116107200D02*
X158119047Y-116059580D01*
X158119047Y-116059580D02*
X158214285Y-115916723D01*
X158214285Y-115916723D02*
X158261904Y-115726247D01*
X158261904Y-115726247D02*
X158261904Y-115345295D01*
X158261904Y-115345295D02*
X158214285Y-115250057D01*
X158214285Y-115250057D02*
X158166666Y-115202438D01*
X158166666Y-115202438D02*
X158071428Y-115154819D01*
X158071428Y-115154819D02*
X157880952Y-115154819D01*
X157880952Y-115154819D02*
X157785714Y-115202438D01*
X157785714Y-115202438D02*
X157738095Y-115250057D01*
X157738095Y-115250057D02*
X157690476Y-115345295D01*
X157690476Y-115345295D02*
X157690476Y-115583390D01*
X157690476Y-115583390D02*
X157738095Y-115678628D01*
X157738095Y-115678628D02*
X157785714Y-115726247D01*
X157785714Y-115726247D02*
X157880952Y-115773866D01*
X157880952Y-115773866D02*
X158071428Y-115773866D01*
X158071428Y-115773866D02*
X158166666Y-115726247D01*
X158166666Y-115726247D02*
X158214285Y-115678628D01*
X158214285Y-115678628D02*
X158261904Y-115583390D01*
X154833333Y-74454819D02*
X154500000Y-73978628D01*
X154261905Y-74454819D02*
X154261905Y-73454819D01*
X154261905Y-73454819D02*
X154642857Y-73454819D01*
X154642857Y-73454819D02*
X154738095Y-73502438D01*
X154738095Y-73502438D02*
X154785714Y-73550057D01*
X154785714Y-73550057D02*
X154833333Y-73645295D01*
X154833333Y-73645295D02*
X154833333Y-73788152D01*
X154833333Y-73788152D02*
X154785714Y-73883390D01*
X154785714Y-73883390D02*
X154738095Y-73931009D01*
X154738095Y-73931009D02*
X154642857Y-73978628D01*
X154642857Y-73978628D02*
X154261905Y-73978628D01*
X155690476Y-73454819D02*
X155500000Y-73454819D01*
X155500000Y-73454819D02*
X155404762Y-73502438D01*
X155404762Y-73502438D02*
X155357143Y-73550057D01*
X155357143Y-73550057D02*
X155261905Y-73692914D01*
X155261905Y-73692914D02*
X155214286Y-73883390D01*
X155214286Y-73883390D02*
X155214286Y-74264342D01*
X155214286Y-74264342D02*
X155261905Y-74359580D01*
X155261905Y-74359580D02*
X155309524Y-74407200D01*
X155309524Y-74407200D02*
X155404762Y-74454819D01*
X155404762Y-74454819D02*
X155595238Y-74454819D01*
X155595238Y-74454819D02*
X155690476Y-74407200D01*
X155690476Y-74407200D02*
X155738095Y-74359580D01*
X155738095Y-74359580D02*
X155785714Y-74264342D01*
X155785714Y-74264342D02*
X155785714Y-74026247D01*
X155785714Y-74026247D02*
X155738095Y-73931009D01*
X155738095Y-73931009D02*
X155690476Y-73883390D01*
X155690476Y-73883390D02*
X155595238Y-73835771D01*
X155595238Y-73835771D02*
X155404762Y-73835771D01*
X155404762Y-73835771D02*
X155309524Y-73883390D01*
X155309524Y-73883390D02*
X155261905Y-73931009D01*
X155261905Y-73931009D02*
X155214286Y-74026247D01*
X85494642Y-104427080D02*
X85447023Y-104474700D01*
X85447023Y-104474700D02*
X85304166Y-104522319D01*
X85304166Y-104522319D02*
X85208928Y-104522319D01*
X85208928Y-104522319D02*
X85066071Y-104474700D01*
X85066071Y-104474700D02*
X84970833Y-104379461D01*
X84970833Y-104379461D02*
X84923214Y-104284223D01*
X84923214Y-104284223D02*
X84875595Y-104093747D01*
X84875595Y-104093747D02*
X84875595Y-103950890D01*
X84875595Y-103950890D02*
X84923214Y-103760414D01*
X84923214Y-103760414D02*
X84970833Y-103665176D01*
X84970833Y-103665176D02*
X85066071Y-103569938D01*
X85066071Y-103569938D02*
X85208928Y-103522319D01*
X85208928Y-103522319D02*
X85304166Y-103522319D01*
X85304166Y-103522319D02*
X85447023Y-103569938D01*
X85447023Y-103569938D02*
X85494642Y-103617557D01*
X86447023Y-104522319D02*
X85875595Y-104522319D01*
X86161309Y-104522319D02*
X86161309Y-103522319D01*
X86161309Y-103522319D02*
X86066071Y-103665176D01*
X86066071Y-103665176D02*
X85970833Y-103760414D01*
X85970833Y-103760414D02*
X85875595Y-103808033D01*
X87066071Y-103522319D02*
X87161309Y-103522319D01*
X87161309Y-103522319D02*
X87256547Y-103569938D01*
X87256547Y-103569938D02*
X87304166Y-103617557D01*
X87304166Y-103617557D02*
X87351785Y-103712795D01*
X87351785Y-103712795D02*
X87399404Y-103903271D01*
X87399404Y-103903271D02*
X87399404Y-104141366D01*
X87399404Y-104141366D02*
X87351785Y-104331842D01*
X87351785Y-104331842D02*
X87304166Y-104427080D01*
X87304166Y-104427080D02*
X87256547Y-104474700D01*
X87256547Y-104474700D02*
X87161309Y-104522319D01*
X87161309Y-104522319D02*
X87066071Y-104522319D01*
X87066071Y-104522319D02*
X86970833Y-104474700D01*
X86970833Y-104474700D02*
X86923214Y-104427080D01*
X86923214Y-104427080D02*
X86875595Y-104331842D01*
X86875595Y-104331842D02*
X86827976Y-104141366D01*
X86827976Y-104141366D02*
X86827976Y-103903271D01*
X86827976Y-103903271D02*
X86875595Y-103712795D01*
X86875595Y-103712795D02*
X86923214Y-103617557D01*
X86923214Y-103617557D02*
X86970833Y-103569938D01*
X86970833Y-103569938D02*
X87066071Y-103522319D01*
X107212333Y-57454819D02*
X106879000Y-56978628D01*
X106640905Y-57454819D02*
X106640905Y-56454819D01*
X106640905Y-56454819D02*
X107021857Y-56454819D01*
X107021857Y-56454819D02*
X107117095Y-56502438D01*
X107117095Y-56502438D02*
X107164714Y-56550057D01*
X107164714Y-56550057D02*
X107212333Y-56645295D01*
X107212333Y-56645295D02*
X107212333Y-56788152D01*
X107212333Y-56788152D02*
X107164714Y-56883390D01*
X107164714Y-56883390D02*
X107117095Y-56931009D01*
X107117095Y-56931009D02*
X107021857Y-56978628D01*
X107021857Y-56978628D02*
X106640905Y-56978628D01*
X107593286Y-56550057D02*
X107640905Y-56502438D01*
X107640905Y-56502438D02*
X107736143Y-56454819D01*
X107736143Y-56454819D02*
X107974238Y-56454819D01*
X107974238Y-56454819D02*
X108069476Y-56502438D01*
X108069476Y-56502438D02*
X108117095Y-56550057D01*
X108117095Y-56550057D02*
X108164714Y-56645295D01*
X108164714Y-56645295D02*
X108164714Y-56740533D01*
X108164714Y-56740533D02*
X108117095Y-56883390D01*
X108117095Y-56883390D02*
X107545667Y-57454819D01*
X107545667Y-57454819D02*
X108164714Y-57454819D01*
X157392142Y-68349819D02*
X157058809Y-67873628D01*
X156820714Y-68349819D02*
X156820714Y-67349819D01*
X156820714Y-67349819D02*
X157201666Y-67349819D01*
X157201666Y-67349819D02*
X157296904Y-67397438D01*
X157296904Y-67397438D02*
X157344523Y-67445057D01*
X157344523Y-67445057D02*
X157392142Y-67540295D01*
X157392142Y-67540295D02*
X157392142Y-67683152D01*
X157392142Y-67683152D02*
X157344523Y-67778390D01*
X157344523Y-67778390D02*
X157296904Y-67826009D01*
X157296904Y-67826009D02*
X157201666Y-67873628D01*
X157201666Y-67873628D02*
X156820714Y-67873628D01*
X157773095Y-67445057D02*
X157820714Y-67397438D01*
X157820714Y-67397438D02*
X157915952Y-67349819D01*
X157915952Y-67349819D02*
X158154047Y-67349819D01*
X158154047Y-67349819D02*
X158249285Y-67397438D01*
X158249285Y-67397438D02*
X158296904Y-67445057D01*
X158296904Y-67445057D02*
X158344523Y-67540295D01*
X158344523Y-67540295D02*
X158344523Y-67635533D01*
X158344523Y-67635533D02*
X158296904Y-67778390D01*
X158296904Y-67778390D02*
X157725476Y-68349819D01*
X157725476Y-68349819D02*
X158344523Y-68349819D01*
X158963571Y-67349819D02*
X159058809Y-67349819D01*
X159058809Y-67349819D02*
X159154047Y-67397438D01*
X159154047Y-67397438D02*
X159201666Y-67445057D01*
X159201666Y-67445057D02*
X159249285Y-67540295D01*
X159249285Y-67540295D02*
X159296904Y-67730771D01*
X159296904Y-67730771D02*
X159296904Y-67968866D01*
X159296904Y-67968866D02*
X159249285Y-68159342D01*
X159249285Y-68159342D02*
X159201666Y-68254580D01*
X159201666Y-68254580D02*
X159154047Y-68302200D01*
X159154047Y-68302200D02*
X159058809Y-68349819D01*
X159058809Y-68349819D02*
X158963571Y-68349819D01*
X158963571Y-68349819D02*
X158868333Y-68302200D01*
X158868333Y-68302200D02*
X158820714Y-68254580D01*
X158820714Y-68254580D02*
X158773095Y-68159342D01*
X158773095Y-68159342D02*
X158725476Y-67968866D01*
X158725476Y-67968866D02*
X158725476Y-67730771D01*
X158725476Y-67730771D02*
X158773095Y-67540295D01*
X158773095Y-67540295D02*
X158820714Y-67445057D01*
X158820714Y-67445057D02*
X158868333Y-67397438D01*
X158868333Y-67397438D02*
X158963571Y-67349819D01*
X135438333Y-64084580D02*
X135390714Y-64132200D01*
X135390714Y-64132200D02*
X135247857Y-64179819D01*
X135247857Y-64179819D02*
X135152619Y-64179819D01*
X135152619Y-64179819D02*
X135009762Y-64132200D01*
X135009762Y-64132200D02*
X134914524Y-64036961D01*
X134914524Y-64036961D02*
X134866905Y-63941723D01*
X134866905Y-63941723D02*
X134819286Y-63751247D01*
X134819286Y-63751247D02*
X134819286Y-63608390D01*
X134819286Y-63608390D02*
X134866905Y-63417914D01*
X134866905Y-63417914D02*
X134914524Y-63322676D01*
X134914524Y-63322676D02*
X135009762Y-63227438D01*
X135009762Y-63227438D02*
X135152619Y-63179819D01*
X135152619Y-63179819D02*
X135247857Y-63179819D01*
X135247857Y-63179819D02*
X135390714Y-63227438D01*
X135390714Y-63227438D02*
X135438333Y-63275057D01*
X136390714Y-64179819D02*
X135819286Y-64179819D01*
X136105000Y-64179819D02*
X136105000Y-63179819D01*
X136105000Y-63179819D02*
X136009762Y-63322676D01*
X136009762Y-63322676D02*
X135914524Y-63417914D01*
X135914524Y-63417914D02*
X135819286Y-63465533D01*
X85494642Y-109567080D02*
X85447023Y-109614700D01*
X85447023Y-109614700D02*
X85304166Y-109662319D01*
X85304166Y-109662319D02*
X85208928Y-109662319D01*
X85208928Y-109662319D02*
X85066071Y-109614700D01*
X85066071Y-109614700D02*
X84970833Y-109519461D01*
X84970833Y-109519461D02*
X84923214Y-109424223D01*
X84923214Y-109424223D02*
X84875595Y-109233747D01*
X84875595Y-109233747D02*
X84875595Y-109090890D01*
X84875595Y-109090890D02*
X84923214Y-108900414D01*
X84923214Y-108900414D02*
X84970833Y-108805176D01*
X84970833Y-108805176D02*
X85066071Y-108709938D01*
X85066071Y-108709938D02*
X85208928Y-108662319D01*
X85208928Y-108662319D02*
X85304166Y-108662319D01*
X85304166Y-108662319D02*
X85447023Y-108709938D01*
X85447023Y-108709938D02*
X85494642Y-108757557D01*
X86447023Y-109662319D02*
X85875595Y-109662319D01*
X86161309Y-109662319D02*
X86161309Y-108662319D01*
X86161309Y-108662319D02*
X86066071Y-108805176D01*
X86066071Y-108805176D02*
X85970833Y-108900414D01*
X85970833Y-108900414D02*
X85875595Y-108948033D01*
X86780357Y-108662319D02*
X87399404Y-108662319D01*
X87399404Y-108662319D02*
X87066071Y-109043271D01*
X87066071Y-109043271D02*
X87208928Y-109043271D01*
X87208928Y-109043271D02*
X87304166Y-109090890D01*
X87304166Y-109090890D02*
X87351785Y-109138509D01*
X87351785Y-109138509D02*
X87399404Y-109233747D01*
X87399404Y-109233747D02*
X87399404Y-109471842D01*
X87399404Y-109471842D02*
X87351785Y-109567080D01*
X87351785Y-109567080D02*
X87304166Y-109614700D01*
X87304166Y-109614700D02*
X87208928Y-109662319D01*
X87208928Y-109662319D02*
X86923214Y-109662319D01*
X86923214Y-109662319D02*
X86827976Y-109614700D01*
X86827976Y-109614700D02*
X86780357Y-109567080D01*
X161238095Y-59804819D02*
X161238095Y-58804819D01*
X161238095Y-59281009D02*
X161809523Y-59281009D01*
X161809523Y-59804819D02*
X161809523Y-58804819D01*
X162190476Y-58804819D02*
X162809523Y-58804819D01*
X162809523Y-58804819D02*
X162476190Y-59185771D01*
X162476190Y-59185771D02*
X162619047Y-59185771D01*
X162619047Y-59185771D02*
X162714285Y-59233390D01*
X162714285Y-59233390D02*
X162761904Y-59281009D01*
X162761904Y-59281009D02*
X162809523Y-59376247D01*
X162809523Y-59376247D02*
X162809523Y-59614342D01*
X162809523Y-59614342D02*
X162761904Y-59709580D01*
X162761904Y-59709580D02*
X162714285Y-59757200D01*
X162714285Y-59757200D02*
X162619047Y-59804819D01*
X162619047Y-59804819D02*
X162333333Y-59804819D01*
X162333333Y-59804819D02*
X162238095Y-59757200D01*
X162238095Y-59757200D02*
X162190476Y-59709580D01*
X132857142Y-110454819D02*
X132523809Y-109978628D01*
X132285714Y-110454819D02*
X132285714Y-109454819D01*
X132285714Y-109454819D02*
X132666666Y-109454819D01*
X132666666Y-109454819D02*
X132761904Y-109502438D01*
X132761904Y-109502438D02*
X132809523Y-109550057D01*
X132809523Y-109550057D02*
X132857142Y-109645295D01*
X132857142Y-109645295D02*
X132857142Y-109788152D01*
X132857142Y-109788152D02*
X132809523Y-109883390D01*
X132809523Y-109883390D02*
X132761904Y-109931009D01*
X132761904Y-109931009D02*
X132666666Y-109978628D01*
X132666666Y-109978628D02*
X132285714Y-109978628D01*
X133809523Y-110454819D02*
X133238095Y-110454819D01*
X133523809Y-110454819D02*
X133523809Y-109454819D01*
X133523809Y-109454819D02*
X133428571Y-109597676D01*
X133428571Y-109597676D02*
X133333333Y-109692914D01*
X133333333Y-109692914D02*
X133238095Y-109740533D01*
X134761904Y-110454819D02*
X134190476Y-110454819D01*
X134476190Y-110454819D02*
X134476190Y-109454819D01*
X134476190Y-109454819D02*
X134380952Y-109597676D01*
X134380952Y-109597676D02*
X134285714Y-109692914D01*
X134285714Y-109692914D02*
X134190476Y-109740533D01*
X141812142Y-87879819D02*
X141478809Y-87403628D01*
X141240714Y-87879819D02*
X141240714Y-86879819D01*
X141240714Y-86879819D02*
X141621666Y-86879819D01*
X141621666Y-86879819D02*
X141716904Y-86927438D01*
X141716904Y-86927438D02*
X141764523Y-86975057D01*
X141764523Y-86975057D02*
X141812142Y-87070295D01*
X141812142Y-87070295D02*
X141812142Y-87213152D01*
X141812142Y-87213152D02*
X141764523Y-87308390D01*
X141764523Y-87308390D02*
X141716904Y-87356009D01*
X141716904Y-87356009D02*
X141621666Y-87403628D01*
X141621666Y-87403628D02*
X141240714Y-87403628D01*
X142764523Y-87879819D02*
X142193095Y-87879819D01*
X142478809Y-87879819D02*
X142478809Y-86879819D01*
X142478809Y-86879819D02*
X142383571Y-87022676D01*
X142383571Y-87022676D02*
X142288333Y-87117914D01*
X142288333Y-87117914D02*
X142193095Y-87165533D01*
X143240714Y-87879819D02*
X143431190Y-87879819D01*
X143431190Y-87879819D02*
X143526428Y-87832200D01*
X143526428Y-87832200D02*
X143574047Y-87784580D01*
X143574047Y-87784580D02*
X143669285Y-87641723D01*
X143669285Y-87641723D02*
X143716904Y-87451247D01*
X143716904Y-87451247D02*
X143716904Y-87070295D01*
X143716904Y-87070295D02*
X143669285Y-86975057D01*
X143669285Y-86975057D02*
X143621666Y-86927438D01*
X143621666Y-86927438D02*
X143526428Y-86879819D01*
X143526428Y-86879819D02*
X143335952Y-86879819D01*
X143335952Y-86879819D02*
X143240714Y-86927438D01*
X143240714Y-86927438D02*
X143193095Y-86975057D01*
X143193095Y-86975057D02*
X143145476Y-87070295D01*
X143145476Y-87070295D02*
X143145476Y-87308390D01*
X143145476Y-87308390D02*
X143193095Y-87403628D01*
X143193095Y-87403628D02*
X143240714Y-87451247D01*
X143240714Y-87451247D02*
X143335952Y-87498866D01*
X143335952Y-87498866D02*
X143526428Y-87498866D01*
X143526428Y-87498866D02*
X143621666Y-87451247D01*
X143621666Y-87451247D02*
X143669285Y-87403628D01*
X143669285Y-87403628D02*
X143716904Y-87308390D01*
%TO.C,D3*%
D12*
X158145000Y-64775000D02*
X161565000Y-64775000D01*
X158145000Y-64955000D02*
X158145000Y-64775000D01*
X158145000Y-67295000D02*
X158145000Y-67115000D01*
X158265000Y-64775000D02*
X158265000Y-64955000D01*
X158265000Y-67115000D02*
X158265000Y-67295000D01*
X158385000Y-64775000D02*
X158385000Y-64955000D01*
X158385000Y-67115000D02*
X158385000Y-67295000D01*
X161565000Y-64775000D02*
X161565000Y-65049000D01*
X161565000Y-67021000D02*
X161565000Y-67295000D01*
X161565000Y-67295000D02*
X158145000Y-67295000D01*
%TO.C,R14*%
X142227936Y-73590000D02*
X142682064Y-73590000D01*
X142227936Y-75060000D02*
X142682064Y-75060000D01*
%TO.C,U1*%
X139505000Y-95795000D02*
X139505000Y-93505000D01*
X140195000Y-92815000D02*
X142705000Y-92815000D01*
X142705000Y-92815000D02*
X142705000Y-95795000D01*
X142705000Y-95795000D02*
X139505000Y-95795000D01*
X139505000Y-92815000D02*
X139005000Y-92815000D01*
X139505000Y-92315000D01*
X139505000Y-92815000D01*
G36*
X139505000Y-92815000D02*
G01*
X139005000Y-92815000D01*
X139505000Y-92315000D01*
X139505000Y-92815000D01*
G37*
%TO.C,C13*%
X114378733Y-69765000D02*
X114671267Y-69765000D01*
X114378733Y-70785000D02*
X114671267Y-70785000D01*
%TO.C,R17*%
X142227936Y-82440000D02*
X142682064Y-82440000D01*
X142227936Y-83910000D02*
X142682064Y-83910000D01*
%TO.C,R18*%
X151897936Y-112940000D02*
X152352064Y-112940000D01*
X151897936Y-114410000D02*
X152352064Y-114410000D01*
%TO.C,D2*%
X145685000Y-87375000D02*
X149105000Y-87375000D01*
X145685000Y-87555000D02*
X145685000Y-87375000D01*
X145685000Y-89895000D02*
X145685000Y-89715000D01*
X145805000Y-87375000D02*
X145805000Y-87555000D01*
X145805000Y-89715000D02*
X145805000Y-89895000D01*
X145925000Y-87375000D02*
X145925000Y-87555000D01*
X145925000Y-89715000D02*
X145925000Y-89895000D01*
X149105000Y-87375000D02*
X149105000Y-87649000D01*
X149105000Y-89621000D02*
X149105000Y-89895000D01*
X149105000Y-89895000D02*
X145685000Y-89895000D01*
%TO.C,C8*%
X110028733Y-72275000D02*
X110321267Y-72275000D01*
X110028733Y-73295000D02*
X110321267Y-73295000D01*
%TO.C,R16*%
X145772936Y-116165000D02*
X146227064Y-116165000D01*
X145772936Y-117635000D02*
X146227064Y-117635000D01*
%TO.C,C7*%
X85991233Y-94127500D02*
X86283767Y-94127500D01*
X85991233Y-95147500D02*
X86283767Y-95147500D01*
%TO.C,C5*%
X85991233Y-86127500D02*
X86283767Y-86127500D01*
X85991233Y-87147500D02*
X86283767Y-87147500D01*
%TO.C,C15*%
X114378733Y-74785000D02*
X114671267Y-74785000D01*
X114378733Y-75805000D02*
X114671267Y-75805000D01*
%TO.C,D1*%
X122285000Y-88975000D02*
X125705000Y-88975000D01*
X122285000Y-89155000D02*
X122285000Y-88975000D01*
X122285000Y-91495000D02*
X122285000Y-91315000D01*
X122405000Y-88975000D02*
X122405000Y-89155000D01*
X122405000Y-91315000D02*
X122405000Y-91495000D01*
X122525000Y-88975000D02*
X122525000Y-89155000D01*
X122525000Y-91315000D02*
X122525000Y-91495000D01*
X125705000Y-88975000D02*
X125705000Y-89249000D01*
X125705000Y-91221000D02*
X125705000Y-91495000D01*
X125705000Y-91495000D02*
X122285000Y-91495000D01*
%TO.C,C8*%
X85991233Y-98127500D02*
X86283767Y-98127500D01*
X85991233Y-99147500D02*
X86283767Y-99147500D01*
%TO.C,C18*%
X91991233Y-98127500D02*
X92283767Y-98127500D01*
X91991233Y-99147500D02*
X92283767Y-99147500D01*
%TO.C,C14*%
X85991233Y-114127500D02*
X86283767Y-114127500D01*
X85991233Y-115147500D02*
X86283767Y-115147500D01*
%TO.C,C12*%
X91991233Y-90127500D02*
X92283767Y-90127500D01*
X91991233Y-91147500D02*
X92283767Y-91147500D01*
%TO.C,C2*%
X93869000Y-49115000D02*
X94494000Y-49115000D01*
X94181500Y-48802500D02*
X94181500Y-49427500D01*
X94734000Y-49104437D02*
X94734000Y-49740000D01*
X94734000Y-49104437D02*
X95798437Y-48040000D01*
X94734000Y-52495563D02*
X94734000Y-51860000D01*
X94734000Y-52495563D02*
X95798437Y-53560000D01*
X95798437Y-48040000D02*
X100254000Y-48040000D01*
X95798437Y-53560000D02*
X100254000Y-53560000D01*
X100254000Y-48040000D02*
X100254000Y-49740000D01*
X100254000Y-53560000D02*
X100254000Y-51860000D01*
%TO.C,C14*%
X114378733Y-72275000D02*
X114671267Y-72275000D01*
X114378733Y-73295000D02*
X114671267Y-73295000D01*
%TO.C,R12*%
X137272936Y-112715000D02*
X137727064Y-112715000D01*
X137272936Y-114185000D02*
X137727064Y-114185000D01*
%TO.C,C15*%
X92146267Y-114127500D02*
X91853733Y-114127500D01*
X92146267Y-115147500D02*
X91853733Y-115147500D01*
%TO.C,C3*%
X93869000Y-58513000D02*
X94494000Y-58513000D01*
X94181500Y-58200500D02*
X94181500Y-58825500D01*
X94734000Y-58502437D02*
X94734000Y-59138000D01*
X94734000Y-58502437D02*
X95798437Y-57438000D01*
X94734000Y-61893563D02*
X94734000Y-61258000D01*
X94734000Y-61893563D02*
X95798437Y-62958000D01*
X95798437Y-57438000D02*
X100254000Y-57438000D01*
X95798437Y-62958000D02*
X100254000Y-62958000D01*
X100254000Y-57438000D02*
X100254000Y-59138000D01*
X100254000Y-62958000D02*
X100254000Y-61258000D01*
%TO.C,R22*%
X152225000Y-73075000D02*
X153435000Y-73075000D01*
X152225000Y-73075000D02*
G75*
G02*
X147485000Y-73075000I-2370000J0D01*
G01*
X147485000Y-73075000D02*
G75*
G02*
X152225000Y-73075000I2370000J0D01*
G01*
%TO.C,C11*%
X91991233Y-86127500D02*
X92283767Y-86127500D01*
X91991233Y-87147500D02*
X92283767Y-87147500D01*
%TO.C,R4*%
X117895000Y-108525000D02*
X119105000Y-108525000D01*
X117895000Y-108525000D02*
G75*
G02*
X113155000Y-108525000I-2370000J0D01*
G01*
X113155000Y-108525000D02*
G75*
G02*
X117895000Y-108525000I2370000J0D01*
G01*
%TO.C,C19*%
X118728733Y-69765000D02*
X119021267Y-69765000D01*
X118728733Y-70785000D02*
X119021267Y-70785000D01*
%TO.C,C16*%
X92146267Y-110127500D02*
X91853733Y-110127500D01*
X92146267Y-111147500D02*
X91853733Y-111147500D01*
%TO.C,C7*%
X110028733Y-69765000D02*
X110321267Y-69765000D01*
X110028733Y-70785000D02*
X110321267Y-70785000D01*
%TO.C,C4*%
X131980000Y-86290000D02*
X132605000Y-86290000D01*
X132292500Y-85977500D02*
X132292500Y-86602500D01*
X132845000Y-86279437D02*
X132845000Y-86915000D01*
X132845000Y-86279437D02*
X133909437Y-85215000D01*
X132845000Y-89670563D02*
X132845000Y-89035000D01*
X132845000Y-89670563D02*
X133909437Y-90735000D01*
X133909437Y-85215000D02*
X138365000Y-85215000D01*
X133909437Y-90735000D02*
X138365000Y-90735000D01*
X138365000Y-85215000D02*
X138365000Y-86915000D01*
X138365000Y-90735000D02*
X138365000Y-89035000D01*
%TO.C,R4*%
X126445000Y-67025000D02*
X127655000Y-67025000D01*
X126445000Y-67025000D02*
G75*
G02*
X121705000Y-67025000I-2370000J0D01*
G01*
X121705000Y-67025000D02*
G75*
G02*
X126445000Y-67025000I2370000J0D01*
G01*
%TO.C,C3*%
X131980000Y-79440000D02*
X132605000Y-79440000D01*
X132292500Y-79127500D02*
X132292500Y-79752500D01*
X132845000Y-79429437D02*
X132845000Y-80065000D01*
X132845000Y-79429437D02*
X133909437Y-78365000D01*
X132845000Y-82820563D02*
X132845000Y-82185000D01*
X132845000Y-82820563D02*
X133909437Y-83885000D01*
X133909437Y-78365000D02*
X138365000Y-78365000D01*
X133909437Y-83885000D02*
X138365000Y-83885000D01*
X138365000Y-78365000D02*
X138365000Y-80065000D01*
X138365000Y-83885000D02*
X138365000Y-82185000D01*
%TO.C,D2*%
X122285000Y-93045000D02*
X125705000Y-93045000D01*
X122285000Y-93225000D02*
X122285000Y-93045000D01*
X122285000Y-95565000D02*
X122285000Y-95385000D01*
X122405000Y-93045000D02*
X122405000Y-93225000D01*
X122405000Y-95385000D02*
X122405000Y-95565000D01*
X122525000Y-93045000D02*
X122525000Y-93225000D01*
X122525000Y-95385000D02*
X122525000Y-95565000D01*
X125705000Y-93045000D02*
X125705000Y-93319000D01*
X125705000Y-95291000D02*
X125705000Y-95565000D01*
X125705000Y-95565000D02*
X122285000Y-95565000D01*
%TO.C,R21*%
X152225000Y-67025000D02*
X153435000Y-67025000D01*
X152225000Y-67025000D02*
G75*
G02*
X147485000Y-67025000I-2370000J0D01*
G01*
X147485000Y-67025000D02*
G75*
G02*
X152225000Y-67025000I2370000J0D01*
G01*
%TO.C,C12*%
X114378733Y-67255000D02*
X114671267Y-67255000D01*
X114378733Y-68275000D02*
X114671267Y-68275000D01*
%TO.C,C20*%
X91991233Y-106127500D02*
X92283767Y-106127500D01*
X91991233Y-107147500D02*
X92283767Y-107147500D01*
%TO.C,C9*%
X110028733Y-74785000D02*
X110321267Y-74785000D01*
X110028733Y-75805000D02*
X110321267Y-75805000D01*
%TO.C,C17*%
X91991233Y-94127500D02*
X92283767Y-94127500D01*
X91991233Y-95147500D02*
X92283767Y-95147500D01*
%TO.C,R9*%
X126445000Y-79125000D02*
X127655000Y-79125000D01*
X126445000Y-79125000D02*
G75*
G02*
X121705000Y-79125000I-2370000J0D01*
G01*
X121705000Y-79125000D02*
G75*
G02*
X126445000Y-79125000I2370000J0D01*
G01*
%TO.C,C6*%
X85991233Y-90127500D02*
X86283767Y-90127500D01*
X85991233Y-91147500D02*
X86283767Y-91147500D01*
X110028733Y-67255000D02*
X110321267Y-67255000D01*
X110028733Y-68275000D02*
X110321267Y-68275000D01*
%TO.C,C17*%
X118728733Y-64745000D02*
X119021267Y-64745000D01*
X118728733Y-65765000D02*
X119021267Y-65765000D01*
%TO.C,C16*%
X114378733Y-77295000D02*
X114671267Y-77295000D01*
X114378733Y-78315000D02*
X114671267Y-78315000D01*
%TO.C,R12*%
X142227936Y-67690000D02*
X142682064Y-67690000D01*
X142227936Y-69160000D02*
X142682064Y-69160000D01*
%TO.C,C9*%
X86283767Y-106127500D02*
X85991233Y-106127500D01*
X86283767Y-107147500D02*
X85991233Y-107147500D01*
%TO.C,C20*%
X118728733Y-72275000D02*
X119021267Y-72275000D01*
X118728733Y-73295000D02*
X119021267Y-73295000D01*
%TO.C,C18*%
X118728733Y-67255000D02*
X119021267Y-67255000D01*
X118728733Y-68275000D02*
X119021267Y-68275000D01*
%TO.C,J1*%
X111929000Y-56151000D02*
X111929000Y-61291000D01*
X111929000Y-56151000D02*
X114589000Y-56151000D01*
X111929000Y-61291000D02*
X114589000Y-61291000D01*
X113259000Y-53551000D02*
X114589000Y-53551000D01*
X114589000Y-53551000D02*
X114589000Y-54881000D01*
X114589000Y-56151000D02*
X114589000Y-61291000D01*
%TO.C,R13*%
X137272936Y-115665000D02*
X137727064Y-115665000D01*
X137272936Y-117135000D02*
X137727064Y-117135000D01*
%TO.C,U1*%
X156725000Y-103895000D02*
X156725000Y-101605000D01*
X157415000Y-100915000D02*
X159925000Y-100915000D01*
X159925000Y-100915000D02*
X159925000Y-103895000D01*
X159925000Y-103895000D02*
X156725000Y-103895000D01*
X156725000Y-100915000D02*
X156225000Y-100915000D01*
X156725000Y-100415000D01*
X156725000Y-100915000D01*
G36*
X156725000Y-100915000D02*
G01*
X156225000Y-100915000D01*
X156725000Y-100415000D01*
X156725000Y-100915000D01*
G37*
%TO.C,R17*%
X151897936Y-109990000D02*
X152352064Y-109990000D01*
X151897936Y-111460000D02*
X152352064Y-111460000D01*
%TO.C,C5*%
X110028733Y-64745000D02*
X110321267Y-64745000D01*
X110028733Y-65765000D02*
X110321267Y-65765000D01*
%TO.C,C10*%
X110028733Y-77295000D02*
X110321267Y-77295000D01*
X110028733Y-78315000D02*
X110321267Y-78315000D01*
%TO.C,D1*%
X112735000Y-79275000D02*
X116155000Y-79275000D01*
X112735000Y-79455000D02*
X112735000Y-79275000D01*
X112735000Y-81795000D02*
X112735000Y-81615000D01*
X112855000Y-79275000D02*
X112855000Y-79455000D01*
X112855000Y-81615000D02*
X112855000Y-81795000D01*
X112975000Y-79275000D02*
X112975000Y-79455000D01*
X112975000Y-81615000D02*
X112975000Y-81795000D01*
X116155000Y-79275000D02*
X116155000Y-79549000D01*
X116155000Y-81521000D02*
X116155000Y-81795000D01*
X116155000Y-81795000D02*
X112735000Y-81795000D01*
%TO.C,R13*%
X142227936Y-70640000D02*
X142682064Y-70640000D01*
X142227936Y-72110000D02*
X142682064Y-72110000D01*
%TO.C,R15*%
X142227936Y-76540000D02*
X142682064Y-76540000D01*
X142227936Y-78010000D02*
X142682064Y-78010000D01*
%TO.C,R18*%
X142227936Y-85390000D02*
X142682064Y-85390000D01*
X142227936Y-86860000D02*
X142682064Y-86860000D01*
%TO.C,C1*%
X102430000Y-49022000D02*
X103055000Y-49022000D01*
X102742500Y-48709500D02*
X102742500Y-49334500D01*
X103295000Y-49011437D02*
X103295000Y-49647000D01*
X103295000Y-49011437D02*
X104359437Y-47947000D01*
X103295000Y-52402563D02*
X103295000Y-51767000D01*
X103295000Y-52402563D02*
X104359437Y-53467000D01*
X104359437Y-47947000D02*
X108815000Y-47947000D01*
X104359437Y-53467000D02*
X108815000Y-53467000D01*
X108815000Y-47947000D02*
X108815000Y-49647000D01*
X108815000Y-53467000D02*
X108815000Y-51767000D01*
%TO.C,C19*%
X91991233Y-102127500D02*
X92283767Y-102127500D01*
X91991233Y-103147500D02*
X92283767Y-103147500D01*
%TO.C,R15*%
X145772936Y-113215000D02*
X146227064Y-113215000D01*
X145772936Y-114685000D02*
X146227064Y-114685000D01*
%TO.C,R14*%
X145772936Y-110265000D02*
X146227064Y-110265000D01*
X145772936Y-111735000D02*
X146227064Y-111735000D01*
%TO.C,R11*%
X142227936Y-64740000D02*
X142682064Y-64740000D01*
X142227936Y-66210000D02*
X142682064Y-66210000D01*
%TO.C,R5*%
X126445000Y-73075000D02*
X127655000Y-73075000D01*
X126445000Y-73075000D02*
G75*
G02*
X121705000Y-73075000I-2370000J0D01*
G01*
X121705000Y-73075000D02*
G75*
G02*
X126445000Y-73075000I2370000J0D01*
G01*
%TO.C,R9*%
X140895000Y-77525000D02*
X142105000Y-77525000D01*
X140895000Y-77525000D02*
G75*
G02*
X136155000Y-77525000I-2370000J0D01*
G01*
X136155000Y-77525000D02*
G75*
G02*
X140895000Y-77525000I2370000J0D01*
G01*
%TO.C,C21*%
X147680000Y-77840000D02*
X148305000Y-77840000D01*
X147992500Y-77527500D02*
X147992500Y-78152500D01*
X148545000Y-77829437D02*
X148545000Y-78465000D01*
X148545000Y-77829437D02*
X149609437Y-76765000D01*
X148545000Y-81220563D02*
X148545000Y-80585000D01*
X148545000Y-81220563D02*
X149609437Y-82285000D01*
X149609437Y-76765000D02*
X154065000Y-76765000D01*
X149609437Y-82285000D02*
X154065000Y-82285000D01*
X154065000Y-76765000D02*
X154065000Y-78465000D01*
X154065000Y-82285000D02*
X154065000Y-80585000D01*
%TO.C,J1*%
X116915000Y-82625000D02*
X116915000Y-87765000D01*
X116915000Y-82625000D02*
X119575000Y-82625000D01*
X116915000Y-87765000D02*
X119575000Y-87765000D01*
X118245000Y-80025000D02*
X119575000Y-80025000D01*
X119575000Y-80025000D02*
X119575000Y-81355000D01*
X119575000Y-82625000D02*
X119575000Y-87765000D01*
%TO.C,R10*%
X126445000Y-85175000D02*
X127655000Y-85175000D01*
X126445000Y-85175000D02*
G75*
G02*
X121705000Y-85175000I-2370000J0D01*
G01*
X121705000Y-85175000D02*
G75*
G02*
X126445000Y-85175000I2370000J0D01*
G01*
%TO.C,U2*%
X157205000Y-80495000D02*
X157205000Y-78205000D01*
X157895000Y-77515000D02*
X160405000Y-77515000D01*
X160405000Y-77515000D02*
X160405000Y-80495000D01*
X160405000Y-80495000D02*
X157205000Y-80495000D01*
X157205000Y-77515000D02*
X156705000Y-77515000D01*
X157205000Y-77015000D01*
X157205000Y-77515000D01*
G36*
X157205000Y-77515000D02*
G01*
X156705000Y-77515000D01*
X157205000Y-77015000D01*
X157205000Y-77515000D01*
G37*
%TO.C,C2*%
X131980000Y-72590000D02*
X132605000Y-72590000D01*
X132292500Y-72277500D02*
X132292500Y-72902500D01*
X132845000Y-72579437D02*
X132845000Y-73215000D01*
X132845000Y-72579437D02*
X133909437Y-71515000D01*
X132845000Y-75970563D02*
X132845000Y-75335000D01*
X132845000Y-75970563D02*
X133909437Y-77035000D01*
X133909437Y-71515000D02*
X138365000Y-71515000D01*
X133909437Y-77035000D02*
X138365000Y-77035000D01*
X138365000Y-71515000D02*
X138365000Y-73215000D01*
X138365000Y-77035000D02*
X138365000Y-75335000D01*
%TO.C,C11*%
X114378733Y-64745000D02*
X114671267Y-64745000D01*
X114378733Y-65765000D02*
X114671267Y-65765000D01*
%TO.C,R16*%
X142227936Y-79490000D02*
X142682064Y-79490000D01*
X142227936Y-80960000D02*
X142682064Y-80960000D01*
%TO.C,R19*%
X151897936Y-115890000D02*
X152352064Y-115890000D01*
X151897936Y-117360000D02*
X152352064Y-117360000D01*
%TO.C,C10*%
X86283767Y-102127500D02*
X85991233Y-102127500D01*
X86283767Y-103147500D02*
X85991233Y-103147500D01*
%TO.C,C1*%
X131980000Y-65740000D02*
X132605000Y-65740000D01*
X132292500Y-65427500D02*
X132292500Y-66052500D01*
X132845000Y-65729437D02*
X132845000Y-66365000D01*
X132845000Y-65729437D02*
X133909437Y-64665000D01*
X132845000Y-69120563D02*
X132845000Y-68485000D01*
X132845000Y-69120563D02*
X133909437Y-70185000D01*
X133909437Y-64665000D02*
X138365000Y-64665000D01*
X133909437Y-70185000D02*
X138365000Y-70185000D01*
X138365000Y-64665000D02*
X138365000Y-66365000D01*
X138365000Y-70185000D02*
X138365000Y-68485000D01*
%TO.C,C13*%
X85991233Y-110127500D02*
X86283767Y-110127500D01*
X85991233Y-111147500D02*
X86283767Y-111147500D01*
%TO.C,R11*%
X137272936Y-109765000D02*
X137727064Y-109765000D01*
X137272936Y-111235000D02*
X137727064Y-111235000D01*
%TO.C,R19*%
X142227936Y-88340000D02*
X142682064Y-88340000D01*
X142227936Y-89810000D02*
X142682064Y-89810000D01*
%TD*%
M02*
