%TF.GenerationSoftware,KiCad,Pcbnew,10.0.5-unknown-202607221313~667fa36054~ubuntu25.10.1*%
%TF.CreationDate,2026-10-10T11:39:54+00:00*%
%TF.ProjectId,ktest,6b746573-742e-46b6-9963-61645f706362,0.0.2*%
%TF.SameCoordinates,Original*%
%TF.FileFunction,Legend,Bot*%
%TF.FilePolarity,Positive*%
%FSLAX46Y46*%
G04 Gerber Fmt 4.6, Leading zero omitted, Abs format (unit mm)*
G04 Created by KiCad (PCBNEW 10.0.5-unknown-202607221313~667fa36054~ubuntu25.10.1) date 2026-10-10 11:39:54*
%MOMM*%
%LPD*%
G01*
G04 APERTURE LIST*
%ADD10C,0.150000*%
%ADD11C,0.100000*%
%ADD12C,0.200000*%
%ADD13C,0.120000*%
%ADD14C,0.050000*%
G04 APERTURE END LIST*
D10*
X139154819Y-86026666D02*
X139869104Y-86026666D01*
X139869104Y-86026666D02*
X140011961Y-85979047D01*
X140011961Y-85979047D02*
X140107200Y-85883809D01*
X140107200Y-85883809D02*
X140154819Y-85740952D01*
X140154819Y-85740952D02*
X140154819Y-85645714D01*
X139488152Y-86931428D02*
X140154819Y-86931428D01*
X139107200Y-86693333D02*
X139821485Y-86455238D01*
X139821485Y-86455238D02*
X139821485Y-87074285D01*
X179143333Y-71721819D02*
X179143333Y-72436104D01*
X179143333Y-72436104D02*
X179190952Y-72578961D01*
X179190952Y-72578961D02*
X179286190Y-72674200D01*
X179286190Y-72674200D02*
X179429047Y-72721819D01*
X179429047Y-72721819D02*
X179524285Y-72721819D01*
X178714761Y-71817057D02*
X178667142Y-71769438D01*
X178667142Y-71769438D02*
X178571904Y-71721819D01*
X178571904Y-71721819D02*
X178333809Y-71721819D01*
X178333809Y-71721819D02*
X178238571Y-71769438D01*
X178238571Y-71769438D02*
X178190952Y-71817057D01*
X178190952Y-71817057D02*
X178143333Y-71912295D01*
X178143333Y-71912295D02*
X178143333Y-72007533D01*
X178143333Y-72007533D02*
X178190952Y-72150390D01*
X178190952Y-72150390D02*
X178762380Y-72721819D01*
X178762380Y-72721819D02*
X178143333Y-72721819D01*
X105963333Y-84421819D02*
X105963333Y-85136104D01*
X105963333Y-85136104D02*
X106010952Y-85278961D01*
X106010952Y-85278961D02*
X106106190Y-85374200D01*
X106106190Y-85374200D02*
X106249047Y-85421819D01*
X106249047Y-85421819D02*
X106344285Y-85421819D01*
X105582380Y-84421819D02*
X104963333Y-84421819D01*
X104963333Y-84421819D02*
X105296666Y-84802771D01*
X105296666Y-84802771D02*
X105153809Y-84802771D01*
X105153809Y-84802771D02*
X105058571Y-84850390D01*
X105058571Y-84850390D02*
X105010952Y-84898009D01*
X105010952Y-84898009D02*
X104963333Y-84993247D01*
X104963333Y-84993247D02*
X104963333Y-85231342D01*
X104963333Y-85231342D02*
X105010952Y-85326580D01*
X105010952Y-85326580D02*
X105058571Y-85374200D01*
X105058571Y-85374200D02*
X105153809Y-85421819D01*
X105153809Y-85421819D02*
X105439523Y-85421819D01*
X105439523Y-85421819D02*
X105534761Y-85374200D01*
X105534761Y-85374200D02*
X105582380Y-85326580D01*
X142785180Y-67357428D02*
X142785180Y-66786000D01*
X141785180Y-67071714D02*
X142785180Y-67071714D01*
X142308990Y-66119333D02*
X142308990Y-66452666D01*
X141785180Y-66452666D02*
X142785180Y-66452666D01*
X142785180Y-66452666D02*
X142785180Y-65976476D01*
X142785180Y-65738380D02*
X142785180Y-65166952D01*
X141785180Y-65452666D02*
X142785180Y-65452666D01*
X141785180Y-64309809D02*
X141785180Y-64881237D01*
X141785180Y-64595523D02*
X142785180Y-64595523D01*
X142785180Y-64595523D02*
X142642323Y-64690761D01*
X142642323Y-64690761D02*
X142547085Y-64785999D01*
X142547085Y-64785999D02*
X142499466Y-64881237D01*
%TO.C,J8*%
D11*
X160771000Y-52728000D02*
X160771000Y-51458000D01*
X174233000Y-52728000D02*
X174233000Y-51458000D01*
%TO.C,J4*%
D12*
X140863500Y-84452600D02*
X140863500Y-89352600D01*
X153563500Y-84452600D02*
X140863500Y-84452600D01*
X153563500Y-89352600D02*
X140863500Y-89352600D01*
X153563500Y-89352600D02*
X153563500Y-84452600D01*
X140313500Y-81912600D02*
G75*
G02*
X140113500Y-81912600I-100000J0D01*
G01*
X140113500Y-81912600D02*
G75*
G02*
X140313500Y-81912600I100000J0D01*
G01*
%TO.C,J2*%
D13*
X177480000Y-60547000D02*
X180140000Y-60547000D01*
X177480000Y-68227000D02*
X177480000Y-60547000D01*
X177480000Y-68227000D02*
X180140000Y-68227000D01*
X178810000Y-70827000D02*
X180140000Y-70827000D01*
X180140000Y-68227000D02*
X180140000Y-60547000D01*
X180140000Y-70827000D02*
X180140000Y-69497000D01*
%TO.C,J3*%
X104300000Y-47847000D02*
X106960000Y-47847000D01*
X104300000Y-80927000D02*
X104300000Y-47847000D01*
X104300000Y-80927000D02*
X106960000Y-80927000D01*
X105630000Y-83527000D02*
X106960000Y-83527000D01*
X106960000Y-80927000D02*
X106960000Y-47847000D01*
X106960000Y-83527000D02*
X106960000Y-82197000D01*
%TO.C,TFT1*%
D14*
X103880000Y-47397000D02*
X107420000Y-47397000D01*
X103880000Y-83977000D02*
X103880000Y-47397000D01*
X107420000Y-47397000D02*
X107420000Y-83977000D01*
X107420000Y-83977000D02*
X103880000Y-83977000D01*
X177050000Y-60097000D02*
X180590000Y-60097000D01*
X177050000Y-71277000D02*
X177050000Y-60097000D01*
X180590000Y-60099000D02*
X180590000Y-71277000D01*
X180590000Y-71277000D02*
X177050000Y-71277000D01*
%TD*%
M02*
