%TF.GenerationSoftware,KiCad,Pcbnew,10.0.5-unknown-202607221313~667fa36054~ubuntu25.10.1*%
%TF.CreationDate,2026-09-29T20:22:47+00:00*%
%TF.ProjectId,ktest,6b746573-742e-46b6-9963-61645f706362,rev?*%
%TF.SameCoordinates,Original*%
%TF.FileFunction,Copper,L1,Top*%
%TF.FilePolarity,Positive*%
%FSLAX46Y46*%
G04 Gerber Fmt 4.6, Leading zero omitted, Abs format (unit mm)*
G04 Created by KiCad (PCBNEW 10.0.5-unknown-202607221313~667fa36054~ubuntu25.10.1) date 2026-09-29 20:22:47*
%MOMM*%
%LPD*%
G01*
G04 APERTURE LIST*
G04 Aperture macros list*
%AMRoundRect*
0 Rectangle with rounded corners*
0 $1 Rounding radius*
0 $2 $3 $4 $5 $6 $7 $8 $9 X,Y pos of 4 corners*
0 Add a 4 corners polygon primitive as box body*
4,1,4,$2,$3,$4,$5,$6,$7,$8,$9,$2,$3,0*
0 Add four circle primitives for the rounded corners*
1,1,$1+$1,$2,$3*
1,1,$1+$1,$4,$5*
1,1,$1+$1,$6,$7*
1,1,$1+$1,$8,$9*
0 Add four rect primitives between the rounded corners*
20,1,$1+$1,$2,$3,$4,$5,0*
20,1,$1+$1,$4,$5,$6,$7,0*
20,1,$1+$1,$6,$7,$8,$9,0*
20,1,$1+$1,$8,$9,$2,$3,0*%
G04 Aperture macros list end*
%TA.AperFunction,SMDPad,CuDef*%
%ADD10RoundRect,0.250000X-1.250000X-0.550000X1.250000X-0.550000X1.250000X0.550000X-1.250000X0.550000X0*%
%TD*%
%TA.AperFunction,SMDPad,CuDef*%
%ADD11RoundRect,0.075000X-0.125000X-0.075000X0.125000X-0.075000X0.125000X0.075000X-0.125000X0.075000X0*%
%TD*%
%TA.AperFunction,ComponentPad*%
%ADD12R,1.700000X1.700000*%
%TD*%
%TA.AperFunction,ComponentPad*%
%ADD13C,1.700000*%
%TD*%
%TA.AperFunction,ViaPad*%
%ADD14C,0.600000*%
%TD*%
%TA.AperFunction,Conductor*%
%ADD15C,0.200000*%
%TD*%
G04 APERTURE END LIST*
D10*
%TO.P,C2,1*%
%TO.N,Net-(J1-Pin_3)*%
X124292000Y-79756000D03*
%TO.P,C2,2*%
%TO.N,Net-(C1-Pad1)*%
X128692000Y-79756000D03*
%TD*%
%TO.P,C3,1*%
%TO.N,Net-(J1-Pin_1)*%
X124292000Y-89154000D03*
%TO.P,C3,2*%
%TO.N,Net-(C3-Pad2)*%
X128692000Y-89154000D03*
%TD*%
D11*
%TO.P,R3,1*%
%TO.N,Net-(J1-Pin_1)*%
X136127000Y-89662000D03*
%TO.P,R3,2*%
%TO.N,Net-(C3-Pad2)*%
X136627000Y-89662000D03*
%TD*%
D12*
%TO.P,J1,1,Pin_1_1*%
%TO.N,Net-(J1-Pin_1)*%
X142257000Y-83837000D03*
D13*
%TO.P,J1,2,Pin_2_2*%
%TO.N,Net-(J1-Pin_2)*%
X142257000Y-86377000D03*
%TO.P,J1,3,Pin_3_3*%
%TO.N,Net-(J1-Pin_3)*%
X142257000Y-88917000D03*
%TD*%
D10*
%TO.P,C1,1*%
%TO.N,Net-(C1-Pad1)*%
X132853000Y-79663000D03*
%TO.P,C1,2*%
%TO.N,Net-(J1-Pin_2)*%
X137253000Y-79663000D03*
%TD*%
D11*
%TO.P,R2,1*%
%TO.N,Net-(J1-Pin_3)*%
X136127000Y-88012000D03*
%TO.P,R2,2*%
%TO.N,Net-(C1-Pad1)*%
X136627000Y-88012000D03*
%TD*%
D14*
%TO.N,Net-(C1-Pad1)*%
X131453000Y-83913000D03*
%TO.N,Net-(J1-Pin_2)*%
X133003000Y-83913000D03*
X141478000Y-76708000D03*
%TO.N,Net-(J1-Pin_3)*%
X124206000Y-81534000D03*
X135890000Y-87122000D03*
%TD*%
%TO.N,Net-(C1-Pad1)*%
D15*
X135636000Y-85090000D02*
X132630000Y-85090000D01*
X136627000Y-88012000D02*
X136627000Y-86081000D01*
X128692000Y-79756000D02*
X132760000Y-79756000D01*
X132760000Y-79756000D02*
X132853000Y-79663000D01*
X131453000Y-83913000D02*
X131453000Y-81063000D01*
X132630000Y-85090000D02*
X131453000Y-83913000D01*
X136627000Y-86081000D02*
X135636000Y-85090000D01*
X131453000Y-81063000D02*
X132853000Y-79663000D01*
%TO.N,Net-(J1-Pin_2)*%
X133003000Y-83913000D02*
X137253000Y-79663000D01*
X137253000Y-79663000D02*
X140208000Y-76708000D01*
X140208000Y-76708000D02*
X141478000Y-76708000D01*
%TO.N,Net-(J1-Pin_3)*%
X135890000Y-87775000D02*
X136127000Y-88012000D01*
X124206000Y-79842000D02*
X124292000Y-79756000D01*
X135890000Y-87122000D02*
X135890000Y-87775000D01*
X124206000Y-81534000D02*
X124206000Y-79842000D01*
%TO.N,Net-(C3-Pad2)*%
X136627000Y-89662000D02*
X136627000Y-89383000D01*
X136144000Y-88900000D02*
X135890000Y-89154000D01*
X135890000Y-89154000D02*
X128692000Y-89154000D01*
X136627000Y-89383000D02*
X136144000Y-88900000D01*
%TO.N,Net-(J1-Pin_1)*%
X126492000Y-91354000D02*
X126492000Y-91440000D01*
X136144000Y-91440000D02*
X136949501Y-90634499D01*
X137247001Y-90932000D02*
X137922000Y-90932000D01*
X136127000Y-89811999D02*
X136949501Y-90634499D01*
X139954000Y-88900000D02*
X139954000Y-85344000D01*
X136949501Y-90634499D02*
X137247001Y-90932000D01*
X126492000Y-91440000D02*
X136144000Y-91440000D01*
X124292000Y-89154000D02*
X126492000Y-91354000D01*
X136127000Y-89662000D02*
X136127000Y-89811999D01*
X140750000Y-85344000D02*
X142257000Y-83837000D01*
X139954000Y-85344000D02*
X140750000Y-85344000D01*
X137922000Y-90932000D02*
X139954000Y-88900000D01*
%TD*%
M02*
