%TF.GenerationSoftware,KiCad,Pcbnew,10.0.5-unknown-202607221313~667fa36054~ubuntu25.10.1*%
%TF.CreationDate,2026-09-29T16:57:25+00:00*%
%TF.ProjectId,ktest,6b746573-742e-46b6-9963-61645f706362,rev?*%
%TF.SameCoordinates,Original*%
%TF.FileFunction,Legend,Top*%
%TF.FilePolarity,Positive*%
%FSLAX46Y46*%
G04 Gerber Fmt 4.6, Leading zero omitted, Abs format (unit mm)*
G04 Created by KiCad (PCBNEW 10.0.5-unknown-202607221313~667fa36054~ubuntu25.10.1) date 2026-09-29 16:57:25*
%MOMM*%
%LPD*%
G01*
G04 APERTURE LIST*
%ADD10C,0.150000*%
%ADD11C,0.120000*%
G04 APERTURE END LIST*
D10*
X131570333Y-79594580D02*
X131522714Y-79642200D01*
X131522714Y-79642200D02*
X131379857Y-79689819D01*
X131379857Y-79689819D02*
X131284619Y-79689819D01*
X131284619Y-79689819D02*
X131141762Y-79642200D01*
X131141762Y-79642200D02*
X131046524Y-79546961D01*
X131046524Y-79546961D02*
X130998905Y-79451723D01*
X130998905Y-79451723D02*
X130951286Y-79261247D01*
X130951286Y-79261247D02*
X130951286Y-79118390D01*
X130951286Y-79118390D02*
X130998905Y-78927914D01*
X130998905Y-78927914D02*
X131046524Y-78832676D01*
X131046524Y-78832676D02*
X131141762Y-78737438D01*
X131141762Y-78737438D02*
X131284619Y-78689819D01*
X131284619Y-78689819D02*
X131379857Y-78689819D01*
X131379857Y-78689819D02*
X131522714Y-78737438D01*
X131522714Y-78737438D02*
X131570333Y-78785057D01*
X132522714Y-79689819D02*
X131951286Y-79689819D01*
X132237000Y-79689819D02*
X132237000Y-78689819D01*
X132237000Y-78689819D02*
X132141762Y-78832676D01*
X132141762Y-78832676D02*
X132046524Y-78927914D01*
X132046524Y-78927914D02*
X131951286Y-78975533D01*
%TO.C,C1*%
D11*
X128112000Y-81250000D02*
X128737000Y-81250000D01*
X128424500Y-80937500D02*
X128424500Y-81562500D01*
X128977000Y-81239437D02*
X128977000Y-81875000D01*
X128977000Y-81239437D02*
X130041437Y-80175000D01*
X128977000Y-84630563D02*
X128977000Y-83995000D01*
X128977000Y-84630563D02*
X130041437Y-85695000D01*
X130041437Y-80175000D02*
X134497000Y-80175000D01*
X130041437Y-85695000D02*
X134497000Y-85695000D01*
X134497000Y-80175000D02*
X134497000Y-81875000D01*
X134497000Y-85695000D02*
X134497000Y-83995000D01*
%TD*%
M02*
