%TF.GenerationSoftware,KiCad,Pcbnew,10.0.5-unknown-202607221313~667fa36054~ubuntu25.10.1*%
%TF.CreationDate,2026-10-03T12:26:21+00:00*%
%TF.ProjectId,ktest,6b746573-742e-46b6-9963-61645f706362,0.0.2*%
%TF.SameCoordinates,Original*%
%TF.FileFunction,Copper,L4,Bot*%
%TF.FilePolarity,Positive*%
%FSLAX46Y46*%
G04 Gerber Fmt 4.6, Leading zero omitted, Abs format (unit mm)*
G04 Created by KiCad (PCBNEW 10.0.5-unknown-202607221313~667fa36054~ubuntu25.10.1) date 2026-10-03 12:26:21*
%MOMM*%
%LPD*%
G01*
G04 APERTURE LIST*
G04 Aperture macros list*
%AMRoundRect*
0 Rectangle with rounded corners*
0 $1 Rounding radius*
0 $2 $3 $4 $5 $6 $7 $8 $9 X,Y pos of 4 corners*
0 Add a 4 corners polygon primitive as box body*
4,1,4,$2,$3,$4,$5,$6,$7,$8,$9,$2,$3,0*
0 Add four circle primitives for the rounded corners*
1,1,$1+$1,$2,$3*
1,1,$1+$1,$4,$5*
1,1,$1+$1,$6,$7*
1,1,$1+$1,$8,$9*
0 Add four rect primitives between the rounded corners*
20,1,$1+$1,$2,$3,$4,$5,0*
20,1,$1+$1,$4,$5,$6,$7,0*
20,1,$1+$1,$6,$7,$8,$9,0*
20,1,$1+$1,$8,$9,$2,$3,0*%
G04 Aperture macros list end*
%TA.AperFunction,ComponentPad*%
%ADD10C,2.400000*%
%TD*%
%TA.AperFunction,ComponentPad*%
%ADD11R,1.700000X1.700000*%
%TD*%
%TA.AperFunction,ComponentPad*%
%ADD12C,1.700000*%
%TD*%
%TA.AperFunction,ComponentPad*%
%ADD13R,1.800000X1.800000*%
%TD*%
%TA.AperFunction,ComponentPad*%
%ADD14C,1.800000*%
%TD*%
%TA.AperFunction,SMDPad,CuDef*%
%ADD15RoundRect,0.075000X-0.125000X-0.075000X0.125000X-0.075000X0.125000X0.075000X-0.125000X0.075000X0*%
%TD*%
%TA.AperFunction,ViaPad*%
%ADD16C,0.600000*%
%TD*%
%TA.AperFunction,Conductor*%
%ADD17C,0.200000*%
%TD*%
G04 APERTURE END LIST*
D10*
%TO.P,R4,1*%
%TO.N,Net-(D1-A)*%
X115525000Y-108525000D03*
%TO.P,R4,2*%
%TO.N,Net-(R4-Pad2)*%
X120605000Y-108525000D03*
%TD*%
D11*
%TO.P,J1,1,Pin_1_1*%
%TO.N,Net-(D1-K)*%
X113259000Y-54881000D03*
D12*
%TO.P,J1,2,Pin_2_2*%
%TO.N,Net-(J1-Pin_2)*%
X113259000Y-57421000D03*
%TO.P,J1,3,Pin_3_3*%
%TO.N,Net-(J1-Pin_3)*%
X113259000Y-59961000D03*
%TD*%
D13*
%TO.P,D1,1,K_1*%
%TO.N,Net-(D1-K)*%
X113175000Y-80535000D03*
D14*
%TO.P,D1,2,A_2*%
%TO.N,Net-(D1-A)*%
X115715000Y-80535000D03*
%TD*%
D15*
%TO.P,R1,1*%
%TO.N,Net-(C1-Pad1)*%
X102455000Y-55910000D03*
%TO.P,R1,2*%
%TO.N,Net-(J1-Pin_2)*%
X102955000Y-55910000D03*
%TD*%
D10*
%TO.P,R5,1*%
%TO.N,Net-(D1-A)*%
X115525000Y-99000000D03*
%TO.P,R5,2*%
%TO.N,Net-(R4-Pad2)*%
X120605000Y-99000000D03*
%TD*%
D16*
%TO.N,Net-(J1-Pin_3)*%
X95208000Y-52578000D03*
X106892000Y-58166000D03*
%TO.N,Net-(C1-Pad1)*%
X102455000Y-54957000D03*
%TO.N,Net-(J1-Pin_2)*%
X104005000Y-54957000D03*
X112480000Y-47752000D03*
%TD*%
%TO.N,Net-(J1-Pin_3)*%
D17*
X95208000Y-54864000D02*
X95208000Y-52578000D01*
X98510000Y-58166000D02*
X95208000Y-54864000D01*
X106892000Y-58166000D02*
X98510000Y-58166000D01*
%TO.N,Net-(C1-Pad1)*%
X102455000Y-55910000D02*
X102455000Y-54957000D01*
%TO.N,Net-(D1-K)*%
X113175000Y-80535000D02*
X113175000Y-67825000D01*
X113175000Y-67825000D02*
X118000000Y-63000000D01*
X118000000Y-63000000D02*
X118000000Y-59622000D01*
X118000000Y-59622000D02*
X113259000Y-54881000D01*
%TO.N,Net-(D1-A)*%
X115715000Y-80535000D02*
X115715000Y-98810000D01*
X115715000Y-98810000D02*
X115525000Y-99000000D01*
%TO.N,Net-(J1-Pin_2)*%
X102955000Y-55910000D02*
X103052000Y-55910000D01*
X103052000Y-55910000D02*
X104005000Y-54957000D01*
%TD*%
%TA.AperFunction,Conductor*%
%TO.N,Net-(R4-Pad2)*%
G36*
X94915487Y-55420722D02*
G01*
X98025139Y-58530374D01*
X98025149Y-58530385D01*
X98029479Y-58534715D01*
X98029480Y-58534716D01*
X98141284Y-58646520D01*
X98186383Y-58672557D01*
X98228095Y-58696639D01*
X98228097Y-58696641D01*
X98250271Y-58709443D01*
X98278215Y-58725577D01*
X98430943Y-58766500D01*
X106312234Y-58766500D01*
X106379273Y-58786185D01*
X106381125Y-58787398D01*
X106512814Y-58875390D01*
X106512827Y-58875397D01*
X106658498Y-58935735D01*
X106658503Y-58935737D01*
X106813153Y-58966499D01*
X106813156Y-58966500D01*
X106837337Y-58966500D01*
X106904376Y-58986185D01*
X106950131Y-59038989D01*
X106960425Y-59075489D01*
X107804878Y-66000000D01*
X110000000Y-84000000D01*
X113000000Y-93000000D01*
X114999340Y-93142810D01*
X115064801Y-93167219D01*
X115106678Y-93223149D01*
X115114500Y-93266493D01*
X115114500Y-97254356D01*
X115094815Y-97321395D01*
X115042011Y-97367150D01*
X115022596Y-97374130D01*
X114977222Y-97386288D01*
X114771282Y-97471590D01*
X114771273Y-97471595D01*
X114578226Y-97583052D01*
X114578217Y-97583058D01*
X114401377Y-97718751D01*
X114401370Y-97718757D01*
X114243757Y-97876370D01*
X114243751Y-97876377D01*
X114108058Y-98053217D01*
X114108052Y-98053226D01*
X113996595Y-98246273D01*
X113996593Y-98246277D01*
X113911293Y-98452209D01*
X113911290Y-98452219D01*
X113863228Y-98631592D01*
X113853597Y-98667534D01*
X113853594Y-98667547D01*
X113824501Y-98888533D01*
X113824500Y-98888549D01*
X113824500Y-99111450D01*
X113824501Y-99111466D01*
X113853594Y-99332452D01*
X113853595Y-99332457D01*
X113853596Y-99332463D01*
X113911290Y-99547780D01*
X113911293Y-99547790D01*
X113996593Y-99753722D01*
X113996595Y-99753726D01*
X114108052Y-99946774D01*
X114108057Y-99946780D01*
X114108058Y-99946782D01*
X114243751Y-100123622D01*
X114243757Y-100123629D01*
X114401370Y-100281242D01*
X114401376Y-100281247D01*
X114578226Y-100416948D01*
X114771274Y-100528405D01*
X114901140Y-100582197D01*
X114976074Y-100613236D01*
X114977219Y-100613710D01*
X115192537Y-100671404D01*
X115413543Y-100700500D01*
X115413550Y-100700500D01*
X115636450Y-100700500D01*
X115636457Y-100700500D01*
X115857463Y-100671404D01*
X116072781Y-100613710D01*
X116278726Y-100528405D01*
X116471774Y-100416948D01*
X116648624Y-100281247D01*
X116648629Y-100281242D01*
X116699550Y-100230322D01*
X116806242Y-100123629D01*
X116806247Y-100123624D01*
X116941948Y-99946774D01*
X117053405Y-99753726D01*
X117138710Y-99547781D01*
X117196404Y-99332463D01*
X117225500Y-99111457D01*
X117225500Y-98888575D01*
X118905000Y-98888575D01*
X118905000Y-99111424D01*
X118934085Y-99332354D01*
X118934088Y-99332367D01*
X118991763Y-99547618D01*
X119077045Y-99753502D01*
X119077054Y-99753520D01*
X119188464Y-99946491D01*
X119188473Y-99946504D01*
X119239040Y-100012403D01*
X119239043Y-100012403D01*
X120040387Y-99211059D01*
X120045889Y-99231591D01*
X120124881Y-99368408D01*
X120236592Y-99480119D01*
X120373409Y-99559111D01*
X120393940Y-99564612D01*
X119592595Y-100365955D01*
X119592595Y-100365956D01*
X119658507Y-100416533D01*
X119851485Y-100527949D01*
X119851497Y-100527954D01*
X120057381Y-100613236D01*
X120272632Y-100670911D01*
X120272645Y-100670914D01*
X120493575Y-100700000D01*
X120716425Y-100700000D01*
X120937354Y-100670914D01*
X120937367Y-100670911D01*
X121152618Y-100613236D01*
X121358502Y-100527954D01*
X121358514Y-100527949D01*
X121551498Y-100416530D01*
X121617403Y-100365957D01*
X121617404Y-100365956D01*
X120816059Y-99564612D01*
X120836591Y-99559111D01*
X120973408Y-99480119D01*
X121085119Y-99368408D01*
X121164111Y-99231591D01*
X121169612Y-99211059D01*
X121970956Y-100012404D01*
X121970957Y-100012403D01*
X122021530Y-99946498D01*
X122132949Y-99753514D01*
X122132954Y-99753502D01*
X122218236Y-99547618D01*
X122275911Y-99332367D01*
X122275914Y-99332354D01*
X122305000Y-99111424D01*
X122305000Y-98888575D01*
X122275914Y-98667645D01*
X122275911Y-98667632D01*
X122218236Y-98452381D01*
X122132954Y-98246497D01*
X122132949Y-98246485D01*
X122021533Y-98053507D01*
X121970956Y-97987595D01*
X121970955Y-97987595D01*
X121169612Y-98788939D01*
X121164111Y-98768409D01*
X121085119Y-98631592D01*
X120973408Y-98519881D01*
X120836591Y-98440889D01*
X120816058Y-98435387D01*
X121617403Y-97634043D01*
X121617403Y-97634040D01*
X121551504Y-97583473D01*
X121551491Y-97583464D01*
X121358520Y-97472054D01*
X121358502Y-97472045D01*
X121152618Y-97386763D01*
X120937367Y-97329088D01*
X120937354Y-97329085D01*
X120716425Y-97300000D01*
X120493575Y-97300000D01*
X120272645Y-97329085D01*
X120272632Y-97329088D01*
X120057381Y-97386763D01*
X119851497Y-97472045D01*
X119851479Y-97472054D01*
X119658511Y-97583462D01*
X119592595Y-97634042D01*
X120393941Y-98435387D01*
X120373409Y-98440889D01*
X120236592Y-98519881D01*
X120124881Y-98631592D01*
X120045889Y-98768409D01*
X120040387Y-98788940D01*
X119239042Y-97987595D01*
X119188462Y-98053511D01*
X119077054Y-98246479D01*
X119077045Y-98246497D01*
X118991763Y-98452381D01*
X118934088Y-98667632D01*
X118934085Y-98667645D01*
X118905000Y-98888575D01*
X117225500Y-98888575D01*
X117225500Y-98888543D01*
X117196404Y-98667537D01*
X117138710Y-98452219D01*
X117053405Y-98246274D01*
X116941948Y-98053226D01*
X116806247Y-97876376D01*
X116806242Y-97876370D01*
X116648629Y-97718757D01*
X116648622Y-97718751D01*
X116471782Y-97583058D01*
X116471768Y-97583048D01*
X116377498Y-97528620D01*
X116329284Y-97478052D01*
X116315500Y-97421234D01*
X116315500Y-93369994D01*
X116335185Y-93302955D01*
X116387989Y-93257200D01*
X116448332Y-93246309D01*
X126900228Y-93992873D01*
X126965693Y-94017284D01*
X127007570Y-94073214D01*
X127014146Y-94099022D01*
X129999999Y-114999999D01*
X130000000Y-115000000D01*
X173760862Y-83173918D01*
X173826655Y-83150408D01*
X173894716Y-83166200D01*
X173943435Y-83216283D01*
X173957343Y-83284754D01*
X173956440Y-83292469D01*
X167015518Y-129895806D01*
X166986173Y-129959214D01*
X166927205Y-129996691D01*
X166894668Y-130001526D01*
X98104721Y-130998482D01*
X98037403Y-130979771D01*
X97990888Y-130927636D01*
X97980987Y-130897013D01*
X93830194Y-108413549D01*
X113824500Y-108413549D01*
X113824500Y-108636450D01*
X113824501Y-108636466D01*
X113853594Y-108857452D01*
X113853595Y-108857457D01*
X113853596Y-108857463D01*
X113911290Y-109072780D01*
X113911293Y-109072790D01*
X113996593Y-109278722D01*
X113996595Y-109278726D01*
X114108052Y-109471774D01*
X114108057Y-109471780D01*
X114108058Y-109471782D01*
X114243751Y-109648622D01*
X114243757Y-109648629D01*
X114401370Y-109806242D01*
X114401376Y-109806247D01*
X114578226Y-109941948D01*
X114771274Y-110053405D01*
X114901140Y-110107197D01*
X114976074Y-110138236D01*
X114977219Y-110138710D01*
X115192537Y-110196404D01*
X115413543Y-110225500D01*
X115413550Y-110225500D01*
X115636450Y-110225500D01*
X115636457Y-110225500D01*
X115857463Y-110196404D01*
X116072781Y-110138710D01*
X116278726Y-110053405D01*
X116471774Y-109941948D01*
X116648624Y-109806247D01*
X116648629Y-109806242D01*
X116699550Y-109755322D01*
X116806242Y-109648629D01*
X116806247Y-109648624D01*
X116941948Y-109471774D01*
X117053405Y-109278726D01*
X117138710Y-109072781D01*
X117196404Y-108857463D01*
X117225500Y-108636457D01*
X117225500Y-108413575D01*
X118905000Y-108413575D01*
X118905000Y-108636424D01*
X118934085Y-108857354D01*
X118934088Y-108857367D01*
X118991763Y-109072618D01*
X119077045Y-109278502D01*
X119077054Y-109278520D01*
X119188464Y-109471491D01*
X119188473Y-109471504D01*
X119239040Y-109537403D01*
X119239043Y-109537403D01*
X120040387Y-108736059D01*
X120045889Y-108756591D01*
X120124881Y-108893408D01*
X120236592Y-109005119D01*
X120373409Y-109084111D01*
X120393940Y-109089612D01*
X119592595Y-109890955D01*
X119592595Y-109890956D01*
X119658507Y-109941533D01*
X119851485Y-110052949D01*
X119851497Y-110052954D01*
X120057381Y-110138236D01*
X120272632Y-110195911D01*
X120272645Y-110195914D01*
X120493575Y-110225000D01*
X120716425Y-110225000D01*
X120937354Y-110195914D01*
X120937367Y-110195911D01*
X121152618Y-110138236D01*
X121358502Y-110052954D01*
X121358514Y-110052949D01*
X121551498Y-109941530D01*
X121617403Y-109890957D01*
X121617404Y-109890956D01*
X120816059Y-109089612D01*
X120836591Y-109084111D01*
X120973408Y-109005119D01*
X121085119Y-108893408D01*
X121164111Y-108756591D01*
X121169612Y-108736059D01*
X121970956Y-109537404D01*
X121970957Y-109537403D01*
X122021530Y-109471498D01*
X122132949Y-109278514D01*
X122132954Y-109278502D01*
X122218236Y-109072618D01*
X122275911Y-108857367D01*
X122275914Y-108857354D01*
X122305000Y-108636424D01*
X122305000Y-108413575D01*
X122275914Y-108192645D01*
X122275911Y-108192632D01*
X122218236Y-107977381D01*
X122132954Y-107771497D01*
X122132949Y-107771485D01*
X122021533Y-107578507D01*
X121970956Y-107512595D01*
X121970955Y-107512595D01*
X121169612Y-108313939D01*
X121164111Y-108293409D01*
X121085119Y-108156592D01*
X120973408Y-108044881D01*
X120836591Y-107965889D01*
X120816058Y-107960387D01*
X121617403Y-107159043D01*
X121617403Y-107159040D01*
X121551504Y-107108473D01*
X121551491Y-107108464D01*
X121358520Y-106997054D01*
X121358502Y-106997045D01*
X121152618Y-106911763D01*
X120937367Y-106854088D01*
X120937354Y-106854085D01*
X120716425Y-106825000D01*
X120493575Y-106825000D01*
X120272645Y-106854085D01*
X120272632Y-106854088D01*
X120057381Y-106911763D01*
X119851497Y-106997045D01*
X119851479Y-106997054D01*
X119658511Y-107108462D01*
X119592595Y-107159042D01*
X120393941Y-107960387D01*
X120373409Y-107965889D01*
X120236592Y-108044881D01*
X120124881Y-108156592D01*
X120045889Y-108293409D01*
X120040387Y-108313940D01*
X119239042Y-107512595D01*
X119188462Y-107578511D01*
X119077054Y-107771479D01*
X119077045Y-107771497D01*
X118991763Y-107977381D01*
X118934088Y-108192632D01*
X118934085Y-108192645D01*
X118905000Y-108413575D01*
X117225500Y-108413575D01*
X117225500Y-108413543D01*
X117196404Y-108192537D01*
X117138710Y-107977219D01*
X117053405Y-107771274D01*
X116941948Y-107578226D01*
X116806247Y-107401376D01*
X116806242Y-107401370D01*
X116648629Y-107243757D01*
X116648622Y-107243751D01*
X116471782Y-107108058D01*
X116471780Y-107108057D01*
X116471774Y-107108052D01*
X116278726Y-106996595D01*
X116278722Y-106996593D01*
X116072790Y-106911293D01*
X116072783Y-106911291D01*
X116072781Y-106911290D01*
X115857463Y-106853596D01*
X115857457Y-106853595D01*
X115857452Y-106853594D01*
X115636466Y-106824501D01*
X115636463Y-106824500D01*
X115636457Y-106824500D01*
X115413543Y-106824500D01*
X115413537Y-106824500D01*
X115413533Y-106824501D01*
X115192547Y-106853594D01*
X115192540Y-106853595D01*
X115192537Y-106853596D01*
X114977219Y-106911290D01*
X114977209Y-106911293D01*
X114771277Y-106996593D01*
X114771273Y-106996595D01*
X114578226Y-107108052D01*
X114578217Y-107108058D01*
X114401377Y-107243751D01*
X114401370Y-107243757D01*
X114243757Y-107401370D01*
X114243751Y-107401377D01*
X114108058Y-107578217D01*
X114108052Y-107578226D01*
X113996595Y-107771273D01*
X113996593Y-107771277D01*
X113911293Y-107977209D01*
X113911290Y-107977219D01*
X113863228Y-108156592D01*
X113853597Y-108192534D01*
X113853594Y-108192547D01*
X113824501Y-108413533D01*
X113824500Y-108413549D01*
X93830194Y-108413549D01*
X86010502Y-66056885D01*
X86017688Y-65987387D01*
X86036840Y-65955403D01*
X94732213Y-55429425D01*
X94790079Y-55390282D01*
X94859929Y-55388636D01*
X94915487Y-55420722D01*
G37*
%TD.AperFunction*%
%TD*%
M02*
