%TF.GenerationSoftware,KiCad,Pcbnew,10.0.5-unknown-202607221313~667fa36054~ubuntu25.10.1*%
%TF.CreationDate,2026-09-29T20:34:27+00:00*%
%TF.ProjectId,ktest,6b746573-742e-46b6-9963-61645f706362,rev?*%
%TF.SameCoordinates,Original*%
%TF.FileFunction,Legend,Top*%
%TF.FilePolarity,Positive*%
%FSLAX46Y46*%
G04 Gerber Fmt 4.6, Leading zero omitted, Abs format (unit mm)*
G04 Created by KiCad (PCBNEW 10.0.5-unknown-202607221313~667fa36054~ubuntu25.10.1) date 2026-09-29 20:34:27*
%MOMM*%
%LPD*%
G01*
G04 APERTURE LIST*
%ADD10C,0.150000*%
%ADD11C,0.120000*%
G04 APERTURE END LIST*
D10*
X126325333Y-76415580D02*
X126277714Y-76463200D01*
X126277714Y-76463200D02*
X126134857Y-76510819D01*
X126134857Y-76510819D02*
X126039619Y-76510819D01*
X126039619Y-76510819D02*
X125896762Y-76463200D01*
X125896762Y-76463200D02*
X125801524Y-76367961D01*
X125801524Y-76367961D02*
X125753905Y-76272723D01*
X125753905Y-76272723D02*
X125706286Y-76082247D01*
X125706286Y-76082247D02*
X125706286Y-75939390D01*
X125706286Y-75939390D02*
X125753905Y-75748914D01*
X125753905Y-75748914D02*
X125801524Y-75653676D01*
X125801524Y-75653676D02*
X125896762Y-75558438D01*
X125896762Y-75558438D02*
X126039619Y-75510819D01*
X126039619Y-75510819D02*
X126134857Y-75510819D01*
X126134857Y-75510819D02*
X126277714Y-75558438D01*
X126277714Y-75558438D02*
X126325333Y-75606057D01*
X126706286Y-75606057D02*
X126753905Y-75558438D01*
X126753905Y-75558438D02*
X126849143Y-75510819D01*
X126849143Y-75510819D02*
X127087238Y-75510819D01*
X127087238Y-75510819D02*
X127182476Y-75558438D01*
X127182476Y-75558438D02*
X127230095Y-75606057D01*
X127230095Y-75606057D02*
X127277714Y-75701295D01*
X127277714Y-75701295D02*
X127277714Y-75796533D01*
X127277714Y-75796533D02*
X127230095Y-75939390D01*
X127230095Y-75939390D02*
X126658667Y-76510819D01*
X126658667Y-76510819D02*
X127277714Y-76510819D01*
X126325333Y-85813580D02*
X126277714Y-85861200D01*
X126277714Y-85861200D02*
X126134857Y-85908819D01*
X126134857Y-85908819D02*
X126039619Y-85908819D01*
X126039619Y-85908819D02*
X125896762Y-85861200D01*
X125896762Y-85861200D02*
X125801524Y-85765961D01*
X125801524Y-85765961D02*
X125753905Y-85670723D01*
X125753905Y-85670723D02*
X125706286Y-85480247D01*
X125706286Y-85480247D02*
X125706286Y-85337390D01*
X125706286Y-85337390D02*
X125753905Y-85146914D01*
X125753905Y-85146914D02*
X125801524Y-85051676D01*
X125801524Y-85051676D02*
X125896762Y-84956438D01*
X125896762Y-84956438D02*
X126039619Y-84908819D01*
X126039619Y-84908819D02*
X126134857Y-84908819D01*
X126134857Y-84908819D02*
X126277714Y-84956438D01*
X126277714Y-84956438D02*
X126325333Y-85004057D01*
X126658667Y-84908819D02*
X127277714Y-84908819D01*
X127277714Y-84908819D02*
X126944381Y-85289771D01*
X126944381Y-85289771D02*
X127087238Y-85289771D01*
X127087238Y-85289771D02*
X127182476Y-85337390D01*
X127182476Y-85337390D02*
X127230095Y-85385009D01*
X127230095Y-85385009D02*
X127277714Y-85480247D01*
X127277714Y-85480247D02*
X127277714Y-85718342D01*
X127277714Y-85718342D02*
X127230095Y-85813580D01*
X127230095Y-85813580D02*
X127182476Y-85861200D01*
X127182476Y-85861200D02*
X127087238Y-85908819D01*
X127087238Y-85908819D02*
X126801524Y-85908819D01*
X126801524Y-85908819D02*
X126706286Y-85861200D01*
X126706286Y-85861200D02*
X126658667Y-85813580D01*
X136210333Y-89116819D02*
X135877000Y-88640628D01*
X135638905Y-89116819D02*
X135638905Y-88116819D01*
X135638905Y-88116819D02*
X136019857Y-88116819D01*
X136019857Y-88116819D02*
X136115095Y-88164438D01*
X136115095Y-88164438D02*
X136162714Y-88212057D01*
X136162714Y-88212057D02*
X136210333Y-88307295D01*
X136210333Y-88307295D02*
X136210333Y-88450152D01*
X136210333Y-88450152D02*
X136162714Y-88545390D01*
X136162714Y-88545390D02*
X136115095Y-88593009D01*
X136115095Y-88593009D02*
X136019857Y-88640628D01*
X136019857Y-88640628D02*
X135638905Y-88640628D01*
X136543667Y-88116819D02*
X137162714Y-88116819D01*
X137162714Y-88116819D02*
X136829381Y-88497771D01*
X136829381Y-88497771D02*
X136972238Y-88497771D01*
X136972238Y-88497771D02*
X137067476Y-88545390D01*
X137067476Y-88545390D02*
X137115095Y-88593009D01*
X137115095Y-88593009D02*
X137162714Y-88688247D01*
X137162714Y-88688247D02*
X137162714Y-88926342D01*
X137162714Y-88926342D02*
X137115095Y-89021580D01*
X137115095Y-89021580D02*
X137067476Y-89069200D01*
X137067476Y-89069200D02*
X136972238Y-89116819D01*
X136972238Y-89116819D02*
X136686524Y-89116819D01*
X136686524Y-89116819D02*
X136591286Y-89069200D01*
X136591286Y-89069200D02*
X136543667Y-89021580D01*
X141923666Y-80521819D02*
X141923666Y-81236104D01*
X141923666Y-81236104D02*
X141876047Y-81378961D01*
X141876047Y-81378961D02*
X141780809Y-81474200D01*
X141780809Y-81474200D02*
X141637952Y-81521819D01*
X141637952Y-81521819D02*
X141542714Y-81521819D01*
X142923666Y-81521819D02*
X142352238Y-81521819D01*
X142637952Y-81521819D02*
X142637952Y-80521819D01*
X142637952Y-80521819D02*
X142542714Y-80664676D01*
X142542714Y-80664676D02*
X142447476Y-80759914D01*
X142447476Y-80759914D02*
X142352238Y-80807533D01*
X134886333Y-76322580D02*
X134838714Y-76370200D01*
X134838714Y-76370200D02*
X134695857Y-76417819D01*
X134695857Y-76417819D02*
X134600619Y-76417819D01*
X134600619Y-76417819D02*
X134457762Y-76370200D01*
X134457762Y-76370200D02*
X134362524Y-76274961D01*
X134362524Y-76274961D02*
X134314905Y-76179723D01*
X134314905Y-76179723D02*
X134267286Y-75989247D01*
X134267286Y-75989247D02*
X134267286Y-75846390D01*
X134267286Y-75846390D02*
X134314905Y-75655914D01*
X134314905Y-75655914D02*
X134362524Y-75560676D01*
X134362524Y-75560676D02*
X134457762Y-75465438D01*
X134457762Y-75465438D02*
X134600619Y-75417819D01*
X134600619Y-75417819D02*
X134695857Y-75417819D01*
X134695857Y-75417819D02*
X134838714Y-75465438D01*
X134838714Y-75465438D02*
X134886333Y-75513057D01*
X135838714Y-76417819D02*
X135267286Y-76417819D01*
X135553000Y-76417819D02*
X135553000Y-75417819D01*
X135553000Y-75417819D02*
X135457762Y-75560676D01*
X135457762Y-75560676D02*
X135362524Y-75655914D01*
X135362524Y-75655914D02*
X135267286Y-75703533D01*
X136210333Y-87466819D02*
X135877000Y-86990628D01*
X135638905Y-87466819D02*
X135638905Y-86466819D01*
X135638905Y-86466819D02*
X136019857Y-86466819D01*
X136019857Y-86466819D02*
X136115095Y-86514438D01*
X136115095Y-86514438D02*
X136162714Y-86562057D01*
X136162714Y-86562057D02*
X136210333Y-86657295D01*
X136210333Y-86657295D02*
X136210333Y-86800152D01*
X136210333Y-86800152D02*
X136162714Y-86895390D01*
X136162714Y-86895390D02*
X136115095Y-86943009D01*
X136115095Y-86943009D02*
X136019857Y-86990628D01*
X136019857Y-86990628D02*
X135638905Y-86990628D01*
X136591286Y-86562057D02*
X136638905Y-86514438D01*
X136638905Y-86514438D02*
X136734143Y-86466819D01*
X136734143Y-86466819D02*
X136972238Y-86466819D01*
X136972238Y-86466819D02*
X137067476Y-86514438D01*
X137067476Y-86514438D02*
X137115095Y-86562057D01*
X137115095Y-86562057D02*
X137162714Y-86657295D01*
X137162714Y-86657295D02*
X137162714Y-86752533D01*
X137162714Y-86752533D02*
X137115095Y-86895390D01*
X137115095Y-86895390D02*
X136543667Y-87466819D01*
X136543667Y-87466819D02*
X137162714Y-87466819D01*
%TO.C,C2*%
D11*
X122867000Y-78071000D02*
X123492000Y-78071000D01*
X123179500Y-77758500D02*
X123179500Y-78383500D01*
X123732000Y-78060437D02*
X123732000Y-78696000D01*
X123732000Y-78060437D02*
X124796437Y-76996000D01*
X123732000Y-81451563D02*
X123732000Y-80816000D01*
X123732000Y-81451563D02*
X124796437Y-82516000D01*
X124796437Y-76996000D02*
X129252000Y-76996000D01*
X124796437Y-82516000D02*
X129252000Y-82516000D01*
X129252000Y-76996000D02*
X129252000Y-78696000D01*
X129252000Y-82516000D02*
X129252000Y-80816000D01*
%TO.C,C3*%
X122867000Y-87469000D02*
X123492000Y-87469000D01*
X123179500Y-87156500D02*
X123179500Y-87781500D01*
X123732000Y-87458437D02*
X123732000Y-88094000D01*
X123732000Y-87458437D02*
X124796437Y-86394000D01*
X123732000Y-90849563D02*
X123732000Y-90214000D01*
X123732000Y-90849563D02*
X124796437Y-91914000D01*
X124796437Y-86394000D02*
X129252000Y-86394000D01*
X124796437Y-91914000D02*
X129252000Y-91914000D01*
X129252000Y-86394000D02*
X129252000Y-88094000D01*
X129252000Y-91914000D02*
X129252000Y-90214000D01*
%TO.C,J1*%
X140927000Y-85107000D02*
X140927000Y-90247000D01*
X140927000Y-85107000D02*
X143587000Y-85107000D01*
X140927000Y-90247000D02*
X143587000Y-90247000D01*
X142257000Y-82507000D02*
X143587000Y-82507000D01*
X143587000Y-82507000D02*
X143587000Y-83837000D01*
X143587000Y-85107000D02*
X143587000Y-90247000D01*
%TO.C,C1*%
X131428000Y-77978000D02*
X132053000Y-77978000D01*
X131740500Y-77665500D02*
X131740500Y-78290500D01*
X132293000Y-77967437D02*
X132293000Y-78603000D01*
X132293000Y-77967437D02*
X133357437Y-76903000D01*
X132293000Y-81358563D02*
X132293000Y-80723000D01*
X132293000Y-81358563D02*
X133357437Y-82423000D01*
X133357437Y-76903000D02*
X137813000Y-76903000D01*
X133357437Y-82423000D02*
X137813000Y-82423000D01*
X137813000Y-76903000D02*
X137813000Y-78603000D01*
X137813000Y-82423000D02*
X137813000Y-80723000D01*
%TD*%
M02*
