%TF.GenerationSoftware,KiCad,Pcbnew,10.0.5-unknown-202607221313~667fa36054~ubuntu25.10.1*%
%TF.CreationDate,2026-10-04T20:58:27+00:00*%
%TF.ProjectId,ktest,6b746573-742e-46b6-9963-61645f706362,0.0.2*%
%TF.SameCoordinates,Original*%
%TF.FileFunction,Copper,L4,Bot*%
%TF.FilePolarity,Positive*%
%FSLAX46Y46*%
G04 Gerber Fmt 4.6, Leading zero omitted, Abs format (unit mm)*
G04 Created by KiCad (PCBNEW 10.0.5-unknown-202607221313~667fa36054~ubuntu25.10.1) date 2026-10-04 20:58:27*
%MOMM*%
%LPD*%
G01*
G04 APERTURE LIST*
G04 Aperture macros list*
%AMRoundRect*
0 Rectangle with rounded corners*
0 $1 Rounding radius*
0 $2 $3 $4 $5 $6 $7 $8 $9 X,Y pos of 4 corners*
0 Add a 4 corners polygon primitive as box body*
4,1,4,$2,$3,$4,$5,$6,$7,$8,$9,$2,$3,0*
0 Add four circle primitives for the rounded corners*
1,1,$1+$1,$2,$3*
1,1,$1+$1,$4,$5*
1,1,$1+$1,$6,$7*
1,1,$1+$1,$8,$9*
0 Add four rect primitives between the rounded corners*
20,1,$1+$1,$2,$3,$4,$5,0*
20,1,$1+$1,$4,$5,$6,$7,0*
20,1,$1+$1,$6,$7,$8,$9,0*
20,1,$1+$1,$8,$9,$2,$3,0*%
G04 Aperture macros list end*
%TA.AperFunction,ComponentPad*%
%ADD10R,1.800000X1.800000*%
%TD*%
%TA.AperFunction,ComponentPad*%
%ADD11C,1.800000*%
%TD*%
%TA.AperFunction,ComponentPad*%
%ADD12C,2.400000*%
%TD*%
%TA.AperFunction,ComponentPad*%
%ADD13R,1.700000X1.700000*%
%TD*%
%TA.AperFunction,ComponentPad*%
%ADD14C,1.700000*%
%TD*%
%TA.AperFunction,SMDPad,CuDef*%
%ADD15RoundRect,0.075000X-0.125000X-0.075000X0.125000X-0.075000X0.125000X0.075000X-0.125000X0.075000X0*%
%TD*%
%TA.AperFunction,SMDPad,CuDef*%
%ADD16RoundRect,0.075000X0.125000X0.075000X-0.125000X0.075000X-0.125000X-0.075000X0.125000X-0.075000X0*%
%TD*%
%TA.AperFunction,SMDPad,CuDef*%
%ADD17RoundRect,0.250000X1.250000X0.550000X-1.250000X0.550000X-1.250000X-0.550000X1.250000X-0.550000X0*%
%TD*%
%TA.AperFunction,ViaPad*%
%ADD18C,0.600000*%
%TD*%
%TA.AperFunction,Conductor*%
%ADD19C,0.200000*%
%TD*%
G04 APERTURE END LIST*
D10*
%TO.P,D2,1,K_1*%
%TO.N,/child_1/a*%
X146125000Y-88635000D03*
D11*
%TO.P,D2,2,A_2*%
%TO.N,Net-(D2-A)*%
X148665000Y-88635000D03*
%TD*%
D12*
%TO.P,R4,1*%
%TO.N,Net-(D1-A)*%
X115525000Y-108525000D03*
%TO.P,R4,2*%
%TO.N,/child_1/a*%
X120605000Y-108525000D03*
%TD*%
D13*
%TO.P,J1,1,Pin_1_1*%
%TO.N,/child_1/n*%
X113259000Y-54881000D03*
D14*
%TO.P,J1,2,Pin_2_2*%
%TO.N,Net-(J1-Pin_2)*%
X113259000Y-57421000D03*
%TO.P,J1,3,Pin_3_3*%
%TO.N,Net-(J1-Pin_3)*%
X113259000Y-59961000D03*
%TD*%
D10*
%TO.P,D1,1,K_1*%
%TO.N,/child_1/n*%
X113175000Y-80535000D03*
D11*
%TO.P,D1,2,A_2*%
%TO.N,Net-(D1-A)*%
X115715000Y-80535000D03*
%TD*%
D12*
%TO.P,R9,1*%
%TO.N,Net-(D2-A)*%
X138525000Y-77525000D03*
%TO.P,R9,2*%
%TO.N,/child_1/n*%
X143605000Y-77525000D03*
%TD*%
D15*
%TO.P,R1,1*%
%TO.N,Net-(C1-Pad1)*%
X102455000Y-55910000D03*
%TO.P,R1,2*%
%TO.N,Net-(J1-Pin_2)*%
X102955000Y-55910000D03*
%TD*%
D16*
%TO.P,R8,1*%
%TO.N,/child_1/a*%
X147250000Y-106000000D03*
%TO.P,R8,2*%
%TO.N,Net-(C4-Pad2)*%
X146750000Y-106000000D03*
%TD*%
D12*
%TO.P,R5,1*%
%TO.N,Net-(D1-A)*%
X115525000Y-99000000D03*
%TO.P,R5,2*%
%TO.N,/child_1/a*%
X120605000Y-99000000D03*
%TD*%
%TO.P,R10,1*%
%TO.N,Net-(D2-A)*%
X137030000Y-87000000D03*
%TO.P,R10,2*%
%TO.N,/child_1/n*%
X131950000Y-87000000D03*
%TD*%
D17*
%TO.P,C4,1*%
%TO.N,/child_1/a*%
X137780000Y-93450000D03*
%TO.P,C4,2*%
%TO.N,Net-(C4-Pad2)*%
X133380000Y-93450000D03*
%TD*%
D18*
%TO.N,Net-(J1-Pin_3)*%
X95208000Y-52578000D03*
X106892000Y-58166000D03*
%TO.N,Net-(C1-Pad1)*%
X102455000Y-54957000D03*
%TO.N,Net-(J1-Pin_2)*%
X104005000Y-54957000D03*
X112480000Y-47752000D03*
%TD*%
%TO.N,/child_1/a*%
D19*
X137780000Y-93450000D02*
X141310000Y-93450000D01*
X147250000Y-102750000D02*
X147250000Y-106000000D01*
X141310000Y-93450000D02*
X143450000Y-93450000D01*
X141310000Y-93450000D02*
X146125000Y-88635000D01*
X150000000Y-100000000D02*
X147250000Y-102750000D01*
X143450000Y-93450000D02*
X150000000Y-100000000D01*
%TO.N,Net-(J1-Pin_3)*%
X95208000Y-54864000D02*
X95208000Y-52578000D01*
X98510000Y-58166000D02*
X95208000Y-54864000D01*
X106892000Y-58166000D02*
X98510000Y-58166000D01*
%TO.N,Net-(C1-Pad1)*%
X102455000Y-55910000D02*
X102455000Y-54957000D01*
%TO.N,/child_1/n*%
X113175000Y-80535000D02*
X113175000Y-67825000D01*
X113175000Y-67825000D02*
X118000000Y-63000000D01*
X118000000Y-63000000D02*
X118000000Y-59622000D01*
X118000000Y-59622000D02*
X113259000Y-54881000D01*
%TO.N,Net-(D1-A)*%
X115715000Y-80535000D02*
X115715000Y-98810000D01*
X115715000Y-98810000D02*
X115525000Y-99000000D01*
%TO.N,Net-(J1-Pin_2)*%
X102955000Y-55910000D02*
X103052000Y-55910000D01*
X103052000Y-55910000D02*
X104005000Y-54957000D01*
%TO.N,Net-(C4-Pad2)*%
X145930000Y-106000000D02*
X133380000Y-93450000D01*
X146750000Y-106000000D02*
X145930000Y-106000000D01*
%TD*%
%TA.AperFunction,Conductor*%
%TO.N,/child_1/a*%
G36*
X94915487Y-55420722D02*
G01*
X98025139Y-58530374D01*
X98025149Y-58530385D01*
X98029479Y-58534715D01*
X98029480Y-58534716D01*
X98141284Y-58646520D01*
X98186383Y-58672557D01*
X98228095Y-58696639D01*
X98228097Y-58696641D01*
X98250271Y-58709443D01*
X98278215Y-58725577D01*
X98430943Y-58766500D01*
X106312234Y-58766500D01*
X106379273Y-58786185D01*
X106381125Y-58787398D01*
X106512814Y-58875390D01*
X106512827Y-58875397D01*
X106658498Y-58935735D01*
X106658503Y-58935737D01*
X106813153Y-58966499D01*
X106813156Y-58966500D01*
X106837337Y-58966500D01*
X106904376Y-58986185D01*
X106950131Y-59038989D01*
X106960425Y-59075489D01*
X110000000Y-84000001D01*
X111508259Y-88524778D01*
X113000000Y-93000000D01*
X114999340Y-93142810D01*
X115064801Y-93167219D01*
X115106678Y-93223149D01*
X115114500Y-93266493D01*
X115114500Y-97254356D01*
X115094815Y-97321395D01*
X115042011Y-97367150D01*
X115022596Y-97374130D01*
X114977222Y-97386288D01*
X114771282Y-97471590D01*
X114771273Y-97471595D01*
X114578226Y-97583052D01*
X114578217Y-97583058D01*
X114401377Y-97718751D01*
X114401370Y-97718757D01*
X114243757Y-97876370D01*
X114243751Y-97876377D01*
X114108058Y-98053217D01*
X114108052Y-98053226D01*
X113996595Y-98246273D01*
X113996593Y-98246277D01*
X113911293Y-98452209D01*
X113911290Y-98452219D01*
X113863228Y-98631592D01*
X113853597Y-98667534D01*
X113853594Y-98667547D01*
X113824501Y-98888533D01*
X113824500Y-98888549D01*
X113824500Y-99111450D01*
X113824501Y-99111466D01*
X113853594Y-99332452D01*
X113853595Y-99332457D01*
X113853596Y-99332463D01*
X113911290Y-99547780D01*
X113911293Y-99547790D01*
X113996593Y-99753722D01*
X113996595Y-99753726D01*
X114108052Y-99946774D01*
X114108057Y-99946780D01*
X114108058Y-99946782D01*
X114243751Y-100123622D01*
X114243757Y-100123629D01*
X114401370Y-100281242D01*
X114401376Y-100281247D01*
X114578226Y-100416948D01*
X114771274Y-100528405D01*
X114901140Y-100582197D01*
X114976074Y-100613236D01*
X114977219Y-100613710D01*
X115192537Y-100671404D01*
X115413543Y-100700500D01*
X115413550Y-100700500D01*
X115636450Y-100700500D01*
X115636457Y-100700500D01*
X115857463Y-100671404D01*
X116072781Y-100613710D01*
X116278726Y-100528405D01*
X116471774Y-100416948D01*
X116648624Y-100281247D01*
X116648629Y-100281242D01*
X116699550Y-100230322D01*
X116806242Y-100123629D01*
X116806247Y-100123624D01*
X116941948Y-99946774D01*
X117053405Y-99753726D01*
X117138710Y-99547781D01*
X117196404Y-99332463D01*
X117225500Y-99111457D01*
X117225500Y-98888575D01*
X118905000Y-98888575D01*
X118905000Y-99111424D01*
X118934085Y-99332354D01*
X118934088Y-99332367D01*
X118991763Y-99547618D01*
X119077045Y-99753502D01*
X119077054Y-99753520D01*
X119188464Y-99946491D01*
X119188473Y-99946504D01*
X119239040Y-100012403D01*
X119239043Y-100012403D01*
X120040387Y-99211059D01*
X120045889Y-99231591D01*
X120124881Y-99368408D01*
X120236592Y-99480119D01*
X120373409Y-99559111D01*
X120393940Y-99564612D01*
X119592595Y-100365955D01*
X119592595Y-100365956D01*
X119658507Y-100416533D01*
X119851485Y-100527949D01*
X119851497Y-100527954D01*
X120057381Y-100613236D01*
X120272632Y-100670911D01*
X120272645Y-100670914D01*
X120493575Y-100700000D01*
X120716425Y-100700000D01*
X120937354Y-100670914D01*
X120937367Y-100670911D01*
X121152618Y-100613236D01*
X121358502Y-100527954D01*
X121358514Y-100527949D01*
X121551498Y-100416530D01*
X121617403Y-100365957D01*
X121617404Y-100365956D01*
X120816059Y-99564612D01*
X120836591Y-99559111D01*
X120973408Y-99480119D01*
X121085119Y-99368408D01*
X121164111Y-99231591D01*
X121169612Y-99211059D01*
X121970956Y-100012404D01*
X121970957Y-100012403D01*
X122021530Y-99946498D01*
X122132949Y-99753514D01*
X122132954Y-99753502D01*
X122218236Y-99547618D01*
X122275911Y-99332367D01*
X122275914Y-99332354D01*
X122305000Y-99111424D01*
X122305000Y-98888575D01*
X122275914Y-98667645D01*
X122275911Y-98667632D01*
X122218236Y-98452381D01*
X122132954Y-98246497D01*
X122132949Y-98246485D01*
X122021533Y-98053507D01*
X121970956Y-97987595D01*
X121970955Y-97987595D01*
X121169612Y-98788939D01*
X121164111Y-98768409D01*
X121085119Y-98631592D01*
X120973408Y-98519881D01*
X120836591Y-98440889D01*
X120816058Y-98435387D01*
X121617403Y-97634043D01*
X121617403Y-97634040D01*
X121551504Y-97583473D01*
X121551491Y-97583464D01*
X121358520Y-97472054D01*
X121358502Y-97472045D01*
X121152618Y-97386763D01*
X120937367Y-97329088D01*
X120937354Y-97329085D01*
X120716425Y-97300000D01*
X120493575Y-97300000D01*
X120272645Y-97329085D01*
X120272632Y-97329088D01*
X120057381Y-97386763D01*
X119851497Y-97472045D01*
X119851479Y-97472054D01*
X119658511Y-97583462D01*
X119592595Y-97634042D01*
X120393941Y-98435387D01*
X120373409Y-98440889D01*
X120236592Y-98519881D01*
X120124881Y-98631592D01*
X120045889Y-98768409D01*
X120040387Y-98788940D01*
X119239042Y-97987595D01*
X119188462Y-98053511D01*
X119077054Y-98246479D01*
X119077045Y-98246497D01*
X118991763Y-98452381D01*
X118934088Y-98667632D01*
X118934085Y-98667645D01*
X118905000Y-98888575D01*
X117225500Y-98888575D01*
X117225500Y-98888543D01*
X117196404Y-98667537D01*
X117138710Y-98452219D01*
X117053405Y-98246274D01*
X116941948Y-98053226D01*
X116806247Y-97876376D01*
X116806242Y-97876370D01*
X116648629Y-97718757D01*
X116648622Y-97718751D01*
X116471782Y-97583058D01*
X116471768Y-97583048D01*
X116377498Y-97528620D01*
X116329284Y-97478052D01*
X116315500Y-97421234D01*
X116315500Y-93369994D01*
X116335185Y-93302955D01*
X116387989Y-93257200D01*
X116448332Y-93246309D01*
X127000000Y-94000000D01*
X127156820Y-92849983D01*
X131379500Y-92849983D01*
X131379500Y-94050001D01*
X131379501Y-94050018D01*
X131390000Y-94152796D01*
X131390001Y-94152799D01*
X131445115Y-94319119D01*
X131445186Y-94319334D01*
X131537288Y-94468656D01*
X131661344Y-94592712D01*
X131810666Y-94684814D01*
X131977203Y-94739999D01*
X132079991Y-94750500D01*
X133779902Y-94750499D01*
X133846941Y-94770184D01*
X133867583Y-94786818D01*
X145445139Y-106364374D01*
X145445149Y-106364385D01*
X145449479Y-106368715D01*
X145449480Y-106368716D01*
X145561284Y-106480520D01*
X145639074Y-106525431D01*
X145648095Y-106530639D01*
X145648097Y-106530641D01*
X145698213Y-106559576D01*
X145698215Y-106559577D01*
X145850942Y-106600500D01*
X145850943Y-106600500D01*
X146365151Y-106600500D01*
X146412603Y-106609938D01*
X146474764Y-106635687D01*
X146575894Y-106649001D01*
X146583474Y-106649999D01*
X146587280Y-106650500D01*
X146587287Y-106650500D01*
X146912713Y-106650500D01*
X146912720Y-106650500D01*
X147025236Y-106635687D01*
X147165233Y-106577698D01*
X147200515Y-106550624D01*
X147265681Y-106525431D01*
X147334126Y-106539468D01*
X147384116Y-106588282D01*
X147400000Y-106649001D01*
X147400000Y-106650000D01*
X147412683Y-106650000D01*
X147412697Y-106649999D01*
X147525104Y-106635199D01*
X147525108Y-106635198D01*
X147664978Y-106577263D01*
X147785094Y-106485094D01*
X147877263Y-106364978D01*
X147935198Y-106225108D01*
X147935199Y-106225103D01*
X147945088Y-106150000D01*
X147574500Y-106150000D01*
X147507461Y-106130315D01*
X147461706Y-106077511D01*
X147450500Y-106026000D01*
X147450500Y-105974000D01*
X147470185Y-105906961D01*
X147522989Y-105861206D01*
X147574500Y-105850000D01*
X147945088Y-105850000D01*
X147945088Y-105849999D01*
X147935199Y-105774896D01*
X147935198Y-105774891D01*
X147877263Y-105635021D01*
X147785094Y-105514905D01*
X147664978Y-105422736D01*
X147525108Y-105364801D01*
X147525104Y-105364800D01*
X147412697Y-105350000D01*
X147400000Y-105350000D01*
X147400000Y-105350998D01*
X147380315Y-105418037D01*
X147327511Y-105463792D01*
X147258353Y-105473736D01*
X147200514Y-105449374D01*
X147169084Y-105425257D01*
X147165233Y-105422302D01*
X147025236Y-105364313D01*
X146973252Y-105357469D01*
X146973246Y-105357467D01*
X146912722Y-105349500D01*
X146912720Y-105349500D01*
X146587280Y-105349500D01*
X146587272Y-105349500D01*
X146474764Y-105364313D01*
X146474763Y-105364313D01*
X146412604Y-105390061D01*
X146365151Y-105399500D01*
X146230097Y-105399500D01*
X146163058Y-105379815D01*
X146142416Y-105363181D01*
X135301646Y-94522411D01*
X135268161Y-94461088D01*
X135273145Y-94391396D01*
X135283786Y-94369637D01*
X135314814Y-94319334D01*
X135369999Y-94152797D01*
X135380500Y-94050009D01*
X135380500Y-94049986D01*
X135780001Y-94049986D01*
X135790494Y-94152697D01*
X135845641Y-94319119D01*
X135845643Y-94319124D01*
X135937684Y-94468345D01*
X136061654Y-94592315D01*
X136210875Y-94684356D01*
X136210880Y-94684358D01*
X136377302Y-94739505D01*
X136377309Y-94739506D01*
X136480019Y-94749999D01*
X137529999Y-94749999D01*
X138030000Y-94749999D01*
X139079972Y-94749999D01*
X139079986Y-94749998D01*
X139182697Y-94739505D01*
X139349119Y-94684358D01*
X139349124Y-94684356D01*
X139498345Y-94592315D01*
X139622315Y-94468345D01*
X139714356Y-94319124D01*
X139714358Y-94319119D01*
X139769505Y-94152697D01*
X139769506Y-94152690D01*
X139779999Y-94049986D01*
X139780000Y-94049973D01*
X139780000Y-93700000D01*
X138030000Y-93700000D01*
X138030000Y-94749999D01*
X137529999Y-94749999D01*
X137530000Y-94749998D01*
X137530000Y-93700000D01*
X135780001Y-93700000D01*
X135780001Y-94049986D01*
X135380500Y-94049986D01*
X135380499Y-93369994D01*
X135380499Y-92850013D01*
X135780000Y-92850013D01*
X135780000Y-93200000D01*
X137530000Y-93200000D01*
X138030000Y-93200000D01*
X139779999Y-93200000D01*
X139779999Y-92850028D01*
X139779998Y-92850013D01*
X139769505Y-92747302D01*
X139714358Y-92580880D01*
X139714356Y-92580875D01*
X139622315Y-92431654D01*
X139498345Y-92307684D01*
X139349124Y-92215643D01*
X139349119Y-92215641D01*
X139182697Y-92160494D01*
X139182690Y-92160493D01*
X139079986Y-92150000D01*
X138030000Y-92150000D01*
X138030000Y-93200000D01*
X137530000Y-93200000D01*
X137530000Y-92150000D01*
X136480028Y-92150000D01*
X136480012Y-92150001D01*
X136377302Y-92160494D01*
X136210880Y-92215641D01*
X136210875Y-92215643D01*
X136061654Y-92307684D01*
X135937684Y-92431654D01*
X135845643Y-92580875D01*
X135845641Y-92580880D01*
X135790494Y-92747302D01*
X135790493Y-92747309D01*
X135780000Y-92850013D01*
X135380499Y-92850013D01*
X135380499Y-92849998D01*
X135380498Y-92849981D01*
X135369999Y-92747203D01*
X135369998Y-92747200D01*
X135314814Y-92580666D01*
X135222712Y-92431344D01*
X135098656Y-92307288D01*
X134949334Y-92215186D01*
X134782797Y-92160001D01*
X134782795Y-92160000D01*
X134680010Y-92149500D01*
X132079998Y-92149500D01*
X132079981Y-92149501D01*
X131977203Y-92160000D01*
X131977200Y-92160001D01*
X131810668Y-92215185D01*
X131810663Y-92215187D01*
X131661342Y-92307289D01*
X131537289Y-92431342D01*
X131445187Y-92580663D01*
X131445185Y-92580668D01*
X131445115Y-92580880D01*
X131390001Y-92747203D01*
X131390001Y-92747204D01*
X131390000Y-92747204D01*
X131379500Y-92849983D01*
X127156820Y-92849983D01*
X127969743Y-86888549D01*
X130249500Y-86888549D01*
X130249500Y-87111450D01*
X130249501Y-87111466D01*
X130278594Y-87332452D01*
X130278595Y-87332457D01*
X130278596Y-87332463D01*
X130336290Y-87547780D01*
X130336293Y-87547790D01*
X130408717Y-87722636D01*
X130421595Y-87753726D01*
X130533052Y-87946774D01*
X130533057Y-87946780D01*
X130533058Y-87946782D01*
X130668751Y-88123622D01*
X130668757Y-88123629D01*
X130826370Y-88281242D01*
X130826376Y-88281247D01*
X131003226Y-88416948D01*
X131196274Y-88528405D01*
X131402219Y-88613710D01*
X131617537Y-88671404D01*
X131838543Y-88700500D01*
X131838550Y-88700500D01*
X132061450Y-88700500D01*
X132061457Y-88700500D01*
X132282463Y-88671404D01*
X132497781Y-88613710D01*
X132703726Y-88528405D01*
X132896774Y-88416948D01*
X133073624Y-88281247D01*
X133231247Y-88123624D01*
X133366948Y-87946774D01*
X133478405Y-87753726D01*
X133563710Y-87547781D01*
X133621404Y-87332463D01*
X133650500Y-87111457D01*
X133650500Y-86888549D01*
X135329500Y-86888549D01*
X135329500Y-87111450D01*
X135329501Y-87111466D01*
X135358594Y-87332452D01*
X135358595Y-87332457D01*
X135358596Y-87332463D01*
X135416290Y-87547780D01*
X135416293Y-87547790D01*
X135488717Y-87722636D01*
X135501595Y-87753726D01*
X135613052Y-87946774D01*
X135613057Y-87946780D01*
X135613058Y-87946782D01*
X135748751Y-88123622D01*
X135748757Y-88123629D01*
X135906370Y-88281242D01*
X135906376Y-88281247D01*
X136083226Y-88416948D01*
X136276274Y-88528405D01*
X136482219Y-88613710D01*
X136697537Y-88671404D01*
X136918543Y-88700500D01*
X136918550Y-88700500D01*
X137141450Y-88700500D01*
X137141457Y-88700500D01*
X137362463Y-88671404D01*
X137577781Y-88613710D01*
X137783726Y-88528405D01*
X137976774Y-88416948D01*
X138153624Y-88281247D01*
X138311247Y-88123624D01*
X138446948Y-87946774D01*
X138558405Y-87753726D01*
X138585980Y-87687155D01*
X144725000Y-87687155D01*
X144725000Y-88385000D01*
X145749722Y-88385000D01*
X145705667Y-88461306D01*
X145675000Y-88575756D01*
X145675000Y-88694244D01*
X145705667Y-88808694D01*
X145749722Y-88885000D01*
X144725000Y-88885000D01*
X144725000Y-89582844D01*
X144731401Y-89642372D01*
X144731403Y-89642379D01*
X144781645Y-89777086D01*
X144781649Y-89777093D01*
X144867809Y-89892187D01*
X144867812Y-89892190D01*
X144982906Y-89978350D01*
X144982913Y-89978354D01*
X145117620Y-90028596D01*
X145117627Y-90028598D01*
X145177155Y-90034999D01*
X145177172Y-90035000D01*
X145875000Y-90035000D01*
X145875000Y-89010277D01*
X145951306Y-89054333D01*
X146065756Y-89085000D01*
X146184244Y-89085000D01*
X146298694Y-89054333D01*
X146375000Y-89010277D01*
X146375000Y-90035000D01*
X147072828Y-90035000D01*
X147072844Y-90034999D01*
X147132372Y-90028598D01*
X147132379Y-90028596D01*
X147267086Y-89978354D01*
X147267093Y-89978350D01*
X147382187Y-89892190D01*
X147382190Y-89892187D01*
X147468350Y-89777093D01*
X147468354Y-89777086D01*
X147498213Y-89697031D01*
X147540084Y-89641097D01*
X147605548Y-89616680D01*
X147673821Y-89631531D01*
X147702076Y-89652683D01*
X147752636Y-89703243D01*
X147752641Y-89703247D01*
X147908192Y-89816260D01*
X147930978Y-89832815D01*
X148047501Y-89892187D01*
X148127393Y-89932895D01*
X148127396Y-89932896D01*
X148232221Y-89966955D01*
X148337049Y-90001015D01*
X148554778Y-90035500D01*
X148554779Y-90035500D01*
X148775221Y-90035500D01*
X148775222Y-90035500D01*
X148992951Y-90001015D01*
X149202606Y-89932895D01*
X149399022Y-89832815D01*
X149577365Y-89703242D01*
X149733242Y-89547365D01*
X149862815Y-89369022D01*
X149962895Y-89172606D01*
X150031015Y-88962951D01*
X150065500Y-88745222D01*
X150065500Y-88524778D01*
X150031015Y-88307049D01*
X149996955Y-88202221D01*
X149962896Y-88097396D01*
X149962895Y-88097393D01*
X149928237Y-88029375D01*
X149862815Y-87900978D01*
X149755828Y-87753722D01*
X149733247Y-87722641D01*
X149733243Y-87722636D01*
X149577363Y-87566756D01*
X149577358Y-87566752D01*
X149399025Y-87437187D01*
X149399024Y-87437186D01*
X149399022Y-87437185D01*
X149336096Y-87405122D01*
X149202606Y-87337104D01*
X149202603Y-87337103D01*
X148992952Y-87268985D01*
X148884086Y-87251742D01*
X148775222Y-87234500D01*
X148554778Y-87234500D01*
X148482201Y-87245995D01*
X148337047Y-87268985D01*
X148127396Y-87337103D01*
X148127393Y-87337104D01*
X147930974Y-87437187D01*
X147752641Y-87566752D01*
X147752636Y-87566756D01*
X147702075Y-87617317D01*
X147640752Y-87650801D01*
X147571060Y-87645816D01*
X147515127Y-87603945D01*
X147498213Y-87572968D01*
X147468354Y-87492913D01*
X147468350Y-87492906D01*
X147382190Y-87377812D01*
X147382187Y-87377809D01*
X147267093Y-87291649D01*
X147267086Y-87291645D01*
X147132379Y-87241403D01*
X147132372Y-87241401D01*
X147072844Y-87235000D01*
X146375000Y-87235000D01*
X146375000Y-88259722D01*
X146298694Y-88215667D01*
X146184244Y-88185000D01*
X146065756Y-88185000D01*
X145951306Y-88215667D01*
X145875000Y-88259722D01*
X145875000Y-87235000D01*
X145177155Y-87235000D01*
X145117627Y-87241401D01*
X145117620Y-87241403D01*
X144982913Y-87291645D01*
X144982906Y-87291649D01*
X144867812Y-87377809D01*
X144867809Y-87377812D01*
X144781649Y-87492906D01*
X144781645Y-87492913D01*
X144731403Y-87627620D01*
X144731401Y-87627627D01*
X144725000Y-87687155D01*
X138585980Y-87687155D01*
X138643710Y-87547781D01*
X138701404Y-87332463D01*
X138730500Y-87111457D01*
X138730500Y-86888543D01*
X138701404Y-86667537D01*
X138643710Y-86452219D01*
X138558405Y-86246274D01*
X138446948Y-86053226D01*
X138311247Y-85876376D01*
X138311242Y-85876370D01*
X138153629Y-85718757D01*
X138153622Y-85718751D01*
X137976782Y-85583058D01*
X137976780Y-85583057D01*
X137976774Y-85583052D01*
X137783726Y-85471595D01*
X137783722Y-85471593D01*
X137577790Y-85386293D01*
X137577783Y-85386291D01*
X137577781Y-85386290D01*
X137362463Y-85328596D01*
X137362457Y-85328595D01*
X137362452Y-85328594D01*
X137141466Y-85299501D01*
X137141463Y-85299500D01*
X137141457Y-85299500D01*
X136918543Y-85299500D01*
X136918537Y-85299500D01*
X136918533Y-85299501D01*
X136697547Y-85328594D01*
X136697540Y-85328595D01*
X136697537Y-85328596D01*
X136482219Y-85386290D01*
X136482209Y-85386293D01*
X136276277Y-85471593D01*
X136276273Y-85471595D01*
X136083226Y-85583052D01*
X136083217Y-85583058D01*
X135906377Y-85718751D01*
X135906370Y-85718757D01*
X135748757Y-85876370D01*
X135748751Y-85876377D01*
X135613058Y-86053217D01*
X135613052Y-86053226D01*
X135501595Y-86246273D01*
X135501593Y-86246277D01*
X135416293Y-86452209D01*
X135416290Y-86452219D01*
X135358597Y-86667534D01*
X135358594Y-86667547D01*
X135329501Y-86888533D01*
X135329500Y-86888549D01*
X133650500Y-86888549D01*
X133650500Y-86888543D01*
X133621404Y-86667537D01*
X133563710Y-86452219D01*
X133478405Y-86246274D01*
X133366948Y-86053226D01*
X133231247Y-85876376D01*
X133231242Y-85876370D01*
X133073629Y-85718757D01*
X133073622Y-85718751D01*
X132896782Y-85583058D01*
X132896780Y-85583057D01*
X132896774Y-85583052D01*
X132703726Y-85471595D01*
X132703722Y-85471593D01*
X132497790Y-85386293D01*
X132497783Y-85386291D01*
X132497781Y-85386290D01*
X132282463Y-85328596D01*
X132282457Y-85328595D01*
X132282452Y-85328594D01*
X132061466Y-85299501D01*
X132061463Y-85299500D01*
X132061457Y-85299500D01*
X131838543Y-85299500D01*
X131838537Y-85299500D01*
X131838533Y-85299501D01*
X131617547Y-85328594D01*
X131617540Y-85328595D01*
X131617537Y-85328596D01*
X131402219Y-85386290D01*
X131402209Y-85386293D01*
X131196277Y-85471593D01*
X131196273Y-85471595D01*
X131003226Y-85583052D01*
X131003217Y-85583058D01*
X130826377Y-85718751D01*
X130826370Y-85718757D01*
X130668757Y-85876370D01*
X130668751Y-85876377D01*
X130533058Y-86053217D01*
X130533052Y-86053226D01*
X130421595Y-86246273D01*
X130421593Y-86246277D01*
X130336293Y-86452209D01*
X130336290Y-86452219D01*
X130278597Y-86667534D01*
X130278594Y-86667547D01*
X130249501Y-86888533D01*
X130249500Y-86888549D01*
X127969743Y-86888549D01*
X129261788Y-77413549D01*
X136824500Y-77413549D01*
X136824500Y-77636450D01*
X136824501Y-77636466D01*
X136853594Y-77857452D01*
X136853595Y-77857457D01*
X136853596Y-77857463D01*
X136853597Y-77857465D01*
X136911290Y-78072780D01*
X136911293Y-78072790D01*
X136996593Y-78278722D01*
X136996595Y-78278726D01*
X137108052Y-78471774D01*
X137108057Y-78471780D01*
X137108058Y-78471782D01*
X137243751Y-78648622D01*
X137243757Y-78648629D01*
X137401370Y-78806242D01*
X137401376Y-78806247D01*
X137578226Y-78941948D01*
X137771274Y-79053405D01*
X137901140Y-79107197D01*
X137967057Y-79134501D01*
X137977219Y-79138710D01*
X138192537Y-79196404D01*
X138413543Y-79225500D01*
X138413550Y-79225500D01*
X138636450Y-79225500D01*
X138636457Y-79225500D01*
X138857463Y-79196404D01*
X139072781Y-79138710D01*
X139278726Y-79053405D01*
X139471774Y-78941948D01*
X139648624Y-78806247D01*
X139806247Y-78648624D01*
X139941948Y-78471774D01*
X140053405Y-78278726D01*
X140138710Y-78072781D01*
X140196404Y-77857463D01*
X140225500Y-77636457D01*
X140225500Y-77413549D01*
X141904500Y-77413549D01*
X141904500Y-77636450D01*
X141904501Y-77636466D01*
X141933594Y-77857452D01*
X141933595Y-77857457D01*
X141933596Y-77857463D01*
X141933597Y-77857465D01*
X141991290Y-78072780D01*
X141991293Y-78072790D01*
X142076593Y-78278722D01*
X142076595Y-78278726D01*
X142188052Y-78471774D01*
X142188057Y-78471780D01*
X142188058Y-78471782D01*
X142323751Y-78648622D01*
X142323757Y-78648629D01*
X142481370Y-78806242D01*
X142481376Y-78806247D01*
X142658226Y-78941948D01*
X142851274Y-79053405D01*
X142981140Y-79107197D01*
X143047057Y-79134501D01*
X143057219Y-79138710D01*
X143272537Y-79196404D01*
X143493543Y-79225500D01*
X143493550Y-79225500D01*
X143716450Y-79225500D01*
X143716457Y-79225500D01*
X143937463Y-79196404D01*
X144152781Y-79138710D01*
X144358726Y-79053405D01*
X144551774Y-78941948D01*
X144728624Y-78806247D01*
X144886247Y-78648624D01*
X145021948Y-78471774D01*
X145133405Y-78278726D01*
X145218710Y-78072781D01*
X145276404Y-77857463D01*
X145305500Y-77636457D01*
X145305500Y-77413543D01*
X145276404Y-77192537D01*
X145218710Y-76977219D01*
X145133405Y-76771274D01*
X145021948Y-76578226D01*
X144886247Y-76401376D01*
X144886242Y-76401370D01*
X144728629Y-76243757D01*
X144728622Y-76243751D01*
X144551782Y-76108058D01*
X144551780Y-76108057D01*
X144551774Y-76108052D01*
X144358726Y-75996595D01*
X144358722Y-75996593D01*
X144152790Y-75911293D01*
X144152783Y-75911291D01*
X144152781Y-75911290D01*
X143937463Y-75853596D01*
X143937457Y-75853595D01*
X143937452Y-75853594D01*
X143716466Y-75824501D01*
X143716463Y-75824500D01*
X143716457Y-75824500D01*
X143493543Y-75824500D01*
X143493537Y-75824500D01*
X143493533Y-75824501D01*
X143272547Y-75853594D01*
X143272540Y-75853595D01*
X143272537Y-75853596D01*
X143057219Y-75911290D01*
X143057209Y-75911293D01*
X142851277Y-75996593D01*
X142851273Y-75996595D01*
X142658226Y-76108052D01*
X142658217Y-76108058D01*
X142481377Y-76243751D01*
X142481370Y-76243757D01*
X142323757Y-76401370D01*
X142323751Y-76401377D01*
X142188058Y-76578217D01*
X142188052Y-76578226D01*
X142076595Y-76771273D01*
X142076593Y-76771277D01*
X141991293Y-76977209D01*
X141991290Y-76977219D01*
X141933597Y-77192534D01*
X141933594Y-77192547D01*
X141904501Y-77413533D01*
X141904500Y-77413549D01*
X140225500Y-77413549D01*
X140225500Y-77413543D01*
X140196404Y-77192537D01*
X140138710Y-76977219D01*
X140053405Y-76771274D01*
X139941948Y-76578226D01*
X139806247Y-76401376D01*
X139806242Y-76401370D01*
X139648629Y-76243757D01*
X139648622Y-76243751D01*
X139471782Y-76108058D01*
X139471780Y-76108057D01*
X139471774Y-76108052D01*
X139278726Y-75996595D01*
X139278722Y-75996593D01*
X139072790Y-75911293D01*
X139072783Y-75911291D01*
X139072781Y-75911290D01*
X138857463Y-75853596D01*
X138857457Y-75853595D01*
X138857452Y-75853594D01*
X138636466Y-75824501D01*
X138636463Y-75824500D01*
X138636457Y-75824500D01*
X138413543Y-75824500D01*
X138413537Y-75824500D01*
X138413533Y-75824501D01*
X138192547Y-75853594D01*
X138192540Y-75853595D01*
X138192537Y-75853596D01*
X137977219Y-75911290D01*
X137977209Y-75911293D01*
X137771277Y-75996593D01*
X137771273Y-75996595D01*
X137578226Y-76108052D01*
X137578217Y-76108058D01*
X137401377Y-76243751D01*
X137401370Y-76243757D01*
X137243757Y-76401370D01*
X137243751Y-76401377D01*
X137108058Y-76578217D01*
X137108052Y-76578226D01*
X136996595Y-76771273D01*
X136996593Y-76771277D01*
X136911293Y-76977209D01*
X136911290Y-76977219D01*
X136853597Y-77192534D01*
X136853594Y-77192547D01*
X136824501Y-77413533D01*
X136824500Y-77413549D01*
X129261788Y-77413549D01*
X129981304Y-72137100D01*
X130009865Y-72073339D01*
X130068367Y-72035138D01*
X130134240Y-72033560D01*
X173890853Y-82972713D01*
X173951117Y-83008070D01*
X173982699Y-83070394D01*
X173983426Y-83111278D01*
X167015518Y-129895806D01*
X166986173Y-129959214D01*
X166927205Y-129996691D01*
X166894668Y-130001526D01*
X98104721Y-130998482D01*
X98037403Y-130979771D01*
X97990888Y-130927636D01*
X97980987Y-130897013D01*
X93830194Y-108413549D01*
X113824500Y-108413549D01*
X113824500Y-108636450D01*
X113824501Y-108636466D01*
X113853594Y-108857452D01*
X113853595Y-108857457D01*
X113853596Y-108857463D01*
X113911290Y-109072780D01*
X113911293Y-109072790D01*
X113996593Y-109278722D01*
X113996595Y-109278726D01*
X114108052Y-109471774D01*
X114108057Y-109471780D01*
X114108058Y-109471782D01*
X114243751Y-109648622D01*
X114243757Y-109648629D01*
X114401370Y-109806242D01*
X114401376Y-109806247D01*
X114578226Y-109941948D01*
X114771274Y-110053405D01*
X114901140Y-110107197D01*
X114976074Y-110138236D01*
X114977219Y-110138710D01*
X115192537Y-110196404D01*
X115413543Y-110225500D01*
X115413550Y-110225500D01*
X115636450Y-110225500D01*
X115636457Y-110225500D01*
X115857463Y-110196404D01*
X116072781Y-110138710D01*
X116278726Y-110053405D01*
X116471774Y-109941948D01*
X116648624Y-109806247D01*
X116648629Y-109806242D01*
X116699550Y-109755322D01*
X116806242Y-109648629D01*
X116806247Y-109648624D01*
X116941948Y-109471774D01*
X117053405Y-109278726D01*
X117138710Y-109072781D01*
X117196404Y-108857463D01*
X117225500Y-108636457D01*
X117225500Y-108413575D01*
X118905000Y-108413575D01*
X118905000Y-108636424D01*
X118934085Y-108857354D01*
X118934088Y-108857367D01*
X118991763Y-109072618D01*
X119077045Y-109278502D01*
X119077054Y-109278520D01*
X119188464Y-109471491D01*
X119188473Y-109471504D01*
X119239040Y-109537403D01*
X119239043Y-109537403D01*
X120040387Y-108736059D01*
X120045889Y-108756591D01*
X120124881Y-108893408D01*
X120236592Y-109005119D01*
X120373409Y-109084111D01*
X120393940Y-109089612D01*
X119592595Y-109890955D01*
X119592595Y-109890956D01*
X119658507Y-109941533D01*
X119851485Y-110052949D01*
X119851497Y-110052954D01*
X120057381Y-110138236D01*
X120272632Y-110195911D01*
X120272645Y-110195914D01*
X120493575Y-110225000D01*
X120716425Y-110225000D01*
X120937354Y-110195914D01*
X120937367Y-110195911D01*
X121152618Y-110138236D01*
X121358502Y-110052954D01*
X121358514Y-110052949D01*
X121551498Y-109941530D01*
X121617403Y-109890957D01*
X121617404Y-109890956D01*
X120816059Y-109089612D01*
X120836591Y-109084111D01*
X120973408Y-109005119D01*
X121085119Y-108893408D01*
X121164111Y-108756591D01*
X121169612Y-108736059D01*
X121970956Y-109537404D01*
X121970957Y-109537403D01*
X122021530Y-109471498D01*
X122132949Y-109278514D01*
X122132954Y-109278502D01*
X122218236Y-109072618D01*
X122275911Y-108857367D01*
X122275914Y-108857354D01*
X122305000Y-108636424D01*
X122305000Y-108413575D01*
X122275914Y-108192645D01*
X122275911Y-108192632D01*
X122218236Y-107977381D01*
X122132954Y-107771497D01*
X122132949Y-107771485D01*
X122021533Y-107578507D01*
X121970956Y-107512595D01*
X121970955Y-107512595D01*
X121169612Y-108313939D01*
X121164111Y-108293409D01*
X121085119Y-108156592D01*
X120973408Y-108044881D01*
X120836591Y-107965889D01*
X120816058Y-107960387D01*
X121617403Y-107159043D01*
X121617403Y-107159040D01*
X121551504Y-107108473D01*
X121551491Y-107108464D01*
X121358520Y-106997054D01*
X121358502Y-106997045D01*
X121152618Y-106911763D01*
X120937367Y-106854088D01*
X120937354Y-106854085D01*
X120716425Y-106825000D01*
X120493575Y-106825000D01*
X120272645Y-106854085D01*
X120272632Y-106854088D01*
X120057381Y-106911763D01*
X119851497Y-106997045D01*
X119851479Y-106997054D01*
X119658511Y-107108462D01*
X119592595Y-107159042D01*
X120393941Y-107960387D01*
X120373409Y-107965889D01*
X120236592Y-108044881D01*
X120124881Y-108156592D01*
X120045889Y-108293409D01*
X120040387Y-108313940D01*
X119239042Y-107512595D01*
X119188462Y-107578511D01*
X119077054Y-107771479D01*
X119077045Y-107771497D01*
X118991763Y-107977381D01*
X118934088Y-108192632D01*
X118934085Y-108192645D01*
X118905000Y-108413575D01*
X117225500Y-108413575D01*
X117225500Y-108413543D01*
X117196404Y-108192537D01*
X117138710Y-107977219D01*
X117053405Y-107771274D01*
X116941948Y-107578226D01*
X116806247Y-107401376D01*
X116806242Y-107401370D01*
X116648629Y-107243757D01*
X116648622Y-107243751D01*
X116471782Y-107108058D01*
X116471780Y-107108057D01*
X116471774Y-107108052D01*
X116278726Y-106996595D01*
X116278722Y-106996593D01*
X116072790Y-106911293D01*
X116072783Y-106911291D01*
X116072781Y-106911290D01*
X115857463Y-106853596D01*
X115857457Y-106853595D01*
X115857452Y-106853594D01*
X115636466Y-106824501D01*
X115636463Y-106824500D01*
X115636457Y-106824500D01*
X115413543Y-106824500D01*
X115413537Y-106824500D01*
X115413533Y-106824501D01*
X115192547Y-106853594D01*
X115192540Y-106853595D01*
X115192537Y-106853596D01*
X114977219Y-106911290D01*
X114977209Y-106911293D01*
X114771277Y-106996593D01*
X114771273Y-106996595D01*
X114578226Y-107108052D01*
X114578217Y-107108058D01*
X114401377Y-107243751D01*
X114401370Y-107243757D01*
X114243757Y-107401370D01*
X114243751Y-107401377D01*
X114108058Y-107578217D01*
X114108052Y-107578226D01*
X113996595Y-107771273D01*
X113996593Y-107771277D01*
X113911293Y-107977209D01*
X113911290Y-107977219D01*
X113863228Y-108156592D01*
X113853597Y-108192534D01*
X113853594Y-108192547D01*
X113824501Y-108413533D01*
X113824500Y-108413549D01*
X93830194Y-108413549D01*
X86010502Y-66056885D01*
X86017688Y-65987387D01*
X86036840Y-65955403D01*
X94732213Y-55429425D01*
X94790079Y-55390282D01*
X94859929Y-55388636D01*
X94915487Y-55420722D01*
G37*
%TD.AperFunction*%
%TD*%
M02*
