%TF.GenerationSoftware,KiCad,Pcbnew,10.0.5-unknown-202607221313~667fa36054~ubuntu25.10.1*%
%TF.CreationDate,2026-10-02T22:27:29+00:00*%
%TF.ProjectId,ktest,6b746573-742e-46b6-9963-61645f706362,0.0.2*%
%TF.SameCoordinates,Original*%
%TF.FileFunction,Legend,Top*%
%TF.FilePolarity,Positive*%
%FSLAX46Y46*%
G04 Gerber Fmt 4.6, Leading zero omitted, Abs format (unit mm)*
G04 Created by KiCad (PCBNEW 10.0.5-unknown-202607221313~667fa36054~ubuntu25.10.1) date 2026-10-02 22:27:29*
%MOMM*%
%LPD*%
G01*
G04 APERTURE LIST*
%ADD10C,0.200000*%
%ADD11C,0.150000*%
%ADD12C,0.120000*%
G04 APERTURE END LIST*
D10*
X119417292Y-119411504D02*
X119893482Y-120744838D01*
X120369673Y-119411504D02*
X119893482Y-120744838D01*
X119893482Y-120744838D02*
X119703006Y-121221028D01*
X119703006Y-121221028D02*
X119607768Y-121316266D01*
X119607768Y-121316266D02*
X119417292Y-121411504D01*
X121131578Y-120744838D02*
X121131578Y-119411504D01*
X121131578Y-119792457D02*
X121226816Y-119601980D01*
X121226816Y-119601980D02*
X121322054Y-119506742D01*
X121322054Y-119506742D02*
X121512530Y-119411504D01*
X121512530Y-119411504D02*
X121703007Y-119411504D01*
X124750626Y-119411504D02*
X124750626Y-120744838D01*
X123893483Y-119411504D02*
X123893483Y-120459123D01*
X123893483Y-120459123D02*
X123988721Y-120649600D01*
X123988721Y-120649600D02*
X124179197Y-120744838D01*
X124179197Y-120744838D02*
X124464912Y-120744838D01*
X124464912Y-120744838D02*
X124655388Y-120649600D01*
X124655388Y-120649600D02*
X124750626Y-120554361D01*
X125512531Y-119411504D02*
X125988721Y-120744838D01*
X126464912Y-119411504D02*
X125988721Y-120744838D01*
X125988721Y-120744838D02*
X125798245Y-121221028D01*
X125798245Y-121221028D02*
X125703007Y-121316266D01*
X125703007Y-121316266D02*
X125512531Y-121411504D01*
X127226817Y-120744838D02*
X127226817Y-119411504D01*
X127226817Y-119792457D02*
X127322055Y-119601980D01*
X127322055Y-119601980D02*
X127417293Y-119506742D01*
X127417293Y-119506742D02*
X127607769Y-119411504D01*
X127607769Y-119411504D02*
X127798246Y-119411504D01*
X128179198Y-119411504D02*
X128941102Y-119411504D01*
X128464912Y-118744838D02*
X128464912Y-120459123D01*
X128464912Y-120459123D02*
X128560150Y-120649600D01*
X128560150Y-120649600D02*
X128750626Y-120744838D01*
X128750626Y-120744838D02*
X128941102Y-120744838D01*
X129322055Y-119411504D02*
X130083959Y-119411504D01*
X129607769Y-120744838D02*
X129607769Y-119030552D01*
X129607769Y-119030552D02*
X129703007Y-118840076D01*
X129703007Y-118840076D02*
X129893483Y-118744838D01*
X129893483Y-118744838D02*
X130083959Y-118744838D01*
X132274436Y-120744838D02*
X132274436Y-119411504D01*
X132274436Y-118744838D02*
X132179198Y-118840076D01*
X132179198Y-118840076D02*
X132274436Y-118935314D01*
X132274436Y-118935314D02*
X132369674Y-118840076D01*
X132369674Y-118840076D02*
X132274436Y-118744838D01*
X132274436Y-118744838D02*
X132274436Y-118935314D01*
X133226817Y-120744838D02*
X133226817Y-118744838D01*
X133226817Y-119506742D02*
X133417293Y-119411504D01*
X133417293Y-119411504D02*
X133798246Y-119411504D01*
X133798246Y-119411504D02*
X133988722Y-119506742D01*
X133988722Y-119506742D02*
X134083960Y-119601980D01*
X134083960Y-119601980D02*
X134179198Y-119792457D01*
X134179198Y-119792457D02*
X134179198Y-120363885D01*
X134179198Y-120363885D02*
X134083960Y-120554361D01*
X134083960Y-120554361D02*
X133988722Y-120649600D01*
X133988722Y-120649600D02*
X133798246Y-120744838D01*
X133798246Y-120744838D02*
X133417293Y-120744838D01*
X133417293Y-120744838D02*
X133226817Y-120649600D01*
X135036341Y-120744838D02*
X135036341Y-118744838D01*
X135893484Y-120744838D02*
X135893484Y-119697219D01*
X135893484Y-119697219D02*
X135798246Y-119506742D01*
X135798246Y-119506742D02*
X135607770Y-119411504D01*
X135607770Y-119411504D02*
X135322055Y-119411504D01*
X135322055Y-119411504D02*
X135131579Y-119506742D01*
X135131579Y-119506742D02*
X135036341Y-119601980D01*
X138655389Y-120744838D02*
X138464913Y-120649600D01*
X138464913Y-120649600D02*
X138369675Y-120554361D01*
X138369675Y-120554361D02*
X138274437Y-120363885D01*
X138274437Y-120363885D02*
X138274437Y-119792457D01*
X138274437Y-119792457D02*
X138369675Y-119601980D01*
X138369675Y-119601980D02*
X138464913Y-119506742D01*
X138464913Y-119506742D02*
X138655389Y-119411504D01*
X138655389Y-119411504D02*
X138941104Y-119411504D01*
X138941104Y-119411504D02*
X139131580Y-119506742D01*
X139131580Y-119506742D02*
X139226818Y-119601980D01*
X139226818Y-119601980D02*
X139322056Y-119792457D01*
X139322056Y-119792457D02*
X139322056Y-120363885D01*
X139322056Y-120363885D02*
X139226818Y-120554361D01*
X139226818Y-120554361D02*
X139131580Y-120649600D01*
X139131580Y-120649600D02*
X138941104Y-120744838D01*
X138941104Y-120744838D02*
X138655389Y-120744838D01*
X140179199Y-120744838D02*
X140179199Y-119411504D01*
X140179199Y-118744838D02*
X140083961Y-118840076D01*
X140083961Y-118840076D02*
X140179199Y-118935314D01*
X140179199Y-118935314D02*
X140274437Y-118840076D01*
X140274437Y-118840076D02*
X140179199Y-118744838D01*
X140179199Y-118744838D02*
X140179199Y-118935314D01*
X141131580Y-120744838D02*
X141131580Y-118744838D01*
X141988723Y-120744838D02*
X141988723Y-119697219D01*
X141988723Y-119697219D02*
X141893485Y-119506742D01*
X141893485Y-119506742D02*
X141703009Y-119411504D01*
X141703009Y-119411504D02*
X141417294Y-119411504D01*
X141417294Y-119411504D02*
X141226818Y-119506742D01*
X141226818Y-119506742D02*
X141131580Y-119601980D01*
X142941104Y-120744838D02*
X142941104Y-118744838D01*
X142941104Y-119506742D02*
X143131580Y-119411504D01*
X143131580Y-119411504D02*
X143512533Y-119411504D01*
X143512533Y-119411504D02*
X143703009Y-119506742D01*
X143703009Y-119506742D02*
X143798247Y-119601980D01*
X143798247Y-119601980D02*
X143893485Y-119792457D01*
X143893485Y-119792457D02*
X143893485Y-120363885D01*
X143893485Y-120363885D02*
X143798247Y-120554361D01*
X143798247Y-120554361D02*
X143703009Y-120649600D01*
X143703009Y-120649600D02*
X143512533Y-120744838D01*
X143512533Y-120744838D02*
X143131580Y-120744838D01*
X143131580Y-120744838D02*
X142941104Y-120649600D01*
X144750628Y-119411504D02*
X144750628Y-120744838D01*
X144750628Y-119601980D02*
X144845866Y-119506742D01*
X144845866Y-119506742D02*
X145036342Y-119411504D01*
X145036342Y-119411504D02*
X145322057Y-119411504D01*
X145322057Y-119411504D02*
X145512533Y-119506742D01*
X145512533Y-119506742D02*
X145607771Y-119697219D01*
X145607771Y-119697219D02*
X145607771Y-120744838D01*
X148083962Y-119411504D02*
X148083962Y-121411504D01*
X148083962Y-119506742D02*
X148274438Y-119411504D01*
X148274438Y-119411504D02*
X148655391Y-119411504D01*
X148655391Y-119411504D02*
X148845867Y-119506742D01*
X148845867Y-119506742D02*
X148941105Y-119601980D01*
X148941105Y-119601980D02*
X149036343Y-119792457D01*
X149036343Y-119792457D02*
X149036343Y-120363885D01*
X149036343Y-120363885D02*
X148941105Y-120554361D01*
X148941105Y-120554361D02*
X148845867Y-120649600D01*
X148845867Y-120649600D02*
X148655391Y-120744838D01*
X148655391Y-120744838D02*
X148274438Y-120744838D01*
X148274438Y-120744838D02*
X148083962Y-120649600D01*
X150179200Y-120744838D02*
X149988724Y-120649600D01*
X149988724Y-120649600D02*
X149893486Y-120554361D01*
X149893486Y-120554361D02*
X149798248Y-120363885D01*
X149798248Y-120363885D02*
X149798248Y-119792457D01*
X149798248Y-119792457D02*
X149893486Y-119601980D01*
X149893486Y-119601980D02*
X149988724Y-119506742D01*
X149988724Y-119506742D02*
X150179200Y-119411504D01*
X150179200Y-119411504D02*
X150464915Y-119411504D01*
X150464915Y-119411504D02*
X150655391Y-119506742D01*
X150655391Y-119506742D02*
X150750629Y-119601980D01*
X150750629Y-119601980D02*
X150845867Y-119792457D01*
X150845867Y-119792457D02*
X150845867Y-120363885D01*
X150845867Y-120363885D02*
X150750629Y-120554361D01*
X150750629Y-120554361D02*
X150655391Y-120649600D01*
X150655391Y-120649600D02*
X150464915Y-120744838D01*
X150464915Y-120744838D02*
X150179200Y-120744838D01*
X151703010Y-120744838D02*
X151703010Y-119411504D01*
X151703010Y-118744838D02*
X151607772Y-118840076D01*
X151607772Y-118840076D02*
X151703010Y-118935314D01*
X151703010Y-118935314D02*
X151798248Y-118840076D01*
X151798248Y-118840076D02*
X151703010Y-118744838D01*
X151703010Y-118744838D02*
X151703010Y-118935314D01*
X153512534Y-119411504D02*
X153512534Y-120744838D01*
X152655391Y-119411504D02*
X152655391Y-120459123D01*
X152655391Y-120459123D02*
X152750629Y-120649600D01*
X152750629Y-120649600D02*
X152941105Y-120744838D01*
X152941105Y-120744838D02*
X153226820Y-120744838D01*
X153226820Y-120744838D02*
X153417296Y-120649600D01*
X153417296Y-120649600D02*
X153512534Y-120554361D01*
X154464915Y-120744838D02*
X154464915Y-118744838D01*
X155322058Y-120744838D02*
X155322058Y-119697219D01*
X155322058Y-119697219D02*
X155226820Y-119506742D01*
X155226820Y-119506742D02*
X155036344Y-119411504D01*
X155036344Y-119411504D02*
X154750629Y-119411504D01*
X154750629Y-119411504D02*
X154560153Y-119506742D01*
X154560153Y-119506742D02*
X154464915Y-119601980D01*
D11*
X97327333Y-47459580D02*
X97279714Y-47507200D01*
X97279714Y-47507200D02*
X97136857Y-47554819D01*
X97136857Y-47554819D02*
X97041619Y-47554819D01*
X97041619Y-47554819D02*
X96898762Y-47507200D01*
X96898762Y-47507200D02*
X96803524Y-47411961D01*
X96803524Y-47411961D02*
X96755905Y-47316723D01*
X96755905Y-47316723D02*
X96708286Y-47126247D01*
X96708286Y-47126247D02*
X96708286Y-46983390D01*
X96708286Y-46983390D02*
X96755905Y-46792914D01*
X96755905Y-46792914D02*
X96803524Y-46697676D01*
X96803524Y-46697676D02*
X96898762Y-46602438D01*
X96898762Y-46602438D02*
X97041619Y-46554819D01*
X97041619Y-46554819D02*
X97136857Y-46554819D01*
X97136857Y-46554819D02*
X97279714Y-46602438D01*
X97279714Y-46602438D02*
X97327333Y-46650057D01*
X97708286Y-46650057D02*
X97755905Y-46602438D01*
X97755905Y-46602438D02*
X97851143Y-46554819D01*
X97851143Y-46554819D02*
X98089238Y-46554819D01*
X98089238Y-46554819D02*
X98184476Y-46602438D01*
X98184476Y-46602438D02*
X98232095Y-46650057D01*
X98232095Y-46650057D02*
X98279714Y-46745295D01*
X98279714Y-46745295D02*
X98279714Y-46840533D01*
X98279714Y-46840533D02*
X98232095Y-46983390D01*
X98232095Y-46983390D02*
X97660667Y-47554819D01*
X97660667Y-47554819D02*
X98279714Y-47554819D01*
X97327333Y-56857580D02*
X97279714Y-56905200D01*
X97279714Y-56905200D02*
X97136857Y-56952819D01*
X97136857Y-56952819D02*
X97041619Y-56952819D01*
X97041619Y-56952819D02*
X96898762Y-56905200D01*
X96898762Y-56905200D02*
X96803524Y-56809961D01*
X96803524Y-56809961D02*
X96755905Y-56714723D01*
X96755905Y-56714723D02*
X96708286Y-56524247D01*
X96708286Y-56524247D02*
X96708286Y-56381390D01*
X96708286Y-56381390D02*
X96755905Y-56190914D01*
X96755905Y-56190914D02*
X96803524Y-56095676D01*
X96803524Y-56095676D02*
X96898762Y-56000438D01*
X96898762Y-56000438D02*
X97041619Y-55952819D01*
X97041619Y-55952819D02*
X97136857Y-55952819D01*
X97136857Y-55952819D02*
X97279714Y-56000438D01*
X97279714Y-56000438D02*
X97327333Y-56048057D01*
X97660667Y-55952819D02*
X98279714Y-55952819D01*
X98279714Y-55952819D02*
X97946381Y-56333771D01*
X97946381Y-56333771D02*
X98089238Y-56333771D01*
X98089238Y-56333771D02*
X98184476Y-56381390D01*
X98184476Y-56381390D02*
X98232095Y-56429009D01*
X98232095Y-56429009D02*
X98279714Y-56524247D01*
X98279714Y-56524247D02*
X98279714Y-56762342D01*
X98279714Y-56762342D02*
X98232095Y-56857580D01*
X98232095Y-56857580D02*
X98184476Y-56905200D01*
X98184476Y-56905200D02*
X98089238Y-56952819D01*
X98089238Y-56952819D02*
X97803524Y-56952819D01*
X97803524Y-56952819D02*
X97708286Y-56905200D01*
X97708286Y-56905200D02*
X97660667Y-56857580D01*
X117898333Y-105609819D02*
X117565000Y-105133628D01*
X117326905Y-105609819D02*
X117326905Y-104609819D01*
X117326905Y-104609819D02*
X117707857Y-104609819D01*
X117707857Y-104609819D02*
X117803095Y-104657438D01*
X117803095Y-104657438D02*
X117850714Y-104705057D01*
X117850714Y-104705057D02*
X117898333Y-104800295D01*
X117898333Y-104800295D02*
X117898333Y-104943152D01*
X117898333Y-104943152D02*
X117850714Y-105038390D01*
X117850714Y-105038390D02*
X117803095Y-105086009D01*
X117803095Y-105086009D02*
X117707857Y-105133628D01*
X117707857Y-105133628D02*
X117326905Y-105133628D01*
X118755476Y-104943152D02*
X118755476Y-105609819D01*
X118517381Y-104562200D02*
X118279286Y-105276485D01*
X118279286Y-105276485D02*
X118898333Y-105276485D01*
X107212333Y-63454819D02*
X106879000Y-62978628D01*
X106640905Y-63454819D02*
X106640905Y-62454819D01*
X106640905Y-62454819D02*
X107021857Y-62454819D01*
X107021857Y-62454819D02*
X107117095Y-62502438D01*
X107117095Y-62502438D02*
X107164714Y-62550057D01*
X107164714Y-62550057D02*
X107212333Y-62645295D01*
X107212333Y-62645295D02*
X107212333Y-62788152D01*
X107212333Y-62788152D02*
X107164714Y-62883390D01*
X107164714Y-62883390D02*
X107117095Y-62931009D01*
X107117095Y-62931009D02*
X107021857Y-62978628D01*
X107021857Y-62978628D02*
X106640905Y-62978628D01*
X107545667Y-62454819D02*
X108164714Y-62454819D01*
X108164714Y-62454819D02*
X107831381Y-62835771D01*
X107831381Y-62835771D02*
X107974238Y-62835771D01*
X107974238Y-62835771D02*
X108069476Y-62883390D01*
X108069476Y-62883390D02*
X108117095Y-62931009D01*
X108117095Y-62931009D02*
X108164714Y-63026247D01*
X108164714Y-63026247D02*
X108164714Y-63264342D01*
X108164714Y-63264342D02*
X108117095Y-63359580D01*
X108117095Y-63359580D02*
X108069476Y-63407200D01*
X108069476Y-63407200D02*
X107974238Y-63454819D01*
X107974238Y-63454819D02*
X107688524Y-63454819D01*
X107688524Y-63454819D02*
X107593286Y-63407200D01*
X107593286Y-63407200D02*
X107545667Y-63359580D01*
X78238095Y-41304819D02*
X78238095Y-40304819D01*
X78238095Y-40781009D02*
X78809523Y-40781009D01*
X78809523Y-41304819D02*
X78809523Y-40304819D01*
X79809523Y-41304819D02*
X79238095Y-41304819D01*
X79523809Y-41304819D02*
X79523809Y-40304819D01*
X79523809Y-40304819D02*
X79428571Y-40447676D01*
X79428571Y-40447676D02*
X79333333Y-40542914D01*
X79333333Y-40542914D02*
X79238095Y-40590533D01*
X167238095Y-130304819D02*
X167238095Y-129304819D01*
X167238095Y-129781009D02*
X167809523Y-129781009D01*
X167809523Y-130304819D02*
X167809523Y-129304819D01*
X168238095Y-129400057D02*
X168285714Y-129352438D01*
X168285714Y-129352438D02*
X168380952Y-129304819D01*
X168380952Y-129304819D02*
X168619047Y-129304819D01*
X168619047Y-129304819D02*
X168714285Y-129352438D01*
X168714285Y-129352438D02*
X168761904Y-129400057D01*
X168761904Y-129400057D02*
X168809523Y-129495295D01*
X168809523Y-129495295D02*
X168809523Y-129590533D01*
X168809523Y-129590533D02*
X168761904Y-129733390D01*
X168761904Y-129733390D02*
X168190476Y-130304819D01*
X168190476Y-130304819D02*
X168809523Y-130304819D01*
X112925666Y-51565819D02*
X112925666Y-52280104D01*
X112925666Y-52280104D02*
X112878047Y-52422961D01*
X112878047Y-52422961D02*
X112782809Y-52518200D01*
X112782809Y-52518200D02*
X112639952Y-52565819D01*
X112639952Y-52565819D02*
X112544714Y-52565819D01*
X113925666Y-52565819D02*
X113354238Y-52565819D01*
X113639952Y-52565819D02*
X113639952Y-51565819D01*
X113639952Y-51565819D02*
X113544714Y-51708676D01*
X113544714Y-51708676D02*
X113449476Y-51803914D01*
X113449476Y-51803914D02*
X113354238Y-51851533D01*
X113706905Y-78729819D02*
X113706905Y-77729819D01*
X113706905Y-77729819D02*
X113945000Y-77729819D01*
X113945000Y-77729819D02*
X114087857Y-77777438D01*
X114087857Y-77777438D02*
X114183095Y-77872676D01*
X114183095Y-77872676D02*
X114230714Y-77967914D01*
X114230714Y-77967914D02*
X114278333Y-78158390D01*
X114278333Y-78158390D02*
X114278333Y-78301247D01*
X114278333Y-78301247D02*
X114230714Y-78491723D01*
X114230714Y-78491723D02*
X114183095Y-78586961D01*
X114183095Y-78586961D02*
X114087857Y-78682200D01*
X114087857Y-78682200D02*
X113945000Y-78729819D01*
X113945000Y-78729819D02*
X113706905Y-78729819D01*
X115230714Y-78729819D02*
X114659286Y-78729819D01*
X114945000Y-78729819D02*
X114945000Y-77729819D01*
X114945000Y-77729819D02*
X114849762Y-77872676D01*
X114849762Y-77872676D02*
X114754524Y-77967914D01*
X114754524Y-77967914D02*
X114659286Y-78015533D01*
X105888333Y-47366580D02*
X105840714Y-47414200D01*
X105840714Y-47414200D02*
X105697857Y-47461819D01*
X105697857Y-47461819D02*
X105602619Y-47461819D01*
X105602619Y-47461819D02*
X105459762Y-47414200D01*
X105459762Y-47414200D02*
X105364524Y-47318961D01*
X105364524Y-47318961D02*
X105316905Y-47223723D01*
X105316905Y-47223723D02*
X105269286Y-47033247D01*
X105269286Y-47033247D02*
X105269286Y-46890390D01*
X105269286Y-46890390D02*
X105316905Y-46699914D01*
X105316905Y-46699914D02*
X105364524Y-46604676D01*
X105364524Y-46604676D02*
X105459762Y-46509438D01*
X105459762Y-46509438D02*
X105602619Y-46461819D01*
X105602619Y-46461819D02*
X105697857Y-46461819D01*
X105697857Y-46461819D02*
X105840714Y-46509438D01*
X105840714Y-46509438D02*
X105888333Y-46557057D01*
X106840714Y-47461819D02*
X106269286Y-47461819D01*
X106555000Y-47461819D02*
X106555000Y-46461819D01*
X106555000Y-46461819D02*
X106459762Y-46604676D01*
X106459762Y-46604676D02*
X106364524Y-46699914D01*
X106364524Y-46699914D02*
X106269286Y-46747533D01*
X107212333Y-57454819D02*
X106879000Y-56978628D01*
X106640905Y-57454819D02*
X106640905Y-56454819D01*
X106640905Y-56454819D02*
X107021857Y-56454819D01*
X107021857Y-56454819D02*
X107117095Y-56502438D01*
X107117095Y-56502438D02*
X107164714Y-56550057D01*
X107164714Y-56550057D02*
X107212333Y-56645295D01*
X107212333Y-56645295D02*
X107212333Y-56788152D01*
X107212333Y-56788152D02*
X107164714Y-56883390D01*
X107164714Y-56883390D02*
X107117095Y-56931009D01*
X107117095Y-56931009D02*
X107021857Y-56978628D01*
X107021857Y-56978628D02*
X106640905Y-56978628D01*
X107593286Y-56550057D02*
X107640905Y-56502438D01*
X107640905Y-56502438D02*
X107736143Y-56454819D01*
X107736143Y-56454819D02*
X107974238Y-56454819D01*
X107974238Y-56454819D02*
X108069476Y-56502438D01*
X108069476Y-56502438D02*
X108117095Y-56550057D01*
X108117095Y-56550057D02*
X108164714Y-56645295D01*
X108164714Y-56645295D02*
X108164714Y-56740533D01*
X108164714Y-56740533D02*
X108117095Y-56883390D01*
X108117095Y-56883390D02*
X107545667Y-57454819D01*
X107545667Y-57454819D02*
X108164714Y-57454819D01*
X161238095Y-59804819D02*
X161238095Y-58804819D01*
X161238095Y-59281009D02*
X161809523Y-59281009D01*
X161809523Y-59804819D02*
X161809523Y-58804819D01*
X162190476Y-58804819D02*
X162809523Y-58804819D01*
X162809523Y-58804819D02*
X162476190Y-59185771D01*
X162476190Y-59185771D02*
X162619047Y-59185771D01*
X162619047Y-59185771D02*
X162714285Y-59233390D01*
X162714285Y-59233390D02*
X162761904Y-59281009D01*
X162761904Y-59281009D02*
X162809523Y-59376247D01*
X162809523Y-59376247D02*
X162809523Y-59614342D01*
X162809523Y-59614342D02*
X162761904Y-59709580D01*
X162761904Y-59709580D02*
X162714285Y-59757200D01*
X162714285Y-59757200D02*
X162619047Y-59804819D01*
X162619047Y-59804819D02*
X162333333Y-59804819D01*
X162333333Y-59804819D02*
X162238095Y-59757200D01*
X162238095Y-59757200D02*
X162190476Y-59709580D01*
%TO.C,C2*%
D12*
X93869000Y-49115000D02*
X94494000Y-49115000D01*
X94181500Y-48802500D02*
X94181500Y-49427500D01*
X94734000Y-49104437D02*
X94734000Y-49740000D01*
X94734000Y-49104437D02*
X95798437Y-48040000D01*
X94734000Y-52495563D02*
X94734000Y-51860000D01*
X94734000Y-52495563D02*
X95798437Y-53560000D01*
X95798437Y-48040000D02*
X100254000Y-48040000D01*
X95798437Y-53560000D02*
X100254000Y-53560000D01*
X100254000Y-48040000D02*
X100254000Y-49740000D01*
X100254000Y-53560000D02*
X100254000Y-51860000D01*
%TO.C,C3*%
X93869000Y-58513000D02*
X94494000Y-58513000D01*
X94181500Y-58200500D02*
X94181500Y-58825500D01*
X94734000Y-58502437D02*
X94734000Y-59138000D01*
X94734000Y-58502437D02*
X95798437Y-57438000D01*
X94734000Y-61893563D02*
X94734000Y-61258000D01*
X94734000Y-61893563D02*
X95798437Y-62958000D01*
X95798437Y-57438000D02*
X100254000Y-57438000D01*
X95798437Y-62958000D02*
X100254000Y-62958000D01*
X100254000Y-57438000D02*
X100254000Y-59138000D01*
X100254000Y-62958000D02*
X100254000Y-61258000D01*
%TO.C,R4*%
X117895000Y-108525000D02*
X119105000Y-108525000D01*
X117895000Y-108525000D02*
G75*
G02*
X113155000Y-108525000I-2370000J0D01*
G01*
X113155000Y-108525000D02*
G75*
G02*
X117895000Y-108525000I2370000J0D01*
G01*
%TO.C,J1*%
X111929000Y-56151000D02*
X111929000Y-61291000D01*
X111929000Y-56151000D02*
X114589000Y-56151000D01*
X111929000Y-61291000D02*
X114589000Y-61291000D01*
X113259000Y-53551000D02*
X114589000Y-53551000D01*
X114589000Y-53551000D02*
X114589000Y-54881000D01*
X114589000Y-56151000D02*
X114589000Y-61291000D01*
%TO.C,D1*%
X112735000Y-79275000D02*
X116155000Y-79275000D01*
X112735000Y-79455000D02*
X112735000Y-79275000D01*
X112735000Y-81795000D02*
X112735000Y-81615000D01*
X112855000Y-79275000D02*
X112855000Y-79455000D01*
X112855000Y-81615000D02*
X112855000Y-81795000D01*
X112975000Y-79275000D02*
X112975000Y-79455000D01*
X112975000Y-81615000D02*
X112975000Y-81795000D01*
X116155000Y-79275000D02*
X116155000Y-79549000D01*
X116155000Y-81521000D02*
X116155000Y-81795000D01*
X116155000Y-81795000D02*
X112735000Y-81795000D01*
%TO.C,C1*%
X102430000Y-49022000D02*
X103055000Y-49022000D01*
X102742500Y-48709500D02*
X102742500Y-49334500D01*
X103295000Y-49011437D02*
X103295000Y-49647000D01*
X103295000Y-49011437D02*
X104359437Y-47947000D01*
X103295000Y-52402563D02*
X103295000Y-51767000D01*
X103295000Y-52402563D02*
X104359437Y-53467000D01*
X104359437Y-47947000D02*
X108815000Y-47947000D01*
X104359437Y-53467000D02*
X108815000Y-53467000D01*
X108815000Y-47947000D02*
X108815000Y-49647000D01*
X108815000Y-53467000D02*
X108815000Y-51767000D01*
%TD*%
M02*
