%TF.GenerationSoftware,KiCad,Pcbnew,10.0.5-unknown-202607221313~667fa36054~ubuntu25.10.1*%
%TF.CreationDate,2026-10-02T18:49:13+00:00*%
%TF.ProjectId,ktest,6b746573-742e-46b6-9963-61645f706362,0.0.2*%
%TF.SameCoordinates,Original*%
%TF.FileFunction,Legend,Top*%
%TF.FilePolarity,Positive*%
%FSLAX46Y46*%
G04 Gerber Fmt 4.6, Leading zero omitted, Abs format (unit mm)*
G04 Created by KiCad (PCBNEW 10.0.5-unknown-202607221313~667fa36054~ubuntu25.10.1) date 2026-10-02 18:49:13*
%MOMM*%
%LPD*%
G01*
G04 APERTURE LIST*
%ADD10C,0.150000*%
%ADD11C,0.120000*%
G04 APERTURE END LIST*
D10*
X97327333Y-47459580D02*
X97279714Y-47507200D01*
X97279714Y-47507200D02*
X97136857Y-47554819D01*
X97136857Y-47554819D02*
X97041619Y-47554819D01*
X97041619Y-47554819D02*
X96898762Y-47507200D01*
X96898762Y-47507200D02*
X96803524Y-47411961D01*
X96803524Y-47411961D02*
X96755905Y-47316723D01*
X96755905Y-47316723D02*
X96708286Y-47126247D01*
X96708286Y-47126247D02*
X96708286Y-46983390D01*
X96708286Y-46983390D02*
X96755905Y-46792914D01*
X96755905Y-46792914D02*
X96803524Y-46697676D01*
X96803524Y-46697676D02*
X96898762Y-46602438D01*
X96898762Y-46602438D02*
X97041619Y-46554819D01*
X97041619Y-46554819D02*
X97136857Y-46554819D01*
X97136857Y-46554819D02*
X97279714Y-46602438D01*
X97279714Y-46602438D02*
X97327333Y-46650057D01*
X97708286Y-46650057D02*
X97755905Y-46602438D01*
X97755905Y-46602438D02*
X97851143Y-46554819D01*
X97851143Y-46554819D02*
X98089238Y-46554819D01*
X98089238Y-46554819D02*
X98184476Y-46602438D01*
X98184476Y-46602438D02*
X98232095Y-46650057D01*
X98232095Y-46650057D02*
X98279714Y-46745295D01*
X98279714Y-46745295D02*
X98279714Y-46840533D01*
X98279714Y-46840533D02*
X98232095Y-46983390D01*
X98232095Y-46983390D02*
X97660667Y-47554819D01*
X97660667Y-47554819D02*
X98279714Y-47554819D01*
X97327333Y-56857580D02*
X97279714Y-56905200D01*
X97279714Y-56905200D02*
X97136857Y-56952819D01*
X97136857Y-56952819D02*
X97041619Y-56952819D01*
X97041619Y-56952819D02*
X96898762Y-56905200D01*
X96898762Y-56905200D02*
X96803524Y-56809961D01*
X96803524Y-56809961D02*
X96755905Y-56714723D01*
X96755905Y-56714723D02*
X96708286Y-56524247D01*
X96708286Y-56524247D02*
X96708286Y-56381390D01*
X96708286Y-56381390D02*
X96755905Y-56190914D01*
X96755905Y-56190914D02*
X96803524Y-56095676D01*
X96803524Y-56095676D02*
X96898762Y-56000438D01*
X96898762Y-56000438D02*
X97041619Y-55952819D01*
X97041619Y-55952819D02*
X97136857Y-55952819D01*
X97136857Y-55952819D02*
X97279714Y-56000438D01*
X97279714Y-56000438D02*
X97327333Y-56048057D01*
X97660667Y-55952819D02*
X98279714Y-55952819D01*
X98279714Y-55952819D02*
X97946381Y-56333771D01*
X97946381Y-56333771D02*
X98089238Y-56333771D01*
X98089238Y-56333771D02*
X98184476Y-56381390D01*
X98184476Y-56381390D02*
X98232095Y-56429009D01*
X98232095Y-56429009D02*
X98279714Y-56524247D01*
X98279714Y-56524247D02*
X98279714Y-56762342D01*
X98279714Y-56762342D02*
X98232095Y-56857580D01*
X98232095Y-56857580D02*
X98184476Y-56905200D01*
X98184476Y-56905200D02*
X98089238Y-56952819D01*
X98089238Y-56952819D02*
X97803524Y-56952819D01*
X97803524Y-56952819D02*
X97708286Y-56905200D01*
X97708286Y-56905200D02*
X97660667Y-56857580D01*
X107212333Y-60160819D02*
X106879000Y-59684628D01*
X106640905Y-60160819D02*
X106640905Y-59160819D01*
X106640905Y-59160819D02*
X107021857Y-59160819D01*
X107021857Y-59160819D02*
X107117095Y-59208438D01*
X107117095Y-59208438D02*
X107164714Y-59256057D01*
X107164714Y-59256057D02*
X107212333Y-59351295D01*
X107212333Y-59351295D02*
X107212333Y-59494152D01*
X107212333Y-59494152D02*
X107164714Y-59589390D01*
X107164714Y-59589390D02*
X107117095Y-59637009D01*
X107117095Y-59637009D02*
X107021857Y-59684628D01*
X107021857Y-59684628D02*
X106640905Y-59684628D01*
X107545667Y-59160819D02*
X108164714Y-59160819D01*
X108164714Y-59160819D02*
X107831381Y-59541771D01*
X107831381Y-59541771D02*
X107974238Y-59541771D01*
X107974238Y-59541771D02*
X108069476Y-59589390D01*
X108069476Y-59589390D02*
X108117095Y-59637009D01*
X108117095Y-59637009D02*
X108164714Y-59732247D01*
X108164714Y-59732247D02*
X108164714Y-59970342D01*
X108164714Y-59970342D02*
X108117095Y-60065580D01*
X108117095Y-60065580D02*
X108069476Y-60113200D01*
X108069476Y-60113200D02*
X107974238Y-60160819D01*
X107974238Y-60160819D02*
X107688524Y-60160819D01*
X107688524Y-60160819D02*
X107593286Y-60113200D01*
X107593286Y-60113200D02*
X107545667Y-60065580D01*
X112925666Y-51565819D02*
X112925666Y-52280104D01*
X112925666Y-52280104D02*
X112878047Y-52422961D01*
X112878047Y-52422961D02*
X112782809Y-52518200D01*
X112782809Y-52518200D02*
X112639952Y-52565819D01*
X112639952Y-52565819D02*
X112544714Y-52565819D01*
X113925666Y-52565819D02*
X113354238Y-52565819D01*
X113639952Y-52565819D02*
X113639952Y-51565819D01*
X113639952Y-51565819D02*
X113544714Y-51708676D01*
X113544714Y-51708676D02*
X113449476Y-51803914D01*
X113449476Y-51803914D02*
X113354238Y-51851533D01*
X105888333Y-47366580D02*
X105840714Y-47414200D01*
X105840714Y-47414200D02*
X105697857Y-47461819D01*
X105697857Y-47461819D02*
X105602619Y-47461819D01*
X105602619Y-47461819D02*
X105459762Y-47414200D01*
X105459762Y-47414200D02*
X105364524Y-47318961D01*
X105364524Y-47318961D02*
X105316905Y-47223723D01*
X105316905Y-47223723D02*
X105269286Y-47033247D01*
X105269286Y-47033247D02*
X105269286Y-46890390D01*
X105269286Y-46890390D02*
X105316905Y-46699914D01*
X105316905Y-46699914D02*
X105364524Y-46604676D01*
X105364524Y-46604676D02*
X105459762Y-46509438D01*
X105459762Y-46509438D02*
X105602619Y-46461819D01*
X105602619Y-46461819D02*
X105697857Y-46461819D01*
X105697857Y-46461819D02*
X105840714Y-46509438D01*
X105840714Y-46509438D02*
X105888333Y-46557057D01*
X106840714Y-47461819D02*
X106269286Y-47461819D01*
X106555000Y-47461819D02*
X106555000Y-46461819D01*
X106555000Y-46461819D02*
X106459762Y-46604676D01*
X106459762Y-46604676D02*
X106364524Y-46699914D01*
X106364524Y-46699914D02*
X106269286Y-46747533D01*
X107212333Y-58510819D02*
X106879000Y-58034628D01*
X106640905Y-58510819D02*
X106640905Y-57510819D01*
X106640905Y-57510819D02*
X107021857Y-57510819D01*
X107021857Y-57510819D02*
X107117095Y-57558438D01*
X107117095Y-57558438D02*
X107164714Y-57606057D01*
X107164714Y-57606057D02*
X107212333Y-57701295D01*
X107212333Y-57701295D02*
X107212333Y-57844152D01*
X107212333Y-57844152D02*
X107164714Y-57939390D01*
X107164714Y-57939390D02*
X107117095Y-57987009D01*
X107117095Y-57987009D02*
X107021857Y-58034628D01*
X107021857Y-58034628D02*
X106640905Y-58034628D01*
X107593286Y-57606057D02*
X107640905Y-57558438D01*
X107640905Y-57558438D02*
X107736143Y-57510819D01*
X107736143Y-57510819D02*
X107974238Y-57510819D01*
X107974238Y-57510819D02*
X108069476Y-57558438D01*
X108069476Y-57558438D02*
X108117095Y-57606057D01*
X108117095Y-57606057D02*
X108164714Y-57701295D01*
X108164714Y-57701295D02*
X108164714Y-57796533D01*
X108164714Y-57796533D02*
X108117095Y-57939390D01*
X108117095Y-57939390D02*
X107545667Y-58510819D01*
X107545667Y-58510819D02*
X108164714Y-58510819D01*
%TO.C,C2*%
D11*
X93869000Y-49115000D02*
X94494000Y-49115000D01*
X94181500Y-48802500D02*
X94181500Y-49427500D01*
X94734000Y-49104437D02*
X94734000Y-49740000D01*
X94734000Y-49104437D02*
X95798437Y-48040000D01*
X94734000Y-52495563D02*
X94734000Y-51860000D01*
X94734000Y-52495563D02*
X95798437Y-53560000D01*
X95798437Y-48040000D02*
X100254000Y-48040000D01*
X95798437Y-53560000D02*
X100254000Y-53560000D01*
X100254000Y-48040000D02*
X100254000Y-49740000D01*
X100254000Y-53560000D02*
X100254000Y-51860000D01*
%TO.C,C3*%
X93869000Y-58513000D02*
X94494000Y-58513000D01*
X94181500Y-58200500D02*
X94181500Y-58825500D01*
X94734000Y-58502437D02*
X94734000Y-59138000D01*
X94734000Y-58502437D02*
X95798437Y-57438000D01*
X94734000Y-61893563D02*
X94734000Y-61258000D01*
X94734000Y-61893563D02*
X95798437Y-62958000D01*
X95798437Y-57438000D02*
X100254000Y-57438000D01*
X95798437Y-62958000D02*
X100254000Y-62958000D01*
X100254000Y-57438000D02*
X100254000Y-59138000D01*
X100254000Y-62958000D02*
X100254000Y-61258000D01*
%TO.C,J1*%
X111929000Y-56151000D02*
X111929000Y-61291000D01*
X111929000Y-56151000D02*
X114589000Y-56151000D01*
X111929000Y-61291000D02*
X114589000Y-61291000D01*
X113259000Y-53551000D02*
X114589000Y-53551000D01*
X114589000Y-53551000D02*
X114589000Y-54881000D01*
X114589000Y-56151000D02*
X114589000Y-61291000D01*
%TO.C,C1*%
X102430000Y-49022000D02*
X103055000Y-49022000D01*
X102742500Y-48709500D02*
X102742500Y-49334500D01*
X103295000Y-49011437D02*
X103295000Y-49647000D01*
X103295000Y-49011437D02*
X104359437Y-47947000D01*
X103295000Y-52402563D02*
X103295000Y-51767000D01*
X103295000Y-52402563D02*
X104359437Y-53467000D01*
X104359437Y-47947000D02*
X108815000Y-47947000D01*
X104359437Y-53467000D02*
X108815000Y-53467000D01*
X108815000Y-47947000D02*
X108815000Y-49647000D01*
X108815000Y-53467000D02*
X108815000Y-51767000D01*
%TD*%
M02*
