%TF.GenerationSoftware,KiCad,Pcbnew,10.0.5-unknown-202607221313~667fa36054~ubuntu25.10.1*%
%TF.CreationDate,2026-10-04T14:58:34+00:00*%
%TF.ProjectId,ktest,6b746573-742e-46b6-9963-61645f706362,0.0.2*%
%TF.SameCoordinates,Original*%
%TF.FileFunction,Copper,L1,Top*%
%TF.FilePolarity,Positive*%
%FSLAX46Y46*%
G04 Gerber Fmt 4.6, Leading zero omitted, Abs format (unit mm)*
G04 Created by KiCad (PCBNEW 10.0.5-unknown-202607221313~667fa36054~ubuntu25.10.1) date 2026-10-04 14:58:34*
%MOMM*%
%LPD*%
G01*
G04 APERTURE LIST*
G04 Aperture macros list*
%AMRoundRect*
0 Rectangle with rounded corners*
0 $1 Rounding radius*
0 $2 $3 $4 $5 $6 $7 $8 $9 X,Y pos of 4 corners*
0 Add a 4 corners polygon primitive as box body*
4,1,4,$2,$3,$4,$5,$6,$7,$8,$9,$2,$3,0*
0 Add four circle primitives for the rounded corners*
1,1,$1+$1,$2,$3*
1,1,$1+$1,$4,$5*
1,1,$1+$1,$6,$7*
1,1,$1+$1,$8,$9*
0 Add four rect primitives between the rounded corners*
20,1,$1+$1,$2,$3,$4,$5,0*
20,1,$1+$1,$4,$5,$6,$7,0*
20,1,$1+$1,$6,$7,$8,$9,0*
20,1,$1+$1,$8,$9,$2,$3,0*%
G04 Aperture macros list end*
%TA.AperFunction,SMDPad,CuDef*%
%ADD10RoundRect,0.250000X-0.350000X-0.450000X0.350000X-0.450000X0.350000X0.450000X-0.350000X0.450000X0*%
%TD*%
%TA.AperFunction,ComponentPad*%
%ADD11R,1.800000X1.800000*%
%TD*%
%TA.AperFunction,ComponentPad*%
%ADD12C,1.800000*%
%TD*%
%TA.AperFunction,SMDPad,CuDef*%
%ADD13RoundRect,0.237500X-0.300000X-0.237500X0.300000X-0.237500X0.300000X0.237500X-0.300000X0.237500X0*%
%TD*%
%TA.AperFunction,SMDPad,CuDef*%
%ADD14RoundRect,0.250000X-1.250000X-0.550000X1.250000X-0.550000X1.250000X0.550000X-1.250000X0.550000X0*%
%TD*%
%TA.AperFunction,SMDPad,CuDef*%
%ADD15RoundRect,0.237500X0.300000X0.237500X-0.300000X0.237500X-0.300000X-0.237500X0.300000X-0.237500X0*%
%TD*%
%TA.AperFunction,ComponentPad*%
%ADD16C,2.400000*%
%TD*%
%TA.AperFunction,SMDPad,CuDef*%
%ADD17RoundRect,0.075000X-0.125000X-0.075000X0.125000X-0.075000X0.125000X0.075000X-0.125000X0.075000X0*%
%TD*%
%TA.AperFunction,ComponentPad*%
%ADD18R,1.700000X1.700000*%
%TD*%
%TA.AperFunction,ComponentPad*%
%ADD19C,1.700000*%
%TD*%
%TA.AperFunction,BGAPad,CuDef*%
%ADD20C,0.250000*%
%TD*%
%TA.AperFunction,ViaPad*%
%ADD21C,0.600000*%
%TD*%
%TA.AperFunction,Conductor*%
%ADD22C,0.200000*%
%TD*%
G04 APERTURE END LIST*
D10*
%TO.P,R18,1*%
%TO.N,Net-(R15-Pad2)*%
X151125000Y-113675000D03*
%TO.P,R18,2*%
%TO.N,Net-(R17-Pad2)*%
X153125000Y-113675000D03*
%TD*%
D11*
%TO.P,D2,1,K_1*%
%TO.N,/child_1/a*%
X146125000Y-88635000D03*
D12*
%TO.P,D2,2,A_2*%
%TO.N,Net-(D2-A)*%
X148665000Y-88635000D03*
%TD*%
D10*
%TO.P,R16,1*%
%TO.N,Net-(R13-Pad2)*%
X145000000Y-116900000D03*
%TO.P,R16,2*%
%TO.N,Net-(R16-Pad2)*%
X147000000Y-116900000D03*
%TD*%
D13*
%TO.P,C7,1*%
%TO.N,Net-(C10-Pad2)*%
X85275000Y-94637500D03*
%TO.P,C7,2*%
%TO.N,Net-(C10-Pad1)*%
X87000000Y-94637500D03*
%TD*%
%TO.P,C5,1*%
%TO.N,Net-(C10-Pad2)*%
X85275000Y-86637500D03*
%TO.P,C5,2*%
%TO.N,Net-(C10-Pad1)*%
X87000000Y-86637500D03*
%TD*%
%TO.P,C8,1*%
%TO.N,Net-(C10-Pad2)*%
X85275000Y-98637500D03*
%TO.P,C8,2*%
%TO.N,Net-(C10-Pad1)*%
X87000000Y-98637500D03*
%TD*%
%TO.P,C18,1*%
%TO.N,Net-(C10-Pad1)*%
X91275000Y-98637500D03*
%TO.P,C18,2*%
%TO.N,Net-(C10-Pad2)*%
X93000000Y-98637500D03*
%TD*%
%TO.P,C14,1*%
%TO.N,Net-(C10-Pad2)*%
X85275000Y-114637500D03*
%TO.P,C14,2*%
%TO.N,Net-(C10-Pad1)*%
X87000000Y-114637500D03*
%TD*%
%TO.P,C12,1*%
%TO.N,Net-(C10-Pad1)*%
X91275000Y-90637500D03*
%TO.P,C12,2*%
%TO.N,Net-(C10-Pad2)*%
X93000000Y-90637500D03*
%TD*%
D14*
%TO.P,C2,1*%
%TO.N,Net-(J1-Pin_3)*%
X95294000Y-50800000D03*
%TO.P,C2,2*%
%TO.N,Net-(C1-Pad1)*%
X99694000Y-50800000D03*
%TD*%
D10*
%TO.P,R12,1*%
%TO.N,/child_1/a*%
X136500000Y-113450000D03*
%TO.P,R12,2*%
%TO.N,Net-(R12-Pad2)*%
X138500000Y-113450000D03*
%TD*%
D15*
%TO.P,C15,1*%
%TO.N,Net-(C10-Pad2)*%
X92862500Y-114637500D03*
%TO.P,C15,2*%
%TO.N,Net-(C10-Pad1)*%
X91137500Y-114637500D03*
%TD*%
D14*
%TO.P,C3,1*%
%TO.N,/child_1/n*%
X95294000Y-60198000D03*
%TO.P,C3,2*%
%TO.N,Net-(C3-Pad2)*%
X99694000Y-60198000D03*
%TD*%
D13*
%TO.P,C11,1*%
%TO.N,Net-(C10-Pad1)*%
X91275000Y-86637500D03*
%TO.P,C11,2*%
%TO.N,Net-(C10-Pad2)*%
X93000000Y-86637500D03*
%TD*%
D16*
%TO.P,R4,1*%
%TO.N,Net-(D1-A)*%
X115525000Y-108525000D03*
%TO.P,R4,2*%
%TO.N,/child_1/a*%
X120605000Y-108525000D03*
%TD*%
D15*
%TO.P,C16,1*%
%TO.N,Net-(C10-Pad2)*%
X92862500Y-110637500D03*
%TO.P,C16,2*%
%TO.N,Net-(C10-Pad1)*%
X91137500Y-110637500D03*
%TD*%
D13*
%TO.P,C20,1*%
%TO.N,Net-(C10-Pad1)*%
X91275000Y-106637500D03*
%TO.P,C20,2*%
%TO.N,Net-(C10-Pad2)*%
X93000000Y-106637500D03*
%TD*%
D17*
%TO.P,R3,1*%
%TO.N,/child_1/n*%
X107129000Y-60706000D03*
%TO.P,R3,2*%
%TO.N,Net-(C3-Pad2)*%
X107629000Y-60706000D03*
%TD*%
D13*
%TO.P,C17,1*%
%TO.N,Net-(C10-Pad1)*%
X91275000Y-94637500D03*
%TO.P,C17,2*%
%TO.N,Net-(C10-Pad2)*%
X93000000Y-94637500D03*
%TD*%
%TO.P,C6,1*%
%TO.N,Net-(C10-Pad2)*%
X85275000Y-90637500D03*
%TO.P,C6,2*%
%TO.N,Net-(C10-Pad1)*%
X87000000Y-90637500D03*
%TD*%
D15*
%TO.P,C9,1*%
%TO.N,Net-(C10-Pad1)*%
X87000000Y-106637500D03*
%TO.P,C9,2*%
%TO.N,Net-(C10-Pad2)*%
X85275000Y-106637500D03*
%TD*%
D18*
%TO.P,J1,1,Pin_1_1*%
%TO.N,/child_1/n*%
X113259000Y-54881000D03*
D19*
%TO.P,J1,2,Pin_2_2*%
%TO.N,Net-(J1-Pin_2)*%
X113259000Y-57421000D03*
%TO.P,J1,3,Pin_3_3*%
%TO.N,Net-(J1-Pin_3)*%
X113259000Y-59961000D03*
%TD*%
D10*
%TO.P,R13,1*%
%TO.N,/child_1/a*%
X136500000Y-116400000D03*
%TO.P,R13,2*%
%TO.N,Net-(R13-Pad2)*%
X138500000Y-116400000D03*
%TD*%
D20*
%TO.P,U1,A6,VDDRF_A6*%
%TO.N,unconnected-(U1-NRST-PadE2)*%
X158125000Y-101365770D03*
%TO.P,U1,A8,OSC_IN_A8*%
X158525000Y-101365770D03*
%TO.P,U1,A10,VDD_A10*%
X158925000Y-101365770D03*
%TO.P,U1,A12,VSSSMPS_A12*%
X159325000Y-101365770D03*
%TO.P,U1,B5,VDDANA_B5*%
X157925000Y-101712180D03*
%TO.P,U1,B7,OSC_OUT_B7*%
X158325000Y-101712180D03*
%TO.P,U1,B9,VSS_B9*%
X158725000Y-101712180D03*
%TO.P,U1,B11,VDD11_B11*%
X159125000Y-101712180D03*
%TO.P,U1,B13,VDDSMPS_B13*%
X159525000Y-101712180D03*
%TO.P,U1,C2,RF_C2*%
X157325000Y-102058590D03*
%TO.P,U1,C4,VDDHPA_C4*%
X157725000Y-102058590D03*
%TO.P,U1,C6,VDDRFPA_C6*%
X158125000Y-102058590D03*
%TO.P,U1,C8,PH3_C8*%
X158525000Y-102058590D03*
%TO.P,U1,C10,PB12_C10*%
X158925000Y-102058590D03*
%TO.P,U1,C12,VLXSMPS_C12*%
X159325000Y-102058590D03*
%TO.P,U1,D1,VSSRF_D1*%
X157125000Y-102405000D03*
%TO.P,U1,D3,VSSRF_D3*%
X157525000Y-102405000D03*
%TO.P,U1,D5,VSSRF_D5*%
X157925000Y-102405000D03*
%TO.P,U1,D7,PA8_D7*%
X158325000Y-102405000D03*
%TO.P,U1,D9,PA6_D9*%
X158725000Y-102405000D03*
%TO.P,U1,D11,PA7_D11*%
X159125000Y-102405000D03*
%TO.P,U1,D13,VSSA_D13*%
X159525000Y-102405000D03*
%TO.P,U1,E2,NRST_E2*%
X157325000Y-102751410D03*
%TO.P,U1,E4,PB15_E4*%
X157725000Y-102751410D03*
%TO.P,U1,E6,PA12_E6*%
X158125000Y-102751410D03*
%TO.P,U1,E8,PA13_E8*%
X158525000Y-102751410D03*
%TO.P,U1,E10,PA1_E10*%
X158925000Y-102751410D03*
%TO.P,U1,E12,VDDA_E12*%
X159325000Y-102751410D03*
%TO.P,U1,F1,PA14_F1*%
X157125000Y-103097820D03*
%TO.P,U1,F3,PA15_F3*%
X157525000Y-103097820D03*
%TO.P,U1,F5,PB4_F5*%
X157925000Y-103097820D03*
%TO.P,U1,F7,PC15_F7*%
X158325000Y-103097820D03*
%TO.P,U1,F9,PB9_F9*%
X158725000Y-103097820D03*
%TO.P,U1,F11,PA2_F11*%
X159125000Y-103097820D03*
%TO.P,U1,F13,PA5_F13*%
X159525000Y-103097820D03*
%TO.P,U1,G2,PB3_G2*%
X157325000Y-103444230D03*
%TO.P,U1,G4,VDD_G4*%
X157725000Y-103444230D03*
%TO.P,U1,G6,VSS_G6*%
X158125000Y-103444230D03*
%TO.P,U1,G8,PC14_G8*%
X158525000Y-103444230D03*
%TO.P,U1,G10,PB8_G10*%
X158925000Y-103444230D03*
%TO.P,U1,G12,PA0_G12*%
X159325000Y-103444230D03*
%TD*%
D10*
%TO.P,R17,1*%
%TO.N,Net-(R14-Pad2)*%
X151125000Y-110725000D03*
%TO.P,R17,2*%
%TO.N,Net-(R17-Pad2)*%
X153125000Y-110725000D03*
%TD*%
D11*
%TO.P,D1,1,K_1*%
%TO.N,/child_1/n*%
X113175000Y-80535000D03*
D12*
%TO.P,D1,2,A_2*%
%TO.N,Net-(D1-A)*%
X115715000Y-80535000D03*
%TD*%
D14*
%TO.P,C1,1*%
%TO.N,Net-(C1-Pad1)*%
X103855000Y-50707000D03*
%TO.P,C1,2*%
%TO.N,Net-(J1-Pin_2)*%
X108255000Y-50707000D03*
%TD*%
D13*
%TO.P,C19,1*%
%TO.N,Net-(C10-Pad1)*%
X91275000Y-102637500D03*
%TO.P,C19,2*%
%TO.N,Net-(C10-Pad2)*%
X93000000Y-102637500D03*
%TD*%
D10*
%TO.P,R15,1*%
%TO.N,Net-(R12-Pad2)*%
X145000000Y-113950000D03*
%TO.P,R15,2*%
%TO.N,Net-(R15-Pad2)*%
X147000000Y-113950000D03*
%TD*%
D17*
%TO.P,R7,1*%
%TO.N,Net-(J1-Pin_3)*%
X151750000Y-75000000D03*
%TO.P,R7,2*%
%TO.N,Net-(C1-Pad1)*%
X152250000Y-75000000D03*
%TD*%
D10*
%TO.P,R14,1*%
%TO.N,Net-(R11-Pad2)*%
X145000000Y-111000000D03*
%TO.P,R14,2*%
%TO.N,Net-(R14-Pad2)*%
X147000000Y-111000000D03*
%TD*%
D16*
%TO.P,R9,1*%
%TO.N,Net-(D2-A)*%
X138525000Y-77525000D03*
%TO.P,R9,2*%
%TO.N,/child_1/n*%
X143605000Y-77525000D03*
%TD*%
D10*
%TO.P,R19,1*%
%TO.N,Net-(R16-Pad2)*%
X151125000Y-116625000D03*
%TO.P,R19,2*%
%TO.N,Net-(R17-Pad2)*%
X153125000Y-116625000D03*
%TD*%
D17*
%TO.P,R6,1*%
%TO.N,Net-(C1-Pad1)*%
X153215000Y-75325000D03*
%TO.P,R6,2*%
%TO.N,Net-(J1-Pin_2)*%
X153715000Y-75325000D03*
%TD*%
D15*
%TO.P,C10,1*%
%TO.N,Net-(C10-Pad1)*%
X87000000Y-102637500D03*
%TO.P,C10,2*%
%TO.N,Net-(C10-Pad2)*%
X85275000Y-102637500D03*
%TD*%
D17*
%TO.P,R2,1*%
%TO.N,Net-(J1-Pin_3)*%
X107129000Y-59056000D03*
%TO.P,R2,2*%
%TO.N,Net-(C1-Pad1)*%
X107629000Y-59056000D03*
%TD*%
D13*
%TO.P,C13,1*%
%TO.N,Net-(C10-Pad2)*%
X85275000Y-110637500D03*
%TO.P,C13,2*%
%TO.N,Net-(C10-Pad1)*%
X87000000Y-110637500D03*
%TD*%
D10*
%TO.P,R11,1*%
%TO.N,/child_1/a*%
X136500000Y-110500000D03*
%TO.P,R11,2*%
%TO.N,Net-(R11-Pad2)*%
X138500000Y-110500000D03*
%TD*%
D16*
%TO.P,R5,1*%
%TO.N,Net-(D1-A)*%
X115525000Y-99000000D03*
%TO.P,R5,2*%
%TO.N,/child_1/a*%
X120605000Y-99000000D03*
%TD*%
%TO.P,R10,1*%
%TO.N,Net-(D2-A)*%
X137030000Y-87000000D03*
%TO.P,R10,2*%
%TO.N,/child_1/n*%
X131950000Y-87000000D03*
%TD*%
D21*
%TO.N,Net-(J1-Pin_3)*%
X95208000Y-52578000D03*
X106892000Y-58166000D03*
%TO.N,Net-(C1-Pad1)*%
X102455000Y-54957000D03*
%TO.N,Net-(J1-Pin_2)*%
X104005000Y-54957000D03*
X112480000Y-47752000D03*
%TD*%
%TO.N,Net-(R15-Pad2)*%
D22*
X147275000Y-113675000D02*
X147000000Y-113950000D01*
X151125000Y-113675000D02*
X147275000Y-113675000D01*
%TO.N,Net-(R17-Pad2)*%
X153125000Y-116625000D02*
X153125000Y-110725000D01*
%TO.N,/child_1/a*%
X136500000Y-110500000D02*
X134525000Y-108525000D01*
X134525000Y-108525000D02*
X120605000Y-108525000D01*
X120605000Y-108525000D02*
X120605000Y-99000000D01*
X136500000Y-116400000D02*
X136500000Y-110500000D01*
%TO.N,Net-(D2-A)*%
X139030000Y-85000000D02*
X139015000Y-85015000D01*
X138525000Y-84525000D02*
X139015000Y-85015000D01*
X148665000Y-88635000D02*
X145030000Y-85000000D01*
X145030000Y-85000000D02*
X139030000Y-85000000D01*
X139015000Y-85015000D02*
X137030000Y-87000000D01*
X138525000Y-77525000D02*
X138525000Y-84525000D01*
%TO.N,Net-(R13-Pad2)*%
X138500000Y-116400000D02*
X144500000Y-116400000D01*
X144500000Y-116400000D02*
X145000000Y-116900000D01*
%TO.N,Net-(R16-Pad2)*%
X147000000Y-116900000D02*
X150850000Y-116900000D01*
X150850000Y-116900000D02*
X151125000Y-116625000D01*
%TO.N,Net-(C10-Pad2)*%
X85637500Y-119137500D02*
X85637500Y-118637500D01*
X93000000Y-114500000D02*
X92862500Y-114637500D01*
X92862500Y-118912500D02*
X92637500Y-119137500D01*
X93000000Y-86637500D02*
X93000000Y-114500000D01*
X92637500Y-119137500D02*
X85637500Y-119137500D01*
X85637500Y-118637500D02*
X85275000Y-118275000D01*
X92862500Y-114637500D02*
X92862500Y-118912500D01*
X85275000Y-118275000D02*
X85275000Y-114637500D01*
X85275000Y-114637500D02*
X85275000Y-86637500D01*
%TO.N,Net-(C10-Pad1)*%
X91275000Y-114000000D02*
X91275000Y-86637500D01*
X87000000Y-86637500D02*
X87000000Y-114637500D01*
X91137500Y-114637500D02*
X91137500Y-114137500D01*
X91275000Y-86637500D02*
X87000000Y-86637500D01*
X91137500Y-114137500D02*
X91275000Y-114000000D01*
%TO.N,Net-(J1-Pin_3)*%
X106892000Y-58819000D02*
X107129000Y-59056000D01*
X136201000Y-59961000D02*
X113259000Y-59961000D01*
X95208000Y-50886000D02*
X95294000Y-50800000D01*
X106892000Y-58166000D02*
X106892000Y-58819000D01*
X95208000Y-52578000D02*
X95208000Y-50886000D01*
X151750000Y-75000000D02*
X151240000Y-75000000D01*
X151240000Y-75000000D02*
X136201000Y-59961000D01*
%TO.N,Net-(C1-Pad1)*%
X106638000Y-56134000D02*
X103632000Y-56134000D01*
X107629000Y-59056000D02*
X107629000Y-57125000D01*
X99694000Y-50800000D02*
X103762000Y-50800000D01*
X103762000Y-50800000D02*
X103855000Y-50707000D01*
X153215000Y-75325000D02*
X152575000Y-75325000D01*
X102455000Y-54957000D02*
X102455000Y-52107000D01*
X103632000Y-56134000D02*
X102455000Y-54957000D01*
X152250000Y-75000000D02*
X152250000Y-75149999D01*
X150399999Y-77000000D02*
X150000000Y-77000000D01*
X152250000Y-75149999D02*
X150399999Y-77000000D01*
X107629000Y-57125000D02*
X106638000Y-56134000D01*
X102455000Y-52107000D02*
X103855000Y-50707000D01*
X152575000Y-75325000D02*
X152250000Y-75000000D01*
%TO.N,Net-(R12-Pad2)*%
X139000000Y-113950000D02*
X138500000Y-113450000D01*
X145000000Y-113950000D02*
X139000000Y-113950000D01*
%TO.N,/child_1/n*%
X126000000Y-75000000D02*
X118710000Y-75000000D01*
X97494000Y-62398000D02*
X97494000Y-62484000D01*
X107146000Y-62484000D02*
X107951501Y-61678499D01*
X131000000Y-80000000D02*
X126000000Y-75000000D01*
X108249001Y-61976000D02*
X108924000Y-61976000D01*
X107129000Y-60855999D02*
X107951501Y-61678499D01*
X118710000Y-75000000D02*
X113175000Y-80535000D01*
X110956000Y-59944000D02*
X110956000Y-56388000D01*
X107951501Y-61678499D02*
X108249001Y-61976000D01*
X131000000Y-83000000D02*
X131950000Y-83950000D01*
X97494000Y-62484000D02*
X107146000Y-62484000D01*
X131950000Y-83950000D02*
X131950000Y-87000000D01*
X95294000Y-60198000D02*
X97494000Y-62398000D01*
X107129000Y-60706000D02*
X107129000Y-60855999D01*
X111752000Y-56388000D02*
X113259000Y-54881000D01*
X139000000Y-72000000D02*
X131000000Y-80000000D01*
X110956000Y-56388000D02*
X111752000Y-56388000D01*
X108924000Y-61976000D02*
X110956000Y-59944000D01*
X131000000Y-80000000D02*
X131000000Y-83000000D01*
X139000000Y-72920000D02*
X139000000Y-72000000D01*
X143605000Y-77525000D02*
X139000000Y-72920000D01*
%TO.N,Net-(C3-Pad2)*%
X107629000Y-60706000D02*
X107629000Y-60427000D01*
X107146000Y-59944000D02*
X106892000Y-60198000D01*
X106892000Y-60198000D02*
X99694000Y-60198000D01*
X107629000Y-60427000D02*
X107146000Y-59944000D01*
%TO.N,Net-(D1-A)*%
X115525000Y-99000000D02*
X115525000Y-108525000D01*
%TO.N,Net-(J1-Pin_2)*%
X104005000Y-54957000D02*
X108255000Y-50707000D01*
X108255000Y-50707000D02*
X111210000Y-47752000D01*
X153715000Y-65715000D02*
X143000000Y-55000000D01*
X111210000Y-47752000D02*
X112480000Y-47752000D01*
X115680000Y-55000000D02*
X113259000Y-57421000D01*
X143000000Y-55000000D02*
X115680000Y-55000000D01*
X153715000Y-75325000D02*
X153715000Y-65715000D01*
%TO.N,unconnected-(U1-NRST-PadE2)*%
X159325000Y-102058590D02*
X157325000Y-102058590D01*
X157325000Y-103444230D02*
X157325000Y-103297820D01*
X157125000Y-103097820D02*
X159525000Y-103097820D01*
X158725000Y-102405000D02*
X158725000Y-102258590D01*
X159525000Y-101712180D02*
X157925000Y-101712180D01*
X158125000Y-102751410D02*
X158125000Y-102605000D01*
X159325000Y-102751410D02*
X157325000Y-102751410D01*
X157525000Y-102951410D02*
X157725000Y-102751410D01*
X158125000Y-101365770D02*
X159325000Y-101365770D01*
X157325000Y-103297820D02*
X157125000Y-103097820D01*
X159325000Y-101365770D02*
X159325000Y-101512180D01*
X157525000Y-103097820D02*
X157525000Y-102951410D01*
X159325000Y-103444230D02*
X157325000Y-103444230D01*
X157125000Y-102405000D02*
X159525000Y-102405000D01*
X158125000Y-101912180D02*
X157925000Y-101712180D01*
X158125000Y-102058590D02*
X158125000Y-101912180D01*
X158125000Y-102605000D02*
X158325000Y-102405000D01*
X158725000Y-102258590D02*
X158525000Y-102058590D01*
X159325000Y-101512180D02*
X159525000Y-101712180D01*
%TO.N,Net-(R14-Pad2)*%
X150850000Y-111000000D02*
X151125000Y-110725000D01*
X147000000Y-111000000D02*
X150850000Y-111000000D01*
%TO.N,Net-(R11-Pad2)*%
X138500000Y-110500000D02*
X144500000Y-110500000D01*
X144500000Y-110500000D02*
X145000000Y-111000000D01*
%TD*%
%TA.AperFunction,Conductor*%
%TO.N,Net-(C1-Pad1)*%
G36*
X164877912Y-43019685D02*
G01*
X164923667Y-43072489D01*
X164933611Y-43141647D01*
X164924590Y-43173442D01*
X154999999Y-66000000D01*
X169867800Y-78885427D01*
X169905569Y-78944208D01*
X169905563Y-79014078D01*
X169867783Y-79072852D01*
X169848110Y-79086794D01*
X156077598Y-86955657D01*
X156009625Y-86971827D01*
X155943701Y-86948681D01*
X155933394Y-86940405D01*
X145342396Y-77464248D01*
X145305561Y-77404877D01*
X145302140Y-77388023D01*
X145276405Y-77192547D01*
X145276404Y-77192537D01*
X145218710Y-76977219D01*
X145133405Y-76771274D01*
X145021948Y-76578226D01*
X144886247Y-76401376D01*
X144886242Y-76401370D01*
X144728629Y-76243757D01*
X144728622Y-76243751D01*
X144551782Y-76108058D01*
X144551780Y-76108057D01*
X144551774Y-76108052D01*
X144358726Y-75996595D01*
X144358722Y-75996593D01*
X144152790Y-75911293D01*
X144152783Y-75911291D01*
X144152781Y-75911290D01*
X143937463Y-75853596D01*
X143937457Y-75853595D01*
X143937452Y-75853594D01*
X143716466Y-75824501D01*
X143716463Y-75824500D01*
X143716457Y-75824500D01*
X143557112Y-75824500D01*
X143490073Y-75804815D01*
X143474429Y-75792910D01*
X139641817Y-72363730D01*
X139604982Y-72304359D01*
X139600500Y-72271320D01*
X139600500Y-71920945D01*
X139600500Y-71920943D01*
X139559577Y-71768216D01*
X139559573Y-71768209D01*
X139480524Y-71631290D01*
X139480518Y-71631282D01*
X139368717Y-71519481D01*
X139368709Y-71519475D01*
X139231790Y-71440426D01*
X139231786Y-71440424D01*
X139231784Y-71440423D01*
X139079057Y-71399500D01*
X138920942Y-71399500D01*
X138920940Y-71399500D01*
X138880019Y-71410464D01*
X138880019Y-71410465D01*
X138842751Y-71420451D01*
X138768214Y-71440423D01*
X138768211Y-71440425D01*
X138749744Y-71451087D01*
X138681844Y-71467558D01*
X138615817Y-71444705D01*
X138605063Y-71436109D01*
X138117647Y-71000000D01*
X137000000Y-70000000D01*
X136999999Y-70000000D01*
X130468787Y-71920945D01*
X122180084Y-74358799D01*
X122058833Y-74394461D01*
X122023844Y-74399500D01*
X118789057Y-74399500D01*
X118630943Y-74399500D01*
X118478215Y-74440423D01*
X118478214Y-74440423D01*
X118478212Y-74440424D01*
X118478209Y-74440425D01*
X118428096Y-74469359D01*
X118428095Y-74469360D01*
X118384689Y-74494420D01*
X118341285Y-74519479D01*
X118341282Y-74519481D01*
X118229478Y-74631286D01*
X116991773Y-75868989D01*
X116939081Y-75900269D01*
X103104193Y-79969354D01*
X103034323Y-79969386D01*
X102975528Y-79931638D01*
X102955891Y-79900754D01*
X101565010Y-76771273D01*
X99000000Y-71000000D01*
X98999997Y-70999997D01*
X98999997Y-70999996D01*
X88487839Y-59679210D01*
X88412414Y-59597983D01*
X93293500Y-59597983D01*
X93293500Y-60798001D01*
X93293501Y-60798018D01*
X93304000Y-60900796D01*
X93304001Y-60900799D01*
X93333926Y-60991104D01*
X93359186Y-61067334D01*
X93451288Y-61216656D01*
X93575344Y-61340712D01*
X93724666Y-61432814D01*
X93891203Y-61487999D01*
X93993991Y-61498500D01*
X95693902Y-61498499D01*
X95760941Y-61518184D01*
X95781583Y-61534818D01*
X96900633Y-62653868D01*
X96932725Y-62709450D01*
X96934420Y-62715778D01*
X96934426Y-62715790D01*
X97013475Y-62852709D01*
X97013478Y-62852713D01*
X97013480Y-62852716D01*
X97125284Y-62964520D01*
X97125286Y-62964521D01*
X97125290Y-62964524D01*
X97262209Y-63043573D01*
X97262216Y-63043577D01*
X97414943Y-63084500D01*
X107059331Y-63084500D01*
X107059347Y-63084501D01*
X107066943Y-63084501D01*
X107225054Y-63084501D01*
X107225057Y-63084501D01*
X107377785Y-63043577D01*
X107427904Y-63014639D01*
X107514716Y-62964520D01*
X107626520Y-62852716D01*
X107626520Y-62852714D01*
X107636728Y-62842507D01*
X107636730Y-62842504D01*
X107908581Y-62570652D01*
X107969902Y-62537169D01*
X108028350Y-62538559D01*
X108088093Y-62554567D01*
X108088095Y-62554568D01*
X108088096Y-62554568D01*
X108169942Y-62576500D01*
X108169944Y-62576500D01*
X108837331Y-62576500D01*
X108837347Y-62576501D01*
X108844943Y-62576501D01*
X109003054Y-62576501D01*
X109003057Y-62576501D01*
X109155785Y-62535577D01*
X109205904Y-62506639D01*
X109292716Y-62456520D01*
X109404520Y-62344716D01*
X109404520Y-62344714D01*
X109414728Y-62334507D01*
X109414730Y-62334504D01*
X111314506Y-60434728D01*
X111314511Y-60434724D01*
X111324714Y-60424520D01*
X111324716Y-60424520D01*
X111436520Y-60312716D01*
X111505762Y-60192785D01*
X111515577Y-60175785D01*
X111556501Y-60023057D01*
X111556501Y-59864943D01*
X111556501Y-59857348D01*
X111556500Y-59857330D01*
X111556500Y-57112501D01*
X111576185Y-57045462D01*
X111628989Y-56999707D01*
X111680500Y-56988501D01*
X111814982Y-56988501D01*
X111882021Y-57008186D01*
X111927776Y-57060990D01*
X111937720Y-57130148D01*
X111937455Y-57131899D01*
X111908500Y-57314713D01*
X111908500Y-57527286D01*
X111928840Y-57655711D01*
X111941754Y-57737243D01*
X112005200Y-57932510D01*
X112007444Y-57939414D01*
X112103951Y-58128820D01*
X112228890Y-58300786D01*
X112379213Y-58451109D01*
X112551182Y-58576050D01*
X112559946Y-58580516D01*
X112610742Y-58628491D01*
X112627536Y-58696312D01*
X112604998Y-58762447D01*
X112559946Y-58801484D01*
X112551182Y-58805949D01*
X112379213Y-58930890D01*
X112228890Y-59081213D01*
X112103951Y-59253179D01*
X112007444Y-59442585D01*
X111941753Y-59644760D01*
X111908500Y-59854713D01*
X111908500Y-60067286D01*
X111938804Y-60258622D01*
X111941754Y-60277243D01*
X111989607Y-60424520D01*
X112007444Y-60479414D01*
X112103951Y-60668820D01*
X112228890Y-60840786D01*
X112379213Y-60991109D01*
X112551179Y-61116048D01*
X112551181Y-61116049D01*
X112551184Y-61116051D01*
X112740588Y-61212557D01*
X112942757Y-61278246D01*
X113152713Y-61311500D01*
X113152714Y-61311500D01*
X113365286Y-61311500D01*
X113365287Y-61311500D01*
X113575243Y-61278246D01*
X113777412Y-61212557D01*
X113966816Y-61116051D01*
X114066657Y-61043513D01*
X114138786Y-60991109D01*
X114138788Y-60991106D01*
X114138792Y-60991104D01*
X114289104Y-60840792D01*
X114289106Y-60840788D01*
X114289109Y-60840786D01*
X114347661Y-60760193D01*
X114414051Y-60668816D01*
X114414349Y-60668230D01*
X114434235Y-60629205D01*
X114482209Y-60578409D01*
X114544719Y-60561500D01*
X135900903Y-60561500D01*
X135967942Y-60581185D01*
X135988583Y-60597818D01*
X150871284Y-75480520D01*
X150871286Y-75480521D01*
X150871290Y-75480524D01*
X150973386Y-75539468D01*
X151008216Y-75559577D01*
X151160943Y-75600501D01*
X151160945Y-75600501D01*
X151326654Y-75600501D01*
X151326670Y-75600500D01*
X151365151Y-75600500D01*
X151412603Y-75609938D01*
X151474764Y-75635687D01*
X151575894Y-75649001D01*
X151583474Y-75649999D01*
X151587280Y-75650500D01*
X151587287Y-75650500D01*
X151912713Y-75650500D01*
X151912720Y-75650500D01*
X152025236Y-75635687D01*
X152165233Y-75577698D01*
X152200515Y-75550624D01*
X152265681Y-75525431D01*
X152334126Y-75539468D01*
X152384116Y-75588282D01*
X152400000Y-75649001D01*
X152400000Y-75650000D01*
X152412683Y-75650000D01*
X152412695Y-75649999D01*
X152472832Y-75642081D01*
X152541867Y-75652846D01*
X152587395Y-75689533D01*
X152679905Y-75810094D01*
X152800021Y-75902263D01*
X152939891Y-75960198D01*
X152939895Y-75960199D01*
X153052302Y-75974999D01*
X153052317Y-75975000D01*
X153065000Y-75975000D01*
X153065000Y-75974001D01*
X153084685Y-75906962D01*
X153137489Y-75861207D01*
X153206647Y-75851263D01*
X153264484Y-75875624D01*
X153299767Y-75902698D01*
X153439764Y-75960687D01*
X153528274Y-75972339D01*
X153548474Y-75974999D01*
X153552280Y-75975500D01*
X153552287Y-75975500D01*
X153877713Y-75975500D01*
X153877720Y-75975500D01*
X153990236Y-75960687D01*
X154130233Y-75902698D01*
X154250451Y-75810451D01*
X154342698Y-75690233D01*
X154400687Y-75550236D01*
X154415500Y-75437720D01*
X154415500Y-75212280D01*
X154400687Y-75099764D01*
X154342698Y-74959767D01*
X154341120Y-74957711D01*
X154340330Y-74955666D01*
X154338636Y-74952732D01*
X154339093Y-74952467D01*
X154315930Y-74892542D01*
X154315500Y-74882229D01*
X154315500Y-65635945D01*
X154315500Y-65635943D01*
X154274577Y-65483216D01*
X154274577Y-65483215D01*
X154274577Y-65483214D01*
X154245639Y-65433095D01*
X154245637Y-65433092D01*
X154195520Y-65346284D01*
X154083716Y-65234480D01*
X154083715Y-65234479D01*
X154079385Y-65230149D01*
X154079374Y-65230139D01*
X143487590Y-54638355D01*
X143487588Y-54638352D01*
X143368717Y-54519481D01*
X143368716Y-54519480D01*
X143281904Y-54469360D01*
X143281904Y-54469359D01*
X143281900Y-54469358D01*
X143231785Y-54440423D01*
X143079057Y-54399499D01*
X142920943Y-54399499D01*
X142913347Y-54399499D01*
X142913331Y-54399500D01*
X115766669Y-54399500D01*
X115766653Y-54399499D01*
X115759057Y-54399499D01*
X115600943Y-54399499D01*
X115493587Y-54428265D01*
X115448210Y-54440424D01*
X115448209Y-54440425D01*
X115398096Y-54469359D01*
X115398095Y-54469360D01*
X115354689Y-54494420D01*
X115311285Y-54519479D01*
X115311282Y-54519481D01*
X114821180Y-55009584D01*
X114759857Y-55043069D01*
X114690165Y-55038085D01*
X114634232Y-54996213D01*
X114609815Y-54930749D01*
X114609499Y-54921903D01*
X114609499Y-53983129D01*
X114609498Y-53983123D01*
X114609497Y-53983116D01*
X114603091Y-53923517D01*
X114552796Y-53788669D01*
X114552795Y-53788668D01*
X114552793Y-53788664D01*
X114466547Y-53673455D01*
X114466544Y-53673452D01*
X114351335Y-53587206D01*
X114351328Y-53587202D01*
X114216482Y-53536908D01*
X114216483Y-53536908D01*
X114156883Y-53530501D01*
X114156881Y-53530500D01*
X114156873Y-53530500D01*
X114156864Y-53530500D01*
X112361129Y-53530500D01*
X112361123Y-53530501D01*
X112301516Y-53536908D01*
X112166671Y-53587202D01*
X112166664Y-53587206D01*
X112051455Y-53673452D01*
X112051452Y-53673455D01*
X111965206Y-53788664D01*
X111965202Y-53788671D01*
X111914908Y-53923517D01*
X111908501Y-53983116D01*
X111908501Y-53983123D01*
X111908500Y-53983135D01*
X111908500Y-55330902D01*
X111888815Y-55397941D01*
X111872181Y-55418583D01*
X111539584Y-55751181D01*
X111478261Y-55784666D01*
X111451903Y-55787500D01*
X110876943Y-55787500D01*
X110724216Y-55828423D01*
X110724209Y-55828426D01*
X110587290Y-55907475D01*
X110587282Y-55907481D01*
X110475481Y-56019282D01*
X110475475Y-56019290D01*
X110396426Y-56156209D01*
X110396423Y-56156216D01*
X110355500Y-56308943D01*
X110355500Y-59643903D01*
X110335815Y-59710942D01*
X110319181Y-59731584D01*
X108711584Y-61339181D01*
X108650261Y-61372666D01*
X108623903Y-61375500D01*
X108549099Y-61375500D01*
X108482060Y-61355815D01*
X108461423Y-61339185D01*
X108320218Y-61197980D01*
X108320217Y-61197979D01*
X108315887Y-61193649D01*
X108315876Y-61193639D01*
X108296765Y-61174528D01*
X108263280Y-61113205D01*
X108268264Y-61043513D01*
X108269853Y-61039471D01*
X108314687Y-60931236D01*
X108329500Y-60818720D01*
X108329500Y-60593280D01*
X108314687Y-60480764D01*
X108256698Y-60340767D01*
X108249128Y-60330902D01*
X108226967Y-60302020D01*
X108205567Y-60258622D01*
X108204730Y-60255499D01*
X108188577Y-60195215D01*
X108159639Y-60145095D01*
X108109520Y-60058284D01*
X107997716Y-59946480D01*
X107997715Y-59946479D01*
X107993385Y-59942149D01*
X107993374Y-59942139D01*
X107921011Y-59869776D01*
X107887526Y-59808453D01*
X107892510Y-59738761D01*
X107934382Y-59682828D01*
X107961240Y-59667534D01*
X108043978Y-59633263D01*
X108164094Y-59541094D01*
X108256263Y-59420978D01*
X108314198Y-59281108D01*
X108314199Y-59281103D01*
X108324088Y-59206000D01*
X107953500Y-59206000D01*
X107886461Y-59186315D01*
X107840706Y-59133511D01*
X107829500Y-59082000D01*
X107829500Y-59030000D01*
X107849185Y-58962961D01*
X107901989Y-58917206D01*
X107953500Y-58906000D01*
X108324088Y-58906000D01*
X108324088Y-58905999D01*
X108314199Y-58830896D01*
X108314198Y-58830891D01*
X108256263Y-58691021D01*
X108164094Y-58570905D01*
X108043978Y-58478736D01*
X107904108Y-58420801D01*
X107904104Y-58420800D01*
X107795052Y-58406442D01*
X107731156Y-58378175D01*
X107692686Y-58319850D01*
X107689622Y-58259309D01*
X107692500Y-58244841D01*
X107692500Y-58087155D01*
X107692499Y-58087153D01*
X107661737Y-57932503D01*
X107661735Y-57932498D01*
X107601397Y-57786827D01*
X107601390Y-57786814D01*
X107513789Y-57655711D01*
X107513786Y-57655707D01*
X107402292Y-57544213D01*
X107402288Y-57544210D01*
X107271185Y-57456609D01*
X107271172Y-57456602D01*
X107125501Y-57396264D01*
X107125489Y-57396261D01*
X106970845Y-57365500D01*
X106970842Y-57365500D01*
X106813158Y-57365500D01*
X106813155Y-57365500D01*
X106658510Y-57396261D01*
X106658498Y-57396264D01*
X106512827Y-57456602D01*
X106512814Y-57456609D01*
X106381711Y-57544210D01*
X106381707Y-57544213D01*
X106270213Y-57655707D01*
X106270210Y-57655711D01*
X106182609Y-57786814D01*
X106182602Y-57786827D01*
X106122264Y-57932498D01*
X106122261Y-57932510D01*
X106091500Y-58087153D01*
X106091500Y-58244846D01*
X106122261Y-58399489D01*
X106122264Y-58399501D01*
X106182602Y-58545172D01*
X106182609Y-58545185D01*
X106270601Y-58676873D01*
X106291479Y-58743550D01*
X106291499Y-58745764D01*
X106291499Y-58898054D01*
X106291498Y-58898054D01*
X106296630Y-58917206D01*
X106332423Y-59050785D01*
X106335017Y-59055278D01*
X106335020Y-59055289D01*
X106335023Y-59055288D01*
X106411475Y-59187709D01*
X106414813Y-59192058D01*
X106439379Y-59251362D01*
X106443313Y-59281236D01*
X106493096Y-59401423D01*
X106503296Y-59426047D01*
X106510765Y-59495517D01*
X106479490Y-59557996D01*
X106419401Y-59593648D01*
X106388735Y-59597500D01*
X101806163Y-59597500D01*
X101739124Y-59577815D01*
X101693369Y-59525011D01*
X101684911Y-59499459D01*
X101684000Y-59495207D01*
X101683998Y-59495200D01*
X101628814Y-59328666D01*
X101536712Y-59179344D01*
X101412656Y-59055288D01*
X101263334Y-58963186D01*
X101096797Y-58908001D01*
X101096795Y-58908000D01*
X100994010Y-58897500D01*
X98393998Y-58897500D01*
X98393981Y-58897501D01*
X98291203Y-58908000D01*
X98291200Y-58908001D01*
X98124668Y-58963185D01*
X98124663Y-58963187D01*
X97975342Y-59055289D01*
X97851289Y-59179342D01*
X97759187Y-59328663D01*
X97759185Y-59328668D01*
X97748637Y-59360500D01*
X97704001Y-59495203D01*
X97704001Y-59495204D01*
X97704000Y-59495204D01*
X97693500Y-59597983D01*
X97693500Y-60798001D01*
X97693501Y-60798018D01*
X97704000Y-60900796D01*
X97704001Y-60900799D01*
X97733926Y-60991104D01*
X97759186Y-61067334D01*
X97851288Y-61216656D01*
X97975344Y-61340712D01*
X98124666Y-61432814D01*
X98291203Y-61487999D01*
X98393991Y-61498500D01*
X100994008Y-61498499D01*
X101096797Y-61487999D01*
X101263334Y-61432814D01*
X101412656Y-61340712D01*
X101536712Y-61216656D01*
X101628814Y-61067334D01*
X101683999Y-60900797D01*
X101683999Y-60900793D01*
X101684912Y-60896533D01*
X101718199Y-60835102D01*
X101779414Y-60801419D01*
X101806163Y-60798500D01*
X106317093Y-60798500D01*
X106384132Y-60818185D01*
X106429887Y-60870989D01*
X106440032Y-60906314D01*
X106443313Y-60931234D01*
X106443313Y-60931236D01*
X106499688Y-61067338D01*
X106501302Y-61071233D01*
X106593549Y-61191451D01*
X106616534Y-61209088D01*
X106680229Y-61257964D01*
X106692423Y-61268658D01*
X106767349Y-61343584D01*
X106767355Y-61343589D01*
X107014584Y-61590818D01*
X107048069Y-61652141D01*
X107043085Y-61721833D01*
X107014586Y-61766178D01*
X106933582Y-61847182D01*
X106872262Y-61880666D01*
X106845903Y-61883500D01*
X97880097Y-61883500D01*
X97813058Y-61863815D01*
X97792416Y-61847181D01*
X97215646Y-61270411D01*
X97182161Y-61209088D01*
X97187145Y-61139396D01*
X97197786Y-61117637D01*
X97228814Y-61067334D01*
X97283999Y-60900797D01*
X97294500Y-60798009D01*
X97294499Y-59597992D01*
X97283999Y-59495203D01*
X97228814Y-59328666D01*
X97136712Y-59179344D01*
X97012656Y-59055288D01*
X96863334Y-58963186D01*
X96696797Y-58908001D01*
X96696795Y-58908000D01*
X96594010Y-58897500D01*
X93993998Y-58897500D01*
X93993981Y-58897501D01*
X93891203Y-58908000D01*
X93891200Y-58908001D01*
X93724668Y-58963185D01*
X93724663Y-58963187D01*
X93575342Y-59055289D01*
X93451289Y-59179342D01*
X93359187Y-59328663D01*
X93359185Y-59328668D01*
X93348637Y-59360500D01*
X93304001Y-59495203D01*
X93304001Y-59495204D01*
X93304000Y-59495204D01*
X93293500Y-59597983D01*
X88412414Y-59597983D01*
X86033134Y-57035682D01*
X86001941Y-56973161D01*
X86000000Y-56951306D01*
X86000000Y-54878153D01*
X103204500Y-54878153D01*
X103204500Y-55035846D01*
X103235261Y-55190489D01*
X103235264Y-55190501D01*
X103295602Y-55336172D01*
X103295609Y-55336185D01*
X103383210Y-55467288D01*
X103383213Y-55467292D01*
X103494707Y-55578786D01*
X103494711Y-55578789D01*
X103625814Y-55666390D01*
X103625827Y-55666397D01*
X103771498Y-55726735D01*
X103771503Y-55726737D01*
X103926153Y-55757499D01*
X103926156Y-55757500D01*
X103926158Y-55757500D01*
X104083844Y-55757500D01*
X104083845Y-55757499D01*
X104238497Y-55726737D01*
X104384179Y-55666394D01*
X104515289Y-55578789D01*
X104626789Y-55467289D01*
X104714394Y-55336179D01*
X104774737Y-55190497D01*
X104794113Y-55093085D01*
X104805638Y-55035150D01*
X104838023Y-54973239D01*
X104839518Y-54971716D01*
X107767417Y-52043818D01*
X107828740Y-52010333D01*
X107855098Y-52007499D01*
X109555002Y-52007499D01*
X109555008Y-52007499D01*
X109657797Y-51996999D01*
X109824334Y-51941814D01*
X109973656Y-51849712D01*
X110097712Y-51725656D01*
X110189814Y-51576334D01*
X110244999Y-51409797D01*
X110255500Y-51307009D01*
X110255499Y-50106992D01*
X110244999Y-50004203D01*
X110189814Y-49837666D01*
X110189810Y-49837659D01*
X110158788Y-49787364D01*
X110140348Y-49719972D01*
X110161271Y-49653308D01*
X110176641Y-49634592D01*
X111422416Y-48388819D01*
X111483739Y-48355334D01*
X111510097Y-48352500D01*
X111900234Y-48352500D01*
X111967273Y-48372185D01*
X111969125Y-48373398D01*
X112100814Y-48461390D01*
X112100827Y-48461397D01*
X112246498Y-48521735D01*
X112246503Y-48521737D01*
X112401153Y-48552499D01*
X112401156Y-48552500D01*
X112401158Y-48552500D01*
X112558844Y-48552500D01*
X112558845Y-48552499D01*
X112713497Y-48521737D01*
X112859179Y-48461394D01*
X112990289Y-48373789D01*
X113101789Y-48262289D01*
X113189394Y-48131179D01*
X113249737Y-47985497D01*
X113280500Y-47830842D01*
X113280500Y-47673158D01*
X113280500Y-47673155D01*
X113280499Y-47673153D01*
X113249738Y-47518510D01*
X113249737Y-47518503D01*
X113193728Y-47383284D01*
X113189397Y-47372827D01*
X113189390Y-47372814D01*
X113101789Y-47241711D01*
X113101786Y-47241707D01*
X112990292Y-47130213D01*
X112990288Y-47130210D01*
X112859185Y-47042609D01*
X112859172Y-47042602D01*
X112713501Y-46982264D01*
X112713489Y-46982261D01*
X112558845Y-46951500D01*
X112558842Y-46951500D01*
X112401158Y-46951500D01*
X112401155Y-46951500D01*
X112246510Y-46982261D01*
X112246498Y-46982264D01*
X112100827Y-47042602D01*
X112100814Y-47042609D01*
X111969125Y-47130602D01*
X111902447Y-47151480D01*
X111900234Y-47151500D01*
X111289057Y-47151500D01*
X111130943Y-47151500D01*
X110978215Y-47192423D01*
X110978214Y-47192423D01*
X110978212Y-47192424D01*
X110978209Y-47192425D01*
X110928096Y-47221359D01*
X110928095Y-47221360D01*
X110892853Y-47241707D01*
X110841285Y-47271479D01*
X110841282Y-47271481D01*
X110729478Y-47383286D01*
X108742582Y-49370181D01*
X108681259Y-49403666D01*
X108654901Y-49406500D01*
X106954998Y-49406500D01*
X106954981Y-49406501D01*
X106852203Y-49417000D01*
X106852200Y-49417001D01*
X106685668Y-49472185D01*
X106685663Y-49472187D01*
X106536342Y-49564289D01*
X106412289Y-49688342D01*
X106320187Y-49837663D01*
X106320185Y-49837668D01*
X106320115Y-49837880D01*
X106265001Y-50004203D01*
X106265001Y-50004204D01*
X106265000Y-50004204D01*
X106254500Y-50106983D01*
X106254500Y-51307001D01*
X106254501Y-51307018D01*
X106265000Y-51409796D01*
X106265001Y-51409799D01*
X106320185Y-51576331D01*
X106320188Y-51576338D01*
X106351211Y-51626635D01*
X106369650Y-51694027D01*
X106348726Y-51760691D01*
X106333352Y-51779411D01*
X103990339Y-54122425D01*
X103929016Y-54155910D01*
X103926850Y-54156361D01*
X103771508Y-54187261D01*
X103771498Y-54187264D01*
X103625827Y-54247602D01*
X103625814Y-54247609D01*
X103494711Y-54335210D01*
X103494707Y-54335213D01*
X103383213Y-54446707D01*
X103383210Y-54446711D01*
X103295609Y-54577814D01*
X103295602Y-54577827D01*
X103235264Y-54723498D01*
X103235261Y-54723510D01*
X103204500Y-54878153D01*
X86000000Y-54878153D01*
X86000000Y-50199983D01*
X93293500Y-50199983D01*
X93293500Y-51400001D01*
X93293501Y-51400018D01*
X93304000Y-51502796D01*
X93304001Y-51502799D01*
X93328369Y-51576336D01*
X93359186Y-51669334D01*
X93451288Y-51818656D01*
X93575344Y-51942712D01*
X93724666Y-52034814D01*
X93891203Y-52089999D01*
X93993991Y-52100500D01*
X94353754Y-52100499D01*
X94420792Y-52120183D01*
X94466547Y-52172987D01*
X94476491Y-52242146D01*
X94468314Y-52271951D01*
X94438264Y-52344498D01*
X94438261Y-52344510D01*
X94407500Y-52499153D01*
X94407500Y-52656846D01*
X94438261Y-52811489D01*
X94438264Y-52811501D01*
X94498602Y-52957172D01*
X94498609Y-52957185D01*
X94586210Y-53088288D01*
X94586213Y-53088292D01*
X94697707Y-53199786D01*
X94697711Y-53199789D01*
X94828814Y-53287390D01*
X94828827Y-53287397D01*
X94974498Y-53347735D01*
X94974503Y-53347737D01*
X95129153Y-53378499D01*
X95129156Y-53378500D01*
X95129158Y-53378500D01*
X95286844Y-53378500D01*
X95286845Y-53378499D01*
X95441497Y-53347737D01*
X95587179Y-53287394D01*
X95718289Y-53199789D01*
X95829789Y-53088289D01*
X95917394Y-52957179D01*
X95977737Y-52811497D01*
X96008500Y-52656842D01*
X96008500Y-52499158D01*
X96008500Y-52499155D01*
X96008499Y-52499153D01*
X95977738Y-52344510D01*
X95977737Y-52344503D01*
X95977735Y-52344498D01*
X95947686Y-52271951D01*
X95940217Y-52202481D01*
X95971493Y-52140002D01*
X96031582Y-52104351D01*
X96062247Y-52100499D01*
X96594002Y-52100499D01*
X96594008Y-52100499D01*
X96696797Y-52089999D01*
X96863334Y-52034814D01*
X97012656Y-51942712D01*
X97136712Y-51818656D01*
X97228814Y-51669334D01*
X97283999Y-51502797D01*
X97294500Y-51400009D01*
X97294500Y-51399986D01*
X97694001Y-51399986D01*
X97704494Y-51502697D01*
X97759641Y-51669119D01*
X97759643Y-51669124D01*
X97851684Y-51818345D01*
X97975654Y-51942315D01*
X98124875Y-52034356D01*
X98124880Y-52034358D01*
X98291302Y-52089505D01*
X98291309Y-52089506D01*
X98394019Y-52099999D01*
X99443999Y-52099999D01*
X99444000Y-52099998D01*
X99444000Y-51050000D01*
X99944000Y-51050000D01*
X99944000Y-52099999D01*
X100993972Y-52099999D01*
X100993986Y-52099998D01*
X101096697Y-52089505D01*
X101263119Y-52034358D01*
X101263124Y-52034356D01*
X101412345Y-51942315D01*
X101536315Y-51818345D01*
X101628356Y-51669124D01*
X101628359Y-51669117D01*
X101672202Y-51536807D01*
X101711974Y-51479362D01*
X101776490Y-51452538D01*
X101845266Y-51464853D01*
X101896466Y-51512395D01*
X101907614Y-51536805D01*
X101920642Y-51576121D01*
X101920643Y-51576124D01*
X102012684Y-51725345D01*
X102136654Y-51849315D01*
X102285875Y-51941356D01*
X102285880Y-51941358D01*
X102452302Y-51996505D01*
X102452309Y-51996506D01*
X102555019Y-52006999D01*
X103604999Y-52006999D01*
X104105000Y-52006999D01*
X105154972Y-52006999D01*
X105154986Y-52006998D01*
X105257697Y-51996505D01*
X105424119Y-51941358D01*
X105424124Y-51941356D01*
X105573345Y-51849315D01*
X105697315Y-51725345D01*
X105789356Y-51576124D01*
X105789358Y-51576119D01*
X105844505Y-51409697D01*
X105844506Y-51409690D01*
X105854999Y-51306986D01*
X105855000Y-51306973D01*
X105855000Y-50957000D01*
X104105000Y-50957000D01*
X104105000Y-52006999D01*
X103604999Y-52006999D01*
X103605000Y-52006998D01*
X103605000Y-50957000D01*
X101855001Y-50957000D01*
X101842114Y-50969886D01*
X101835316Y-50993039D01*
X101782512Y-51038794D01*
X101731001Y-51050000D01*
X99944000Y-51050000D01*
X99444000Y-51050000D01*
X97694001Y-51050000D01*
X97694001Y-51399986D01*
X97294500Y-51399986D01*
X97294499Y-50200013D01*
X97694000Y-50200013D01*
X97694000Y-50550000D01*
X99444000Y-50550000D01*
X99444000Y-49500000D01*
X99944000Y-49500000D01*
X99944000Y-50550000D01*
X101693999Y-50550000D01*
X101706885Y-50537113D01*
X101713684Y-50513961D01*
X101766488Y-50468206D01*
X101817999Y-50457000D01*
X103605000Y-50457000D01*
X104105000Y-50457000D01*
X105854999Y-50457000D01*
X105854999Y-50107028D01*
X105854998Y-50107013D01*
X105844505Y-50004302D01*
X105789358Y-49837880D01*
X105789356Y-49837875D01*
X105697315Y-49688654D01*
X105573345Y-49564684D01*
X105424124Y-49472643D01*
X105424119Y-49472641D01*
X105257697Y-49417494D01*
X105257690Y-49417493D01*
X105154986Y-49407000D01*
X104105000Y-49407000D01*
X104105000Y-50457000D01*
X103605000Y-50457000D01*
X103605000Y-49407000D01*
X102555028Y-49407000D01*
X102555012Y-49407001D01*
X102452302Y-49417494D01*
X102285880Y-49472641D01*
X102285875Y-49472643D01*
X102136654Y-49564684D01*
X102012684Y-49688654D01*
X101920643Y-49837875D01*
X101920641Y-49837880D01*
X101876797Y-49970193D01*
X101837024Y-50027638D01*
X101772508Y-50054461D01*
X101703732Y-50042146D01*
X101652533Y-49994603D01*
X101641385Y-49970192D01*
X101628359Y-49930882D01*
X101628356Y-49930875D01*
X101536315Y-49781654D01*
X101412345Y-49657684D01*
X101263124Y-49565643D01*
X101263119Y-49565641D01*
X101096697Y-49510494D01*
X101096690Y-49510493D01*
X100993986Y-49500000D01*
X99944000Y-49500000D01*
X99444000Y-49500000D01*
X98394028Y-49500000D01*
X98394012Y-49500001D01*
X98291302Y-49510494D01*
X98124880Y-49565641D01*
X98124875Y-49565643D01*
X97975654Y-49657684D01*
X97851684Y-49781654D01*
X97759643Y-49930875D01*
X97759641Y-49930880D01*
X97704494Y-50097302D01*
X97704493Y-50097309D01*
X97694000Y-50200013D01*
X97294499Y-50200013D01*
X97294499Y-50199992D01*
X97283999Y-50097203D01*
X97228814Y-49930666D01*
X97136712Y-49781344D01*
X97012656Y-49657288D01*
X96863334Y-49565186D01*
X96696797Y-49510001D01*
X96696795Y-49510000D01*
X96594010Y-49499500D01*
X93993998Y-49499500D01*
X93993981Y-49499501D01*
X93891203Y-49510000D01*
X93891200Y-49510001D01*
X93724668Y-49565185D01*
X93724663Y-49565187D01*
X93575342Y-49657289D01*
X93451289Y-49781342D01*
X93359187Y-49930663D01*
X93359185Y-49930668D01*
X93359115Y-49930880D01*
X93304001Y-50097203D01*
X93304001Y-50097204D01*
X93304000Y-50097204D01*
X93293500Y-50199983D01*
X86000000Y-50199983D01*
X86000000Y-45106381D01*
X86019685Y-45039342D01*
X86072489Y-44993587D01*
X86105139Y-44983824D01*
X98990627Y-43001442D01*
X99009482Y-43000000D01*
X164810873Y-43000000D01*
X164877912Y-43019685D01*
G37*
%TD.AperFunction*%
%TD*%
M02*
